<svg id="Layer_1" data-name="Layer 1" xmlns="http://www.w3.org/2000/svg" xmlns:xlink="http://www.w3.org/1999/xlink" viewBox="0 0 1166.02 959.26"><defs><style>.cls-1{fill:none;}.cls-2{clip-path:url(#clip-path);}.cls-3{fill:url(#linear-gradient);}.cls-4{fill:url(#linear-gradient-2);}.cls-5{fill:url(#linear-gradient-3);}.cls-6{fill:url(#linear-gradient-4);}.cls-7{fill:url(#linear-gradient-5);}.cls-8{fill:url(#linear-gradient-6);}.cls-9{fill:url(#linear-gradient-7);}.cls-10{fill:url(#linear-gradient-8);}.cls-11{fill:url(#linear-gradient-9);}.cls-12{fill:url(#linear-gradient-10);}.cls-13{fill:url(#linear-gradient-11);}.cls-14{fill:url(#linear-gradient-12);}.cls-15{fill:url(#linear-gradient-13);}.cls-16{fill:url(#linear-gradient-14);}.cls-17{fill:url(#linear-gradient-15);}.cls-18{fill:url(#linear-gradient-16);}.cls-19{fill:url(#linear-gradient-17);}.cls-20{fill:url(#linear-gradient-18);}.cls-21{fill:url(#linear-gradient-19);}.cls-22{fill:url(#linear-gradient-20);}.cls-23{fill:url(#linear-gradient-21);}.cls-24{fill:url(#linear-gradient-22);}.cls-25{fill:url(#linear-gradient-23);}.cls-26{fill:url(#linear-gradient-24);}.cls-27{fill:url(#linear-gradient-25);}.cls-28{fill:url(#linear-gradient-26);}.cls-29{fill:url(#linear-gradient-27);}.cls-30{fill:url(#linear-gradient-28);}.cls-31{fill:url(#linear-gradient-29);}.cls-32{fill:url(#linear-gradient-30);}.cls-33{fill:url(#linear-gradient-31);}.cls-34{fill:url(#linear-gradient-32);}.cls-35{fill:url(#linear-gradient-33);}.cls-36{fill:url(#linear-gradient-34);}.cls-37{fill:url(#linear-gradient-35);}.cls-38{fill:url(#linear-gradient-36);}.cls-39{fill:url(#linear-gradient-37);}.cls-40{fill:url(#linear-gradient-38);}.cls-41{fill:url(#linear-gradient-39);}.cls-42{fill:url(#linear-gradient-40);}.cls-43{fill:url(#linear-gradient-41);}.cls-44{fill:url(#linear-gradient-42);}.cls-45{fill:url(#linear-gradient-43);}.cls-46{fill:url(#linear-gradient-44);}.cls-47{fill:url(#linear-gradient-45);}.cls-48{fill:url(#linear-gradient-46);}.cls-49{fill:url(#linear-gradient-47);}.cls-50{fill:url(#linear-gradient-48);}.cls-51{fill:url(#linear-gradient-49);}.cls-52{fill:url(#linear-gradient-50);}.cls-53{fill:url(#linear-gradient-51);}.cls-54{fill:url(#linear-gradient-52);}.cls-55{fill:url(#linear-gradient-53);}.cls-56{fill:url(#linear-gradient-54);}.cls-57{fill:url(#linear-gradient-55);}.cls-58{fill:url(#linear-gradient-56);}.cls-59{fill:url(#linear-gradient-57);}.cls-60{fill:url(#linear-gradient-58);}.cls-61{fill:url(#linear-gradient-59);}.cls-62{fill:url(#linear-gradient-60);}.cls-63{fill:url(#linear-gradient-61);}.cls-64{fill:url(#linear-gradient-62);}.cls-65{fill:url(#linear-gradient-63);}.cls-66{fill:url(#linear-gradient-64);}.cls-67{fill:url(#linear-gradient-65);}.cls-68{fill:url(#linear-gradient-66);}.cls-69{fill:url(#linear-gradient-67);}.cls-70{fill:url(#linear-gradient-68);}.cls-71{fill:url(#linear-gradient-69);}.cls-72{fill:url(#linear-gradient-70);}.cls-73{fill:url(#linear-gradient-71);}.cls-74{fill:url(#linear-gradient-72);}.cls-75{fill:url(#linear-gradient-73);}.cls-76{fill:url(#linear-gradient-74);}.cls-77{fill:url(#linear-gradient-75);}.cls-78{fill:url(#linear-gradient-76);}.cls-79{fill:url(#linear-gradient-77);}.cls-80{fill:url(#linear-gradient-78);}.cls-81{fill:url(#linear-gradient-79);}.cls-82{fill:url(#linear-gradient-80);}.cls-83{fill:url(#linear-gradient-81);}.cls-84{fill:url(#linear-gradient-82);}.cls-85{fill:url(#radial-gradient);}.cls-86{fill:url(#radial-gradient-2);}.cls-87{fill:url(#radial-gradient-3);}.cls-88{fill:url(#radial-gradient-4);}.cls-89{fill:url(#radial-gradient-5);}.cls-90{fill:url(#radial-gradient-6);}.cls-91{fill:url(#radial-gradient-7);}.cls-92{fill:url(#radial-gradient-8);}.cls-93{fill:url(#radial-gradient-9);}.cls-94{fill:url(#radial-gradient-10);}.cls-95{fill:url(#radial-gradient-11);}.cls-96{fill:url(#radial-gradient-12);}.cls-97{fill:url(#radial-gradient-13);}.cls-98{fill:url(#radial-gradient-14);}.cls-99{fill:url(#radial-gradient-15);}.cls-100{fill:url(#radial-gradient-16);}.cls-101{fill:url(#radial-gradient-17);}.cls-102{fill:url(#radial-gradient-18);}.cls-103{fill:url(#radial-gradient-19);}.cls-104{fill:url(#radial-gradient-20);}.cls-105{fill:url(#radial-gradient-21);}.cls-106{fill:url(#radial-gradient-22);}.cls-107{fill:url(#radial-gradient-23);}.cls-108{fill:url(#radial-gradient-24);}.cls-109{fill:url(#radial-gradient-25);}.cls-110{fill:url(#radial-gradient-26);}.cls-111{fill:url(#radial-gradient-27);}.cls-112{fill:url(#radial-gradient-28);}.cls-113{fill:url(#radial-gradient-29);}.cls-114{fill:url(#radial-gradient-30);}.cls-115{fill:url(#radial-gradient-31);}.cls-116{fill:url(#radial-gradient-32);}.cls-117{fill:url(#radial-gradient-33);}.cls-118{fill:url(#radial-gradient-34);}.cls-119{fill:url(#radial-gradient-35);}.cls-120{fill:url(#radial-gradient-36);}.cls-121{fill:url(#radial-gradient-37);}</style><clipPath id="clip-path"><polygon class="cls-1" points="1140.7 25.46 1115.45 0.21 1090.2 25.46 1064.95 0.21 1039.7 25.46 1014.24 0 1015.04 -0.8 1013.34 -0.8 1014.14 0 988.69 25.46 963.23 0 964.03 -0.8 962.33 -0.8 963.13 0 937.68 25.46 912.43 0.21 887.18 25.46 861.93 0.21 836.68 25.46 811.22 0 812.02 -0.8 811.63 -0.8 786.18 24.66 760.93 -0.59 735.68 24.66 710.43 -0.59 685.18 24.66 659.72 -0.8 659.62 -0.8 634.17 24.66 608.71 -0.8 608.61 -0.8 583.16 24.66 557.91 -0.59 532.66 24.66 507.41 -0.59 482.16 24.66 456.7 -0.8 456.6 -0.8 431.15 24.66 405.69 -0.8 405.59 -0.8 380.14 24.66 354.89 -0.59 329.64 24.66 304.39 -0.59 279.14 24.66 253.68 -0.8 253.58 -0.8 228.13 24.66 202.67 -0.8 202.57 -0.8 177.12 24.66 151.87 -0.59 126.62 24.66 101.37 -0.59 76.12 24.66 50.66 -0.8 50.56 -0.8 25.11 24.66 -0.35 -0.8 -0.35 959.25 1164.7 959.25 1164.7 1.45 1140.7 25.46"/></clipPath><linearGradient id="linear-gradient" x1="-95.38" y1="-17.58" x2="35.01" y2="112.82" gradientTransform="matrix(1, 0, 0, -1, 0, 935.2)" gradientUnits="userSpaceOnUse"><stop offset="0" stop-color="#c52b7a"/><stop offset="1" stop-color="#c01a6f"/></linearGradient><linearGradient id="linear-gradient-2" x1="-30.72" y1="86.83" x2="61.54" y2="179.08" gradientTransform="matrix(1, 0, 0, -1, 0, 935.2)" gradientUnits="userSpaceOnUse"><stop offset="0" stop-color="#ba0361"/><stop offset="1" stop-color="#b9005f"/></linearGradient><linearGradient id="linear-gradient-3" x1="-39.74" y1="146.1" x2="57.7" y2="243.54" gradientTransform="matrix(1, 0, 0, -1, 0, 935.2)" gradientUnits="userSpaceOnUse"><stop offset="0" stop-color="#c01a6f"/><stop offset="1" stop-color="#bc0a65"/></linearGradient><linearGradient id="linear-gradient-4" x1="-118.28" y1="204.31" x2="185.51" y2="508.1" gradientTransform="matrix(1, 0, 0, -1, 0, 935.2)" gradientUnits="userSpaceOnUse"><stop offset="0" stop-color="#b9005f"/><stop offset="1" stop-color="#c83882"/></linearGradient><linearGradient id="linear-gradient-5" x1="-290.41" y1="258.59" x2="129.87" y2="678.88" gradientTransform="matrix(1, 0, 0, -1, 0, 935.2)" gradientUnits="userSpaceOnUse"><stop offset="0" stop-color="#b2175f"/><stop offset="1" stop-color="#b82b6d"/></linearGradient><linearGradient id="linear-gradient-6" x1="-61.88" y1="-45.64" x2="82.68" y2="98.91" gradientTransform="matrix(1, 0, 0, -1, 0, 935.2)" gradientUnits="userSpaceOnUse"><stop offset="0" stop-color="#c42677"/><stop offset="1" stop-color="#be126a"/></linearGradient><linearGradient id="linear-gradient-7" x1="-13.21" y1="27.45" x2="104.9" y2="145.56" gradientTransform="matrix(1, 0, 0, -1, 0, 935.2)" gradientUnits="userSpaceOnUse"><stop offset="0" stop-color="#b9005f"/><stop offset="1" stop-color="#ff67c8"/></linearGradient><linearGradient id="linear-gradient-8" x1="-151.24" y1="-225.36" x2="120.98" y2="46.86" gradientTransform="matrix(1, 0, 0, -1, 0, 935.2)" gradientUnits="userSpaceOnUse"><stop offset="0" stop-color="#c22174"/><stop offset="1" stop-color="#c7337f"/></linearGradient><linearGradient id="linear-gradient-9" x1="21.37" y1="-89.95" x2="193.28" y2="81.96" gradientTransform="matrix(1, 0, 0, -1, 0, 935.2)" gradientUnits="userSpaceOnUse"><stop offset="0" stop-color="#aa004f"/><stop offset="1" stop-color="#c83882"/></linearGradient><linearGradient id="linear-gradient-10" x1="24.02" y1="-26.37" x2="266.83" y2="216.43" gradientTransform="matrix(1, 0, 0, -1, 0, 935.2)" gradientUnits="userSpaceOnUse"><stop offset="0" stop-color="#c22174"/><stop offset="1" stop-color="#c11c71"/></linearGradient><linearGradient id="linear-gradient-11" x1="308.12" y1="804.99" x2="667.02" y2="1163.89" gradientTransform="matrix(1, 0, 0, -1, 0, 935.2)" gradientUnits="userSpaceOnUse"><stop offset="0" stop-color="#c01a6f"/><stop offset="1" stop-color="#c42979"/></linearGradient><linearGradient id="linear-gradient-12" x1="1086" y1="865.85" x2="1218.15" y2="997.99" gradientTransform="matrix(1, 0, 0, -1, 0, 935.2)" gradientUnits="userSpaceOnUse"><stop offset="0" stop-color="#be126a"/><stop offset="1" stop-color="#ba0361"/></linearGradient><linearGradient id="linear-gradient-13" x1="401.6" y1="-279" x2="813.02" y2="132.43" gradientTransform="matrix(1, 0, 0, -1, 0, 935.2)" gradientUnits="userSpaceOnUse"><stop offset="0" stop-color="#c83681"/><stop offset="1" stop-color="#ff62c6"/></linearGradient><linearGradient id="linear-gradient-14" x1="453.68" y1="-398.93" x2="1001.27" y2="148.66" gradientTransform="matrix(1, 0, 0, -1, 0, 935.2)" gradientUnits="userSpaceOnUse"><stop offset="0" stop-color="#b90076"/><stop offset="1" stop-color="#ff5ac3"/></linearGradient><linearGradient id="linear-gradient-15" x1="933.83" y1="-123.56" x2="1136.46" y2="79.07" gradientTransform="matrix(1, 0, 0, -1, 0, 935.2)" gradientUnits="userSpaceOnUse"><stop offset="0" stop-color="#ff3fbe"/><stop offset="1" stop-color="#ff3dbe"/></linearGradient><linearGradient id="linear-gradient-16" x1="969.05" y1="191" x2="1216.72" y2="438.67" gradientTransform="matrix(1, 0, 0, -1, 0, 935.2)" gradientUnits="userSpaceOnUse"><stop offset="0" stop-color="#ff4dc3"/><stop offset="1" stop-color="#bd0d7d"/></linearGradient><linearGradient id="linear-gradient-17" x1="895.19" y1="1.91" x2="1162.67" y2="269.39" gradientTransform="matrix(1, 0, 0, -1, 0, 935.2)" gradientUnits="userSpaceOnUse"><stop offset="0" stop-color="#ff3bbd"/><stop offset="1" stop-color="#ff54c6"/></linearGradient><linearGradient id="linear-gradient-18" x1="891.89" y1="4.11" x2="1173.86" y2="286.09" gradientTransform="matrix(1, 0, 0, -1, 0, 935.2)" gradientUnits="userSpaceOnUse"><stop offset="0" stop-color="#ff54c6"/><stop offset="1" stop-color="#ba0377"/></linearGradient><linearGradient id="linear-gradient-19" x1="861.13" y1="299.05" x2="1127.65" y2="565.56" gradientTransform="matrix(1, 0, 0, -1, 0, 935.2)" gradientUnits="userSpaceOnUse"><stop offset="0" stop-color="#ff67c8"/><stop offset="1" stop-color="#ff5fc5"/></linearGradient><linearGradient id="linear-gradient-20" x1="923.64" y1="457.15" x2="1219.35" y2="752.86" gradientTransform="matrix(1, 0, 0, -1, 0, 935.2)" gradientUnits="userSpaceOnUse"><stop offset="0" stop-color="#bd0d7d"/><stop offset="1" stop-color="#ff69c8"/></linearGradient><linearGradient id="linear-gradient-21" x1="905.02" y1="452.23" x2="1212.29" y2="759.51" gradientTransform="matrix(1, 0, 0, -1, 0, 935.2)" gradientUnits="userSpaceOnUse"><stop offset="0" stop-color="#bb087a"/><stop offset="1" stop-color="#ff5fc5"/></linearGradient><linearGradient id="linear-gradient-22" x1="1026.14" y1="679.11" x2="1225.32" y2="878.3" gradientTransform="matrix(1, 0, 0, -1, 0, 935.2)" gradientUnits="userSpaceOnUse"><stop offset="0" stop-color="#ff64c7"/><stop offset="1" stop-color="#ff67c8"/></linearGradient><linearGradient id="linear-gradient-23" x1="980.58" y1="790.6" x2="1171.28" y2="981.3" gradientTransform="matrix(1, 0, 0, -1, 0, 935.2)" gradientUnits="userSpaceOnUse"><stop offset="0" stop-color="#ba0562"/><stop offset="1" stop-color="#bc0a65"/></linearGradient><linearGradient id="linear-gradient-24" x1="892.64" y1="776.61" x2="1069.48" y2="953.45" gradientTransform="matrix(1, 0, 0, -1, 0, 935.2)" gradientUnits="userSpaceOnUse"><stop offset="0" stop-color="#c11f72"/><stop offset="1" stop-color="#bd0f69"/></linearGradient><linearGradient id="linear-gradient-25" x1="861.72" y1="756.13" x2="1030.13" y2="924.55" gradientTransform="matrix(1, 0, 0, -1, 0, 935.2)" gradientUnits="userSpaceOnUse"><stop offset="0" stop-color="#ba0361"/><stop offset="1" stop-color="#be126a"/></linearGradient><linearGradient id="linear-gradient-26" x1="763.54" y1="863.55" x2="890.38" y2="990.39" gradientTransform="matrix(1, 0, 0, -1, 0, 935.2)" gradientUnits="userSpaceOnUse"><stop offset="0" stop-color="#c01a6f"/><stop offset="1" stop-color="#bf176d"/></linearGradient><linearGradient id="linear-gradient-27" x1="771.81" y1="-9.48" x2="975.21" y2="193.92" gradientTransform="matrix(1, 0, 0, -1, 0, 935.2)" gradientUnits="userSpaceOnUse"><stop offset="0" stop-color="#ff3dbe"/><stop offset="1" stop-color="#b90076"/></linearGradient><linearGradient id="linear-gradient-28" x1="300.88" y1="-36.22" x2="489.28" y2="152.18" gradientTransform="matrix(1, 0, 0, -1, 0, 935.2)" gradientUnits="userSpaceOnUse"><stop offset="0" stop-color="#ad0854"/><stop offset="1" stop-color="#c6307d"/></linearGradient><linearGradient id="linear-gradient-29" x1="311.33" y1="-25.73" x2="543.03" y2="205.98" gradientTransform="matrix(1, 0, 0, -1, 0, 935.2)" gradientUnits="userSpaceOnUse"><stop offset="0" stop-color="#c42979"/><stop offset="1" stop-color="#bd0d67"/></linearGradient><linearGradient id="linear-gradient-30" x1="217.85" y1="-42.24" x2="366.94" y2="106.85" gradientTransform="matrix(1, 0, 0, -1, 0, 935.2)" gradientUnits="userSpaceOnUse"><stop offset="0" stop-color="#b0125b"/><stop offset="1" stop-color="#c93b84"/></linearGradient><linearGradient id="linear-gradient-31" x1="35.67" y1="-31.7" x2="280.46" y2="213.09" gradientTransform="matrix(1, 0, 0, -1, 0, 935.2)" gradientUnits="userSpaceOnUse"><stop offset="0" stop-color="#aa004f"/><stop offset="1" stop-color="#bd0d67"/></linearGradient><linearGradient id="linear-gradient-32" x1="102.92" y1="83.13" x2="339.87" y2="320.09" gradientTransform="matrix(1, 0, 0, -1, 0, 935.2)" gradientUnits="userSpaceOnUse"><stop offset="0" stop-color="#bb0864"/><stop offset="1" stop-color="#ff5dc4"/></linearGradient><linearGradient id="linear-gradient-33" x1="-56.33" y1="247.87" x2="227.86" y2="532.06" gradientTransform="matrix(1, 0, 0, -1, 0, 935.2)" gradientUnits="userSpaceOnUse"><stop offset="0" stop-color="#ff66c7"/><stop offset="1" stop-color="#c01a6f"/></linearGradient><linearGradient id="linear-gradient-34" x1="-12.4" y1="291.63" x2="262.06" y2="566.08" gradientTransform="matrix(1, 0, 0, -1, 0, 935.2)" gradientUnits="userSpaceOnUse"><stop offset="0" stop-color="#c01a6f"/><stop offset="1" stop-color="#b0125b"/></linearGradient><linearGradient id="linear-gradient-35" x1="556.81" y1="827.61" x2="722.93" y2="993.72" gradientTransform="matrix(1, 0, 0, -1, 0, 935.2)" gradientUnits="userSpaceOnUse"><stop offset="0" stop-color="#bf176d"/><stop offset="1" stop-color="#c01a6f"/></linearGradient><linearGradient id="linear-gradient-36" x1="658.9" y1="866.85" x2="763.49" y2="971.44" gradientTransform="matrix(1, 0, 0, -1, 0, 935.2)" gradientUnits="userSpaceOnUse"><stop offset="0" stop-color="#c01a6f"/><stop offset="1" stop-color="#c01a6f"/></linearGradient><linearGradient id="linear-gradient-37" x1="244.73" y1="517.95" x2="462.78" y2="736" gradientTransform="matrix(1, 0, 0, -1, 0, 935.2)" gradientUnits="userSpaceOnUse"><stop offset="0" stop-color="#b52166"/><stop offset="1" stop-color="#b8296b"/></linearGradient><linearGradient id="linear-gradient-38" x1="503.51" y1="606.12" x2="583.5" y2="686.12" gradientTransform="matrix(1, 0, 0, -1, 0, 935.2)" gradientUnits="userSpaceOnUse"><stop offset="0" stop-color="#b1145d"/><stop offset="1" stop-color="#b1145d"/></linearGradient><linearGradient id="linear-gradient-39" x1="596.84" y1="-117.61" x2="897.65" y2="183.2" gradientTransform="matrix(1, 0, 0, -1, 0, 935.2)" gradientUnits="userSpaceOnUse"><stop offset="0" stop-color="#ff58c7"/><stop offset="1" stop-color="#ba0562"/></linearGradient><linearGradient id="linear-gradient-40" x1="600.09" y1="-147.65" x2="944.2" y2="196.46" gradientTransform="matrix(1, 0, 0, -1, 0, 935.2)" gradientUnits="userSpaceOnUse"><stop offset="0" stop-color="#ff4bc2"/><stop offset="1" stop-color="#bb087a"/></linearGradient><linearGradient id="linear-gradient-41" x1="492.33" y1="-4.52" x2="664.87" y2="168.02" gradientTransform="matrix(1, 0, 0, -1, 0, 935.2)" gradientUnits="userSpaceOnUse"><stop offset="0" stop-color="#c11f72"/><stop offset="1" stop-color="#ff61c5"/></linearGradient><linearGradient id="linear-gradient-42" x1="537.21" y1="100.03" x2="903.32" y2="466.13" gradientTransform="matrix(1, 0, 0, -1, 0, 935.2)" gradientUnits="userSpaceOnUse"><stop offset="0" stop-color="#ff56c6"/><stop offset="1" stop-color="#ff5cc4"/></linearGradient><linearGradient id="linear-gradient-43" x1="553.07" y1="149.14" x2="763.96" y2="360.01" gradientTransform="matrix(1, 0, 0, -1, 0, 935.2)" gradientUnits="userSpaceOnUse"><stop offset="0" stop-color="#bd0f7e"/><stop offset="1" stop-color="#ff5dc4"/></linearGradient><linearGradient id="linear-gradient-44" x1="767.58" y1="257.03" x2="968.49" y2="457.93" gradientTransform="matrix(1, 0, 0, -1, 0, 935.2)" gradientUnits="userSpaceOnUse"><stop offset="0" stop-color="#be126a"/><stop offset="1" stop-color="#c42979"/></linearGradient><linearGradient id="linear-gradient-45" x1="682.48" y1="172.14" x2="931.87" y2="421.52" gradientTransform="matrix(1, 0, 0, -1, 0, 935.2)" gradientUnits="userSpaceOnUse"><stop offset="0" stop-color="#bc0a7b"/><stop offset="1" stop-color="#ba0562"/></linearGradient><linearGradient id="linear-gradient-46" x1="542.82" y1="105.61" x2="827.14" y2="389.93" gradientTransform="matrix(1, 0, 0, -1, 0, 935.2)" gradientUnits="userSpaceOnUse"><stop offset="0" stop-color="#bd0f7e"/><stop offset="1" stop-color="#be126a"/></linearGradient><linearGradient id="linear-gradient-47" x1="641" y1="374.19" x2="834.78" y2="567.97" gradientTransform="matrix(1, 0, 0, -1, 0, 935.2)" gradientUnits="userSpaceOnUse"><stop offset="0" stop-color="#c52b7a"/><stop offset="1" stop-color="#c83681"/></linearGradient><linearGradient id="linear-gradient-48" x1="525.85" y1="429.87" x2="744.49" y2="648.51" gradientTransform="matrix(1, 0, 0, -1, 0, 935.2)" gradientUnits="userSpaceOnUse"><stop offset="0" stop-color="#c6307d"/><stop offset="1" stop-color="#ac0553"/></linearGradient><linearGradient id="linear-gradient-49" x1="744.87" y1="456.71" x2="899.46" y2="611.3" gradientTransform="matrix(1, 0, 0, -1, 0, 935.2)" gradientUnits="userSpaceOnUse"><stop offset="0" stop-color="#c6307d"/><stop offset="1" stop-color="#c32475"/></linearGradient><linearGradient id="linear-gradient-50" x1="791.25" y1="502.98" x2="1030.1" y2="741.83" gradientTransform="matrix(1, 0, 0, -1, 0, 935.2)" gradientUnits="userSpaceOnUse"><stop offset="0" stop-color="#bf146c"/><stop offset="1" stop-color="#be126a"/></linearGradient><linearGradient id="linear-gradient-51" x1="597.55" y1="571.07" x2="808.45" y2="781.99" gradientTransform="matrix(1, 0, 0, -1, 0, 935.2)" gradientUnits="userSpaceOnUse"><stop offset="0" stop-color="#ae0d58"/><stop offset="1" stop-color="#c93b84"/></linearGradient><linearGradient id="linear-gradient-52" x1="745.71" y1="640.31" x2="983.37" y2="877.97" gradientTransform="matrix(1, 0, 0, -1, 0, 935.2)" gradientUnits="userSpaceOnUse"><stop offset="0" stop-color="#ff67c8"/><stop offset="1" stop-color="#bd0f69"/></linearGradient><linearGradient id="linear-gradient-53" x1="606.83" y1="580.26" x2="810.01" y2="783.44" gradientTransform="matrix(1, 0, 0, -1, 0, 935.2)" gradientUnits="userSpaceOnUse"><stop offset="0" stop-color="#c62e7c"/><stop offset="1" stop-color="#c42979"/></linearGradient><linearGradient id="linear-gradient-54" x1="710.14" y1="650.64" x2="884.15" y2="824.65" gradientTransform="matrix(1, 0, 0, -1, 0, 935.2)" gradientUnits="userSpaceOnUse"><stop offset="0" stop-color="#c11c71"/><stop offset="1" stop-color="#bb0864"/></linearGradient><linearGradient id="linear-gradient-55" x1="581.66" y1="687.59" x2="765.54" y2="871.46" gradientTransform="matrix(1, 0, 0, -1, 0, 935.2)" gradientUnits="userSpaceOnUse"><stop offset="0" stop-color="#c6307d"/><stop offset="1" stop-color="#bd0f69"/></linearGradient><linearGradient id="linear-gradient-56" x1="731.77" y1="834.5" x2="832.92" y2="935.65" gradientTransform="matrix(1, 0, 0, -1, 0, 935.2)" gradientUnits="userSpaceOnUse"><stop offset="0" stop-color="#bb0864"/><stop offset="1" stop-color="#bd0d67"/></linearGradient><linearGradient id="linear-gradient-57" x1="713.02" y1="830.14" x2="796.73" y2="913.86" gradientTransform="matrix(1, 0, 0, -1, 0, 935.2)" gradientUnits="userSpaceOnUse"><stop offset="0" stop-color="#bc0a65"/><stop offset="1" stop-color="#bd0f69"/></linearGradient><linearGradient id="linear-gradient-58" x1="502.19" y1="649.29" x2="586.49" y2="733.59" gradientTransform="matrix(1, 0, 0, -1, 0, 935.2)" gradientUnits="userSpaceOnUse"><stop offset="0" stop-color="#b2175f"/><stop offset="1" stop-color="#ad0854"/></linearGradient><linearGradient id="linear-gradient-59" x1="440.77" y1="710.25" x2="632.56" y2="902.04" gradientTransform="matrix(1, 0, 0, -1, 0, 935.2)" gradientUnits="userSpaceOnUse"><stop offset="0" stop-color="#ae0d58"/><stop offset="1" stop-color="#c6307d"/></linearGradient><linearGradient id="linear-gradient-60" x1="553.43" y1="700.52" x2="717.58" y2="864.67" gradientTransform="matrix(1, 0, 0, -1, 0, 935.2)" gradientUnits="userSpaceOnUse"><stop offset="0" stop-color="#c93b84"/><stop offset="1" stop-color="#c42979"/></linearGradient><linearGradient id="linear-gradient-61" x1="501.02" y1="771.91" x2="674.9" y2="945.79" gradientTransform="matrix(1, 0, 0, -1, 0, 935.2)" gradientUnits="userSpaceOnUse"><stop offset="0" stop-color="#bf146c"/><stop offset="1" stop-color="#c42677"/></linearGradient><linearGradient id="linear-gradient-62" x1="302.66" y1="314.44" x2="576.1" y2="587.88" gradientTransform="matrix(1, 0, 0, -1, 0, 935.2)" gradientUnits="userSpaceOnUse"><stop offset="0" stop-color="#b9005f"/><stop offset="1" stop-color="#c42979"/></linearGradient><linearGradient id="linear-gradient-63" x1="429.41" y1="333.24" x2="852.64" y2="756.46" gradientTransform="matrix(1, 0, 0, -1, 0, 935.2)" gradientUnits="userSpaceOnUse"><stop offset="0" stop-color="#c6307d"/><stop offset="1" stop-color="#aa004f"/></linearGradient><linearGradient id="linear-gradient-64" x1="333.04" y1="344.7" x2="614.52" y2="626.19" gradientTransform="matrix(1, 0, 0, -1, 0, 935.2)" gradientUnits="userSpaceOnUse"><stop offset="0" stop-color="#b31a61"/><stop offset="1" stop-color="#ad0854"/></linearGradient><linearGradient id="linear-gradient-65" x1="355.77" y1="343.42" x2="666" y2="653.65" xlink:href="#linear-gradient-64"/><linearGradient id="linear-gradient-66" x1="223.27" y1="177.93" x2="527.65" y2="482.32" gradientTransform="matrix(1, 0, 0, -1, 0, 935.2)" gradientUnits="userSpaceOnUse"><stop offset="0" stop-color="#ba0562"/><stop offset="1" stop-color="#ff69c8"/></linearGradient><linearGradient id="linear-gradient-67" x1="369.63" y1="72.41" x2="653.6" y2="356.39" gradientTransform="matrix(1, 0, 0, -1, 0, 935.2)" gradientUnits="userSpaceOnUse"><stop offset="0" stop-color="#ba0361"/><stop offset="1" stop-color="#ff66c7"/></linearGradient><linearGradient id="linear-gradient-68" x1="526.21" y1="222.11" x2="666.46" y2="362.36" gradientTransform="matrix(1, 0, 0, -1, 0, 935.2)" gradientUnits="userSpaceOnUse"><stop offset="0" stop-color="#ff5ac3"/><stop offset="1" stop-color="#bb0864"/></linearGradient><linearGradient id="linear-gradient-69" x1="315.78" y1="605.58" x2="523.1" y2="812.9" gradientTransform="matrix(1, 0, 0, -1, 0, 935.2)" gradientUnits="userSpaceOnUse"><stop offset="0" stop-color="#b41f64"/><stop offset="1" stop-color="#b31c62"/></linearGradient><linearGradient id="linear-gradient-70" x1="358.27" y1="647.96" x2="574.77" y2="864.47" gradientTransform="matrix(1, 0, 0, -1, 0, 935.2)" gradientUnits="userSpaceOnUse"><stop offset="0" stop-color="#af0f5a"/><stop offset="1" stop-color="#c83681"/></linearGradient><linearGradient id="linear-gradient-71" x1="102.67" y1="677.13" x2="373.55" y2="948.02" gradientTransform="matrix(1, 0, 0, -1, 0, 935.2)" gradientUnits="userSpaceOnUse"><stop offset="0" stop-color="#ad0a56"/><stop offset="1" stop-color="#ad0854"/></linearGradient><linearGradient id="linear-gradient-72" x1="277.33" y1="783.71" x2="481.41" y2="987.78" gradientTransform="matrix(1, 0, 0, -1, 0, 935.2)" gradientUnits="userSpaceOnUse"><stop offset="0" stop-color="#c01a6f"/><stop offset="1" stop-color="#c6307d"/></linearGradient><linearGradient id="linear-gradient-73" x1="154.56" y1="744.5" x2="346.96" y2="936.9" gradientTransform="matrix(1, 0, 0, -1, 0, 935.2)" gradientUnits="userSpaceOnUse"><stop offset="0" stop-color="#c42677"/><stop offset="1" stop-color="#aa004f"/></linearGradient><linearGradient id="linear-gradient-74" x1="20.03" y1="478.96" x2="323.82" y2="782.76" gradientTransform="matrix(1, 0, 0, -1, 0, 935.2)" gradientUnits="userSpaceOnUse"><stop offset="0" stop-color="#ae0d58"/><stop offset="1" stop-color="#ad0854"/></linearGradient><linearGradient id="linear-gradient-75" x1="28.38" y1="487.41" x2="326.65" y2="785.68" gradientTransform="matrix(1, 0, 0, -1, 0, 935.2)" gradientUnits="userSpaceOnUse"><stop offset="0" stop-color="#b31c62"/><stop offset="1" stop-color="#b1145d"/></linearGradient><linearGradient id="linear-gradient-76" x1="-53.27" y1="558.59" x2="141.52" y2="753.39" xlink:href="#linear-gradient-71"/><linearGradient id="linear-gradient-77" x1="-41.78" y1="718.24" x2="79.07" y2="839.09" gradientTransform="matrix(1, 0, 0, -1, 0, 935.2)" gradientUnits="userSpaceOnUse"><stop offset="0" stop-color="#b8296b"/><stop offset="1" stop-color="#b62468"/></linearGradient><linearGradient id="linear-gradient-78" x1="109.71" y1="687.84" x2="343.24" y2="921.39" gradientTransform="matrix(1, 0, 0, -1, 0, 935.2)" gradientUnits="userSpaceOnUse"><stop offset="0" stop-color="#aa004f"/><stop offset="1" stop-color="#c83681"/></linearGradient><linearGradient id="linear-gradient-79" x1="-17.07" y1="805.43" x2="118.81" y2="941.32" gradientTransform="matrix(1, 0, 0, -1, 0, 935.2)" gradientUnits="userSpaceOnUse"><stop offset="0" stop-color="#c44f86"/><stop offset="1" stop-color="#b8296b"/></linearGradient><linearGradient id="linear-gradient-80" x1="-24.82" y1="792.1" x2="119.72" y2="936.63" gradientTransform="matrix(1, 0, 0, -1, 0, 935.2)" gradientUnits="userSpaceOnUse"><stop offset="0" stop-color="#bf407b"/><stop offset="1" stop-color="#b31a61"/></linearGradient><linearGradient id="linear-gradient-81" x1="52.84" y1="831.88" x2="173.98" y2="953.02" gradientTransform="matrix(1, 0, 0, -1, 0, 935.2)" gradientUnits="userSpaceOnUse"><stop offset="0" stop-color="#b31a61"/><stop offset="1" stop-color="#b0125b"/></linearGradient><linearGradient id="linear-gradient-82" x1="-0.35" y1="455.73" x2="1165.21" y2="455.73" xlink:href="#linear-gradient-42"/><radialGradient id="radial-gradient" cx="586.16" cy="162.43" r="31.48" gradientTransform="matrix(1, 0, 0, -1, 0, 935.2)" gradientUnits="userSpaceOnUse"><stop offset="0" stop-color="#fff"/><stop offset="0" stop-color="#fffdfe"/><stop offset="0.07" stop-color="#ffd6f1"/><stop offset="0.14" stop-color="#ffb4e6"/><stop offset="0.22" stop-color="#ff97dc"/><stop offset="0.31" stop-color="#ff7fd4"/><stop offset="0.4" stop-color="#ff6dce"/><stop offset="0.52" stop-color="#ff60c9"/><stop offset="0.67" stop-color="#ff58c7"/><stop offset="1" stop-color="#ff56c6"/></radialGradient><radialGradient id="radial-gradient-2" cx="1002.41" cy="768.65" r="31.48" xlink:href="#radial-gradient"/><radialGradient id="radial-gradient-3" cx="746.06" cy="112.4" r="31.48" xlink:href="#radial-gradient"/><radialGradient id="radial-gradient-4" cx="495.61" cy="653.99" r="31.48" xlink:href="#radial-gradient"/><radialGradient id="radial-gradient-5" cx="922.75" cy="509.22" r="31.48" xlink:href="#radial-gradient"/><radialGradient id="radial-gradient-6" cx="92.89" cy="802.51" r="31.48" xlink:href="#radial-gradient"/><radialGradient id="radial-gradient-7" cx="261.5" cy="355.91" r="31.48" xlink:href="#radial-gradient"/><radialGradient id="radial-gradient-8" cx="625.03" cy="389.11" r="12.64" xlink:href="#radial-gradient"/><radialGradient id="radial-gradient-9" cx="525.38" cy="903.87" r="12.64" xlink:href="#radial-gradient"/><radialGradient id="radial-gradient-10" cx="317.34" cy="705.53" r="12.64" xlink:href="#radial-gradient"/><radialGradient id="radial-gradient-11" cx="304.74" cy="132.84" r="12.64" xlink:href="#radial-gradient"/><radialGradient id="radial-gradient-12" cx="54.14" cy="181.27" r="12.65" xlink:href="#radial-gradient"/><radialGradient id="radial-gradient-13" cx="778.13" cy="606.79" r="12.65" xlink:href="#radial-gradient"/><radialGradient id="radial-gradient-14" cx="766.33" cy="818.89" r="12.65" xlink:href="#radial-gradient"/><radialGradient id="radial-gradient-15" cx="1110.39" cy="356.06" r="6.04" xlink:href="#radial-gradient"/><radialGradient id="radial-gradient-16" cx="1033.9" cy="771.02" r="6.04" xlink:href="#radial-gradient"/><radialGradient id="radial-gradient-17" cx="1033.9" cy="815.34" r="6.04" xlink:href="#radial-gradient"/><radialGradient id="radial-gradient-18" cx="907.75" cy="737.16" r="6.04" xlink:href="#radial-gradient"/><radialGradient id="radial-gradient-19" cx="896.2" cy="549.02" r="6.04" xlink:href="#radial-gradient"/><radialGradient id="radial-gradient-20" cx="620.85" cy="207.62" r="6.04" xlink:href="#radial-gradient"/><radialGradient id="radial-gradient-21" cx="826.98" cy="148.65" r="6.04" xlink:href="#radial-gradient"/><radialGradient id="radial-gradient-22" cx="446.28" cy="639.05" r="6.04" xlink:href="#radial-gradient"/><radialGradient id="radial-gradient-23" cx="283.58" cy="395.8" r="6.04" xlink:href="#radial-gradient"/><radialGradient id="radial-gradient-24" cx="204.24" cy="330.37" r="6.04" xlink:href="#radial-gradient"/><radialGradient id="radial-gradient-25" cx="76.19" cy="120.84" r="6.04" xlink:href="#radial-gradient"/><radialGradient id="radial-gradient-26" cx="292.96" cy="80.91" r="6.04" xlink:href="#radial-gradient"/><radialGradient id="radial-gradient-27" cx="49.84" cy="831.53" r="6.04" xlink:href="#radial-gradient"/><radialGradient id="radial-gradient-28" cx="103.87" cy="731.21" r="6.04" xlink:href="#radial-gradient"/><radialGradient id="radial-gradient-29" cx="198.1" cy="834" r="6.04" xlink:href="#radial-gradient"/><radialGradient id="radial-gradient-30" cx="283.58" cy="679.54" r="6.04" xlink:href="#radial-gradient"/><radialGradient id="radial-gradient-31" cx="558.57" cy="891.22" r="6.04" xlink:href="#radial-gradient"/><radialGradient id="radial-gradient-32" cx="548.42" cy="376.45" r="6.04" xlink:href="#radial-gradient"/><radialGradient id="radial-gradient-33" cx="624.75" cy="560.91" r="6.04" xlink:href="#radial-gradient"/><radialGradient id="radial-gradient-34" cx="82.32" cy="534.04" r="6.04" xlink:href="#radial-gradient"/><radialGradient id="radial-gradient-35" cx="61.44" cy="370.51" r="6.04" xlink:href="#radial-gradient"/><radialGradient id="radial-gradient-36" cx="1015.34" cy="86.86" r="6.04" xlink:href="#radial-gradient"/><radialGradient id="radial-gradient-37" cx="1027.77" cy="615.7" r="6.04" xlink:href="#radial-gradient"/></defs><title>footer-back</title><g class="cls-2"><polygon class="cls-1" points="-0.09 37.46 -0.09 -0.49 6.15 -0.49 0.11 37.48 -0.09 37.46"/><polygon class="cls-3" points="-0.09 878.14 -0.09 836.6 7.17 846 0.11 878.17 -0.09 878.14"/><polygon class="cls-4" points="-0.07 836.97 -0.09 782.04 54.63 749.15 7.11 846.26 -0.07 836.97"/><polygon class="cls-5" points="-0.09 694.82 54.56 749.44 -0.09 782.22 -0.09 694.82"/><polygon class="cls-6" points="-0.06 695.13 -0.09 482.83 11.49 409.49 11.69 409.49 54.53 749.71 -0.06 695.13"/><polygon class="cls-7" points="-0.09 482.83 -0.09 289.53 0.11 289.52 11.7 409.5 0.11 482.84 -0.09 482.83"/><polygon class="cls-8" points="-0.09 959.48 -0.09 878.14 7.04 845.8 59.03 926.06 23.79 959.48 -0.09 959.48"/><polygon class="cls-9" points="7 846.12 54.29 749.38 54.49 749.42 59.01 926.4 7 846.12"/><polygon class="cls-10" points="23.49 959.48 58.92 925.88 76.19 959.48 23.49 959.48"/><polygon class="cls-11" points="75.95 959.48 58.68 925.86 149.05 959.29 149.02 959.48 75.95 959.48"/><polygon class="cls-12" points="149.02 959.48 58.8 926.11 54.28 749.1 208.33 959.48 149.02 959.48"/><polygon class="cls-13" points="302.15 -0.29 302.16 -0.49 575.48 -0.49 529.69 26.37 302.15 -0.29"/><polygon class="cls-14" points="1135.09 -0.29 1135.12 -0.49 1164.96 -0.49 1164.96 11.14 1135.09 -0.29"/><polygon class="cls-15" points="411.37 959.48 411.35 959.27 495.85 942.6 914.83 945.93 914.83 946.14 653.39 959.48 411.37 959.48"/><polygon class="cls-16" points="653.39 959.48 653.38 959.27 914.82 945.93 1003.5 959.27 1003.48 959.48 653.39 959.48"/><polygon class="cls-17" points="1003.48 959.48 914.81 946.14 914.81 945.93 1164.96 901.28 1164.96 959.48 1003.48 959.48"/><polygon class="cls-18" points="1164.96 486.38 1164.96 670.9 907.75 682.89 1164.96 486.38"/><polygon class="cls-19" points="907.96 682.55 1164.92 890.21 1164.96 901.48 914.73 946.16 907.96 682.55"/><polygon class="cls-20" points="907.8 682.69 1164.96 670.7 1164.96 890.5 907.8 682.69"/><polygon class="cls-21" points="916.99 426.05 1164.96 469.58 1164.96 486.59 907.96 682.98 916.99 426.05"/><polygon class="cls-22" points="916.95 426.25 1002.65 165.99 1164.95 442.12 1164.96 469.78 916.95 426.25"/><polygon class="cls-23" points="1002.44 166.03 1164.96 230.54 1164.96 442.54 1002.44 166.03"/><polygon class="cls-24" points="1002.47 166.27 1164.96 37.27 1164.96 230.76 1002.47 166.27"/><polygon class="cls-25" points="1048.41 -0.49 1135.12 -0.49 1164.96 10.92 1164.96 37.49 1002.5 166.51 1048.41 -0.49"/><polygon class="cls-26" points="933.7 -0.49 1048.63 -0.49 1002.7 166.55 933.7 -0.49"/><polygon class="cls-27" points="842.59 69.61 914.58 -0.46 933.92 -0.49 1002.89 166.48 842.59 69.61"/><polygon class="cls-28" points="756.46 -0.49 914.91 -0.49 842.76 69.73 756.46 -0.49"/><polygon class="cls-29" points="745.73 826.08 908.17 682.55 914.94 946.24 745.73 826.08"/><polygon class="cls-30" points="324.94 959.48 306.54 799.18 496.12 942.77 411.38 959.48 324.94 959.48"/><polygon class="cls-31" points="306.4 799.34 586.15 772.63 495.91 942.86 306.4 799.34"/><polygon class="cls-32" points="242.02 959.48 306.57 799.38 306.76 799.4 325.14 959.48 242.02 959.48"/><polygon class="cls-33" points="208.12 959.48 54.15 749.27 306.81 799.34 242.24 959.48 208.12 959.48"/><polygon class="cls-34" points="54.16 749.48 261.68 579.27 306.8 799.54 54.16 749.48"/><polygon class="cls-35" points="11.46 409.3 261.79 579.46 54.31 749.61 11.46 409.3"/><polygon class="cls-36" points="11.53 409.59 11.61 409.41 277.5 449.41 261.7 579.64 11.53 409.59"/><polygon class="cls-37" points="529.38 26.32 575.05 -0.48 682.23 -0.49 710.03 63.07 529.38 26.32"/><polygon class="cls-38" points="682.01 -0.49 750.7 -0.49 709.84 63.14 682.01 -0.49"/><polygon class="cls-39" points="315.59 232.76 496.1 279.49 277.23 449.75 315.59 232.76"/><polygon class="cls-40" points="495.64 279.53 577.08 242.72 570.29 319.7 495.64 279.53"/><polygon class="cls-41" points="495.52 942.81 669.26 835.98 914.88 945.95 914.83 946.14 495.52 942.81"/><polygon class="cls-42" points="668.94 836.01 745.88 825.96 914.89 945.96 914.79 946.13 668.94 836.01"/><polygon class="cls-43" points="585.94 772.59 669.5 836.07 495.6 942.99 585.94 772.59"/><polygon class="cls-44" points="626.41 546.15 626.61 546.1 746.04 826.16 669.22 836.19 626.41 546.15"/><polygon class="cls-45" points="585.86 772.8 626.41 546.12 626.62 546.12 669.45 836.3 585.86 772.8"/><polygon class="cls-46" points="790.8 509.46 917.19 425.98 908.17 683.09 790.8 509.46"/><polygon class="cls-47" points="790.88 509.21 908.21 682.79 745.76 826.33 790.88 509.21"/><polygon class="cls-48" points="626.37 546.06 791.07 509.35 745.95 826.45 626.37 546.06"/><polygon class="cls-49" points="777.51 325.9 791.06 509.56 626.29 546.3 777.51 325.9"/><polygon class="cls-50" points="570.08 319.42 777.63 326.1 626.47 546.39 570.08 319.42"/><polygon class="cls-51" points="777.31 325.98 917.26 426.17 790.85 509.66 777.31 325.98"/><polygon class="cls-52" points="777.26 326.2 1002.87 165.97 917.14 426.34 777.26 326.2"/><polygon class="cls-53" points="570.1 319.63 576.87 242.73 777.47 326.11 777.43 326.3 570.1 319.63"/><polygon class="cls-54" points="842.69 69.43 1002.86 166.23 777.27 326.44 842.69 69.43"/><polygon class="cls-55" points="576.74 242.91 766.26 119.4 777.54 326.35 576.74 242.91"/><polygon class="cls-56" points="777.33 326.2 766.07 119.58 842.91 69.37 777.53 326.22 777.33 326.2"/><polygon class="cls-57" points="576.87 242.82 709.85 62.77 766.33 119.6 577.02 242.97 576.87 242.82"/><polygon class="cls-58" points="752.9 -0.49 756.75 -0.49 842.92 69.6 766.08 119.75 752.9 -0.49"/><polygon class="cls-59" points="709.72 62.95 750.43 -0.44 753.11 -0.49 766.31 119.86 709.72 62.95"/><polygon class="cls-60" points="495.79 279.48 563.49 192.67 577.08 242.95 495.92 279.63 495.79 279.48"/><polygon class="cls-61" points="529.55 26.26 529.76 26.25 563.54 192.88 495.73 279.9 529.55 26.26"/><polygon class="cls-62" points="563.33 192.87 709.79 62.86 709.94 62.99 576.91 243.11 563.33 192.87"/><polygon class="cls-63" points="529.53 26.14 710.08 62.87 563.38 193.09 529.53 26.14"/><polygon class="cls-64" points="277.3 449.38 597.26 522.71 597.25 522.92 261.49 579.59 277.3 449.38"/><polygon class="cls-65" points="597.17 522.89 570.11 319.54 570.3 319.5 626.69 546.41 597.17 522.89"/><polygon class="cls-66" points="277.15 449.55 495.92 279.38 597.4 522.96 277.15 449.55"/><polygon class="cls-67" points="495.66 279.32 570.25 319.44 597.33 522.8 597.14 522.85 495.66 279.32"/><polygon class="cls-68" points="261.49 579.38 597.55 522.65 306.6 799.61 261.49 579.38"/><polygon class="cls-69" points="597.35 522.56 586.07 772.85 306.38 799.54 597.35 522.56"/><polygon class="cls-70" points="585.87 772.75 597.15 522.61 626.63 546.09 586.07 772.77 585.87 772.75"/><polygon class="cls-71" points="315.54 232.96 335.9 179.41 495.93 279.45 495.85 279.64 315.54 232.96"/><polygon class="cls-72" points="335.77 179.58 529.8 26.04 495.95 279.72 335.77 179.58"/><polygon class="cls-73" points="173.15 -0.49 175.22 -0.49 336.07 179.55 315.7 233.11 173.15 -0.49"/><polygon class="cls-74" points="302.04 -0.5 529.91 26.2 335.88 179.75 302.04 -0.5"/><polygon class="cls-75" points="174.99 -0.49 302.24 -0.49 336.11 179.91 174.99 -0.49"/><polygon class="cls-76" points="11.46 409.59 92.65 132.66 277.58 449.63 11.46 409.59"/><polygon class="cls-77" points="92.43 132.69 315.79 232.83 277.44 449.79 92.43 132.69"/><polygon class="cls-78" points="11.49 409.52 -0.09 289.54 -0.09 241.33 92.6 132.85 92.78 132.94 11.69 409.53 11.49 409.52"/><polygon class="cls-79" points="-0.09 108.94 92.87 132.85 -0.09 241.6 -0.09 108.94"/><polygon class="cls-80" points="92.54 132.96 165.56 -0.49 173.33 -0.49 315.93 233.11 92.54 132.96"/><polygon class="cls-81" points="-0.09 109.14 -0.09 -0.49 11.16 -0.49 92.9 133.07 -0.09 109.14"/><polygon class="cls-82" points="10.98 -0.49 87.15 -0.49 92.8 133.3 10.98 -0.49"/><polygon class="cls-83" points="86.94 -0.49 165.79 -0.49 92.59 133.28 86.94 -0.49"/><path class="cls-84" d="M1165.21,901.7v-.77h0V891h0V469.36h0V-.75h-863l-.46-.05v.05H-.35v243h0v47h0v193.8h0V694.22h0V782.7h0v53.2h0V959.74H1165.2v-58h0Zm-323-831.34L777.67,323.84,766.58,120.5l.06.06-.09-.8.09-.06ZM316,233.4l.64.29-.14-.24L495.08,279.7,277.89,448.64ZM907.48,682.77l-.55.42h.13l-160.67,142,44.78-314.7,116.25,172h-.31ZM586.41,772.35l40.11-224,42.35,286.88-82.4-62.55.17-.32ZM569.83,319.74v.14h.07l26.66,200.38-100-239.94Zm27.79,202.65v-.45l-.13.13L571.32,325.51,625.91,545.2l-28.1-22.42.55-.52ZM569.93,319l-73.25-39.42,79.87-36.1Zm56.78,226.32-56-225.38,206.1,6.62Zm.34,1.12,163.47-36.45-44.8,314.8Zm.32-.81L777.14,327.24l13.44,182ZM570.63,319.18l6.69-75.78,198.21,82.37Zm-74.85-39L596.63,522.28l-318.44-73,217.2-169-.06.44ZM277.7,449.93l317.7,72.8L262,579ZM626,546.21l-.33.47.36-.08L586.53,767.34l11-243.81ZM745.38,825.78l-75.79,9.88L627.27,548.84ZM576.54,242.68,497,278.57l66.23-85Zm201.32,84.25,138.6,99.25L791.26,508.85ZM563.85,193,707.53,65.47,577.11,242.07Zm-.8-.19L496.4,278.28,529.73,28.44l33.33,164.33h0ZM277,449.76l-.1.55h.05L261.33,578.83,13.09,410.1Zm319.17,73.56L306.89,798.7,262,579.76ZM745.47,826.49l-.07.49.36-.32.31.73.1-.69L911.66,944.22l-241.12-108ZM777,325.69,577.73,242.81l188.12-122.6L777,325.47h0v.22ZM495.59,278.94l-159-99.4L529.18,27.1Zm101.2,244.75L585.63,772.42,307.63,799Zm71.56,312.14H668l.54.25L496.76,941.69,586,773.27Zm78.15-9.75L907.74,683.55l6.72,261.78Zm45-316.48,125.22-82.75-9,254.8ZM778,326.2l223.95-159-85.11,258.4Zm0-.86L843,70.15l159,96.11ZM578.43,241.5,709.78,63.65h0l.12-.18,55.69,56Zm-14.76-49.28L530.14,26.73,709.08,63.18ZM336,180.25l.46.52-.08-.46,157.25,98.3-177.52-46Zm-20.81,52.9L277.17,448.49,93.52,133.69l221.69,99.38v.06ZM276.7,449,12.06,409.21l80.73-275.4ZM261,579.49,54.66,748.73,12,410.25Zm.37.63L306.2,798.95l-251-49.77Zm324,193.05-89.59,169L307.63,799.68Zm83.95,63.33.5.38v-.23l243.33,109-416-3.3Zm-140.54-810L336.19,178.92,302.6,0ZM54.07,750.9l4.39,173.89L7.49,846Zm855-67.81,255.66-11.92V889.65Zm-66.31-614L757.48-.24H914Zm-132.81-7L682.62-.24H750ZM530.14,25.59v-.15l-.56.45-.37-.07h0L306.6-.24H574.13ZM53.81,749.35.16,781.59V695.72ZM1164.7,901.1,915.18,945.62l-6.73-262.07,256.22,207ZM909.2,682.36l255.5-195.25V670.45Zm-.75-.33,9-255.44L1164.7,470v16.26ZM1164.7,469.24,917.58,425.86l85.16-258.62v.07l.05-.19,161.9,275.47v26.66Zm0-28.08L1003.52,167l161.18,64V441.16Zm-161.31-275L1164.7,38V230.16ZM1164.7,10.55,1136.51-.24h28.19Zm0,.77V37.16L1003.31,165.27,1048.82-.24h86v.1ZM1002.61,165.13,934.31-.24h113.82Zm-.69.24L843.33,69.53,915-.2h18.55ZM756.37-.24l85.77,69.8L766.49,119v-.06h0L753.4-.24Zm9.33,118.79L710.33,62.9l.26-.23h-.19L750.81-.2h1.86ZM681.84-.24l27.41,62.67L530.65,26.11,575.52-.22H681.84ZM335.31,178.37,175.79-.24h126ZM174.88-.24,335.44,179.52l-.1.08.18.11-19.9,52.36L173.79-.24ZM173-.24,314.8,232.09,93.32,132.78v-.07h-.11L165.95-.24H173ZM93,131.61,87.41-.24H165.1ZM86.7-.24l5.6,131.78L11.62-.24ZM.16-.24H5.84L.16,35.5ZM.33,37.7l6-37.94h4.47L91.91,132.35.16,108.76v-71H.33ZM.16,109.48,92,133.12.16,240.58Zm0,132.21,91.7-107.28L11.77,407.62.34,289.25H.16Zm0,53.17,11,113.88h0l.09.72-.09.32h0L.14,479.5V294.86Zm0,188.24H.33L11.55,412,53.9,748.37.19,694.73Zm0,299.26,53.37-32-46.46,95-.15-.24v.09L.18,836.54Zm0,55.37,6.54,8.47L.16,875.82V837.74Zm0,121.54v-80.8H.32l6.87-31.53,51.27,79L23.39,959.22H.16Zm58.63-32.59,16.74,32.59H24.43Zm17.54,32.59L59.64,926.7l87.95,32.53H76.34ZM59.25,925.85,54.78,750.56,207.62,959.22h-58.3v-.11Zm149.22,33.43L55.23,750l250.7,49.67-.25.24h.45L241.85,959.22H208.46Zm98-158.42,18.18,158.37h-82Zm18.9,158.37-18.25-159L495,942.51l-83.95,16.56v.15h-85.7Zm88.62,0,81.2-16-.27.5.91-.56.14.1.09-.17,406.57,3.23L653.35,959h-.25v.19H414Zm249.45,0,251-12.81h.27l.42.3v-.26L1000,959.22H663.44Zm340.32,0v-.16L917,946l247.68-44.23v57.42h-161Z"/><path class="cls-85" d="M617.36,777.78c-10.46-1.68-17.35-2.87-21.1-4.69,3.87-1.56,10.82-2.3,21.37-3.29-11.35,1-18.55,1.65-22.49.54,2.84-2.93,9.36-6.06,19.71-10.85-8.73,4-14.8,6.77-18.93,7.68,2.87-3.08,8.31-7,16.2-12.45-8.92,6.15-14.79,10.16-18.75,11.36,1.49-3.87,5.89-9.41,12.75-17.84-6.69,8.2-11.17,13.59-14.61,15.93.58-4.1,3.41-10.52,7.83-20.15-4.75,10.36-7.85,16.89-10.78,19.74-1.12-3.93-.56-11.14.46-22.49-.87,9.58-1.54,16.2-2.81,20.23-1.25-4-1.88-10.66-2.68-20.25.9,10.83,1.4,17.88.46,21.92-2.6-3.22-5.21-9.8-9.07-20,3.77,9.9,6.15,16.46,6.49,20.62-3.28-2.56-7.4-8.2-13.54-16.86,6.59,9.29,10.71,15.25,11.71,19.21-4-1-9.93-5.13-19.25-11.64,7.86,5.54,13.26,9.43,16.12,12.55-4.1-.94-10.17-3.71-18.88-7.81,9.82,4.62,16.19,7.72,19.22,10.56-4.1.65-11.09-.39-21.82-2.12,10.46,1.68,17.35,2.87,21.1,4.69-3.87,1.56-10.82,2.3-21.37,3.29,11.35-1,18.55-1.65,22.49-.54-2.84,2.93-9.36,6.06-19.71,10.85,8.74-4,14.8-6.77,18.93-7.68-2.88,3.08-8.31,7-16.2,12.45,8.92-6.15,14.79-10.16,18.75-11.35-1.49,3.87-5.89,9.41-12.75,17.84,6.69-8.2,11.17-13.59,14.61-15.93-.58,4.1-3.41,10.52-7.83,20.15,4.75-10.36,7.85-16.89,10.78-19.74,1.13,3.93.56,11.14-.46,22.49.87-9.58,1.54-16.2,2.81-20.23,1.25,4,1.88,10.66,2.68,20.25-.9-10.83-1.4-17.88-.46-21.92,2.6,3.22,5.21,9.8,9.07,20-3.77-9.9-6.15-16.46-6.49-20.62,3.28,2.56,7.4,8.2,13.54,16.86-6.6-9.29-10.71-15.25-11.71-19.21,4,1,9.93,5.13,19.25,11.64-7.86-5.54-13.26-9.43-16.12-12.55,4.1.94,10.17,3.71,18.88,7.81-9.82-4.62-16.19-7.72-19.21-10.56C599.63,775,606.63,776.06,617.36,777.78Z"/><path class="cls-86" d="M1033.61,171.57c-10.46-1.68-17.35-2.87-21.1-4.69,3.87-1.56,10.82-2.3,21.37-3.29-11.35,1-18.55,1.65-22.49.54,2.84-2.93,9.36-6.06,19.71-10.85-8.73,4-14.8,6.77-18.93,7.68,2.87-3.08,8.31-7,16.2-12.45-8.92,6.15-14.79,10.16-18.75,11.36,1.49-3.87,5.89-9.41,12.75-17.84-6.69,8.2-11.17,13.59-14.61,15.93.58-4.1,3.41-10.52,7.83-20.15-4.75,10.36-7.85,16.89-10.78,19.74-1.12-3.93-.56-11.14.46-22.49-.87,9.58-1.54,16.2-2.81,20.23-1.25-4-1.88-10.66-2.68-20.25.9,10.83,1.4,17.88.46,21.92-2.6-3.22-5.21-9.8-9.07-20,3.77,9.9,6.15,16.46,6.49,20.62-3.28-2.56-7.4-8.2-13.54-16.86,6.59,9.29,10.71,15.25,11.71,19.21-4-1-9.93-5.13-19.25-11.64,7.86,5.54,13.26,9.43,16.12,12.55-4.1-.94-10.17-3.71-18.88-7.81,9.82,4.62,16.19,7.72,19.22,10.56-4.1.65-11.09-.39-21.82-2.12,10.46,1.68,17.35,2.87,21.1,4.69-3.87,1.56-10.82,2.3-21.37,3.29,11.35-1,18.55-1.65,22.49-.54-2.84,2.93-9.36,6.06-19.71,10.85,8.74-4,14.8-6.77,18.93-7.68-2.88,3.08-8.31,7-16.2,12.45,8.92-6.15,14.79-10.16,18.75-11.35-1.49,3.87-5.89,9.41-12.75,17.84,6.69-8.2,11.17-13.59,14.61-15.93-.58,4.1-3.41,10.52-7.83,20.15,4.75-10.36,7.85-16.89,10.78-19.74,1.13,3.93.56,11.14-.46,22.49.87-9.58,1.54-16.2,2.81-20.23,1.25,4,1.88,10.66,2.68,20.25-.9-10.83-1.4-17.88-.46-21.92,2.6,3.22,5.21,9.8,9.07,20-3.77-9.9-6.15-16.46-6.49-20.62,3.28,2.56,7.4,8.2,13.54,16.86-6.58-9.29-10.68-15.25-11.71-19.21,4,1,9.93,5.13,19.25,11.64-7.86-5.54-13.26-9.43-16.12-12.55,4.1.94,10.17,3.71,18.88,7.81-9.83-4.62-16.19-7.72-19.21-10.56C1015.92,168.8,1022.91,169.83,1033.61,171.57Z"/><path class="cls-87" d="M777.26,827.81c-10.46-1.68-17.35-2.87-21.1-4.69,3.87-1.56,10.82-2.3,21.37-3.29-11.35,1-18.55,1.65-22.49.54,2.84-2.93,9.36-6.06,19.71-10.85-8.73,4-14.8,6.77-18.93,7.68,2.87-3.08,8.31-7,16.2-12.45-8.92,6.15-14.79,10.16-18.75,11.36,1.49-3.87,5.89-9.41,12.75-17.84-6.69,8.2-11.17,13.59-14.61,15.93.58-4.1,3.41-10.52,7.83-20.15-4.75,10.36-7.85,16.89-10.78,19.74-1.12-3.93-.56-11.14.46-22.49-.87,9.58-1.54,16.2-2.81,20.23-1.25-4-1.88-10.66-2.68-20.25.9,10.83,1.4,17.88.46,21.92-2.6-3.22-5.21-9.8-9.07-20,3.77,9.9,6.15,16.46,6.49,20.62-3.28-2.56-7.4-8.2-13.54-16.86,6.59,9.29,10.71,15.25,11.71,19.21-4-1-9.93-5.13-19.25-11.64,7.86,5.54,13.26,9.43,16.12,12.55-4.1-.94-10.17-3.71-18.88-7.81,9.82,4.62,16.19,7.72,19.22,10.56-4.1.65-11.09-.39-21.82-2.12,10.46,1.68,17.35,2.87,21.1,4.69-3.87,1.56-10.82,2.3-21.37,3.29,11.35-1,18.55-1.65,22.49-.54-2.84,2.93-9.36,6.06-19.71,10.85,8.74-4,14.8-6.77,18.93-7.68-2.88,3.08-8.31,7-16.2,12.45,8.92-6.15,14.79-10.16,18.75-11.35-1.49,3.87-5.89,9.41-12.75,17.84,6.69-8.2,11.17-13.59,14.61-15.93-.58,4.1-3.41,10.52-7.83,20.15,4.75-10.36,7.85-16.89,10.78-19.74,1.13,3.93.56,11.14-.46,22.49.87-9.58,1.54-16.2,2.81-20.23,1.25,4,1.88,10.66,2.68,20.25-.9-10.83-1.4-17.88-.46-21.92,2.6,3.22,5.21,9.8,9.07,20-3.77-9.9-6.15-16.46-6.49-20.62,3.28,2.56,7.4,8.2,13.54,16.86-6.58-9.29-10.68-15.25-11.71-19.21,4,1,9.93,5.13,19.25,11.64-7.86-5.54-13.26-9.43-16.12-12.55,4.1.94,10.17,3.71,18.88,7.81-9.82-4.62-16.19-7.72-19.21-10.56C759.52,825.05,766.52,826.08,777.26,827.81Z"/><path class="cls-88" d="M526.8,286.23c-10.46-1.68-17.35-2.87-21.1-4.69,3.87-1.56,10.82-2.3,21.37-3.29-11.35,1-18.55,1.65-22.49.54,2.84-2.93,9.36-6.06,19.71-10.85-8.73,4-14.8,6.77-18.93,7.68,2.87-3.08,8.31-7,16.2-12.45-8.92,6.15-14.79,10.16-18.75,11.36,1.49-3.87,5.89-9.41,12.75-17.84-6.69,8.2-11.17,13.59-14.61,15.93.58-4.1,3.41-10.52,7.83-20.15-4.75,10.36-7.85,16.89-10.78,19.74-1.12-3.93-.56-11.14.46-22.49-.87,9.58-1.54,16.2-2.81,20.23-1.25-4-1.88-10.66-2.68-20.25.9,10.83,1.4,17.88.46,21.92-2.6-3.22-5.21-9.8-9.07-20,3.77,9.9,6.15,16.46,6.49,20.62-3.28-2.56-7.4-8.2-13.54-16.86,6.59,9.29,10.71,15.25,11.71,19.21-4-1-9.93-5.13-19.25-11.64,7.86,5.54,13.26,9.43,16.12,12.55-4.1-.94-10.17-3.71-18.88-7.81,9.82,4.62,16.19,7.72,19.22,10.56-4.1.65-11.09-.39-21.82-2.12,10.46,1.68,17.35,2.87,21.1,4.69-3.87,1.56-10.82,2.3-21.37,3.29,11.35-1,18.55-1.65,22.49-.54-2.84,2.93-9.36,6.06-19.71,10.85,8.74-4,14.8-6.77,18.93-7.68-2.88,3.08-8.31,7-16.2,12.45,8.92-6.15,14.79-10.16,18.75-11.35-1.49,3.87-5.89,9.41-12.75,17.84,6.69-8.2,11.17-13.59,14.61-15.93-.58,4.1-3.41,10.52-7.83,20.15,4.75-10.36,7.85-16.89,10.78-19.74,1.13,3.93.56,11.14-.46,22.49.87-9.58,1.54-16.2,2.81-20.23,1.25,4,1.88,10.66,2.68,20.25-.9-10.83-1.4-17.88-.46-21.92,2.6,3.22,5.21,9.8,9.07,20-3.77-9.9-6.15-16.46-6.49-20.62,3.28,2.56,7.4,8.2,13.54,16.86-6.6-9.29-10.71-15.25-11.71-19.21,4,1,9.93,5.13,19.25,11.64-7.86-5.54-13.26-9.43-16.12-12.55,4.1.94,10.17,3.71,18.88,7.81C514.37,290.05,508,287,505,284.12,509.08,283.46,516.08,284.5,526.8,286.23Z"/><path class="cls-89" d="M953.94,431c-10.46-1.68-17.35-2.87-21.1-4.69,3.87-1.56,10.82-2.3,21.37-3.29-11.35,1-18.55,1.65-22.49.54,2.84-2.93,9.36-6.06,19.71-10.85-8.73,4-14.8,6.77-18.93,7.68,2.87-3.08,8.31-7,16.2-12.45-8.92,6.15-14.79,10.16-18.75,11.36,1.49-3.87,5.89-9.41,12.75-17.84-6.69,8.2-11.17,13.59-14.61,15.93.58-4.1,3.41-10.52,7.83-20.15-4.75,10.36-7.85,16.89-10.78,19.74-1.12-3.93-.56-11.14.46-22.49-.87,9.58-1.54,16.2-2.81,20.23-1.25-4-1.88-10.66-2.68-20.25.9,10.83,1.4,17.88.46,21.92-2.6-3.22-5.21-9.8-9.07-20,3.77,9.9,6.15,16.46,6.49,20.62-3.28-2.56-7.4-8.2-13.54-16.86,6.59,9.29,10.71,15.25,11.71,19.21-4-1-9.93-5.13-19.25-11.64,7.86,5.54,13.26,9.43,16.12,12.55-4.1-.94-10.17-3.71-18.88-7.81,9.82,4.62,16.19,7.72,19.22,10.56-4.1.65-11.09-.39-21.82-2.12,10.46,1.68,17.35,2.87,21.1,4.69-3.87,1.56-10.82,2.3-21.37,3.29,11.35-1,18.55-1.65,22.49-.54-2.84,2.93-9.36,6.06-19.71,10.85,8.74-4,14.8-6.77,18.93-7.68-2.88,3.08-8.31,7-16.2,12.45,8.92-6.15,14.79-10.16,18.75-11.35-1.49,3.87-5.89,9.41-12.75,17.84,6.69-8.2,11.17-13.59,14.61-15.93-.58,4.1-3.41,10.52-7.83,20.15,4.75-10.36,7.85-16.89,10.78-19.74,1.13,3.93.56,11.14-.46,22.49.87-9.58,1.54-16.2,2.81-20.23,1.25,4,1.88,10.66,2.68,20.25-.9-10.83-1.4-17.88-.46-21.92,2.6,3.22,5.21,9.8,9.07,20-3.77-9.9-6.15-16.46-6.49-20.62,3.28,2.56,7.4,8.2,13.54,16.86-6.6-9.29-10.71-15.25-11.71-19.21,4,1,9.93,5.13,19.25,11.64-7.86-5.54-13.26-9.43-16.12-12.55,4.1.94,10.17,3.71,18.88,7.81-9.82-4.62-16.19-7.72-19.21-10.56C936.19,428.22,943.22,429.25,953.94,431Z"/><path class="cls-90" d="M124.08,137.7C113.62,136,106.73,134.83,103,133c3.87-1.56,10.82-2.3,21.37-3.29-11.35,1-18.55,1.65-22.49.54,2.84-2.93,9.36-6.06,19.71-10.85-8.73,4-14.8,6.77-18.93,7.68,2.87-3.08,8.31-7,16.2-12.45-8.92,6.15-14.79,10.16-18.75,11.36,1.49-3.87,5.89-9.41,12.75-17.84-6.69,8.2-11.17,13.59-14.61,15.93.58-4.1,3.41-10.52,7.83-20.15-4.75,10.36-7.85,16.89-10.78,19.74-1.12-3.93-.56-11.14.46-22.49-.87,9.58-1.54,16.2-2.81,20.23-1.25-4-1.88-10.66-2.68-20.25.9,10.83,1.4,17.88.46,21.92-2.6-3.22-5.21-9.8-9.07-20,3.77,9.9,6.15,16.46,6.49,20.62-3.28-2.56-7.4-8.2-13.54-16.86,6.59,9.29,10.71,15.25,11.71,19.21-4-1-9.93-5.13-19.25-11.64C74.92,120,80.32,123.92,83.18,127c-4.1-.94-10.17-3.71-18.88-7.81,9.83,4.62,16.19,7.72,19.22,10.56-4.1.65-11.09-.39-21.82-2.12,10.46,1.68,17.35,2.87,21.1,4.69-3.83,1.59-10.82,2.31-21.36,3.3,11.35-1,18.55-1.65,22.49-.54C81.09,138,74.57,141.17,64.22,146c8.74-4,14.8-6.77,18.93-7.68-2.88,3.08-8.31,7-16.2,12.45,8.92-6.15,14.79-10.16,18.75-11.35-1.49,3.87-5.89,9.41-12.75,17.84,6.69-8.2,11.17-13.59,14.61-15.93-.58,4.1-3.42,10.52-7.83,20.15,4.75-10.36,7.85-16.89,10.78-19.74,1.13,3.93.56,11.14-.46,22.49.87-9.58,1.54-16.2,2.81-20.23,1.25,4,1.88,10.66,2.68,20.25-.9-10.83-1.4-17.88-.46-21.92,2.6,3.22,5.21,9.8,9.07,20-3.77-9.9-6.15-16.46-6.49-20.62,3.28,2.56,7.4,8.2,13.54,16.86-6.59-9.3-10.69-15.3-11.72-19.22,4,1,9.93,5.13,19.25,11.64-7.86-5.54-13.26-9.43-16.12-12.55,4.1.94,10.17,3.71,18.88,7.81-9.82-4.62-16.19-7.72-19.21-10.56C106.37,135,113.38,136,124.08,137.7Z"/><path class="cls-91" d="M292.7,584.3c-10.46-1.68-17.35-2.87-21.1-4.69,3.87-1.56,10.82-2.3,21.37-3.29-11.35,1-18.55,1.65-22.49.54,2.84-2.93,9.36-6.06,19.71-10.85-8.73,4-14.8,6.77-18.93,7.68,2.87-3.08,8.31-7,16.2-12.45-8.92,6.15-14.79,10.16-18.75,11.36,1.49-3.87,5.89-9.41,12.75-17.84-6.69,8.2-11.17,13.59-14.61,15.93.58-4.1,3.41-10.52,7.83-20.15-4.75,10.36-7.85,16.89-10.78,19.74-1.12-3.93-.56-11.14.46-22.49-.87,9.58-1.54,16.2-2.81,20.23-1.25-4-1.88-10.66-2.68-20.25.9,10.83,1.4,17.88.46,21.92-2.6-3.22-5.21-9.8-9.07-20,3.77,9.9,6.15,16.46,6.49,20.62-3.28-2.56-7.4-8.2-13.54-16.86,6.59,9.29,10.71,15.25,11.71,19.21-4-1-9.93-5.13-19.25-11.64,7.86,5.54,13.26,9.43,16.12,12.55-4.1-.94-10.17-3.71-18.88-7.81,9.82,4.62,16.19,7.72,19.22,10.56-4.1.65-11.09-.39-21.82-2.12,10.46,1.68,17.35,2.87,21.1,4.69-3.87,1.56-10.82,2.3-21.37,3.29,11.35-1,18.55-1.65,22.49-.54-2.84,2.93-9.36,6.06-19.71,10.85,8.74-4,14.8-6.77,18.93-7.68-2.88,3.08-8.31,7-16.2,12.45,8.92-6.15,14.79-10.16,18.75-11.35-1.49,3.87-5.89,9.41-12.75,17.84,6.69-8.2,11.17-13.59,14.61-15.93-.58,4.1-3.41,10.52-7.83,20.15,4.75-10.36,7.85-16.89,10.78-19.74,1.13,3.93.56,11.14-.46,22.49.87-9.58,1.54-16.2,2.81-20.23,1.25,4,1.88,10.66,2.68,20.25-.9-10.83-1.4-17.88-.46-21.92,2.6,3.22,5.21,9.8,9.07,20-3.77-9.9-6.15-16.46-6.49-20.62,3.28,2.56,7.4,8.2,13.54,16.86-6.6-9.29-10.71-15.25-11.71-19.21,4,1,9.93,5.13,19.25,11.64-7.86-5.54-13.26-9.43-16.12-12.55,4.1.94,10.17,3.71,18.88,7.81-9.82-4.62-16.19-7.72-19.21-10.56C275,581.53,282,582.57,292.7,584.3Z"/><path class="cls-92" d="M637.56,548.11c-4.19-.68-7-1.15-8.47-1.88,1.55-.63,4.35-.92,8.58-1.32-4.55.43-7.45.67-9,.22,1.14-1.18,3.76-2.43,7.92-4.36a46.05,46.05,0,0,1-7.6,3.08,46,46,0,0,1,6.51-5c-3.58,2.49-5.94,4.1-7.53,4.56.59-1.55,2.37-3.78,5.13-7.18-2.69,3.3-4.48,5.46-5.87,6.4.24-1.66,1.37-4.22,3.15-8.09-1.91,4.16-3.15,6.79-4.33,7.93-.45-1.58-.23-4.47.18-9a45.89,45.89,0,0,1-1.13,8.12,46.15,46.15,0,0,1-1-8.13c.36,4.35.56,7.18.18,8.8-1-1.29-2.05-3.94-3.64-8,1.52,4,2.48,6.61,2.6,8.27-1.32-1-3-3.3-5.43-6.77,2.65,3.73,4.3,6.15,4.7,7.71-1.59-.4-4-2.05-7.73-4.68a46,46,0,0,1,6.47,5,46.06,46.06,0,0,1-7.58-3.14c3.95,1.86,6.5,3.08,7.71,4.25-1.64.26-4.45-.15-8.76-.85,4.19.68,7,1.16,8.47,1.89-1.55.63-4.35.92-8.58,1.32,4.55-.43,7.44-.67,9-.22-1.14,1.18-3.76,2.43-7.92,4.36a46,46,0,0,1,7.6-3.08,46,46,0,0,1-6.51,5c3.58-2.49,5.94-4.1,7.53-4.56-.59,1.55-2.37,3.78-5.13,7.18,2.69-3.3,4.48-5.46,5.87-6.4-.24,1.66-1.37,4.22-3.15,8.09,1.91-4.16,3.15-6.79,4.33-7.93.45,1.58.23,4.47-.18,9a46,46,0,0,1,1.13-8.12,46,46,0,0,1,1,8.13c-.37-4.35-.56-7.18-.18-8.8,1,1.29,2.05,3.94,3.64,8-1.52-4-2.48-6.61-2.6-8.27,1.32,1,3,3.3,5.43,6.77-2.65-3.73-4.3-6.15-4.71-7.71,1.59.4,4,2.05,7.73,4.68a46,46,0,0,1-6.47-5,46.15,46.15,0,0,1,7.58,3.14c-3.95-1.86-6.5-3.08-7.71-4.25C630.44,547,633.25,547.42,637.56,548.11Z"/><path class="cls-93" d="M537.91,33.35c-4.19-.68-7-1.16-8.47-1.89,1.55-.63,4.35-.92,8.58-1.32-4.55.43-7.45.67-9,.22,1.14-1.18,3.76-2.43,7.92-4.36a46.05,46.05,0,0,1-7.6,3.08,46,46,0,0,1,6.51-5c-3.58,2.49-5.94,4.1-7.53,4.56.59-1.55,2.37-3.78,5.13-7.18-2.69,3.3-4.48,5.46-5.87,6.4.24-1.66,1.37-4.22,3.15-8.09-1.91,4.16-3.15,6.79-4.33,7.93-.45-1.58-.23-4.47.18-9a45.89,45.89,0,0,1-1.13,8.12,46.14,46.14,0,0,1-1-8.13c.36,4.35.56,7.18.18,8.8-1-1.29-2.05-3.94-3.64-8,1.52,4,2.48,6.61,2.6,8.27-1.32-1-3-3.3-5.43-6.77,2.65,3.73,4.3,6.15,4.7,7.71-1.59-.4-4-2.05-7.73-4.68a46,46,0,0,1,6.47,5A46.07,46.07,0,0,1,514,25.89c3.95,1.86,6.5,3.08,7.71,4.25-1.64.26-4.45-.15-8.76-.85,4.19.68,7,1.16,8.47,1.89-1.55.63-4.35.92-8.58,1.32,4.55-.43,7.44-.67,9-.22-1.14,1.18-3.76,2.43-7.92,4.36a46,46,0,0,1,7.6-3.08,46,46,0,0,1-6.57,5c3.58-2.49,5.94-4.1,7.53-4.56-.59,1.55-2.37,3.78-5.13,7.18,2.69-3.3,4.48-5.46,5.87-6.4-.24,1.66-1.37,4.22-3.15,8.09,1.91-4.16,3.15-6.79,4.33-7.93.45,1.58.23,4.47-.18,9a46,46,0,0,1,1.13-8.12,46,46,0,0,1,1,8.13c-.37-4.35-.56-7.18-.18-8.8,1,1.29,2.05,3.94,3.64,8-1.52-4-2.48-6.61-2.6-8.27,1.32,1,3,3.3,5.43,6.77C530,38,528.36,35.55,528,34c1.59.4,4,2.05,7.73,4.68a46,46,0,0,1-6.47-5,46.14,46.14,0,0,1,7.58,3.14c-3.95-1.86-6.5-3.08-7.71-4.25C530.79,32.24,533.6,32.65,537.91,33.35Z"/><path class="cls-94" d="M329.87,231.7c-4.19-.68-7-1.15-8.47-1.88,1.55-.63,4.35-.92,8.58-1.32-4.55.43-7.45.67-9,.22,1.14-1.18,3.76-2.43,7.92-4.36a46.05,46.05,0,0,1-7.6,3.08,46.05,46.05,0,0,1,6.51-5c-3.58,2.49-5.94,4.1-7.53,4.56.59-1.55,2.37-3.78,5.13-7.18-2.69,3.3-4.48,5.46-5.87,6.4.24-1.66,1.37-4.22,3.15-8.09-1.91,4.16-3.15,6.79-4.33,7.93-.45-1.58-.23-4.47.18-9a45.89,45.89,0,0,1-1.13,8.12,46.14,46.14,0,0,1-1-8.13c.36,4.35.56,7.18.18,8.8-1-1.29-2.05-3.94-3.64-8,1.52,4,2.48,6.61,2.6,8.27-1.32-1-3-3.3-5.43-6.77,2.65,3.73,4.3,6.15,4.7,7.71-1.59-.4-4-2.05-7.73-4.68a46,46,0,0,1,6.47,5,46.05,46.05,0,0,1-7.58-3.14c3.95,1.86,6.5,3.08,7.71,4.25-1.64.26-4.45-.15-8.76-.85,4.19.68,7,1.16,8.47,1.88-1.55.63-4.35.92-8.58,1.32,4.55-.43,7.44-.67,9-.22-1.14,1.18-3.76,2.43-7.92,4.36a46,46,0,0,1,7.6-3.08,46,46,0,0,1-6.51,5c3.58-2.49,5.94-4.1,7.53-4.56-.59,1.55-2.37,3.78-5.13,7.18,2.69-3.3,4.48-5.46,5.87-6.4-.24,1.66-1.37,4.22-3.15,8.09,1.91-4.16,3.15-6.79,4.33-7.93.45,1.58.23,4.47-.18,9a46,46,0,0,1,1.13-8.12,46,46,0,0,1,1,8.13c-.37-4.35-.56-7.18-.18-8.8,1,1.29,2.05,3.94,3.64,8-1.52-4-2.48-6.61-2.6-8.27,1.32,1,3,3.3,5.43,6.77-2.65-3.73-4.3-6.15-4.71-7.71,1.59.4,4,2.05,7.73,4.68a46,46,0,0,1-6.47-5,46.14,46.14,0,0,1,7.58,3.14c-3.95-1.86-6.5-3.08-7.71-4.25C322.75,230.59,325.56,231,329.87,231.7Z"/><path class="cls-95" d="M317.26,804.38c-4.19-.68-7-1.15-8.47-1.89,1.55-.63,4.35-.92,8.58-1.32-4.55.43-7.45.67-9,.22,1.14-1.18,3.76-2.43,7.92-4.36a46,46,0,0,1-7.6,3.08,46,46,0,0,1,6.51-5c-3.58,2.49-5.94,4.1-7.53,4.56.59-1.55,2.37-3.78,5.13-7.18-2.69,3.3-4.48,5.46-5.87,6.4.24-1.66,1.37-4.22,3.15-8.09-1.91,4.16-3.15,6.79-4.33,7.93-.45-1.58-.23-4.47.18-9a45.9,45.9,0,0,1-1.13,8.12,46.14,46.14,0,0,1-1-8.13c.36,4.35.56,7.18.18,8.8-1-1.29-2.05-3.94-3.64-8,1.52,4,2.48,6.61,2.6,8.27-1.32-1-3-3.3-5.43-6.77,2.65,3.73,4.3,6.15,4.7,7.71-1.59-.4-4-2.05-7.73-4.68a46,46,0,0,1,6.47,5,46.06,46.06,0,0,1-7.63-3.11c3.95,1.86,6.5,3.08,7.71,4.25-1.64.26-4.45-.15-8.76-.85,4.19.68,7,1.16,8.47,1.88-1.55.63-4.35.92-8.58,1.32,4.55-.43,7.44-.67,9-.22-1.14,1.18-3.76,2.43-7.92,4.36a46,46,0,0,1,7.6-3.08,46,46,0,0,1-6.51,5c3.58-2.49,5.94-4.1,7.53-4.56-.59,1.55-2.37,3.78-5.13,7.18,2.69-3.3,4.48-5.46,5.87-6.4-.24,1.66-1.37,4.22-3.15,8.09,1.91-4.16,3.15-6.79,4.33-7.93.45,1.58.23,4.47-.18,9a46,46,0,0,1,1.13-8.12,46,46,0,0,1,1,8.13c-.37-4.35-.56-7.18-.18-8.8,1,1.29,2.05,3.94,3.64,8-1.52-4-2.48-6.61-2.6-8.27,1.32,1,3,3.3,5.43,6.77-2.65-3.73-4.3-6.15-4.71-7.71,1.59.4,4,2.05,7.73,4.68a46,46,0,0,1-6.47-5,46.15,46.15,0,0,1,7.58,3.14c-3.95-1.86-6.5-3.08-7.71-4.25C310.13,803.26,312.95,803.68,317.26,804.38Z"/><path class="cls-96" d="M66.66,755.94c-4.19-.68-7-1.15-8.47-1.88,1.55-.63,4.35-.92,8.58-1.32-4.55.43-7.45.67-9,.22,1.14-1.18,3.76-2.43,7.92-4.36a46.06,46.06,0,0,1-7.6,3.08,46,46,0,0,1,6.55-5c-3.58,2.49-5.94,4.1-7.53,4.56.59-1.55,2.37-3.78,5.13-7.18-2.69,3.3-4.48,5.46-5.87,6.4.24-1.66,1.37-4.22,3.15-8.09-1.91,4.16-3.15,6.79-4.33,7.93-.45-1.58-.23-4.47.18-9a45.9,45.9,0,0,1-1.13,8.12,46.14,46.14,0,0,1-1-8.13c.36,4.35.56,7.18.18,8.8-1-1.29-2.05-3.94-3.64-8,1.52,4,2.48,6.61,2.6,8.27-1.32-1-3-3.3-5.43-6.77,2.65,3.73,4.3,6.15,4.71,7.71-1.59-.4-4-2.05-7.73-4.68a46,46,0,0,1,6.37,5.07,46.06,46.06,0,0,1-7.58-3.14c3.95,1.86,6.5,3.08,7.71,4.25-1.64.26-4.45-.15-8.77-.85,4.19.68,7,1.16,8.47,1.88-1.55.63-4.35.92-8.58,1.32,4.55-.43,7.44-.67,9-.22-1.14,1.18-3.76,2.43-7.92,4.36a46,46,0,0,1,7.6-3.08,46,46,0,0,1-6.51,5c3.58-2.49,5.94-4.1,7.53-4.56-.59,1.55-2.37,3.78-5.13,7.18,2.69-3.3,4.48-5.46,5.87-6.4-.24,1.66-1.37,4.22-3.15,8.09,1.91-4.16,3.15-6.79,4.33-7.93.45,1.58.23,4.47-.18,9a46,46,0,0,1,1.13-8.12,46,46,0,0,1,1,8.13c-.37-4.35-.56-7.18-.18-8.8,1,1.29,2.05,3.94,3.64,8-1.52-4-2.48-6.61-2.6-8.27,1.32,1,3,3.3,5.43,6.77-2.65-3.73-4.3-6.15-4.71-7.71,1.59.4,4,2.05,7.73,4.68a46,46,0,0,1-6.47-5,46.14,46.14,0,0,1,7.67,3.11c-3.95-1.86-6.5-3.08-7.71-4.25C59.56,754.82,62.37,755.24,66.66,755.94Z"/><path class="cls-97" d="M790.66,330.42c-4.19-.68-7-1.15-8.47-1.88,1.55-.63,4.35-.92,8.58-1.32-4.55.43-7.45.67-9,.22,1.14-1.18,3.76-2.43,7.92-4.36a46,46,0,0,1-7.6,3.08,46,46,0,0,1,6.48-5c-3.58,2.49-5.94,4.1-7.53,4.56.59-1.55,2.37-3.78,5.13-7.18-2.69,3.3-4.48,5.46-5.87,6.4.24-1.66,1.37-4.22,3.15-8.09-1.91,4.16-3.15,6.79-4.33,7.93-.45-1.58-.23-4.47.18-9a45.89,45.89,0,0,1-1.13,8.12,46.15,46.15,0,0,1-1-8.13c.36,4.35.56,7.18.18,8.8-1-1.29-2.05-3.94-3.64-8,1.52,4,2.48,6.61,2.6,8.27-1.32-1-3-3.3-5.43-6.77,2.65,3.73,4.3,6.15,4.7,7.71-1.59-.4-4-2.05-7.73-4.68a46,46,0,0,1,6.47,5A46.06,46.06,0,0,1,766.7,323c3.95,1.86,6.5,3.08,7.71,4.25-1.64.26-4.45-.15-8.76-.85,4.19.68,7,1.16,8.47,1.89-1.55.63-4.35.92-8.58,1.32,4.55-.43,7.44-.67,9-.22-1.14,1.18-3.76,2.43-7.92,4.36a46,46,0,0,1,7.6-3.08,46,46,0,0,1-6.51,5c3.58-2.49,5.94-4.1,7.53-4.56-.59,1.55-2.37,3.78-5.13,7.18,2.69-3.3,4.48-5.46,5.87-6.4-.24,1.66-1.37,4.22-3.15,8.09,1.91-4.16,3.15-6.79,4.33-7.93.45,1.58.23,4.47-.18,9a46,46,0,0,1,1.13-8.12,46,46,0,0,1,1,8.13c-.37-4.35-.56-7.18-.18-8.8,1,1.29,2.05,3.94,3.64,8-1.52-4-2.48-6.61-2.6-8.27,1.32,1,3,3.3,5.43,6.77-2.65-3.73-4.3-6.15-4.71-7.71,1.59.4,4,2.05,7.73,4.68a46,46,0,0,1-6.47-5,46.14,46.14,0,0,1,7.58,3.14c-3.95-1.86-6.5-3.08-7.71-4.25C783.54,329.32,786.35,329.74,790.66,330.42Z"/><path class="cls-98" d="M778.86,118.33c-4.19-.68-7-1.15-8.47-1.88,1.55-.63,4.35-.92,8.58-1.32-4.55.43-7.45.67-9,.22,1.14-1.18,3.76-2.43,7.92-4.36a46,46,0,0,1-7.6,3.08,46,46,0,0,1,6.51-5c-3.58,2.49-5.94,4.1-7.53,4.56.59-1.55,2.37-3.78,5.13-7.18-2.69,3.3-4.48,5.46-5.87,6.4.24-1.66,1.37-4.22,3.15-8.09-1.91,4.16-3.15,6.79-4.33,7.93-.45-1.58-.23-4.47.18-9a45.89,45.89,0,0,1-1.13,8.12,46.15,46.15,0,0,1-1-8.13c.36,4.35.56,7.18.18,8.8-1-1.29-2.05-3.94-3.64-8,1.52,4,2.48,6.61,2.6,8.27-1.32-1-3-3.3-5.43-6.77,2.65,3.73,4.3,6.15,4.7,7.71-1.59-.4-4-2.05-7.73-4.68a46,46,0,0,1,6.47,5,46.06,46.06,0,0,1-7.58-3.14c3.95,1.86,6.5,3.08,7.71,4.25-1.64.26-4.45-.15-8.76-.85,4.19.68,7,1.16,8.47,1.88-1.55.63-4.35.92-8.58,1.32,4.55-.43,7.44-.67,9-.22-1.14,1.18-3.76,2.43-7.92,4.36a46,46,0,0,1,7.6-3.08,46,46,0,0,1-6.51,5c3.58-2.49,5.94-4.1,7.53-4.56-.59,1.55-2.37,3.78-5.13,7.18,2.69-3.3,4.48-5.46,5.87-6.4-.24,1.66-1.37,4.22-3.15,8.09,1.91-4.16,3.15-6.79,4.33-7.93.45,1.58.23,4.47-.18,9a46,46,0,0,1,1.13-8.12,46,46,0,0,1,1,8.13c-.37-4.35-.56-7.18-.18-8.8,1,1.29,2.05,3.94,3.64,8-1.52-4-2.48-6.61-2.6-8.27,1.32,1,3,3.3,5.43,6.77-2.65-3.73-4.3-6.15-4.71-7.71,1.59.4,4,2.05,7.73,4.68a46,46,0,0,1-6.47-5,46.14,46.14,0,0,1,7.58,3.14c-3.95-1.86-6.5-3.08-7.71-4.25C771.74,117.22,774.55,117.63,778.86,118.33Z"/><polygon class="cls-99" points="1114.61 584.64 1110.7 582.87 1107.02 585.09 1107.51 580.82 1104.26 578.01 1108.46 577.14 1110.13 573.19 1112.25 576.93 1116.53 577.29 1113.64 580.46 1114.61 584.64"/><polygon class="cls-100" points="1038.12 169.68 1034.21 167.91 1030.54 170.12 1031.01 165.86 1027.77 163.06 1031.96 162.19 1033.64 158.23 1035.76 161.96 1040.03 162.33 1037.14 165.5 1038.12 169.68"/><polygon class="cls-101" points="1038.12 125.35 1034.21 123.59 1030.54 125.81 1031.01 121.54 1027.77 118.73 1031.96 117.87 1033.64 113.91 1035.76 117.64 1040.03 118.01 1037.14 121.18 1038.12 125.35"/><polygon class="cls-102" points="911.97 203.54 908.06 201.78 904.38 203.99 904.86 199.73 901.62 196.92 905.82 196.06 907.48 192.1 909.62 195.83 913.89 196.19 911 199.37 911.97 203.54"/><polygon class="cls-103" points="900.42 391.68 896.51 389.92 892.84 392.13 893.31 387.87 890.06 385.06 894.26 384.19 895.94 380.24 898.06 383.97 902.33 384.33 899.44 387.51 900.42 391.68"/><polygon class="cls-104" points="625.07 733.08 621.16 731.31 617.49 733.53 617.96 729.27 614.72 726.46 618.92 725.59 620.59 721.63 622.71 725.36 626.99 725.73 624.09 728.9 625.07 733.08"/><polygon class="cls-105" points="831.2 792.04 827.3 790.27 823.62 792.5 824.1 788.23 820.85 785.42 825.05 784.55 826.72 780.6 828.84 784.32 833.12 784.69 830.23 787.86 831.2 792.04"/><polygon class="cls-106" points="450.5 301.65 446.58 299.89 442.91 302.1 443.38 297.83 440.14 295.03 444.34 294.15 446 290.21 448.14 293.94 452.41 294.3 449.52 297.48 450.5 301.65"/><polygon class="cls-107" points="287.8 544.89 283.89 543.13 280.22 545.35 280.69 541.08 277.44 538.27 281.64 537.41 283.31 533.45 285.44 537.18 289.71 537.54 286.82 540.72 287.8 544.89"/><polygon class="cls-108" points="208.45 610.32 204.54 608.55 200.87 610.77 201.34 606.51 198.1 603.7 202.3 602.83 203.97 598.88 206.09 602.6 210.37 602.97 207.48 606.14 208.45 610.32"/><polygon class="cls-109" points="80.41 819.85 76.49 818.09 72.82 820.3 73.29 816.04 70.05 813.23 74.26 812.37 75.92 808.41 78.04 812.14 82.32 812.5 79.43 815.68 80.41 819.85"/><polygon class="cls-110" points="297.18 859.78 293.27 858.02 289.6 860.23 290.07 855.97 286.82 853.16 291.03 852.3 292.7 848.34 294.82 852.07 299.1 852.44 296.2 855.61 297.18 859.78"/><polygon class="cls-111" points="54.06 109.16 50.15 107.39 46.47 109.61 46.95 105.35 43.7 102.54 47.91 101.67 49.58 97.72 51.7 101.44 55.98 101.81 53.08 104.98 54.06 109.16"/><polygon class="cls-112" points="108.08 209.49 104.18 207.72 100.5 209.94 100.98 205.67 97.73 202.86 101.93 202 103.6 198.04 105.73 201.78 110 202.14 107.11 205.31 108.08 209.49"/><polygon class="cls-113" points="202.32 106.69 198.41 104.92 194.74 107.14 195.21 102.88 191.96 100.07 196.17 99.2 197.84 95.25 199.96 98.97 204.24 99.34 201.34 102.51 202.32 106.69"/><polygon class="cls-114" points="287.8 261.16 283.89 259.39 280.22 261.61 280.69 257.34 277.44 254.53 281.64 253.66 283.31 249.71 285.44 253.45 289.71 253.81 286.82 256.98 287.8 261.16"/><polygon class="cls-115" points="562.79 49.48 558.88 47.7 555.21 49.93 555.68 45.66 552.43 42.85 556.63 41.98 558.3 38.03 560.43 41.75 564.7 42.12 561.81 45.29 562.79 49.48"/><polygon class="cls-116" points="552.64 564.24 548.73 562.48 545.06 564.69 545.53 560.43 542.29 557.62 546.49 556.76 548.15 552.8 550.28 556.53 554.55 556.89 551.67 560.07 552.64 564.24"/><polygon class="cls-117" points="628.98 379.79 625.06 378.02 621.39 380.24 621.86 375.97 618.62 373.16 622.82 372.29 624.48 368.34 626.61 372.07 630.88 372.43 627.99 375.61 628.98 379.79"/><polygon class="cls-118" points="86.54 406.66 82.64 404.9 78.95 407.11 79.43 402.85 76.19 400.04 80.39 399.18 82.06 395.22 84.18 398.95 88.46 399.32 85.57 402.49 86.54 406.66"/><polygon class="cls-119" points="65.66 570.19 61.75 568.43 58.08 570.64 58.55 566.38 55.3 563.57 59.5 562.69 61.17 558.75 63.3 562.48 67.57 562.84 64.68 566.02 65.66 570.19"/><polygon class="cls-120" points="1019.56 853.83 1015.65 852.07 1011.98 854.28 1012.45 850.02 1009.2 847.21 1013.4 846.35 1015.08 842.39 1017.2 846.12 1021.48 846.48 1018.58 849.66 1019.56 853.83"/><polygon class="cls-121" points="1031.98 325 1028.08 323.23 1024.41 325.45 1024.88 321.18 1021.63 318.38 1025.83 317.51 1027.5 313.56 1029.63 317.29 1033.9 317.66 1031.01 320.82 1031.98 325"/></g></svg>