<svg xmlns="http://www.w3.org/2000/svg" xmlns:xlink="http://www.w3.org/1999/xlink" viewBox="0 0 740.072 50.08"><defs><style>.cls-1{fill:none;}.cls-2{clip-path:url(#clip-path);}.cls-3{fill:#231f20;}</style><clipPath id="clip-path"><path class="cls-1" d="M-.181-2.353v59h740v-59ZM369.27,50.923,355.415,36.639,361.1,25.273l7.462-14.78-8-8.846h17.424L369.975,10.5l7.787,15.711,5.182,10.466Z"/></clipPath></defs><title>hr</title><g id="Layer_2" data-name="Layer 2"><g id="Layer_1-2" data-name="Layer 1"><g class="cls-2"><path class="cls-3" d="M406.207,14.75s.157.108.445.338a7.615,7.615,0,0,1,1.149,1.161,9.369,9.369,0,0,1,1.944,5.842,10.69,10.69,0,0,1-.92,4.391,10.183,10.183,0,0,1-1.35,2.184,12.2,12.2,0,0,1-1.985,1.954,15.765,15.765,0,0,1-12.2,2.832,24.158,24.158,0,0,1-6.928-2.294,43.078,43.078,0,0,1-6.53-4.151l-6.442-4.823c-1.1-.81-2.216-1.614-3.354-2.4-1.143-.764-2.331-1.577-3.516-2.34a119.778,119.778,0,0,0-15.208-8.468A74.71,74.71,0,0,0,334.356,3.4a68.4,68.4,0,0,0-8.879-1.127l-2.23-.064-1.107-.029-1.125.009c-1.472.025-2.952.095-4.4.242A33.016,33.016,0,0,0,308.227,4.3a21.375,21.375,0,0,0-7.021,4.314,17.164,17.164,0,0,0-2.582,3.055,15.8,15.8,0,0,0-.953,1.7,14.912,14.912,0,0,0-.735,1.819,16.453,16.453,0,0,0-.586,7.544,17.349,17.349,0,0,0,2.56,6.774,19.28,19.28,0,0,0,4.645,5A21.231,21.231,0,0,0,314.731,38.8a12.022,12.022,0,0,0,8.753-2.6,9.55,9.55,0,0,0,3.155-5.089,7.942,7.942,0,0,0,.179-1.607c-.009-.368-.013-.558-.013-.558l.044.557a8.028,8.028,0,0,1-.091,1.63,9.556,9.556,0,0,1-2.984,5.389,12.634,12.634,0,0,1-9.075,3.107,21.649,21.649,0,0,1-11.9-4.091A19.477,19.477,0,0,1,294.71,23a18.2,18.2,0,0,1,.477-8.364,17.04,17.04,0,0,1,.769-2.033,17.235,17.235,0,0,1,1.065-1.962,19.093,19.093,0,0,1,2.833-3.445,23.381,23.381,0,0,1,7.623-4.827,33.387,33.387,0,0,1,8.916-2.08c1.527-.161,3.052-.239,4.595-.273L322.124,0l1.159.025,2.308.057a70.164,70.164,0,0,1,9.194,1.128,76.906,76.906,0,0,1,17.428,5.813,114.785,114.785,0,0,1,15.4,8.794c2.362,1.589,4.712,3.2,6.882,4.907l6.334,4.956a43.254,43.254,0,0,0,6.213,4.158,22.794,22.794,0,0,0,6.468,2.36A15.027,15.027,0,0,0,405,29.961a11.5,11.5,0,0,0,1.915-1.733,9.515,9.515,0,0,0,1.361-2.007,10.176,10.176,0,0,0,1.042-4.137,9.351,9.351,0,0,0-1.609-5.763,7.547,7.547,0,0,0-1.073-1.21C406.358,14.867,406.207,14.75,406.207,14.75Z"/><path class="cls-3" d="M326.8,28.941l-.036.24a7,7,0,0,1-.126.7,8.621,8.621,0,0,1-.986,2.514,9.5,9.5,0,0,1-2.961,3.022,13.266,13.266,0,0,1-5.163,1.965,12.684,12.684,0,0,1-3.213.139c-.29-.031-.551-.066-.875-.13l-.8-.177a13.714,13.714,0,0,1-1.694-.56,13.549,13.549,0,0,1-5.846-4.669,18.7,18.7,0,0,1-3.2-7.342,11.888,11.888,0,0,1-.214-2.1,18.583,18.583,0,0,1,.019-2.086,19.781,19.781,0,0,1,.775-4.145,17.874,17.874,0,0,1,1.744-3.852,20.817,20.817,0,0,1,2.521-3.292,29.3,29.3,0,0,1,2.925-2.781,17.573,17.573,0,0,1,3.4-2.1,33.128,33.128,0,0,1,3.49-1.41c.583-.2,1.117-.39,1.718-.561.553-.164,1.109-.322,1.7-.456A29.353,29.353,0,0,1,326.482,1a30.033,30.033,0,0,1,5.489.376,27.081,27.081,0,0,1,4.1.968,23.712,23.712,0,0,1,2.53.938l.871.382-.918-.242c-.6-.155-1.481-.357-2.609-.559a34.191,34.191,0,0,0-9.371-.347A31.973,31.973,0,0,0,320.5,3.725,41.758,41.758,0,0,0,314.088,6.3a18.5,18.5,0,0,0-2.941,1.925,27.671,27.671,0,0,0-2.626,2.564,17.556,17.556,0,0,0-3.756,6.244,17.429,17.429,0,0,0-.714,3.594c-.016.605-.09,1.159-.06,1.84a9.652,9.652,0,0,0,.113,1.782,18.073,18.073,0,0,0,2.565,6.645,12.713,12.713,0,0,0,4.864,4.463,12.573,12.573,0,0,0,1.441.614l.78.242c.206.053.474.109.713.148a11.63,11.63,0,0,0,2.937.046,13.037,13.037,0,0,0,4.965-1.532,9.306,9.306,0,0,0,3.025-2.657,8.431,8.431,0,0,0,1.172-2.361,6.89,6.89,0,0,0,.186-.679Z"/><path class="cls-3" d="M406.226,14.764a4.577,4.577,0,0,1,.2.471,5.811,5.811,0,0,1,.345,1.423,8.266,8.266,0,0,1-.06,2.294,11.849,11.849,0,0,1-.839,2.869,13.223,13.223,0,0,1-1.826,3.061,10.551,10.551,0,0,1-3.094,2.621,11.879,11.879,0,0,1-4.124,1.363,16.745,16.745,0,0,1-4.445-.02,30.3,30.3,0,0,1-4.233-.934,40.2,40.2,0,0,1-3.918-1.415c-1.248-.507-2.406-1.01-3.541-1.512a24.751,24.751,0,0,1-3.067-1.718,47.578,47.578,0,0,1-4.163-3.082c-.964-.79-1.5-1.255-1.5-1.255l1.688.991c1.071.631,2.586,1.559,4.448,2.54a32.984,32.984,0,0,0,3.054,1.4l3.6,1.3c1.241.454,2.529.866,3.84,1.24a29.22,29.22,0,0,0,4.041.836,15.176,15.176,0,0,0,4,.075,10.982,10.982,0,0,0,3.668-1.053,9.641,9.641,0,0,0,2.863-2.137,13.725,13.725,0,0,0,1.91-2.685,10.7,10.7,0,0,0,1.4-4.758,6.412,6.412,0,0,0-.118-1.414A4.575,4.575,0,0,0,406.226,14.764Z"/><path class="cls-3" d="M333.561,14.75s-.157.108-.445.338a7.621,7.621,0,0,0-1.149,1.161,9.37,9.37,0,0,0-1.944,5.842,10.69,10.69,0,0,0,.92,4.391,10.184,10.184,0,0,0,1.35,2.184,12.209,12.209,0,0,0,1.985,1.954,15.765,15.765,0,0,0,12.2,2.832,24.158,24.158,0,0,0,6.928-2.294,43.083,43.083,0,0,0,6.53-4.151l6.442-4.823c1.1-.81,2.216-1.614,3.354-2.4,1.143-.764,2.331-1.577,3.516-2.34a119.787,119.787,0,0,1,15.208-8.468A74.712,74.712,0,0,1,405.412,3.4a68.4,68.4,0,0,1,8.879-1.127l2.23-.064,1.107-.029,1.125.009c1.472.025,2.952.095,4.4.242A33.015,33.015,0,0,1,431.541,4.3a21.375,21.375,0,0,1,7.021,4.314,17.164,17.164,0,0,1,2.582,3.055,15.8,15.8,0,0,1,.953,1.7,14.932,14.932,0,0,1,.735,1.819,16.453,16.453,0,0,1,.586,7.544,17.349,17.349,0,0,1-2.56,6.774,19.28,19.28,0,0,1-4.645,5A21.231,21.231,0,0,1,425.037,38.8a12.022,12.022,0,0,1-8.753-2.6,9.549,9.549,0,0,1-3.155-5.089,7.95,7.95,0,0,1-.179-1.607c.009-.368.013-.558.013-.558l-.044.557a8.028,8.028,0,0,0,.091,1.63A9.556,9.556,0,0,0,416,36.517a12.633,12.633,0,0,0,9.075,3.107,21.649,21.649,0,0,0,11.9-4.091A19.477,19.477,0,0,0,445.059,23a18.2,18.2,0,0,0-.478-8.364,17.04,17.04,0,0,0-.769-2.033,17.216,17.216,0,0,0-1.065-1.962,19.1,19.1,0,0,0-2.833-3.445,23.382,23.382,0,0,0-7.623-4.827,33.389,33.389,0,0,0-8.916-2.08c-1.527-.161-3.052-.239-4.595-.273L417.644,0l-1.159.025-2.308.057a70.163,70.163,0,0,0-9.194,1.128,76.9,76.9,0,0,0-17.428,5.813,114.779,114.779,0,0,0-15.4,8.794c-2.362,1.589-4.712,3.2-6.882,4.907l-6.334,4.956a43.248,43.248,0,0,1-6.213,4.158,22.8,22.8,0,0,1-6.468,2.36,15.027,15.027,0,0,1-11.488-2.238,11.5,11.5,0,0,1-1.915-1.733,9.52,9.52,0,0,1-1.361-2.007,10.176,10.176,0,0,1-1.042-4.137,9.351,9.351,0,0,1,1.609-5.763,7.553,7.553,0,0,1,1.073-1.21C333.41,14.867,333.561,14.75,333.561,14.75Z"/><path class="cls-3" d="M412.964,28.941l.036.24a6.958,6.958,0,0,0,.126.7,8.621,8.621,0,0,0,.986,2.514,9.5,9.5,0,0,0,2.961,3.022,13.266,13.266,0,0,0,5.163,1.965,12.685,12.685,0,0,0,3.213.139c.29-.031.551-.066.875-.13l.8-.177a13.714,13.714,0,0,0,1.694-.56,13.549,13.549,0,0,0,5.846-4.669,18.7,18.7,0,0,0,3.2-7.342,11.887,11.887,0,0,0,.214-2.1,18.583,18.583,0,0,0-.019-2.086,19.781,19.781,0,0,0-.775-4.145,17.874,17.874,0,0,0-1.744-3.852,20.818,20.818,0,0,0-2.521-3.292A29.3,29.3,0,0,0,430.1,6.376a17.566,17.566,0,0,0-3.4-2.1,33.129,33.129,0,0,0-3.49-1.41c-.583-.2-1.117-.39-1.718-.561-.553-.164-1.109-.322-1.7-.456A29.353,29.353,0,0,0,413.286,1a30.033,30.033,0,0,0-5.489.376,27.081,27.081,0,0,0-4.1.968,23.712,23.712,0,0,0-2.53.938l-.871.382.918-.242c.6-.155,1.482-.357,2.609-.559a34.191,34.191,0,0,1,9.371-.347,31.971,31.971,0,0,1,6.071,1.211A41.758,41.758,0,0,1,425.681,6.3a18.5,18.5,0,0,1,2.941,1.925,27.67,27.67,0,0,1,2.626,2.564A17.556,17.556,0,0,1,435,17.03a17.43,17.43,0,0,1,.714,3.594c.016.605.09,1.159.06,1.84a9.642,9.642,0,0,1-.113,1.782,18.074,18.074,0,0,1-2.565,6.645,12.714,12.714,0,0,1-4.864,4.463,12.583,12.583,0,0,1-1.441.614l-.78.242c-.206.053-.474.109-.713.148a11.63,11.63,0,0,1-2.937.046,13.037,13.037,0,0,1-4.965-1.532,9.3,9.3,0,0,1-3.024-2.657,8.432,8.432,0,0,1-1.172-2.361,6.924,6.924,0,0,1-.186-.679Z"/><path class="cls-3" d="M333.542,14.764a4.577,4.577,0,0,0-.2.471,5.817,5.817,0,0,0-.345,1.423,8.266,8.266,0,0,0,.06,2.294,11.849,11.849,0,0,0,.839,2.869,13.224,13.224,0,0,0,1.826,3.061,10.551,10.551,0,0,0,3.094,2.621,11.879,11.879,0,0,0,4.124,1.363,16.745,16.745,0,0,0,4.445-.02,30.294,30.294,0,0,0,4.233-.934,40.188,40.188,0,0,0,3.918-1.415c1.248-.507,2.406-1.01,3.541-1.512a24.751,24.751,0,0,0,3.067-1.718,47.558,47.558,0,0,0,4.163-3.082c.964-.79,1.5-1.255,1.5-1.255l-1.688.991c-1.071.631-2.586,1.559-4.448,2.54a32.984,32.984,0,0,1-3.054,1.4l-3.6,1.3c-1.241.454-2.529.866-3.84,1.24a29.222,29.222,0,0,1-4.041.836,15.177,15.177,0,0,1-4,.075,10.982,10.982,0,0,1-3.668-1.053,9.641,9.641,0,0,1-2.863-2.137,13.725,13.725,0,0,1-1.91-2.685,10.705,10.705,0,0,1-1.4-4.758,6.411,6.411,0,0,1,.118-1.414A4.562,4.562,0,0,1,333.542,14.764Z"/><polygon class="cls-3" points="295.873 14.661 0 14.661 0.61 12.245 296.483 12.245 295.873 14.661"/><rect class="cls-3" y="19.699" width="295.873" height="1.208"/><polygon class="cls-3" points="444.199 14.661 740.072 14.661 739.462 12.245 443.589 12.245 444.199 14.661"/><rect class="cls-3" x="444.199" y="19.699" width="295.873" height="1.208" transform="translate(1184.272 40.607) rotate(180)"/></g><path d="M369.264,50.08q-3.454-3.17-6.851-6.4l-6.76-6.483-.393-.377.251-.542,2.909-6.275,2.955-6.252,2.974-6.243,3.012-6.224.2,1.532c-2.555-2.78-5.071-5.593-7.591-8.4L357.8,1.993l3.267-.014,8.2-.035,8.2.034,3.271.014-2.176,2.426c-2.522,2.812-5.039,5.628-7.6,8.409l.206-1.527c1.979,4.149,3.973,8.29,5.9,12.463l2.914,6.25,2.867,6.273.245.537-.385.374-6.676,6.485Q372.67,46.9,369.264,50.08Zm0,0q3.019-3.548,6.1-7.04l6.188-6.953-.14.911L378.175,30.9l-3.187-6.116c-2.136-4.071-4.209-8.174-6.3-12.269l-.412-.808.619-.719c2.464-2.863,4.969-5.691,7.468-8.524l1.095,2.439-8.2.034-8.2-.035,1.094-2.438c2.5,2.83,5,5.658,7.461,8.519l.621.722-.418.811-3.17,6.144-3.208,6.126-3.227,6.116L356.949,37l-.142-.918,6.274,6.954Q366.194,46.538,369.264,50.08Z"/></g></g></svg>