<svg xmlns="http://www.w3.org/2000/svg" viewBox="0 0 1024 1024"><title>orientation-shield</title><path d="M278.57,442.72l232.51-97,234.24,97.72s7.28,246.37-5.89,250.87l-3.12,9-12.47,22.18L686.76,766l-175,171.87L302.83,728.24s-28.41-34-24.26-71.73,0-2.43,0-2.43V442.72Z" fill="#010101"/><path d="M298.32,270.85l1.39,13.51,20.44,4.5s24.6-32.23,184-35.69c0,0,102.57-.69,188.15,23.91l10,12.13,20.1-4.5,3.81-14.21,10-45,4.16,2.08s6.58,5.89,11.09-11.09l-9-6.93S642.41,149.22,518.7,148.18c0,0-82.47.69-152.81,23.56,0,0-89.4,36-94.25,44,0,0,1,10,10,13.86L289,223l-0.69,3.12,6.24,21.14Z" fill="#fecf0a"/><line x1="477.64" y1="142.64" x2="493.41" y2="151.13" fill="#fecf0a"/><path d="M512.12,25.52S491.67,8,489.25,36.09c0,0-14.55-4-12.65,10.4,0,0-9.84,3.81-6.65,16.68l-0.8-.05,0,0.85a13.21,13.21,0,0,0-3.08-1.34c-2.19-.59-4.65-0.32-4.75,3.78-0.17,7.45-5.89,23,7.1,32.23,0,0,4.68,2.43,7.8,4.5,0,0-1.56,6.41,5.89,9.88s-0.69.17-.69,0.17-4.5,18.19,29.28-.35c0,0-6.41,11.26-13.17,15.94s-41.93,21.31-57.87-11.43c0,0,16.81-22.52-10.57-28.24,0,0-19.92.69-14.73,21.48,0,0,4.33,8.14,15.77,10.57,0,0-3.81,24.26-22.52,29.11,0,0-28.41,8.49-41.06-14.9l4.16-3.47s14.9,14,18.88-12c0,0,9.18-.17,11.09-1.91s0.52-8.84.52-8.84l-1.39-8-1.73-8-1.39-3.47-5.37-.69-6.76,2.6L384.26,86,381.66,83,378,81.31l-3.81.69V78.71l-2.08-5.54h-6.24l-4.33,4.5-3.81-5.54-3.64-5-6.24-1.56-24.43,9-4.33,5.2-1.39,2.43v7.1l-5.72.87-0.35,6.41L313.92,99l-2.43,2.25-0.87,5.72,1.91,3.29-0.87,3.47-2.77,2.95s4.16,46.09,26.16,25.12v6.93l4.33,1.91s9-1.91,9-2.08,3.29-10.4,3.29-10.4l2.08,1.21-0.87,8.84s-4.5,15.25-16.46,17.15-20.62,1.56-26.51-4.5l-3.29-3.47s4.16-.17,4.33-10.22-3.64-12.65-13-14l-11.09,2.43-4.68,8.32,0.35,10,4.85,5.54,9,2.95,1.39,5.2s1.21,18.88-12.82,22-19.58-5.2-19.58-5.2l3.81-2.25,4.68-1,3.47-1.21,2.95-4,0.17-3.64s1-2.08-4.5-4.5c0,0,6.24-12.82-8.14-11.78,0,0,12-24.6-10-26.16,0,0-11.78,4.16-12.47,3.29,0,0-10.74-4-8.66,6.76,0,0-16.63-28.07-28.24-5.2l0.35,4.16-8.32-1.39-4.16,3.64,0.17,5.89,9,8.14,11.78,3.81,9.7,7.28,5.72,6.93s-1.73,29.63,26.68,20.79l18.36,12.3,3.81,2.25,32.23-6.41,87.49-17.33,77.1-17.33L499.82,151l15.77,8.49Z" fill="#fecf0a"/><path d="M512.64,25.52S533.08,8,535.51,36.09c0,0,14.55-4,12.65,10.4,0,0,9.84,3.81,6.65,16.68l0.8-.05,0,0.85a13.21,13.21,0,0,1,3.08-1.34c2.19-.59,4.65-0.32,4.75,3.78,0.17,7.45,5.89,23-7.1,32.23,0,0-4.68,2.43-7.8,4.5,0,0,1.56,6.41-5.89,9.88s0.69,0.17.69,0.17,4.5,18.19-29.28-.35c0,0,6.41,11.26,13.17,15.94s41.93,21.31,57.87-11.43c0,0-16.81-22.52,10.57-28.24,0,0,19.92.69,14.73,21.48,0,0-4.33,8.14-15.77,10.57,0,0,3.81,24.26,22.52,29.11,0,0,28.41,8.49,41.06-14.9L654,131.9s-14.9,14-18.88-12c0,0-9.18-.17-11.09-1.91s-0.52-8.84-.52-8.84l1.39-8,1.73-8L628,89.8l5.37-.69,6.76,2.6L640.5,86,643.1,83l3.64-1.73L650.55,82V78.71l2.08-5.54h6.24l4.33,4.5L667,72.12l3.64-5,6.24-1.56,24.43,9,4.33,5.2L707,82.17v7.1l5.72,0.87,0.35,6.41L710.84,99l2.43,2.25,0.87,5.72-1.91,3.29,0.87,3.47,2.77,2.95s-4.16,46.09-26.16,25.12v6.93l-4.33,1.91s-9-1.91-9-2.08-3.29-10.4-3.29-10.4L671,139.35l0.87,8.84s4.5,15.25,16.46,17.15,20.62,1.56,26.51-4.5l3.29-3.47s-4.16-.17-4.33-10.22,3.64-12.65,13-14l11.09,2.43,4.68,8.32-0.35,10-4.85,5.54-9,2.95-1.39,5.2s-1.21,18.88,12.82,22,19.58-5.2,19.58-5.2l-3.81-2.25-4.68-1-3.47-1.21-2.95-4-0.17-3.64s-1-2.08,4.5-4.5c0,0-6.24-12.82,8.14-11.78,0,0-12-24.6,10-26.16,0,0,11.78,4.16,12.47,3.29,0,0,10.74-4,8.66,6.76,0,0,16.63-28.07,28.24-5.2L816,138.83l8.32-1.39,4.16,3.64L828.31,147l-9,8.14-11.78,3.81-9.7,7.28-5.72,6.93s1.73,29.63-26.68,20.79l-18.36,12.3-3.81,2.25L711,202.07l-87.49-17.33-77.1-17.33L524.94,151l-15.77,8.49Z" fill="#fecf0a"/><path d="M834,545.28s-35-.69-48.51,8.84-20.62,17.5-18.36,31.53c0,0-27.37,23-10.92,62.72,0,0,7.62-29.8,14.38-34.3,0,0,18.19,13.69,35.86,0l1.91,1.91s-50.76,62-44.53,70.17c0,0-.35,31,31.53,16.81l1,0.35s-5.54,17.67,14.38,21c0,0,20.79-2.95,22.18-21.66,0,0,21.83,14.73,16.46,38.12,0,0,22.18-25.47-4.85-51.28,0,0,43.14-3.29,15.77-34.82l-1.73.17s-41.41-10.22-13.69-58.56c0,0,26.51-27,38.12-33.26,0,0,36.73-27.89,43.66-59.6,0,0,50.59-128.9-124.57-185.56l-3.29.87s21.66,52.67-38.81,47.64c0,0,6.58,16.63,24.26,15.07,0,0-7.74,10.6,3.47,19.86l0.51,0.41s-24.08,64.45,17.85,81.78c0,0-10.92-21.48-7.8-31.71,0,0,8.84,16.11,21.48,8.66s0.17-28.07.17-33.61c0,0,13.34,2.43,20.79-7.8,0,0,14.73,12.82,21.66,5.2,0,0,9.88-.87-0.69-32.05,0,0,6.93-16.63,13.34-8,0,0,27.2,44.87-8.14,85.07,0,0-20.1,28.07-44.18,26.51,0,0-23,9.7-.87,22.52,0,0-45.91,17.15-62.54-42.27,0,0-13.86,21.14-1.73,41.41,0,0,18,43.31,63.76,24.43l17.33-8.14,4.85,4.85Z" fill="#e21e7a"/><path d="M190.39,545.8s35-.69,48.51,8.84,20.62,17.5,18.36,31.53c0,0,27.37,23,10.92,62.72,0,0-7.62-29.8-14.38-34.3,0,0-18.19,13.69-35.86,0L216,616.49s50.76,62,44.53,70.17c0,0,.35,31-31.53,16.81l-1,.35s5.54,17.67-14.38,21c0,0-20.79-2.95-22.18-21.66,0,0-21.83,14.73-16.46,38.12,0,0-22.18-25.47,4.85-51.28,0,0-43.14-3.29-15.77-34.82l1.73,0.17s41.41-10.22,13.69-58.56c0,0-26.51-27-38.12-33.26,0,0-36.73-27.89-43.66-59.6,0,0-50.59-128.9,124.57-185.56l3.29,0.87s-21.66,52.67,38.81,47.64c0,0-6.58,16.63-24.26,15.07,0,0,7.74,10.6-3.47,19.86l-0.51.41s24.08,64.45-17.85,81.78c0,0,10.92-21.48,7.8-31.71,0,0-8.84,16.11-21.48,8.66s-0.17-28.07-.17-33.61c0,0-13.34,2.43-20.79-7.8,0,0-14.73,12.82-21.66,5.2,0,0-9.88-.87.69-32.05,0,0-6.93-16.63-13.34-8,0,0-27.2,44.87,8.14,85.07,0,0,20.1,28.07,44.18,26.51,0,0,23,9.7.87,22.52,0,0,45.91,17.15,62.54-42.27,0,0,13.86,21.14,1.73,41.41,0,0-18,43.31-63.76,24.43l-17.33-8.14L180.86,539Z" fill="#e21e7a"/><path d="M453.56,297.88s26.68,29.45-3.47,43.31c0,0,99.45,4.85,127.17-1.39,0,0-32.92-4.85-7.28-41.93C570,297.88,521.82,319,453.56,297.88Z" fill="#e21e7a"/><path d="M397.54,826.65S377.1,842.7,393,870c0,0,9.67,19.92,23.15,32.41l0.3,0.28c13.63,12.47,25.18,48.63,28.64,52.44s0,0.92,0,.92,6,8.89,21.25,4.39-0.92-10.28-.92-10.28l1.5,11.43s6.81,20-7.39,41.23c0,0,31.3-13.4,32.92-44.47s0.46,0,.46,0,16.63-1,19.06-20" fill="#e21e7a"/><path d="M627.32,826.65s20.44,16.05,4.5,43.31c0,0-9.67,19.92-23.15,32.41l-0.3.28c-13.63,12.47-25.18,48.63-28.64,52.44s0,0.92,0,.92-6,8.89-21.25,4.39,0.92-10.28.92-10.28l-1.5,11.43s-6.81,20,7.39,41.23c0,0-31.3-13.4-32.92-44.47s-0.46,0-.46,0-16.63-1-19.06-20" fill="#e21e7a"/><path d="M854.65,845.37l0.06-.07-0.06.07h0Z" fill="#e21e7a"/><path d="M854.86,845.13l-0.15.17,0,0Z" fill="#e21e7a"/><path d="M855.51,818.59c-4.68-9.1-7.62-31.88-40.89-43-16.58-5.53-23.73-7.2-26.74-7.49,3.9-1.84,12.68-6.68,13.22-13.21,0.69-8.4-7.1-19-11.26-20.53s-21.05-27.63-20.62-32.92-7.45-4.07-5.89-19.84c0.45-4.59-1.13.25-4.73,9.28l-1.16-.27L746.18,716.8l0.51,0.21C735.57,737.71,719,758.92,697,756.65l-30.32,28.07s2.86,0.42,7.22,1.35c8.21,4.59,33,18.45,43.39,24.19a37.61,37.61,0,0,0,2.38,4.36l-2.17-1.21q1.75,1.47,3.44,3a42.92,42.92,0,0,0,7.37,7.51c14.9,17,23.3,39.72,10.27,68.54l-0.33.73c-2.1-1.84-27.42-23.5-40-8-13.17,16.17,0-1.5-31.42,5.89,0,0,1.62,5.08-5.54,6.47,0,0-41.58-2.08-62.6,27.14,0,0-5.54,3.93,6.7-.23,0,0,16.82-5.17,24.46-.31l2,8.63,0.12,0c2.91,10.2,13.12,26.52,49,13.11l0.35-.13,0.46-.17,0.2,0.26-0.08,0s6.47,25.41,61.33,7.51c0,0,54.75-26.1,30.38-76.35L773,875.9l0.19,0.18s-0.46-6.24-1.62-7.39c0,0,24.72,14.44,45.16-1.27,0,0-35.92,2.66-53.82-35,0,0,12.94,6.93,19.64-1.39,0,0,21.25,26.22,31.3-7.51,0,0,.35,22.87,17.9,12.24,0,0,3.66,31.23,22.77,9.78l0.17-.19S860.18,827.68,855.51,818.59Z" fill="#e21e7a"/><path d="M854.88,845.1l0.92-1Z" fill="#e21e7a"/><path d="M854.86,845.13l0,0Z" fill="#e21e7a"/><path d="M855.79,844.06l0.07-.08Z" fill="#e21e7a"/><path d="M170.22,845.14l-0.06-.07,0.06,0.07h0Z" fill="#e21e7a"/><path d="M170,844.9l0.15,0.17,0,0Z" fill="#e21e7a"/><path d="M169.35,818.36c4.68-9.1,7.62-31.88,40.89-43,16.58-5.53,23.73-7.2,26.74-7.49-3.9-1.84-12.68-6.68-13.22-13.21-0.69-8.4,7.1-19,11.26-20.53s21.05-27.63,20.62-32.92,7.45-4.07,5.89-19.84c-0.45-4.59,1.13.25,4.73,9.28l1.16-.27,11.26,26.16-0.51.21c11.12,20.69,27.73,41.9,49.71,39.64l30.32,28.07s-2.86.42-7.22,1.35c-8.21,4.59-33,18.45-43.39,24.19a37.56,37.56,0,0,1-2.38,4.36l2.17-1.21q-1.75,1.47-3.44,3a42.92,42.92,0,0,1-7.37,7.51c-14.9,17-23.3,39.72-10.27,68.54l0.33,0.73c2.1-1.85,27.42-23.5,40-8,13.17,16.17,0-1.5,31.42,5.89,0,0-1.62,5.08,5.54,6.47,0,0,41.58-2.08,62.6,27.14,0,0,5.54,3.93-6.7-.23,0,0-16.82-5.17-24.46-.31l-2,8.63-0.12,0c-2.91,10.2-13.12,26.52-49,13.11l-0.35-.13-0.46-.17-0.2.26,0.08,0s-6.47,25.41-61.33,7.51c0,0-54.75-26.1-30.38-76.35l0.54-1.11-0.19.18s0.46-6.24,1.62-7.39c0,0-24.72,14.44-45.16-1.27,0,0,35.92,2.66,53.82-35,0,0-12.94,6.93-19.64-1.39,0,0-21.25,26.22-31.3-7.51,0,0-.35,22.87-17.9,12.24,0,0-3.66,31.23-22.77,9.78l-0.17-.19S164.68,827.45,169.35,818.36Z" fill="#e21e7a"/><path d="M170,844.87l-0.92-1Z" fill="#e21e7a"/><path d="M170,844.9l0,0Z" fill="#e21e7a"/><path d="M169.07,843.83l-0.07-.08Z" fill="#e21e7a"/><path d="M223.82,347.77s6.93-14.9,23.91-15.25,56.48,13.51,73.81,14.21,39.5-2.08,39.5-2.08,43.66-18.36,71-16.63l-0.69-6.24,10.4-.69,0.35,10.4,4.85,2.77,4.85-5.2,2.77-10-5.2-13.86s-2.08-6.93-14.55-8.66l-17.67-.69-11.78-4.85L395,289.21l-24.95-11.43-9.36-3.12-10,7.28-2.77,5.2L328.12,267s-3.81,0-4.85,21.14l-2.08,5.89-35.69-17-21.83-8s-36-11.09-43.31,22.18c0,0-31.19,2.43-42.62,30.15,0,0,22.87-15.94,49.55-3.81l14.55,4.16-9.36,5.54-9,14.21Z" fill="#e21e7a"/><path d="M583.85,319l6.24,1,1.73,8.66,28.41,1L642.41,336l21.83,8.66,49.9,0.69,26.68-6.58L763,332.53l24.6,2.43,6.24,3.47,12.47,13.51-10.74-18.36-12.47-12.82,22.18-4.85,18.36-2.43L842,319l2.77,2.77S843,293.72,802.15,293c0,0,6.24-20.79-28.41-24.6L743.59,275l-41.23,16.29s-2.43-30.15-5.89-24.6l-17.67,20.1-2.77.69S673.24,274,657,276.74c0,0-38.12,15.94-45.39,17,0,0-29.8,2.77-30.84,6.58,0,0-24.6,12.82-5.2,31.53l5.2,1v-3.12l1.39-7.62Z" fill="#e21e7a"/><polyline points="461.14 202.26 507.44 177.46 558.31 201.69 514.89 225.97 511.77 226.67" fill="#e21e7a"/><polyline points="383.94 200.92 420.03 211.86 419.43 214.54 391.1 237.33 344.62 230.31 344.41 228.4" fill="#e21e7a"/><polyline points="640.55 201.1 604.46 212.04 605.06 214.71 633.39 237.51 679.87 230.48 680.08 228.57" fill="#e21e7a"/><polyline points="477.01 377.23 512.12 362.5 547.92 376.76 526.9 436.82 566.17 857.95 513.74 917.09 456.68 858.18 496.64 437.75" fill="#e21e7a"/><polyline points="295.03 618.11 479.86 619.21 497.18 434.96 476.74 378.9 292.78 451.38" fill="#fecf0a"/><polyline points="547.92 376.76 730.76 451.03 729.73 618.39 544.44 617.07 526.9 436.82" fill="#fecf0a"/><path d="M292.89,618.4L477.7,620,455.75,860.49,321.08,726.74s-21.95-33.5-27.26-56.37" fill="#fecf0a"/><path d="M730.65,618.16l-186.21-1.09,21.73,240.88L702.93,726.74s22.41-35.81,27.72-55.9S730.65,618.16,730.65,618.16Z" fill="#fecf0a"/><path d="M476.61,379.27l-2,.76h2.19Z" fill="#010101"/><path d="M349,430.55l-3.26,1.3H349v-1.3Z" fill="#010101"/><path d="M324.59,287.63a42.2,42.2,0,0,0-3.1,2.91l1.6,0.64,3.35,1.31A27.46,27.46,0,0,1,324.59,287.63Z" fill="#010101"/><path d="M697.56,292.5l3.35-1.31,1.6-.64a42.07,42.07,0,0,0-3.1-2.91A27.52,27.52,0,0,1,697.56,292.5Z" fill="#010101"/><path d="M356.13,893.59c1.73,0.19,1.77-2.29.38-2.82-14-5.35-32.64,1.08-42,12.29-0.14.17,0,.48,0.25,0.33C328,893.46,340,891.79,356.13,893.59Z" fill="#010101"/><path d="M343,897.58a0.51,0.51,0,0,0,.14,1c15.15-1.19,30.12,0,44.58,5,15,5.12,25.75,14,38.26,23.22,1.5,1.1,2.78-1.15,1.83-2.37C409.28,900.84,371.07,892,343,897.58Z" fill="#010101"/><path d="M512.76,944s-1.19,1.23-2.08-.55a5.24,5.24,0,0,1-.28-0.69c0,0.14,0,.28,0,0.41-1.5,3.49-3,6.62-6,9.35a20.68,20.68,0,0,1-10.35,5.06,47.82,47.82,0,0,0-4.36-23.5c-0.72-1.51-3.1-.44-2.67,1.13,4.27,15.39,5.16,30.49-2.86,44.9-5.59,10-14,16.51-23.49,22,16.34-16.53,10.89-46.12-6-60.28a0.51,0.51,0,0,0-.72.72c8.66,8.41,14.38,19.84,14,32.14s-6.12,20.29-13,29.73a1,1,0,0,0,1.36,1.36c0.19-.14.36-0.28,0.54-0.42,21-4.72,35.08-25.07,37-46,7.05-.29,14.76-4.74,18-11.18,3.28,6.43,11,10.89,18,11.18,1.91,21,16,41.31,37,46,0.18,0.14.36,0.29,0.54,0.42a1,1,0,0,0,1.36-1.36c-6.84-9.45-12.58-17.53-13-29.73s5.34-23.73,14-32.14a0.51,0.51,0,0,0-.72-0.72c-16.85,14.16-22.3,43.74-6,60.28-9.54-5.49-17.9-12-23.49-22-8-14.42-7.14-29.52-2.86-44.9,0.43-1.57-1.94-2.64-2.67-1.13a47.82,47.82,0,0,0-4.36,23.5,20.68,20.68,0,0,1-10.35-5.06c-3-2.72-4.49-5.84-6-9.32A1.23,1.23,0,0,1,512.76,944Z" fill="#010101"/><path d="M763.15,195.56a0.47,0.47,0,0,0-.63-0.63c-3.36,1.6-6.11,4.49-9.23,6.61a0.35,0.35,0,0,0-.37-0.2c-9.47,1.44-20-1.22-27.06-7.88-6.57-6.18-8.75-13.37-10.18-22-0.15-.88-1.39-0.57-1.46.2,0,0.42,0,.84-0.06,1.25-23.33,8-42.47-.68-55.16-21.13a0.72,0.72,0,0,0-1.31.55c7.13,23,36.08,32.47,56.44,21.6-0.1,19.67,20,32.11,38.15,28.26-3.44,2.06-7.41,3.14-10.72,5.3a1.12,1.12,0,0,0-.48.83c-32.5-19.73-69.42-33.37-105.78-43.48a477.06,477.06,0,0,0-123-17.78h-0.67a477.05,477.05,0,0,0-123,17.78c-36.36,10.11-73.27,23.75-105.78,43.48a1.12,1.12,0,0,0-.48-0.83c-3.31-2.17-7.28-3.24-10.72-5.3,18.1,3.85,38.25-8.59,38.15-28.26,20.37,10.87,49.31,1.41,56.44-21.6a0.72,0.72,0,0,0-1.31-.55c-12.69,20.45-31.83,29.1-55.16,21.13,0-.42,0-0.83-0.06-1.25-0.06-.77-1.31-1.08-1.46-0.2-1.43,8.63-3.61,15.83-10.18,22-7.08,6.66-17.58,9.32-27.06,7.88a0.35,0.35,0,0,0-.37.2c-3.12-2.12-5.87-5-9.23-6.61a0.47,0.47,0,0,0-.63.63c1.61,3.78,5.82,6.65,9.19,8.83,3.21,2.08,7.18,4.5,11.09,5-2.93,1.81-5.84,3.65-8.7,5.57a0.23,0.23,0,0,0-.35.14,13.33,13.33,0,0,0,2.32,10c1.89,2.48,5.39,5.42,8.72,4.94a0.72,0.72,0,0,0,.54-0.91l3.95-1.68C290.1,243,293,260.1,298.34,274.84c0.39,1.07,2.28,1,2.14-.29-1.63-15.75-6.48-32.57-11-47.72a1,1,0,0,0-.05-0.1c35.41-15.06,71.24-28.15,108.68-37.45q28-7,56.57-11.47c19-3,38.36-4.06,57.31-7.21,19,3.15,38.32,4.21,57.31,7.21s37.89,6.83,56.57,11.47c37.44,9.31,73.27,22.4,108.68,37.45,0,0,0,.06-0.05.1-4.52,15.15-9.36,32-11,47.72-0.14,1.31,1.75,1.36,2.14.29C731,260.1,733.9,243,736.41,227.51l3.95,1.68a0.72,0.72,0,0,0,.54.91c3.32,0.48,6.83-2.46,8.72-4.94a13.33,13.33,0,0,0,2.32-10,0.23,0.23,0,0,0-.35-0.14c-2.86-1.91-5.76-3.76-8.7-5.57,3.91-.52,7.88-2.95,11.09-5C757.33,202.2,761.54,199.34,763.15,195.56Zm-11.87,20a0.29,0.29,0,0,0,.14,0,12.57,12.57,0,0,1-3.38,8.73,12.09,12.09,0,0,1-4.86,3.14,1.38,1.38,0,0,0-.53-0.43c-36.34-17.4-75.18-30.45-114.19-40.33q-30.6-7.75-61.86-12.56c-17.83-2.73-36.48-5.72-54.61-5.32-18.13-.4-36.78,2.6-54.61,5.32q-31.21,4.77-61.86,12.56c-39,9.88-77.85,22.92-114.19,40.33a1.38,1.38,0,0,0-.52.43,12.09,12.09,0,0,1-4.86-3.14,12.57,12.57,0,0,1-3.38-8.73,0.29,0.29,0,0,0,.14,0c37.83-19.31,75.43-37.39,116.56-48.66,40-11,81.3-16.11,122.73-16.7,41.42,0.59,82.72,5.75,122.73,16.7C675.86,178.17,713.46,196.25,751.29,215.56Z" fill="#010101"/><path d="M407.36,149.13c-13.59,5.23-28,.45-38-9.51-0.23-.23-0.69.09-0.47,0.37,17.91,23.41,61.23,14.25,62-17.71a1,1,0,0,0-.07-0.4,14.44,14.44,0,0,0,8.14-3c2.79,13,16.2,20.27,28.78,20.64,16,0.48,32-8.13,44.25-18.22,12.22,10.08,28.25,18.69,44.25,18.22,12.58-.37,26-7.64,28.78-20.64a14.44,14.44,0,0,0,8.14,3,1,1,0,0,0-.07.4c0.76,32,44.08,41.12,62,17.71,0.21-.28-0.24-0.6-0.47-0.37-10,10-24.39,14.74-38,9.51-12.41-4.78-18-15.06-21.54-27.12a1,1,0,0,0-.12-0.23,1.26,1.26,0,0,0,.81-0.76,16.36,16.36,0,0,0,15.88-16.8c-0.26-8.48-7.88-16.25-16.41-16.55-9.15-.32-17.56,7.75-17.66,16.91a18.36,18.36,0,0,0,6.78,13.74c-7.23,13.82-20.58,19.92-36,17.33-14.07-2.35-24.29-10.74-36-17.89v-0.41l-0.34.21-0.34-.21v0.41c-11.71,7.14-21.93,15.53-36,17.89-15.46,2.59-28.81-3.51-36-17.33a18.36,18.36,0,0,0,6.78-13.74c-0.1-9.16-8.51-17.23-17.66-16.91-8.53.3-16.15,8.06-16.41,16.55A16.36,16.36,0,0,0,428.21,121a1.26,1.26,0,0,0,.81.76,1,1,0,0,0-.12.23C425.38,134.08,419.78,144.36,407.36,149.13Zm173.55-43c-0.64-7.64,5.34-14.41,12.79-15.52,8.25-1.23,16.26,6.25,16.22,14.5,0,7.72-7,13.63-14.15,15a1.06,1.06,0,0,0-.74-0.59C588.17,117.74,581.58,114.08,580.91,106.12Zm-152,13.4a1.06,1.06,0,0,0-.74.59c-7.14-1.38-14.12-7.29-14.15-15,0-8.25,8-15.73,16.23-14.5,7.45,1.11,13.43,7.88,12.79,15.52C442.42,114.08,435.83,117.74,429,119.53Z" fill="#010101"/><path d="M368.18,151.5a0.53,0.53,0,0,0-.54.92c23.05,16.88,56.38,4.94,67.68-19.9,19.11,19.61,58.67,20.87,76.67-1,18,21.92,57.57,20.65,76.67,1,11.31,24.84,44.63,36.78,67.68,19.9a0.53,0.53,0,0,0-.54-0.92c-25.7,11.41-52.33,5.62-66.6-19.55,0.55-.58,1.09-1.18,1.6-1.79,0.33-.39-0.12-1.12-0.59-0.76-11.72,8.78-24.1,15.08-39.13,14.83-16.15-.27-26.82-8.12-38.76-17.39v-0.52l-0.34.26-0.34-.26v0.52C499.72,136.1,489,144,472.9,144.23c-15,.25-27.41-6.06-39.13-14.83-0.47-.35-0.92.37-0.59,0.76,0.51,0.62,1.05,1.21,1.6,1.79C420.51,157.13,393.89,162.91,368.18,151.5Z" fill="#010101"/><path d="M355.52,142a1,1,0,0,0-1.91-.26c-2.34,10-6.42,19.05-16.76,23-10,3.83-19.66.67-28.27-4.94-0.14-.09-0.26.1-0.17,0.22C323.17,178.87,356.9,165.9,355.52,142Z" fill="#010101"/><path d="M313.87,140.77c2.66,4,7.16,7.81,12.32,7.29a9,9,0,0,0,5.81-2.83c0.64,3.75,4,7.37,8,7.7,7.27,0.6,12.12-6.07,11.48-12.68a20.14,20.14,0,0,0,18.23-4.94c4.09,4.13,12,3.15,16.1-.47A12.39,12.39,0,0,0,389.38,122c3.82,0.36,7.62.68,11.07-1.31,4.83-2.78,4.26-7.52,2.54-12-1-2.67-1.93-4.47-2-7.38,0-2.19.6-4.59,0.09-6.74a7.37,7.37,0,0,0-2.43-4.06c-4.14-3.62-9.4-2-13.78.31,1.59-3.3-.11-7.88-3.27-9.64a7.11,7.11,0,0,0-6.67,0c1.35-2.87.09-7.3-3-8.7-4.44-2-8.28.35-10.68,3.86-0.72-4.21-2.27-8.37-5.91-10.65-6.42-4-15.23,1.08-21.6,2.92-6.1,1.77-12.58,3.86-15.79,9.83-1.81,3.35-2.27,7-.89,10.12a6.34,6.34,0,0,0-5.49,1.65,6,6,0,0,0,1.57,9.21,6.85,6.85,0,0,0-3.86,4.73c-0.56,2.7.76,5.15,2.65,7.11C302.34,117.26,308.85,133.14,313.87,140.77Zm37-3.28a0.83,0.83,0,0,0-.82-0.22l-0.39-.13a0.38,0.38,0,0,0-.22-0.42,4.73,4.73,0,0,1-2.6-3.36,0.3,0.3,0,0,0,.06-0.43l-0.11-.14a3.41,3.41,0,0,1,0-.55,0.47,0.47,0,0,0-.82-0.42c-4.27-5.73-4.94-14.2-.19-19.91,5.3-6.37,16.16-6.73,22.08-.94a16.59,16.59,0,0,1,2,20.7C365.37,138.12,357.77,139.32,350.83,137.49ZM314.3,113.28c0.47,0.34.95,0.66,1.41,0.94a0.54,0.54,0,0,0,.65-0.84l-0.71-.75c1.21-.9.43-3.2-1.2-2.62-0.32.12-.63,0.25-0.93,0.38a9.28,9.28,0,0,1-1.94-3.17c-1-3,1-5.92,4.26-5.44,0.92,0.14,2-1,1-1.78a3.62,3.62,0,0,0-2.35-.88,0.48,0.48,0,0,0-.21-0.28c-2.22-1.37-3.33-5.12-1-7s4.8-.19,6.48,1.39a1,1,0,0,0,1.66-.69,4.35,4.35,0,0,0-2.32-3.35c-4.93-10.54,9.87-16.07,17.81-18.29,3.17-.89,7.12-3.11,10.36-3.23,9.15-.34,10.66,6.7,11.56,13.87a1.44,1.44,0,0,0,.05.17c-0.06.26-.12,0.52-0.16,0.78a0.72,0.72,0,0,0,1.37.41,1.29,1.29,0,0,0,1.7-1.36c0-.73-0.09-1.49-0.16-2.26,1.41-2.67,3.47-5,6.76-5,4.53,0,6.24,5,2.11,7.08a1.24,1.24,0,0,0,.62,2.29,5.3,5.3,0,0,0,1.16-.22,6.62,6.62,0,0,0-.64,1.16,0.51,0.51,0,0,0,.85.5c1.83-2.19,5.24-3.42,7.85-1.77,2.77,1.75,2.46,4.83,1.63,7.5a1.19,1.19,0,0,0,.51,1.33l-0.54.33a0.6,0.6,0,0,0,.61,1c3.92-1.81,10.54-5.06,14.32-.72,1.92,2.2,1,5.12.89,7.58-0.15,3.66,1.37,6,2.32,9.45,4,14.42-14.84,6.2-21.71,10.5-1.08.68-.4,2.64,0.91,2.16a18.66,18.66,0,0,1,8.16-.68c0.81,4-.1,8.33-3.37,11-4.07,3.38-8.34,2.22-12.67.46,5.66-7.56,4.92-19.54-2.65-25.57-7.28-5.8-19.17-4.88-25,2.6a16.59,16.59,0,0,0,1.94,22.3,4.66,4.66,0,0,0,.89,3.4,1,1,0,0,0-.55,1.78,15.62,15.62,0,0,0,3.42,1.77c-0.19,4.63-2.16,9.49-7.33,10.2-5.93.82-8.42-4.87-5.67-9.52a1.24,1.24,0,0,0-1.68-1.68,7.45,7.45,0,0,0-.94.77s0-.08,0-0.12a0.65,0.65,0,0,0-1.27-.17c-2.12,7.19-9.17,7.35-14,3.21-2.69-2.33-4.12-5.64-5.48-8.8C310.62,127.62,306.36,116.91,314.3,113.28Z" fill="#010101"/><path d="M209.12,157.69A54.78,54.78,0,0,1,232,174c-2.62,5.64.9,13.87,5.4,17.93,7,6.35,18.44,8.37,25.63,1.09a12.78,12.78,0,0,0,3.28-5.64c14.65,13.24,37.36-3.83,33.66-22-0.35-1.71-3.33-1.35-3.1.42,1,7.39-1,14.93-7.38,19.45-7.32,5.23-15.37,3.76-22.8,0a13.7,13.7,0,0,0,.06-1.89,0.91,0.91,0,0,0,.52.29c5.31,1,12.41-1.42,14.41-6.89,1.31-3.59-.88-8.17-4.63-8.34,2-2.45,2.19-7,.92-9.49a8.22,8.22,0,0,0-11.08-3.39,0.86,0.86,0,0,0,.66,1.57c3-.78,6.6.42,7.84,3.48a5.8,5.8,0,0,1,0,4.18c-0.5,1.36-1.67,2.17-2.36,3.4a1.27,1.27,0,0,0,1.41,1.84,4.24,4.24,0,0,0,1.3-.49,4.47,4.47,0,0,1,4.5,3.92c0.28,2.33-1.3,4.4-3.18,5.6-3,1.88-6.57,1.44-9.8,2.53a1.11,1.11,0,0,0-.63.58A16.29,16.29,0,0,0,259.93,171c-7.54-5.36-16.57-3.32-23.42,1.73a16,16,0,0,1,1.45-1.68,1,1,0,0,0-1.21-1.57,9.61,9.61,0,0,0-3.61,2.7,47,47,0,0,0-14.48-13.36c-3.49-2.05-7.21-3.29-10.94-4.79-3.38-1.35-7.06-2.64-8.64-6.21q-4.79-5.62,6.27-8.35,2.82,1.37,5.68,2.68a1.07,1.07,0,0,0,1.29-1.67c-7.18-7.57-22-4.25-16.78,7.81C198,153.89,204,155.67,209.12,157.69Zm25.35,19.05a0.81,0.81,0,0,0,.89-1.15c4.5-2.84,9.72-4.87,15.1-4.44,7.76,0.63,16.08,9,11.92,17.12C255.07,202.6,230.74,189.92,234.47,176.74Z" fill="#010101"/><path d="M209.08,136.16c1.68-7.68,9.74-10.41,16.38-6.65,5.91,3.35,7.61,9.62,9.94,15.49,0.5,1.27,2.83,1.28,2.64-.36a25.12,25.12,0,0,0-1.2-5.22,0.83,0.83,0,0,0,.54-0.95c-0.43-2.5,1.44-5.47,4.17-5.46s3.7,2.49,4.73,4.59a1.12,1.12,0,0,0,2-.27,4.19,4.19,0,0,0-.33-3.19l0.12,0c6.15-3.43,14.21-4,18.81,2.4a12.5,12.5,0,0,1,2,9.52c-0.59,3.23-2.79,5.05-4.06,7.85a1.15,1.15,0,0,0,1.28,1.67c7.89-2.39,7.4-15.78,3.51-21.13-4.86-6.67-16.89-8.17-22.35-1.36l0,0a7.39,7.39,0,0,0-6.46-2.54,6.57,6.57,0,0,0-5.2,5.88c-2.69-5.51-7.37-10.08-13.5-11.17-6.82-1.2-14.1,3.46-13.84,10.8A0.42,0.42,0,0,0,209.08,136.16Z" fill="#010101"/><path d="M296.72,162.71a1.08,1.08,0,0,0,1.11.85c8.68-.23,15.66-8.8,15.05-17.33-0.62-8.73-9.18-15.85-17.83-15s-15.38,9.25-14.61,17.72A15.5,15.5,0,0,0,296.72,162.71Zm-1.27-28.46c6.89-.35,13.81,5.13,14.29,12.19,0.53,7.77-5.35,12.79-12.24,14.75a1.12,1.12,0,0,0-.77.76c-6.35-1.07-12.23-5.25-13.61-11.88C281.58,142.63,288,134.63,295.45,134.25Z" fill="#010101"/><path d="M474.43,102.88c-1.44,3.7,1.13,8.6,4.82,10.22a7.07,7.07,0,0,0,1.59,8.33c3.55,3,8.44,2.09,12.37.58,6.31-2.41,13.13-5.22,18.78-8.92,5.65,3.7,12.48,6.5,18.78,8.92,3.94,1.51,8.82,2.41,12.38-.58a7.07,7.07,0,0,0,1.59-8.33c3.69-1.63,6.25-6.52,4.82-10.22,15.76,0.22,16.79-21,15.36-32.1-0.57-4.41-1.7-8.83-6.9-9.37a8.51,8.51,0,0,0-3.7.46c1.84-4.62,2.48-9.9-1.33-13.71a7.33,7.33,0,0,0-5.19-2.05,8.92,8.92,0,0,0-3-10.28,9.71,9.71,0,0,0-9.18-.6c0-6.34-1.49-13.23-7.76-16.18-5.47-2.57-10.19.48-13.89,4.36-1.76,1.24-2.89.9-3.48,0.51h0c-3.76-4.12-8.67-7.55-14.38-4.87-6.27,2.95-7.75,9.84-7.76,16.18a9.71,9.71,0,0,0-9.18.6,8.92,8.92,0,0,0-3,10.28A7.33,7.33,0,0,0,471,48.16c-3.8,3.81-3.17,9.09-1.33,13.71a8.51,8.51,0,0,0-3.7-.46c-5.2.54-6.34,5-6.9,9.37C457.64,81.88,458.67,103.09,474.43,102.88Zm37.82,9.32a1,1,0,0,1-.51,0c-0.35.08-.69,0.19-1,0.27a0.63,0.63,0,0,0,.11-0.92c-3.63-3.6-6.58-7.6-5.76-13A13,13,0,0,1,512,89a13,13,0,0,1,6.94,9.55c0.82,5.42-2.13,9.42-5.76,13a0.63,0.63,0,0,0,.11.92C512.94,112.38,512.61,112.27,512.26,112.2ZM461.87,69.31c4.35-9.29,10.43-2.16,13.76.38,0.78,0.59,1.69-.53,1.27-1.27a15.47,15.47,0,0,0-5.29-5.62c-0.92-3.07-1.73-6.24-.74-9.37,1.26-4,6.26-6.45,9.16-2.36a1,1,0,0,0,1.86-.79,5.29,5.29,0,0,0-3.69-3.87c-1.1-3.17-.37-7,2.83-8.69,3.46-1.83,6.26.13,9,2.11a1.1,1.1,0,0,0,1.6-1.23,5.8,5.8,0,0,0-1.72-2.4c0.71-4.74,1.46-10,5.23-13.21,5.91-5.1,11.69,1.11,15.26,5.64a1.33,1.33,0,0,0,.63.46l0,0.12a11.58,11.58,0,0,0,1.45-.07,1.2,1.2,0,0,0,1.11-.51c3.56-4.53,9.34-10.74,15.26-5.64,3.77,3.25,4.52,8.48,5.23,13.21a5.8,5.8,0,0,0-1.72,2.4,1.1,1.1,0,0,0,1.6,1.23c2.74-2,5.54-3.94,9-2.11,3.2,1.7,3.93,5.51,2.83,8.69a5.29,5.29,0,0,0-3.69,3.87,1,1,0,0,0,1.86.79c2.91-4.09,7.9-1.67,9.16,2.36,1,3.13.17,6.3-.74,9.37a15.47,15.47,0,0,0-5.29,5.62c-0.42.74,0.49,1.86,1.27,1.27,3.33-2.54,9.41-9.68,13.76-.38,1.24,2.66,1,8.23.93,11.23-0.06,10-3.92,18-14,20.93a0.61,0.61,0,0,0-.2.15,5.82,5.82,0,0,0-1-1.07,1.07,1.07,0,0,0-1.67,1.29c1.55,3.59.69,7.88-2.87,9.6a4.6,4.6,0,0,0-4.45-.53,1.28,1.28,0,0,0,.34,2.5q2.85,9.62-5.6,6.43l-2.09-.67c-2.15-.64-4.24-1.64-6.32-2.47a99.17,99.17,0,0,0-11.62-4.15,0.43,0.43,0,0,0,.14,0c12.8-4.92,9.63-22.63-1.43-27.27V85c-0.12,0-.22.11-0.34,0.15S511.78,85,511.66,85v0.3c-11.07,4.64-14.23,22.35-1.44,27.27a0.43,0.43,0,0,0,.14,0,99.17,99.17,0,0,0-11.62,4.15c-2.09.82-4.17,1.83-6.32,2.47l-2.09.67q-8.44,3.2-5.6-6.43a1.28,1.28,0,0,0,.34-2.5,4.6,4.6,0,0,0-4.45.53c-3.56-1.72-4.42-6-2.87-9.6a1.07,1.07,0,0,0-1.67-1.29,5.81,5.81,0,0,0-1,1.07,0.6,0.6,0,0,0-.2-0.15c-10-2.94-13.91-10.92-14-20.93C460.92,77.53,460.63,72,461.87,69.31Z" fill="#010101"/><path d="M423.22,213.67c-1.09-.49-2.21-1-3.32-1.43a1,1,0,0,0-.95-0.76l-0.65.07a248.69,248.69,0,0,0-33.6-11,0.84,0.84,0,0,0-1.08-1.22c-14.06,8.3-27.56,19-40.17,29.42a0.37,0.37,0,0,0,.45.58c13.2-8.21,27-17.15,38.94-27.2a0.49,0.49,0,0,0-.09.25,52.79,52.79,0,0,0,1.37,9.41c0.5,2.63.84,5.38,1.5,8-12.84,3.76-25.88,6.12-39,8.9a0.33,0.33,0,0,0,.09.64c13.49-.12,26.82-3.08,39.72-6.89a1,1,0,0,0,.9.55,65,65,0,0,0,1.49,14.36c-14.59-2.57-29.5-5.06-44.14-7.12-0.25,0-.49.34-0.2,0.47a119.87,119.87,0,0,0,46.73,9.17,1.11,1.11,0,0,0,1-1.46c4.57-3.06,8.83-6.64,13.12-10.07,5-4,10.86-7.78,15.07-12.65a0.88,0.88,0,0,0,.14-0.95c0.68,0.18,1.36.38,2,.55C423.47,215.52,424.16,214.09,423.22,213.67Zm-35.42,5.44c-0.35-2.15-.9-4.28-1.34-6.39-0.74-3.51-1.27-7.18-2.62-10.51a0.6,0.6,0,0,0-.7-0.35l0.68-.56a256.67,256.67,0,0,0,28.62,11.08c-7.71,1.41-15.61,4-22.94,6.38a1.34,1.34,0,0,0-.64,0Zm17.55,6.19c-4.85,4-9.92,7.94-14.38,12.41h-0.06a66.48,66.48,0,0,0-2-16l0.73-.22a1.3,1.3,0,0,0,.85-0.74c9-1.65,18.92-3.37,27.35-6.74l1.44,0.39C414.19,217.22,409.81,221.59,405.36,225.29Z" fill="#010101"/><path d="M726.45,680.71a0.87,0.87,0,0,0-1.32.35,74,74,0,0,0-3.18,9q-0.43,1.54-.77,3.1a1,1,0,0,0,1.15,1.1,0.79,0.79,0,0,0,.22-0.2,0.64,0.64,0,0,0,.24-0.22q1.34-2.91,2.38-5.92t1.83-6.11a1,1,0,0,0-.11-0.73A1.19,1.19,0,0,0,726.45,680.71Z" fill="#010101"/><path d="M577.58,323.14a2.79,2.79,0,0,0,.16,2.72,0.5,0.5,0,0,0,.72.14,1.51,1.51,0,0,0,2,.61q-2.37,11.72-8.61-.58c-1.61-3.8-1.15-8.69.11-12.51,3-9,11.77-14.67,20.85-15.87a1.4,1.4,0,0,0,.94-0.54,81.4,81.4,0,0,0,35.8-6.22c13.91-5.7,32.31-22.84,44.12-5a1.33,1.33,0,0,0,1,.57,92.56,92.56,0,0,1-23.55,12.06c-19.21,6.64-39,6.85-58.81,10.18-1.27.21-.92,2.19,0.3,2.18,30.27-.07,72.21-6.74,94.66-30.86q1.37-1.47,2.64-3a56.81,56.81,0,0,0,6.65-10.16c0.25-.49-0.42-1.09-0.8-0.62a114.88,114.88,0,0,1-8.61,9.66c-9.53-3.62-20-5.55-29-7.61-47-10.86-97.29-18.44-145.63-15.7a0.74,0.74,0,0,1-1,0c-48.34-2.74-98.62,4.85-145.63,15.7-8.92,2.06-19.43,4-29,7.61a114.92,114.92,0,0,1-8.61-9.66c-0.38-.47-1,0.13-0.8.62A56.82,56.82,0,0,0,334.12,277q1.27,1.56,2.65,3c22.45,24.13,64.38,30.79,94.66,30.86,1.21,0,1.57-2,.3-2.18-19.79-3.33-39.61-3.54-58.81-10.18a92.56,92.56,0,0,1-23.55-12.06,1.33,1.33,0,0,0,1-.57c11.82-17.85,30.21-.71,44.12,5a81.4,81.4,0,0,0,35.8,6.22,1.4,1.4,0,0,0,.94.54c9.08,1.21,17.88,6.86,20.85,15.87,1.26,3.82,1.73,8.7.11,12.51q-6.24,12.31-8.61.58a1.51,1.51,0,0,0,2-.61,0.5,0.5,0,0,0,.72-0.14,2.8,2.8,0,0,0,.16-2.72c0.68-6.42-7.78-10.4-13.21-5.14-7,6.82-2.51,16.64,4.57,21.42a0.74,0.74,0,0,0,0,1.42c11.75,3.68,25,3.77,37.27,4.32s24.8,0.85,37-.85c12.16,1.7,24.73,1.4,37,.85s25.52-.65,37.27-4.32a0.74,0.74,0,0,0,0-1.42c7.07-4.77,11.61-14.6,4.57-21.42C585.36,312.74,576.89,316.72,577.58,323.14ZM549,341.92c-12.31.59-24.67,0.16-37,.91-12.29-.74-24.65-0.32-37-0.91-6.68-.32-13.45-1.17-20.2-1.81,7-3.94,11.37-12.62,10.85-20.65a26.75,26.75,0,0,0-9-18.05c17.74,5.73,37.63,8.48,55.34,7.19,17.72,1.29,37.6-1.46,55.34-7.19a26.75,26.75,0,0,0-9,18.05c-0.52,8,3.87,16.71,10.85,20.65C562.41,340.75,555.65,341.6,549,341.92Zm39.69-12.75q0.17,5.28-4.46,6.89c-4.23,3.14-9.56,3.07-14.16.57-5.94-3.23-9.18-10.41-8.77-17,0.94-15,14.36-21.71,26.65-26.12,0.64-.23.6-1.36-0.17-1.27a36.2,36.2,0,0,0-9.61,2.42c-9.77,2.7-19.45,5.58-29.44,7.48-12.21,2.32-24.41,2.94-36.69,4.19-12.28-1.26-24.49-1.87-36.69-4.19-10-1.9-19.67-4.79-29.44-7.48a36.2,36.2,0,0,0-9.61-2.42c-0.77-.08-0.82,1-0.17,1.27,12.29,4.42,25.71,11.14,26.65,26.12,0.41,6.56-2.83,13.74-8.77,17-4.6,2.5-9.93,2.57-14.16-.57q-4.63-1.61-4.46-6.89-4.62-8,3.73-5.65a4.65,4.65,0,0,0-1,.93c-4.48,5.73,1.44,12,7.59,11.49,10.26-.91,12.35-14.33,10.26-22.29C452.84,302,442.84,295.59,431.22,295a1.29,1.29,0,0,0-.64.12c-10.73-1-21.2-2.61-31.38-6.37-9.31-3.44-17.19-9.69-26.42-13.12-8.65-3.22-23.94-2.17-24.79,9.63a1.19,1.19,0,0,0,0,.28,95.25,95.25,0,0,1-8.09-6.77l0.18-.07c17.35-6.17,36.17-9.49,54.23-12.85,38.93-7.24,77.74-9.2,117.15-11.62a0.73,0.73,0,0,1,1,0c39.41,2.41,78.21,4.37,117.15,11.62,18.06,3.36,36.88,6.68,54.23,12.85l0.18,0.07a95.22,95.22,0,0,1-8.09,6.77,1.2,1.2,0,0,0,0-.28c-0.86-11.8-16.14-12.85-24.79-9.63-9.23,3.43-17.12,9.68-26.42,13.12-10.18,3.76-20.66,5.38-31.38,6.37a1.29,1.29,0,0,0-.64-0.12c-11.61.6-21.62,7-24.69,18.65-2.09,8,0,21.39,10.26,22.29,6.16,0.54,12.08-5.76,7.59-11.49a4.65,4.65,0,0,0-1-.93Q593.25,321.22,588.65,329.17Z" fill="#010101"/><path d="M816.77,868.83a0.56,0.56,0,0,1,.22.1,2,2,0,0,0-.09-0.21Z" fill="#010101"/><path d="M211.59,872v0c0,0.08,0,.27,0,0.33a1.79,1.79,0,0,0,.08.37c0,0.06.12,0,.2-0.08a5.37,5.37,0,0,0,.23-0.63l-0.36-.19A1.18,1.18,0,0,1,211.59,872Z" fill="#010101"/><path d="M212.23,872.25c0,0.15,0,.41.08,0.54a0.15,0.15,0,0,0,.05.09,2.87,2.87,0,0,1,0-.68l-0.16-.08S212.22,872.21,212.23,872.25Z" fill="#010101"/><path d="M927.52,420.41c-17.62-50.84-66.38-89.87-118.14-102.47,13.07-3.34,25.76-5.86,36.83,6.43a0.41,0.41,0,0,0,.63-0.11c0.32,0.84.66,1.68,0.95,2.53a0.25,0.25,0,0,0,.49-0.14c-4.25-20.2-23.91-37.34-44.54-36.44,0.06-9.31-6.33-16.82-14.65-20.88-11.93-5.82-25.87-2.27-37.68,2-9.11,3.27-18.14,6.83-27.14,10.46a44.35,44.35,0,0,0-7.45-9.29c-14.72-14-36.63-18.53-55.82-22.65C612.29,239.39,562,235,512.34,232v0l-0.34,0-0.34,0v0c-49.68,3-100,7.42-148.67,17.86-19.19,4.11-41.09,8.61-55.82,22.65a44.36,44.36,0,0,0-7.45,9.29c-9-3.62-18-7.18-27.14-10.46-11.81-4.24-25.75-7.79-37.68-2-8.32,4.05-14.71,11.57-14.65,20.88-20.63-.9-40.29,16.25-44.54,36.44a0.26,0.26,0,0,0,.49.14c0.28-.86.62-1.69,0.95-2.53a0.41,0.41,0,0,0,.63.11c11.07-12.3,23.76-9.77,36.83-6.43-51.76,12.6-100.51,51.63-118.14,102.47-17.68,51-3.14,109.18,40.13,142.24,15.87,12.12,34.44,22.62,44.5,40.61,9.95,17.79,7.1,45.35-15.76,51.1l0.22-.2a0.49,0.49,0,0,0-.47-0.81c-22.63,5.76-9.66,44,12.06,36.32-15,13.73-16.76,39-2.34,53.75a0.66,0.66,0,0,0,.1.1c0.44,0.44.84,0.91,1.31,1.34,0.28,0.25.78-.08,0.55-0.42s-0.58-.93-0.88-1.39a0.78,0.78,0,0,0,0-.27c-2.16-15.13,2.9-28.28,14.62-37.56,1.25,11.78,13.07,21.91,25,20.14,10.28-1.53,16.87-12.46,12.59-21.95,6.26,6.66,17,7.37,24.56,2.56a88.54,88.54,0,0,1-8.19,14.51c-6,8.59-15.82,14.93-20.73,24.16a17.47,17.47,0,0,0,8.08,23.84c-30.51,3.53-62.29,25.06-66.57,56.79-1.39,10.29.63,29.69,14.63,30.33,10,0.46,14.22-8.51,14.22-17.21,4.12,3.26,10.8,2,14.33-2.86a16.33,16.33,0,0,0,2.68-6.24,16.77,16.77,0,0,0,11.09,12.66c7.14,2.21,16.73-1.4,19.8-8.44,4.65,4.33,12.15,5.78,17.23,2.26-11.84,18.73-29,30.25-52.13,31.2a0.72,0.72,0,0,0-.85,1.14l0.6,0.48,0.24,0.18a1.91,1.91,0,0,0-.09.2,0.57,0.57,0,0,1,.22-0.1h0a42.87,42.87,0,0,0,17.72,7.56,37.5,37.5,0,0,0,26.62-5.48,17.19,17.19,0,0,0-1.19,5.31,1,1,0,0,0-.69.43c-17.13,24.55-2.07,58.45,20.81,73,18.62,11.84,58.51,21.6,72-2.37,11.28,5,23.77,8.27,35.64,3.82C388,947.4,396,937.39,394,926.76c9.35-2.05,18.75-4,28.19-.37,0.41,0.16.63-.46,0.29-0.68-17.39-11-38.57,3.45-57.37-.86a1.28,1.28,0,0,0-.68,2.46c9.22,3.71,18.48,1.88,27.8-.16,0,14-11.67,23-25.86,22.85-11.45-.15-21.91-5.21-32.26-9.57-1.29-.54-2.16,1.6-0.95,2.24,2.74,1.46,5.61,2.91,8.55,4.25-14.84,20.94-51.86,11.84-69.91.45-23.85-15-32.18-42.53-21.33-67.87,1.08,7.57,7.35,14,15.66,16.34,7.53,2.11,15.58.45,22.65-2.47,11.14-4.61,22.85-15.37,34.69-6a1.72,1.72,0,0,0,2.43-2.43c-6.32-7.65-16.71-5.92-24.74-2.12-5.41,2.56-10.35,5.88-15.8,8.16-7.74-18.77-7.37-34.16,2.81-52.32a1.19,1.19,0,0,0,0-1.09c6.44-9.85,13.62-18.94,23-26.76,13.4-11.18,28.86-18.34,45.57-22.85,1.87,1.85,3.72,3.69,5.49,5.49q16.62,16.84,33.39,33.53c-24.14,21.63,1.21,55.46,16.41,73.47,6.16,7.31,12.43,14.77,16.76,23.35,4.18,8.28,5.87,17.64,10.34,25.78,4.84,8.82,15.48,17.19,25.76,12.26,1.31-.63.35-2.52-0.95-2.24-20.76,4.36-24.47-18.29-30.57-32.48-4.17-9.7-10.62-18-17.34-26.09-17.17-20.54-38.94-46.93-19.52-73.16q55.89,55.74,113.17,110.07v-0.1l4.84-1c0,0.32,0,.6,0,0.89q57.12-54.25,112.93-109.84c19.43,26.23-2.34,52.62-19.52,73.16-6.73,8-13.18,16.39-17.34,26.09-6.09,14.18-9.81,36.84-30.57,32.48-1.3-.27-2.26,1.62-0.95,2.24,10.27,4.93,20.92-3.44,25.76-12.26,4.46-8.13,6.15-17.49,10.34-25.78,4.33-8.58,10.6-16,16.76-23.35,15.19-18,40.55-51.84,16.41-73.47q16.75-16.71,33.39-33.53c1.78-1.8,3.62-3.63,5.5-5.49,16.71,4.5,32.17,11.67,45.57,22.85,9.38,7.82,16.56,16.91,23,26.76a1.19,1.19,0,0,0,0,1.09c10.18,18.15,10.55,33.54,2.81,52.32-5.46-2.28-10.39-5.6-15.8-8.16-8-3.8-18.42-5.53-24.74,2.12a1.72,1.72,0,0,0,2.43,2.43c11.84-9.34,23.55,1.42,34.69,6,7.06,2.92,15.12,4.58,22.65,2.47,8.31-2.32,14.58-8.77,15.66-16.34,10.85,25.34,2.51,52.83-21.33,67.87-18.06,11.39-55.08,20.49-69.91-.45,2.95-1.34,5.81-2.79,8.55-4.25,1.21-.65.34-2.79-0.95-2.24-10.35,4.36-20.81,9.42-32.26,9.57-14.2.19-25.84-8.88-25.86-22.85,9.32,2,18.58,3.87,27.8.16a1.28,1.28,0,0,0-.68-2.46c-18.8,4.31-40-10.18-57.37.86-0.34.22-.12,0.83,0.29,0.68,9.44-3.6,18.84-1.68,28.19.37-1.94,10.63,6,20.64,15.85,24.34,11.87,4.46,24.36,1.21,35.64-3.82,13.54,24,53.43,14.22,72,2.37,22.87-14.55,37.94-48.45,20.81-73a1,1,0,0,0-.69-0.43,17.18,17.18,0,0,0-1.19-5.31,37.57,37.57,0,0,0,27,5.42l0.06,0.06,0.46-.09,0-.05,1.19-.23h0a47.86,47.86,0,0,0,15.9-7.47h0c0.2-.16.42-0.31,0.61-0.47a0.72,0.72,0,0,0-.85-1.14c-23.16-.95-40.29-12.47-52.13-31.2,5.08,3.52,12.58,2.08,17.23-2.26,3.07,7,12.66,10.66,19.79,8.44a16.77,16.77,0,0,0,11.09-12.66,16.33,16.33,0,0,0,2.68,6.24c3.52,4.86,10.21,6.12,14.33,2.86,0,8.7,4.19,17.67,14.22,17.21,14-.64,16-20,14.63-30.33-4.27-31.73-36.06-53.26-66.57-56.79a17.47,17.47,0,0,0,8.08-23.84c-4.91-9.23-14.7-15.57-20.73-24.16a88.52,88.52,0,0,1-8.19-14.51c7.6,4.81,18.3,4.1,24.56-2.56-4.28,9.48,2.31,20.42,12.59,21.95,11.94,1.78,23.76-8.36,25-20.14,11.72,9.28,16.79,22.43,14.62,37.56a0.78,0.78,0,0,0,0,.27c-0.3.46-.57,0.93-0.88,1.39s0.27,0.67.55,0.42c0.47-.42.87-0.89,1.31-1.34a0.66,0.66,0,0,0,.1-0.1c14.42-14.75,12.68-40-2.34-53.75,21.72,7.7,34.69-30.56,12.06-36.32a0.49,0.49,0,0,0-.47.81l0.22,0.2c-22.86-5.75-25.71-33.3-15.76-51.1,10.06-18,28.63-28.48,44.5-40.61C930.67,529.59,945.2,471.41,927.52,420.41ZM282.32,842.67c-8.26,14.51-8.08,35.51,1.79,48.79a32.54,32.54,0,0,1-5.74,1.64c-13.93,2.54-31.52-7-25.31-23.24l0.29-.2a0.94,0.94,0,0,0,.21-1.32v0a0.45,0.45,0,0,0-.18-0.2,1.2,1.2,0,0,0-1.45-.31,54.24,54.24,0,0,1-9.32,4l0,0c-0.44.14-.86,0.25-1.29,0.37l-0.63.18c-1,.26-2,0.49-2.89.68l-0.51.12,0,0q-1.22.22-2.38,0.37l0,0.06-0.47,0,0,0-0.87.1,0,0h-0.07l0,0c-0.8.07-1.58,0.12-2.33,0.15l-0.05,0c-0.47,0-.95,0-1.42,0l0,0h-1.09a34.24,34.24,0,0,1-8.51-1.15l0.19-.06a45,45,0,0,1-11.32-4.71c22.9,1,47.7-13.62,55.21-35.81a1.07,1.07,0,0,0-.92-1.38,1.35,1.35,0,0,0-2.29-1c-3.15,2.85-6,5.34-10.48,5.3a11.8,11.8,0,0,1-7.75-3.06c0.09-.31.18-0.61,0.24-0.93a1.39,1.39,0,0,0-2.3-1.34c-0.14-.19-0.29-0.37-0.41-0.56a0.58,0.58,0,0,0-1,.58c0.19,0.37.41,0.72,0.63,1.07-3.81,5.7-9.24,10.46-16.77,8.51-7.77-2-10.86-9.92-10.75-17.18a0.24,0.24,0,0,0-.44-0.14c0-2-.09-4-0.12-5.89-0.2-13.87,5.41-23.23,16.94-30.78,1.36-.89.51-3.48-1.18-2.8a31,31,0,0,0-16.6,16.7,34.36,34.36,0,0,0-2.61,15c0.06,3.12.68,6.21,0.62,9.34a19.83,19.83,0,0,1-.69,6.48q-2.77,11.43-14.34,4.21a22.76,22.76,0,0,0-1.23-4.73,1.41,1.41,0,0,0-2.73.75c0.65,4.19,1.85,8.34.2,12.47q0.09,5.79-6.28,6.4-4.92,5.51-8.58,0c-5.56-4.6-6.81-10.84-6.76-17.82,0.09-12,5.26-23.48,12.75-32.66,14.52-17.82,35.06-22.8,55.92-28.81a16.8,16.8,0,0,0,2.31,0c1.17-.06,1.6-2,0.3-2.18-14.8-2.24-18.51-16.59-9.38-27.19,4.08-4.74,8.82-8.75,12.72-13.68a85.64,85.64,0,0,0,13.41-24.07c3.61-4.07,6.26-10.59,5.86-16.35,3.07,5.86,6,11.77,8.82,17.76,10.76,23.21,25.14,56.9,56.16,54.54,9,9.32,18.23,18.14,26.7,26.44C324.61,792.64,295.09,814.6,282.32,842.67Zm383.1-58.52a1.66,1.66,0,0,0-1.7,1.69q-7.19,7.15-14.32,14.31Q581.46,868.67,512,935.67q-69.47-67-137.4-135.52-7.11-7.17-14.32-14.31a1.66,1.66,0,0,0-1.7-1.69c-16.68-16.6-33.37-33.31-48.34-51.38-16.45-19.84-29.59-42.25-31.36-67.72a1.17,1.17,0,0,0,.55-0.81c2.87-17.52.7-37,.67-54.79L280,555.06c0-36.6,1.08-73.63-1.24-110.18a1.26,1.26,0,0,0,1.26.18c40.58-15.92,80.52-33.68,120.7-50.56,37.1-15.58,74.49-30.63,111.25-47,36.76,16.37,74.15,31.42,111.25,47,40.19,16.88,80.13,34.64,120.71,50.56a1.26,1.26,0,0,0,1.26-.18c-2.32,36.55-1.19,73.58-1.24,110.18q0,27.2-.07,54.39c0,17.75-2.2,37.26.67,54.79a1.17,1.17,0,0,0,.55.81c-1.77,25.47-14.91,47.88-31.36,67.72C698.79,750.83,682.1,767.55,665.42,784.15ZM781,726.84c3.89,4.93,8.63,8.94,12.72,13.68,9.13,10.6,5.42,25-9.38,27.19-1.31.2-.88,2.12,0.3,2.18a16.8,16.8,0,0,0,2.31,0c20.86,6,41.4,11,55.92,28.81,7.49,9.19,12.66,20.66,12.75,32.66,0.05,7-1.2,13.22-6.76,17.82q-3.66,5.49-8.58,0-6.38-.61-6.28-6.4c-1.65-4.13-.45-8.28.2-12.47a1.42,1.42,0,0,0-2.73-.75,22.76,22.76,0,0,0-1.23,4.73q-11.56,7.2-14.34-4.21a19.83,19.83,0,0,1-.69-6.48c-0.05-3.13.56-6.22,0.62-9.34a34.37,34.37,0,0,0-2.61-15,31,31,0,0,0-16.6-16.7c-1.69-.69-2.54,1.9-1.18,2.8,11.53,7.55,17.14,16.91,16.94,30.78,0,1.91-.11,3.9-0.12,5.89a0.24,0.24,0,0,0-.44.14c0.1,7.26-3,15.16-10.75,17.18-7.53,2-13-2.81-16.77-8.51,0.22-.35.45-0.7,0.63-1.07a0.58,0.58,0,0,0-1-.58c-0.13.2-.28,0.37-0.41,0.56a1.39,1.39,0,0,0-2.3,1.34c0.06,0.32.16,0.62,0.24,0.93a11.8,11.8,0,0,1-7.75,3.06c-4.51,0-7.33-2.45-10.48-5.3a1.35,1.35,0,0,0-2.29,1,1.07,1.07,0,0,0-.92,1.38c7.51,22.19,32.31,36.83,55.21,35.81-1,.56-1.95,1.08-2.92,1.57h0.06a37.12,37.12,0,0,1-17.86,4.37l0,0-0.59,0-0.78,0h0c-0.82,0-1.63-.07-2.4-0.15h-0.07l-0.92-.11,0,0-0.47,0,0,0q-1.26-.16-2.41-0.37h0l-0.16,0a41,41,0,0,1-9.42-2.87h0.14a57.2,57.2,0,0,1-5.2-2.45,1.2,1.2,0,0,0-1.45.31,0.46,0.46,0,0,0-.18.2v0a0.94,0.94,0,0,0,.21,1.32l0.29,0.2c6.21,16.23-11.38,25.77-25.31,23.24a32.54,32.54,0,0,1-5.74-1.64c9.88-13.29,10-34.29,1.79-48.79-12.77-28.07-42.28-50-71.64-57.51,8.47-8.3,17.67-17.12,26.7-26.44,31,2.36,45.4-31.33,56.16-54.54,2.78-6,5.75-11.9,8.82-17.76-0.4,5.76,2.25,12.28,5.86,16.35A85.64,85.64,0,0,0,781,726.84ZM838.23,604.1c-9.34,19.26-3.79,47.42,20.26,51.59a0.71,0.71,0,0,0,.84-0.73c5.67,5.3,10.11,12,7.73,20.18-2.72,9.4-11.57,11.92-20.17,12a1.15,1.15,0,0,0-1.11,1.58l-0.54-.46a1.14,1.14,0,0,0-1.61,1.61c14.37,15.06,16,32.37,6.74,49.36,2.73-14.35-4.27-30.3-16.83-37.87,0,0,0-.06,0-0.09a1,1,0,0,0-2-.44,1.59,1.59,0,0,0-.7,2.27c-2.65,8.81-5.79,17.12-16.25,19.3-11.79,2.45-21.7-8.18-17.93-19.58a0.26,0.26,0,0,0-.47-0.2h0a0.49,0.49,0,0,0-.73-0.32c-7.73,4.71-18.21,5.8-25-1.26a17.51,17.51,0,0,1-2.54-3.43c-0.84-2.31-1.62-4.66-2.35-7a18.22,18.22,0,0,1-.14-1.85c-0.07-3.2,1.21-6,1.55-9.1a1.13,1.13,0,0,0-1-1.19c3.91-7,8-14,12.37-20.74,9.3-14.42,20.27-27.47,30.28-41.37,0.37-.51-0.42-1-0.84-0.65-21,20.22-37.44,47.52-50.22,73.49-12.89,26.2-23.43,65.92-58.37,67,25.48-26.7,48.71-57.52,48.32-92.51a144.29,144.29,0,0,0,1.38-23.86l0.54,0,0.61,0,0,0.13H750c-0.48,0-.54,0-0.39.08a2.94,2.94,0,0,0,.5,0,53.38,53.38,0,0,0,4.23,10.78,1.21,1.21,0,0,0,1.48.66,0.83,0.83,0,0,0,1.45-.29c2.09-11.08,5.15-21.39,10.82-31.27,0.76-1.33,1.57-2.6,2.4-3.84,15.91,11,36.11,3.69,47.35-11,3.2-4.19,4.7-9.58,7.77-13.65q0.08-4.16,3.73-2.6,5-.65.58,2.49c0.24-.63-4.26,5.72-3.93,5.2-5.43,8.54-6.75,18.1-.78,26.62a0.21,0.21,0,0,0,.36-0.21c-5.36-11.72,0-21.81,7.61-30.52,2.06-2.36,5.36-5.25,5.36-8.75,0-4.58-4.42-6.61-8.36-5.13-3.14,1.18-4.22,3.94-5.66,6.64-3.79,7.11-5.57,13.9-10.87,20.23-10.16,12.13-27.85,17.77-41.4,8.22,5.11-6.9,11.2-12.56,17.56-18.65a0.35,0.35,0,0,0-.42-0.55,57.51,57.51,0,0,0-20,17.77,1.55,1.55,0,0,0-1.27,1.8,73.41,73.41,0,0,0-12.22,33.29c-13-30.7,3.51-62.16,34.85-72.36a0.51,0.51,0,0,0-.27-1,48.75,48.75,0,0,0-21.88,9.42,1,1,0,0,0,.06-0.41c-1.68-28,28.52-32.78,49.62-35.54a0.45,0.45,0,0,0,.34-0.69c10.23,1.79,28.72.82,28.34-10.6-0.47-14.14-19.74,1.95-23.2,3.69a46.85,46.85,0,0,1-8.48,3.24l-0.66-.12a1.26,1.26,0,0,0-1.47.69c-16.67,3.86-35.34-1-46.77-14.13C753.14,514.34,752,494,758.89,475.8c0.24-.63-0.74-1-1.06-0.45C745.1,497,753.64,527.77,774.58,541a50.25,50.25,0,0,0,22.07,7.38c-17.59,4-33.85,14.39-30.31,34.9a1.06,1.06,0,0,0,1.3.82,53.39,53.39,0,0,0-19.28,37.47c-0.14-4.11-.26-8.18-0.26-12.16q0-27.2-.07-54.39c0-37.43,1.16-75.32-1.38-112.67a0.63,0.63,0,0,0-1.26-.09,1.23,1.23,0,0,0-.21-0.16c-38.76-17.25-78.35-32.8-117.51-49.13-38.39-16-76.6-32.63-115.34-47.8v-0.27l-0.34.13-0.34-.13v0.27C472.93,360.38,434.72,377,396.32,393c-39.16,16.33-78.75,31.88-117.51,49.13a1.23,1.23,0,0,0-.21.16,0.63,0.63,0,0,0-1.26.09c-2.54,37.36-1.33,75.24-1.38,112.67q0,27.2-.07,54.39c0,4-.12,8-0.26,12.16a53.39,53.39,0,0,0-19.28-37.47,1.06,1.06,0,0,0,1.3-.82c3.54-20.51-12.72-30.94-30.31-34.9A50.26,50.26,0,0,0,249.42,541c20.94-13.25,29.49-44,16.76-65.67-0.32-.55-1.3-0.19-1.06.45,6.93,18.17,5.75,38.54-7.49,53.73-11.43,13.12-30.1,18-46.77,14.13a1.26,1.26,0,0,0-1.47-.69l-0.66.12a46.86,46.86,0,0,1-8.48-3.24c-3.46-1.74-22.73-17.83-23.2-3.69-0.38,11.42,18.11,12.39,28.34,10.6a0.45,0.45,0,0,0,.34.69c21.1,2.76,51.3,7.53,49.62,35.54a1,1,0,0,0,.06.41A48.75,48.75,0,0,0,233.52,574a0.51,0.51,0,0,0-.27,1c31.35,10.2,47.87,41.66,34.85,72.36a73.42,73.42,0,0,0-12.22-33.29,1.55,1.55,0,0,0-1.27-1.8,57.51,57.51,0,0,0-20-17.77,0.35,0.35,0,0,0-.42.55c6.37,6.09,12.46,11.75,17.56,18.65-13.55,9.55-31.24,3.92-41.4-8.22-5.3-6.33-7.08-13.12-10.87-20.23-1.44-2.69-2.52-5.46-5.66-6.64-3.94-1.48-8.35.55-8.36,5.13,0,3.51,3.3,6.39,5.36,8.75,7.59,8.7,13,18.8,7.61,30.52a0.21,0.21,0,0,0,.36.21c6-8.52,4.65-18.09-.78-26.62,0.33,0.52-4.17-5.83-3.93-5.2q-4.46-3.14.58-2.49,3.65-1.56,3.73,2.6c3.07,4.07,4.57,9.46,7.77,13.65,11.24,14.72,31.44,22.06,47.35,11,0.83,1.24,1.64,2.51,2.4,3.84,5.67,9.87,8.73,20.19,10.82,31.27a0.83,0.83,0,0,0,1.46.29,1.21,1.21,0,0,0,1.48-.66,53.34,53.34,0,0,0,4.23-10.78,2.94,2.94,0,0,0,.5,0c0.15,0,.09-0.06-0.39-0.08h-0.07l0-.13,0.61,0,0.54,0a144.25,144.25,0,0,0,1.38,23.86c-0.4,35,22.84,65.8,48.32,92.51-34.94-1.06-45.48-40.78-58.37-67-12.78-26-29.23-53.27-50.22-73.49-0.42-.4-1.2.14-0.84,0.65,10,13.89,21,26.95,30.28,41.37,4.36,6.76,8.46,13.7,12.37,20.74a1.13,1.13,0,0,0-1,1.19c0.34,3.1,1.62,5.9,1.55,9.1a18.34,18.34,0,0,1-.14,1.85c-0.74,2.36-1.51,4.71-2.35,7a17.49,17.49,0,0,1-2.54,3.43c-6.8,7.06-17.28,6-25,1.26a0.49,0.49,0,0,0-.73.32h0a0.26,0.26,0,0,0-.47.2c3.77,11.4-6.14,22-17.93,19.58-10.46-2.18-13.6-10.49-16.25-19.3a1.59,1.59,0,0,0-.7-2.27,1,1,0,0,0-2,.44s0,0.06,0,.09c-12.55,7.57-19.55,23.52-16.83,37.87-9.25-17-7.64-34.29,6.74-49.36a1.14,1.14,0,0,0-1.61-1.61l-0.54.46a1.15,1.15,0,0,0-1.11-1.58c-8.59-.08-17.45-2.6-20.17-12-2.38-8.23,2.06-14.89,7.73-20.18a0.71,0.71,0,0,0,.84.73c24-4.17,29.6-32.33,20.26-51.59-13.85-28.56-47.09-39.54-66.67-63.1-40.91-49.24-30.78-123,10.6-168.21,24.42-26.69,55.89-42.47,90.06-52.81a1.53,1.53,0,0,0,.77-0.53c1.29,0.32,2.58.63,3.87,0.91a0.71,0.71,0,0,0-.18.19,29.86,29.86,0,0,0-2.84,25.68c-0.08.37-.17,0.73-0.24,1.11a0.65,0.65,0,0,0,.91.7c6.23,15.84,24,27.37,40.87,20-8.39,12.86-23.14,15.66-36.62,8-1.06-.6-2.35.92-1.35,1.75a24.49,24.49,0,0,0,15,5.58c3.83,4.52,2.75,11.09-1.8,14.72-3.54,2.83-8.64,3.22-13,2.23a23.39,23.39,0,0,1-5.31-2c0-.13-0.07-0.25-0.12-0.38a0.87,0.87,0,0,0-1.3-.41c-4.21-2.41-7.95-5.78-11.64-8.83a1.28,1.28,0,0,0-1.8,1.8c3.82,4,8.57,8.16,13.82,10.8,2,12.11-5.58,24.21-18.93,24.72-13.71.52-22.09-11.21-21-24a0.86,0.86,0,0,0-1.68-.23,23.08,23.08,0,0,0,4.57,18.56c-4.67,2.5-9.85,5.74-15.28,4.82-9-1.52-10-10.07-7.6-17.2,1.91-5.68,5.18-11,4.54-17.22C162.7,383,153.87,377,147.88,384a1.07,1.07,0,0,0,.53,1.74,1.19,1.19,0,0,0-.63.42c-15.19,20.2-12.95,52.6-1.21,73.73,11.19,20.16,34.22,37.08,58,37.44,3.46,2.91,6.83,5.6,6.38,10.71-0.49,5.55-5.61,9.26-10.87,9.67a0.51,0.51,0,0,0-.27.92,1.47,1.47,0,0,0,.8,2c29.54,9.81,61.49-15.23,64.32-44.59a0.26,0.26,0,0,0-.5-0.07c-3.5,13.71-10.85,26.5-22.79,34.51-11.42,7.66-23.15,8.61-36,7.84a12,12,0,0,0,8.32-9.08c1.16-5.82-2.48-13.69-8.87-14.35a1,1,0,0,0-.82.31c-22.66-5.51-42.75-15.7-54.64-37.09a71.77,71.77,0,0,1-8.76-36.08c0.23-12.79,4.61-23.3,9-35a1,1,0,0,0-.84-1.33,1.12,1.12,0,0,0,.35-0.23c3.44-3.37,9.37.32,11.18,3.84,1.28,2.48.09,6.78-.61,9.34-1,3.83-3,7.35-4,11.22-1.08,4.5-1.34,9.69,1.62,13.58,6.6,8.67,18.33,3.28,24.88-2.34a21.59,21.59,0,0,0,18.7,7.64,23,23,0,0,0,3.13-.55,0.92,0.92,0,0,0-.42.36c-6.14,10-10.71,27.17,1.93,34.48,8.74,5.05,15-.57,18.59-7.88,0.07,4.49.48,8.75-.63,13.39a41.25,41.25,0,0,1-7.6,15.5c-0.29.13-.57,0.28-0.86,0.4-0.67.29-.18,1.31,0.48,1.14,34-8.4,35.38-58.38,21.06-83.53,6.94-3.53,9.78-12.87,4.45-18.77a25.4,25.4,0,0,0,22.85-15.9,31.14,31.14,0,0,0,4-2.31,0.54,0.54,0,0,0-.41-1c-12.56,4-26.93,3.93-36.79-6.19a29.43,29.43,0,0,1-6.68-10.59,0.57,0.57,0,0,0,.78-0.23c15.2-24.31,47.42-8.12,68.67-3.5a226.71,226.71,0,0,0,66.06,4.26,1.31,1.31,0,0,0,1.11,0l0.23-.1h0a2.07,2.07,0,0,0,1.23-.55c11-4.8,21.64-9.67,33.33-12.66,11.08-2.83,22.39-3.77,33.67-5.36,0.52-.07.34-0.83-0.12-0.86-21.8-1.84-47.49,4.62-66.73,15.66a1.76,1.76,0,0,0-1.39-.44c-30,2.51-58.34-1.6-87.19-9.56-17.09-4.71-41.36-7.39-50,12.45-0.16-.49-0.33-1-0.46-1.48a53.38,53.38,0,0,1,8.63-13.51c4.12-4.53,9.76-6.94,14-11.1a1.25,1.25,0,0,0,.1-0.14c0.34-.12.68-0.22,1-0.35,1.15-.45,1.15-2.52-0.32-2.37-17.09,1.81-31.93-6.94-48.62-6.18-8.32.38-17,3.84-20.65,11.61,3.9-9.43,10.41-17.71,19.54-22.66,11.9-6.45,22.76-5.7,35.65-3.87,1.54,0.22,2.9-2,1.18-2.8a35.54,35.54,0,0,0-11.86-3.31c2.6-16.72,20.29-22.5,35.5-19.56,12.79,2.47,25.1,8.47,37.16,13.2l3.1,1.24,2.79,1.12q7,2.83,14.1,5.76l4,1.64c4.17,1.72,8.34,3.44,12.53,5.13l0.14,0.14a1,1,0,0,0,.75.22,386.23,386.23,0,0,0,37.51,13.26,1,1,0,0,0,.73-1.74c-12.73-6.49-26.36-11.47-39.76-16.61a35.12,35.12,0,0,1-3.9-8.25c-0.16-.53-0.34-1.05-0.46-1.62a27.3,27.3,0,0,1-.46-3,41,41,0,0,1,1.26-13.65c0.16-.71-0.88-1.23-1.23-0.52a28.55,28.55,0,0,0-2.3,15.74,36.19,36.19,0,0,0-6.38,6L302.77,283a54.15,54.15,0,0,1,21-17.56c18.62-8.93,40.27-12.81,60.4-16.73,42.23-8.21,85.06-10.49,127.84-14,42.78,3.51,85.6,5.79,127.84,14,20.14,3.91,41.79,7.8,60.4,16.73a54.15,54.15,0,0,1,21,17.56l-14.44,5.82a36.18,36.18,0,0,0-6.38-6,28.55,28.55,0,0,0-2.3-15.74c-0.35-.71-1.39-0.19-1.23.52a41.06,41.06,0,0,1,1.26,13.65,27.34,27.34,0,0,1-.46,3c-0.12.56-.3,1.08-0.46,1.62a35.1,35.1,0,0,1-3.9,8.25c-13.4,5.15-27,10.13-39.76,16.61a1,1,0,0,0,.73,1.74,386.23,386.23,0,0,0,37.51-13.26,1,1,0,0,0,.75-0.22l0.14-.14c4.19-1.69,8.36-3.41,12.53-5.13l4-1.64q7.06-2.92,14.1-5.76l2.79-1.12,3.1-1.24c12.06-4.74,24.37-10.73,37.16-13.2,15.2-2.94,32.89,2.84,35.5,19.56A35.54,35.54,0,0,0,790,293.64c-1.72.82-.36,3,1.18,2.8,12.89-1.83,23.75-2.58,35.65,3.87,9.13,4.95,15.64,13.23,19.54,22.66-3.62-7.78-12.32-11.23-20.65-11.61-16.69-.77-31.53,8-48.62,6.18-1.47-.16-1.47,1.92-0.32,2.37,0.34,0.13.68,0.23,1,.35a1.3,1.3,0,0,0,.1.14c4.2,4.17,9.85,6.57,14,11.1A53.39,53.39,0,0,1,800.49,345c-0.13.5-.3,1-0.46,1.48-8.62-19.84-32.89-17.16-50-12.45-28.85,8-57.22,12.07-87.19,9.56a1.76,1.76,0,0,0-1.39.44c-19.24-11-44.93-17.5-66.73-15.66-0.46,0-.64.79-0.12,0.86,11.29,1.59,22.59,2.54,33.67,5.36,11.69,3,22.36,7.86,33.33,12.66a2.07,2.07,0,0,0,1.23.55h0l0.23,0.1a1.31,1.31,0,0,0,1.11,0,226.71,226.71,0,0,0,66.06-4.26c21.25-4.62,53.46-20.82,68.67,3.5a0.57,0.57,0,0,0,.78.23A29.44,29.44,0,0,1,793.07,358c-9.86,10.11-24.23,10.18-36.79,6.19a0.54,0.54,0,0,0-.41,1,31.16,31.16,0,0,0,4,2.31,25.4,25.4,0,0,0,22.85,15.9c-5.32,5.9-2.49,15.24,4.45,18.77-14.32,25.15-13,75.13,21.06,83.53,0.66,0.16,1.15-.85.48-1.14-0.29-.13-0.57-0.27-0.86-0.4a41.25,41.25,0,0,1-7.6-15.5c-1.1-4.64-.69-8.9-0.63-13.39,3.64,7.31,9.85,12.93,18.59,7.88,12.65-7.31,8.07-24.46,1.93-34.48a0.92,0.92,0,0,0-.42-0.36,23,23,0,0,0,3.13.55,21.59,21.59,0,0,0,18.7-7.64c6.55,5.63,18.28,11,24.88,2.34,3-3.88,2.7-9.07,1.62-13.58-0.93-3.87-2.91-7.39-4-11.22-0.7-2.56-1.89-6.86-.61-9.34,1.81-3.52,7.74-7.21,11.18-3.84a1.13,1.13,0,0,0,.35.23,1,1,0,0,0-.84,1.33c4.41,11.72,8.79,22.22,9,35a71.76,71.76,0,0,1-8.76,36.08c-11.89,21.39-32,31.58-54.64,37.09a1,1,0,0,0-.82-0.31c-6.39.66-10,8.53-8.87,14.35a12,12,0,0,0,8.31,9.08c-12.83.76-24.56-.18-36-7.84-11.94-8-19.3-20.8-22.79-34.51a0.26,0.26,0,0,0-.5.07c2.83,29.36,34.78,54.4,64.32,44.59a1.47,1.47,0,0,0,.8-2,0.51,0.51,0,0,0-.27-0.92c-5.27-.41-10.39-4.13-10.87-9.67-0.45-5.11,2.92-7.8,6.39-10.71,23.73-.36,46.76-17.28,58-37.44,11.74-21.13,14-53.54-1.21-73.73a1.19,1.19,0,0,0-.63-0.42,1.07,1.07,0,0,0,.53-1.74c-6-7.07-14.82-1.06-15.64,6.75C859.84,397,863.11,402.32,865,408c2.4,7.13,1.41,15.68-7.6,17.2-5.43.92-10.61-2.33-15.28-4.82a23.08,23.08,0,0,0,4.57-18.56A0.86,0.86,0,0,0,845,402c1.11,12.77-7.27,24.51-21,24-13.35-.51-20.89-12.61-18.93-24.72,5.25-2.64,10-6.85,13.82-10.8a1.28,1.28,0,0,0-1.8-1.8c-3.69,3-7.43,6.42-11.64,8.83a0.87,0.87,0,0,0-1.3.41c0,0.13-.08.25-0.12,0.38a23.39,23.39,0,0,1-5.31,2c-4.32,1-9.42.59-13-2.23-4.55-3.63-5.63-10.2-1.8-14.72a24.49,24.49,0,0,0,15-5.58c1-.82-0.29-2.35-1.35-1.75-13.48,7.7-28.23,4.91-36.62-8,16.87,7.37,34.64-4.15,40.87-20a0.65,0.65,0,0,0,.91-0.7c-0.07-.37-0.16-0.74-0.24-1.11a29.86,29.86,0,0,0-2.84-25.68,0.7,0.7,0,0,0-.18-0.19c1.29-.28,2.58-0.59,3.87-0.91a1.53,1.53,0,0,0,.77.53c34.17,10.35,65.64,26.13,90.06,52.81,41.38,45.22,51.51,119,10.6,168.21C885.33,564.56,852.08,575.54,838.23,604.1Zm-15.77-60c3-1.43,5.89-3.05,9.15-4.59,0.69-.32,1.83-2,2.59-2l4.51,3.79L833,543.42A31,31,0,0,1,822.46,544.15Zm-620.92,0a31,31,0,0,1-10.57-.72l-5.68-2.07,4.51-3.79c0.76,0,1.9,1.67,2.59,2C195.65,541.09,198.55,542.72,201.54,544.15ZM225.61,320.6a50.68,50.68,0,0,0,12,1.2,47.17,47.17,0,0,0-8.17,8.12,41.24,41.24,0,0,0-6.64,11.5,38.94,38.94,0,0,1,2.83-20.29A0.61,0.61,0,0,0,225.61,320.6Zm0.83,131.14a0.85,0.85,0,0,0-.4-0.44,39.55,39.55,0,0,0,1.92-7.55c0.18-1.26-1.64-1.85-2-.54-2.26,9.07-10.53,26.8-21.77,14.84-7.87-8.38-1.57-19.84,1.46-28.7a1,1,0,0,0-1.1-1.21A22.5,22.5,0,0,0,221,402.26a19.19,19.19,0,0,0,13.42.83q0.22,1.88.53,3.74l0,0a0.93,0.93,0,0,0,.08.28,0.52,0.52,0,0,0,0,.1c2.52,14.7,8.56,28.18,5.81,43.92-2.44,13.93-10,25.22-22.19,31.7C225.8,474.83,230.73,461.87,226.44,451.74Zm95.05-161.2a42.2,42.2,0,0,1,3.1-2.91,27.46,27.46,0,0,0,1.84,4.86l-3.35-1.31Zm381,0-1.6.64-3.35,1.31a27.52,27.52,0,0,0,1.84-4.86A42.07,42.07,0,0,1,702.51,290.54Zm98.71,50.88a41.24,41.24,0,0,0-6.64-11.5,47.19,47.19,0,0,0-8.17-8.12,50.67,50.67,0,0,0,12-1.2,0.61,0.61,0,0,0,0,.53A38.94,38.94,0,0,1,801.22,341.43Zm-12.15,65.41q0.31-1.85.53-3.74a19.19,19.19,0,0,0,13.42-.83,22.5,22.5,0,0,0,16.39,25.88,1,1,0,0,0-1.1,1.21c3,8.86,9.33,20.32,1.46,28.7-11.23,12-19.5-5.77-21.77-14.84-0.33-1.31-2.15-.72-2,0.54a39.57,39.57,0,0,0,1.92,7.55,0.86,0.86,0,0,0-.4.44c-4.29,10.12.64,23.08,7.83,31.13-12.19-6.48-19.76-17.77-22.19-31.7-2.75-15.74,3.29-29.22,5.81-43.92a0.54,0.54,0,0,0,0-.1,0.93,0.93,0,0,0,.08-0.28Z" fill="#010101"/><path d="M709.22,903.38c0.2,0.15.39-.16,0.25-0.33-9.34-11.21-28-17.64-42-12.29-1.39.53-1.34,3,.38,2.82C684,891.79,696,893.46,709.22,903.38Z" fill="#010101"/><path d="M680.91,898.59a0.51,0.51,0,0,0,.14-1c-28.12-5.54-66.33,3.25-84.8,26.81-1,1.22.32,3.47,1.83,2.37,12.51-9.17,23.3-18.1,38.26-23.22C650.79,898.59,665.76,897.39,680.91,898.59Z" fill="#010101"/><path d="M715.59,160c0.09-.11,0-0.31-0.17-0.22-8.61,5.61-18.23,8.76-28.27,4.94-10.35-3.94-14.42-13-16.76-23a1,1,0,0,0-1.91.26C667.1,165.9,700.83,178.87,715.59,160Z" fill="#010101"/><path d="M623.55,120.72c3.45,2,7.25,1.67,11.07,1.31a12.39,12.39,0,0,0,3.56,12.81c4.09,3.62,12,4.61,16.1.47a20.14,20.14,0,0,0,18.23,4.94c-0.65,6.61,4.21,13.28,11.48,12.68,4-.33,7.37-3.94,8-7.7a9,9,0,0,0,5.81,2.83c5.17,0.52,9.66-3.24,12.32-7.29,5-7.63,11.53-23.51,1.95-29.54,1.88-2,3.21-4.41,2.65-7.11a6.85,6.85,0,0,0-3.86-4.73,6,6,0,0,0,1.57-9.21,6.34,6.34,0,0,0-5.49-1.65c1.37-3.15.91-6.77-.89-10.12-3.21-6-9.69-8.06-15.79-9.83-6.36-1.84-15.18-6.94-21.6-2.92-3.64,2.28-5.19,6.45-5.91,10.65-2.4-3.52-6.23-5.86-10.68-3.86-3.12,1.4-4.37,5.84-3,8.7a7.11,7.11,0,0,0-6.67,0c-3.17,1.76-4.86,6.34-3.27,9.64-4.38-2.32-9.64-3.93-13.78-.31a7.37,7.37,0,0,0-2.43,4.06c-0.5,2.14.13,4.55,0.09,6.74,0,2.91-1,4.71-2,7.38C619.28,113.2,618.72,117.95,623.55,120.72Zm50.83,16.42-0.39.13a0.83,0.83,0,0,0-.82.22c-6.95,1.83-14.54.63-19.05-5.81a16.59,16.59,0,0,1,2-20.7c5.92-5.78,16.78-5.43,22.08.94,4.75,5.71,4.08,14.18-.19,19.91a0.47,0.47,0,0,0-.82.42,3.41,3.41,0,0,1,0,.55l-0.11.14a0.3,0.3,0,0,0,.06.43,4.73,4.73,0,0,1-2.6,3.36A0.38,0.38,0,0,0,674.38,137.14ZM623.9,109.88c1-3.41,2.47-5.8,2.32-9.45-0.1-2.46-1-5.38.89-7.58,3.78-4.34,10.4-1.09,14.32.72a0.6,0.6,0,0,0,.61-1l-0.54-.33a1.19,1.19,0,0,0,.51-1.33c-0.83-2.67-1.14-5.75,1.63-7.5,2.61-1.66,6-.42,7.85,1.77a0.51,0.51,0,0,0,.85-0.5,6.62,6.62,0,0,0-.64-1.16,5.3,5.3,0,0,0,1.16.22,1.24,1.24,0,0,0,.62-2.29c-4.13-2.09-2.42-7.13,2.11-7.08,3.28,0,5.35,2.32,6.76,5-0.07.77-.12,1.53-0.16,2.26a1.29,1.29,0,0,0,1.7,1.36,0.72,0.72,0,0,0,1.37-.41c0-.26-0.1-0.52-0.16-0.78a1.4,1.4,0,0,0,.05-0.17c0.91-7.17,2.42-14.21,11.56-13.87,3.24,0.12,7.19,2.34,10.36,3.23,7.93,2.22,22.74,7.75,17.81,18.29a4.35,4.35,0,0,0-2.32,3.35,1,1,0,0,0,1.66.69c1.68-1.59,4.3-3.13,6.48-1.39s1.19,5.59-1,7a0.49,0.49,0,0,0-.21.28,3.62,3.62,0,0,0-2.35.88c-0.93.76,0.12,1.92,1,1.78,3.22-.47,5.23,2.45,4.26,5.44a9.27,9.27,0,0,1-1.94,3.17c-0.3-.13-0.6-0.26-0.93-0.38-1.63-.59-2.41,1.72-1.2,2.62-0.24.25-.48,0.5-0.71,0.75a0.54,0.54,0,0,0,.65.84c0.46-.28.93-0.59,1.41-0.94,7.94,3.63,3.68,14.34,1.14,20.25-1.36,3.17-2.79,6.48-5.48,8.8-4.78,4.14-11.84,4-14-3.21a0.65,0.65,0,0,0-1.27.17s0,0.08,0,.12a7.45,7.45,0,0,0-.94-0.77,1.24,1.24,0,0,0-1.68,1.68c2.75,4.65.26,10.33-5.67,9.52-5.17-.71-7.14-5.57-7.33-10.2a15.62,15.62,0,0,0,3.42-1.77,1,1,0,0,0-.54-1.78,4.66,4.66,0,0,0,.89-3.4,16.59,16.59,0,0,0,1.94-22.3c-5.8-7.48-17.7-8.39-25-2.6-7.57,6-8.31,18-2.65,25.57-4.33,1.77-8.61,2.92-12.67-.46-3.27-2.72-4.18-7.06-3.37-11a18.65,18.65,0,0,1,8.16.68c1.31,0.48,2-1.48.91-2.16C638.74,116.07,619.87,124.29,623.9,109.88Z" fill="#010101"/><path d="M757.88,155.54a1.15,1.15,0,0,0,1.28-1.67c-1.27-2.79-3.47-4.61-4.06-7.85a12.5,12.5,0,0,1,2-9.52c4.6-6.42,12.66-5.83,18.81-2.4l0.12,0a4.18,4.18,0,0,0-.33,3.19,1.12,1.12,0,0,0,2,.27c1-2.1,1.87-4.58,4.73-4.59s4.6,3,4.17,5.46a0.83,0.83,0,0,0,.54.95,25.09,25.09,0,0,0-1.2,5.22c-0.19,1.64,2.14,1.63,2.64.36,2.33-5.87,4-12.14,9.94-15.49,6.64-3.76,14.7-1,16.38,6.65a0.42,0.42,0,0,0,.82-0.11c0.26-7.35-7-12-13.84-10.8-6.13,1.08-10.81,5.66-13.5,11.17a6.57,6.57,0,0,0-5.2-5.88,7.39,7.39,0,0,0-6.46,2.54l0,0c-5.45-6.81-17.49-5.31-22.35,1.36C750.48,139.76,750,153.15,757.88,155.54Z" fill="#010101"/><path d="M742.34,176.73c2,5.47,9.11,7.86,14.41,6.89a0.91,0.91,0,0,0,.52-0.29,13.67,13.67,0,0,0,.06,1.89c-7.43,3.78-15.48,5.25-22.8,0-6.34-4.52-8.34-12.07-7.38-19.45,0.23-1.77-2.75-2.13-3.1-.42-3.69,18.2,19,35.27,33.66,22A12.79,12.79,0,0,0,761,193c7.19,7.28,18.59,5.26,25.63-1.09,4.5-4.05,8-12.28,5.4-17.93a54.78,54.78,0,0,1,22.84-16.34c5.17-2,11.16-3.8,13.57-9.36,5.23-12.06-9.61-15.38-16.78-7.81a1.07,1.07,0,0,0,1.29,1.67q2.86-1.3,5.68-2.68,11.06,2.73,6.27,8.35c-1.58,3.57-5.26,4.86-8.64,6.21-3.73,1.49-7.45,2.73-10.94,4.79a47,47,0,0,0-14.48,13.36,9.61,9.61,0,0,0-3.61-2.7,1,1,0,0,0-1.21,1.57,16,16,0,0,1,1.45,1.68c-6.85-5-15.88-7.08-23.42-1.73a16.29,16.29,0,0,0-6.69,11.06,1.11,1.11,0,0,0-.63-0.58c-3.23-1.08-6.83-.65-9.8-2.53-1.88-1.19-3.46-3.27-3.18-5.6a4.47,4.47,0,0,1,4.5-3.92,4.25,4.25,0,0,0,1.3.49,1.27,1.27,0,0,0,1.41-1.84c-0.68-1.23-1.85-2-2.36-3.4a5.8,5.8,0,0,1,0-4.18c1.24-3.05,4.8-4.26,7.84-3.48a0.86,0.86,0,0,0,.66-1.57A8.22,8.22,0,0,0,746,158.9c-1.27,2.48-1.11,7,.92,9.49C743.21,168.56,741,173.14,742.34,176.73Zm31.21-5.57c5.38-.43,10.6,1.6,15.1,4.44a0.81,0.81,0,0,0,.89,1.15c3.73,13.18-20.6,25.86-27.9,11.53C757.46,180.11,765.78,171.78,773.54,171.16Z" fill="#010101"/><path d="M711.12,146.23c-0.6,8.53,6.37,17.1,15.05,17.33a1.08,1.08,0,0,0,1.11-.85,15.5,15.5,0,0,0,16.28-13.78c0.77-8.47-6.1-16.9-14.61-17.72S711.74,137.5,711.12,146.23Zm17.43-12c7.49,0.38,13.87,8.37,12.33,15.82-1.38,6.63-7.26,10.8-13.61,11.88a1.12,1.12,0,0,0-.77-0.76c-6.89-2-12.77-7-12.24-14.75C714.74,139.38,721.66,133.9,728.55,134.25Z" fill="#010101"/><path d="M680.55,228.73c-12.6-10.38-26.11-21.12-40.17-29.42a0.84,0.84,0,0,0-1.08,1.22,248.7,248.7,0,0,0-33.6,11l-0.65-.07a1,1,0,0,0-.95.76c-1.11.47-2.23,0.95-3.32,1.43s-0.25,1.85.68,1.61c0.67-.17,1.35-0.37,2-0.55a0.88,0.88,0,0,0,.14.95c4.21,4.87,10,8.64,15.07,12.65,4.29,3.42,8.55,7,13.12,10.07a1.11,1.11,0,0,0,1,1.46,119.87,119.87,0,0,0,46.73-9.17c0.29-.13.06-0.5-0.2-0.47-14.64,2.06-29.54,4.55-44.14,7.12A64.91,64.91,0,0,0,636.66,223a1,1,0,0,0,.9-0.55c12.91,3.81,26.23,6.76,39.72,6.89a0.33,0.33,0,0,0,.09-0.64c-13.1-2.78-26.14-5.14-39-8.9,0.66-2.62,1-5.37,1.5-8a52.79,52.79,0,0,0,1.37-9.41,0.49,0.49,0,0,0-.09-0.25c12,10.05,25.74,19,38.94,27.2A0.37,0.37,0,0,0,680.55,228.73Zm-47.46,9H633c-4.47-4.47-9.53-8.38-14.38-12.41-4.45-3.7-8.83-8.07-13.89-10.91l1.44-.39c8.43,3.38,18.32,5.09,27.35,6.74a1.3,1.3,0,0,0,.85.74l0.73,0.22A66.51,66.51,0,0,0,633.09,237.69Zm7.07-35.49c-1.36,3.33-1.89,7-2.62,10.51-0.44,2.11-1,4.24-1.34,6.39l-1.06-.31a1.33,1.33,0,0,0-.64,0c-7.32-2.34-15.23-5-22.94-6.38a256.65,256.65,0,0,0,28.62-11.08l0.68,0.56A0.6,0.6,0,0,0,640.16,202.21Z" fill="#010101"/><path d="M772.69,291.18a0.1,0.1,0,0,0,0,.2A0.1,0.1,0,0,0,772.69,291.18Z" fill="#010101"/><path d="M509.71,937.81v0.1a20.41,20.41,0,0,0,.7,4.81,5.24,5.24,0,0,0,.28.69c0.89,1.78,2.08.55,2.08,0.55a1.23,1.23,0,0,0,.82-0.8c0.42-.79.86-2.36,0.95-5.48,0-.29,0-0.58,0-0.89Z" fill="#010101"/><path d="M477.85,384.35c0.13,0.49.27,1,.4,1.45v-1.45h-0.4Z" fill="#010101"/><path d="M292.63,661.87h2.47q0.22-10.77.22-21.55l-1.67.84,1.67-1q0-10.4-.09-20.8l-0.33,0v-0.82l0.32,0c-0.18-18.17-.54-36.34-0.61-54.46-0.06-13.59.21-27.35,0.37-41.14q0.08-6.9.1-13.8c0-9.2-.07-18.39-0.4-27.54s-0.91-18.25-1.86-27.27a0.37,0.37,0,0,0-.37-0.36,0.37,0.37,0,0,0-.37.36c-2.18,22.56-2,45.63-1.6,68.61,0.18,9.19.41,18.37,0.56,27.49q0.11,6.84.15,13.64c0,9.13,0,18.27,0,27.42-0.14,27.45-.4,55,0.77,82.32a1.45,1.45,0,0,0,2.74.61,1.55,1.55,0,0,0,.14-0.61c0.09-2.7.15-5.4,0.21-8.11h-2.1C292.76,664.28,292.67,663,292.63,661.87Z" fill="#010101"/><path d="M717.7,702.41a1,1,0,0,0-.2.16c-0.57.69-1.26,1.42-1.93,2.19a9.58,9.58,0,0,0-2.45,4.21,1.31,1.31,0,0,0,1.91,1.47c2.12-1.37,3.16-4.31,4.3-6.47a1.11,1.11,0,0,0,.09-0.84,1.32,1.32,0,0,0-.91-0.9l-0.32.62Z" fill="#010101"/><path d="M732.75,547.66V620h-4q-0.07,7.13-.09,14.26l2.15-1.65,0,1.37v2.73l-2.1,1.61c0,11.68.13,23.36,0.52,35l0.38,0c-0.08.33-.15,0.66-0.23,1h0a1.33,1.33,0,0,0,.78.69,1.56,1.56,0,0,0,.52.09,1.4,1.4,0,0,0,1.44-1.39c0.39-9.12.62-18.26,0.75-27.4q0.1-6.86.13-13.72c0-9.15,0-18.31,0-27.46s-0.11-18.31-.12-27.45q0-6.86,0-13.7c0.06-13.59.44-27.35,0.7-41.13,0.45-23,.59-46-1.6-68.61a0.37,0.37,0,0,0-.74,0c-0.95,9-1.52,18.12-1.86,27.27-0.31,8.37-.39,16.78-0.39,25.2a129,129,0,0,1,4.23,32.8Q733.16,543.65,732.75,547.66Z" fill="#010101"/><path d="M728.92,616.14V606.4q-0.06,4.87-.11,9.74h0.11Z" fill="#010101"/><path d="M604,821.83l-0.12-.25L600.32,825Z" fill="#010101"/><path d="M704.87,724.37l-0.41.56-0.66.88-1-.47L701,727a0.45,0.45,0,0,0-.45-0.4,0.49,0.49,0,0,0-.16,1q-5.88,5.31-11.67,10.72l0.05,2.07-1,1-1,1-1,1-0.06-2.14q-12.2,11.45-24.15,23.2l1.15,1.16-0.77.75-0.77.75-0.77.75-1.12-1.14q-9.79,9.62-19.51,19.32l1.6,0.16-1,1-1,1-1,1-1.51-.15-12.73,12.7,0.75,0.45-0.8.77-0.8.78-0.8.77-0.7-.42q-7.65,7.62-15.32,15.19l0.21,0.42,4.87-4.28-16,17.66-29,26.66v-0.23l-53.46,58.63,0,0.18h-0.13l-1.4,1.53-1.06-1.63-1.65-.07-23.46-27.49-0.58.39,16.57,18.44,10.84,14,1.47-1.65,27.67-31.13,16.63-18.84q25.09-24.72,50.16-49.46c32.52-31.94,66.16-63.19,97.14-96.64A0.85,0.85,0,0,0,704.87,724.37Z" fill="#010101"/><path d="M474.69,880l-1.91-2.47,12,12.63L458,858.8l-0.19,2.05-3.74-2.55,0.29-3.17-18.94-18.57h0v4.06l-3.76-3.74v-4h0q-6.59-6.47-13.19-12.93-11.16-11-22.25-22.11h0v3.75l-4.08-4.07v-3.74h0C380.4,782,368.62,770.28,356.71,758.7h0V762l-3.76-3.77v-3.2q-6.56-6.34-13.2-12.59l-1.85-1.75q-7.08-6.64-14.26-13.16a0.49,0.49,0,0,0-.16-1,0.45,0.45,0,0,0-.45.4l-0.35-.32c-0.82-.75-1.63-1.5-2.46-2.24a0.88,0.88,0,0,0-1.25,1.25c30.61,33.06,63.81,64,96,95.51l53.24,51.53Z" fill="#010101"/><polygon points="497.51 437.47 501.75 437.47 501.75 437.18 497.54 437.11 497.51 437.47" fill="#010101"/><polygon points="484.97 535.49 484.13 535.49 484.13 543.42 484.97 535.49" fill="#010101"/><polygon points="431.26 397.12 431.26 397.25 431.26 401.62 437.13 401.62 437.13 394.88 437.13 394.79 431.26 397.12" fill="#010101"/><polygon points="419.9 401.62 419.51 401.78 419.51 401.97 419.51 405.94 431.26 405.94 431.26 401.62 420.37 401.62 419.9 401.62" fill="#010101"/><path d="M460.63,385.47v16.15h5.87V383.16l-1.88.73Z" fill="#010101"/><rect x="448.88" y="401.62" width="11.75" height="4.32" fill="#010101"/><polygon points="448.88 390.13 443 392.46 443 392.52 443 401.62 448.88 401.62 448.88 390.16 448.88 390.13" fill="#010101"/><polygon points="477.52 380.03 476.8 380.03 474.6 380.03 474.35 380.03 472.38 380.81 472.38 380.88 472.38 384.35 477.85 384.35 478.25 384.35 478.25 385.8 478.25 405.94 484.13 405.94 484.13 405.19 484.13 400.02 477.52 380.03" fill="#010101"/><polygon points="302.02 448.36 302.02 448.58 302.02 457.76 307.9 457.76 307.9 446.47 307.9 446.03 302.02 448.36" fill="#010101"/><rect x="319.64" y="453.44" width="11.75" height="4.32" fill="#010101"/><polygon points="331.39 436.71 331.39 437.54 331.39 453.44 337.27 453.44 337.27 435.24 337.27 434.39 331.39 436.71" fill="#010101"/><polygon points="319.64 441.37 313.77 443.7 313.77 444.28 313.77 453.44 319.64 453.44 319.64 442.07 319.64 441.37" fill="#010101"/><polygon points="354.56 427.53 349.02 429.73 349.02 430.55 349.02 431.85 345.76 431.85 343.67 431.85 343.14 432.06 343.14 432.89 343.14 436.17 349.02 436.17 349.02 457.76 354.89 457.76 354.89 428.17 354.89 427.53 354.56 427.53" fill="#010101"/><rect x="360.76" y="431.85" width="5.87" height="21.59" fill="#010101"/><rect x="378.39" y="431.85" width="5.87" height="21.59" fill="#010101"/><rect x="366.64" y="453.44" width="11.75" height="4.32" fill="#010101"/><rect x="366.64" y="427.53" width="11.75" height="4.32" fill="#010101"/><polygon points="401.89 457.76 401.89 427.53 396.01 427.53 396.01 431.85 390.14 431.85 390.14 436.17 396.01 436.17 396.01 457.76 401.89 457.76" fill="#010101"/><polygon points="413.63 431.85 407.76 431.85 407.76 436.17 413.63 436.17 413.63 457.76 419.51 457.76 419.51 427.53 413.63 427.53 413.63 431.85" fill="#010101"/><polygon points="437.13 457.76 437.13 427.53 431.26 427.53 431.26 431.85 425.38 431.85 425.38 436.17 431.26 436.17 431.26 457.76 437.13 457.76" fill="#010101"/><rect x="443" y="431.85" width="5.88" height="21.59" fill="#010101"/><rect x="460.63" y="431.85" width="5.87" height="21.59" fill="#010101"/><rect x="448.88" y="453.44" width="11.75" height="4.32" fill="#010101"/><rect x="448.88" y="427.53" width="11.75" height="4.32" fill="#010101"/><polygon points="484.13 457.76 484.13 427.53 478.25 427.53 478.25 431.85 472.38 431.85 472.38 436.17 478.25 436.17 478.25 457.76 484.13 457.76" fill="#010101"/><polygon points="496.03 434.55 495.03 431.85 494.42 431.85 490 431.85 490 436.17 495.48 436.17 495.7 434.04 496.03 434.55" fill="#010101"/><rect x="302.02" y="479.35" width="11.75" height="4.32" fill="#010101"/><rect x="302.02" y="505.26" width="11.75" height="4.32" fill="#010101"/><rect x="296.15" y="483.67" width="5.88" height="21.59" fill="#010101"/><rect x="313.77" y="483.67" width="5.87" height="21.59" fill="#010101"/><polygon points="331.39 483.67 325.52 483.67 325.52 487.99 331.39 487.99 331.39 509.58 337.27 509.58 337.27 479.35 331.39 479.35 331.39 483.67" fill="#010101"/><polygon points="354.89 509.58 354.89 479.35 349.02 479.35 349.02 483.67 343.14 483.67 343.14 487.99 349.02 487.99 349.02 509.58 354.89 509.58" fill="#010101"/><rect x="366.64" y="505.26" width="11.75" height="4.32" fill="#010101"/><rect x="366.64" y="479.35" width="11.75" height="4.32" fill="#010101"/><rect x="360.76" y="483.67" width="5.87" height="21.59" fill="#010101"/><rect x="378.39" y="483.67" width="5.87" height="21.59" fill="#010101"/><rect x="390.14" y="483.67" width="5.88" height="21.59" fill="#010101"/><rect x="396.01" y="505.26" width="11.75" height="4.32" fill="#010101"/><rect x="396.01" y="479.35" width="11.75" height="4.32" fill="#010101"/><rect x="407.76" y="483.67" width="5.87" height="21.59" fill="#010101"/><rect x="419.51" y="483.67" width="5.88" height="21.59" fill="#010101"/><rect x="425.38" y="479.35" width="11.75" height="4.32" fill="#010101"/><rect x="425.38" y="505.26" width="11.75" height="4.32" fill="#010101"/><rect x="437.13" y="483.67" width="5.87" height="21.59" fill="#010101"/><rect x="454.76" y="479.35" width="11.75" height="4.32" fill="#010101"/><rect x="454.76" y="505.26" width="11.75" height="4.32" fill="#010101"/><rect x="466.5" y="483.67" width="5.87" height="21.59" fill="#010101"/><rect x="448.88" y="483.67" width="5.87" height="21.59" fill="#010101"/><polygon points="490.91 479.35 484.13 479.35 484.13 483.67 490.45 483.67 490.91 479.35" fill="#010101"/><rect x="478.25" y="483.67" width="5.87" height="21.59" fill="#010101"/><polygon points="484.13 505.26 484.13 509.58 487.71 509.58 488.17 505.26 484.13 505.26" fill="#010101"/><polygon points="296.15 539.81 302.02 539.81 302.02 561.4 307.9 561.4 307.9 531.17 302.02 531.17 302.02 535.49 296.15 535.49 296.15 539.81" fill="#010101"/><rect x="331.39" y="535.49" width="5.87" height="21.59" fill="#010101"/><rect x="313.77" y="535.49" width="5.88" height="21.59" fill="#010101"/><rect x="319.64" y="531.17" width="11.75" height="4.32" fill="#010101"/><rect x="319.64" y="557.08" width="11.75" height="4.32" fill="#010101"/><rect x="360.77" y="535.49" width="5.87" height="21.59" fill="#010101"/><rect x="349.02" y="531.17" width="11.75" height="4.32" fill="#010101"/><rect x="343.14" y="535.49" width="5.88" height="21.59" fill="#010101"/><rect x="349.02" y="557.08" width="11.75" height="4.32" fill="#010101"/><polygon points="378.39 535.49 372.51 535.49 372.51 539.81 378.39 539.81 378.39 561.4 384.26 561.4 384.26 531.17 378.39 531.17 378.39 535.49" fill="#010101"/><rect x="407.76" y="535.49" width="5.87" height="21.59" fill="#010101"/><rect x="396.01" y="531.17" width="11.75" height="4.32" fill="#010101"/><rect x="390.14" y="535.49" width="5.88" height="21.59" fill="#010101"/><rect x="396.01" y="557.08" width="11.75" height="4.32" fill="#010101"/><rect x="419.51" y="535.49" width="5.88" height="21.59" fill="#010101"/><rect x="425.38" y="557.08" width="11.75" height="4.32" fill="#010101"/><rect x="425.38" y="531.17" width="11.75" height="4.32" fill="#010101"/><rect x="437.13" y="535.49" width="5.87" height="21.59" fill="#010101"/><polygon points="460.63 531.17 454.76 531.17 454.76 535.49 448.88 535.49 448.88 539.81 454.76 539.81 454.76 561.4 460.63 561.4 460.63 531.17" fill="#010101"/><rect x="466.5" y="535.49" width="5.87" height="21.59" fill="#010101"/><rect x="472.38" y="531.17" width="11.75" height="4.32" fill="#010101"/><polygon points="472.38 557.08 472.38 561.4 482.23 561.4 482.68 557.08 472.38 557.08" fill="#010101"/><rect x="302.02" y="608.89" width="11.75" height="4.32" fill="#010101"/><rect x="296.15" y="587.31" width="5.88" height="21.59" fill="#010101"/><rect x="302.02" y="582.99" width="11.75" height="4.32" fill="#010101"/><rect x="313.77" y="587.31" width="5.87" height="21.59" fill="#010101"/><rect x="331.39" y="608.89" width="11.75" height="4.32" fill="#010101"/><rect x="325.52" y="587.31" width="5.88" height="21.59" fill="#010101"/><rect x="343.14" y="587.31" width="5.87" height="21.59" fill="#010101"/><rect x="331.39" y="582.99" width="11.75" height="4.32" fill="#010101"/><polygon points="366.64 613.21 366.64 582.99 360.77 582.99 360.77 587.3 354.89 587.3 354.89 591.62 360.77 591.62 360.77 613.21 366.64 613.21" fill="#010101"/><rect x="390.14" y="587.31" width="5.87" height="21.59" fill="#010101"/><rect x="372.52" y="587.31" width="5.87" height="21.59" fill="#010101"/><rect x="378.39" y="582.99" width="11.75" height="4.32" fill="#010101"/><rect x="378.39" y="608.89" width="11.75" height="4.32" fill="#010101"/><polygon points="413.63 613.21 413.63 582.99 407.76 582.99 407.76 587.3 401.89 587.3 401.89 591.62 407.76 591.62 407.76 613.21 413.63 613.21" fill="#010101"/><rect x="425.38" y="608.89" width="11.75" height="4.32" fill="#010101"/><rect x="419.51" y="587.31" width="5.88" height="21.59" fill="#010101"/><rect x="425.38" y="582.99" width="11.75" height="4.32" fill="#010101"/><rect x="437.13" y="587.31" width="5.87" height="21.59" fill="#010101"/><polygon points="460.63 613.21 460.63 582.99 454.76 582.99 454.76 587.3 448.88 587.3 448.88 591.62 454.76 591.62 454.76 613.21 460.63 613.21" fill="#010101"/><polygon points="478.25 582.99 472.38 582.99 472.38 587.3 466.5 587.3 466.5 591.62 472.38 591.62 472.38 613.21 476.74 613.21 478.25 598.95 478.25 582.99" fill="#010101"/><polygon points="419.51 401.62 419.51 401.78 419.9 401.62 419.51 401.62" fill="#010101"/><polygon points="343.14 431.85 343.14 432.06 343.67 431.85 343.14 431.85" fill="#010101"/><path d="M479.74,619.58L458,858.7l12.31,12-11.81-13.49c1.56-17.4,3-34.8,4.72-52.19l2.58-26.31,2.72-26.29,5.58-52.57c1.87-17.52,3.73-35,5.43-52.59l2.5-26.31,2.35-26.33q2.3-26.33,4.23-52.7l2-27.26,6.81-77c4.9-.08,9.81.09,14.71,0.25,4.64,0.18,9.27.34,13.91,0.39L538,570.23l1.8,24.42L541.85,621l2.21,26.34L548.71,700l4.91,52.64,10.14,104.08-2.07,2.43,3.79-4.07,1,1.44,0.06-1.78,2.42-2.12-1.09-12.48-2.67-.88L565,838.09l-0.11-1.17-0.11-1.17,2.71,0.89L564,796.41l-2.88,1.74L561,797l-0.12-1.19-0.12-1.19,2.92-1.77-1.42-16.26-3.37-1.08-0.11-1.16-0.11-1.16L558.57,772l3.41,1.09L560.13,752l-0.07-.73-4-5.18-0.2-2-0.2-2-0.2-2,4.08,5.24-2-21.62L554,725.56l-0.11-1.15-0.11-1.15-0.11-1.15,3.55-1.84-1.91-20.88-1.17-12.1L550,684.18l-0.14-1.44-0.14-1.44-0.14-1.44,4.19,3.11-3.49-36.19-1.94-19.26-3.92-.35-0.11-1.09L544.17,625l-0.11-1.09,3.91,0.34-0.25-2.49-3,0-0.4-4.35,3.21,0.23L547.35,616l-18.7-177.63,0.46-1.23,3.45-9.14c-0.52.19-1,.36-1.56,0.56l2.27-5.89c0.49-.18,1-0.33,1.49-0.5,1.77-4.86,3.44-9.76,5.06-14.68s3.2-10,4.65-15.07c1.25-4.29,2.45-8.59,3.54-12.93,5.16,2,10.31,3.9,15.37,5.94q27.41,11,54.83,22,7.94,3.17,15.86,6.41a128.43,128.43,0,0,1,36,14.68c19.21,7.78,38.49,15.37,58,22.22a0.58,0.58,0,0,0,.45-1.06q-13-5.92-26.21-11.45c-13.19-5.55-26.49-10.88-39.81-16.16s-26.64-10.51-39.89-15.88q-27.39-11.09-54.82-22.07c-9.05-3.64-18.11-7.67-27.25-11.46-4.57-1.9-9.16-3.74-13.77-5.44s-9.26-3.27-13.95-4.62a0.8,0.8,0,0,0-.47,0,0.4,0.4,0,0,1-.73,0,0.8,0.8,0,0,0-.47,0c-4.68,1.35-9.33,2.92-13.95,4.62-13.85,5.11-27.44,11.45-41,16.9q-27.42,11-54.82,22.07c-13.25,5.36-26.57,10.6-39.89,15.88s-26.62,10.61-39.81,16.16q-13.19,5.55-26.21,11.45a0.58,0.58,0,0,0,.45,1.06c2-.72,4.07-1.47,6.1-2.2v-0.22L307.9,446v0.43l5.87-2.18V443.7l5.88-2.33v0.7q5.88-2.24,11.75-4.53v-0.82l5.87-2.33v0.86l5.88-2.35v-1h2.62l3.26-1.3v-0.82l5.54-2.2h0.33v0.64c17-6.88,33.92-13.91,50.9-20.69,4.58-1.83,9.15-3.68,13.72-5.51v-0.34h0.86l10.89-4.38v-0.13l5.87-2.33v0.09l5.88-2.36v-0.06l5.88-2.33v0l11.73-4.72c1.32-.53,2.68-1,4-1.56l1.88-.73c2-.76,3.9-1.53,5.88-2.28v-0.06l2-.78h0.25l2-.76L476.8,380h0.72l6.61,20v5.17c0.23,0.69.44,1.38,0.67,2.06q1.3,3.81,2.76,7.56l3.05,7.46c1,2.49,2.08,5,3,7.46,0.27,0.7.5,1.41,0.76,2.12H495l1,2.7L495.7,434l-0.23,2.13-4.57,43.18-0.46,4.32-2.28,21.59-0.46,4.32L485,535.49l-0.84,7.93-1.44,13.65-0.46,4.32-4,37.55-1.51,14.26-0.2,1.91L476,620.6Zm22-182.11h-4.24l0-.36,4.2,0.07v0.29Zm-6.67-8.23c-0.79-2.56-1.46-5.17-2.19-7.75l-2.17-7.76q-1.14-3.86-2.46-7.66c-1.77-5.06-3.62-10.1-5.6-15.09-1.58-4.06-3.31-8.07-5.13-12.06,7.34-2.78,14.69-5.59,21.85-8.72,4.24-1.85,8.4-3.81,12.46-5.95a0.16,0.16,0,0,1,.3,0c4.06,2.13,8.23,4.1,12.46,5.95,7.41,3.24,15,6.14,22.63,9-1.88,4.07-3.66,8.17-5.39,12.3-2.06,4.85-4,9.74-5.87,14.64S532.31,416,530.61,421l-4.35,13.17-29.2,1.19C496.37,433.31,495.68,431.29,495.08,429.24Z" fill="#010101"/><path d="M484.57,891l0.58-.39,23.46,27.49,1.65,0.07,1.06,1.63,1.4-1.53h0.13l0-.18,53.46-58.63v0.23l29-26.66,16-17.66-4.87,4.28-0.21-.42L590,786.41a8.26,8.26,0,0,0,.68-0.66L621.56,804l0.7,0.42,0.8-.77,0.8-.78,0.8-.77-0.75-.45-28.59-16.91L636.65,789l1.51,0.15,1-1,1-1,1-1-1.6-.16-46.87-4.77a8.07,8.07,0,0,0,.1-1c0-.25-0.05-0.48-0.07-0.73l41.56-27.61a8.08,8.08,0,0,0,11.12.9l13.67,13.88,1.12,1.14,0.77-.75,0.77-.75,0.77-.75-1.15-1.16-13.88-14.09a7.94,7.94,0,0,0,.27-7.38l32.87-21.83a8.16,8.16,0,0,0,4.4,1.4c0.16,6.22.32,12.53,0.48,18.71l0.06,2.14,1-1,1-1,1-1-0.05-2.07c-0.14-5.42-.28-10.9-0.42-16.31a8.2,8.2,0,0,0,3-2.08l11.52,5.44,1,0.47,0.66-.88,0.41-.56,0.24-.32,0.64-.89-12.78-6a8.07,8.07,0,0,0-5.08-10.52c-0.36-14.75-.6-25-0.72-31A8.1,8.1,0,0,0,689,675l28.68,27.41,0.47,0.45,0.32-.62,0.19-.37c0.17-.34.35-0.65,0.52-1l0.5-1L691.62,673a8.26,8.26,0,0,0,.67-0.81l36.48,4.28c0.1-.35.21-0.69,0.3-1s0.17-.7.26-1.05v-0.06c0.08-.33.15-0.66,0.23-1l-0.38,0-35.64-4.18a7.42,7.42,0,0,0-.19-3.72l35.31-27.1,2.1-1.61v-2.73l0-1.37-2.15,1.65-36.81,28.25a8,8,0,0,0-8.21-2.86l-14.33-39.4,16.36-.24h47.06V547.66q0.4-4,.41-8.14A129.32,129.32,0,0,0,603.94,410.3a206.65,206.65,0,0,0-69.17,11.89c-0.49.17-1,.33-1.49,0.5L531,428.58c0.51-.2,1-0.37,1.56-0.56A201.94,201.94,0,0,1,602,415V537.61h0v27.48a32.74,32.74,0,0,0-.38,4.7,50.83,50.83,0,0,0,.38,6.07v40.77l-9-.11L547.35,616l0.17,1.66-3.21-.23,0.4,4.35,3,0,9.81-.11,1.29,1.13a8.17,8.17,0,0,0-1.4,2.3l-9.44-.83-3.91-.34,0.11,1.09,0.11,1.09,0.11,1.09,3.92,0.35,8.55,0.75a8.21,8.21,0,0,0,8.19,8c0.13,0,.24,0,0.37,0l16,64.43a8.2,8.2,0,0,0-2,1.33L553.73,683l-4.19-3.11,0.14,1.44,0.14,1.44,0.14,1.44,4.18,3.11,23.32,17.31a7.75,7.75,0,0,0-.53,5.46l-19.71,10.21-3.55,1.84,0.11,1.15,0.11,1.15,0.11,1.15,3.52-1.82L578.32,713a8.16,8.16,0,0,0,12.34.93l42.55,28.55a7.82,7.82,0,0,0-.56,6.71l-40.88,27.16A8.07,8.07,0,0,0,581,772.93l-21.47-27.57-4.08-5.24,0.2,2,0.2,2,0.2,2,4,5.18,18.37,23.6a8.16,8.16,0,0,0-1.63,2.95L562,773.09,558.57,772l0.11,1.16,0.11,1.16,0.11,1.16,3.37,1.08,14.21,4.56a8.13,8.13,0,0,0,1.09,3.29l-13.88,8.4-2.92,1.77,0.12,1.19L561,797l0.12,1.19,2.88-1.74,15.77-9.55A7.89,7.89,0,0,0,587.2,788l16.62,33.57,0.12,0.25L600.32,825l-18.55,16.3-14.25-4.68-2.71-.89,0.11,1.17,0.11,1.17,0.11,1.17,2.67,0.88L579,843.8l-10,8.82-2.42,2.12-0.06,1.78-1-1.44-3.79,4.07-49.24,52.78-42.11-41.19L458,858.7l21.71-239.12-3.78,1,0.58-5.47-4.27-.06c-13.41-.25-26.62-0.32-39.39-0.43s-25.13.08-36.84,0.3l-17.06.29-15.94.39c-10.22.25-19.59,0.58-27.89,0.88s-15.54.63-21.51,0.95S303,618,299.8,618.17l-4.58.29-0.32,0v0.82l0.33,0,4.57,0.29c3.19,0.21,7.88.41,13.84,0.72s13.2,0.64,21.51.95,17.67,0.63,27.89.88L379,622.54,396,622.83c11.71,0.22,24.06.29,36.84,0.3s26-.18,39.39-0.43l3.5,0-2.35,25.53-18.29,7.17-0.92.36-0.48,1c-3.65,7.83-7.16,15.71-10.74,23.56q-3.79,8.34-7.54,16.69v-0.3H401.59l-2.22-7c-3.25-10.32-6.62-20.61-10-30.9s-6.67-20.59-10.13-30.85l-1.71-5.07-3.67,3.71-19.26,19.5-17.87,18.34c-11.83-9.28-23.66-18.55-35.64-27.64l-0.23-.17-0.21.13-5.36,3.37-1.67,1,1.67-.84,5.49-2.77c11.5,10.54,23.16,20.89,34.82,31.24L337,670l1.41-1.31L358.47,650l16.07-15.12c2.57,8.71,5.21,17.4,7.83,26.09,3.13,10.36,6.24,20.73,9.47,31.06l1.43,4.62h-0.81v24.47H356.71V676.3H317.49V661.87H292.63c0,1.15.13,2.41,0.27,3.76h20.83v49.32c1.16,1.63,2.43,3.35,3.76,5.12v-40h35.45v78.2l3.76,3.77V758.7h0V724.92h35.45v72.58l4.08,4.07V706.23l5.22,16.85,9.81,31,3.24,10.24,4.19-9.85c3.38-7.94,6.83-15.85,10.14-23.82l2.84-6.77v109h0v4l3.76,3.74v-4.06h0V774.49h26.36l-7.42,80.64-0.29,3.17,3.74,2.55L458,858.8l26.73,31.32-12-12.63,1.91,2.47-6.49-7.23-53.24-51.53-47.1-45.59L512,923.42l-10.84-14ZM645.1,747.9a4.94,4.94,0,0,1-.47,1.06,5.06,5.06,0,0,1-1.46,1.58,5,5,0,1,1-.1-8.29,4.84,4.84,0,0,1,1.52,1.57A4.74,4.74,0,0,1,645.1,747.9ZM688,710.17a5,5,0,0,1,2.28,4.18,5.29,5.29,0,0,1-.64,2.39,5.15,5.15,0,0,1-4.35,2.6c-0.1,0-.19,0-0.29,0a5.18,5.18,0,0,1-2.37-.76,4.83,4.83,0,0,1-2.24-3.35,4.94,4.94,0,0,1-.09-0.85c0-.08,0-0.15,0-0.23a5,5,0,0,1,4.43-4.7,5,5,0,0,1,2.16.24A5,5,0,0,1,688,710.17Zm-10.87,3.68L593,707c0-.09,0-0.18,0-0.26l86.71-33.34a8.19,8.19,0,0,0,4.29,2.29c0.11,5.93.34,16,.7,30.54A8.17,8.17,0,0,0,677.11,713.86Zm4.78-49.67a4.71,4.71,0,0,1,1.84-1.23,5,5,0,0,1,6.76,4.64h0a5,5,0,0,1-1.17,3.17,5,5,0,0,1-.79.77,4.7,4.7,0,0,1-2.47,1,4.85,4.85,0,0,1-.55.06,5.23,5.23,0,0,1-2.29-.59,5.34,5.34,0,0,1-2.69-4.4,4.85,4.85,0,0,1,.06-0.55,4.9,4.9,0,0,1,.23-1.06A5,5,0,0,1,681.89,664.19Zm47-57.78v9.74H678.16a81.24,81.24,0,0,0,50.76-50.81V606.4Zm-74.7,9.25v-44h0V561.16a14.26,14.26,0,0,0,.43-3.44,20.54,20.54,0,0,0-.43-4.2V541.44h74.19A76.24,76.24,0,0,1,654.22,615.66Zm-48.35-200.6A124.62,124.62,0,0,1,728.41,537.6H638.3a20.54,20.54,0,0,0-4.19-.43,32.22,32.22,0,0,0-5,.43H605.87V415.06Zm26.32,151.07v1.67H606.46A27.83,27.83,0,0,1,632.19,542v21.59h-0.44A8.37,8.37,0,0,0,632.19,566.13Zm0,5.5h5.52a8.42,8.42,0,0,0,2.57.44,14.35,14.35,0,0,0,3.46-.44h6.64v44a46,46,0,0,1-44-44h25.78Zm6.17-15.83H636V542a15.86,15.86,0,0,1,13.8,13.8H638.36Zm11.4,3.83a9.68,9.68,0,0,1-7.56,7.54v-7.54h7.56Zm-11.4,0v2H636v-2h2.33Zm0,5.84v1.36a3.8,3.8,0,0,1-1.36-1.36h1.36Zm8.24-24h3.79v3.79A20.69,20.69,0,0,0,646.6,541.44Zm-40.73,0h12.25a32.75,32.75,0,0,0-12.25,12.34V541.44Zm0,48.53A50.91,50.91,0,0,0,632,616.14H605.87V590Zm-10.43,31.24,34.4-.41,33-.49,3.08,0L680.72,661a8.21,8.21,0,0,0-2.94,4L573.22,627.45Zm-12.47.14-10.64,3a8.26,8.26,0,0,0-2.45-2.85Zm-16.21,11.38a6.34,6.34,0,0,1-1.71.32c-0.15,0-.29,0-0.43,0a5,5,0,0,1-4.51-4.47c0-.16,0-0.31,0-0.48a4.87,4.87,0,0,1,.06-0.6,4.52,4.52,0,0,1,1.12-2.58,5,5,0,0,1,.78-0.75,4.86,4.86,0,0,1,2.15-1l0.18,0a4.92,4.92,0,0,1,.7-0.07c0.13,0,.26,0,0.39,0a5,5,0,0,1,2.08.64,5,5,0,0,1,1.63,1.48,4.85,4.85,0,0,1,.8,2c0,0.06,0,.11,0,0.17a4.93,4.93,0,0,1,.07.65,4.77,4.77,0,0,1,0,.5,4.9,4.9,0,0,1-.22,1.06A4.86,4.86,0,0,1,566.76,632.74Zm23,76.12a4.92,4.92,0,0,1-.51,1.52,5,5,0,0,1-9.35-1.87c0-.14,0-0.28,0-0.43a5.24,5.24,0,0,1,.7-2.5A5.1,5.1,0,0,1,582,704l0.13-.09a5.75,5.75,0,0,1,2.7-.8c0.15,0,.29,0,0.44,0a5,5,0,0,1,4.52,4.65c0,0.1,0,.19,0,0.29A4.93,4.93,0,0,1,589.79,708.86Zm-4.91-9c-0.12,0-.24,0-0.36,0l-16-64.43a8.21,8.21,0,0,0,4.24-4.76l104.56,37.47a8.16,8.16,0,0,0,.53,2.41L591.79,703.7A8.19,8.19,0,0,0,584.88,699.87Zm7.58,11.35a8.16,8.16,0,0,0,.32-1l84.8,6.94a8.14,8.14,0,0,0,.8,1.66l-32.5,21.59a8.07,8.07,0,0,0-10.57-.38Zm-2.86,69.11a5,5,0,0,1-1,2.92,5.13,5.13,0,0,1-1.8,1.48,5.09,5.09,0,0,1-5-.36,5.62,5.62,0,0,1-1.74-2.1,5.78,5.78,0,0,1-.44-2c0-.12,0-0.24,0-0.36a5.24,5.24,0,0,1,.8-2.39A5,5,0,0,1,582,776a5,5,0,0,1,7.57,4.24S589.6,780.31,589.6,780.34ZM431.69,705.41l-9.87,22.15c-2.08,4.63-4.11,9.27-6.13,13.92l-6.48-20.83-6.42-20.2h28.9v5Zm3.76,65.32V714.85l3.41-8.13c3.36-7.95,6.63-15.94,9.91-23.92,3.14-7.68,6.34-15.34,9.43-23L473,653.08,462.16,770.73h-26.7Z" fill="#010101"/><path d="M460.18,202.63c1.85-1.3,3.74-2.54,5.63-3.78s3.76-2.5,5.68-3.69c3.8-2.43,7.65-4.79,11.5-7.13s7.73-4.63,11.64-6.88,7.81-4.5,11.79-6.61l0.91-.48,0.84,0.44c2.16,1.13,4.28,2.34,6.42,3.53l6.39,3.58,6.39,3.59c2.13,1.19,4.29,2.33,6.44,3.48,4.33,2.25,8.69,4.45,13.1,6.55s8.86,4.1,13.3,6.14l2.17,1-2.17,1.22c-3.89,2.19-7.76,4.43-11.7,6.54s-7.83,4.29-11.79,6.36l-11.83,6.28c-3.93,2.12-7.93,4.1-11.89,6.15l-1,.53-1-.49c-8.57-4.09-17.11-8.23-25.57-12.55-4.25-2.13-8.43-4.38-12.65-6.57s-8.38-4.49-12.53-6.82l-0.32-.18Zm0.66,0.17c4.3,1.61,8.59,3.27,12.83,5s8.81,3.57,13.18,5.44c8.76,3.68,17.43,7.55,26.08,11.46l-2.05,0c4-2,7.94-4.08,12-6l12-5.9c4-2,8-3.9,12.07-5.81s8.1-3.76,12.16-5.63v2.22c-4.28-2.34-8.53-4.76-12.86-7s-8.67-4.48-13.06-6.61c-2.21-1-4.41-2.1-6.64-3.1l-6.69-3-6.69-3c-2.23-1-4.46-2-6.66-3l1.76,0c-3.86,2.33-7.78,4.55-11.73,6.72s-7.9,4.33-11.89,6.45-8,4.19-12,6.2c-2,1-4.05,2-6.09,3S462.75,201.94,460.84,202.8Z" fill="#010101"/><path d="M460.29,202.82c4-.58,8.08-1,12.12-1.23s8.08-.5,12.12-0.61c2,0,4-.14,6.06-0.15l6.06,0c2,0,4,0,6.06.06s4,0,6.06.13l-2,2.13c0-2.24-.11-4.48-0.1-6.72s0-4.48,0-6.73c0.08-4.49.26-9,.68-13.49,0.88,4.44,1.54,8.89,2.08,13.34,0.3,2.23.49,4.46,0.75,6.69s0.4,4.46.6,6.69l0.19,2-2.22.09c-2,.08-4,0.07-6.06.09s-4,.06-6.06,0l-6.06-.09c-2,0-4-.13-6.06-0.19q-6.06-.22-12.11-0.7C468.36,203.83,464.32,203.43,460.29,202.82Z" fill="#010101"/><path d="M511.53,225.2c-1.4-7.34-2.77-14.68-4-22l-0.24-1.36,1.47-.07,12.31-.59,12.31-.67a119.08,119.08,0,0,1,12.32.27A100.8,100.8,0,0,1,558,202.23v0.44a100.8,100.8,0,0,1-12.3,1.76,119.08,119.08,0,0,1-12.31.54l-12.32-.4-12.32-.31,1.23-1.43c0.73,7.43,1.37,14.87,2,22.31Z" fill="#010101"/><polygon points="504.02 125.31 501.85 123.59 511.77 111.03 521.17 122.71 519.01 124.45 511.79 115.47 504.02 125.31" fill="#010101"/><path d="M291.6,659.41s-6.05,34.08,33,72.11l2-1.36s-31.61-34.2-31.49-70.63l0.12-36.42" fill="#010101"/><path d="M732.18,659.41s6.05,34.08-33,72.11l-2-1.36s31.61-34.2,31.49-70.63l-0.12-36.42" fill="#010101"/><polyline points="728.68 634.23 729.2 673.3 740.33 672.6 740.33 634.23 733.79 593.64" fill="#010101"/><polyline points="307.41 444.65 291.48 451.19 291.11 469.59 293.7 470.58 294.32 453.29 305.8 446.87" fill="#010101"/><polyline points="729.68 473.91 728.69 452.3 711.65 444.65 712.52 442.8 731.53 450.08 733.14 475.52" fill="#010101"/></svg>