<?xml version="1.0" encoding="utf-8"?>
<svg version="1.1" id="Layer_1" xmlns="http://www.w3.org/2000/svg" xmlns:xlink="http://www.w3.org/1999/xlink" x="0px" y="0px"
	 viewBox="0 0 48 60" style="enable-background:new 0 0 48 60;" xml:space="preserve">
<style type="text/css">
	.st0{opacity:0.3;}
</style>
<g class="st0">
	<path d="M43.9,6.7C41.3,4,37.7,2.5,34,2.6c-3.8,0-7.3,1.5-10,4.2L11.7,19l-8.5,8.5C-1,31.7-1.1,38.4,3,42.4c2,2,4.6,3,7.3,3
		c2.7,0,5.5-1.1,7.6-3.2l15.5-15.5c0,0,0,0,0,0l5.4-5.4c1.4-1.4,2.2-3.2,2.2-5.2c0-2-0.7-3.8-2.1-5.2c-2.8-2.8-7.5-2.8-10.4,0.1
		L9.7,29.9c-0.6,0.6-0.6,1.5,0,2c0.3,0.3,0.6,0.4,1,0.4c0.4,0,0.7-0.1,1-0.4l18.8-18.8c1.8-1.8,4.6-1.8,6.3-0.1
		c0.8,0.8,1.3,1.9,1.2,3.1c0,1.2-0.5,2.3-1.4,3.2l-5.5,5.6c0,0,0,0,0,0L15.8,40.2c-3,3-7.9,3.1-10.8,0.2c-2.9-2.9-2.9-7.8,0.2-10.8
		l1-1c0,0,0,0,0,0L26,8.8c2.1-2.1,5-3.3,8-3.3c3,0,5.8,1.1,7.9,3.2c4.3,4.4,4.3,11.5-0.1,15.9L25.5,40.9c-0.6,0.6-0.6,1.5,0,2
		c0.3,0.3,0.6,0.4,1,0.4c0.4,0,0.7-0.1,1-0.4l16.3-16.3C49.4,21.1,49.4,12.1,43.9,6.7z"/>
</g>
</svg>
