<svg xmlns="http://www.w3.org/2000/svg" viewBox="0 0 1024 1024"><title>logwarts</title><rect x="811.87" y="317.77" width="1.73" height="3.47" fill="none"/><path d="M831.8,341.17l19.93-13,2.6-6.07-13-4.33c-9.53,8.67-17.33,13-22.53,13Q822.7,341.17,831.8,341.17Z" fill="none"/><path d="M642,854.23l5.39-3.37c-1.76.93-3.62,1.9-5.57,2.91Z" fill="none"/><polygon points="917.77 646.9 917.6 646.23 917 646.08 917.77 646.9" fill="none"/><path d="M134.13,276.17c2.6,0,8.67,3.47,18.2,12.13,28.6,11.27,47.67,25.13,55.47,41.6l-1.73,5.2v1.73h1.73c2.6,0,3.47-3.47,4.33-10.4l4.33,3.47,1.73-1.73v-1.73a24.71,24.71,0,0,0-10.4-20.8V303.9h1.73c6.07,3.47,9.53,8.67,9.53,13.87h2.6V316.9c0-4.33-5.2-13-18.2-25.13-15.6-7.8-35.53-22.53-57.2-45.93,0-2.6-4.33-6.93-13-12.13L131.53,225l-13.79,8.43L106.4,212c0,11.27,6.93,29.47,20.8,53.73C131.53,269.23,134.13,272.7,134.13,276.17Z" fill="none"/><path d="M131.42,220.7c0,2.66.11,4.33,0.11,4.33V220.7h-0.11Z" fill="none"/><path d="M851.73,261.43c-25.13,18.2-37.27,30.33-37.27,33.8-11.27,7.8-17.33,16.47-17.33,24.27h4.33v-4.33c0-5.2,3.47-9.53,10.4-13.87V303l-6.07,9.53v9.53h1.73a18.58,18.58,0,0,1,9.53-16.47h1.73v1.73l-5.2,9.53h0.87c2.6-3.47,16.47-13.87,40.73-31.2l24.27-17.33c12.13-12.13,19.07-23.4,21.67-32.07l-13.87,13-14.53-10.48C862.5,252.83,855.33,260.71,851.73,261.43Z" fill="none"/><path d="M171.4,322.1l-6.93,1.73v8.67l20.8,8.67L192.2,342c6.93-1.73,9.53-4.33,9.53-8.67-13.87-2.6-23.4-6.93-27.73-11.27h-2.6Z" fill="none"/><polygon points="762.47 73.37 763.33 73.37 769.4 75.1 767.67 73.37 767.67 72.5 769.4 66.43 765.07 63.83 763.33 63.83 765.07 64.7 765.07 66.43 762.47 73.37" fill="none"/><path d="M853.81,779.82c-3,5.42-5.19,9.79-5.09,11.18l-2.56-8.88a55.34,55.34,0,0,1-5.16,3.26l-0.53-23L830.07,771s-15.05-6.72-18.56-14.44a7.83,7.83,0,0,0-.84-1.38l-8.8-7.18a161.66,161.66,0,0,0-19.47-9.93c-1.24,2.65-2.5,5.18-3.79,7.65l3.4,36.82L744.8,806.44l-11.28-5.68A79.17,79.17,0,0,1,720,809.17c13.56-4.48-10.31,33.79-10.31,33.79l-60.76,31.21c35.53-12.13,60.67-24.27,75.4-37.27,4.33,0,26-19.07,65-56.33h4.33A263.7,263.7,0,0,1,834.4,813.5l4.33-1.73v-2.6C846.68,797.56,851.59,787.68,853.81,779.82Z" fill="none"/><path d="M760.73,353.3c3.47,0,6.07,4.33,6.07,12.13q3.9,0,5.2,20.8l-2.6,13c10.16,19.25,14.72-2.86,14.72-2.86l-11.94-50.56-9.83-16.15L752.07,342C758.13,343.77,760.73,347.23,760.73,353.3Z" fill="#fff"/><path d="M833.53,526.63c7.8,7.8,16.47,24.27,25.13,49.4,6.2,5.36,9.72-7.63,9.72-7.63l-45.64-64.6-9.13-12.64-3.48,11.2C825.73,513.63,833.53,522.3,833.53,526.63Z" fill="#fff"/><path d="M131.42,220.7h0.11V225l1.73,8.67c8.67,5.2,13,9.53,13,12.13,21.67,23.4,41.6,38.13,57.2,45.93,13,12.13,18.2,20.8,18.2,25.13v0.87h-2.6c0-5.2-3.47-10.4-9.53-13.87H207.8v1.73a24.71,24.71,0,0,1,10.4,20.8v1.73l-1.73,1.73-4.33-3.47c-0.87,6.93-1.73,10.4-4.33,10.4h-1.73V335.1l1.73-5.2c-7.8-16.47-26.87-30.33-55.47-41.6-9.53-8.67-15.6-12.13-18.2-12.13,0-3.47-2.6-6.93-6.93-10.4C113.33,241.5,106.4,223.3,106.4,212l0.87-7.8-4.33,3.47v14.73c0,5.2,3.47,13.87,10.4,26.87,6.93,20.8,27.73,39.87,62.4,58.07v0.87a76,76,0,0,1-21.67,17.33v0.87l1.73,1.73c0.87,6.07,13.87,13,39.87,20.8,8.67-2.6,18.2-7.8,27.73-16.47,4.33-8.67,7.8-13.87,10.4-14.73h0.87c-4.33,56.33-10.4,90.13-15.6,102.27-15.6,66.73-47.67,127.4-96.2,183.73a679.62,679.62,0,0,1-65,59.8v0.87c6.93,2.6,26,19.07,58.07,49.4,28.6,31.2,43.33,49.4,45.07,55.47l34.67,59.8,2.6-3.47c-10.4-26.87-18.2-42.47-24.27-45.07,0-6.07-.87-9.53-2.6-9.53-2.6-9.53-6.07-14.73-10.4-14.73-2.6-6.07-5.2-9.53-8.67-9.53q0-7.8-20.8-28.6c-9.53-9.53-19.93-16.47-29.47-22.53-0.87-6.07-4.33-9.53-8.67-9.53-13-12.13-22.53-18.2-28.6-19.93v-4.33c10.4-5.2,30.33-23.4,62.4-55.47,6.07-6.07,25.13-32.07,56.33-78.87l17.33-31.2,13.87-33.8-0.87-4.33,9.53-29.47c10.4-36.4,18.2-84.93,22.53-144.73-6.07-1.73-9.53-12.13-9.53-32.07l0.87-4.33H236.4V245C226,235.43,220.8,228.5,220.8,225c-21.67-27.73-42.47-40.73-60.67-40.73h-6.07l-6.67,1C133.23,191.27,131.48,211.69,131.42,220.7ZM192.2,342l-6.93-.87-20.8-8.67v-8.67l6.93-1.73H174c4.33,4.33,13.87,8.67,27.73,11.27C201.73,337.7,199.13,340.3,192.2,342Z"/><path d="M793.67,780.57h-4.33c-39,37.27-60.67,56.33-65,56.33-14.73,13-39.87,25.13-75.4,37.27-15.6,9.53-30.33,16.47-43.33,22.53-33.8,21.67-52,37.27-53.73,45.07-5.2,2.6-7.8,4.33-7.8,6.93-7.8,21.67-12.13,34.67-12.13,38.13q0,7.8-31.2,7.8c-0.87-8.67-2.6-13-4.33-13,0-13-1.73-19.93-6.07-19.93,0-5.2-.87-8.67-3.47-8.67a131.06,131.06,0,0,0-32.93-36.4h-8.67l10.4,11.27c24.27,18.2,36.4,40.73,36.4,66.73v6.93l1.73,0.87c1.73-1.73,13.87-3.47,34.67-5.2,6.93,0,10.4-6.07,10.4-17.33,10.4-28.6,22.53-46.8,33.8-53.73q11.7-10.4,78-46.8C686.2,869,709.6,857.7,722.6,847.3Q772,805.7,772,800.5l19.07-11.27h0.87c5.2,0,6.93.87,6.93,2.6,13,5.2,23.4,13.87,32.93,26h4.33l2.6-3.47v-2.6l-4.33,1.73A263.7,263.7,0,0,0,793.67,780.57Z"/><path d="M896.8,576.9c-4.33-6.07-8.67-11.27-13-13.87,0-3.47-3.47-8.67-11.27-14.73-3.47-6.07-6.07-9.53-9.53-9.53,0-4.33-.87-6.93-3.47-6.93h-0.87l0.87,8.67,46.8,54.6c10.4,8.67,15.6,14.73,15.6,19.07,12.13,7.8,19.07,13,19.07,16.47l21.67,15.6,1.73-1.73-45.07-40.73C909.8,589.9,902,581.23,896.8,576.9Z"/><path d="M362.07,872.43L310.93,849c-20.8-16.47-33.8-24.27-36.4-24.27,0-6.07-1.73-8.67-6.07-8.67,0-3.47-.87-6.07-2.6-6.07l-20.8-25.13c-9.53,7.8-16.47,11.27-19.93,11.27l-24.27,21.67V823h0.87l35.53-26.87h8.67l1.73,1.73q0,5.2,2.6,5.2l5.2,8.67c31.2,29.47,52.87,45.93,65.87,51.13,72.8,25.13,114.4,42.47,123.07,53.73h0.87V912.3C442.67,905.37,414.93,892.37,362.07,872.43Z"/><path d="M901.13,236.3c-2.6,8.67-9.53,19.93-21.67,32.07L855.2,285.7c-24.27,17.33-38.13,27.73-40.73,31.2H813.6l5.2-9.53v-1.73h-1.73a18.58,18.58,0,0,0-9.53,16.47H805.8v-9.53l6.07-9.53V301.3c-6.93,4.33-10.4,8.67-10.4,13.87v4.33h-4.33c0-7.8,6.07-16.47,17.33-24.27,0-3.47,12.13-15.6,37.27-33.8,3.59-.72,10.76-8.6,21-22.62l-0.61-.44c24.81-34.64.41-54.08,0.41-54.08H850c-23.4,6.07-35.53,11.27-35.53,15.6q-27.3,20.8-39,70.2l0.87,63.27,2.6,4.33v15.6c0,4.33,1.73,10.4,6.07,17.33l-1.73,8.67c0,3.47,1.73,7.8,6.07,13.87,6.93,31.2,14.73,53.73,22.53,67.6l-2.6,13.87c6.93,2.6,16.47,13.87,29.47,34.67l18.2,20.8h1.73v-0.87q-27.3-36.4-28.6-41.6c-5.2-5.2-8.67-10.4-8.67-13.87l-0.87-.87L795.4,393.17c-5.2-26-8.67-38.13-10.4-38.13l-2.6-43.33h6.93l4.33,1.73v1.73l-1.73,1.73v2.6l11.27,13.87c0,7.8,10.4,12.13,31.2,12.13a80.25,80.25,0,0,0,26.87-21.67V322.1c-10.4-8.67-18.2-12.13-20.8-12.13v-4.33c6.07-9.53,15.6-17.33,30.33-24.27,26.87-23.4,39.87-44.2,39.87-65,0-18.2-2.6-26.87-7.8-26.87h-1.73v2.6l2.6,4.33v7.8C908.66,221.11,901.13,236.3,901.13,236.3ZM813.6,321.23h-1.73v-3.47h1.73v3.47Zm27.73-3.47,13,4.33-2.6,6.07-19.93,13q-9.1,0-13-10.4C824,330.77,831.8,326.43,841.33,317.77Z"/><polygon points="608.2 882.83 608.27 882.47 606.47 882.83 608.2 882.83"/><path d="M964.4,652.3l-7.8,9.53q-45.5,33.8-62.4,62.4l-19.93,25.13h-1.73s-11.73,18-18.73,30.45c-2.22,7.86-7.13,17.74-15.07,29.35v2.6q3.9,0,10.4-15.6h2.6c3.47-7.8,6.07-11.27,7.8-11.27,0,0,1.31-20.46,14.73-28.6,20.8-25.13,31.2-39,31.2-40.73l60.67-62.4V652.3H964.4Z"/><path d="M117.75,233.46L131.53,225s-0.13-1.67-.11-4.33c0.06-9,1.81-29.43,16-35.45,0.18-.08.36-0.17,0.54-0.24,19-7.37-7.74-11.11-7.74-11.11l-24.27,15.6L106.4,212Z" fill="#fff"/><path d="M840.47,762.37l0.53,23a55.34,55.34,0,0,0,5.16-3.26l2.56,8.88c-0.11-1.38,2-5.76,5.09-11.18,7-12.46,18.73-30.45,18.73-30.45h1.73l11.67-36.31s-7.83-4.78-11.54-3.94l-1.87,2.12C868.61,717.14,840.47,762.37,840.47,762.37Z" fill="#fff"/><path d="M720,809.17c-3.38,6.23-51.39,26.77-58.06,33.09-1.57,1.49-7.06,4.64-14.55,8.61L642,854.23l-10.25,4.65c-16.29,8.17-35.09,17.19-45.68,22.23l20.39,1.72,1.81-.36,25.58-5.11,2.07-5.89,13,2.69L709.69,843S733.56,804.69,720,809.17Z" fill="#fff"/><path d="M733.52,800.76l11.28,5.68L782,782.57l-3.4-36.82C763.51,774.87,745.55,791.83,733.52,800.76Z" fill="#fff"/><path d="M642,854.23l-0.19-.46c1.95-1,3.82-2,5.57-2.91,7.49-4,13-7.12,14.55-8.61,6.67-6.32,54.68-26.86,58.06-33.09a79.17,79.17,0,0,0,13.52-8.41c12-8.93,30-25.89,45.1-55,1.28-2.47,2.55-5,3.79-7.65A161.66,161.66,0,0,1,801.87,748l8.8,7.18a7.83,7.83,0,0,1,.84,1.38C815,764.31,830.07,771,830.07,771l10.4-8.67s28.14-45.23,32.07-51.13l1.87-2.12,49.27-55.95c-0.87-4.33-1.73-6.93-4.33-6.93H917.6l0.17,0.66-0.77-.81,0.6,0.15V644.5l-25.13-25.13q-10.4-15.6-15.6-15.6c0-6.07-5.2-12.13-13.87-17.33a16,16,0,0,0-4.33-10.4c-8.67-25.13-17.33-41.6-25.13-49.4,0-4.33-7.8-13-23.4-24.27-10.15-20-19.07-33.8-19.07-33.8-11.27-19.07-18.2-42.47-21.67-69.33l2.6-13q-1.3-20.8-5.2-20.8c0-7.8-2.6-12.13-6.07-12.13,0-6.07-2.6-9.53-8.67-11.27v-33.8c0-37.27,6.07-67.6,17.33-89.27,26-39,50.27-58.93,73.67-58.93h16.47v2.6l4.33-1.73c7.8,3.47,11.27,6.93,11.27,10.4h-0.87l-6.93-6.93h-3.47v0.87L879.47,180l0.06,0,19.87,7.78h3.47l0.87-5.2A255.18,255.18,0,0,1,868.2,155.7c-19.93-9.53-51.13-33.8-92.73-71.93h-1.73L776.33,69,749.47,39.57C720,39.57,694,51.7,673.2,76.83c-20.8,26-40.73,42.47-58.07,50.27-14.73,5.2-22.53,8.67-22.53,10.4l-45.07.87H540.6c-5.2,9.53-8.67,13.87-10.4,13.87-7.8,18.2-16.47,28.6-23.4,32.07v-3.47c-11.27-10.4-17.33-18.2-19.93-24.27-5.2-8.67-8.67-13.87-10.4-13.87h-2.6l-2.6,3.47v3.47c22.53,23.4,33.8,37.27,33.8,42.47,9.53-6.07,22.53-21.67,39-47.67l28.6,1.73,22.53-4.33c29.47-13,45.93-23.4,49.4-30.33,7.8,0,11.27-2.6,11.27-8.67q33.8-33.8,33.8-36.4c18.2-12.13,32.07-18.2,39.87-18.2h10.4c7.8,0,13.87,2.6,16.47,8.67h-0.87l-7.8-6.07h-0.87l-1.73,1.73,13,13.87c-11.27,0-26,4.33-44.2,13.87-41.6,39-65.87,58.93-73.67,61.53-7.8,11.27-38.13,20.8-91.87,27.73-19.07,23.4-29.47,35.53-32.07,35.53l-10.28,4.49-5.32-3.38V206L499,205.1c-19.07-16.47-27.73-25.13-27.73-26.87,0-6.93-13.87-10.4-39.87-10.4-6.07-3.47-11.27-5.2-13.87-5.2-17.33,0-52.87-24.27-106.6-71.93-8.67-9.53-21.67-15.6-40.73-18.2H259.8l-6.07.87-6.07,10.4h-1.73V77.7l-0.87-6.93,2.6-2.6h1.73L250.27,69h4.33c8.67-7.8,14.73-14.73,17.33-20.8h6.93c9.53,0,13.87.87,13.87,2.6,19.93,6.93,29.47,11.27,29.47,15.6,12.13,6.93,19.07,11.27,19.07,13.87,25.13,23.4,38.13,37.27,38.13,41.6,13,4.33,19.93,7.8,19.93,9.53,21.67,9.53,39,14.73,53.73,14.73,2.6-2.6,8.67-5.2,16.47-6.07v-1.73l-0.87-.87-28.6.87H436.6c-26.87-6.07-48.53-17.33-65-32.07-34.67-41.6-65.87-62.4-94.47-62.4H263.27c-13,15.6-21.67,24.27-26.87,24.27l4.33,19.93-2.31,4.62-21,20.36c-29.68,26.09-49.69,39.15-59,39.15-6.93,0-21.67,12.13-45.07,35.53v1.73h2.6l26.87-21.67v3.47h3.47c0-6.93,3.47-10.4,12.13-10.4h11.27c6.07,0,15.6,4.33,30.33,11.27,28.6,19.07,46.8,38.13,53.73,57.2,3.47,0,8.67,22.53,13.87,67.6v6.93l2.6,3.47-4.33,36.4,1.73,9.53c-1.73,18.2-3.47,26.87-6.07,26.87a668.89,668.89,0,0,1-24.27,93.6v0.87s-8.84,20-12.33,28.79L210.4,531.83c-4.33,1.73-6.93,4.33-6.93,6.93,0,6.07-10.4,24.27-31.2,53.73-6.93,6.93-11.27,11.27-11.27,13.87-2.6.87-10.4,10.4-22.53,27.73C118.53,651.43,109,661.83,109,666.17c11.27,7.8,18.2,12.13,19.93,15.6,9.53,6.07,13.87,13,13.87,20.8,9.53,0,20.8,10.4,33.8,30.33,19.07,27.73,29.47,41.6,32.93,43.33l39.87-28.6c3.47,0,6.93,5.2,10.4,14.73,7.8,6.07,12.13,12.13,12.13,15.6,13.87,14.73,36.4,33.8,65.87,55.47,18.2,6.93,26.87,12.13,26.87,13.87,11.27,0,41.6,13,91,39.87,22.53,15.6,37.27,30.33,45.07,43.33l25.94,1.67,0.06,0.06h0.87c11.27-14.73,22.53-27.73,33.8-38.13a100.48,100.48,0,0,0,20.43-11l4.25-2c10.59-5,29.39-14.05,45.68-22.23ZM763.33,63.83h1.73l4.33,2.6-1.73,6.07v0.87l1.73,1.73-6.07-1.73h-0.87l2.6-6.93V64.7Z"/><path d="M872.53,184.3s24.4,19.44-.41,54.08l0.61,0.44,14.53,10.48,13.87-13s7.52-15.18,2.6-32.07c-4.76-16.33-23-23.77-24.2-24.24l-0.06,0Z" fill="#fff"/><path d="M351,833.33l18.67,9.33s33.67,9.67,46.67,18,54.33,28,61.33,36,24.67,28,24.67,28L525,928s24-29.33,30-36,82.67-42,82.67-42L663,835.33,663.67,810" fill="#fff"/><path d="M825.67,520.14s16.67,24,16.67,26.21v-7.67s-9-18.54-16.67-23"/><path d="M820,788.21l19.53-24.39,32.3-51.51,30-23.62-31.29-3.8a0.94,0.94,0,0,1-.82-0.84L867,656.51h-3.09a0.93,0.93,0,0,1-.93-0.79l-6.08-39.24H852a0.94,0.94,0,0,1-.94-0.94V593l-1.64-12.32-2.15,7.71a1,1,0,0,1-.94.69,0.94,0.94,0,0,1-.89-0.76L831,515v11.89a0.56,0.56,0,0,1-1.13,0v-8.31l-10,74.73a0.94,0.94,0,0,1-1.8.22l-1.26-3.18-3.16,11.91a0.93,0.93,0,0,1-.9.7h-2.26a0.94,0.94,0,0,1-.9-0.67l-19.59-64-4.9,66.06a0.94,0.94,0,0,1-.9.87,1,1,0,0,1-1-.82l-0.88-6.68-1,8.87v46.2a0.94,0.94,0,0,1-.94.94h-5.64a0.94,0.94,0,0,1-.94-0.94V627.69l-13-46.1L755,629.93a1,1,0,0,1-.94.83H735.66a0.93,0.93,0,0,1-.81-0.47l-4.94-8.55-4,5.27a1,1,0,0,1-.75.37h-5.64a1,1,0,0,1-.94-0.88l-2.24-34.07-6.41-16.18-2.4,3.8a0.94,0.94,0,0,1-1.73-.5V549.13l-7.23-22.33-2.58,10a0.93,0.93,0,0,1-.9.7h0a0.93,0.93,0,0,1-.9-0.71l-5.26-20.68a0.06,0.06,0,0,1,0,0l-16.56-78.66v5.49a0.56,0.56,0,1,1-1.13,0v-2.55l-11.29,76-1.5,22.27a0.94,0.94,0,0,1-1.77.38l-1.06-2-6.56,16v35.13a1,1,0,0,1-.1.42l-8.64,17.2a0.94,0.94,0,0,1-1.67,0L629,588.11l-8.62,23.45v19a0.94,0.94,0,0,1-.94.94H602.57a0.94,0.94,0,0,1-.94-0.94V613.88l-17.42-33.4h-26a0.93,0.93,0,0,1-.94-0.94V568.38L555.1,564l-2.47,7V586a0.91,0.91,0,0,1-.14.5L542,603.25a0.43,0.43,0,0,1-.08.11l-11,12.78a0.93,0.93,0,0,1-.94.3,0.94,0.94,0,0,1-.69-0.71l-2.11-9.48-2.45,10.62a0.93,0.93,0,0,1-.91.73h-4.32a0.94,0.94,0,0,1-.87-0.59l-6.51-16.27v10.11a0.56,0.56,0,1,1-1.13,0V600.69l-11.5,26.5a1,1,0,0,1-.86.56H469.66a0.93,0.93,0,0,1-.83-0.48l-5.38-9.87v8.5a0.56,0.56,0,0,1-.56.56,0.57,0.57,0,0,1-.57-0.56v-8.21l-5,10.11a0.93,0.93,0,0,1-.84.52h-6.39a0.93,0.93,0,0,1-.94-0.94V614.74l-2.79-8.94-3.79,8.61v12a1,1,0,0,1-.29.68,0.92,0.92,0,0,1-.69.25l-8.06-.37a0.94,0.94,0,0,1-.89-0.94V615.27l-5.07-3.48a0.94,0.94,0,0,1-.4-0.81l5.47-134.06L390.14,327v7.09a0.56,0.56,0,1,1-1.13,0v-7.89l-53.7,152.22v42.33a0.94,0.94,0,0,1-.75.92L284.18,532a0.94,0.94,0,0,1-1.13-.92V509.15l-9.74-30.75v6.87a0.56,0.56,0,1,1-1.13,0v-6.88l-9.8,32.26v24.93a1,1,0,0,1-.78.93l-47.12,8.77a0.92,0.92,0,0,1-.7-0.15,0.94,0.94,0,0,1-.39-0.61l-2.67-14.93-5.52,19.27-8.89,39.54a0.94,0.94,0,0,1-.92.74h-1.69a0.94,0.94,0,0,1-.9-0.68l-1.93-6.8-3,6.75v11.17a0.94,0.94,0,0,1-.93.94H183a0.94,0.94,0,0,1-.94-0.94V589.12h-0.76a0.93,0.93,0,0,1-.92-0.76l-1-5.15-1.26,5.19a0.94,0.94,0,0,1-.91.72h-1.88v26.22a0.94,0.94,0,0,1-.94.94h-2.94v11.28a0.94,0.94,0,0,1-.94.94h-3.57v0.37h3.57a0.94,0.94,0,0,1,.7.31,1,1,0,0,1,.24.72l-5.51,56.65a1,1,0,0,1-.94.85h-3.32v7.83a1,1,0,0,1-.34.72c-8.36,7-14.28,25.81-15.33,29.3l54.56,66,54.09-27.41,63.46,72.59H689.53l80.61-73.89Z" fill="#fff"/><path d="M689.79,515.9l5.27,20.68,3.38-13.16L706.71,549v30.56l3.38-5.37,7.14,18,2.26,34.22h5.64L730,620l5.63,9.77h18.42l6.4-53,14.28,50.76v25.19h5.64V606.51L782.28,590l1.88,14.29,5.26-71.06L810.48,602h2.26l3.89-14.66,2.32,5.82,10.9-81.7v-4.94a0.93,0.93,0,0,0-.37.61l-11,82.35-1-2.49a0.94,0.94,0,0,0-1.78.1l-3.7,14h-0.84l-20.85-68.14a0.94,0.94,0,0,0-1-.66,1,1,0,0,0-.84.87l-4.59,61.93-0.68-5.22a0.94,0.94,0,0,0-.93-0.82h0a0.94,0.94,0,0,0-.93.83l-1.88,16.54s0,0.07,0,.1v45.3H775.7V627.57a0.84,0.84,0,0,0,0-.26l-14.29-50.76a0.94,0.94,0,0,0-1.84.15l-6.29,52.18H736.2l-5.36-9.3a0.94,0.94,0,0,0-1.56-.1l-4.6,6h-4.3l-2.2-33.33a0.9,0.9,0,0,0-.07-0.28l-7.14-18a0.94,0.94,0,0,0-1.67-.15l-1.65,2.61V549a0.85,0.85,0,0,0,0-.29l-8.27-25.56a0.94,0.94,0,0,0-.89-0.65h0a0.94,0.94,0,0,0-.88.7l-2.47,9.6-4.36-17.1-18-85.7a1,1,0,0,0-.35-0.55v3.45Z" fill="#fff"/><path d="M469.66,626.81h28.95L511,598.32v-2.1a0.91,0.91,0,0,0-.25.33L498,625.87H470.22L463.72,614a0.92,0.92,0,0,0-.26-0.29v1.77Z" fill="#fff"/><path d="M433.6,476.81L428.11,611l5.48,3.76v11.28l8,0.38V614.21l4.89-11.09,3.57,11.47v12.79h6.39l5.82-11.82v-1.9a1,1,0,0,0-.28.33l-6.13,12.45H451V614.59a1.06,1.06,0,0,0,0-.28l-3.58-11.46a0.94,0.94,0,0,0-1.75-.1l-4.89,11.09a0.92,0.92,0,0,0-.08.37v11.24l-6.17-.29V614.78a1,1,0,0,0-.41-0.78l-5-3.46,5.46-133.69a0.9,0.9,0,0,0,0-.3l-44-155.08a0.93,0.93,0,0,0-.37-0.51v2.64Z" fill="#fff"/><path d="M846.39,588.18l3.38-12.12L852,593v22.55h5.64l6.2,40h3.94L870.63,684l32.21,3.92,1-.82-32.39-3.94-2.75-27.64a0.94,0.94,0,0,0-.93-0.84h-3.14l-6.08-39.24a0.94,0.94,0,0,0-.93-0.8H853V593a0.42,0.42,0,0,0,0-.13l-2.25-16.92a0.94,0.94,0,0,0-1.84-.13l-2.32,8.31-15.22-77.05a0.93,0.93,0,0,0-.36-0.56v3.62Z" fill="#fff"/><path d="M519.48,616.66h4.32L527.19,602l3,13.54,11-12.79L551.68,586v-15l3.26-9.28,3.26,6.52v11.38h26.57l17.8,34.11v16.92h16.92V611.4l9.4-25.57,10.53,19.55,8.65-17.2V552.87l7.39-18.05,2,3.76,1.51-22.3L671.18,434v-4.52a0.92,0.92,0,0,0-.37.6L658,516.14a0.31,0.31,0,0,0,0,.08l-1.28,19-0.46-.86a0.93,0.93,0,0,0-.88-0.5,0.94,0.94,0,0,0-.82.58l-7.4,18a1,1,0,0,0-.07.36V588l-7.74,15.38-9.67-18a0.94,0.94,0,0,0-1.71.12l-9.4,25.57a0.94,0.94,0,0,0-.06.32v18.23h-15v-16a0.93,0.93,0,0,0-.11-0.43L585.6,579.11a1,1,0,0,0-.83-0.5H559.14V568.16a1,1,0,0,0-.1-0.42l-3.26-6.51a1,1,0,0,0-.9-0.52,0.94,0.94,0,0,0-.82.62l-3.26,9.28a0.87,0.87,0,0,0-.05.31v14.77l-10.35,16.5-9.7,11.31-2.6-11.71a0.94,0.94,0,0,0-.91-0.73h0a0.94,0.94,0,0,0-.92.73l-3.22,13.94h-2.94l-7.66-19.15a0.94,0.94,0,0,0-.35-0.43v2.08Z" fill="#fff"/><path d="M966.62,694.68l-1.2-.15,2,1A0.94,0.94,0,0,0,966.62,694.68Z" fill="#fff"/><path d="M284,509v22.06l50.37-10.28V478.3L389,323.43V321a0.94,0.94,0,0,0-.29.4L333.49,478a0.84,0.84,0,0,0-.06.31V520l-48.5,9.89V509a0.93,0.93,0,0,0,0-.28l-11.28-35.59a0.92,0.92,0,0,0-.3-0.43v2.59Z" fill="#fff"/><path d="M160.67,695.24v-8.77h4.26l5.51-56.65h-4.51v-2.25h4.51V615.34h3.89V588.18h2.82l2.26-9.31,1.88,9.31H183v11.37h3.95V588.18l4.14-9.31,2.63,9.31h1.69l8.9-39.57,6.64-23.19,3.38,18.92,47.12-8.77V510.51l10.75-35.35v-2.52a0.92,0.92,0,0,0-.37.49l-11.28,37.1a0.82,0.82,0,0,0,0,.27v24.28l-45.42,8.46-3.22-18a0.94,0.94,0,0,0-.88-0.77,1,1,0,0,0-1,.68l-6.63,23.18,0,0.05-8.73,38.84h-0.23L192,578.62a0.94,0.94,0,0,0-1.76-.13l-4.13,9.31a0.91,0.91,0,0,0-.08.38v10.43h-2.07V588.18a0.94,0.94,0,0,0-.93-0.94h-0.92l-1.73-8.55a0.94,0.94,0,0,0-1.84,0l-2.08,8.59h-2.08a0.94,0.94,0,0,0-.94.94V614.4h-2.95a0.94,0.94,0,0,0-.94.94v11.28h-3.57a0.94,0.94,0,0,0-.94.94v2.25a0.94,0.94,0,0,0,.94.94h3.47l-5.33,54.76h-3.41a0.94,0.94,0,0,0-.94.94v8.34c-8,7-13.53,23.26-15.22,28.71l0.72,0.87C146.67,719.7,152.46,702.16,160.67,695.24Z" fill="#fff"/><path d="M468.84,627.26a0.93,0.93,0,0,0,.83.48h28.95a1,1,0,0,0,.86-0.56l11.5-26.5v-2.37l-12.36,28.49H469.66l-6.21-11.38v2Z" fill="#fff"/><path d="M161.28,696a1,1,0,0,0,.34-0.72v-7.83h3.32a1,1,0,0,0,.94-0.85l5.51-56.65a1,1,0,0,0-.24-0.72,0.94,0.94,0,0,0-.7-0.31h-3.57v-0.37h3.57a0.94,0.94,0,0,0,.94-0.94V616.28h2.94a0.94,0.94,0,0,0,.94-0.94V589.12h1.88a0.94,0.94,0,0,0,.91-0.72l1.26-5.19,1,5.15a0.93,0.93,0,0,0,.92.76H182v10.43a0.94,0.94,0,0,0,.94.94h3.95a0.94,0.94,0,0,0,.93-0.94V588.38l3-6.75,1.93,6.8a0.94,0.94,0,0,0,.9.68h1.69a0.94,0.94,0,0,0,.92-0.74l8.89-39.54,5.52-19.27,2.67,14.93a0.94,0.94,0,0,0,.39.61,0.92,0.92,0,0,0,.7.15l47.12-8.77a1,1,0,0,0,.78-0.93V510.65l9.8-32.26v-3.23l-10.75,35.35v25.07l-47.12,8.77-3.38-18.92-6.64,23.19-8.9,39.57h-1.69l-2.63-9.31-4.14,9.31v11.37H183V588.18h-1.7l-1.88-9.31-2.26,9.31h-2.82v27.16h-3.89v12.22h-4.51v2.25h4.51l-5.51,56.65h-4.26v8.77c-8.22,6.92-14,24.46-15.44,29.15l0.72,0.87C147,721.77,152.92,703,161.28,696Z" fill="#fff"/><path d="M688.87,516.09a0.06,0.06,0,0,0,0,0l5.26,20.68a0.93,0.93,0,0,0,.9.71h0a0.93,0.93,0,0,0,.9-0.7l2.58-10,7.23,22.33v30.41a0.94,0.94,0,0,0,1.73.5l2.4-3.8,6.41,16.18,2.24,34.07a1,1,0,0,0,.94.88h5.64a1,1,0,0,0,.75-0.37l4-5.27,4.94,8.55a0.93,0.93,0,0,0,.81.47h18.42a1,1,0,0,0,.94-0.83l5.83-48.34,13,46.1v25.06a0.94,0.94,0,0,0,.94.94h5.64a0.94,0.94,0,0,0,.94-0.94v-46.2l1-8.87,0.88,6.68a1,1,0,0,0,1,.82,0.94,0.94,0,0,0,.9-0.87l4.9-66.06,19.59,64a0.94,0.94,0,0,0,.9.67h2.26a0.93,0.93,0,0,0,.9-0.7l3.16-11.91,1.26,3.18a0.94,0.94,0,0,0,1.8-.22l10-74.73v-7.1l-10.9,81.7-2.32-5.82L812.74,602h-2.26l-21.06-68.81-5.26,71.06L782.28,590l-1.88,16.54v46.25h-5.64V627.57l-14.28-50.76-6.4,53H735.66L730,620l-4.89,6.39h-5.64l-2.26-34.22-7.14-18-3.38,5.37V549l-8.27-25.57-3.38,13.16-5.27-20.68-17.48-83v4.55Z" fill="#fff"/><path d="M845.47,588.36a0.94,0.94,0,0,0,.89.76,1,1,0,0,0,.94-0.69l2.15-7.71L851.09,593v22.49a0.94,0.94,0,0,0,.94.94h4.83l6.08,39.24a0.93,0.93,0,0,0,.93.79H867L869.7,684a0.94,0.94,0,0,0,.82.84l31.29,3.8,1-.82L870.63,684l-2.82-28.39h-3.94l-6.2-40H852V593l-2.26-16.92-3.38,12.12L831,510.13V515Z" fill="#fff"/><path d="M518.6,617a0.94,0.94,0,0,0,.87.59h4.32a0.93,0.93,0,0,0,.91-0.73l2.45-10.62,2.11,9.48a0.94,0.94,0,0,0,.69.71,0.93,0.93,0,0,0,.94-0.3l11-12.78a0.43,0.43,0,0,0,.08-0.11l10.53-16.79a0.91,0.91,0,0,0,.14-0.5V571.08l2.47-7,2.17,4.33v11.16a0.93,0.93,0,0,0,.94.94h26l17.42,33.4v16.69a0.94,0.94,0,0,0,.94.94h16.92a0.94,0.94,0,0,0,.94-0.94v-19L629,588.11l9.53,17.71a0.94,0.94,0,0,0,1.67,0l8.64-17.2a1,1,0,0,0,.1-0.42V553.06l6.56-16,1.06,2a0.94,0.94,0,0,0,1.77-.38l1.5-22.27,11.29-76V434L659,516.28l-1.51,22.3-2-3.76-7.39,18.05v35.31l-8.65,17.2-10.53-19.55-9.4,25.57v19.17H602.57V613.65l-17.8-34.11H558.2V568.16l-3.26-6.52-3.26,9.28v15l-10.53,16.79-11,12.79-3-13.54-3.39,14.67h-4.32l-7.38-18.45v2.52Z" fill="#fff"/><path d="M432.65,476.92L427.18,611a0.94,0.94,0,0,0,.4.81l5.07,3.48v10.79a0.94,0.94,0,0,0,.89.94l8.06,0.37a0.92,0.92,0,0,0,.69-0.25,1,1,0,0,0,.29-0.68v-12l3.79-8.61,2.79,8.94v12.64a0.93,0.93,0,0,0,.94.94h6.39a0.93,0.93,0,0,0,.84-0.52l5-10.11v-2.12l-5.82,11.82h-6.39V614.59l-3.57-11.47-4.89,11.09v12.22l-8-.38V614.78L428.11,611l5.48-134.21L390.14,323.59V327Z" fill="#fff"/><path d="M283,509.15v21.91a0.94,0.94,0,0,0,1.13.92l50.38-10.28a0.94,0.94,0,0,0,.75-0.92V478.46L389,326.24v-2.82L334.37,478.3v42.49L284,531.07V509l-10.69-33.72v3.12Z" fill="#fff"/><path d="M272.71,472.47h0v0a0.93,0.93,0,0,1,.56.22V442.92a0.56,0.56,0,1,0-1.13,0v29.73a1,1,0,0,1,.53-0.17h0Z" fill="#fff"/><path d="M272.74,485.84a0.57,0.57,0,0,0,.56-0.57V478.4l-0.56-1.78v0l-0.55,1.81v6.88A0.56,0.56,0,0,0,272.74,485.84Z" fill="#fff"/><path d="M272.74,473.5l0.56,1.78V472.7a0.93,0.93,0,0,0-.56-0.22v1Z" fill="#fff"/><path d="M272.71,473.41l0,0.09v-1h0a1,1,0,0,0-.53.17v2.52Z" fill="#fff"/><polygon points="272.73 476.58 272.74 476.62 272.74 473.5 272.71 473.41 272.18 475.16 272.18 478.39 272.73 476.58" fill="#fff"/><polygon points="273.31 478.4 273.31 475.29 272.74 473.5 272.74 476.62 273.31 478.4" fill="#fff"/><path d="M462.89,613.47v0a0.93,0.93,0,0,1,.56.19V583.53a0.56,0.56,0,0,0-.56-0.56,0.57,0.57,0,0,0-.57.56v30.13a0.92,0.92,0,0,1,.55-0.2h0Z" fill="#fff"/><path d="M462.89,626.46a0.56,0.56,0,0,0,.56-0.56v-8.5l-0.52-1,0,0.08v0l-0.57,1.15v8.21A0.57,0.57,0,0,0,462.89,626.46Z" fill="#fff"/><path d="M462.89,614.4l0.56,1v-1.77a0.93,0.93,0,0,0-.56-0.19v0.94Z" fill="#fff"/><path d="M462.89,614.4v-0.94h0a0.92,0.92,0,0,0-.55.2v1.9Z" fill="#fff"/><polygon points="462.89 616.52 462.89 614.4 462.32 615.56 462.32 617.68 462.89 616.52" fill="#fff"/><polygon points="462.94 616.44 463.45 617.39 463.45 615.43 462.89 614.4 462.89 616.52 462.94 616.44" fill="#fff"/><path d="M511.53,568.49V596h0.06a0.93,0.93,0,0,1,.51.16V568.49a0.56,0.56,0,1,0-1.13,0v27.73a0.92,0.92,0,0,1,.56-0.23v-27.5Z" fill="#fff"/><path d="M511.53,611.42a0.57,0.57,0,0,0,.57-0.57V600.74l-0.55-1.38,0,0v0L511,600.69v10.16A0.56,0.56,0,0,0,511.53,611.42Z" fill="#fff"/><path d="M511.53,597v-1a0.92,0.92,0,0,0-.56.23v2.1Z" fill="#fff"/><path d="M511.58,596h0v1l0-.11,0.52,1.3v-2.08a0.93,0.93,0,0,0-.51-0.16h0Z" fill="#fff"/><polygon points="511.53 599.4 511.53 597.03 510.97 598.32 510.97 600.69 511.53 599.4" fill="#fff"/><polygon points="511.55 599.36 512.1 600.74 512.1 598.22 511.58 596.92 511.53 597.03 511.53 599.4 511.55 599.36" fill="#fff"/><path d="M389.58,291.78v29h0.06a0.93,0.93,0,0,1,.5.17V291.78a0.56,0.56,0,0,0-1.13,0V321a0.93,0.93,0,0,1,.56-0.22v-29Z" fill="#fff"/><path d="M389.58,334.7a0.56,0.56,0,0,0,.56-0.56V327l-0.56-2v0l-0.07-.24-0.5,1.41v7.89A0.56,0.56,0,0,0,389.58,334.7Z" fill="#fff"/><path d="M389.61,320.79h0v1l0-.09,0.53,1.86V321a0.93,0.93,0,0,0-.5-0.17h0Z" fill="#fff"/><path d="M389.58,321.82v-1a0.93,0.93,0,0,0-.56.22v2.41Z" fill="#fff"/><polygon points="390.14 327.05 390.14 323.59 389.61 321.73 389.58 321.82 389.58 325.07 390.14 327.05" fill="#fff"/><polygon points="389.51 324.83 389.58 325.07 389.58 321.82 389.01 323.43 389.01 326.24 389.51 324.83" fill="#fff"/><path d="M830.4,506.32v0a0.94,0.94,0,0,1,.57.19v-22a0.56,0.56,0,0,0-1.13,0v22a0.93,0.93,0,0,1,.53-0.2h0Z" fill="#fff"/><path d="M830.4,527.43a0.57,0.57,0,0,0,.57-0.56V515l-0.39-2-0.18,1.34v0l-0.56,4.2v8.31A0.56,0.56,0,0,0,830.4,527.43Z" fill="#fff"/><path d="M830.4,507.25l0.57,2.88v-3.62a0.94,0.94,0,0,0-.57-0.19v0.93Z" fill="#fff"/><path d="M830.4,507.25v-0.93h0a0.93,0.93,0,0,0-.53.2v4.94Z" fill="#fff"/><polygon points="830.58 513.01 830.97 514.98 830.97 510.13 830.4 507.25 830.4 514.35 830.58 513.01" fill="#fff"/><polygon points="830.4 514.35 830.4 507.25 829.84 511.46 829.84 518.56 830.4 514.35" fill="#fff"/><path d="M671.74,429.24v0a0.9,0.9,0,0,1,.57.19V400.56a0.56,0.56,0,0,0-1.13,0v28.88a0.93,0.93,0,0,1,.54-0.2h0Z" fill="#fff"/><path d="M671.74,443.48a0.57,0.57,0,0,0,.57-0.57v-5.49l-0.41-1.93-0.16,1.09v0l-0.56,3.78v2.55A0.56,0.56,0,0,0,671.74,443.48Z" fill="#fff"/><path d="M671.74,430.18l0.57,2.7v-3.45a0.9,0.9,0,0,0-.57-0.19v0.94Z" fill="#fff"/><path d="M671.74,430.18v-0.94h0a0.93,0.93,0,0,0-.54.2V434Z" fill="#fff"/><polygon points="671.9 435.5 672.31 437.43 672.31 432.88 671.74 430.18 671.74 436.59 671.9 435.5" fill="#fff"/><polygon points="671.74 436.59 671.74 430.18 671.18 433.96 671.18 440.37 671.74 436.59" fill="#fff"/><path d="M153.72,703.41s55.51,62.36,55.51,67,37.22-27.57,37.22-27.57,87.51,84,98.61,90.58-12.93.1-12.93,0.1-30.82-22.42-30.82-25-28.54-28.62-33.7-29.57S247.76,754,247.76,754l-17.63,8.53s-19.2,14.24-23.64,14.67c0,0-56-74.73-59.95-75.06"/><path d="M886,698.1c-3.92.33-59.95,75.06-59.95,75.06-4.44-.43-23.64-14.67-23.64-14.67L784.77,750s-14.69,24-19.85,24.91-33.7,26.94-33.7,29.57-30.82,25-30.82,25-24,6.47-12.93-.1,98.61-90.58,98.61-90.58S823.3,771,823.3,766.37s55.51-67,55.51-67L892,681l6.5-1.5-3,6"/><path d="M663,835.33s24.5-4.83,28-8.33,9.39,2.48,9.39,2.48l-33.39,8"/><rect x="811.87" y="317.77" width="1.73" height="3.47" fill="none"/><path d="M831.8,341.17l19.93-13,2.6-6.07-13-4.33c-9.53,8.67-17.33,13-22.53,13Q822.7,341.17,831.8,341.17Z" fill="none"/><path d="M642,854.23l5.39-3.37c-1.76.93-3.62,1.9-5.57,2.91Z" fill="none"/><polygon points="917.77 646.9 917.6 646.23 917 646.08 917.77 646.9" fill="none"/><path d="M134.13,276.17c2.6,0,8.67,3.47,18.2,12.13,28.6,11.27,47.67,25.13,55.47,41.6l-1.73,5.2v1.73h1.73c2.6,0,3.47-3.47,4.33-10.4l4.33,3.47,1.73-1.73v-1.73a24.71,24.71,0,0,0-10.4-20.8V303.9h1.73c6.07,3.47,9.53,8.67,9.53,13.87h2.6V316.9c0-4.33-5.2-13-18.2-25.13-15.6-7.8-35.53-22.53-57.2-45.93,0-2.6-4.33-6.93-13-12.13L131.53,225l-13.79,8.43L106.4,212c0,11.27,6.93,29.47,20.8,53.73C131.53,269.23,134.13,272.7,134.13,276.17Z" fill="none"/><path d="M131.42,220.7c0,2.66.11,4.33,0.11,4.33V220.7h-0.11Z" fill="none"/><path d="M851.73,261.43c-25.13,18.2-37.27,30.33-37.27,33.8-11.27,7.8-17.33,16.47-17.33,24.27h4.33v-4.33c0-5.2,3.47-9.53,10.4-13.87V303l-6.07,9.53v9.53h1.73a18.58,18.58,0,0,1,9.53-16.47h1.73v1.73l-5.2,9.53h0.87c2.6-3.47,16.47-13.87,40.73-31.2l24.27-17.33c12.13-12.13,19.07-23.4,21.67-32.07l-13.87,13-14.53-10.48C862.5,252.83,855.33,260.71,851.73,261.43Z" fill="none"/><path d="M171.4,322.1l-6.93,1.73v8.67l20.8,8.67L192.2,342c6.93-1.73,9.53-4.33,9.53-8.67-13.87-2.6-23.4-6.93-27.73-11.27h-2.6Z" fill="none"/><polygon points="762.47 73.37 763.33 73.37 769.4 75.1 767.67 73.37 767.67 72.5 769.4 66.43 765.07 63.83 763.33 63.83 765.07 64.7 765.07 66.43 762.47 73.37" fill="none"/><path d="M853.81,779.82c-3,5.42-5.19,9.79-5.09,11.18l-2.56-8.88a55.34,55.34,0,0,1-5.16,3.26l-0.53-23L830.07,771s-15.05-6.72-18.56-14.44a7.83,7.83,0,0,0-.84-1.38l-8.8-7.18a161.66,161.66,0,0,0-19.47-9.93c-1.24,2.65-2.5,5.18-3.79,7.65l3.4,36.82L744.8,806.44l-11.28-5.68A79.17,79.17,0,0,1,720,809.17c13.56-4.48-10.31,33.79-10.31,33.79l-60.76,31.21c35.53-12.13,60.67-24.27,75.4-37.27,4.33,0,26-19.07,65-56.33h4.33A263.7,263.7,0,0,1,834.4,813.5l4.33-1.73v-2.6C846.68,797.56,851.59,787.68,853.81,779.82Z" fill="none"/><path d="M760.73,353.3c3.47,0,6.07,4.33,6.07,12.13q3.9,0,5.2,20.8l-2.6,13c10.16,19.25,14.72-2.86,14.72-2.86l-11.94-50.56-9.83-16.15L752.07,342C758.13,343.77,760.73,347.23,760.73,353.3Z" fill="#fff"/><path d="M833.53,526.63c7.8,7.8,16.47,24.27,25.13,49.4,6.2,5.36,9.72-7.63,9.72-7.63l-45.64-64.6-9.13-12.64-3.48,11.2C825.73,513.63,833.53,522.3,833.53,526.63Z" fill="#fff"/><path d="M131.42,220.7h0.11V225l1.73,8.67c8.67,5.2,13,9.53,13,12.13,21.67,23.4,41.6,38.13,57.2,45.93,13,12.13,18.2,20.8,18.2,25.13v0.87h-2.6c0-5.2-3.47-10.4-9.53-13.87H207.8v1.73a24.71,24.71,0,0,1,10.4,20.8v1.73l-1.73,1.73-4.33-3.47c-0.87,6.93-1.73,10.4-4.33,10.4h-1.73V335.1l1.73-5.2c-7.8-16.47-26.87-30.33-55.47-41.6-9.53-8.67-15.6-12.13-18.2-12.13,0-3.47-2.6-6.93-6.93-10.4C113.33,241.5,106.4,223.3,106.4,212l0.87-7.8-4.33,3.47v14.73c0,5.2,3.47,13.87,10.4,26.87,6.93,20.8,27.73,39.87,62.4,58.07v0.87a76,76,0,0,1-21.67,17.33v0.87l1.73,1.73c0.87,6.07,13.87,13,39.87,20.8,8.67-2.6,18.2-7.8,27.73-16.47,4.33-8.67,7.8-13.87,10.4-14.73h0.87c-4.33,56.33-10.4,90.13-15.6,102.27-15.6,66.73-47.67,127.4-96.2,183.73a679.62,679.62,0,0,1-65,59.8v0.87c6.93,2.6,26,19.07,58.07,49.4,28.6,31.2,43.33,49.4,45.07,55.47l34.67,59.8,2.6-3.47c-10.4-26.87-18.2-42.47-24.27-45.07,0-6.07-.87-9.53-2.6-9.53-2.6-9.53-6.07-14.73-10.4-14.73-2.6-6.07-5.2-9.53-8.67-9.53q0-7.8-20.8-28.6c-9.53-9.53-19.93-16.47-29.47-22.53-0.87-6.07-4.33-9.53-8.67-9.53-13-12.13-22.53-18.2-28.6-19.93v-4.33c10.4-5.2,30.33-23.4,62.4-55.47,6.07-6.07,25.13-32.07,56.33-78.87l17.33-31.2,13.87-33.8-0.87-4.33,9.53-29.47c10.4-36.4,18.2-84.93,22.53-144.73-6.07-1.73-9.53-12.13-9.53-32.07l0.87-4.33H236.4V245C226,235.43,220.8,228.5,220.8,225c-21.67-27.73-42.47-40.73-60.67-40.73h-6.07l-6.67,1C133.23,191.27,131.48,211.69,131.42,220.7ZM192.2,342l-6.93-.87-20.8-8.67v-8.67l6.93-1.73H174c4.33,4.33,13.87,8.67,27.73,11.27C201.73,337.7,199.13,340.3,192.2,342Z"/><path d="M793.67,780.57h-4.33c-39,37.27-60.67,56.33-65,56.33-14.73,13-39.87,25.13-75.4,37.27-15.6,9.53-30.33,16.47-43.33,22.53-33.8,21.67-52,37.27-53.73,45.07-5.2,2.6-7.8,4.33-7.8,6.93-7.8,21.67-12.13,34.67-12.13,38.13q0,7.8-31.2,7.8c-0.87-8.67-2.6-13-4.33-13,0-13-1.73-19.93-6.07-19.93,0-5.2-.87-8.67-3.47-8.67a131.06,131.06,0,0,0-32.93-36.4h-8.67l10.4,11.27c24.27,18.2,36.4,40.73,36.4,66.73v6.93l1.73,0.87c1.73-1.73,13.87-3.47,34.67-5.2,6.93,0,10.4-6.07,10.4-17.33,10.4-28.6,22.53-46.8,33.8-53.73q11.7-10.4,78-46.8C686.2,869,709.6,857.7,722.6,847.3Q772,805.7,772,800.5l19.07-11.27h0.87c5.2,0,6.93.87,6.93,2.6,13,5.2,23.4,13.87,32.93,26h4.33l2.6-3.47v-2.6l-4.33,1.73A263.7,263.7,0,0,0,793.67,780.57Z"/><path d="M896.8,576.9c-4.33-6.07-8.67-11.27-13-13.87,0-3.47-3.47-8.67-11.27-14.73-3.47-6.07-6.07-9.53-9.53-9.53,0-4.33-.87-6.93-3.47-6.93h-0.87l0.87,8.67,46.8,54.6c10.4,8.67,15.6,14.73,15.6,19.07,12.13,7.8,19.07,13,19.07,16.47l21.67,15.6,1.73-1.73-45.07-40.73C909.8,589.9,902,581.23,896.8,576.9Z"/><path d="M362.07,872.43L310.93,849c-20.8-16.47-33.8-24.27-36.4-24.27,0-6.07-1.73-8.67-6.07-8.67,0-3.47-.87-6.07-2.6-6.07l-20.8-25.13c-9.53,7.8-16.47,11.27-19.93,11.27l-24.27,21.67V823h0.87l35.53-26.87h8.67l1.73,1.73q0,5.2,2.6,5.2l5.2,8.67c31.2,29.47,52.87,45.93,65.87,51.13,72.8,25.13,114.4,42.47,123.07,53.73h0.87V912.3C442.67,905.37,414.93,892.37,362.07,872.43Z"/><path d="M901.13,236.3c-2.6,8.67-9.53,19.93-21.67,32.07L855.2,285.7c-24.27,17.33-38.13,27.73-40.73,31.2H813.6l5.2-9.53v-1.73h-1.73a18.58,18.58,0,0,0-9.53,16.47H805.8v-9.53l6.07-9.53V301.3c-6.93,4.33-10.4,8.67-10.4,13.87v4.33h-4.33c0-7.8,6.07-16.47,17.33-24.27,0-3.47,12.13-15.6,37.27-33.8,3.59-.72,10.76-8.6,21-22.62l-0.61-.44c24.81-34.64.41-54.08,0.41-54.08H850c-23.4,6.07-35.53,11.27-35.53,15.6q-27.3,20.8-39,70.2l0.87,63.27,2.6,4.33v15.6c0,4.33,1.73,10.4,6.07,17.33l-1.73,8.67c0,3.47,1.73,7.8,6.07,13.87,6.93,31.2,14.73,53.73,22.53,67.6l-2.6,13.87c6.93,2.6,16.47,13.87,29.47,34.67l18.2,20.8h1.73v-0.87q-27.3-36.4-28.6-41.6c-5.2-5.2-8.67-10.4-8.67-13.87l-0.87-.87L795.4,393.17c-5.2-26-8.67-38.13-10.4-38.13l-2.6-43.33h6.93l4.33,1.73v1.73l-1.73,1.73v2.6l11.27,13.87c0,7.8,10.4,12.13,31.2,12.13a80.25,80.25,0,0,0,26.87-21.67V322.1c-10.4-8.67-18.2-12.13-20.8-12.13v-4.33c6.07-9.53,15.6-17.33,30.33-24.27,26.87-23.4,39.87-44.2,39.87-65,0-18.2-2.6-26.87-7.8-26.87h-1.73v2.6l2.6,4.33v7.8C908.66,221.11,901.13,236.3,901.13,236.3ZM813.6,321.23h-1.73v-3.47h1.73v3.47Zm27.73-3.47,13,4.33-2.6,6.07-19.93,13q-9.1,0-13-10.4C824,330.77,831.8,326.43,841.33,317.77Z"/><polygon points="608.2 882.83 608.27 882.47 606.47 882.83 608.2 882.83"/><path d="M964.4,652.3l-7.8,9.53q-45.5,33.8-62.4,62.4l-19.93,25.13h-1.73s-11.73,18-18.73,30.45c-2.22,7.86-7.13,17.74-15.07,29.35v2.6q3.9,0,10.4-15.6h2.6c3.47-7.8,6.07-11.27,7.8-11.27,0,0,1.31-20.46,14.73-28.6,20.8-25.13,31.2-39,31.2-40.73l60.67-62.4V652.3H964.4Z"/><path d="M117.75,233.46L131.53,225s-0.13-1.67-.11-4.33c0.06-9,1.81-29.43,16-35.45,0.18-.08.36-0.17,0.54-0.24,19-7.37-7.74-11.11-7.74-11.11l-24.27,15.6L106.4,212Z" fill="#fff"/><path d="M840.47,762.37l0.53,23a55.34,55.34,0,0,0,5.16-3.26l2.56,8.88c-0.11-1.38,2-5.76,5.09-11.18,7-12.46,18.73-30.45,18.73-30.45h1.73l11.67-36.31s-7.83-4.78-11.54-3.94l-1.87,2.12C868.61,717.14,840.47,762.37,840.47,762.37Z" fill="#fff"/><path d="M720,809.17c-3.38,6.23-51.39,26.77-58.06,33.09-1.57,1.49-7.06,4.64-14.55,8.61L642,854.23l-10.25,4.65c-16.29,8.17-35.09,17.19-45.68,22.23l20.39,1.72,1.81-.36,25.58-5.11,2.07-5.89,13,2.69L709.69,843S733.56,804.69,720,809.17Z" fill="#fff"/><path d="M733.52,800.76l11.28,5.68L782,782.57l-3.4-36.82C763.51,774.87,745.55,791.83,733.52,800.76Z" fill="#fff"/><path d="M872.53,184.3s24.4,19.44-.41,54.08l0.61,0.44,14.53,10.48,13.87-13s7.52-15.18,2.6-32.07c-4.76-16.33-23-23.77-24.2-24.24l-0.06,0Z" fill="#fff"/><path d="M218.54,518.09s6.39-16.41,4.93-3.17-54.58,87.78-54.58,87.78l-3.89-4,38.47-59.9,7.25-9.19"/><path d="M825.67,515.67s10.21,3.33,15.08,20.58S839,535.5,839,535.5Z"/><ellipse cx="615.59" cy="446.84" rx="21.75" ry="47.25" fill="none" stroke="#fff" stroke-miterlimit="10" stroke-width="5.24"/><line x1="615.59" y1="494.09" x2="615.59" y2="590.09" fill="none" stroke="#fff" stroke-miterlimit="10" stroke-width="5.24"/><ellipse cx="516.59" cy="481.34" rx="21.75" ry="47.25" fill="none" stroke="#fff" stroke-miterlimit="10" stroke-width="5.24"/><line x1="516.59" y1="528.59" x2="516.59" y2="624.59" fill="none" stroke="#fff" stroke-miterlimit="10" stroke-width="5.24"/><ellipse cx="560.09" cy="394.35" rx="21.75" ry="47.25" fill="none" stroke="#fff" stroke-miterlimit="10" stroke-width="5.24"/><line x1="560.09" y1="441.59" x2="560.09" y2="566.09" fill="none" stroke="#fff" stroke-miterlimit="10" stroke-width="5.24"/><path d="M725.35,209.35l0.79-.07C724.46,209.41,725.39,209.35,725.35,209.35Z" fill="#fff"/><polygon points="708.8 211.13 709.09 211.06 706.66 211.44 708.8 211.13" fill="#fff"/><path d="M693.32,212.83c1.5,0.14,5.6-.67,8.37-0.87h0.46l1.22-.33C700,212,695.69,212.65,693.32,212.83Z" fill="#fff"/><path d="M685,212.92c0.53,0.1-1.77.3,1.94-.14h-0.35Z" fill="#fff"/><path d="M686.53,212.78c1.63-.16-1.09,0,0,0h0Z" fill="#fff"/><path d="M679,213.59l2.13-.35c-0.46-.05-2.39.1-1.68,0C677.25,213.5,677.72,213.57,679,213.59Z" fill="#fff"/><path d="M677,214.16l1.1-.22A2.73,2.73,0,0,0,677,214.16Z" fill="#fff"/><path d="M680.45,213.56l-1.17.18c-0.59.09-1.17,0.2-1.17,0.2a1.29,1.29,0,0,0,1.08-.17C679,213.92,679.46,213.75,680.45,213.56Z" fill="#fff"/><path d="M681.8,213.49c1.22,0,2.79-.14.65,0.22C686.55,213.22,685.91,213,681.8,213.49Z" fill="#fff"/><path d="M692.58,213.25l1.62-.1,1.38-.27C694.89,213,692.46,213.16,692.58,213.25Z" fill="#fff"/><path d="M665.6,215.07a3,3,0,0,0,.95.32l1.56-.34A11,11,0,0,1,665.6,215.07Z" fill="#fff"/><path d="M666.55,215.39l-2.34.52C666.33,215.64,666.7,215.5,666.55,215.39Z" fill="#fff"/><path d="M676.7,214.72l1.92-.45,1.93-.37s-1.15.19-2.3,0.43l-2.29.51Z" fill="#fff"/><polygon points="656.54 216.23 657.84 215.77 655.51 216.52 656.54 216.23" fill="#fff"/><path d="M650.54,217.08c1-.39-1.44-0.26-0.41-0.56a28.8,28.8,0,0,0-4.2,1A22.48,22.48,0,0,1,650.54,217.08Z" fill="#fff"/><path d="M643.87,218.15c0.65-.16,1.32-0.37,2.05-0.59A15.88,15.88,0,0,0,643.87,218.15Z" fill="#fff"/><path d="M660.17,216.41a5,5,0,0,0-1.92-.09l1,0.22Z" fill="#fff"/><path d="M659.27,216.54h0l-2,.26Z" fill="#fff"/><path d="M660.4,216.38l-0.23,0A0.26,0.26,0,0,0,660.4,216.38Z" fill="#fff"/><path d="M670.47,215.35c-1.37.36-4.23,1-1.39,0.82C670,215.82,668.41,215.91,670.47,215.35Z" fill="#fff"/><path d="M661.63,216.64l2.52-.29c-0.06-.08-0.54-0.14.14-0.33Z" fill="#fff"/><polygon points="660.41 216.92 661.63 216.64 660.69 216.74 660.41 216.92" fill="#fff"/><path d="M648.24,217.93a28.4,28.4,0,0,1-3.58.72c1.45-.12,2.95-0.3,4.36-0.5C649.2,218,649.78,217.7,648.24,217.93Z" fill="#fff"/><path d="M653.61,217.29l-0.24.05C653.52,217.35,653.65,217.35,653.61,217.29Z" fill="#fff"/><path d="M631.46,220.61l0.23,0a0.72,0.72,0,0,1,0-.09Z" fill="#fff"/><path d="M649.27,218.19a8.46,8.46,0,0,0,2.32-.47c-0.8.15-1.65,0.3-2.57,0.43C648.94,218.22,648.93,218.26,649.27,218.19Z" fill="#fff"/><path d="M640.21,218.84c0.58,0,1.23,0,1.91,0A6.16,6.16,0,0,0,640.21,218.84Z" fill="#fff"/><path d="M653,217.29l0.16,0C652.78,217.22,652.83,217.25,653,217.29Z" fill="#fff"/><path d="M653,217.29a14.4,14.4,0,0,0-1.4.43c0.65-.12,1.26-0.25,1.78-0.38A2.44,2.44,0,0,1,653,217.29Z" fill="#fff"/><path d="M628,224.28c0.11-.47,2.85-1.4,5.36-1.44,2.33-.78.53-1.79-1.7-2.19,0,0.2,0,.36-2.43,1.06,0.91,0.08,5.57-.48,3.56.28-3.22.83-2.7,0.36-4.33,0.43,1.44,0.27-4,1.57-3.14,2.24l2.8-.84C628.22,223.93,627.22,224.33,628,224.28Z" fill="#fff"/><path d="M636.42,219.94l1-.2a23.19,23.19,0,0,1-3.63,0c-1.66.49-2,.71-2.07,0.87l2.51-.41,2.52-.33Z" fill="#fff"/><path d="M642,219.08c-0.73.53-3.15,1.07-1.56,1.3,3-.48,2-0.66,3.8-1.11-4.82.81,1.35-.43-2.19-0.16,0.94-.21,1.79-0.35,2.6-0.48-0.88.07-1.73,0.13-2.54,0.16h0.13c0.22,0,.29,0,0.05,0l-0.1,0a0.52,0.52,0,0,1-.19.19c-1.42.11-.24-0.08,0.19-0.19a0.25,0.25,0,0,0,0-.07h0l-4.81.92C638.47,219.65,639.75,219.45,642,219.08Z" fill="#fff"/><path d="M666.6,217.25c-0.15,0-.15,0-0.17,0C666.13,217.29,666,217.34,666.6,217.25Z" fill="#fff"/><path d="M664.59,217.37a6.84,6.84,0,0,1,1.76-.42c1-.06,0,0.15.09,0.25,0.67-.2,2.37-0.6.19-0.42l-0.34.1a18.45,18.45,0,0,1-4.2.06A8,8,0,0,0,664.59,217.37Z" fill="#fff"/><path d="M653.2,218.44l-4,.8h2.11l-0.14-.18C653.48,218.79,652.94,218.63,653.2,218.44Z" fill="#fff"/><polygon points="630.96 220.46 631.41 219.89 629.21 220.98 630.96 220.46" fill="#fff"/><polygon points="625.75 221.44 625.87 220.97 624.53 221.47 625.75 221.44" fill="#fff"/><path d="M347,323.31l-0.91.77A7.11,7.11,0,0,0,347,323.31Z" fill="#fff"/><path d="M354.48,319.16v-0.43C354.23,319.1,354.17,319.31,354.48,319.16Z" fill="#fff"/><path d="M498.77,250.56c-1.88-.15-4.07-0.62-3.62.11l0.75,0.61A8.84,8.84,0,0,1,498.77,250.56Z" fill="#fff"/><path d="M416.37,284.86l0.57,0.05,0.78-1.21Z" fill="#fff"/><path d="M416.6,288.63l-2.33.34A12.86,12.86,0,0,0,416.6,288.63Z" fill="#fff"/><path d="M312.77,353.14l-0.25,1.56C313.88,353.08,313,353.53,312.77,353.14Z" fill="#fff"/><path d="M572.46,231.92a27.89,27.89,0,0,0-3.77.41C570.55,232.32,572.11,232.55,572.46,231.92Z" fill="#fff"/><path d="M345.45,313.83c-0.56.51-.75,0.82-0.64,1C345.4,314.29,345.69,313.93,345.45,313.83Z" fill="#fff"/><path d="M564.43,233.26c0.28,0,.54,0,0.82,0a25.57,25.57,0,0,1,3.44-.91A8.67,8.67,0,0,0,564.43,233.26Z" fill="#fff"/><path d="M250,508.17l-0.1.38A0.46,0.46,0,0,0,250,508.17Z" fill="#fff"/><path d="M242.89,557.6l0-2.05Z" fill="#fff"/><path d="M604.69,224.93c1.1-.23.16-0.09,0,0h0Z" fill="#fff"/><path d="M610.5,226.06a0.56,0.56,0,0,0-.39.34A0.74,0.74,0,0,1,610.5,226.06Z" fill="#fff"/><path d="M554.52,239.84l-0.09,0C554.78,239.91,554.72,239.9,554.52,239.84Z" fill="#fff"/><path d="M606.41,224.88c-0.43,0-.92,0-1.45.09C605.2,225,605.64,224.95,606.41,224.88Z" fill="#fff"/><path d="M606.13,224.67l1-.12C607.24,224.43,607.1,224.4,606.13,224.67Z" fill="#fff"/><path d="M603.16,225.23c0.63-.12,1.23-0.2,1.81-0.26-0.23,0-.32,0-0.27,0Z" fill="#fff"/><path d="M271.79,419.51c0,0.06-.09.14-0.14,0.2C271.5,420.85,271.64,420.38,271.79,419.51Z" fill="#fff"/><path d="M473.52,267.46l0.11-.08-0.17,0Z" fill="#fff"/><path d="M469.93,269.34a4.83,4.83,0,0,1,3.54-1.93l-2-1.84Z" fill="#fff"/><path d="M330.68,334.75l0.4-.19,0.9-.38,1.31-.55a17.15,17.15,0,0,1-1.34,1.88c-0.4.52-.73,0.94-0.94,1.22-0.41.58-.27,0.66,1,0.25-0.71-1.14,1.34-2.8,3.36-4.48s4.12-3.15,3.53-4.35l0.27-.09,0.6-.15,0.86-.22c-0.42.24-.4,0.41-0.81,0.64a2.71,2.71,0,0,0,2.42-2,4.87,4.87,0,0,1,2.86-3c1.5-.63,2.67-0.85,1.88,0l2.78-2.35c0.93-.47.94,0.05,0,0.53l2.32-1.45,2.36-1.4v0.09a27.24,27.24,0,0,1,2.37-2.8c1.41-.33-0.48.58,0,0.71l2.37-2c1.42,0-.48,1.81-2.37,2.72,3.78,1,1.87-1.84,8-3.27l-1.2.8c-0.61.39-1.19,0.82-1.19,0.82,2.33,0.48,4.09-1,7.4-1.61-0.9-.1-6.89.79-4.25-1.29a7.42,7.42,0,0,0,3.4-2c0.45,0.85,1.89-.15,3.81-1.18l0.44,1.2c1.93-1.39,1.48-1.88,2.46-3,2.41-1,3.35-.36,4.27.12,3.88-1.6-3.31-.19,1.08-2.52,3.37-1.05,5.36-2.57,8.82-5.05,2.4-.65-0.06.89,0.89,0.85l1.53-1.85c0.49-.2.47,0.15,0.45,0.33,1.51-1.1-.39-1.22,2.1-2.7,0.14-1.6,6.25-.49,8.87-3.39,0.95,0-.07.89,0.37,1.23,4.05-2.93,3.53-2.38,6.65-5.3,0,0,.86-0.16,1.74-0.28l1.75-.26c-2.7.06-.16-2.19,2.1-4.11-1-.09-1.87-0.18-2.42-0.16l3.93-2.32c0.59,0,.33.56-0.15,1.33,0.25-.21.48-0.42,0.65-0.59,1.67-.17,1.18.83,0.38,1.92-0.6,0-1.21-.07-1.8-0.12-0.74,1.13-1.37,2.32-.87,2.92a5,5,0,0,1,1.23-.87c-0.19.3-.29,0.55-0.12,0.61a2.5,2.5,0,0,0,1.08-.95l1.49,0.93,0-.62,5.77-1.39c1.68-1.45,3.17-3,5-4.59a35.05,35.05,0,0,1,3.05-2.37,32.29,32.29,0,0,1,4-2.21c-1.19,1.54.27,1.7,0.62,2.87-1.09-.29-2.25.29-3.56,1.06a19.85,19.85,0,0,1-4.37,2.35c1.72-.55,1.57.14,1.22,0.51l2.64-1.71c0.66-.44,1.33-0.83,1.83-1.14l0.84-.51c0.23,1,1.5.24,3.15,0.07-1.84-1.42,3.84-2.83,6-4.27,0.38,0.56,0,1.41-2.88,2.33,3.68,0.21,3.29-3.69,6.84-3.67-0.7.28-1.11,0.32-1.27,0.74,1.44-1.16,5.6-2.21,4.85-1.32l-0.69.27c2.37-.74,5.89-2.12,8.89-3.39s5.43-2.57,5.52-3.46a7.45,7.45,0,0,1-.15,2.48l3.31-4,3.34-4c-0.3,1.57,3.59,3.75-.06,5.82a12.73,12.73,0,0,0,4.84-1.71c-0.82.07-2.54-1.26-1.53-1.73,3.35,0.49,2.25.11,6.19,0.15-1.24.11-.63-2.38,1.2-2.92-0.18.4,0.8,2,.21,2.41l3.86-3.53c-1,.75.34,1.75,1.53,2-0.6-.25,3.94-1.17,5.09-1.74l-2.07.13c5.22-1.28,4.21-4.34,9.36-5.77-0.5.59-.77,3,1.9,2.41,0.88-1.37,3.83-6.41,8.16-8.5l1,0.3,3.3-1.67a89.24,89.24,0,0,1-9.84,9.31c2.05-.14.73,0.51,3.59-0.43,1.17,0.22-1.33,1.29-2.16,1.59l6.78-1.74c-0.63-1.06,4.78-2.74,4.25-3.61l-6.93,3.43c-0.64-1.07,3.25-4.56,8.08-5.79,1.35,0.11-.34,2.28-0.12,2.65a12.72,12.72,0,0,1,4.85-1.86l-1.86,1.16c2.78-.32,3.94-2.68,7.44-2.49,1.13-.23,3.69.51,3.7-0.19-2.14-.76-3.57-4.58-2.61-5.84a65.56,65.56,0,0,1,7.6-.06c2.08,0.48-2.13,3.05-.35,3.47a3.09,3.09,0,0,1,1.29-1.19c1.23-.06-0.24,1,2.25.22,0.14-1.21,5.16-1.31,1-1.25,2.39-1,2.69-.49,5.58-1.33-1.1-.45,2-3.06,4.43-4-0.08.31,0.57,0.51,0.88,0.6,5.14-1.14,8-1.28,12.78-2.4,0.5,0.14,2.87-.11,2,0.56a8.83,8.83,0,0,1,2.66-1.2c3,0.18-3.25.91-.83,1.43,0-.63,3.61-1.71,5.63-2.56-0.85-.72-4.89,1-6.9,1.83-0.31-1.24,3.05-3.39,7.94-5.06,3.92-1.19,1.9.38,2.55,0.06,7.52-1.5,5.93-3.45,12.33-4,2.64,0.24.42,1.4,1.08,1.81-3.18,1-5.07.67-7.26,1.19l2.78-.27a14.29,14.29,0,0,1-4.32,1.22c1.1,0.1,4.26-.61,7.88-1.42s7.75-1.5,10.7-1.8c1-.43,2.71-1,1.81-1.12l-1.81.45c-1.8-.22,3.3-1.42.92-1.23A33.26,33.26,0,0,1,613,225l0.8,0.61a7.06,7.06,0,0,0-3.29.4c1.39-.59,5.51,0,6.91-1.28l-2.53,0c2.4-.83,5.33-2.12,8.46-2.46-1.53-.43-0.7.21-3-0.21,2.09,0.67-7.91,1.35-4.64,1.89-2.44-.56-4,0.3-7.09,0,0.14,0.23,1.14.29-1.48,0.63a3.22,3.22,0,0,1-.52.32h0c-0.1.06-.11,0.07,0.06,0a4.41,4.41,0,0,1,1.4.14c-1.17.8-5.29,1.55-6.61,2.11-1.56.16,0.58-.41-0.31-0.53l-2,.85c-0.33-.54-4.29-0.23-0.74-1.22l-3.27.56a19.26,19.26,0,0,0-6.22,1c-1.56.19-3.71,1.51-2.49,0.74l-5,1.48-0.08-.15c-5,1-10.06,3.33-16.07,3.38A33.36,33.36,0,0,1,559,234.8l-0.7-.47a31.39,31.39,0,0,1-4.22.76c-1.49.27-2.81,0.55-3.19,1-2.74-1.06-10.54,2.26-14.4,2.92l0.08,0.86a67.33,67.33,0,0,0-8.19,2.64l0.4,0.69a18.18,18.18,0,0,1-5.17,1.31,41.44,41.44,0,0,0-6.49,1.27,3.45,3.45,0,0,1,2.18-.67c-5.72-.22-10.63,4.47-15.73,4.58a5.94,5.94,0,0,1-2.86.83,1.14,1.14,0,0,0,.28-0.13l-0.49.13c-0.56,0-1.14,0-1.76.06a8.12,8.12,0,0,0,1.5,0,31.84,31.84,0,0,0-3.54,1.38l-0.84-.68-0.31.12c-1.42.07-.94,0.71,0,1.14a10,10,0,0,0-1.63,1c-1.5-1.06-3.39,1.51-5.32.47-0.7.92-6.56,2.71-6.78,4.46-0.11-.18-0.53-0.15.18-0.4a10.86,10.86,0,0,0-4.28,1.51l-1-.89L474,261.28c-2.2,0-3.15-.14-1.47-1.64-4.29,2.87-3.68,1.76-7.25,4.4l-0.05-.78c-1.43.5-3.39,2.23-4.47,1.93-3.72-.35-15.82,5.55-24.49,7.24,2.41,1.57-4.17.43-3.86,2.22-0.67-.32-1.91-0.15-0.77-1.12-3.93,2.16-6.53,1.69-8.82,4.24-0.68-.32.58-1.1,0-1.23a2.7,2.7,0,0,1-1.69.84c-0.54-.13.43-0.67,1-1.15-4.19,1.78-4,3.52-3.68,5.11-2.42.16-3.44,0.69-4.58,2.28-0.94-.18-2.39-0.18.15-1.41-0.75.27-3.08,1-5.16,1.83s-3.9,1.85-3.73,2.47a5,5,0,0,0-2.39,1.11c-3.29,1.36-3.62,1.38-6.78,2.9l1-.2c-0.64,2-2.52,1.48-5,2.78v-0.18c-6.35,1.66-2.31,1.65-8.62,3.21l0.72,0.72c0.34,2.12-5.62,1.32-8.63,3.62l1.44-.08c-0.76.75-2.34,0.72-4,.6a13.4,13.4,0,0,0-4.27.07c-0.48,0,.5-0.58,1-1-5.3,1.35-.06,1.43-3.47,3.5-1-.27.07-2-2.38-0.85-0.72.06-2.2,1.43-4,2.85s-3.81,3-5.72,3.28c1,0.06,1.9.14,0.46,1.36-2.39,1.51-7.67,2-9.08,4.69a0.66,0.66,0,0,1-.64-0.09c-0.83.73-2.27,1.76-3.58,2.79a11.49,11.49,0,0,0-2.8,2.83c-0.86-.41-1.92-0.14-3.17.63a22.93,22.93,0,0,0-3.57,3c-1.17,1.09-2.2,2.22-3.08,2.89s-1.6.92-2.05,0.35l-0.81.68L324,329.54l-2.5,2.27-0.07-.34c-3.3,2.81-4,4.35-4.52,5.92-0.84.56-.51-0.14-0.56-0.31-1.21,1-2.16,1.8-2.9,2.51a19.84,19.84,0,0,0-1.8,2,17.91,17.91,0,0,0-1.39,2.08c-0.44.81-.91,1.77-1.51,3l-1-.19c-0.57,1.36-7,6.08-9.7,11.75a1,1,0,0,1,.07-0.79c-1.62,3.11-4.46,6.17-6.68,9s-3.83,5.47-3.15,7.36c0,0-.44,1.07-0.82,2.16l-0.79,2.16c3.11-5,.73,1.43,2.37-0.4-1,2.06-3.74,4.69-2.49,2.16l0.35-.31c-0.93-1.72-4,6.11-4.84,5.47-2.62,5.15-5.23,10.22-7.68,15.28s-4.66,10.12-6.58,15.18l1.47-.77-0.69,1.75-0.67,1.76c-0.58.84-1.25,1-.29-1.56-1.06,1.12-1.06,4.42-.85,4.57-2.12,4.83-.51-2.37-1.06-0.86l-0.63,2.11,0.28-.43a12.94,12.94,0,0,1-.86,5.17c-0.83,1.87-.93.79-1.22,1.54-0.07,0-.18.22-0.41,1.17l-0.75,2.25-0.74,2.26,1.32-1.57c-0.24,2.13-1.36,4.24.15,2.43-1.14,1.32-2.52,5.52-3.65,9.62s-2,8.11-2.46,9A54,54,0,0,1,255,463.2c0.33-.84,1.2-1.17.42,1.81-1.28-1.46-1.9,5.37-3.42,7.6,1.11-2-1.5,8.68.11,5.43-0.59,2.51-.55,0-1.23,1.91-0.61,6.14-2.63,13.29-3.48,20.85,0.13,0.14.54-1.08,0.53,0.56l-0.64,1.93-0.61,1.93c-0.12,1.5.62,1.48-.19,4.13,0.16-.37.4-0.92,0.32,0.09-1.25,7.33-1.84,14.9-2.42,22.49s-1.09,15.21-1.48,22.74c0.14-2,.11-0.68.07,0.88,0-1,.1,0,0.17-0.17l-0.17,3.15-0.11,3.15c0.06,1.15,0,6.76,0,7.42v-2c0,1.33,0,.4.11-0.81a14.06,14.06,0,0,1,.24-2.51c0-1.49.15-3.44,0.36-5.63s0.46-4.61.48-7c0.15-1.07,0,.92.13,0.35a43.8,43.8,0,0,1,.37-5.48v0.31c0.69-7.73,1.19-11,2.48-19.65l-0.36.61a30.25,30.25,0,0,1,.6-3.1c-0.16-2.18-.7,5.21-0.91,3.22,0.85-2.41,1.71-13.1,2.78-14.65,0.45-2.84-.54.78-0.09-2.06l0.34-.72-0.18-.76c0.34-1.86.79-2.75,1-2.79-0.1.45-.16,1.29-0.23,1.78,0.68-2.37,1.08-6.81,1.33-7.62l-0.64,2.7c1.08-7.78,3.34-17.1,4.37-24.62l-0.35.52c0.81-5.75,1.25-4.48,2.51-10.7v0.24A23.06,23.06,0,0,1,258,464c-0.1,1.62,1.33-2.78,1.14-.67,1.09-6.18.37-3.1,0.46-7.35l0.69-.81a11.87,11.87,0,0,1,.51-4.74c-0.32,2.61,1.25-1.76,1,1.19a30,30,0,0,0,2.26-7.47c0.37-2,.72-3.53,2-4.74-0.42-3.32-2.48,5.26-2.24,3.55-0.85,1.25-.24-2.71.51-4.67s2.81-2.91,4.54-7.95c-0.18.5-.09,0.57-0.27,1.06,1-1.76.8-3.86,2.24-5.95-0.38-1.59,1.14-3,.19-3.73l-1.43,4.69c0.67-2.7.27-5.63,2.54-9.68a11.34,11.34,0,0,1-.26,2.74c0.81-1.12.69-2.49,1.56-3.65,1,0.79-1.94,5.63-2.11,8.72,0.94-1.18,1.2-5.53,1.85-3.7-0.37-1.28.14-2.49,0.79-3.84a11.68,11.68,0,0,0,1.52-4.75l0.59,0.49a12,12,0,0,1,.69-2.74l0.13,2.1c0.4-3,2.87-4.87,3.64-7.56-2.39,5.31-1.38.83-2.88,2.87,2-7,3.46-3,6.63-10.39-0.4,1-2.19,3.48-1.78,1.79a17.4,17.4,0,0,1,2.77-3.65c2.25-4.82-1.09.38-.5-1.86,1.66-1.2.87-2.49,1.67-4.72l0.72,0.36c3.36-5.09-.72-2.22,2.48-6.72l-0.13,2.57,0.56-1.32c0.28-.66.58-1.31,0.58-1.31l0.52,1a16.48,16.48,0,0,1,3.41-6.2c-0.88.3-1.09-1.12,0.31-3.43,1.41-1.29.11,1.28,2.09-2a3.18,3.18,0,0,1-1.52,3.13c0.14,0.29,0,1,.14,1.28,1.5-1.38,2.79-4.07,3.53-5.22a6.46,6.46,0,0,1-1,1.13l1-2.62,1.08-2.59c0.76-.53.58,0.18,0.4,0.88,0.56-1,.67-1.83,1.56-3.2,0.32,0.74,1,1.08-.08,3.15l1.18-2.35,1.24-2.32c0.46-.1,2.27-1.64,2.08-0.94a17.7,17.7,0,0,0,2.78-4.27,17.79,17.79,0,0,1,3.42-4.67,3.3,3.3,0,0,1,.65-1.29c2.51-2.59,5.31-4.28,7.6-8l2.64-.73c2.18-2.5-3.53,1,.16-3.12,2.62-3,1.85-.15,3.11-0.8a20.37,20.37,0,0,1,2.15-3.36,11.38,11.38,0,0,1,1.73-1.75,9.6,9.6,0,0,1,2.33-1.31A27.29,27.29,0,0,1,330.68,334.75Zm34.89-21.95c-0.63.55-1.79,1.82-2.58,1.59C363.3,313,364.18,313.15,365.56,312.8Zm57.26-28.57a3.6,3.6,0,0,1-2.49.79A7.44,7.44,0,0,1,422.83,284.24Zm169.83-56.62-0.08,0C590.73,227.8,591.39,227.76,592.66,227.62Zm3.8-.4c0.36-.16.31-0.24,0.14-0.3a5.49,5.49,0,0,1-2,.5A3,3,0,0,0,596.46,227.21Zm-333.1,202,0.4-.65C263.43,430.25,263.4,429.75,263.36,429.25Z" fill="#fff"/><path d="M416.59,288.18a0.87,0.87,0,0,1-.52-0.35C415.83,288.1,415.9,288.28,416.59,288.18Z" fill="#fff"/><path d="M312.83,352.86l-0.09.09a0.35,0.35,0,0,0,0,.2Z" fill="#fff"/><path d="M540.7,246.81a4.61,4.61,0,0,1-1.56,0C539.16,247,539.54,247.07,540.7,246.81Z" fill="#fff"/><path d="M616.11,222.65l-2.37.57a9.31,9.31,0,0,1,2.2-.2C615.86,222.9,615.36,222.79,616.11,222.65Z" fill="#fff"/><path d="M637.51,222.15c0.34-.12.74-0.13,1.08-0.24l-0.14-.21C637,221.95,636,222.3,637.51,222.15Z" fill="#fff"/><path d="M618.69,224.11c0.28,0.43,1.75,0,3.41-.41l-0.3.06C622.18,223,620.43,223.56,618.69,224.11Z" fill="#fff"/><path d="M622.49,223.61c0.51-.12,1-0.23,1.55-0.3C624.18,223,623.4,223.37,622.49,223.61Z" fill="#fff"/><path d="M601.14,226c0.82,0,.36-0.75.86-0.62C602.75,224.56,596.85,227.13,601.14,226Z" fill="#fff"/><polygon points="620.35 225.38 619.63 224.93 618.79 225.57 620.35 225.38" fill="#fff"/><path d="M607.06,227.53l2.71-.35a0.89,0.89,0,0,1,.67-0.35C608.79,227.13,607,227.36,607.06,227.53Z" fill="#fff"/><path d="M610.44,226.83a12.17,12.17,0,0,0,2.13-.52C612.11,226.41,611.11,226.63,610.44,226.83Z" fill="#fff"/><polygon points="616.73 226.28 615.92 226.31 614.02 226.64 616.73 226.28" fill="#fff"/><path d="M578.4,233.48l-2.85.87c-0.24.32,0.59,0.28,1.64-.06C577.85,234,578.9,233.61,578.4,233.48Z" fill="#fff"/><path d="M587.58,233.35a3,3,0,0,1-1.39-.22l0.1,0.88Z" fill="#fff"/><path d="M579.21,235.56c-0.23.31-4,1.71-.38,0.77C579.06,236,581.9,235.13,579.21,235.56Z" fill="#fff"/><polygon points="535.54 245.25 536.27 245.04 535.72 243.41 535.54 245.25" fill="#fff"/><path d="M499,260.43c3.48-.61.46-1.35,3.65-1.75,0.66-.66-2.61.33-1.91-0.28C498.82,259.46,497.68,259.54,499,260.43Z" fill="#fff"/><path d="M500.71,258.4c0.3-.17.62-0.36,1-0.59A5.22,5.22,0,0,0,500.71,258.4Z" fill="#fff"/><polygon points="242.75 565.9 242.76 568.17 242.77 566.71 242.75 565.9" fill="#fff"/><path d="M242.84,570.25v0.53l0,1.36Z" fill="#fff"/><path d="M372.3,312.3v-0.35a2.94,2.94,0,0,0-1.9.5Z" fill="#fff"/><polygon points="345.21 325.78 345.67 325.54 344.26 325.05 345.21 325.78" fill="#fff"/><path d="M326.55,341.5c0.78-.63,1.47-1.62,2.26-2.24C327.32,340.84,325.41,340.67,326.55,341.5Z" fill="#fff"/><path d="M646.58,199.54s18.13-4.58,58.27,6.8c0,0,14.56-13.59,23-10.74l-0.08-1.11a7.36,7.36,0,0,1,5.2,5.3l1.55-1.22s-6.93-10.43-34.27-15.78A58.32,58.32,0,0,0,646.58,199.54Z" fill="#fff" stroke="#020202" stroke-miterlimit="10" stroke-width="3"/><path d="M633.86,213.83s26.91,22.44,51.12,24.43c0,0,13.78-13.35,26.28-16.71l-0.68-6.18s-41.54-1.44-48.09,1S633.86,213.83,633.86,213.83Z" fill="#fff" stroke="#020202" stroke-miterlimit="10" stroke-width="3"/><circle cx="728" cy="215" r="18.73" transform="translate(-24.21 316.89) rotate(-24.17)" fill="#fff" stroke="#020202" stroke-miterlimit="10" stroke-width="3"/><path d="M518.38,255.92l1.53-2.08,2.41-.93a0.8,0.8,0,0,0,.52-0.68,0.84,0.84,0,0,0-.33-0.79l-2.09-1.52-0.93-2.41a0.83,0.83,0,0,0-.67-0.54,0.82,0.82,0,0,0-.78.34l-1.53,2.08-2.41.93a0.84,0.84,0,0,0-.2,1.46l2.09,1.54,0.92,2.4a0.84,0.84,0,0,0,.68.52,0.8,0.8,0,0,0,.79-0.33h0Zm0,0" fill="#fff"/><path d="M567.09,238.64l2.4-1,2.53,0.41a0.84,0.84,0,0,0,.8-0.3A0.78,0.78,0,0,0,573,237l-1-2.25,0.5-2.42a0.75,0.75,0,0,0-.28-0.76,0.84,0.84,0,0,0-.84-0.1l-2.39,1-2.53-.41a0.88,0.88,0,0,0-.8.29,0.77,0.77,0,0,0-.14.81l0.94,2.27-0.5,2.41a0.76,0.76,0,0,0,.3.75,0.82,0.82,0,0,0,.84.11h0Zm0,0" fill="#fff"/><polygon points="258.6 195.33 311 195.33 759.1 195.33 759.1 695.83 258.6 695.83 258.6 195.33" fill="none" stroke="#fff" stroke-miterlimit="10" stroke-width="2.03"/><line x1="258.6" y1="612.42" x2="759.1" y2="612.42" fill="none" stroke="#fff" stroke-miterlimit="10" stroke-width="2.03"/><line x1="200.6" y1="529" x2="829.5" y2="529" fill="none" stroke="#fff" stroke-miterlimit="10" stroke-width="2"/><line x1="240" y1="445.58" x2="790.5" y2="445.58" fill="none" stroke="#fff" stroke-miterlimit="10" stroke-width="2"/><line x1="258.6" y1="362.17" x2="773.5" y2="362.17" fill="none" stroke="#fff" stroke-miterlimit="10" stroke-width="2"/><line x1="258.6" y1="278.75" x2="759.1" y2="278.75" fill="none" stroke="#fff" stroke-miterlimit="10" stroke-width="2.03"/><line x1="675.69" y1="110.5" x2="675.69" y2="695.83" fill="none" stroke="#fff" stroke-miterlimit="10" stroke-width="2"/><line x1="592.27" y1="145.33" x2="592.27" y2="695.83" fill="none" stroke="#fff" stroke-miterlimit="10" stroke-width="2"/><line x1="508.85" y1="195.33" x2="508.85" y2="695.83" fill="none" stroke="#fff" stroke-miterlimit="10" stroke-width="2.03"/><line x1="342.02" y1="112" x2="342.02" y2="695.83" fill="none" stroke="#fff" stroke-miterlimit="10" stroke-width="2"/><line x1="148" y1="613" x2="892" y2="613" fill="none" stroke="#fff" stroke-miterlimit="10" stroke-width="2"/><line x1="217.67" y1="195.25" x2="791.67" y2="195.25" fill="none" stroke="#fff" stroke-miterlimit="10" stroke-width="2"/><line x1="136" y1="697.58" x2="215" y2="697.58" fill="none" stroke="#fff" stroke-miterlimit="10" stroke-width="2"/><line x1="175.27" y1="574" x2="175.27" y2="629" fill="none" stroke="#fff" stroke-miterlimit="10" stroke-width="2"/><line x1="842.69" y1="519" x2="842.69" y2="599" fill="none" stroke="#fff" stroke-miterlimit="10" stroke-width="2"/><line x1="223.26" y1="111.75" x2="351" y2="111.75" fill="none" stroke="#fff" stroke-miterlimit="10" stroke-width="2"/><line x1="676.33" y1="111.75" x2="802" y2="111.75" fill="none" stroke="#fff" stroke-miterlimit="10" stroke-width="2"/><line x1="258.6" y1="70.33" x2="258.6" y2="252" fill="none" stroke="#fff" stroke-miterlimit="10" stroke-width="2"/><line x1="174.85" y1="149.33" x2="174.85" y2="165.67" fill="none" stroke="#fff" stroke-miterlimit="10" stroke-width="2"/><line x1="842.44" y1="142" x2="842.44" y2="164" fill="none" stroke="#fff" stroke-miterlimit="10" stroke-width="2"/><line x1="759.02" y1="66.61" x2="759.02" y2="212.11" fill="none" stroke="#fff" stroke-miterlimit="10" stroke-width="2"/><path d="M751,461.65c1,0.21.68,0,.83,0.06C750.07,461.38,751,461.69,751,461.65Z" fill="#fff"/><polygon points="733.74 459.04 734.06 458.98 731.49 458.84 733.74 459.04" fill="#fff"/><path d="M717.65,456.46c1.44,0.87,5.85.81,8.69,1.48l0.46,0.2,1.35-.21C724.65,457.4,720.08,457,717.65,456.46Z" fill="#fff"/><path d="M709.3,453.51c0.49,0.39-1.88-.08,2,0.45l-0.35-.14C710.58,453.76,710.1,453.67,709.3,453.51Z" fill="#fff"/><path d="M710.93,453.82c1.69,0.29-1.07-.44,0,0h0Z" fill="#fff"/><path d="M703.11,452.6l2.26,0.12c-0.44-.26-2.41-0.67-1.65-0.67C701.43,451.74,701.87,452,703.11,452.6Z" fill="#fff"/><path d="M700.92,452.77l1.17,0.11A1.62,1.62,0,0,0,700.92,452.77Z" fill="#fff"/><path d="M704.56,453.08l-1.24-.09c-0.62,0-1.24-.11-1.24-0.11,0.3,0.2.29,0.48,1.13,0.13C703,453.22,703.5,453.07,704.56,453.08Z" fill="#fff"/><path d="M705.93,453.44c1.22,0.39,2.82.76,0.55,0.65C710.76,454.69,710.2,454.08,705.93,453.44Z" fill="#fff"/><path d="M716.73,457l1.65,0.43h1.48C719.12,457.44,716.65,456.79,716.73,457Z" fill="#fff"/><path d="M689.41,449.24c-0.17.18,0.66,0.7,0.78,1l1.67,0.11C691,450,689.47,449.56,689.41,449.24Z" fill="#fff"/><path d="M690.19,450.22l-2.5-.14C689.87,450.56,690.3,450.47,690.19,450.22Z" fill="#fff"/><path d="M700.38,453.63l2.06,0.07,2.07,0-0.77,0c-0.46,0-1.08,0-1.69-.08l-2.45-.14Z" fill="#fff"/><polygon points="680.09 447.26 681.56 447.04 678.97 447.3 680.09 447.26" fill="#fff"/><path d="M673.89,446.07c1.1-.23-1.27-1-0.14-1.1a18.87,18.87,0,0,0-4.54-.1A14.22,14.22,0,0,1,673.89,446.07Z" fill="#fff"/><path d="M666.95,445c0.71,0,1.45,0,2.26-.08A10.75,10.75,0,0,0,666.95,445Z" fill="#fff"/><path d="M683.54,449.15a3.58,3.58,0,0,0-1.82-1l0.86,0.8Z" fill="#fff"/><path d="M682.61,449l0,0-2.07-.45Z" fill="#fff"/><path d="M683.78,449.2l-0.24-.05A0.17,0.17,0,0,0,683.78,449.2Z" fill="#fff"/><path d="M694,451.92c-1.49,0-4.55-.2-1.71.81C693.41,452.55,691.79,452,694,451.92Z" fill="#fff"/><path d="M684.86,450.18l2.58,0.63c0-.16-0.46-0.48.28-0.5Z" fill="#fff"/><polygon points="683.55 450.13 684.86 450.18 683.9 449.94 683.55 450.13" fill="#fff"/><path d="M671.28,446.48a18.09,18.09,0,0,1-3.8-.36c1.46,0.42,3,.79,4.45,1.07C672.17,447,672.88,446.77,671.28,446.48Z" fill="#fff"/><path d="M676.78,447.75h-0.26C676.66,447.82,676.78,447.86,676.78,447.75Z" fill="#fff"/><path d="M653.84,443.37l0.19,0.18,0.07-.12Z" fill="#fff"/><path d="M672.16,447.35a5.39,5.39,0,0,0,2.46.23c-0.85-.1-1.74-0.23-2.69-0.41C671.82,447.26,671.8,447.32,672.16,447.35Z" fill="#fff"/><path d="M663.08,444.53c0.55,0.26,1.19.51,1.87,0.76A4.09,4.09,0,0,0,663.08,444.53Z" fill="#fff"/><path d="M676.17,447.48h0.17C676,447.28,676,447.36,676.17,447.48Z" fill="#fff"/><path d="M676.17,447.48a9.71,9.71,0,0,0-1.55.1c0.69,0.08,1.33.14,1.89,0.15A1.87,1.87,0,0,1,676.17,447.48Z" fill="#fff"/><path d="M648.8,447.32c0.33-.67,3.39-0.7,5.79.54,2.59,0,1.36-2.54-.56-4.3-0.13.28-.18,0.56-2.82,0.4,0.82,0.58,5.52,2.11,3.24,2.26-3.46-.36-2.74-0.83-4.32-1.55,1.24,1.16-4.57.37-4.08,1.83l3.08,0.14C649.15,446.86,648,447,648.8,447.32Z" fill="#fff"/><path d="M658.9,444.66l1.07,0.12a13.63,13.63,0,0,1-3.48-1.65c-1.81-.07-2.22.1-2.38,0.3l2.58,0.63c1.29,0.31,2.59.56,2.59,0.56Z" fill="#fff"/><path d="M664.72,445.69c-0.95.54-3.55,0.38-2.13,1.43,3.12,0.51,2.29-.19,4.2-0.15-5-.77,1.51-0.11-2-1.2,1,0.07,1.9.21,2.74,0.34-0.89-.26-1.74-0.53-2.53-0.82l0.11,0.07h0c0.2,0.13.26,0.2,0,.1H665a0.68,0.68,0,0,1-.27.22c-1.42-.42-0.2-0.23.27-0.22a0.41,0.41,0,0,0,.08-0.09h0l-5.08-.58A41,41,0,0,0,664.72,445.69Z" fill="#fff"/><path d="M689.43,453.47c-0.15-.08-0.14-0.12-0.14-0.16C689,453.33,688.82,453.35,689.43,453.47Z" fill="#fff"/><path d="M687.41,452.77a4.3,4.3,0,0,1,1.9.07c1,0.35,0,.27,0,0.47,0.74,0,2.58,0,.37-0.64H689.3c-2-.55-4.48-1.77-4.11-1.79A6.75,6.75,0,0,0,687.41,452.77Z" fill="#fff"/><path d="M675.86,449.49l-4.25-.43,2,1,0-.36C676,450.2,675.52,449.69,675.86,449.49Z" fill="#fff"/><polygon points="653.44 442.89 654.14 442.23 651.53 442.8 653.44 442.89" fill="#fff"/><polygon points="648.03 441.77 648.37 441.11 646.86 441.21 648.03 441.77" fill="#fff"/><path d="M352.25,345.52l-1.11-.61C351.66,345.21,352,345.39,352.25,345.52Z" fill="#fff"/><path d="M360.05,350.23h0.26C359.91,350.07,359.74,350,360.05,350.23Z" fill="#fff"/><path d="M516.74,408.34c-1.51-1.26-3.09-3-3.16-2l0.26,1A8.21,8.21,0,0,1,516.74,408.34Z" fill="#fff"/><path d="M427.57,381.57L428,382l1.38-.09Z" fill="#fff"/><path d="M425.37,383.43l-2.05-1.33A20.27,20.27,0,0,0,425.37,383.43Z" fill="#fff"/><path d="M314.55,312.73l-1.26-.89C314.81,313.59,314.29,312.7,314.55,312.73Z" fill="#fff"/><path d="M592.89,429.28a20.34,20.34,0,0,0-3.66-1.5C590.93,428.77,592.22,429.93,592.89,429.28Z" fill="#fff"/><path d="M356.86,344.79a2.1,2.1,0,0,0-1-.39C356.55,344.75,357,344.93,356.86,344.79Z" fill="#fff"/><path d="M584.82,426.7c0.25,0.16.5,0.27,0.75,0.42a19.17,19.17,0,0,1,3.65.66A6.53,6.53,0,0,0,584.82,426.7Z" fill="#fff"/><path d="M251.32,145.09c0-.13,0-0.29,0-0.42S251.28,144.83,251.32,145.09Z" fill="#fff"/><path d="M251.08,92.44l0.21,2.14C251.28,94.2,251.21,93.55,251.08,92.44Z" fill="#fff"/><path d="M626.42,436.56c1.15,0.2.2-.05,0,0h0Z" fill="#fff"/><path d="M631.3,441.09a0.62,0.62,0,0,0-.54.31A0.8,0.8,0,0,1,631.3,441.09Z" fill="#fff"/><path d="M572,429.78l-0.1,0C572.2,430,572.15,430,572,429.78Z" fill="#fff"/><path d="M628.06,437.33a12.57,12.57,0,0,0-1.41-.57A12.63,12.63,0,0,0,628.06,437.33Z" fill="#fff"/><path d="M627.91,436.88l1,0.3C629.07,437.07,629,437,627.91,436.88Z" fill="#fff"/><path d="M624.82,436.25a15.17,15.17,0,0,1,1.83.5c-0.21-.11-0.3-0.18-0.23-0.19Z" fill="#fff"/><path d="M274.71,239c0-.08,0-0.17,0-0.26C274,237.69,274.19,238.17,274.71,239Z" fill="#fff"/><path d="M484.81,407.55H485l-0.15-.09v0.08Z" fill="#fff"/><path d="M480.61,406.73a5.26,5.26,0,0,1,4.19.74l-0.52-2.78Z" fill="#fff"/><path d="M334.53,332.54l2.11,2.15c-3-2.06-4.93-3.86-3-1.77,0.48-.21,2.64,1.75,5,3.51s4.65,3.55,5.07,3.33l1.48,1.33c-0.45-.35-0.55-0.36-1-0.7a12.28,12.28,0,0,0,1.68,1.35,8.53,8.53,0,0,0,1.27.57,16.12,16.12,0,0,1,3.84,2c1.41,1,2.37,1.7,1.32,1.18l3.39,1.78c0.94,0.58.63,0.58-.31,0l5,2.93h-0.05c0.79,0.29,2.54,1,3.39,1.38,1.22,0.84-.69-0.28-0.42,0l2.91,1.39c1,0.87-1.42-.25-3.33-1.38,2.16,2.31,2.44,1.1,7.81,4.84l-2.7-1.41a15.83,15.83,0,0,0,2.68,2.06c1.08,0.68,2.34,1.4,3.76,2.41-0.62-.58-5.61-4.13-2.42-2.67a21.29,21.29,0,0,0,3.71,1.9c-0.16.34,1.5,1.14,3.54,2.23l-0.38.39a16.67,16.67,0,0,0,3.6,1.23c2.42,1.38,2.72,2.05,3.14,2.68,3.91,2.14-2.41-2,2.31.28a63.57,63.57,0,0,0,9.71,4.55c2.21,1.39-.58.16,0.17,0.75l2.27,0.57c0.49,0.27.26,0.34,0.14,0.37,1.81,0.69.42-.53,3.23,0.64,0.54-.18,1.83.73,3.45,1.82a16.28,16.28,0,0,0,5.48,2.7c0.74,0.6-.6.25-0.47,0.65a53.89,53.89,0,0,0,8.39,2.44l3,2.06c-1.07-.86-0.76-1.12.19-1.08a33.19,33.19,0,0,1,4.06.55c-0.74-.67-1.36-1.23-1.81-1.56l4.57,1.31c0.47,0.36-.1.48-1,0.55l0.89,0.12c1.43,1,.4,1.14-0.92,1.15L428,382c-1.3.07-2.54,0.2-2.53,0.79a7.59,7.59,0,0,1,1.52.39c-0.34,0-.57.07-0.48,0.21a3.49,3.49,0,0,0,1.45.25l0.58,1.39,0.4-.28,5.42,3.12c2.24,0.39,4.41.56,6.85,0.91,1.22,0.18,2.51.39,3.91,0.71s2.91,0.72,4.61,1.21c-2,.21-0.88,1.22-1.36,2.17-1.4-1.69-5.2-1.68-8.47-3.34,1.71,0.86,1.14,1.14.63,1.1l3.17,0.85,2.18,0.57,1,0.25c-0.45.74,1,1.11,2.5,2.07-0.57-2.07,4.93.71,7.59,1.16-0.06.62-.87,1-3.82-0.36,2.84,2.56,5-.27,7.89,2.06a2.17,2.17,0,0,0-1.5-.34c1.91,0.16,6,2.19,4.78,2.31l-0.74-.27a100.1,100.1,0,0,0,9.39,3.53c3.3,1,6.17,1.45,6.81.81a7.23,7.23,0,0,1-1.72,1.84l5.33-1.07,5.33-1.15c-1.25,1.09.62,5.39-3.74,4.71a13.64,13.64,0,0,0,5.13,1.75c-0.74-.48-1.32-2.69-0.18-2.43,2.49,2.58,1.81,1.54,5.08,4.17-1.1-.72,1-2.44,2.84-1.72-0.41.23-.57,2.24-1.34,2.22l5.45-.52c-1.31,0-.82,1.78,0,2.78-0.36-.57,4.1,1.41,5.45,1.58l-1.86-1.16c5.29,2.06,6.34-1.48,11.66.28-0.8.28-2.51,2.41,0.13,3.56,1.61-.77,7.28-4,12.29-3.49l0.7,1,3.86,0.3A66.93,66.93,0,0,1,520,419.22c1.86,1.18.32,1,3.37,1.88,0.88,1-1.95.44-2.85,0.19l6.93,2.67c0.11-1.51,5.82.3,5.9-1l-8.1-1c0.11-1.49,5.62-2.6,10.54-.82,1.11,1-1.69,2.25-1.73,2.76a8.74,8.74,0,0,1,2.85.22,6.7,6.7,0,0,1,2.55.73l-2.36.17c2.66,1.33,5.13-.64,8.12,1.67,1.14,0.41,3,2.84,3.4,2-1.44-2.19-.37-7.42,1.24-8.33,0.37,0.22,5.65,3.24,6.76,4.43,1.56,1.83-3.73,2.34-2.4,3.91,0.18-.38,1.37-0.58,1.86-0.62,1.13,0.68-.84,1.1,1.87,1.65,0.84-1.37,5.38,1.6,1.6-.92,2.71,0.28,2.68,1.06,5.76,1.82-0.72-1.23,3.6-2.53,6.3-2.25-0.25.34,0.21,1,.43,1.29,2.63,0.83,4.67,1.44,6.63,2.12s3.9,1.3,6.4,1.89c0.37,0.46,2.69,1.46,1.51,1.85a7.17,7.17,0,0,1,3.12-.11c2.69,2-3.5-.61-1.58,1.44,0.4-.8,4.29-0.24,6.61-0.26-0.37-1.46-5-1.44-7.36-1.42,0.43-1.82,4.72-2.81,10.12-2.37,4.24,0.56,1.53,1.58,2.31,1.51,7.72,2.18,7.32-1.45,13.49,1.4,2.32,1.72-.36,2.21,0,3.14-3.48-.39-5-1.94-7.34-2.45l2.7,1.2A10.39,10.39,0,0,1,604,437c1,0.76,4.25,1.58,8,2.51s8.08,1.72,11,2.79c1.15-.14,3.09-0.13,2.3-0.73l-1.95-.24c-1.58-1.22,3.86-.44,1.51-1.34,2.7-.07,5.76-0.37,9.27.87l0.44,1.31c0-.35-2.22-1.19-3.31-1,1.61-.19,5.23,2.72,7.18,1.56l-2.37-1.33c2.69,0,6.1-.54,9.22.53-1.24-1.43-.76,0-2.77-1.84,1.64,2.06-8.14-1.9-5.33.54-2-2.06-3.9-1.54-6.66-3.56,0,0.41.92,1-1.71,0.2a2.81,2.81,0,0,1-.66.22l-0.17-.07,0.14,0.08c-0.13,0-.14,0,0.05,0a3.52,3.52,0,0,1,1.24.9c-1.52.61-5.78-.33-7.32-0.16-1.55-.53.76-0.32,0-0.93l-2.31.25c0-.94-3.9-2.41,0-2.12l-3.36-.78a17.52,17.52,0,0,0-6.28-1.89c-1.53-.6-4.21,0-2.68-0.36l-5.38-.74v-0.25c-5.14-1.42-11-1.05-16.54-4.24a25.29,25.29,0,0,1-6.53-1.3l-0.36-1c-2.33-.2-6.47-2.6-7.65-2-1.8-2.95-10.64-3.45-14.44-4.9L556.14,419a56.24,56.24,0,0,0-8.81-1.62l-0.07,1A15.26,15.26,0,0,1,541.9,417l-3.12-1.25a28.89,28.89,0,0,0-3.32-1.17c0.41-.27,1.53.17,2.28,0.63-4.77-3.75-11.87-1.86-16.32-4.85a5.47,5.47,0,0,1-3-.89,1.08,1.08,0,0,0,.32,0l-0.5-.16c-0.49-.32-1-0.66-1.55-1a7.7,7.7,0,0,0,1.28.91,30.67,30.67,0,0,0-3.89-.76l-0.29-1.14-0.33-.07c-1.26-.76-1.25.13-0.75,1.07a10.22,10.22,0,0,0-2,0c-0.62-1.88-3.85-.58-4.85-2.66-1.19.49-7.18-1.71-8.46-.33,0-.23-0.35-0.47.4-0.23a11.11,11.11,0,0,0-4.52-1.42L493,402.37l-3.91.42c-1.82-1.39-2.53-2.07-.18-2.27-5.39-.29-4.17-0.81-8.82-0.9l0.46-.65c-1.51-.47-4.24-0.32-4.94-1.21-2.84-2.53-16.32-6.25-24.42-10.43,0.92,2.45-3.64-2.24-4.52-1-0.32-.62-1.4-1.31.11-1.15-4.47-1.26-6.22-3.12-9.65-3.16-0.33-.59,1.16-0.23.82-0.63a3.68,3.68,0,0,1-1.87-.58c-0.34-.4.77-0.09,1.52,0-4.45-1.58-5.38-.58-6.16.38a7.35,7.35,0,0,0-5.06-1.7c-0.63-.65-1.78-1.5,1-0.56-1.55-.59-9.12-4.33-9.61-3.62a8.39,8.39,0,0,0-2.54-1c-3.39-1.5-3.66-1.69-7-3.06l0.88,0.51c-1.69.24-2.87-1-5.6-2.1l0.11,0c-5.85-3.37-2.75-1-8.5-4.38l0.12,0.58c-1,.63-5.08-3-8.73-4.33l1.15,0.81a11,11,0,0,1-3.36-2.22,24.7,24.7,0,0,0-3.22-2.48c-0.38-.27.71,0.22,1.31,0.45-4.74-2.87-.88.14-4.62-1.59-0.56-.57,1.19-0.17-1.27-1.43-0.56-.41-2.49-1.07-4.61-2a38.75,38.75,0,0,1-6-3.17c0.65,0.55,1.28,1.11-.46.31-1.3-.69-3-1.75-4.61-2.81a23.42,23.42,0,0,0-4.54-2.5,0.94,0.94,0,0,1-.39-0.38c-2-1-6.34-3.59-7.62-4.08a3.77,3.77,0,0,0-.83-0.88c-0.38-.36-0.87-0.76-1.42-1.18-1.1-.86-2.5-1.76-3.78-2.72s-2.53-1.87-3.4-2.59-1.35-1.3-1.18-1.47L335,329.22c-0.66-.55-1.26-1.16-1.74-1.6l-0.78-.74,0.2,0c-1.57-1.54-2.65-2.54-3.49-3.31a26.14,26.14,0,0,0-2.11-1.68c-0.65-.78-0.06-0.32,0-0.3-2.11-2.42-3.22-3.79-4.35-5s-2.17-2.26-4.13-4.14l0-.7a45.21,45.21,0,0,1-3.49-4.85c-0.8-1.23-1.69-2.57-2.63-3.91a48.53,48.53,0,0,0-2.86-3.94,1.17,1.17,0,0,1,.57.44,57.65,57.65,0,0,1-5.77-9.86c-1.63-3.3-3-6.05-4.65-6.62l-2.72-3.83c2.73,5.41-1.36-.28-0.51,2.1-1.33-2-2.24-5.82-.78-3.27l0.1,0.47c1.62,0.34-3-6.92-2.06-7.22a162.63,162.63,0,0,1-6.75-16.22c-2-5.42-3.73-10.81-5.55-16.05l-0.83,1.67-1.24-3.68c0-1.07.55-1.65,1.42,1,0.23-1.62-2.13-4.16-2.44-4.14-1.22-5.31,2.19,1.48,1.68-.11l-0.82-2.1v0.53c-1.12-1.54-1.74-1.51-2.71-4.7-0.39-2.09.47-1.29,0.27-2.09,0.1,0,0-.3-0.35-1.22l-1.35-4.69-0.46,2.19c-1.18-1.91-1.29-4.42-1.83-1.89,0.44-1.87-.73-6.28-1.91-10.53l-1.65-5.88a19.56,19.56,0,0,1-.73-3.5,32.51,32.51,0,0,1-3-9.33c0,0.95-1,1.76-1.6-1.41,2.6,0.62-.31-6,0.8-8.85-0.61,2.5-2.19-8.86-3-5-0.35-2.67.81-.33,0.92-2.42-2.14-6.09-2.19-13.88-3.84-21.59-0.28-.08-0.46,1.28-1.13-0.33l0.6-4.3c-0.39-1.52-1.67-1.21-1.26-4.15-0.14.42-.36,1.06-0.6,0-0.58-7.73-1.93-15.52-3-23.4a232.88,232.88,0,0,1-2-23.69c0,2.13-.19.72-0.34-0.9,0,1.06-.28,0-0.41.21l-0.06-3.3-0.09-3.29c-0.41-1.19-.56-7.05-0.79-7.74l0.15,2.09c-0.21-1.38-.28-0.41-0.41.86s-0.31,2.85-.53,2.65a36.05,36.05,0,0,1,0,5.93,29.47,29.47,0,0,0,.26,7.42c-0.11,1.14-.26-1-0.4-0.34a22.16,22.16,0,0,1,.43,5.75l-0.1-.32c0.44,8.15.27,11.67,0.58,20.87l0.5-.74a17.85,17.85,0,0,1-.13,3.34c1,2.16-.39-5.53.69-3.57-0.44,1.36-.18,4.83.12,8.19s0.59,6.61-.06,7.59c0.31,3,.65-1,1,2l-0.32.86,0.62,0.69c0.15,2-.27,3.06-0.62,3.19a17.61,17.61,0,0,0-.34-1.86c-0.23,2.64,1,7.22,1,8.13l-0.09-2.94c1.43,8.17,2.34,18.31,4.8,26l0.27-.67a21.92,21.92,0,0,1,1.15,5.47,27.18,27.18,0,0,0,1,6l-0.14-.22a18,18,0,0,1,1.6,4.75c-0.82-1.55-.21,3.33-1.19,1.27,2.26,6.3,1.34,3.07,3.83,7l-0.42,1.15c1,1.3,1.3,1.34,2.31,4.54-1.28-2.51-.47,2.34-2-0.44,0.32,7.24,4.2,9.7,3,13.42,1.39,1.28,1.21-.26.81-1.92s-1-3.44-.56-2.62c0.2-1.63,2.1,2.17,2.56,4.33s-1.3,4.39.48,9.79c-0.17-.54-0.32-0.53-0.48-1.07,0.19,2.18,1.94,3.75,2,6.47,1.59,1,1.08,3.22,2.61,3.12l-1-2.39c-0.52-1.2-1-2.4-1-2.4a46.57,46.57,0,0,0,2.55,4,15.69,15.69,0,0,1,2.22,5.56,11.11,11.11,0,0,1-1.83-2.33c0.09,1.48,1.23,2.46,1.33,4-1.52.12-2.54-5.81-4.63-8.43-0.08,1.65,3,5.29,1,4.33,2.72,1.45,1.74,5.35,4.62,8.38l-0.89.07a13.24,13.24,0,0,1,1.61,2.59l-1.8-1.48c2.06,2.54,1.6,5.86,3.32,8.41-2.59-5.73.34-1.67-.16-4.33,2,3.34,2,4.54,1.95,5.91a8.41,8.41,0,0,0,.17,2.42,18,18,0,0,0,1.82,4.26c-0.63-1-1.52-4.16-.38-2.66a26.87,26.87,0,0,1,1.37,4.71c2.81,5,.29-1.11,1.84.86,0.09,2.13,1.6,2.36,3,4.44l-0.64.34c2.73,5.95,2.1.87,4.49,6.24l-2.06-1.72,1.74,2.55-1-.19a28.94,28.94,0,0,1,4.14,6.47c0-.87,1.19-0.19,2.74,2.24,0.75,1.85-1.08-.64,1.19,2.77a4.94,4.94,0,0,1-2.25-3c-0.27-.05-0.82-0.58-1.09-0.64a33.09,33.09,0,0,0,3.71,5.76,10.91,10.91,0,0,1-.8-1.4l4,4.51c0.38,0.87-.19.35-0.75-0.16,0.75,0.95,1.44,1.49,2.5,2.91-0.61-.14-0.89.19-2.56-1.73l1.88,2.17,1.28,1.49,0.59,0.67c0.09,0.4,1.4,2.58.83,2.08a31.79,31.79,0,0,0,3.67,4.22c0.72,0.75,1.45,1.52,2.15,2.33s1.42,1.59,2.05,2.42a7.69,7.69,0,0,1,1.13,1.06c1.24,1.52,2.43,2.93,3.68,4.41A47.62,47.62,0,0,0,324,322.7s0.36,0.56.75,1.11l0.77,1.09c2.68,2.46-2.1-2.93,2.35,1.18,3.19,2.85.88,1.39,1.88,2.51,0.88,0.63,2.05,1.51,3.38,2.55a38.58,38.58,0,0,1,4.17,3.67C336.19,334,335.48,333.3,334.53,332.54Zm37.38,24.27a11.11,11.11,0,0,1-2.84-1.5C370.12,355.44,370.67,356,371.91,356.81Zm61.14,28.56a5.18,5.18,0,0,1-2.47-1.22A10.71,10.71,0,0,1,433.05,385.37Zm180.67,49.2-0.1,0C611.86,433.74,612.48,434.06,613.72,434.57Zm3.77,1.3c0.42-.05.42-0.19,0.29-0.36a4,4,0,0,1-2.17-.27C615.83,435.55,616.29,435.83,617.49,435.86ZM276.43,225.13v0.8C275.65,224.37,276,224.75,276.43,225.13Z" fill="#fff"/><path d="M425.65,383.23a0.66,0.66,0,0,1-.19-0.49C425.1,382.71,425,382.83,425.65,383.23Z" fill="#fff"/><path d="M314.78,312.89l-0.09-.11a0.32,0.32,0,0,0-.15-0.06Z" fill="#fff"/><path d="M555.58,429.77a4.16,4.16,0,0,1-1.38-1C554.08,429,554.39,429.37,555.58,429.77Z" fill="#fff"/><path d="M638.33,438.79l-2.52-.32a6.44,6.44,0,0,1,2.17.8C638,439,637.55,438.63,638.33,438.79Z" fill="#fff"/><path d="M658.9,448.66c0.39,0,.78.12,1.16,0.08l0-.39C658.47,448.11,657.32,448.23,658.9,448.66Z" fill="#fff"/><path d="M640,442.29c0,0.79,1.66.87,3.43,1.1l-0.31-.07C643.87,442.39,641.95,442.33,640,442.29Z" fill="#fff"/><path d="M643.87,443.45a12.71,12.71,0,0,1,1.61.32C645.77,443.4,644.85,443.54,643.87,443.45Z" fill="#fff"/><path d="M622.52,436.39c0.78,0.39.74-.92,1.13-0.48C624.79,435.08,617.9,435.94,622.52,436.39Z" fill="#fff"/><polygon points="640.96 445.05 640.51 444 639.38 444.55 640.96 445.05" fill="#fff"/><path d="M627.29,441.55l2.74,0.84c0-.17.37-0.19,0.82-0.18C629.13,441.83,627.29,441.25,627.29,441.55Z" fill="#fff"/><path d="M630.85,442.21a8.44,8.44,0,0,0,2.28.3A18.88,18.88,0,0,0,630.85,442.21Z" fill="#fff"/><polygon points="637.08 444.56 636.29 444.2 634.33 443.74 637.08 444.56" fill="#fff"/><path d="M597.45,434.68l-3.1-.42c-0.39.29,0.38,0.71,1.54,0.83C596.67,435,597.83,435.14,597.45,434.68Z" fill="#fff"/><path d="M606,439.71a2.86,2.86,0,0,1-1.16-1.1l-0.39,1.27Z" fill="#fff"/><path d="M597,438c-0.39.29-4.66,0-.78,0.83C596.63,438.5,599.75,438.91,597,438Z" fill="#fff"/><polygon points="551.94 424.79 552.71 424.98 553.21 422.74 551.94 424.79" fill="#fff"/><path d="M510.74,418c3.37,1.63,1.24-1,4.23.64,1-.23-2.45-1.34-1.47-1.49C511.21,417,510.18,416.32,510.74,418Z" fill="#fff"/><path d="M513.5,417.13a11.43,11.43,0,0,0,1.19,0A5.16,5.16,0,0,0,513.5,417.13Z" fill="#fff"/><polygon points="250.58 83.79 250.45 81.43 250.46 82.95 250.58 83.79" fill="#fff"/><path d="M250,79.26l0.13-.56L250,78l-0.11-.71C249.94,77.81,250,78.85,250,79.26Z" fill="#fff"/><path d="M377.24,360.88l0.22,0a7.45,7.45,0,0,0-1.71-1.14Z" fill="#fff"/><polygon points="349.49 344.26 349.96 344.56 349.27 343.69 349.49 344.26" fill="#fff"/><path d="M327.74,327.56c0.81,0.77,1.85,1.59,2.67,2.36C328.55,328.33,327.86,327,327.74,327.56Z" fill="#fff"/><polyline points="387.67 146.67 425.44 159 425.44 695.83" fill="none" stroke="#fff" stroke-miterlimit="10" stroke-width="2"/><path d="M301,296.08a13.74,13.74,0,0,0-2.78,1.57C299.54,297.1,300.28,296.89,301,296.08Z" fill="none"/><path d="M401.69,171.76l0.47-.67C402.05,170.54,402,170,401.69,171.76Z" fill="none"/><path d="M317.79,286.64l1-.72C318.33,286.25,318,286.47,317.79,286.64Z" fill="#fff"/><path d="M310,291.15l-0.13.22C310.17,291.11,310.3,291,310,291.15Z" fill="#fff"/><path d="M353.36,253.44l0.57-1.39C352.59,253.86,353.33,253.18,353.36,253.44Z" fill="#fff"/><path d="M316.26,291a2.12,2.12,0,0,0,.84-0.7C316.44,290.75,316.08,291,316.26,291Z" fill="#fff"/><path d="M392.33,181c0-.06.1-0.14,0.16-0.21C392.57,179.6,392.45,180.1,392.33,181Z" fill="#fff"/><path d="M399.71,155c-0.29,2.11-.55,3.75-2.09,5,0.47,1.8,1.16.44,1.72-1.15s0.95-3.41.9-2.49c1-1.27.67,2.94-.16,5-0.67,2.13-3.47,2.91-5.11,8.23,0.18-.52.06-0.6,0.23-1.13-1.11,1.83-.63,4.1-2.19,6.27,0.64,1.73-1.13,3.12.13,4l0.67-2.48c0.34-1.24.66-2.48,0.66-2.48-0.56,2.87.22,6-2.23,10.27a11,11,0,0,1,.1-2.92c-0.88,1.17-.64,2.64-1.55,3.85-1.23-.9,1.81-6,1.72-9.29-1.06,1.21-.88,5.91-1.88,3.9,1.14,2.8-2,5.08-1.94,9.15l-0.71-.54a11.68,11.68,0,0,1-.54,2.94l-0.34-2.27a8.77,8.77,0,0,1-1.56,4.16,13.43,13.43,0,0,0-1.85,3.93c2.18-5.7,1.42-.89,2.92-3.08-0.84,3.75-1.81,4.53-2.8,5.4s-2,1.75-3.41,5.39c0.52-1.22,1.89-3.19,1.57-1.58a20.72,20.72,0,0,1-2.61,4c-2.09,5.19,1-.46.51,1.92-1.6,1.35-.76,2.69-1.58,5l-0.66-.31c-3.11,5.58.62,2.22-2.44,7.13l0.25-2.62-1.11,2.8-0.4-.92c-0.91,3.21-1.58,4-3.2,6.75,0.72-.44.8,0.94-0.6,3.41-1.25,1.51,0-1.24-1.84,2.32a4.76,4.76,0,0,1,1.52-3.34c-0.08-.26.1-1,0-1.24-1.35,1.61-2.54,4.54-3.3,5.78a10.34,10.34,0,0,1,.9-1.29l-1.13,2.71-0.8,1.86c-0.22.51-.38,0.84-0.38,0.84-0.66.67-.4,0-0.15-0.73-0.57,1-.8,1.86-1.69,3.35-0.11-.61-0.51-0.76.59-3L362.61,240l-0.87,1.71-0.41.76c-0.35.21-1.94,2.1-1.66,1.42-0.92,1.22-1.79,2.9-2.83,4.63-0.51.87-1,1.77-1.61,2.64a30.5,30.5,0,0,1-1.88,2.45,7.35,7.35,0,0,1-.78,1.3c-2.43,3-4.85,5.33-7.59,9,0,0-.52.4-1.06,0.77l-1.06.76c-2.37,2.65,2.85-2.08-1.11,2.32-2.86,3.07-1.4.81-2.53,1.75-0.67.81-1.55,1.95-2.7,3.13a31.7,31.7,0,0,1-4.12,3.55c0.92-.89,1.7-1.51,2.57-2.33l-2.36,1.76c2.38-2.65,4.35-4.26,2.08-2.69,0.13,0.45-1.93,2.43-4.14,4.21s-4.43,3.53-4.34,4l-1.65,1c0.45-.32.49-0.42,0.93-0.73a11.48,11.48,0,0,0-1.72,1.18,7.69,7.69,0,0,0-1,.89,13.45,13.45,0,0,1-3.4,2.55c-1.47.85-2.56,1.33-1.62,0.66l-3.16,2.09c-0.81.46-.82,0.33-0.23,0l-4.58,2.73,0,0c-0.65.52-2.19,1.6-2.94,2.13-1.36.59,0.6-.44,0.21-0.36l-2.7,1.73c-1.27.4,1-1.07,2.91-2.09-3.09.6-2.22,1.48-8.18,4l2.61-1.53a15.46,15.46,0,0,0-3.13,1.16c-1.16.51-2.47,1.1-4.1,1.68,0.83-.15,6.56-2.22,3.57-0.45a21,21,0,0,0-3.67,1.93c-0.19-.32-1.79.57-3.83,1.6l-0.1-.53a16.55,16.55,0,0,0-3.05,2.23c-2.5,1.18-3.21,1-4,1-4.08,1.72,3.1-.62-1.62,1.63a62.79,62.79,0,0,0-9.54,4.75c-2.44.86,0.24-.55-0.69-0.34l-1.85,1.42c-0.51.22-.42,0-0.37-0.12-1.66,1,.15.7-2.53,2.1-0.21.51-1.76,0.87-3.64,1.36a21.85,21.85,0,0,0-4.44,1.53l-0.07,4.27c2.46-1.1,3-1.33,6-2.77l-1,.32c0.93-1.43,2.68-1.44,5.3-2.81l0,0.12c6.29-2.5,2.5-1.54,8.73-4l-0.53-.26c0.12-1.17,5.55-2.1,8.84-4.18l-1.36.41c1.77-1.18,5.77-1.68,7.68-2.62,0.44-.16-0.59.45-1.13,0.82,5.11-2.24.4-.8,4-2.88,0.8-.13-0.55,1.07,1.92-0.22a38.51,38.51,0,0,0,4.29-2.68,39.35,39.35,0,0,1,5.93-3.47c-0.82.26-1.63,0.51,0-.56,1.26-.76,3.1-1.56,4.83-2.48a23.75,23.75,0,0,0,4.41-2.79,1,1,0,0,1,.53-0.16,85.64,85.64,0,0,0,7.13-5,3.85,3.85,0,0,0,1.17-.44c0.46-.27,1-0.63,1.56-1,1.14-.85,2.5-1.88,3.71-3s2.39-2.11,3.29-2.82,1.49-1.16,1.64-1l2.62-2.3c0.67-.56,1.28-1.19,1.76-1.63l0.79-.75-0.06.2c0.83-.74,1.52-1.38,2.09-1.94s1-1.06,1.39-1.5a26.54,26.54,0,0,0,1.68-2.15c0.78-.67.32-0.07,0.3,0,2.36-2.25,3.6-3.55,4.71-4.78s2-2.52,3.52-4.77l0.68-.18c0.73-1.29,6.65-6.77,10-12.29a1.19,1.19,0,0,1-.24.69c1.91-3.06,4.67-6.39,7-9.39s4.07-5.65,3.72-7.37l1.9-4.37c-3.25,5.2-.47-1.3-2.08.68,1.06-2.15,3.63-5.09,2.35-2.43l-0.33.35c0.31,0.79,1.33-.82,2.37-2.56s2-3.63,2.42-3.34c2.83-5.34,5.61-10.63,8.23-15.91s5.09-10.53,7.14-15.82l-1.72.75,1.46-3.67c0.66-.86,1.5-0.94.44,1.68,1.27-1.12,1-4.66.76-4.83,2.37-5,.79,2.56,1.38,1l0.68-2.2-0.33.44c0.1-1.94-.42-2.29.72-5.48,0.94-1.95,1.16-.78,1.47-1.56,0.09,0,.23-0.22.43-1.22l1.6-4.72-1.64,1.58c0.16-2.26,1.41-4.45-.42-2.62,1.4-1.33,2.88-5.73,4.06-10,0.29-1.07.57-2.13,0.82-3.14L401.14,149A24.7,24.7,0,0,0,399.71,155ZM298.18,297.65a13.74,13.74,0,0,1,2.78-1.57C300.28,296.89,299.54,297.1,298.18,297.65Zm104-126.56-0.47.67C402,170,402.05,170.54,402.16,171.09Z" fill="#fff"/><path d="M353.26,253.7l0.08-.1a0.32,0.32,0,0,0,0-.15Z" fill="#fff"/><path d="M291.82,299.65l-0.1.19a7.33,7.33,0,0,0,1.9-.74Z" fill="#fff"/><polygon points="320.1 284.73 319.63 285.01 320.7 284.79 320.1 284.73" fill="#fff"/><path d="M340.3,267.61c-0.78.75-1.63,1.7-2.42,2.45C339.51,268.36,340.86,267.77,340.3,267.61Z" fill="#fff"/><path d="M246.53,321.68a20.42,20.42,0,0,0-2.39.5Z" fill="#fff"/><path d="M244.09,322.52a0.69,0.69,0,0,1,.49.21C244.85,322.5,244.8,322.38,244.09,322.52Z" fill="#fff"/><path d="M422.79,36.27c0,0.52,0,1.36,0,2.16C422.81,38,422.82,37.39,422.79,36.27Z" fill="#fff"/><polygon points="422.86 26.71 422.94 27.56 422.91 25.18 422.86 26.71" fill="#fff"/><path d="M422.53,23l0.14-.56L422.46,21C422.5,21.54,422.56,22.58,422.53,23Z" fill="#fff"/><path d="M726.5,435.71l0.25,0.06,0.27,0.06,0.33,0.09,0.3,0.08,0.36,0.11,0.32,0.1,0.39,0.13,0.34,0.12,0.43,0.16,0.36,0.14,0.48,0.19,0.36,0.15,0.58,0.26,0.31,0.14,0.95,0.45A56.48,56.48,0,0,1,750,452.81l0.77,1,0.16,0.23L751.6,455l0.11,0.15,0.56,0.77,0.1,0.14,0.53,0.74L753,457l0.45,0.63,0,0,0.43,0.61,0.1,0.14,0.36,0.51,0.08,0.12,0.25,0.36,0.08,0.12,0.25,0.36,0.09,0.13,0.14,0.21,0.07,0.1h0l0.35-.26,0.11-.08,0.34-.27,0.16-.13,0.36-.32,0.16-.14c0.18-.16.35-0.33,0.53-0.51l0.43-.46,0.13-.14,0.28-.33,0.12-.14,0.29-.35,0.06-.08,0.31-.4,0.08-.11,0.19-.25,0.08-.12,0.14-.2,0.06-.09v0l0-.11,0-.14-0.07-.27,0-.15-0.14-.51,0-.11-0.16-.5-0.08-.24-0.16-.46-0.11-.29-0.19-.49-0.13-.32-0.23-.55-0.14-.32-0.33-.71-0.11-.23q-0.23-.48-0.5-1l-0.15-.28-0.42-.76-0.23-.39-0.43-.7-0.27-.43-0.47-.72-0.3-.44-0.57-.79-0.29-.39c-0.3-.4-0.61-0.8-0.95-1.21-4.05-5-7.62-7.72-11.94-9.23q-0.58-.21-1.24-0.38l-0.46-.1c-0.3-.07-0.6-0.14-0.92-0.2l-0.62-.1-0.9-.14-0.74-.08-0.87-.09A25.33,25.33,0,0,0,726.5,435.71Z"/><path d="M723.72,446.94l0.82,0.51,0.21,0.13c0.32,0.21.65,0.44,1,.68l0.71,0.54,0.16,0.13,0.65,0.54,0.06,0.05c0.33,0.28.66,0.59,1,.91l0.29,0.27a1.14,1.14,0,0,1,.34.23,79.33,79.33,0,0,1,10.55,13.88l0.31,0h0.11l0.56-.06h0.13l0.55-.06,0.17,0,0.73-.09,0.13,0,0.69-.09,0.22,0,0.86-.12H744l0.81-.13,0.24,0,1-.16,0.91-.19,0.26-.06,0.72-.19,0.22-.06,0.9-.28,0.2-.07,0.71-.25,0.25-.09,0.79-.3,0,0,0.79-.32L752,462l0.58-.25,0.13-.06,0.61-.27h0l-0.18-.26,0-.07-0.23-.34-0.06-.09-0.29-.43-0.09-.13-0.34-.49-0.11-.15-0.32-.46-0.12-.16-0.44-.62L751,458l-0.5-.69-0.12-.17-0.5-.69-0.15-.21-0.64-.88-0.16-.22-0.75-1A54.73,54.73,0,0,0,731.53,440c-5-2.43-7.47-2.3-7.74-2.28l-0.14,0-0.07,0-0.17,0-0.12,0-0.22.08-0.16.07-0.22.09a24.93,24.93,0,0,0-6.07,6.6,11.33,11.33,0,0,1,4.93,1.14h0q0.47,0.21,1,.47t1,0.55Z"/><path d="M759.3,471c-0.26.23-.54,0.46-0.83,0.69-4.71,3.68-9.51,6.07-13.88,6.9l-1,.18-0.3.05-0.73.12-0.3,0-0.86.12h-0.11l-0.94.12-0.25,0-0.67.07-0.27,0-0.72.07h-0.13l-0.82.07h-0.17l-0.6,0h-0.2l-0.57,0h-0.12l-0.64,0h-0.1l-0.46,0H734v0.05c0,0.18,0,.38,0,0.6,0,0,0,.07,0,0.1,0,0.24,0,.48,0,0.74a3,3,0,0,0,0,.34v0.08a2,2,0,0,0,0,.2v0a1,1,0,0,0,0,.13h0.11l0.17,0,0.12,0,0.2,0,0.15,0,0.28,0h0.12l0.45,0h0.11l0.4,0h0.18l0.37,0h0.21l0.41,0h0.21l0.54,0h1.73l0.49,0h0.27l0.52,0,0.24,0,0.77-.07a24,24,0,0,0,8.1-2.11l0.46-.2,0.24-.11h0a25.09,25.09,0,0,0,9-9.4l-0.43.39Z"/><path d="M712.69,458.22a21.22,21.22,0,0,1,1.5-4,30.35,30.35,0,0,1,4.76-6.88,4.76,4.76,0,0,0-2.11-.35,7.79,7.79,0,0,0-1.48.49A26.35,26.35,0,0,0,712.69,458.22Z"/><path d="M760.79,447.8l-0.07-.32A25.26,25.26,0,0,0,749,435.56q-0.89-.44-1.82-0.81l0.19,0.13L748,435.3l0.32,0.24,0.62,0.49,0.26,0.21c0.29,0.24.59,0.49,0.88,0.75l0,0,0.84,0.78L751.2,438l0.61,0.6,0.32,0.33,0.58,0.61,0.32,0.34,0.61,0.69,0.28,0.32,0.89,1.05c0.4,0.49.78,1,1.13,1.45l0.35,0.48c0.23,0.31.45,0.62,0.66,0.93l0.37,0.56c0.18,0.27.36,0.54,0.52,0.81l0.34,0.56,0.44,0.75,0.3,0.55,0.38,0.7,0.26,0.52,0.32,0.66,0.22,0.49,0.27,0.62,0.18,0.44,0.23,0.58,0.1,0.24c0.06-.27.1-0.55,0.13-0.84,0-.09,0-0.18,0-0.27s0-.18,0-0.27,0-.21,0-0.32,0-.17,0-0.26,0-.23,0-0.35,0-.17,0-0.26,0-.24,0-0.36,0-.18,0-0.26,0-.25,0-0.38,0-.18,0-0.27,0-.25-0.06-0.38Z"/><path d="M762.74,460.61q0.06-.21.11-0.45t0.1-.51h0q0-.27.09-0.58V459c0-.16,0-0.33.06-0.5,0,0,0,0,0,0h0s0,0,0,0q0-1.06-.07-2.12h0q-0.09-1.09-.26-2.17v0l-0.12.41-0.05.17-0.17.5h0l-0.15.4,0,0.13-0.09.21-0.05.12-0.07.16-0.09.2,0,0.07v0l0,0.06,0,0.05,0,0.05,0,0,0,0.06A24.68,24.68,0,0,1,759,460.2a16.5,16.5,0,0,1-3.47,2.71h0c-0.07,0-.69.35-1.63,0.77h0l-0.38.17-0.08,0-0.34.15-0.17.07-0.3.12-0.21.08-0.28.12-0.24.1-0.27.11-0.28.11-0.26.1-0.31.11-0.25.09-0.36.12-0.21.07-0.59.19a24.21,24.21,0,0,1-2.91.74l-1,.18-0.24,0-1,.15h-0.07l-0.86.12-0.22,0-0.83.11h-0.09l-0.7.08-0.16,0-0.67.07h-0.06l-0.56.05h-0.07l-0.49,0-1,1.83-0.49.91,0,0-0.25.47-0.06.12-0.21.4-0.09.16-0.18.34-0.11.22-0.16.31-0.11.22-0.17.32-0.1.19-0.16.31-0.1.2-0.15.29-0.09.19-0.22.45c-0.16.32-.3,0.64-0.44,0.94h0c-0.13.3-.25,0.59-0.36,0.87v0q-0.16.41-.29,0.77v0c-0.08.24-.16,0.47-0.22,0.68h0.07l0.64,0h0.25l0.67,0h0.24l1-.07,0.22,0,0.86-.08,0.34,0,1-.1,0.2,0,1.22-.15,0.33,0,1-.15,0.38-.06,1.32-.23c4-.77,8.48-3,12.9-6.46C760.95,466.84,761.82,463.81,762.74,460.61Z"/><path d="M728.17,481.43h0a25.12,25.12,0,0,0,3.67,1.22v0l-0.05-.16,0-.12,0-.19,0-.13c0-.07,0-0.15,0-0.23s0-.08,0-0.12,0-.25,0-0.39a12.73,12.73,0,0,1,.24-2.93v-0.06c0-.1.09-0.42,0.22-0.89l0-.06,0.12-.43,0.06-.18,0.13-.4,0.1-.29,0.13-.37,0.16-.42,0.12-.3q0.15-.38.33-0.79l0.25-.55,0.26-.54,0.25-.51,0.08-.16,0.19-.38,0.1-.21,0.19-.36,0.1-.19,0.22-.42,0.08-.16,0.3-.57,0.05-.1,0.27-.51,0.06-.11,0.25-.47,0.07-.13,0.25-.47,0-.08,1.2-2.22a80.26,80.26,0,0,0-9-12.23l-0.12.27,0,0.07-0.21.46-0.28.63-0.05.13-0.32.74,0,0.06c-0.37.87-.77,1.82-1.15,2.8l0,0.11-0.32.82-0.08.2-0.35.95v0a40,40,0,0,0-2.08,7.52q-0.08.48-.13,1c-0.05.46-.1,0.91-0.13,1.37s0,0.91-.05,1.37q0,0.35,0,.7a10,10,0,0,0,2,6.51l0.09,0.13,0,0.05,0.1,0.12,0.07,0.08,0.14,0.15,0.09,0.1,0.12,0.13,0.06,0c0.34,0.19.69,0.37,1,.54s0.76,0.36,1.15.53Z"/><path d="M721.34,477.19l0-.11,0-.15-0.09-.37,0-.15c0-.16-0.07-0.33-0.1-0.5v0c0-.19-0.06-0.39-0.09-0.59l0-.17c0-.15,0-0.3-0.05-0.46l0-.22c0-.16,0-0.32,0-0.48s0-.14,0-0.21c0-.24,0-0.48,0-0.73-0.05-4,.68-7.67,2.53-12.73l0.26-.7v0c0.76-2,1.56-3.92,2.21-5.38,0.35-.8.68-1.51,0.95-2.09l0,0c-0.38-.36-0.77-0.7-1.16-1l-0.06-.05c-0.36-.3-0.73-0.59-1.1-0.86h0l-0.82-.57-0.47-.3-0.29-.18-0.67-.39,0,0-0.74-.39c-1.5,1.61-5.57,6.42-6.44,12.05a27.21,27.21,0,0,0,.09,8.42A25,25,0,0,0,721.34,477.19Z"/><path d="M735.19,430.83h0a27.59,27.59,0,0,0-13.75,5.34,27.24,27.24,0,0,0-7.14,7.93l-0.06.12a11.58,11.58,0,0,0-.61,1.69,1.13,1.13,0,0,0-.14.2c-3.82,7.78-4.12,15.68-.88,22.84a1.11,1.11,0,0,0,.15.22v0.09a1.14,1.14,0,0,0,.09.29,27.26,27.26,0,0,0,11.55,12.61l0,0,0.12,0.06h0l0.28,0.15h0l0.07,0c0.29,0.16.58,0.31,0.87,0.46s0.77,0.36,1.15.53h0l0,0h0l0.21,0.09,0.07,0h0l0.93,0.37,0.06,0h0a27.31,27.31,0,0,0,6.93,1.61h0a27.73,27.73,0,0,0,16.85-3.79,27.51,27.51,0,0,0,13.34-23.16s0,0,0-.06,0-.06,0-0.08h0c0-.16,0-0.32,0-0.48h0s0-.06,0-0.09c0-.31,0-0.63,0-0.94v0c0-.17,0-0.33,0-0.5s0,0,0-.08v-0.1s0-.06,0-0.09,0-.35,0-0.52v0l0-.18s0,0,0,0c0-.19,0-0.37-0.06-0.56,0,0,0-.06,0-0.09h0a1.13,1.13,0,0,0-.44-0.68,0.9,0.9,0,0,0,.2-0.44,1.13,1.13,0,0,0,0-.36l0-.15c0-.12,0-0.25-0.07-0.37s-0.09-.44-0.15-0.66-0.14-.62-0.22-0.92-0.12-.41-0.18-0.62-0.18-.62-0.28-0.93-0.14-.4-0.21-0.6-0.21-.61-0.33-0.92-0.15-.36-0.23-0.54-0.25-.6-0.38-0.9h0A27.5,27.5,0,0,0,735.19,430.83Zm15.73,49h0l-0.24.11-0.46.2a24,24,0,0,1-8.1,2.11l-0.77.07-0.24,0-0.52,0h-0.27l-0.49,0H738.1l-0.54,0h-0.21l-0.41,0h-0.21l-0.37,0h-0.18l-0.4,0h-0.11l-0.45,0h-0.12l-0.28,0-0.15,0-0.2,0-0.12,0-0.17,0H734a1,1,0,0,1,0-.13v0a2,2,0,0,1,0-.2v-0.08a3,3,0,0,1,0-.34c0-.26,0-0.51,0-0.74,0,0,0-.07,0-0.1,0-.22,0-0.42,0-0.6v-0.05h0.67l0.46,0h0.1l0.64,0h0.12l0.57,0h0.2l0.6,0h0.17l0.82-.07h0.13l0.72-.07,0.27,0,0.67-.07,0.25,0,0.94-.12h0.11l0.86-.12,0.3,0,0.73-.12,0.3-.05,1-.18c4.37-.84,9.17-3.23,13.88-6.9,0.29-.23.57-0.46,0.83-0.69l0.24-.22,0.43-.39A25.09,25.09,0,0,1,750.92,479.78ZM736.18,433.2l0.74,0.08,0.9,0.14,0.62,0.1c0.32,0.06.62,0.13,0.92,0.2l0.46,0.1q0.66,0.17,1.24.38c4.31,1.52,7.88,4.28,11.94,9.23,0.33,0.41.65,0.81,0.95,1.21l0.29,0.39,0.57,0.79,0.3,0.44,0.47,0.72,0.27,0.43,0.43,0.7,0.23,0.39,0.42,0.76,0.15,0.28q0.27,0.51.5,1l0.11,0.23,0.33,0.71,0.14,0.32,0.23,0.55,0.13,0.32,0.19,0.49,0.11,0.29,0.16,0.46,0.08,0.24,0.16,0.5,0,0.11,0.14,0.51,0,0.15,0.07,0.27,0,0.14,0,0.11v0l-0.06.09-0.14.2-0.08.12-0.19.25-0.08.11-0.31.4-0.06.08-0.29.35-0.12.14-0.28.33-0.13.14-0.43.46c-0.17.18-.35,0.35-0.53,0.51l-0.16.14-0.36.32-0.16.13-0.34.27-0.11.08-0.35.26h0l-0.07-.1-0.14-.21-0.09-.13-0.25-.36-0.08-.12-0.25-.36-0.08-.12-0.36-.51-0.1-.14-0.43-.61,0,0L753,457l-0.14-.19-0.53-.74-0.1-.14-0.56-.77L751.6,455l-0.67-.92-0.16-.23-0.77-1a56.48,56.48,0,0,0-17.46-14.88l-0.95-.45-0.31-.14-0.58-.26-0.36-.15-0.48-.19-0.36-.14-0.43-.16-0.34-.12-0.39-.13-0.32-.1-0.36-.11-0.3-.08-0.33-.09-0.27-.06-0.25-.06a25.33,25.33,0,0,1,8.81-2.59Zm-14.61,12.62h0a11.33,11.33,0,0,0-4.93-1.14,24.93,24.93,0,0,1,6.07-6.6l0.22-.09,0.16-.07,0.22-.08,0.12,0,0.17,0,0.07,0,0.14,0c0.27,0,2.78-.15,7.74,2.28a54.73,54.73,0,0,1,16.63,14.18l0.75,1,0.16,0.22,0.64,0.88,0.15,0.21,0.5,0.69,0.12,0.17L751,458l0.15,0.21,0.44,0.62,0.12,0.16,0.32,0.46,0.11,0.15,0.34,0.49,0.09,0.13,0.29,0.43,0.06,0.09,0.23,0.34,0,0.07,0.18,0.26h0l-0.61.27-0.13.06L752,462l-0.19.08-0.79.32,0,0-0.79.3-0.25.09-0.71.25-0.2.07-0.9.28-0.22.06-0.72.19-0.26.06-0.91.19-1,.16-0.24,0-0.81.13h-0.1l-0.86.12-0.22,0-0.69.09-0.13,0-0.73.09-0.17,0-0.55.06h-0.13l-0.56.06h-0.11l-0.31,0a79.33,79.33,0,0,0-10.55-13.88,1.14,1.14,0,0,0-.34-0.23l-0.29-.27c-0.34-.32-0.67-0.63-1-0.91l-0.06-.05-0.65-.54-0.16-.13-0.71-.54c-0.34-.24-0.66-0.47-1-0.68l-0.21-.13-0.82-.51-0.16-.09q-0.5-.29-1-0.55T721.58,445.82ZM716.84,447a4.76,4.76,0,0,1,2.11.35,30.35,30.35,0,0,0-4.76,6.88,21.22,21.22,0,0,0-1.5,4,26.35,26.35,0,0,1,2.68-10.73A7.79,7.79,0,0,1,716.84,447Zm4.52,1.26,0.74,0.39,0,0,0.67,0.39,0.29,0.18,0.47,0.3,0.82,0.57h0c0.37,0.27.73,0.56,1.1,0.86l0.06,0.05c0.39,0.32.77,0.67,1.16,1l0,0c-0.27.58-.6,1.29-0.95,2.09-0.64,1.46-1.44,3.35-2.21,5.38v0l-0.26.7c-1.85,5.06-2.58,8.75-2.53,12.73,0,0.25,0,.49,0,0.73,0,0.07,0,.14,0,0.21s0,0.32,0,.48l0,0.22c0,0.16,0,.31.05,0.46l0,0.17c0,0.2.06,0.4,0.09,0.59v0c0,0.17.07,0.34,0.1,0.5l0,0.15,0.09,0.37,0,0.15,0,0.11a25,25,0,0,1-6.33-8.47,27.21,27.21,0,0,1-.09-8.42C715.79,454.67,719.86,449.86,721.36,448.25Zm4.4,32-0.06,0-0.12-.13-0.09-.1-0.14-.15-0.07-.08-0.1-.12,0-.05-0.09-.13a10,10,0,0,1-2-6.51q0-.35,0-0.7c0-.46,0-0.92.05-1.37s0.07-.91.13-1.37,0.08-.63.13-1a40,40,0,0,1,2.08-7.52v0l0.35-.95,0.08-.2,0.32-.82,0-.11c0.39-1,.78-1.93,1.15-2.8l0-.06,0.32-.74,0.05-.13,0.28-.63,0.21-.46,0-.07,0.12-.27a80.26,80.26,0,0,1,9,12.23l-1.2,2.22,0,0.08-0.25.47-0.07.13-0.25.47-0.06.11-0.27.51-0.05.1-0.3.57-0.08.16-0.22.42-0.1.19-0.19.36-0.1.21-0.19.38-0.08.16-0.25.51-0.26.54-0.25.55q-0.18.41-.33,0.79l-0.12.3-0.16.42-0.13.37-0.1.29-0.13.4-0.06.18-0.12.43,0,0.06c-0.13.47-.2,0.79-0.22,0.89v0.06a12.73,12.73,0,0,0-.24,2.93c0,0.13,0,.26,0,0.39s0,0.08,0,.12,0,0.15,0,.23l0,0.13,0,0.19,0,0.12,0.05,0.16v0a25.12,25.12,0,0,1-3.67-1.22h0l-0.22-.09c-0.39-.17-0.77-0.34-1.15-0.53S726.1,480.46,725.76,480.27Zm31.3-10.39c-4.42,3.46-8.88,5.69-12.9,6.46l-1.32.23-0.38.06-1,.15-0.33,0-1.22.15-0.2,0-1,.1-0.34,0-0.86.08-0.22,0-1,.07H736.1l-0.67,0h-0.25l-0.64,0h-0.07c0.06-.21.14-0.43,0.22-0.68v0q0.13-.36.29-0.77v0c0.11-.28.23-0.57,0.36-0.87h0c0.13-.3.28-0.62,0.44-0.94l0.22-.45,0.09-.19,0.15-.29,0.1-.2,0.16-.31,0.1-.19,0.17-.32,0.11-.22,0.16-.31,0.11-.22,0.18-.34,0.09-.16,0.21-.4,0.06-.12,0.25-.47,0,0,0.49-.91,1-1.83,0.49,0H740l0.56-.05h0.06l0.67-.07,0.16,0,0.7-.08h0.09l0.83-.11,0.22,0,0.86-.12h0.07l1-.15,0.24,0,1-.18a24.21,24.21,0,0,0,2.91-.74l0.59-.19,0.21-.07,0.36-.12,0.25-.09,0.31-.11,0.26-.1,0.28-.11,0.27-.11,0.24-.1,0.28-.12,0.21-.08,0.3-.12,0.17-.07,0.34-.15,0.08,0,0.38-.17h0c0.95-.42,1.56-0.73,1.63-0.77h0A16.5,16.5,0,0,0,759,460.2a24.68,24.68,0,0,0,2.71-3.39l0-.06,0,0,0-.05,0-.05,0-.06v0l0-.07,0.09-.2,0.07-.16,0.05-.12,0.09-.21,0-.13,0.15-.4h0l0.17-.5,0.05-.17,0.12-.41v0q0.18,1.08.26,2.17h0q0.08,1.06.07,2.12s0,0,0,0h0s0,0,0,0c0,0.18,0,.34-0.06.5v0.11q0,0.3-.09.58h0q0,0.27-.1.51t-0.11.45C761.82,463.81,760.95,466.84,757.05,469.88Zm3.9-21.13c0,0.13,0,.25,0,0.38s0,0.18,0,.26,0,0.24,0,.36,0,0.17,0,.26,0,0.23,0,.35,0,0.17,0,.26,0,0.21,0,.32,0,0.18,0,.27,0,0.18,0,.27c0,0.29-.07.57-0.13,0.84l-0.1-.24-0.23-.58-0.18-.44-0.27-.62-0.22-.49-0.32-.66-0.26-.52-0.38-.7-0.3-.55-0.44-.75-0.34-.56c-0.17-.27-0.35-0.54-0.52-0.81l-0.37-.56c-0.21-.3-0.43-0.62-0.66-0.93l-0.35-.48c-0.36-.48-0.73-1-1.13-1.45l-0.89-1.05-0.28-.32-0.61-.69-0.32-.34-0.58-.61-0.32-.33-0.61-.6-0.27-.26-0.84-.78,0,0c-0.29-.26-0.59-0.51-0.88-0.75l-0.26-.21-0.62-.49L748,435.3l-0.58-.41-0.19-.13q0.92,0.37,1.82.81a25.26,25.26,0,0,1,11.71,11.91l0.07,0.32,0.06,0.3c0,0.13,0,.25.06,0.38S760.94,448.66,761,448.75Z" fill="#fff"/><path d="M350.51,730.78q-0.3,1.36-5.43,9.32l-19.33,30.14a1.93,1.93,0,0,1-2,.13,142.76,142.76,0,0,0-17.65-11.5,298.59,298.59,0,0,0-50.17-22.55q-19.26-6.74-21.67-8.69-4.56-3.83-4.56-16.89l15.25-81.84,17-78.33q3.18-14.64-4.89-16.68,2.22,0.2,24.61,5.64Q296.26,543,306,542.82q-7.44,5.48-9.32,7.62a23.59,23.59,0,0,0-5.19,10.79q-7.72,35.51-30.83,148.28-0.53,2.44,4.19,5.45,1.71,1.22,17,9.08,18.53,9.71,28.25,11.82a13.8,13.8,0,0,0,5.78-.59q3.89-1,3.35-1.12,1,0.51,3.61-4.89l8.12-17.82q0.19-4.78-4.3-12.86l0.24-1.08,20.84,25.54Q351.21,727.53,350.51,730.78Z"/><path d="M450,654.07l-4.75,72.8-6.53,66q-26.74,20.77-48.41,35.76-8.09,5.58-11.39,5.37a2.63,2.63,0,0,1-1.87-1l-11.43-23.54q-3.05-8.26-2.85-11.3,0.22-3.32,4.53-5.54l26.44-13.29-0.07,1.11q-6.17,5.16-7.31,9.81,1.18,7,3.32,20.23,0.94,6.45,2.05,6.25,1.92-.16,17.16-11.95,6.91-5.39,8.39-11.41l0.52-8q-0.05.83,3-53.73l-22.47,23.83-25.8-17.88-1.93-63.24,30.93-39.59,22.68,14.54q0.24-8,.29-13,4.68,4.2,16.37,10.52Q450.11,651.86,450,654.07ZM421.9,722q1.3-28.79,1.82-58.47l-21-14.11-8.65,81.27,7.83,7.77Z"/><path d="M528.18,748.14a2.67,2.67,0,0,1-1.4.53,0.44,0.44,0,0,1-.41-0.29,0.45,0.45,0,0,0-.41-0.29,1.6,1.6,0,0,0-1.12.53l-2.25,1.62a12.62,12.62,0,0,0,1.44-2.47,8,8,0,0,1-2.19-1.43l-15.35-23.06q-0.32,2-.29.84-2.82,2.19-6.83,8.69t-6,7.87q-11.83,8.73-14,8.69a2.16,2.16,0,0,1-1.92-.87l-20.83-26q-0.82-.85-0.16-19.47,0.45-8.89,1.54-35,0.07-3.33.91-10.69t0.92-11.25q0.13-6.39-10.36-9.11l16.65-.22,24.65,2.17q-7,1.8-7.92,7.61,0.5,2.51-.9,30.5l-1.82,35.2q-0.17,8.6.36,9.72,2.39,5.32,7.41,4,4.58-7.12,12.56-17.5l0.47-23.3,0.28-13.87,0.11-5.55a3.91,3.91,0,0,1,2.94-3.55l15.13-11.9,0,1.11a3,3,0,0,0-1.43,2.19,5.43,5.43,0,0,0,1.33,2.66,5.49,5.49,0,0,1,1.33,2.66q-1.38,26.89-1.18,58.24Q519.3,721.05,523,730q2.51-.5,16.74-18.25,0.1-5,2-29.92a259.69,259.69,0,0,0,.6-29.4q-0.38-8.88-8.38-11,4.43,0.09,13.17.54t13.17,0.55q2.5,0.05,7.63-.12t7.63-.12q-6.44,2.65-7.28,3.46-2.54,1.89-2.64,6.88l-2.47,53.49Z"/><path d="M582.17,705.79l-6.64-12.18a20.2,20.2,0,0,1-2.6-13,6.26,6.26,0,0,1,2-3.92q3.26-3.16,29.5-13.93,8.1,7.91,17.1,17.34Q634.37,693.76,632,700.7l-10.2,62.42,10.08,2L608.5,784.46q-7.71,3.92-10.77,3.48-2.78-.4-1.48-3.58l1.44-9.88-18.92,8.46q-12.23.47-15.25-51,6-8.65,19.17-12.35L602,714q-10.81,8.8-11.37,14.6a54.51,54.51,0,0,0-1.67,7.61q-2.68,18.39,3.73,30.25,4.31,1.19,6.76-4.06L611.14,682l-4.44,1.6q-1.5.62-8.09,3.59-11.08,4.84-11.79,9.78l1.15,9.42Z"/><path d="M625,675.64q12.66-11.57,28.52-28.36L657,672q12.55-14.36,16.95-15a2.16,2.16,0,0,1,2,.55l16.07,20.72a7.58,7.58,0,0,1,2.89,4.64,3.48,3.48,0,0,1-2.25,4L669.5,705.26l-0.15-1.1q5-6.3,5.17-11.09a69.21,69.21,0,0,0-5.27-9.62q-4.65-7.19-6.49-6.37-1.61.51-3.62,4.15,4.63,41.09,12.69,80.57,1.78,8.72,10,9.52l-11.68,1.64-11.67,1.64-7.55,1.06-7.55,1.06q6.72-4,7.82-6.14,0.94-1.25.33-5.65l-12.85-91.75Z"/><path d="M720,612.88L705.3,618l36.15,112.23a4.91,4.91,0,0,0,.2,2.28q1.63,4.72,17.93,11.12l-24.22-.43q-14.21-.37-17.27-6.65l-37-111.35-22,7.61q18.19-20.38,30-59.1l11,33.48,13.63-4.71Z"/><path d="M802.93,711.52q-2.53,1.15-20.26,9.45-19.93,9.24-25.35,8a1.11,1.11,0,0,1-1-.78L743.1,702q-1.79-8.63-1.13-11.61,0.72-3.25,5.32-4.79l6.13-2.06,12.52-.08a7.52,7.52,0,0,0-3.36,4.94,35.4,35.4,0,0,0-.38,4.89,16.51,16.51,0,0,1-.7,5.1q0.08,3.43,5.41,9.85t8.44,6.26q0.66-3,7.18-8.36l-1.14,0A2.94,2.94,0,0,0,783,704q0.78-3.53-14.86-32.48T753,640.41a2,2,0,0,1,1.49-1.67l3-2.18q2.5-1.15,20.13-9.52,19.8-9.31,25.17-8.13a1.11,1.11,0,0,1,1,.78L816.83,646q1.75,8.68,1.09,11.67-0.72,3.28-5.33,4.83l-20.46.06,0.24-1.08a7.1,7.1,0,0,0,4-5.09,37.38,37.38,0,0,0,.46-5.3,18.5,18.5,0,0,1,.79-5.51q-0.1-3.43-3.67-7.2t-7.09-4.55q-3-.66-6.74,2.21t-4.47,6.12a5.15,5.15,0,0,0,.37,3.49q6,12.69,21.28,38.77,10.74,18.28,9.67,23.15a3.69,3.69,0,0,1-2,2.68l-1.68-.09Z"/><path d="M360.16,668.84q-0.23,7.07-18.39,11.65-15.15,3.87-24,2.92L313,681.47Q290.69,654,290.46,647.7q2.42-12.82,17.08-62.09A155.36,155.36,0,0,1,351,574.12l16.08,17.72,1.34,4q4.61,7.06,1.34,26Q368.06,631.38,360.16,668.84Zm-27.45.42q16.48-70.49,14.39-84.66l-9.84,3.11q-5.42,2.44-7.65,5.9L314.34,665a13.37,13.37,0,0,0,5.46,9.54Q328.48,674,332.71,669.26Z"/><polygon points="515.8 772.04 539.53 845.77 515.01 841.78 518.61 902.55 492.93 822.85 515.38 826.15 515.8 772.04"/></svg>