<svg xmlns="http://www.w3.org/2000/svg" xmlns:xlink="http://www.w3.org/1999/xlink" viewBox="0 0 1024 1024"><defs><style>.cls-1{fill:none;}.cls-2{fill:#fff;}.cls-3{clip-path:url(#clip-path);}.cls-4{clip-path:url(#clip-path-3);}.cls-5{stroke:#000;stroke-miterlimit:10;stroke-width:4px;}.cls-6{fill:#231f20;}</style><clipPath id="clip-path"><path class="cls-1" d="M512,865.88s181.59-56.53,245.07-234.12C812.33,477.13,772.62,325,772.62,325s-79,14.39-157-18.9c-76.73-32.75-103.77-83.32-104.63-85a0,0,0,0,0,0,0c-.8,1.65-25.79,52.21-102.51,85-78,33.3-157,18.9-157,18.9s-39.71,152.15,15.56,306.77C330.41,809.34,512,865.88,512,865.88Z"/></clipPath><clipPath id="clip-path-3"><path class="cls-1" d="M512,865.88S330.41,809.34,266.93,631.76C211.67,477.13,251.38,325,251.38,325s79,14.39,157-18.9c76.73-32.75,103.77-83.32,104.63-85a0,0,0,0,1,0,0c.8,1.65,25.79,52.21,102.51,85,78,33.3,157,18.9,157,18.9s39.71,152.15-15.56,306.77C693.59,809.34,512,865.88,512,865.88Z"/></clipPath></defs><title>addlantis</title><g id="Shield"><path class="cls-2" d="M515.56,865.88s181.59-56.53,245.07-234.12C815.9,477.13,776.19,325,776.19,325s-79,14.39-157-18.9c-76.73-32.75-103.77-83.32-104.63-85a0,0,0,0,0,0,0c-.8,1.65-25.79,52.21-102.51,85-78,33.3-157,18.9-157,18.9S215.23,477.13,270.5,631.76C334,809.34,515.56,865.88,515.56,865.88Z"/><path d="M516.25,868.44c16.84-5.26,33.11-12.77,48.85-20.64a449.51,449.51,0,0,0,100.19-68.1c39.58-35.78,72-79.22,93.08-128.34,28.23-65.64,38.5-139,37.33-210a613.5,613.5,0,0,0-6.23-78.05c-1.84-12.69-3.73-25.66-7.06-38.06-.16-.58-.28-1.18-.44-1.76-.44-1.7-3.71-1.55-4.92-1.33a216,216,0,0,1-31.83,2.84,308.63,308.63,0,0,1-77.59-7.33c-49.32-11.21-97.16-37-130.72-75.29-6.12-7-12.26-14.5-16.61-22.76-.67-1.27-2.14-1.47-3.46-1.45h0c-2.76,0-6.78,1.09-8.1,3.81a49.57,49.57,0,0,1-2.79,4.93A139.56,139.56,0,0,1,496.69,240a197.84,197.84,0,0,1-40.47,38.12c-45.9,32.93-102.28,47.37-158.31,47-13.09-.09-26.46-.67-39.37-3-2.55-.46-8.58.64-9.38,3.73-8,30.7-11.21,63.15-12.91,94.71-3.81,70.83,3.94,142.85,27.45,210,18.19,52,48.55,98.9,87.57,137.65C381.31,798,416,823,453.31,843c18,9.64,37.1,19.48,56.77,25.24l.83.27a10.62,10.62,0,0,0,8.18-1.2c1.2-.71,3.84-3.22,1.14-4.07-15.85-4.95-31.21-12.1-46-19.51a441,441,0,0,1-98.81-67.32C336,740.66,303.85,697.12,283.19,648,255.78,582.74,245.71,510.21,247,439.81A606.82,606.82,0,0,1,253.35,363c1.84-12.52,4.75-24.77,6.95-37.2.1-.55.27-1.11.41-1.65l-9.38,3.73c11.54,2.08,23.46,2.72,35.16,3.05a325.84,325.84,0,0,0,81.29-7.87c51-11.59,101.08-37.76,135.32-77.94,6.46-7.58,12.77-15.83,17.16-24.84l-8.1,3.81h0l-3.46-1.45c3.73,7.07,8.71,13.61,13.77,19.75a216.81,216.81,0,0,0,44.4,40.2c48.41,33.39,106.54,48.64,165,48.45,14.4,0,29.18-.64,43.39-3.21l-4.92-1.33c7.81,30,11,61.75,12.79,92.63,4,70-3.56,141.27-26.36,207.77a360.59,360.59,0,0,1-86.46,137.8c-29.57,29.6-63.9,54.42-100.73,74.19-12,6.43-23.95,12.19-36.5,17.42-4,1.68-8.1,3.3-12.21,4.82q-2.06.76-4.13,1.49c-1.32.46-2.87,1-1.1.39l-.83.27c-1.48.46-5.72,1.84-5.11,4.12S514.9,868.86,516.25,868.44Z"/><g class="cls-3"><polygon points="858.87 500.99 560.18 500.99 560.18 183.96 463.82 183.96 463.82 500.99 165.13 500.99 165.13 603.26 463.82 603.26 463.82 920.28 560.18 920.28 560.18 603.26 858.87 603.26 858.87 500.99"/><path d="M859.45,500.22h-291c-2,0-4-.14-6,0-2.2.16-1-.36-.86.34-.41-2.86,0-6.1,0-9V306.4c0-40.25.92-80.61,0-120.85,0-.66,0-1.31,0-2,0-.33-.68-.38-.87-.38H464.4c-.65,0-2,.31-2,1.15v317l2-1.15H165.71c-.65,0-2,.31-2,1.15V603.65c0,.33.68.38.87.38h291c2,0,4,.14,6,0,2.2-.16,1,.36.86-.34.41,2.86,0,6.1,0,9V797.85c0,40.25-.92,80.61,0,120.85,0,.66,0,1.31,0,2,0,.33.68.38.87.38H559.6c.65,0,2-.31,2-1.15v-317l-2,1.15H858.29c.65,0,2-.31,2-1.15V500.6c0-.79-2.9-.28-2.9.78V603.65l2-1.15H560.76c-.65,0-2,.31-2,1.15v317l2-1.15H471.44a40.31,40.31,0,0,0-6,0c-1.68.26-.21,0-.2.14-.13-1.77,0-3.59,0-5.36V610.84c0-2,.57-5.07,0-7a3.78,3.78,0,0,1,0-.92c0-.33-.68-.38-.87-.38H171.76c-1.67,0-4.12.47-5.74,0-.54-.16.4.78.55-.24a35.8,35.8,0,0,0,0-5.05V500.6l-2,1.15H463.24c.65,0,2-.31,2-1.15v-317l-2,1.15h89.31a40.31,40.31,0,0,0,6,0c1.68-.26.21,0,.2-.14.13,1.77,0,3.59,0,5.36V493.41c0,2-.57,5.07,0,7a3.78,3.78,0,0,1,0,.92c0,.33.68.38.87.38H858.29C859.31,501.75,861.4,500.22,859.45,500.22Z"/></g><path class="cls-2" d="M515.56,865.88s181.59-56.53,245.07-234.12C815.9,477.13,776.19,325,776.19,325s-79,14.39-157-18.9c-76.73-32.75-103.77-83.32-104.63-85a0,0,0,0,0,0,0c-.8,1.65-25.79,52.21-102.51,85-78,33.3-157,18.9-157,18.9S215.23,477.13,270.5,631.76C334,809.34,515.56,865.88,515.56,865.88Z"/><path d="M516.25,868.44c16.84-5.26,33.11-12.77,48.85-20.64a449.51,449.51,0,0,0,100.19-68.1c39.58-35.78,72-79.22,93.08-128.34,28.23-65.64,38.5-139,37.33-210a613.5,613.5,0,0,0-6.23-78.05c-1.84-12.69-3.73-25.66-7.06-38.06-.16-.58-.28-1.18-.44-1.76-.44-1.7-3.71-1.55-4.92-1.33a216,216,0,0,1-31.83,2.84,308.63,308.63,0,0,1-77.59-7.33c-49.32-11.21-97.16-37-130.72-75.29-6.12-7-12.26-14.5-16.61-22.76-.67-1.27-2.14-1.47-3.46-1.45h0c-2.76,0-6.78,1.09-8.1,3.81a49.57,49.57,0,0,1-2.79,4.93A139.56,139.56,0,0,1,496.69,240a197.84,197.84,0,0,1-40.47,38.12c-45.9,32.93-102.28,47.37-158.31,47-13.09-.09-26.46-.67-39.37-3-2.55-.46-8.58.64-9.38,3.73-8,30.7-11.21,63.15-12.91,94.71-3.81,70.83,3.94,142.85,27.45,210,18.19,52,48.55,98.9,87.57,137.65C381.31,798,416,823,453.31,843c18,9.64,37.1,19.48,56.77,25.24l.83.27a10.62,10.62,0,0,0,8.18-1.2c1.2-.71,3.84-3.22,1.14-4.07-15.85-4.95-31.21-12.1-46-19.51a441,441,0,0,1-98.81-67.32C336,740.66,303.85,697.12,283.19,648,255.78,582.74,245.71,510.21,247,439.81A606.82,606.82,0,0,1,253.35,363c1.84-12.52,4.75-24.77,6.95-37.2.1-.55.27-1.11.41-1.65l-9.38,3.73c11.54,2.08,23.46,2.72,35.16,3.05a325.84,325.84,0,0,0,81.29-7.87c51-11.59,101.08-37.76,135.32-77.94,6.46-7.58,12.77-15.83,17.16-24.84l-8.1,3.81h0l-3.46-1.45c3.73,7.07,8.71,13.61,13.77,19.75a216.81,216.81,0,0,0,44.4,40.2c48.41,33.39,106.54,48.64,165,48.45,14.4,0,29.18-.64,43.39-3.21l-4.92-1.33c7.81,30,11,61.75,12.79,92.63,4,70-3.56,141.27-26.36,207.77a360.59,360.59,0,0,1-86.46,137.8c-29.57,29.6-63.9,54.42-100.73,74.19-12,6.43-23.95,12.19-36.5,17.42-4,1.68-8.1,3.3-12.21,4.82q-2.06.76-4.13,1.49c-1.32.46-2.87,1-1.1.39l-.83.27c-1.48.46-5.72,1.84-5.11,4.12S514.9,868.86,516.25,868.44Z"/><g class="cls-3"><polygon points="858.87 500.99 560.18 500.99 560.18 183.96 463.82 183.96 463.82 500.99 165.13 500.99 165.13 603.26 463.82 603.26 463.82 920.28 560.18 920.28 560.18 603.26 858.87 603.26 858.87 500.99"/><path d="M859.45,500.22h-291c-2,0-4-.14-6,0-2.2.16-1-.36-.86.34-.41-2.86,0-6.1,0-9V306.4c0-40.25.92-80.61,0-120.85,0-.66,0-1.31,0-2,0-.33-.68-.38-.87-.38H464.4c-.65,0-2,.31-2,1.15v317l2-1.15H165.71c-.65,0-2,.31-2,1.15V603.65c0,.33.68.38.87.38h291c2,0,4,.14,6,0,2.2-.16,1,.36.86-.34.41,2.86,0,6.1,0,9V797.85c0,40.25-.92,80.61,0,120.85,0,.66,0,1.31,0,2,0,.33.68.38.87.38H559.6c.65,0,2-.31,2-1.15v-317l-2,1.15H858.29c.65,0,2-.31,2-1.15V500.6c0-.79-2.9-.28-2.9.78V603.65l2-1.15H560.76c-.65,0-2,.31-2,1.15v317l2-1.15H471.44a40.31,40.31,0,0,0-6,0c-1.68.26-.21,0-.2.14-.13-1.77,0-3.59,0-5.36V610.84c0-2,.57-5.07,0-7a3.78,3.78,0,0,1,0-.92c0-.33-.68-.38-.87-.38H171.76c-1.67,0-4.12.47-5.74,0-.54-.16.4.78.55-.24a35.8,35.8,0,0,0,0-5.05V500.6l-2,1.15H463.24c.65,0,2-.31,2-1.15v-317l-2,1.15h89.31a40.31,40.31,0,0,0,6,0c1.68-.26.21,0,.2-.14.13,1.77,0,3.59,0,5.36V493.41c0,2-.57,5.07,0,7a3.78,3.78,0,0,1,0,.92c0,.33.68.38.87.38H858.29C859.31,501.75,861.4,500.22,859.45,500.22Z"/></g><path class="cls-2" d="M512,865.88S330.41,809.34,266.93,631.76C211.67,477.13,251.38,325,251.38,325s79,14.39,157-18.9c76.73-32.75,103.77-83.32,104.63-85a0,0,0,0,1,0,0c.8,1.65,25.79,52.21,102.51,85,78,33.3,157,18.9,157,18.9s39.71,152.15-15.56,306.77C693.59,809.34,512,865.88,512,865.88Z"/><path d="M516.66,863.24c-15.85-4.95-31.21-12.1-46-19.51a441,441,0,0,1-98.81-67.32c-39.42-35.75-71.55-79.29-92.2-128.45-27.41-65.22-37.48-137.75-36.15-208.15A606.82,606.82,0,0,1,249.79,363c1.84-12.52,4.75-24.77,6.95-37.2.1-.55.27-1.11.41-1.65l-9.38,3.73c11.54,2.08,23.46,2.72,35.16,3.05a325.84,325.84,0,0,0,81.29-7.87c51.38-11.68,101.4-38.19,136.58-77.95,6.73-7.61,13.26-15.81,18-24.83l-8.1,3.81h0l-3.46-1.45c3.44,7.06,8.23,13.62,13.07,19.76a203.68,203.68,0,0,0,43.29,40.19c48.07,33.62,106.46,48.64,164.71,48.45,14.4,0,29.18-.64,43.39-3.21l-4.92-1.33c7.81,30,11,61.75,12.79,92.63,4,70-3.56,141.27-26.36,207.77a360.59,360.59,0,0,1-86.46,137.8c-29.57,29.6-63.9,54.42-100.73,74.19-12,6.43-23.95,12.19-36.5,17.42-4,1.68-8.1,3.3-12.21,4.82q-2.06.76-4.13,1.49c-1.32.46-2.87,1-1.1.39l-.83.27c-1.48.46-5.72,1.84-5.11,4.12s5.14,1.43,6.48,1c16.84-5.26,33.11-12.77,48.85-20.64a449.51,449.51,0,0,0,100.19-68.1c39.58-35.78,72-79.22,93.08-128.34,28.23-65.64,38.5-139,37.33-210a613.5,613.5,0,0,0-6.23-78.05c-1.84-12.69-3.73-25.66-7.06-38.06-.16-.58-.28-1.18-.44-1.76-.44-1.7-3.71-1.55-4.92-1.33a216,216,0,0,1-31.83,2.84,308.63,308.63,0,0,1-77.59-7.33C615.15,306.48,567.3,281,534.64,242.33c-5.88-7-11.75-14.51-15.77-22.76-.64-1.31-2.17-1.43-3.46-1.45h0c-2.82,0-6.7,1.16-8.1,3.81-.34.65.31-.5.08-.15s-.45.81-.69,1.21c-.78,1.3-1.57,2.59-2.4,3.87A150.11,150.11,0,0,1,494.56,240,210.91,210.91,0,0,1,453,278.1c-46.25,32.7-102.39,47.38-158.64,47-13.09-.09-26.46-.67-39.37-3-2.55-.46-8.58.64-9.38,3.73-8,30.7-11.21,63.15-12.91,94.71-3.81,70.83,3.94,142.85,27.45,210,18.19,52,48.55,98.9,87.57,137.65,30,29.83,64.77,54.84,102,74.85,18,9.64,37.1,19.48,56.77,25.24l.83.27a10.62,10.62,0,0,0,8.18-1.2C516.72,866.59,519.36,864.08,516.66,863.24Z"/><g class="cls-4"><polygon points="171.81 500.99 470.5 500.99 470.5 183.96 566.86 183.96 566.86 500.99 865.55 500.99 865.55 603.26 566.86 603.26 566.86 920.28 470.5 920.28 470.5 603.26 171.81 603.26 171.81 500.99"/><path d="M171.23,501.75H469.92c.65,0,2-.31,2-1.15v-317l-2,1.15h89.31a40.31,40.31,0,0,0,6,0c1.68-.26.21,0,.2-.14.13,1.77,0,3.59,0,5.36V493.41c0,2-.57,5.07,0,7a3.78,3.78,0,0,1,0,.92c0,.33.68.38.87.38H858.92c1.67,0,4.12-.47,5.74,0,.54.16-.4-.78-.55.24a35.8,35.8,0,0,0,0,5.05v96.61l2-1.15H567.44c-.65,0-2,.31-2,1.15v317l2-1.15H478.12a40.31,40.31,0,0,0-6,0c-1.68.26-.21,0-.2.14-.13-1.77,0-3.59,0-5.36V610.84c0-2,.57-5.07,0-7a3.78,3.78,0,0,1,0-.92c0-.33-.68-.38-.87-.38H178.44c-1.67,0-4.12.47-5.74,0-.54-.16.4.78.55-.24a35.8,35.8,0,0,0,0-5.05V500.6c0-.79-2.9-.28-2.9.78V603.65c0,.33.68.38.87.38h291c2,0,4,.14,6,0,2.2-.16,1,.36.86-.34.41,2.86,0,6.1,0,9V797.85c0,40.25-.92,80.61,0,120.85,0,.66,0,1.31,0,2,0,.33.68.38.87.38h96.36c.65,0,2-.31,2-1.15v-317l-2,1.15H865c.65,0,2-.31,2-1.15V500.6c0-.33-.68-.38-.87-.38h-291c-2,0-4-.14-6,0-2.2.16-1-.36-.86.34-.41-2.86,0-6.1,0-9V306.4c0-40.25.92-80.61,0-120.85,0-.66,0-1.31,0-2,0-.33-.68-.38-.87-.38H471.08c-.65,0-2,.31-2,1.15v317l2-1.15H172.39C171.37,500.22,169.28,501.75,171.23,501.75Z"/></g></g><g id="Shield-Sand"><path class="cls-2" d="M352.54,836s31.35-18.62,91.54-20.88S528.55,833,580.46,830.7c35.43-1.58,68.14-11.74,68.14-11.74l2.64,49.27-262.93,11.7Z"/><path d="M652.11,818s-1.1.47-3.2,1.28-5.19,2-9.18,3.26-8.87,2.83-14.54,4.31-12.11,3-19.24,4.3l-2.7.49-2.77.44c-1.86.29-3.76.61-5.7.84s-3.91.53-5.93.7l-3,.28-1.54.14-.78.07-.86,0-6.24.28c-1.06,0-2.1.11-3.19.11l-3.32,0c-2.22,0-4.49,0-6.73-.15l-6.79-.45a234,234,0,0,1-27.73-4.38c-9.29-1.95-18.54-4.25-27.78-6.13a268.61,268.61,0,0,0-27.66-4.26l-6.86-.59-6.81-.32-3.38-.15h-3.36l-6.66,0h-1.17l-.42,0-1.67.06-3.31.12-3.28.12c-1.09,0-2.18.05-3.22.14l-6.25.43-3.08.22-3,.31-6,.6-5.77.76c-3.8.43-7.42,1.12-10.93,1.68-7,1.34-13.34,2.65-18.92,4.18s-10.41,3-14.34,4.35a107.59,107.59,0,0,0-12.15,4.91s1-.71,2.88-1.89,4.77-2.86,8.58-4.67c1.88-1,4-1.88,6.33-2.94s4.88-2.06,7.65-3c1.38-.5,2.8-1.06,4.28-1.55l4.58-1.52c1.56-.55,3.2-1,4.87-1.45s3.37-1,5.13-1.42c3.52-.84,7.18-1.83,11-2.57,1.91-.4,3.87-.8,5.85-1.17l6.07-1,3.1-.5,3.18-.38,6.48-.77c2.19-.26,4.33-.37,6.53-.55l3.31-.25,1.66-.13.42,0,.49,0,.85,0,6.88-.22,3.48-.09,3.51.06,7.09.14,7.15.49a240.7,240.7,0,0,1,28.71,4.15c9.47,2,18.77,4.32,27.85,6.43,2.27.55,4.53,1,6.78,1.5l3.36.73,3.35.63c4.45.89,8.86,1.49,13.2,2.12l6.48.68c1.07.14,2.13.17,3.18.24l3.14.19,3.11.19c1,.06,2.12,0,3.16,0l6.24.06h.58c-.15,0,0,0,0,0h.09l.75,0,1.5,0,3-.09c2,0,3.9-.22,5.8-.3s3.78-.26,5.62-.4l2.73-.22,2.67-.28c7.06-.76,13.54-1.62,19.26-2.56s10.7-1.85,14.8-2.68,7.31-1.52,9.49-2Z"/><path d="M408.33,840.67c3.86,0,3.87-6,0-6s-3.87,6,0,6Z"/><path d="M387,840.67c3.86,0,3.87-6,0-6s-3.87,6,0,6Z"/><path d="M400.33,849.83a1.5,1.5,0,0,0,0-3,1.5,1.5,0,0,0,0,3Z"/><path d="M469.67,869.33c3.86,0,3.87-6,0-6s-3.87,6,0,6Z"/><path d="M479.33,828c3.86,0,3.87-6,0-6s-3.87,6,0,6Z"/><path d="M449.67,828.17c5.79,0,5.8-9,0-9s-5.8,9,0,9Z"/><path d="M563.67,850c3.86,0,3.87-6,0-6s-3.87,6,0,6Z"/><path d="M555.67,842.67c3.86,0,3.87-6,0-6s-3.87,6,0,6Z"/><path d="M595,842.67c3.86,0,3.87-6,0-6s-3.87,6,0,6Z"/><path d="M642.33,838c3.86,0,3.87-6,0-6s-3.87,6,0,6Z"/><path d="M625.67,867.17a1.5,1.5,0,0,0,0-3,1.5,1.5,0,0,0,0,3Z"/><path d="M679,839.33c3.86,0,3.87-6,0-6s-3.87,6,0,6Z"/><path d="M672.33,825.83a1.5,1.5,0,0,0,0-3,1.5,1.5,0,0,0,0,3Z"/><path d="M360.33,884.67c3.86,0,3.87-6,0-6s-3.87,6,0,6Z"/><path d="M376.33,854c3.86,0,3.87-6,0-6s-3.87,6,0,6Z"/><path d="M357,863.17a1.5,1.5,0,0,0,0-3,1.5,1.5,0,0,0,0,3Z"/><path d="M351,849c3.86,0,3.87-6,0-6s-3.87,6,0,6Z"/><path d="M440,869.5a1.5,1.5,0,0,0,0-3,1.5,1.5,0,0,0,0,3Z"/><path d="M518,869c3.86,0,3.87-6,0-6s-3.87,6,0,6Z"/><path d="M324,872c3.86,0,3.87-6,0-6s-3.87,6,0,6Z"/><path d="M411,873.5a1.5,1.5,0,0,0,0-3,1.5,1.5,0,0,0,0,3Z"/><path d="M594,850c3.86,0,3.87-6,0-6s-3.87,6,0,6Z"/><path d="M650,850.5a1.5,1.5,0,0,0,0-3,1.5,1.5,0,0,0,0,3Z"/><path d="M650,845.5a1.5,1.5,0,0,0,0-3,1.5,1.5,0,0,0,0,3Z"/><path d="M513,852.5c5.79,0,5.8-9,0-9s-5.8,9,0,9Z"/><path d="M537,857.5a1.5,1.5,0,0,0,0-3,1.5,1.5,0,0,0,0,3Z"/><path d="M537,857.5a1.5,1.5,0,0,0,0-3,1.5,1.5,0,0,0,0,3Z"/><path d="M539,857.5a1.5,1.5,0,0,0,0-3,1.5,1.5,0,0,0,0,3Z"/><path d="M553,862.5a1.5,1.5,0,0,0,0-3,1.5,1.5,0,0,0,0,3Z"/><path d="M631,875.5a1.5,1.5,0,0,0,0-3,1.5,1.5,0,0,0,0,3Z"/><path d="M652,875.5a1.5,1.5,0,0,0,0-3,1.5,1.5,0,0,0,0,3Z"/><path d="M648,862.5a1.5,1.5,0,0,0,0-3,1.5,1.5,0,0,0,0,3Z"/></g><g id="Trident"><polygon points="517.74 570.32 553.8 908.65 517.74 953.75 517.74 570.32"/><path class="cls-2" d="M518.74,589.14l34,319.21-34,42.55V589.14m-2-37.63V956.6L554.84,909l-38.1-357.45Z"/><polygon points="517.74 312.34 555.75 392.62 526.38 379.67 533.6 531.55 601.01 531.46 517.74 550.25 517.74 312.34"/><path class="cls-2" d="M518.74,316.79l35,73.83-25.44-11.21-3-1.3.15,3.23,7.1,149.31.09,1.91h1.91l57.42-.08L518.74,549V316.79m-2-8.9V551.51L610,530.45l-75.48.11-7.1-149.31,30.35,13.38-41.07-86.72Z"/><polygon class="cls-2" points="610.03 530.45 668.04 440.73 619.03 444.37 710.81 413.09 610.03 530.45"/><path d="M610,530.45l28.58-45.13,28.76-45,.72,1.22-49,3.75-7.14.55,6.78-2.32,45.86-15.72,45.92-15.56,3.17-1.07-2.18,2.53L686.26,443l-25.35,29.2-25.39,29.17Zm0,0,24.9-29.59,25-29.51,25-29.47,25.14-29.38,1,1.46-45.86,15.72-45.92,15.56-.36-1.78,49-3.51,1.6-.11-.87,1.33-29.24,44.7Z"/><polygon points="611.07 530.78 703.25 423.43 614.31 567.43 611.07 530.78"/><path class="cls-2" d="M695.69,433.77,615,564.34l-2.94-33.23,83.59-97.34m15.13-20.68L610,530.45l3.55,40.07,97.23-157.43Z"/><polygon class="cls-2" points="517.83 552.28 609.14 531.67 612.49 569.48 528.26 566.99 549.11 845.79 517.83 552.28"/><path d="M608.24,532.9l3.15,35.55-82-2.42-2.22-.07.17,2.21,16,214.46L518.91,553.06l89.33-20.16m1.79-2.45-93.3,21.06L554.84,909,529.34,568l84.25,2.49L610,530.45Z"/><polygon class="cls-2" points="479.67 908.65 515.74 570.32 515.74 953.75 479.67 908.65"/><path d="M514.74,589.14V950.9l-34-42.55,34-319.21m2-37.63L478.63,909l38.1,47.64V551.51Z"/><polygon class="cls-2" points="432.47 531.46 499.87 531.55 507.09 379.67 477.72 392.62 515.74 312.34 515.74 550.25 432.47 531.46"/><path d="M514.74,316.79V549L441.5,532.47l57.42.08h1.91l.09-1.91L508,381.33l.15-3.23-3,1.3-25.44,11.21,35-73.83m2-8.9-41.07,86.72L506,381.24l-7.1,149.31-75.48-.11,93.3,21.06V307.89Z"/><polygon points="423.44 530.45 365.43 440.73 414.44 444.37 322.66 413.09 423.44 530.45"/><path class="cls-2" d="M423.44,530.45,394,485.86l-29.24-44.7-.87-1.33,1.6.11,49,3.51-.36,1.78-45.92-15.56L322.37,414l1-1.46,25.14,29.38,25,29.47,25,29.51Zm0,0L398,501.36l-25.39-29.17L347.21,443,322,413.68l-2.18-2.53,3.17,1.07,45.92,15.56,45.86,15.72,6.78,2.32-7.14-.55-49-3.75.72-1.22,28.76,45Z"/><polygon class="cls-2" points="330.22 423.43 422.4 530.78 419.16 567.43 330.22 423.43"/><path d="M337.79,433.77l83.59,97.34-2.94,33.23L337.79,433.77m-15.12-20.68,97.23,157.43,3.55-40.07L322.66,413.09Z"/><polygon points="505.21 566.99 420.98 569.48 424.33 531.67 515.65 552.28 484.36 845.8 505.21 566.99"/><path class="cls-2" d="M425.23,532.9l89.33,20.16L490.09,782.63l16-214.46.17-2.21-2.22.07-82,2.42,3.15-35.55m-1.79-2.45-3.55,40.07L504.13,568,478.63,909l38.1-357.45-93.3-21.06Z"/><path class="cls-2" d="M457.83,923.57S600.93,893,636.56,918.25v41.42H457.83Z"/><path d="M457.83,923.57l1.94-.67c1.27-.41,3.13-1.05,5.53-1.75s5.29-1.6,8.65-2.48,7.14-1.92,11.3-2.91c8.31-2,18.07-4.05,28.61-5.84,2.63-.46,5.32-.88,8-1.29s5.48-.82,8.26-1.17c5.57-.75,11.25-1.35,16.94-1.89s11.4-.9,17-1.11c2.82-.12,5.62-.2,8.38-.22s5.5,0,8.2,0a171.74,171.74,0,0,1,29.39,2.85,89.28,89.28,0,0,1,11.49,3,53.07,53.07,0,0,1,8.43,3.6,34.33,34.33,0,0,1,4.94,3.17l1.57,1.34-1.84-.9c-.61-.26-1.36-.58-2.25-.93s-1.93-.7-3.11-1a71,71,0,0,0-8.58-1.91c-3.35-.54-7.16-.92-11.33-1.19a279.63,279.63,0,0,0-28.62,0l-8,.4-8.19.52c-5.51.41-11.12.83-16.72,1.36s-11.21,1-16.73,1.59L515,917.8l-28.83,3.08L474.58,922c-3.44.37-6.45.62-8.93.86s-4.44.38-5.77.51Z"/><path d="M461,945.5c5.79,0,5.8-9,0-9s-5.8,9,0,9Z"/><path d="M614.33,936.83c5.79,0,5.8-9,0-9s-5.8,9,0,9Z"/><path d="M664.33,936.83c5.79,0,5.8-9,0-9s-5.8,9,0,9Z"/><path d="M465,959.33c3.86,0,3.87-6,0-6s-3.87,6,0,6Z"/><path d="M455.67,959.33c3.86,0,3.87-6,0-6s-3.87,6,0,6Z"/><path d="M402.33,945.33c3.86,0,3.87-6,0-6s-3.87,6,0,6Z"/><path d="M629,953.33c3.86,0,3.87-6,0-6s-3.87,6,0,6Z"/><path d="M611,954c3.86,0,3.87-6,0-6s-3.87,6,0,6Z"/><path d="M593.67,940.67c3.86,0,3.87-6,0-6s-3.87,6,0,6Z"/><path d="M529.67,945.33c3.86,0,3.87-6,0-6s-3.87,6,0,6Z"/><path d="M529.67,945.33c3.86,0,3.87-6,0-6s-3.87,6,0,6Z"/><path d="M502.33,940.67c3.86,0,3.87-6,0-6s-3.87,6,0,6Z"/><path d="M420.33,943.83a1.5,1.5,0,0,0,0-3,1.5,1.5,0,0,0,0,3Z"/><path d="M410.33,951.17a1.5,1.5,0,0,0,0-3,1.5,1.5,0,0,0,0,3Z"/><path d="M423,947.17a1.5,1.5,0,0,0,0-3,1.5,1.5,0,0,0,0,3Z"/><path d="M429.67,949.83a1.5,1.5,0,0,0,0-3,1.5,1.5,0,0,0,0,3Z"/><path d="M498.33,946.5a1.5,1.5,0,0,0,0-3,1.5,1.5,0,0,0,0,3Z"/><path d="M506.33,946.5a1.5,1.5,0,0,0,0-3,1.5,1.5,0,0,0,0,3Z"/><path d="M506.33,946.5a1.5,1.5,0,0,0,0-3,1.5,1.5,0,0,0,0,3Z"/><path d="M511,950.5a1.5,1.5,0,0,0,0-3,1.5,1.5,0,0,0,0,3Z"/><path d="M620.33,943.17a1.5,1.5,0,0,0,0-3,1.5,1.5,0,0,0,0,3Z"/><path d="M610.33,943.83a1.5,1.5,0,0,0,0-3,1.5,1.5,0,0,0,0,3Z"/><path d="M573.67,927.17a1.5,1.5,0,0,0,0-3,1.5,1.5,0,0,0,0,3Z"/><path d="M551.67,927.17a1.5,1.5,0,0,0,0-3,1.5,1.5,0,0,0,0,3Z"/><path d="M561,927.83a1.5,1.5,0,0,0,0-3,1.5,1.5,0,0,0,0,3Z"/><path d="M580.33,949.17a1.5,1.5,0,0,0,0-3,1.5,1.5,0,0,0,0,3Z"/><path d="M404.85,910.2l1-.29a24.26,24.26,0,0,1,3-.67c.65-.1,1.39-.25,2.18-.33s1.66-.13,2.59-.2l3,0c1,0,2.14.11,3.28.2a58.29,58.29,0,0,1,7.29,1.22A75.23,75.23,0,0,1,435,912.4c2.68.92,5.39,2,8.1,3.18s5.4,2.44,8.07,3.71l7.87,3.77c2.6,1.19,5.15,2.37,7.65,3.4s4.92,2,7.26,2.75,4.58,1.41,6.67,1.94l3,.65,2.77.45c.87.09,1.7.15,2.47.25s1.47.08,2.11.13c1.29.09,2.3,0,3,0h1.08l-1,.33a23.79,23.79,0,0,1-3,.8c-.65.12-1.37.31-2.16.42s-1.65.2-2.58.31l-3,.14c-1,0-2.14,0-3.29-.09a55.4,55.4,0,0,1-7.33-1,70.67,70.67,0,0,1-7.95-2.13c-2.71-.88-5.44-1.93-8.16-3.08s-5.44-2.42-8.11-3.69l-7.88-3.83c-2.59-1.23-5.14-2.44-7.62-3.52s-4.9-2.09-7.22-2.91-4.55-1.54-6.63-2.13l-3-.75-2.76-.55c-.87-.12-1.69-.22-2.46-.35s-1.46-.15-2.1-.22c-1.27-.14-2.32-.14-3-.18Z"/></g><g id="Columns"><path d="M308.8,407.77c.15,29.9-29.72,34.4-44.78,24.39-.31-.2-.62-.42-.91-.63l0,0a1.38,1.38,0,0,0-.34-1.93l-.32-.24.43-.51c3.35,2.74,8.16,4.88,15.07,5.17l1.24,0c9.65,0,17.47-4.83,21.59-13.37,5-10.41,3.53-23.87-3.53-32-9.79-11.28-27.89-10.81-42.42-10.42-4.26.11-8.28.22-11.77,0H180.75c-3.49.17-7.5.07-11.76,0-14.54-.39-32.64-.86-42.43,10.42-7.06,8.15-8.55,21.61-3.53,32C127.14,429.16,135,434,144.62,434l1.24,0c6.9-.29,11.72-2.43,15.06-5.17l.43.51-.32.24a1.39,1.39,0,0,0-.34,1.93l.05,0C146,442.34,114.89,438.29,115,407.77c.16-31.29,30.66-33.34,30.66-33.34a2,2,0,0,0-.13-1.24l1.55-.08a5.4,5.4,0,0,1,.58,1.52h1.1c.53-2.66,4.15-5.74,4.15-5.74h2s3.61,3.08,4.15,5.74h1.09c.54-2.66,4.15-5.74,4.15-5.74h1.08s3.61,3.08,4.15,5.74h1.1c.53-2.66,4.15-5.74,4.15-5.74h1.07s3.62,3.08,4.15,5.74h1.1c.54-2.66,4.15-5.74,4.15-5.74h1.08s3.61,3.08,4.15,5.74h1.1c.53-2.66,4.14-5.74,4.14-5.74h1.08s3.62,3.08,4.15,5.74h1.1c.53-2.66,4.15-5.74,4.15-5.74h1.08s3.61,3.08,4.14,5.74h1.1c.54-2.66,4.15-5.74,4.15-5.74h1.08s3.61,3.08,4.15,5.74h1.1c.53-2.66,4.14-5.74,4.14-5.74h1.09s3.61,3.08,4.14,5.74h1.1c.54-2.66,4.15-5.74,4.15-5.74h1.08s3.61,3.08,4.14,5.74H244c.54-2.66,4.15-5.74,4.15-5.74h1.08s3.62,3.08,4.15,5.74h1.1c.53-2.66,4.15-5.74,4.15-5.74h1.08s3.61,3.08,4.14,5.74H265c.54-2.66,4.15-5.74,4.15-5.74h1.08s3.61,3.08,4.15,5.74h1.1a5.73,5.73,0,0,1,.72-1.77l2.15.22a2,2,0,0,0-.18,1.35S308.63,376.48,308.8,407.77Z"/><path class="cls-2" d="M297.28,388.6c7.07,8.15,8.55,21.61,3.53,32C296.7,429.16,288.87,434,279.23,434L278,434c-6.9-.29-11.72-2.43-15.07-5.17a21.38,21.38,0,0,1-6.59-9.54c-2.89-8.2-1.19-18.08,3.87-22.51,8.81-7.7,19.36-4,19.81-3.83a1.38,1.38,0,0,1-.95,2.6h0c-.64-.22-9.66-3.11-17,3.33-3.66,3.2-5.88,11.57-3.08,19.51,1.61,4.57,6.24,12.31,19.17,12.85,12.41.51,18-7.16,20.23-11.78,4.48-9.31,3.14-21.78-3.14-29-8.93-10.29-25.58-9.85-40.26-9.47-4.3.11-8.35.23-11.94,0H180.85c-3.59.18-7.64.07-11.94,0-14.68-.38-31.32-.83-40.26,9.47-6.28,7.23-7.62,19.7-3.14,29,2.22,4.62,7.82,12.3,20.23,11.78,12.93-.55,17.56-8.28,19.17-12.85,2.79-7.95.57-16.31-3.09-19.51-7.59-6.64-17-3.34-17-3.32a1.32,1.32,0,0,1-.48.09,1.37,1.37,0,0,1-1.29-.91,1.39,1.39,0,0,1,.83-1.77c.44-.16,11-3.87,19.81,3.83,5.05,4.43,6.76,14.31,3.87,22.51a21.48,21.48,0,0,1-6.6,9.54c-3.34,2.74-8.16,4.88-15.06,5.17l-1.24,0c-9.65,0-17.48-4.83-21.6-13.37-5-10.41-3.53-23.87,3.53-32,9.8-11.28,27.89-10.81,42.43-10.42,4.26.11,8.27.22,11.76,0h62.34c3.49.17,7.51.07,11.77,0C269.4,377.78,287.49,377.32,297.28,388.6Z"/><path d="M295.19,390.4c6.28,7.23,7.62,19.7,3.14,29-2.23,4.62-7.82,12.3-20.23,11.78-12.93-.55-17.56-8.28-19.17-12.85-2.8-7.95-.57-16.31,3.08-19.51,7.36-6.44,16.37-3.54,17-3.33l-.39,2.36a13.5,13.5,0,0,0-2.16-.15c-5.64.05-12.09,3.56-13.47,10.19a15.24,15.24,0,0,0,3,13.23c3.2,3.82,8.41,5.9,14.26,5.71,5.53-.18,11.07-4.59,13.79-11,3.2-7.55,1.71-15.83-4-22.17s-14.4-8.42-22.85-5.62a23.33,23.33,0,0,0-16.27,20.06,26.67,26.67,0,0,0,10.34,23.67,1.37,1.37,0,0,0,.79.24V751.21h5.07v1.46H155.6v-1.46h6.23V432.06a1.41,1.41,0,0,0,.79-.24A26.71,26.71,0,0,0,173,408.15a23.34,23.34,0,0,0-16.27-20.06c-8.45-2.8-17.21-.64-22.86,5.62s-7.21,14.62-4,22.17c2.71,6.38,8.25,10.79,13.79,11,5.84.19,11-1.88,14.26-5.71a15.23,15.23,0,0,0,2.94-13.23c-1.38-6.63-7.82-10.13-13.46-10.19a13.5,13.5,0,0,0-2.55.22l-.52-2.34a1.32,1.32,0,0,0,.48-.09c.1,0,9.46-3.33,17,3.32,3.66,3.2,5.88,11.57,3.09,19.51-1.61,4.57-6.24,12.31-19.17,12.85-12.42.51-18-7.16-20.23-11.78-4.49-9.31-3.14-21.78,3.14-29,8.94-10.29,25.58-9.85,40.26-9.47,4.3.11,8.35.23,11.94,0H243c3.59.18,7.64.07,11.94,0C269.61,380.56,286.26,380.11,295.19,390.4ZM254.24,743.29V431.05a3.44,3.44,0,1,0-6.89,0V743.29a3.44,3.44,0,0,0,6.89,0ZM251,391.58h-7.15s-3,7.6-5.06,10.37-2.2,7.71,1.27,6.33S248.32,402.21,251,391.58Zm-3.41,23.18a3,3,0,0,0-3-3H178.93a3,3,0,1,0,0,6h65.64A3,3,0,0,0,247.6,414.75Zm-8.92,328.54V431.05a3.44,3.44,0,1,0-6.89,0V743.29a3.44,3.44,0,0,0,6.89,0Zm-4.14-344.6c1.73-4.49.67-6.39-.52-7.11a5.9,5.9,0,0,0-3.8-1.27c-2.25.09-5.1,7.47-6.66,9.74s-1.55,7.72,1.13,8S232.81,403.18,234.54,398.69Zm-11.42,344.6V431.05a3.44,3.44,0,1,0-6.89,0V743.29a3.44,3.44,0,0,0,6.89,0Zm-5.31-352.46H205.62c.6,14.25,6.1,17.2,6.1,17.2C217.46,405.18,217.81,390.83,217.81,390.83ZM207.55,743.29V431.05a3.44,3.44,0,1,0-6.89,0V743.29a3.44,3.44,0,0,0,6.89,0ZM197.92,408c2.67-.25,2.67-5.7,1.13-8s-4.41-9.65-6.66-9.74a5.9,5.9,0,0,0-3.8,1.27c-1.19.72-2.25,2.62-.52,7.11S195.25,408.28,197.92,408ZM192,743.29V431.05a3.45,3.45,0,1,0-6.9,0V743.29a3.45,3.45,0,0,0,6.9,0Zm-9.44-335c3.46,1.38,3.33-3.57,1.27-6.33s-5.07-10.37-5.07-10.37h-7.14C174.3,402.21,179.1,406.89,182.55,408.28Zm-6.12,335V431.05a3.45,3.45,0,0,0-6.9,0V743.29a3.45,3.45,0,0,0,6.9,0Z"/><path d="M288,395.55c7.16,8,4.84,16.1,3.51,19.24-2.3,5.41-6.86,9.15-11.34,9.3-5,.17-9.4-1.55-12.05-4.72-2.42-2.88-3.24-6.65-2.35-10.9,1.07-5.13,6.36-7.95,10.78-8h.1c4.14,0,7.1,2.18,7.93,5.84.89,3.93-.12,6.92-2.82,8.43-2.49,1.4-5.52,1-6.79-.22a5.22,5.22,0,0,1-1.38-5.49,2.37,2.37,0,0,1,2.17-1.64,3,3,0,0,1,2.14.57,1.5,1.5,0,0,1,.43,1,1.39,1.39,0,0,0,1.37,1.38h0A1.37,1.37,0,0,0,281,409a4.25,4.25,0,0,0-1.22-2.94,5.49,5.49,0,0,0-4.17-1.42,5.12,5.12,0,0,0-4.7,3.4,8,8,0,0,0,2,8.48c2.3,2.24,6.71,2.53,10.07.65,1.81-1,5.83-4.14,4.17-11.45a10,10,0,0,0-8.58-7.85l.39-2.36h0a1.38,1.38,0,0,0,.95-2.6c-.45-.16-11-3.87-19.81,3.83-5.06,4.43-6.77,14.31-3.87,22.51a21.38,21.38,0,0,0,6.59,9.54l-.43.51a23.9,23.9,0,0,1-8.85-20.9A20.6,20.6,0,0,1,268,390.72C275.42,388.27,283.06,390.12,288,395.55Z"/><path d="M288.57,362.4v6s-1.11,2.53-6.17,2.84c-2.65.17-3.69,1-4.08,1.81l-2.15-.22a18.5,18.5,0,0,1,3.42-4h-4.32v2.67h-.76v-2.67H264.8v2.67H264v-2.67h-9.72v2.67h-.76v-2.67h-9.72v2.67h-.76v-2.67h-9.72v2.67h-.76v-2.67h-9.72v2.67h-.76v-2.67h-9.72v2.67h-.76v-2.67h-9.72v2.67h-.76v-2.67h-9.72v2.67h-.76v-2.67H181v2.67h-.76v-2.67h-9.72v2.67h-.76v-2.67H160v2.67h-.76v-2.67H148.63v2.67h-.76v-2.67h-4.32a17.86,17.86,0,0,1,3.57,4.22l-1.55.08c-.36-.81-1.37-1.75-4.13-1.92-5.06-.31-6.17-2.84-6.17-2.84v-6h153.3Z"/><path d="M287.76,779.06v33H136.08v-33H142s-5.06-1.17-4.58-6.43a7.55,7.55,0,0,1,5.35-6.53v-4.28l7.89-.2c3.9-3.4-1.16-6.71-1.16-6.71v-3.7h6.08v1.46a1.5,1.5,0,0,0,0,3h111.5a1.5,1.5,0,0,0,0-3v-1.46h7.23v3.7s-5.06,3.31-1.16,6.71l7.89.2v4.28a7.55,7.55,0,0,1,5.36,6.53c.49,5.25-4.59,6.43-4.59,6.43Zm-12.26-8.3a3.11,3.11,0,0,0-3.11-3.11H151.68a3.11,3.11,0,0,0,0,6.22H272.39A3.11,3.11,0,0,0,275.5,770.76Z"/><path class="cls-2" d="M254.32,368.89h4.32s-3.62,3.08-4.15,5.74h-1.1c-.53-2.66-4.15-5.74-4.15-5.74h4.32v2.67h.76Z"/><path class="cls-2" d="M254.24,431.05V743.29a3.44,3.44,0,0,1-6.89,0V431.05a3.44,3.44,0,1,1,6.89,0Z"/><path class="cls-2" d="M243.86,391.58H251c-2.69,10.64-7.49,15.32-10.94,16.7s-3.34-3.57-1.27-6.33S243.86,391.58,243.86,391.58Z"/><path class="cls-2" d="M238.68,431.05V743.29a3.44,3.44,0,0,1-6.89,0V431.05a3.44,3.44,0,1,1,6.89,0Z"/><path class="cls-2" d="M233.36,368.89h4.32s-3.61,3.08-4.15,5.74h-1.1c-.53-2.66-4.14-5.74-4.14-5.74h4.32v2.67h.76Z"/><path class="cls-2" d="M234,391.58c1.19.72,2.25,2.62.52,7.11s-7.17,9.59-9.85,9.33-2.67-5.7-1.13-8,4.41-9.65,6.66-9.74A5.9,5.9,0,0,1,234,391.58Z"/><path class="cls-2" d="M223.12,431.05V743.29a3.44,3.44,0,0,1-6.89,0V431.05a3.44,3.44,0,1,1,6.89,0Z"/><path class="cls-2" d="M205.62,390.83h12.19s-.35,14.36-6.1,17.2C211.71,408,206.22,405.08,205.62,390.83Z"/><path class="cls-2" d="M207.55,431.05V743.29a3.44,3.44,0,0,1-6.89,0V431.05a3.44,3.44,0,1,1,6.89,0Z"/><path class="cls-2" d="M199.05,400c1.55,2.28,1.55,7.72-1.13,8s-8.12-4.84-9.85-9.33-.67-6.39.52-7.11a5.9,5.9,0,0,1,3.8-1.27C194.64,390.39,197.5,397.78,199.05,400Z"/><path class="cls-2" d="M192,431.05V743.29a3.45,3.45,0,0,1-6.9,0V431.05a3.45,3.45,0,1,1,6.9,0Z"/><path class="cls-2" d="M183.82,401.94c2.07,2.76,2.19,7.71-1.27,6.33s-8.25-6.06-10.94-16.7h7.14S181.74,399.17,183.82,401.94Z"/><path class="cls-2" d="M176.43,431.05V743.29a3.45,3.45,0,0,1-6.9,0V431.05a3.45,3.45,0,0,1,6.9,0Z"/><path d="M170.2,408.41a23.88,23.88,0,0,1-8.86,20.9l-.43-.51a21.48,21.48,0,0,0,6.6-9.54c2.88-8.2,1.18-18.08-3.87-22.51-8.81-7.7-19.37-4-19.81-3.83a1.39,1.39,0,0,0-.83,1.77,1.37,1.37,0,0,0,1.29.91l.52,2.34a10,10,0,0,0-8.2,7.78C135,413,139,416.17,140.79,417.18c3.35,1.88,7.77,1.59,10.07-.65a8,8,0,0,0,2-8.48,5.12,5.12,0,0,0-4.69-3.4,5.51,5.51,0,0,0-4.18,1.42,4.22,4.22,0,0,0-1.21,2.94,1.37,1.37,0,0,0,1.38,1.33h0a1.41,1.41,0,0,0,1.37-1.38,1.45,1.45,0,0,1,.43-1,2.93,2.93,0,0,1,2.13-.57,2.37,2.37,0,0,1,2.18,1.64,5.25,5.25,0,0,1-1.39,5.49c-1.26,1.23-4.29,1.62-6.78.22-2.71-1.51-3.71-4.51-2.82-8.43.83-3.66,3.79-5.84,7.93-5.84h.1c4.43,0,9.71,2.85,10.79,8,.88,4.25.07,8-2.36,10.9-2.66,3.16-7.05,4.88-12.05,4.72-4.48-.15-9-3.89-11.33-9.3-1.34-3.14-3.66-11.28,3.5-19.24,4.91-5.44,12.54-7.29,19.94-4.84A20.59,20.59,0,0,1,170.2,408.41Z"/><path d="M909,407.77c.15,29.9-29.72,34.4-44.78,24.39-.31-.2-.62-.42-.91-.63l0,0a1.38,1.38,0,0,0-.34-1.93l-.32-.24.43-.51c3.34,2.74,8.16,4.88,15.06,5.17l1.24,0c9.65,0,17.47-4.83,21.6-13.37,5-10.41,3.53-23.87-3.54-32-9.79-11.28-27.89-10.81-42.42-10.42-4.26.11-8.28.22-11.77,0H780.9c-3.48.17-7.5.07-11.76,0-14.54-.39-32.64-.86-42.43,10.42-7.06,8.15-8.55,21.61-3.53,32,4.12,8.55,11.95,13.37,21.6,13.37l1.24,0c6.9-.29,11.72-2.43,15.06-5.17l.43.51-.32.24a1.39,1.39,0,0,0-.34,1.93l.05,0c-14.73,10.82-45.84,6.77-45.69-23.75.16-31.29,30.66-33.34,30.66-33.34a2,2,0,0,0-.13-1.24l1.55-.08a5.4,5.4,0,0,1,.58,1.52H749c.53-2.66,4.15-5.74,4.15-5.74h2s3.61,3.08,4.15,5.74h1.09c.54-2.66,4.15-5.74,4.15-5.74h1.08s3.62,3.08,4.15,5.74h1.1c.53-2.66,4.15-5.74,4.15-5.74h1.08s3.61,3.08,4.14,5.74h1.1c.54-2.66,4.15-5.74,4.15-5.74h1.08s3.62,3.08,4.15,5.74h1.1c.53-2.66,4.14-5.74,4.14-5.74H797s3.61,3.08,4.14,5.74h1.1c.54-2.66,4.15-5.74,4.15-5.74h1.08s3.61,3.08,4.14,5.74h1.1c.54-2.66,4.15-5.74,4.15-5.74H818s3.61,3.08,4.15,5.74h1.1c.53-2.66,4.15-5.74,4.15-5.74h1.08s3.61,3.08,4.14,5.74h1.1c.54-2.66,4.15-5.74,4.15-5.74h1.08s3.61,3.08,4.15,5.74h1.1c.53-2.66,4.14-5.74,4.14-5.74h1.08s3.62,3.08,4.15,5.74h1.1c.54-2.66,4.15-5.74,4.15-5.74h1.08s3.61,3.08,4.14,5.74h1.1c.54-2.66,4.15-5.74,4.15-5.74h1.08s3.61,3.08,4.15,5.74h1.1a5.73,5.73,0,0,1,.72-1.77l2.15.22a2,2,0,0,0-.18,1.35S908.79,376.48,909,407.77Z"/><path class="cls-2" d="M897.44,388.6c7.07,8.15,8.55,21.61,3.54,32C896.85,429.16,889,434,879.38,434l-1.24,0c-6.9-.29-11.72-2.43-15.06-5.17a21.48,21.48,0,0,1-6.6-9.54c-2.89-8.2-1.19-18.08,3.87-22.51,8.81-7.7,19.37-4,19.81-3.83a1.38,1.38,0,0,1-.95,2.6h0c-.64-.22-9.66-3.11-17,3.33-3.66,3.2-5.88,11.57-3.08,19.51,1.61,4.57,6.24,12.31,19.17,12.85,12.41.51,18-7.16,20.23-11.78,4.48-9.31,3.14-21.78-3.14-29-8.94-10.29-25.58-9.85-40.27-9.47-4.3.11-8.35.23-11.94,0H781c-3.6.18-7.65.07-11.95,0-14.68-.38-31.32-.83-40.26,9.47-6.27,7.23-7.62,19.7-3.14,29,2.23,4.62,7.82,12.3,20.23,11.78,12.93-.55,17.56-8.28,19.17-12.85,2.8-7.95.57-16.31-3.08-19.51-7.6-6.64-17-3.34-17-3.32a1.32,1.32,0,0,1-.48.09,1.38,1.38,0,0,1-.47-2.68c.44-.16,11-3.87,19.81,3.83,5.05,4.43,6.76,14.31,3.87,22.51a21.48,21.48,0,0,1-6.6,9.54c-3.34,2.74-8.16,4.88-15.06,5.17l-1.24,0c-9.65,0-17.48-4.83-21.6-13.37-5-10.41-3.53-23.87,3.53-32,9.8-11.28,27.89-10.81,42.43-10.42,4.26.11,8.28.22,11.76,0h62.34c3.49.17,7.51.07,11.77,0C869.55,377.78,887.65,377.32,897.44,388.6Z"/><path d="M895.35,390.4c6.27,7.23,7.62,19.7,3.14,29-2.23,4.62-7.82,12.3-20.23,11.78-12.93-.55-17.56-8.28-19.17-12.85-2.8-7.95-.57-16.31,3.08-19.51,7.36-6.44,16.37-3.54,17-3.33l-.39,2.36a13.5,13.5,0,0,0-2.16-.15c-5.64.05-12.09,3.56-13.47,10.19a15.26,15.26,0,0,0,3,13.23c3.2,3.82,8.41,5.9,14.26,5.71,5.53-.18,11.07-4.59,13.79-11,3.2-7.55,1.71-15.83-4-22.17s-14.4-8.42-22.85-5.62A23.33,23.33,0,0,0,851,408.15a26.67,26.67,0,0,0,10.34,23.67,1.37,1.37,0,0,0,.79.24V751.21h5.07v1.46H755.75v-1.46H762V432.06a1.41,1.41,0,0,0,.79-.24,26.67,26.67,0,0,0,10.34-23.67,23.34,23.34,0,0,0-16.27-20.06c-8.45-2.8-17.21-.64-22.86,5.62s-7.21,14.62-4,22.17c2.72,6.38,8.26,10.79,13.79,11,5.85.19,11.06-1.88,14.26-5.71A15.23,15.23,0,0,0,761,407.91c-1.38-6.63-7.82-10.13-13.46-10.19a13.57,13.57,0,0,0-2.55.22l-.51-2.34a1.32,1.32,0,0,0,.48-.09c.09,0,9.45-3.33,17,3.32,3.66,3.2,5.88,11.57,3.08,19.51-1.61,4.57-6.24,12.31-19.17,12.85-12.41.51-18-7.16-20.23-11.78-4.49-9.31-3.14-21.78,3.14-29,8.94-10.29,25.58-9.85,40.26-9.47,4.3.11,8.35.23,11.95,0h62.13c3.59.18,7.64.07,11.94,0C869.77,380.56,886.42,380.11,895.35,390.4Zm-41,352.89V431.05a3.44,3.44,0,1,0-6.89,0V743.29a3.44,3.44,0,0,0,6.89,0Zm-3.23-351.71H844s-3,7.6-5.06,10.37-2.19,7.71,1.27,6.33S848.47,402.21,851.17,391.58Zm-3.41,23.18a3,3,0,0,0-3-3H779.09a3,3,0,1,0,0,6h65.64A3,3,0,0,0,847.75,414.75Zm-8.92,328.54V431.05a3.44,3.44,0,1,0-6.89,0V743.29a3.44,3.44,0,0,0,6.89,0Zm-4.14-344.6c1.73-4.49.67-6.39-.52-7.11a5.9,5.9,0,0,0-3.8-1.27c-2.25.09-5.1,7.47-6.65,9.74s-1.55,7.72,1.12,8S833,403.18,834.69,398.69Zm-11.42,344.6V431.05a3.44,3.44,0,1,0-6.89,0V743.29a3.44,3.44,0,0,0,6.89,0ZM818,390.83H805.77c.6,14.25,6.1,17.2,6.1,17.2C817.62,405.18,818,390.83,818,390.83ZM807.71,743.29V431.05a3.44,3.44,0,1,0-6.89,0V743.29a3.44,3.44,0,0,0,6.89,0ZM798.08,408c2.68-.25,2.68-5.7,1.13-8s-4.41-9.65-6.65-9.74a5.91,5.91,0,0,0-3.8,1.27c-1.19.72-2.25,2.62-.52,7.11S795.4,408.28,798.08,408Zm-5.93,335.27V431.05a3.44,3.44,0,1,0-6.89,0V743.29a3.44,3.44,0,0,0,6.89,0Zm-9.44-335c3.46,1.38,3.33-3.57,1.27-6.33s-5.07-10.37-5.07-10.37h-7.14C774.46,402.21,779.25,406.89,782.71,408.28Zm-6.12,335V431.05a3.45,3.45,0,0,0-6.9,0V743.29a3.45,3.45,0,0,0,6.9,0Z"/><path d="M888.11,395.55c7.16,8,4.84,16.1,3.51,19.24-2.3,5.41-6.86,9.15-11.34,9.3-5,.17-9.39-1.55-12.05-4.72-2.42-2.88-3.24-6.65-2.35-10.9,1.07-5.13,6.36-7.95,10.78-8h.1c4.14,0,7.1,2.18,7.93,5.84.89,3.93-.12,6.92-2.82,8.43-2.49,1.4-5.52,1-6.79-.22a5.22,5.22,0,0,1-1.38-5.49,2.37,2.37,0,0,1,2.18-1.64A3,3,0,0,1,878,408a1.5,1.5,0,0,1,.43,1,1.39,1.39,0,0,0,1.37,1.38h0a1.37,1.37,0,0,0,1.38-1.33,4.25,4.25,0,0,0-1.22-2.94,5.49,5.49,0,0,0-4.17-1.42,5.12,5.12,0,0,0-4.7,3.4,8,8,0,0,0,2,8.48c2.3,2.24,6.72,2.53,10.07.65,1.81-1,5.83-4.14,4.18-11.45a10,10,0,0,0-8.59-7.85l.39-2.36h0a1.38,1.38,0,0,0,.95-2.6c-.44-.16-11-3.87-19.81,3.83-5.06,4.43-6.77,14.31-3.87,22.51a21.48,21.48,0,0,0,6.6,9.54l-.43.51a23.9,23.9,0,0,1-8.85-20.9,20.59,20.59,0,0,1,14.38-17.69C875.58,388.27,883.21,390.12,888.11,395.55Z"/><path d="M888.73,362.4v6s-1.11,2.53-6.17,2.84c-2.65.17-3.69,1-4.08,1.81l-2.15-.22a18.5,18.5,0,0,1,3.42-4h-4.32v2.67h-.76v-2.67H865v2.67h-.76v-2.67h-9.72v2.67h-.76v-2.67H844v2.67h-.76v-2.67h-9.73v2.67h-.76v-2.67H823v2.67h-.76v-2.67h-9.72v2.67h-.76v-2.67h-9.72v2.67h-.76v-2.67h-9.72v2.67h-.76v-2.67h-9.73v2.67h-.76v-2.67h-9.72v2.67h-.76v-2.67h-9.72v2.67h-.76v-2.67H748.79v2.67H748v-2.67h-4.32a17.86,17.86,0,0,1,3.57,4.22l-1.55.08c-.36-.81-1.37-1.75-4.13-1.92-5.06-.31-6.17-2.84-6.17-2.84v-6h153.3Z"/><path d="M887.92,779.06v33H736.24v-33h5.94s-5.06-1.17-4.58-6.43A7.55,7.55,0,0,1,743,766.1v-4.28l7.89-.2c3.89-3.4-1.17-6.71-1.17-6.71v-3.7h6.08v1.46a1.5,1.5,0,0,0,0,3h111.5a1.5,1.5,0,1,0,0-3v-1.46h7.23v3.7s-5.06,3.31-1.17,6.71l7.89.2v4.28a7.55,7.55,0,0,1,5.36,6.53c.49,5.25-4.58,6.43-4.58,6.43Zm-12.25-8.3a3.11,3.11,0,0,0-3.11-3.11H751.84a3.11,3.11,0,1,0,0,6.22H872.56A3.11,3.11,0,0,0,875.66,770.76Z"/><path class="cls-2" d="M854.4,431.05V743.29a3.44,3.44,0,0,1-6.89,0V431.05a3.44,3.44,0,1,1,6.89,0Z"/><path class="cls-2" d="M844,391.58h7.15c-2.69,10.64-7.49,15.32-10.94,16.7s-3.34-3.57-1.27-6.33S844,391.58,844,391.58Z"/><path class="cls-2" d="M838.83,431.05V743.29a3.44,3.44,0,0,1-6.89,0V431.05a3.44,3.44,0,1,1,6.89,0Z"/><path class="cls-2" d="M834.17,391.58c1.19.72,2.25,2.62.52,7.11s-7.16,9.59-9.85,9.33-2.67-5.7-1.12-8,4.4-9.65,6.65-9.74A5.9,5.9,0,0,1,834.17,391.58Z"/><path class="cls-2" d="M823.27,431.05V743.29a3.44,3.44,0,0,1-6.89,0V431.05a3.44,3.44,0,1,1,6.89,0Z"/><path class="cls-2" d="M805.77,390.83H818s-.35,14.36-6.1,17.2C811.87,408,806.37,405.08,805.77,390.83Z"/><path class="cls-2" d="M807.71,431.05V743.29a3.44,3.44,0,0,1-6.89,0V431.05a3.44,3.44,0,1,1,6.89,0Z"/><path class="cls-2" d="M799.21,400c1.55,2.28,1.55,7.72-1.13,8s-8.12-4.84-9.85-9.33-.67-6.39.52-7.11a5.91,5.91,0,0,1,3.8-1.27C794.8,390.39,797.65,397.78,799.21,400Z"/><path class="cls-2" d="M791.62,368.89h4.32s-3.61,3.08-4.14,5.74h-1.1c-.53-2.66-4.15-5.74-4.15-5.74h4.32v2.67h.76Z"/><path class="cls-2" d="M792.15,431.05V743.29a3.44,3.44,0,0,1-6.89,0V431.05a3.44,3.44,0,1,1,6.89,0Z"/><path class="cls-2" d="M784,401.94c2.07,2.76,2.19,7.71-1.27,6.33s-8.25-6.06-10.94-16.7h7.14S781.9,399.17,784,401.94Z"/><path class="cls-2" d="M776.59,431.05V743.29a3.45,3.45,0,0,1-6.9,0V431.05a3.45,3.45,0,0,1,6.9,0Z"/><path class="cls-2" d="M770.66,368.89H775s-3.62,3.08-4.15,5.74h-1.1c-.53-2.66-4.15-5.74-4.15-5.74h4.32v2.67h.76Z"/><path d="M770.36,408.41a23.88,23.88,0,0,1-8.86,20.9l-.43-.51a21.48,21.48,0,0,0,6.6-9.54c2.88-8.2,1.18-18.08-3.87-22.51-8.81-7.7-19.37-4-19.81-3.83a1.38,1.38,0,0,0,.47,2.68l.51,2.34a10,10,0,0,0-8.2,7.78c-1.65,7.31,2.37,10.45,4.18,11.45,3.34,1.88,7.76,1.59,10.06-.65a8,8,0,0,0,2-8.48,5.1,5.1,0,0,0-4.69-3.4,5.47,5.47,0,0,0-4.17,1.42A4.2,4.2,0,0,0,743,409a1.37,1.37,0,0,0,1.38,1.33h0a1.41,1.41,0,0,0,1.37-1.38,1.45,1.45,0,0,1,.43-1,2.93,2.93,0,0,1,2.13-.57,2.37,2.37,0,0,1,2.18,1.64,5.25,5.25,0,0,1-1.39,5.49c-1.26,1.23-4.29,1.62-6.78.22-2.71-1.51-3.71-4.51-2.82-8.43.83-3.66,3.79-5.84,7.93-5.84h.1c4.43,0,9.72,2.85,10.79,8,.88,4.25.07,8-2.35,10.9-2.67,3.16-7.06,4.88-12.06,4.72-4.47-.15-9-3.89-11.33-9.3-1.34-3.14-3.66-11.28,3.51-19.24,4.9-5.44,12.53-7.29,19.93-4.84A20.59,20.59,0,0,1,770.36,408.41Z"/><path class="cls-2" d="M127.83,803.57S270.93,773,306.56,798.25v41.42H127.83Z"/><path d="M127.83,803.57l1.94-.67c1.27-.41,3.13-1.05,5.53-1.75s5.29-1.6,8.65-2.48,7.14-1.92,11.3-2.91c8.31-2,18.07-4.05,28.61-5.84,2.63-.46,5.32-.88,8-1.29s5.48-.82,8.26-1.17c5.57-.75,11.25-1.35,16.94-1.89s11.4-.9,17-1.11c2.82-.12,5.62-.2,8.38-.22s5.5,0,8.2,0a171.74,171.74,0,0,1,29.39,2.85,89.28,89.28,0,0,1,11.49,3,53.07,53.07,0,0,1,8.43,3.6,34.34,34.34,0,0,1,4.94,3.17l1.57,1.34-1.84-.9c-.61-.26-1.36-.58-2.25-.93s-1.93-.7-3.11-1a71,71,0,0,0-8.58-1.91c-3.35-.54-7.16-.92-11.33-1.19a279.63,279.63,0,0,0-28.62,0l-8,.4-8.19.52c-5.51.41-11.12.83-16.72,1.36s-11.21,1-16.73,1.59L185,797.8l-28.83,3.08L144.58,802c-3.44.37-6.45.62-8.93.86s-4.44.38-5.77.51Z"/><path class="cls-2" d="M717.05,801.62S807.71,774,895.78,814.3v31.42H717.05Z"/><path d="M717.05,801.62s.64-.35,1.86-.93,3-1.44,5.4-2.37,5.23-2.08,8.6-3.18,7.18-2.3,11.4-3.42,8.84-2.18,13.77-3.06,10.16-1.69,15.61-2.27c2.72-.27,5.5-.56,8.31-.7l4.25-.26,4.3-.12c1.44,0,2.88-.08,4.34-.06l4.36,0c2.91.07,5.84.21,8.77.35,5.84.43,11.68,1,17.38,1.88l4.25.67c1.41.21,2.8.54,4.19.81,2.77.56,5.51,1.09,8.16,1.81s5.29,1.28,7.8,2.1,5,1.44,7.37,2.33,4.68,1.62,6.88,2.49l6.31,2.61c1,.41,2,.87,2.93,1.32l2.76,1.32c1.78.89,3.5,1.66,5,2.54,3.12,1.69,5.83,3.15,8,4.5s3.82,2.44,5,3.17l1.73,1.15-2-.69c-1.27-.47-3.16-1.11-5.5-2-1.16-.47-2.5-.89-3.94-1.36s-3-1-4.62-1.59-3.43-1.08-5.29-1.66-3.79-1.24-5.87-1.78l-6.41-1.78c-2.22-.58-4.53-1.12-6.89-1.71s-4.81-1.08-7.3-1.63-5.05-1-7.66-1.5-5.26-.91-7.95-1.32-5.42-.75-8.17-1.12c-5.51-.68-11.13-1.18-16.75-1.55-2.81-.16-5.63-.31-8.44-.41s-5.61-.21-8.39-.16c-5.56-.06-11,.09-16.34.3-2.65.11-5.26.3-7.81.43s-5,.36-7.48.59c-4.87.4-9.45,1-13.7,1.47s-8.13,1.09-11.57,1.66-6.45,1.08-8.91,1.56-4.42.85-5.74,1.15Z"/><path d="M818,843.5a1.5,1.5,0,0,0,0-3,1.5,1.5,0,0,0,0,3Z"/><path d="M783,827.5a1.5,1.5,0,0,0,0-3,1.5,1.5,0,0,0,0,3Z"/><path d="M744,822.5a1.5,1.5,0,0,0,0-3,1.5,1.5,0,0,0,0,3Z"/><path d="M788,821.5a1.5,1.5,0,0,0,0-3,1.5,1.5,0,0,0,0,3Z"/><path d="M867,822.5a1.5,1.5,0,0,0,0-3,1.5,1.5,0,0,0,0,3Z"/><path d="M876,824.5a1.5,1.5,0,0,0,0-3,1.5,1.5,0,0,0,0,3Z"/><path d="M904,826.5a1.5,1.5,0,0,0,0-3,1.5,1.5,0,0,0,0,3Z"/><path d="M229,820.5a1.5,1.5,0,0,0,0-3,1.5,1.5,0,0,0,0,3Z"/><path d="M219,820.5a1.5,1.5,0,0,0,0-3,1.5,1.5,0,0,0,0,3Z"/><path d="M145,820.5a1.5,1.5,0,0,0,0-3,1.5,1.5,0,0,0,0,3Z"/><path d="M136,813.5a1.5,1.5,0,0,0,0-3,1.5,1.5,0,0,0,0,3Z"/><path d="M123,826.5a1.5,1.5,0,0,0,0-3,1.5,1.5,0,0,0,0,3Z"/><path d="M304,823.5a1.5,1.5,0,0,0,0-3,1.5,1.5,0,0,0,0,3Z"/><path d="M279,810.5a1.5,1.5,0,0,0,0-3,1.5,1.5,0,0,0,0,3Z"/><path d="M209,825c3.86,0,3.87-6,0-6s-3.87,6,0,6Z"/><path d="M192,816c3.86,0,3.87-6,0-6s-3.87,6,0,6Z"/><path d="M322,820c3.86,0,3.87-6,0-6s-3.87,6,0,6Z"/><path d="M302,820c3.86,0,3.87-6,0-6s-3.87,6,0,6Z"/><path d="M132,830c3.86,0,3.87-6,0-6s-3.87,6,0,6Z"/><path d="M117,816c3.86,0,3.87-6,0-6s-3.87,6,0,6Z"/><path d="M763,813c3.86,0,3.87-6,0-6s-3.87,6,0,6Z"/><path d="M736,813c3.86,0,3.87-6,0-6s-3.87,6,0,6Z"/><path d="M876,833c3.86,0,3.87-6,0-6s-3.87,6,0,6Z"/><path d="M892,825c3.86,0,3.87-6,0-6s-3.87,6,0,6Z"/><path d="M252,800c3.86,0,3.87-6,0-6s-3.87,6,0,6Z"/><path d="M828,813c3.86,0,3.87-6,0-6s-3.87,6,0,6Z"/><path d="M90,831c3.86,0,3.87-6,0-6s-3.87,6,0,6Z"/><path d="M841,821c3.86,0,3.87-6,0-6s-3.87,6,0,6Z"/><path d="M261,817.5c5.79,0,5.8-9,0-9s-5.8,9,0,9Z"/><path d="M802,813.5c5.79,0,5.8-9,0-9s-5.8,9,0,9Z"/><path d="M753,834.5c5.79,0,5.8-9,0-9s-5.8,9,0,9Z"/><path d="M163,816.5c5.79,0,5.8-9,0-9s-5.8,9,0,9Z"/><path d="M186,902.55c5.79,0,5.8-9,0-9s-5.8,9,0,9Z"/><path d="M254.89,866.07c5.79,0,5.8-9,0-9s-5.8,9,0,9Z"/><path d="M765.7,891.74c5.79,0,5.8-9,0-9s-5.8,9,0,9Z"/><path d="M852.19,866.07c5.79,0,5.8-9,0-9s-5.8,9,0,9Z"/><path d="M719.76,859.31c5.79,0,5.8-9,0-9s-5.8,9,0,9Z"/><path d="M719.76,859.31c5.79,0,5.8-9,0-9s-5.8,9,0,9Z"/><path d="M150.84,837.39a1.5,1.5,0,0,0,0-3,1.5,1.5,0,0,0,0,3Z"/><path d="M164.35,837.39a1.5,1.5,0,0,0,0-3,1.5,1.5,0,0,0,0,3Z"/><path d="M221.11,891.45a1.5,1.5,0,0,0,0-3,1.5,1.5,0,0,0,0,3Z"/><path d="M217.05,892.8a1.5,1.5,0,0,0,0-3,1.5,1.5,0,0,0,0,3Z"/><path d="M217.05,906.31a1.5,1.5,0,0,0,0-3,1.5,1.5,0,0,0,0,3Z"/><path d="M377.86,915.77a1.5,1.5,0,0,0,0-3,1.5,1.5,0,0,0,0,3Z"/><path d="M352.19,913.07a1.5,1.5,0,0,0,0-3,1.5,1.5,0,0,0,0,3Z"/><path d="M804.89,877.93a1.5,1.5,0,0,0,0-3,1.5,1.5,0,0,0,0,3Z"/><path d="M791.38,863.07a1.5,1.5,0,0,0,0-3,1.5,1.5,0,0,0,0,3Z"/><path d="M875.16,869.82a1.5,1.5,0,0,0,0-3,1.5,1.5,0,0,0,0,3Z"/><path d="M877.86,861.72a1.5,1.5,0,0,0,0-3,1.5,1.5,0,0,0,0,3Z"/><path d="M872.46,884.69a1.5,1.5,0,0,0,0-3,1.5,1.5,0,0,0,0,3Z"/><path d="M172.46,863.07a1.5,1.5,0,0,0,0-3,1.5,1.5,0,0,0,0,3Z"/><path d="M817.05,903.61a1.5,1.5,0,0,0,0-3,1.5,1.5,0,0,0,0,3Z"/><path d="M834.62,890.24c3.86,0,3.87-6,0-6s-3.87,6,0,6Z"/><path d="M846.78,890.24c3.86,0,3.87-6,0-6s-3.87,6,0,6Z"/><path d="M892.73,875.38c3.86,0,3.87-6,0-6s-3.87,6,0,6Z"/><path d="M163,864.57c3.86,0,3.87-6,0-6s-3.87,6,0,6Z"/><path d="M225.16,844.3c3.86,0,3.87-6,0-6s-3.87,6,0,6Z"/></g><g id="Title"><path class="cls-5" d="M184.62,715.78c3.18-7.73,32.58-78.06,43.19-101.26h1.06C241.39,642,269.5,705.32,274,714l-22,19.1c-3.82-9.4-22-57.15-23.87-63.36-2.55,7.28-18.57,54-22.18,63.66Z"/><path class="cls-5" d="M282,661.06c0-3.18-.11-36.68-.53-40.93,19.52,0,30.88.76,40.75,2.73,27.8,5.46,33.11,26.07,33.11,38.35,0,47.75-39.69,67.3-74,67.3.42-7,.64-44.56.64-48.66Zm23.34,39.87c10.4-2.42,24.72-13.19,24.72-34.41,0-17.89-12.73-22.13-24.72-22.13Z"/><path class="cls-5" d="M366.92,661.06c0-3.18-.11-36.68-.53-40.93,19.52,0,30.88.76,40.75,2.73,27.8,5.46,33.11,26.07,33.11,38.35,0,47.75-39.69,67.3-74,67.3.42-7,.64-44.56.64-48.66Zm23.34,39.87c10.4-2.42,24.72-13.19,24.72-34.41,0-17.89-12.73-22.13-24.72-22.13Z"/><path class="cls-5" d="M474.62,620.14c-.11,3.49-.53,34.71-.53,53.81v27.74c2.55,0,15.07,0,23.56-.61l.11,28.19c-2.55,0-39.37-1.52-47.86-1.52.32-8,.32-40.47.32-44.11V663.49c0-2.42-.21-40.47-.42-43.35Z"/><path class="cls-5" d="M492.87,715.78c3.18-7.73,32.58-78.06,43.19-101.26h1.06c12.52,27.44,40.64,90.8,45.1,99.44l-22,19.1c-3.82-9.4-22-57.15-23.87-63.36-2.55,7.28-18.57,54-22.18,63.66Z"/><path class="cls-5" d="M586.67,727.76c.64-10.76,3.18-88.37,4.24-108.53l1.06-.91c15.07,15.76,49.13,52.6,52.84,56.54,0-8.34-.32-49-.21-55.48l21.65.76c-1.17,21.83-3.82,88.22-4.46,109.9l-1.06.76c-12.73-11.82-51-55.17-52.63-57,0,6.21.11,50,.21,55Z"/><path class="cls-5" d="M692.88,727.76c.21-3.94.32-25.47.32-42V646.06c-5.09,0-20.16.76-23.45.91V620.44c4.78.61,29.92,1.21,31.09,1.21h9.23c2,0,25.15-.61,30.35-1.21V647c-2-.15-21.65-.91-23.34-.91V688.2c0,15.61.11,36.53.32,39.56Z"/><path class="cls-5" d="M771.72,682c0,15.16.32,42.29.42,45.78H747.53c.21-6.67.32-42.14.32-46.08V665.31c0-2.58-.32-41.53-.32-45.17h24.62c-.11,2.73-.42,27.28-.42,45.47Z"/><path class="cls-5" d="M786.47,704.57C796.76,705,808,700.93,808,693.8c0-3-1.8-4.85-10.4-11.82-6.68-5.46-14.43-13-14.43-25.77,0-17,15.81-35.17,42.66-38.5L828.7,643c-13.26,0-19.95,2.88-19.95,9.09,0,3.64,3.4,5.91,10.29,10.76,5.62,3.94,14.75,10.76,14.75,24.41,0,16.67-12.2,37.89-44.46,43.2Z"/><path class="cls-2" d="M192.52,720.29c5.42-13.52,34.11-94.09,36.67-99.44h.2c8.38,20,31.84,83.81,38.55,98.46l-8.38,7.46c-1.08-3.24-29.48-80.15-30.46-82.4C227.71,648,202.67,721,200.7,726.91Z"/><path class="cls-2" d="M288.15,662.4c0-3-.1-32.68-.49-36.62,5.62,0,16.56-.14,25.14,1.41,32.14,5.78,36.08,26.2,36.08,36.06,0,43.67-38.84,61.83-61.32,61.83.39-6.48.59-41.41.59-45.21ZM297,712.68c26.91-3.38,42.19-26.06,42.19-45.78,0-21.41-16.66-31-42.19-30.56Z"/><path class="cls-2" d="M372.35,662.4c0-3-.1-32.68-.49-36.62,5.62,0,16.56-.14,25.14,1.41,32.14,5.78,36.08,26.2,36.08,36.06,0,43.67-38.84,61.83-61.32,61.83.39-6.48.59-41.41.59-45.21Zm8.87,50.29c26.91-3.38,42.19-26.06,42.19-45.78,0-21.41-16.66-31-42.19-30.56Z"/><path class="cls-2" d="M465.22,625.77c-.39,3.1-.79,30.85-.79,48.59v39.86c2.37,0,14,0,23.46-.56v12.11c-1.38,0-30.66-1.41-33.12-1.41.79-7.46.79-37.61.79-41V664.65c0-2.25-.2-36.2-.39-38.88Z"/><path class="cls-2" d="M498.84,720.29c5.42-13.52,34.11-94.09,36.67-99.44h.2c8.38,20,31.84,83.81,38.55,98.46l-8.38,7.46c-1.08-3.24-29.48-80.15-30.46-82.4C534,648,509,721,507,726.91Z"/><path class="cls-2" d="M591.22,724.37c.49-10.56,3.15-89.72,3.65-104.23h.2c2.76,4.51,50.48,75.36,53.63,79.86,0-3.94.59-70.29.69-74.93l9.17.7c-.39,8.45-2.27,66.06-2.66,101.56h-.2c-2.66-3.8-52.55-76.91-54.52-80.43,0,4.93-.79,73.81-.69,78.46Z"/><path class="cls-2" d="M700.66,724.37c.49-3.66.59-44.79.59-67.19v-21c-11.34,0-25.34.7-27.9,1.27v-12c3.94,1.13,27.31,1.69,28.39,1.69h8.58c1.87,0,23.36-.56,27.7-1.69v12c-1.38-.56-19.62-1.27-27.9-1.27v23.24c0,28.59,1,62.12,1.18,64.93Z"/><path class="cls-2" d="M765.14,681.83c0,14.09.3,39.3.39,42.54H756c.2-6.2.3-39.16.3-42.82V666.34c0-2.39-.3-37.18-.49-40.57h9.86c-.2,2.54-.49,23.95-.49,40.85Z"/><path class="cls-2" d="M795.51,716.34c9.66-2.82,22-9.86,22-21.27,0-7-3.16-10.71-10.25-16.2-8.38-6.48-14.2-12.39-14.2-22.4,0-14.93,14.59-28.59,28.1-33l2.07,10.85c-6,1.41-20.6,7.89-20.6,19.72,0,7.32,7,11.83,11.14,15.35,7.49,6.34,13.51,10.85,13.51,22.25,0,13.8-10.25,28.88-29.18,35.21Z"/></g><g id="Shell"><path class="cls-6" d="M604.88,148.65c8-21.56,3-51.15-23.9-49.07a39.65,39.65,0,0,0-6.59-11.77c-6.73-8.37-21.54-14.35-30.61-6.88-5.94-8.15-15.12-13.53-28.46-13.68-11.88-.13-23.63,5.67-31.44,14.4-.54.61-1.06,1.24-1.54,1.88-8.49-3.84-20.09-.59-26.85,5.28a30.53,30.53,0,0,0-9.31,14c-10.29-5.25-20.39,3.61-24.35,13.36-3.41,8.39-2.18,18.06.74,27-14,9.91-6.13,26.48,3.48,37.4,12.59,14.31,28.7,19.77,46.6,18.1a9.25,9.25,0,0,0-.38,1.32c-1.16,5.85,1.16,11.82,6.36,14.66,10.71,5.87,30.75,5,38.14-6,7.63,6.43,20.77,10.86,29.79,7.29,8.62-3.41,10.37-13.15,7.8-21l.77-.4c16.27,3,30.47-3.4,41.78-14.93C604,172.41,615.15,157.58,604.88,148.65Zm-42.32-61.9c5.95,3.07,10.06,9.29,12.35,15.36,4.6,12.21-1.29,27.1-6.55,38-5.52,11.47-13.26,21.83-21.2,31.7-3.27,4.06-6.41,8.21-9.84,12a193.53,193.53,0,0,0,31.55-62.56c.27-.94-1.18-1.59-1.6-.67-9.14,19.74-18.41,38.89-29.88,57.16,7.95-16.62,12.59-35,14.78-53.15,1.66-13.71.32-28.33-5.66-39.39C552.19,84.27,556.72,83.73,562.56,86.74ZM452,106.2c2.09-10.31,16.36-20.86,27.6-18.43-5.11,9.55-5.49,21.41-4.3,31.9,1.69,14.9,7.18,29.33,12.53,43.24A163.92,163.92,0,0,0,501,190.34l-3.1-1.55c-2.12-2.69-5.13-5.19-7-7.6a141.52,141.52,0,0,1-11.41-17.82c-6.32-11.39-13.13-25.24-13.25-38.56a1,1,0,0,0-1.9,0c-1.24,13,4.62,26.15,10.3,37.44a140.4,140.4,0,0,0,12.05,19.65c.36.5.76,1.06,1.18,1.66a61,61,0,0,1-8.11-5.46c-9.57-7.76-14.31-20-19.86-30.66C453.37,134.91,449.14,120.42,452,106.2Zm-7.13,2.12a62.77,62.77,0,0,0,.34,18.44c2.35,16.32,12.1,33.84,21.37,47.22,8.3,12,21.41,17.1,33.82,23.43l-5.31-1.36c-4.19-3.61-10-5.76-14.71-8.31a71.72,71.72,0,0,1-18.56-14c-8.69-9.22-19.17-22.64-21-35.51-.18-1.26-2.25-.95-2.2.3.55,13.67,10,25.83,18.27,36a66.1,66.1,0,0,0,18,15.12l4.46,2.67-.67-.15c-12.24-2.41-22.63-10.66-30.94-19.53a85.11,85.11,0,0,1-18.57-31.86C425.26,128.24,426.55,104.3,444.88,108.32Zm-20.37,40.26c1.41,3.49,3,6.81,4.56,9.82a86.93,86.93,0,0,0,31.83,34c.22.13.44.24.66.36A47.44,47.44,0,0,1,435.32,181C425.68,172.73,415.72,159.46,424.51,148.58ZM491,211.2c-3.32-.19-9.57-.85-11.62-4-1.17-1.79-2.49-6.18-1.3-8.5,1.6.32,3.2.59,4.82.81,9.52,1.3,18.56,4.81,28.11,6.14C506.31,211,497.62,211.57,491,211.2Zm25.16-14.38q.83-20.9.76-41.81c-.08-16.39.52-33.2-1.38-49.49a1,1,0,0,0-2.09,0c-1.87,16.3-.67,33.12-.45,49.49.18,13.23.39,26.47.27,39.7-7-25.73-14.43-51.91-15.05-78.61a1.78,1.78,0,0,0-3.55,0c-.14,26,7.45,51.11,14.78,75.93-22-36.22-51.83-112,3.54-117.84,33.27-3.52,35.22,34.6,31,57.78-3.85,21.31-10.37,42.65-22.23,60.81.41-1.36.76-2.74,1.08-4.11,1.72-7.31,3.18-14.69,4.91-22,3.7-15.65,7.24-31.35,8.05-47.46a.78.78,0,0,0-1.53-.21c-3.13,14.79-6.34,29.58-9.78,44.3C522,174.17,520.88,186.54,516.15,196.82Zm21.46,13.94c-6.34-.93-11.94-3.83-17.9-5.81l.31-.37a2.89,2.89,0,0,0,.9-.19c8.79-3.45,18.29-3.68,27.19-6.74l.24-.09C550,204.88,546.74,212.1,537.61,210.76Zm3.66-17.39c13.66-11.54,29.69-21.29,38.83-36.91.58-1-.82-2.12-1.6-1.24C565.41,170,549.12,181,535.24,194.82l-1.81.37c9.24-6.8,16.33-16.54,23.47-25.47,10.47-13.11,19.61-27.54,24.3-43.76a44.65,44.65,0,0,0,1.2-21.19c3.92.6,7.76,1,11.1,3.73,6.24,5.07,8.26,12.37,8.35,20,.17,13.5-6.37,26.07-15.22,35.79-8.16,9-18.67,15.66-29.14,21.6A77.15,77.15,0,0,1,541.27,193.37ZM588.11,179c-6.89,6.46-14.66,8.42-22.94,9.94l2.35-1.4c12.73-7.48,24.31-17,32.55-29.3.53-.79,1-1.61,1.5-2.45C604.62,163.6,593.09,174.3,588.11,179Z"/><path class="cls-6" d="M553.38,213.35s39.6,34.41,85,0c33-25,29.46-42.37,65.49-76.47s99-34.1,99-34.1-50.75,6.56-75.87,46.25S705,224.67,654.65,248.56C585.92,281.18,553.38,213.35,553.38,213.35Z"/><path class="cls-2" d="M584,234a56.8,56.8,0,0,0,9.38,3.48,74.59,74.59,0,0,0,11.18,2.31,65.5,65.5,0,0,0,14.67.2,64.4,64.4,0,0,0,8.22-1.43,61.72,61.72,0,0,0,8.44-2.8,70.29,70.29,0,0,0,8.31-4.3,97.33,97.33,0,0,0,8.16-5.63,101.6,101.6,0,0,0,14.91-14.3,147.37,147.37,0,0,0,12.5-17.45c3.83-6.14,7.35-12.5,10.83-18.79s7-12.46,10.73-18.29a111.43,111.43,0,0,1,12-16,90.28,90.28,0,0,1,13.36-11.91,89,89,0,0,1,12.91-7.8,84,84,0,0,1,10.72-4.41,66.16,66.16,0,0,1,7.18-2c1.68-.36,2.59-.47,2.59-.47a60.23,60.23,0,0,0-9.5,3.14,92.57,92.57,0,0,0-10.3,5c-1.92,1.09-3.92,2.31-6,3.68s-4.15,2.9-6.27,4.58A94.68,94.68,0,0,0,715.51,143a114.26,114.26,0,0,0-11.26,15.86c-3.54,5.79-6.88,12-10.29,18.31s-7,12.75-10.81,19a138.62,138.62,0,0,1-12.91,17.9q-3.59,4.15-7.51,7.87a96.8,96.8,0,0,1-8.16,6.8,101.27,101.27,0,0,1-8.53,5.66,63.91,63.91,0,0,1-9,4.3,64.7,64.7,0,0,1-9,2.63,58.78,58.78,0,0,1-8.66,1.12,62.33,62.33,0,0,1-15.12-1,66.47,66.47,0,0,1-11.19-3.12,59,59,0,0,1-6.81-3C584.77,234.49,584,234,584,234Z"/><path class="cls-6" d="M545.92,224s30.71,42.56,107.89,45.87c45,1.93,84-34,124.53-53.45C826.1,193.5,859.63,193,859.63,193s-26.54-1.43-75.24,31.71c-42.63,29-50.39,62.13-113.19,70.65C602.88,304.68,545.92,224,545.92,224Z"/><path class="cls-2" d="M600.08,267.41s.71.41,2.08,1.1,3.4,1.64,6,2.78a130.91,130.91,0,0,0,37.9,9.79,117.37,117.37,0,0,0,17.46.41c3.06-.13,6.08-.42,9.19-.8s6.19-.94,9.29-1.6a92.29,92.29,0,0,0,18.2-6A113.05,113.05,0,0,0,717,263.73c5.31-3.53,10.4-7.26,15.32-10.91s9.73-7.16,14.39-10.31,9.05-6.13,13.14-8.84c8.17-5.43,15.1-9.78,19.93-12.85,2.41-1.53,4.34-2.69,5.65-3.49l2-1.22-7.34,5.2c-4.68,3.28-11.3,8.08-19.27,13.78L748,244.34c-4.56,3.26-9.22,6.86-14.09,10.59s-9.9,7.62-15.3,11.22a116,116,0,0,1-17.19,9.68,95.65,95.65,0,0,1-9.28,3.56c-3.15,1-6.34,1.85-9.53,2.54a114.36,114.36,0,0,1-36.8,1.38A119.78,119.78,0,0,1,617.4,276c-3.72-1.47-6.9-2.91-9.47-4.18s-4.53-2.39-5.85-3.17S600.08,267.41,600.08,267.41Z"/><path class="cls-6" d="M473.18,212.84s-39.6,34.41-85,0c-33-25-29.46-42.37-65.49-76.47s-99-34.1-99-34.1,50.75,6.56,75.87,46.25,22.07,75.64,72.41,99.53C440.65,280.67,473.18,212.84,473.18,212.84Z"/><path class="cls-2" d="M442.57,233.49s-.77.49-2.29,1.29a59,59,0,0,1-6.81,3,66.47,66.47,0,0,1-11.19,3.12,62.33,62.33,0,0,1-15.12,1,58.78,58.78,0,0,1-8.66-1.12,64.7,64.7,0,0,1-9-2.63,63.91,63.91,0,0,1-9-4.3,101.26,101.26,0,0,1-8.53-5.66,96.8,96.8,0,0,1-8.16-6.8q-3.91-3.71-7.51-7.87a138.61,138.61,0,0,1-12.91-17.9c-3.86-6.28-7.37-12.73-10.81-19s-6.75-12.52-10.29-18.31a114.26,114.26,0,0,0-11.26-15.86,94.68,94.68,0,0,0-12.54-12.08c-2.12-1.68-4.23-3.19-6.27-4.58s-4.06-2.59-6-3.68a92.57,92.57,0,0,0-10.3-5,60.23,60.23,0,0,0-9.5-3.14s.91.11,2.59.47a66.16,66.16,0,0,1,7.18,2,84,84,0,0,1,10.72,4.41,89,89,0,0,1,12.91,7.8,90.29,90.29,0,0,1,13.36,11.91,111.43,111.43,0,0,1,12,16c3.71,5.83,7.22,12,10.73,18.29s7,12.65,10.83,18.79A147.37,147.37,0,0,0,359.29,211a101.6,101.6,0,0,0,14.91,14.3,97.34,97.34,0,0,0,8.16,5.63,70.29,70.29,0,0,0,8.31,4.3,61.72,61.72,0,0,0,8.44,2.8,64.4,64.4,0,0,0,8.22,1.43,65.51,65.51,0,0,0,14.67-.2A74.59,74.59,0,0,0,433.19,237,56.81,56.81,0,0,0,442.57,233.49Z"/><path class="cls-6" d="M480.65,223.49s-30.71,42.56-107.89,45.87c-45,1.93-84-34-124.53-53.45-47.76-22.92-81.29-23.38-81.29-23.38s26.54-1.43,75.24,31.71c42.63,29,50.39,62.13,113.19,70.65C423.68,304.17,480.65,223.49,480.65,223.49Z"/><path class="cls-2" d="M426.48,266.9s-.68.46-2,1.24-3.27,1.91-5.85,3.17-5.75,2.71-9.47,4.18a119.79,119.79,0,0,1-28.42,7.3,114.36,114.36,0,0,1-36.8-1.38c-3.19-.7-6.38-1.54-9.53-2.54a95.64,95.64,0,0,1-9.28-3.56,116,116,0,0,1-17.19-9.68c-5.41-3.59-10.43-7.5-15.3-11.22s-9.53-7.33-14.09-10.59l-12.83-9.26c-8-5.7-14.59-10.5-19.27-13.78l-7.34-5.2,2,1.22c1.31.8,3.24,2,5.65,3.49,4.83,3.07,11.76,7.41,19.93,12.85,4.09,2.71,8.51,5.66,13.14,8.84s9.49,6.65,14.39,10.31,10,7.39,15.32,10.91a113.05,113.05,0,0,0,16.81,9.35,92.29,92.29,0,0,0,18.2,6q4.65,1,9.29,1.6c3.11.38,6.12.67,9.19.8a117.36,117.36,0,0,0,17.46-.41,130.91,130.91,0,0,0,37.9-9.79c2.62-1.14,4.65-2.09,6-2.78S426.48,266.9,426.48,266.9Z"/></g></svg>