<svg xmlns="http://www.w3.org/2000/svg" xmlns:xlink="http://www.w3.org/1999/xlink" viewBox="0 0 1000 1000"><defs><style>.cls-1{isolation:isolate;}.cls-2{clip-path:url(#clip-path);}.cls-3,.cls-4{fill:#fff;}.cls-4,.cls-5,.cls-7{stroke:#000;stroke-miterlimit:10;}.cls-4{stroke-width:7.64px;}.cls-5,.cls-9{fill:#231f20;}.cls-5{stroke-width:3.9px;}.cls-6{mix-blend-mode:hard-light;}.cls-7,.cls-8{fill:none;}.cls-7{stroke-width:6px;}.cls-10{fill:#010101;fill-rule:evenodd;}</style><clipPath id="clip-path"><circle cx="500" cy="500" r="442.05" transform="translate(-53.41 940.16) rotate(-83.5)"/></clipPath></defs><title>camp half angle</title><g class="cls-1"><g id="Layer_1" data-name="Layer 1"><circle cx="500" cy="500" r="442.05" transform="translate(-53.41 940.16) rotate(-83.5)"/><circle cx="500" cy="500" r="442.05" transform="translate(-53.41 940.16) rotate(-83.5)"/><g class="cls-2"><rect x="263.04" y="296.97" width="945.1" height="476.09" transform="translate(120.71 1205.28) rotate(-83.5)"/></g><path class="cls-3" d="M425.82,98.82s13.45-8.7,17.16,5.51c0,0,1.76,15.77-10.88,17.44s-28.54-3.25-38.72-11.53-26.75-22.84-37.61-9.51-6.35,24.52-.9,27.36,12.44.08,14.27-8.16,8.21-5.74,10.45-1.92,2.33,22.5-10.71,23.69-27.22-3.1-39.93-12.56-23.1-12-33.17-5.56-7,26.33,3.77,29.34c0,0,6.29,3.38,7.63-4.47.62-3.61,2.6-10,7.19-10,6.31-.07,8.72,8.78,6.57,13.52a19.28,19.28,0,0,1-7.33,8.65c-3.53,2.06-7.87,4-12.06,3.91-3.74-.12-7.33-3.08-10.57-4.79-14.94-7.92-31.94-19-48.65-8.07-7.33,4.78-12.13,17.91-8.64,26.23,1.76,4.21,3.78,7.62,8,9.44,3.75,1.61,8.49,2.34,11-1.84,3.27-5.39-5.56-16.11,4.12-18.29,10.69-2.4,14.76,12.38,11.39,20-6.08,13.71-23.38,16.09-36.16,11.82-3.75-1.26-7.07-3.54-10.85-4.72a50.78,50.78,0,0,0-14.8-2.28c-9.9-.11-20.42,3.94-22.57,14.69-1.62,8.08,1.93,18.93,11.67,19.07,8.22.12,5.78-7.51,9.68-12,4.14-4.72,11-3.11,11.91,3.1,1,6.57-2,13.07-6,18.19-12.42,15.79-31.17,1.51-47.09,4.57a26.29,26.29,0,0,0-20.91,22.75c-1,9.54,9.87,20.44,19.48,17.19,5.5-1.86,4.57-6.62.77-9.63-3.33-2.63-6.38-6.18-1.32-9.78,3.54-2.51,7.29-.59,10.14,2.05,4,3.68,5.73,7.18,5.14,12.74a17.39,17.39,0,0,1-9.21,14c-4.84,2.45-9.14,1.7-14.33,1.34-10.65-.73-25.07.42-32.19,9.76-5.56,7.29-10.41,22.62-2.22,29.93,3.94,3.52,16,6.65,19.14.55,2.78-5.45-6-9.37-5-15.43.68-4,4.16-4.85,7.73-4.84,5,0,7.58,2.37,8.65,7,1.63,7.08-.89,12.54-5.6,17.56-4.1,4.36-8,5.3-13.62,7.07-4.79,1.5-9.56,2.58-14.32,3.82C104.23,348.88,91,356,92.32,370.67a30.85,30.85,0,0,0,6.8,16.92c3.22,3.79,10.28,8.25,15.17,5.54,3.42-1.89,7.13-6.84,3.8-10.48-2.57-2.81-7.09-2.76-9.35-5.86-3.43-4.71-.17-9.65,5.21-10.41,5.61-.8,10.3,5.35,12.65,9.82a19,19,0,0,1-.07,17c-2,4.08-5.57,9-9.51,11.4-3.67,2.25-8.71,2.68-12.89,3.5C95.09,409.85,84.53,411.93,80,421c-3.26,6.47-3.72,16.87-.52,23.44,3,6.09,13.3,12.48,19.65,7.81,8-5.88-2.28-9.68-2.51-15.72-.27-7,8.16-8.39,12.76-5.28,14.89,10.09.5,27.66-10.43,34.25-3.47,2.09-7.52,3.15-10.76,5.49a74.84,74.84,0,0,0-10.5,9.36C72.38,486,70.25,499.61,72,507c1.86,7.83,7.86,12.46,15.62,13.27,6.9.72,14.49-6.56,10.66-13.56-2-3.64-7.24-5.51-7.39-10.08s5.49-6.21,9.19-5.13c8.21,2.41,10.8,11.34,11.65,18.93,1.14,10.14-3.1,15.49-11.51,20.82-8.84,5.61-20.16,11.41-22.09,22.71-1.69,9.89,0,19,7.06,26.18,5,5,14.91,12.68,21.32,5.22,2.16-2.51,2.73-7.56,1.65-10.55-1.18-3.25-3.86-4.17-6.92-5.61-2.75-1.29-7.63-3.91-6.12-7.76,1.22-3.12,6.48-4,9.31-3.92,8.78.16,17.67,9.69,17.66,18.54,0,4.34-.69,10-2.61,13.9-2.16,4.42-6.32,7.39-9.62,10.77-6.64,6.78-14.95,16.49-15.21,26.7-.11,4.23,2.16,8.37,3.66,12.29,1.7,4.42,5,8.81,10,9.82,8.44,1.71,20.48-8.52,13-16.32-3-3.11-6.86-4.84-6.91-9.53-.07-6.72,7.85-7.15,12.68-5.48,5.93,2,9.76,8.69,10,14.79.51,10.92-8.19,19.68-13.08,28.56-4.17,7.6-9.61,16.87-7.17,26.27,2.19,8.43,9.55,17.32,18.35,18.72,7.12,1.14,18.44-7.23,11.68-14.68-3.61-4-18.59-3-13.25-13.07,3.38-6.4,16-1.78,20,1.39,5.61,4.35,6.89,10.83,6.2,17.59-.85,8.27-7.19,13.12-11.76,19.47-5.31,7.37-6.69,14.42-2.8,22.79,3.44,7.41,8.35,15,16.39,18,4.46,1.65,9.75,2.61,14.11.32,3.8-2,4.83-5.88,3-9.55s-6.1-3.93-8.74-6.79c-2.31-2.51-2.81-7.37-1.05-10.2,4.73-7.61,15.18-1.89,19,3.27,7.1,9.67.24,18.53-3,28.23a57.06,57.06,0,0,0-2.83,15c-.24,4.48,2.12,9.05,4,13,3.15,6.75,5.83,10.26,12.28,14.11a18.93,18.93,0,0,0,16.81,1.55c10-3.55,6.9-13.7-.76-17.52-3.43-1.7-7.37-3.86-7.46-8.11-.07-3.4,2.34-5.37,5.34-6.45,8.23-3,16,1,19.73,8.82,4.11,8.56-1,20.74-2,29.62-1,9.06,1.52,15.81,7.18,22.82s16.81,10,25.11,6.75c4.68-1.82,7.3-8.43,5.62-13-1.43-3.87-4.95-5.35-8.64-6.14-2.68-.57-5.9-.61-7.55-3.21-2-3.14-.24-5.9,2.66-7.41,9.67-5,17.58.81,20.66,10.29,3,9.16.34,18.84,1.06,28.15.91,11.78,11.88,22.15,23.08,23.88,5.16.79,9.59.09,13.49-3.22,2.81-2.38,7.1-7.46,6.53-11.42-.67-4.61-6.13-4.16-9.45-3.73-3.13.4-8.41,1.46-9.86-2.24-1.64-4.17,2-7,5.21-8.52,7.42-3.59,13.32-3.28,20.39.69,2.23,1.26,4.24,1.63,5.6,3.86s1.51,5.06,2.07,7.45c1.12,4.8,2.48,9.36,3.89,14.07,2.47,8.25,5,15.78,11.38,21.76,5,4.67,11.25,11,18.91,9.6,3.94-.7,9.31-3.79,10.61-7.71,1.22-3.69,2.75-9.71-.23-13-5.13-5.66-12.21,3.14-18-1.29-7.55-5.77,1.68-12.49,7.56-13.61,8.29-1.57,14.75,7,18.63,13.32,3,4.91,5,10.4,8.05,15.28a77.78,77.78,0,0,0,10.6,13.6c2.27,2.32,4.17,5.23,7,7s6.3,1.62,9.45,1.72a22.34,22.34,0,0,0,18.15-7.63c6-6.93,6.79-15.55-3.63-17.4-4.26-.76-6.55,1.19-9.66,3.36s-8.23,3-9.47-1.62c-2.53-9.41,10.71-16.69,18.57-15.45,9.39,1.48,16.09,9.77,19.57,18,1.46,3.46,2.75,7.17,4.72,10.38s5.32,5.45,7.72,8.39c5.94,7.23,17.84,10.64,25.42,3.86,5.91-5.28,12.68-17.1,1.16-20.8-1.78-.57-5.51-1.16-7.4-.61-2.21.65-3.16,3-5,4.18-3.54,2.38-9.45.59-8.91-4.64.33-3.23,6.8-8.23,9.48-9.53,3.67-1.77,8.32-3.76,12.27-2,5.61,2.44,10.74,7.93,15,12.19,5.07,5.1,8.82,12.33,14.66,16,6.37,4,12,11,20.32,10,5.24-.68,10.87-2.84,14.44-6.9,2.84-3.22,5.27-10.18,4-14.53-.9-3.19-5-6.89-8.33-7-3.92-.15-7,3.15-9,6.36-1.8,2.88-3.64,5.83-7.64,4.74-3.42-.92-4-5-3.93-7.88.24-7.83,8.22-14.59,15.42-15.08,2.68-.18,6.52-.95,9.15-.14,3.5,1.07,6.83,5.93,9.38,8.43,3.86,3.78,6.1,8.87,9.84,12.75,3.4,3.52,6.27,7.9,10.79,10.2,5,2.53,12.89,3,18.31,1.53,7.18-1.93,12.52-4.63,16.82-10.53,4-5.51,6.19-12.2,1.09-18.16-2.68-3.14-9.06-6-12.61-3.41-2.59,1.89-3,5.63-5.87,7.39-8.63,5.25-12.38-6.12-9.38-12.5,3.32-7.06,14.84-8.33,21.57-6.95,5.88,1.2,8.4,3.49,13,6.83,4,2.88,8.38,5.2,12.35,8,3.53,2.48,7.88,2.73,12,3.61,3.27.7,6.8,1.5,10.21,1.25,8.91-.66,19.62-9.63,17.14-19.37-1.09-4.29-4.5-8.71-9-9.61-3.9-.79-6.56,1.39-9.08,4.14-2.34,2.55-1.81,8.16-4.24,10-3.46,2.61-8.28-1.3-9.47-4.35-3.18-8.19,1.17-17.81,9.77-20,7.79-2,18.75.87,25.9,4,9.35,4.07,21.86,8.45,32.2,7.24,5.37-.63,8.27-2.92,11.23-7.41,2.43-3.69,4-8,2.64-12.2-1.54-4.83-4.62-7.81-9.71-8.17-3.27-.23-6.48.58-7.64,4.17-.87,2.67-.59,6.76-4.19,7.91-4.44,1.43-5.89-5.29-5.93-8.25-.06-4.93,4.34-7.28,8.06-9.93,5.73-4.09,15.28-5,21.78-2.91,5.5,1.79,10.1,3.36,15.9,4.17,9.33,1.3,22.92,1,28.82-7.8,5.08-7.61,5.76-19.68-4.31-23.42-9.11-3.38-11.33,2.79-11.08,10.54.28,8.79-8.69,8.09-12.74,1.81-7.11-11.05,1.83-22.88,12.94-26.18a40,40,0,0,1,19.37-.4,148,148,0,0,0,19.44,3.72c11.11,1.39,24.3-3.23,27.87-14.69,1.43-4.6,2.08-9.15-1.38-13-3.05-3.4-9.66-6.4-14.4-5.58-7.89,1.37-5.21,16.28-13.22,15.36-3.15-.36-7.46-4.38-8.53-7.21-1.43-3.8,1.82-6.39,4-9a33.26,33.26,0,0,1,14.58-10.87c6.08-2.14,11.16-.61,17.36-.43,10.82.32,23.66-2.38,29.32-12.65,4-7.23,5.93-16.09.47-23.06a13.21,13.21,0,0,0-12.6-5c-2.1.29-4.69.72-6.46,1.9-2.11,1.41-2,3.52-1.81,5.89.3,4.86,10,12.5,2.79,16.1-9.14,4.54-15.17-6.24-15-13.83.44-18.09,23.34-20.63,36.61-23,14.06-2.48,27.65-8,29.43-23.43.82-7.1-4.16-12.53-11-14.73-5.24-1.7-12.92,1.44-12.9,7.64,0,2.69,2.5,6,2.72,9,.34,4.68-3.09,5.59-7.5,4.81-4.18-.74-6.67-4.28-7.46-8.41-1.41-7.33,3.84-16.38,9.94-20,4.11-2.46,9.18-3.94,13.87-5.24,7.1-2,15.87-5.46,21.44-10.41a25.61,25.61,0,0,0,8-22.46c-.69-5-2.59-10.28-7.53-12.52-4.17-1.89-10.25-2.83-14.17.35-5.17,4.2.91,12.69,2.5,17.36,1.17,3.44,1,6.36-2.88,7.9s-8-1.26-10.63-3.83c-5.3-5.22-7.26-15.26-3.9-22.17,2.7-5.55,7.21-9.29,12.18-12.73,2-1.38,3.63-3.31,5.78-4.4,2.81-1.42,6.11-1.47,9-2.52a40,40,0,0,0,10.78-5.6A36.88,36.88,0,0,0,922.94,556a17.45,17.45,0,0,0,1.86-10c-.46-4,.48-7.11-2.31-10.38-4.43-5.19-15-7.91-20.21-2-6,6.89,8,21.72-3.31,24.93-6.33,1.8-11.63-3.66-14.15-8.62a21.7,21.7,0,0,1-2.25-10.27c.52-6.83,8-11.75,13.08-15.09,3.82-2.53,7.88-5.17,11.66-7.87,6.79-4.86,13.58-10.65,18-17.87,4.25-7,3.57-17,1.34-24.46-2-6.7-13.24-13.51-20.09-10s-7.17,11-1.48,15.65c2.63,2.14,5.34,3,6.34,6.69.8,3,.46,5.58-1.52,7.79-5.33,6-15.62,2.93-19.31-3-4.14-6.69-4.89-16.17-.43-22.8,2.12-3.16,3.82-6,6.64-8.59,2.56-2.36,5.49-4.23,8.05-6.44a52.51,52.51,0,0,0,11.67-14c2.85-5.14,3.92-11.39,3.87-17.34,0-3.82-3.22-5.28-5-8.36s-3.26-4.92-6.64-6.19c-5.68-2.14-17.36-1.06-18.49,6.74-.67,4.61,2.71,5.31,6,7.08,2.5,1.34,4.65,4.92,5.19,7.57,1.8,8.8-8.33,13.53-14.62,7.42-2.08-2-3.07-4.31-4.34-6.85-1.37-2.74-3.72-6.39-4.12-9.48a16.53,16.53,0,0,1,.6-5.7,44.2,44.2,0,0,1,4.65-11.52c5.08-8.9,13.66-14.15,18.61-23,3.61-6.47,6.4-17.24,2.77-24.22-3.73-7.17-9.83-11.07-17.65-12.63-3.55-.71-9.16-.09-11.07,3.7-1.52,3,1.13,5.94,3,7.84,2.47,2.46,4.76,2.6,7.78,4.11,3.27,1.63,3.1,4.84,3,8.11-.19,8.42-11.31,12.83-18.54,9.58-16.24-7.29-12.42-28.52-3.92-39.88,5.75-7.7,11.36-14.11,13.74-23.76,1.88-7.65-1.3-18.43-7.93-23.06-6.42-4.49-14.09-8.55-21.88-4.15-7.51,4.24-4.7,11.52.29,16.14,3.88,3.6,9.5,2.53,10.61,9,1.28,7.44-6.51,10.69-12.89,9.75-8.26-1.22-12.83-8.84-13.36-16.45a48.8,48.8,0,0,1,1.41-15.06c2.22-8.56,6.15-16.38,8.22-24.95,4.09-16.91-5.87-37.38-25.43-35.91-7.42.56-13.52,4.33-11.86,12.48.65,3.17,1.57,7.09,3.85,9.49s6.35,3.5,9.08,5.53c3.17,2.35,3.67,6.24,2.54,9.84-1.36,4.34-4.8,6.06-9.22,5.44-2.16-.3-3.27-1.44-5-2.3-1.54-.75-3.52-.75-5.13-1.72-2.82-1.69-4.69-5-6.18-7.81-4.95-9.45-2.25-20,1.54-29.45,3.08-7.69,7.66-17.76,3.87-26-3.56-7.72-7.65-12.7-16.49-13.7-7.19-.81-17.87,1.65-18,10.59-.09,7.18,11,7.62,15.28,11.51s.95,9.1-3.22,11.4c-2.76,1.52-6.32,1.6-9.59,1.52-4.27-.1-7.42-3.09-10.18-6.17-5.66-6.32-7.13-13.42-7.47-21.74-.22-5.31,1.8-10.27,2.72-15.42,1-5.34-.47-9.66-1.16-14.84-.4-3-.21-6.32-1.65-9.12-3.61-7-10.74-10.89-18.29-11.43-5.07-.36-10.78,0-14.6,3.61-3,2.85-4.37,6.26-5.25,10.28-2.06,9.47,5.5,9.88,12.37,8.69,3.34-.58,8.27-2.5,11.62-1.32,3.26,5.56.41,11.55-4.42,15.64s-13.65,4.72-19.36,1.39a38.09,38.09,0,0,1-8.13-5.8c-2.09-2.18-5.06-5.2-6.45-7.79s-1.09-7.54-1.29-10.4.39-5.52.24-8.28-.7-5.93-.49-8.79a43.06,43.06,0,0,0-.45-11c-1.5-8-6-13.6-12.84-17.84-7.64-4.76-20.79-5.73-27.31,1.24-2.84,3-5.89,7.16-4.69,11.34.79,2.77,2.37,6.85,5.2,8.22,4.94,2.39,10.17.16,15.2.24,5.69.1,8.67,4.4,8.1,9.54-.63,5.67-5.82,9.11-11.16,10.08A20.72,20.72,0,0,1,664,155c-3.24-.78-4.75-3.38-7.29-5.37a7.52,7.52,0,0,1-2.57-3.71c-1-2.38-2.79-4.46-4-7-1.53-3.23-2.77-6.8-4.37-10.14a77.15,77.15,0,0,1-3.27-7.87c-1-3-.91-6.12-1.55-9.14a39.21,39.21,0,0,0-5.29-12.48c-3-4.42-9.72-7.11-14.89-7.68-4.76-.53-10.41-.55-14.35,2.74-3.6,3-6.54,7.2-6.09,12.16.56,6.16,7.41,11,13.52,9.56,5-1.15,9-5.82,13.07-.8,4.3,5.28-2,12.07-6.26,15.07-8.36,5.84-20,2-25.93-5.52s-7.79-17-12.06-25.33c-3.08-6-6-12.66-11.38-17a17.71,17.71,0,0,0-22.65.19c-5.94,5-8.85,13.75-3.72,20.41,1.94,2.52,4.75,4,8,3s4.45-4.54,6.95-6.78c6.52-5.86,12.38,1.16,10.93,8.31-1.33,6.52-6.8,13.65-13.65,14.47-4.51.54-10.74-2.89-14.48-5.3-4.78-3.07-8.32-7.47-11.55-12.07-4.38-6.22-8.58-12.37-12.8-18.73-5-7.48-10.83-12.63-20.34-12.39-8.51.22-19.84,4.18-22,13.36-1.43,6.1-1.36,14.59,6.46,16.17,8.18,1.65,9.47-10.32,15.81-13.08,3-1.32,7.36-.16,9,3s1,7.2-.16,10.48c-2.42,6.94-8.45,14.32-16,15.27-8.14,1-19.5-1-24.4-8.19-2-3-2.42-7.12-3.72-10.46A70.8,70.8,0,0,0,457.77,89c-4.33-7.13-11.31-15.58-20-16.48-10.49-1.09-22.68,5.38-26.91,15.25-2.87,6.71-2.8,13.27,4.47,16.11,6,2.35,8.3-.48,11.15-5.46a1.92,1.92,0,0,1-.62.79"/><polyline class="cls-3" points="857 375.75 893.67 378.72 903 728.1 849.67 722.91"/><polyline class="cls-3" points="104.33 378.72 96.33 722.17 149 719.2 143.67 377.23"/><rect class="cls-4" x="72.63" y="734.89" width="854.73" height="23.37"/><rect class="cls-4" x="54.55" y="755.62" width="890.9" height="23.37"/><rect class="cls-4" x="37.66" y="776.35" width="924.68" height="23.37"/><rect class="cls-4" x="82.57" y="226.42" width="834.87" height="133.98"/><path d="M146.9,372H99.34L92.46,738.15h61.31Zm-36,343.6A4.2,4.2,0,0,1,107,720a4.09,4.09,0,0,1-3.8-4.4l4-328.64a3,3,0,0,1,3.11-2.8,2.91,2.91,0,0,1,3,2.8Zm12.53,4.4a4.14,4.14,0,0,1-3.85-4.4l.7-328.64a3.09,3.09,0,0,1,6.16,0l.84,328.64A4.14,4.14,0,0,1,123.47,720Zm16.43,0a4.2,4.2,0,0,1-3.91-4.4L133.41,387a2.92,2.92,0,0,1,3-2.8,3,3,0,0,1,3.12,2.8l4.13,328.64A4.08,4.08,0,0,1,139.9,720Z"/><path d="M899.48,372H851.91L845,738.15h61.31Zm-36,343.6a4.2,4.2,0,0,1-3.91,4.4,4.09,4.09,0,0,1-3.8-4.4l4-328.64a3,3,0,0,1,3.11-2.8,2.91,2.91,0,0,1,3,2.8ZM876,720a4.14,4.14,0,0,1-3.85-4.4l.7-328.64a3.1,3.1,0,0,1,6.16,0l.84,328.64A4.14,4.14,0,0,1,876,720Zm16.43,0a4.21,4.21,0,0,1-3.91-4.4L886,387a2.91,2.91,0,0,1,3-2.8,3,3,0,0,1,3.11,2.8l4.13,328.64A4.08,4.08,0,0,1,892.47,720Z"/><rect x="81.97" y="357.77" width="82.29" height="17.87"/><rect x="834.55" y="357.77" width="82.29" height="17.87"/><rect x="82.37" y="714.9" width="82.29" height="17.87"/><rect x="835.73" y="714.9" width="82.29" height="17.87"/><rect class="cls-4" x="60.3" y="200.28" width="879.4" height="16.47"/><rect class="cls-4" x="72.63" y="218.02" width="854.73" height="9.47"/><rect class="cls-4" x="60.3" y="345.25" width="879.4" height="16.47"/><rect class="cls-4" x="72.63" y="334.5" width="854.73" height="9.47"/><path class="cls-5" d="M146.55,253.12q-4.2.16-8.63.42l-8.68.53-7.68.48q0,23.14-.48,37.21t-.29,17.14l29.38-11.68a.92.92,0,0,1-.09.53v-.11a3,3,0,0,1,0,.48q0,.58,0,2v4l-36.63,14.33q0-3.93,0-9.18t.14-11.36q.09-6.1.19-12.69t.24-13.11q.14-6.53.19-12.69t0-11.36q9.63-.21,19.41-.85t19.32-1.49l.76,7.22Q150.74,253,146.55,253.12Z"/><path class="cls-5" d="M210.46,315.37q-2.48-6.37-5.1-13.32T200,288q-3.72,1.59-7.11,3.24L186,294.57q-3.43,1.7-7.06,3.56t-7.92,4L166,316.65l-7.06-2.55q3.15-7.64,6.73-16.77t7.11-18.52q3.53-9.39,6.77-18.31t5.63-16.13l5.82,1q2.1,6.26,5.3,14.65t6.87,17.46q3.67,9.08,7.44,18.1T217.52,312ZM180.56,290q2.91-1.38,5.68-2.76t5.49-2.87l5.58-3.08q-2.48-6.47-4.87-12.63t-4.58-11.57q-1.62,3.93-3.1,7.8t-3.1,8.17q-1.62,4.3-3.39,9.13l-3.86,10.56Q177.65,291.39,180.56,290Z"/><path class="cls-5" d="M290.12,288q-1.34-5.84-2.29-9.13T286,272.81l-2-5.94q-1.05-3.19-2.67-8.7-1.43,2.76-3.34,7.38t-4,9.71l-4,9.82q-1.91,4.72-3.15,7.59h-6.11q-1.05-2.87-2.58-7.59t-3.1-9.82q-1.57-5.1-3.15-9.77a74,74,0,0,0-2.81-7.32q-2,5.52-4.48,13.22t-5.06,16q-2.57,8.28-5,16.19t-4.15,13.75l-7-2.34q2.19-6.37,5-14.86t5.72-17.73q3-9.24,5.87-18.68t5.49-17.94l7.35-1.27,11.35,36.62,15.07-36.3,6.39,1q1.33,5.63,2.34,9.61t1.91,7q.91,3,1.67,5.41t1.62,5q.86,2.55,1.77,5.63l2.15,7.32Z"/><path class="cls-5" d="M315.21,246.06l30.72,27-.29,3.82L313.5,294.25q0,2.55-.09,5.36t-.14,5.68q-.05,2.87-.14,5.63T313,316h-6.87q.29-8.07.53-16.93t.48-18q.24-9.13.43-18.1t.48-17.25h7.25A.89.89,0,0,0,315.21,246.06Zm-1.53,40.23L338,273.55l-23.37-19Z"/><path class="cls-5" d="M423.3,274.93q.29,1.91.67,3.72l-5.82,1q-.1,5.1-.19,10.14t-.19,9.77q-.1,4.72-.19,9t-.09,7.75h-7q.09-3.29.29-7.43t.33-8.76q.14-4.62.29-9.61t.33-10.08q-7.06.85-12.69,1.75T387.72,284q-.19,9-.33,17.41t-.24,14.54h-7q.19-5.94.53-14t.52-17a14.06,14.06,0,0,1-1.72.32l-1.72.21-1-7.75,2.43-.21q1.19-.1,2.34-.32.09-3,.14-6t.14-6.63q.09-3.61.14-8t0-10.14q1.62-.11,3.34-.16t3.34-.16l-.76,30.36q5.44-.64,11.07-1.49t13-1.91q.09-2.33.14-4.83t.09-5.52q0-3,.1-6.9t0-9.08q1.62-.1,3.34-.16t3.34-.16L418.44,272l4.29-.74Q423,273,423.3,274.93Z"/><path class="cls-5" d="M482.83,315.37q-2.48-6.37-5.1-13.32T472.34,288q-3.72,1.59-7.11,3.24l-6.82,3.34q-3.43,1.7-7.06,3.56t-7.92,4l-5.06,14.54-7.06-2.55q3.15-7.64,6.73-16.77t7.11-18.52q3.53-9.39,6.77-18.31t5.63-16.13l5.82,1q2.1,6.26,5.3,14.65t6.87,17.46q3.67,9.08,7.44,18.1T489.89,312ZM452.92,290q2.91-1.38,5.68-2.76t5.49-2.87l5.58-3.08q-2.48-6.47-4.87-12.63t-4.58-11.57q-1.62,3.93-3.1,7.8t-3.1,8.17q-1.62,4.3-3.39,9.13l-3.86,10.56Q450,291.39,452.92,290Z"/><path class="cls-5" d="M535.59,316H498.38q.76-15.6,1.77-32.69t1.38-36h7.35q-.76,17.41-1.76,32.75t-1.19,29.24l30-.85Z"/><path class="cls-5" d="M555,257.73q-.19,3.19-.38,7.32t-.38,8.7l28.24,9.55-.09,7.43-28.43-9.55q-.1,3.5-.24,8.17t-.24,9.55q-.1,4.88-.14,9.39t0,7.7h-7.35q.38-7.75.72-17.14t.57-18.74q.24-9.34.38-17.73t.14-14.22l34.73,11.36-.09,6.79Z"/><path class="cls-5" d="M605.85,285q-2.15.21-4.34.53a52.06,52.06,0,0,0-5.68,1.06q-3.1.74-5.2,1.27l-.19-7.11q1.91-.1,4.44-.42t5.2-.74q2.67-.42,5.15-.85t4.39-.85l.09,6.79Q608,284.8,605.85,285Z"/><path class="cls-5" d="M666.19,315.37q-2.48-6.37-5.1-13.32T655.69,288q-3.72,1.59-7.11,3.24l-6.82,3.34q-3.43,1.7-7.06,3.56t-7.92,4l-5.06,14.54-7.06-2.55q3.15-7.64,6.73-16.77t7.11-18.52q3.53-9.39,6.77-18.31t5.63-16.13l5.82,1q2.1,6.26,5.29,14.65t6.87,17.46q3.67,9.08,7.44,18.1T673.25,312ZM636.28,290q2.91-1.38,5.68-2.76t5.49-2.87L653,281.3q-2.48-6.47-4.87-12.63t-4.58-11.57q-1.62,3.93-3.1,7.8t-3.1,8.17q-1.62,4.3-3.39,9.13l-3.86,10.56Q633.37,291.39,636.28,290Z"/><path class="cls-5" d="M736.31,245.74l-8.4,42.46-4.58,1.91-32-34q.19,10.19,0,17.52t-.43,14.86q-.24,7.54-.48,14.76T690,316H683q.29-6.79.62-15.23t.57-17.62q.24-9.18.48-18.68t.43-18.31l5.44-1.59,31.86,33.76,7.16-32.59Z"/><path class="cls-5" d="M778.85,255.13q-4.29.16-8.82.42l-8.92.53-7.82.48q.29,10.51.43,18t.29,12.74q.14,5.2.19,8.44t.09,5.31q0,2.07.1,3.24c0,.78.08,1.49.14,2.12l23.66-9.24q.09-4.24.19-6.53t.09-3.45v-9.87h7q-.19,3.72-.29,6.1t-.19,4.41q-.1,2-.14,4t-.1,5q0,3-.09,7.48t-.14,11.25q-1.62.11-3.34.16t-3.34.16q0-3.5,0-5.63t0-3.29c0-.85,0-1.47,0-1.86s0-.76,0-1.11L747.28,316q0-5.84-.09-14T747,285q-.1-8.92-.14-18t0-16.93q9.64-.21,19.41-.85t19.32-1.49l.76,7.22Q783.15,255,778.85,255.13Z"/><path class="cls-5" d="M835.62,316H798.41q.76-15.6,1.76-32.69t1.38-36h7.35q-.76,17.41-1.77,32.75t-1.19,29.24l30-.85Z"/><path class="cls-5" d="M853.36,304.23q-.1,3.4-.1,6.48V316h-7.35q.38-7.75.72-17.14t.57-18.74q.24-9.34.38-17.73t.14-14.22l38.83,11.46-.09,6.79L855,257.73q-.19,3.19-.38,7.32t-.38,8.7l32.34,9.66-.09,7.43-32.53-9.66q-.19,3.08-.24,7.17t-.24,8.44l32.82,9.34.09,6.79Z"/><path class="cls-6" d="M645.9,441.73l7.19-17.51L634.9,427l-.18,0-25-21.91-3.44,18.58-25.09-13.09-19.52,11h.05l-22.57,3.07,24.93,10.31-31.05,9,26.34,13.37-.12.19-23.22,6.78,0,.45-31.78,17.43,27.42,17.55-1.24.37-33.47,1.44,9.5,11.64-.08.23-29.48,9.69-44.7-3.59-41.26,13.87-29.18,1.34-37.13,64.24L333.76,610,364,597.26l12-47.48,18.61-7.57-.54.23-11.54,32,1.3,36.57-23.25,17.42-9.88,46.52,4.06,5.26,1.08,22.07,21.69,7.42L368.66,661l2.54-23.94,34.53-12.82,2.34-1.24L397.68,654.1l16.95,34.09,6.51,29.7,17.47,6.5L432.29,684l-16-29.15,36.47-38.21,5-19.43.17-.65,36.81,3.38L538.77,595l0-.16,29.9,2.8.58-.37,26.16,28.81L581.73,643l-11.09-6.13L554.71,652l20.16,8.12,27.43-13.83,30.47-14.35-3.64-2.85,3.59-38.75,2.85-7.69-35.17-5.1-.44,0L618.6,541.2l0-.33L610.71,529l4.49-49.75,22.38,9.84s22.09,22.5,21.58,21.92,20.49-9.67,20.49-9.67ZM618.13,600.06l-1.65,19.06-20-18.42Z"/><polyline class="cls-7" points="498.33 520.33 519 425 310.33 472.33"/><polygon points="294.64 475.34 312.24 460.07 316.66 482.95 294.64 475.34"/><path class="cls-7" d="M468.5,436.33s2,32.25,39,35"/><rect class="cls-8" x="480.84" y="411.14" width="44.98" height="59.99" transform="translate(-163.78 495.03) rotate(-45.85)"/><rect class="cls-9" x="488.08" y="448.29" width="8.35" height="6" transform="translate(-174.42 490.16) rotate(-45.85)"/><rect class="cls-9" x="498.52" y="437.54" width="8.35" height="6" transform="translate(-163.55 494.38) rotate(-45.85)"/><rect class="cls-9" x="508.91" y="426.83" width="8.35" height="6" transform="translate(-152.71 498.59) rotate(-45.85)"/><rect class="cls-8" x="449.51" y="443.42" width="44.98" height="59.99" transform="translate(-196.45 482.34) rotate(-45.85)"/><rect class="cls-9" x="456.75" y="480.56" width="8.35" height="6" transform="translate(-207.09 477.47) rotate(-45.85)"/><rect class="cls-9" x="467.18" y="469.82" width="8.35" height="6" transform="translate(-196.22 481.7) rotate(-45.85)"/><rect class="cls-9" x="477.58" y="459.11" width="8.35" height="6" transform="translate(-185.38 485.91) rotate(-45.85)"/><rect class="cls-8" x="418.17" y="475.7" width="44.98" height="59.99" transform="translate(-229.12 469.65) rotate(-45.85)"/><rect class="cls-9" x="425.42" y="512.84" width="8.35" height="6" transform="translate(-239.76 464.78) rotate(-45.85)"/><rect class="cls-9" x="435.85" y="502.1" width="8.35" height="6" transform="translate(-228.89 469.01) rotate(-45.85)"/><rect class="cls-9" x="446.25" y="491.39" width="8.35" height="6" transform="translate(-218.05 473.22) rotate(-45.85)"/><polyline class="cls-7" points="529.75 489.74 580.33 406.33 367.63 383.14"/><polygon points="351.81 380.87 373.43 372.17 370.15 395.24 351.81 380.87"/><path class="cls-7" d="M528.9,400.61s-8.61,31.14,25.48,45.79"/><rect class="cls-8" x="537.77" y="386.49" width="44.98" height="59.99" transform="translate(-127.7 297.92) rotate(-26.85)"/><rect class="cls-9" x="542.32" y="419.48" width="8.35" height="6" transform="translate(-131.89 292.34) rotate(-26.85)"/><rect class="cls-9" x="555.68" y="412.72" width="8.35" height="6" transform="translate(-127.4 297.65) rotate(-26.85)"/><rect class="cls-9" x="569" y="405.97" width="8.35" height="6" transform="translate(-122.92 302.94) rotate(-26.85)"/><rect class="cls-8" x="497.64" y="406.81" width="44.98" height="59.99" transform="translate(-141.21 281.98) rotate(-26.85)"/><rect class="cls-9" x="515.54" y="433.03" width="8.35" height="6" transform="translate(-140.9 281.71) rotate(-26.85)"/><rect class="cls-9" x="528.86" y="426.29" width="8.35" height="6" transform="translate(-136.42 287) rotate(-26.85)"/><path class="cls-10" d="M401,819.85l.83,2.19a1.35,1.35,0,0,0,.37,1.13l.11.19a14.11,14.11,0,0,0,4.46,6.33,2.15,2.15,0,0,0,1.27,1.12c1.18,1.6,3.26,2.59,5.52,3.45l0,0a1,1,0,0,0,.61,0h0l.28.3.31.13.36.09.16.14.15.17a1.28,1.28,0,0,0,.32.09,48,48,0,0,0,6.5,1.33h0l.42,0a12.53,12.53,0,0,0,1.41.22,7.86,7.86,0,0,0,3.63-.24c.72-.32,1-.22,1.26.13.35.56.91.65,1.74.3a1.69,1.69,0,0,0,1.39.7,3.62,3.62,0,0,1,1.31.37c1.25.6,2.55,1.17,3.81,1.77.94.45,1.92.85,2.85,1.3a27.47,27.47,0,0,0,4.45,2,19.9,19.9,0,0,1,3.47,1.83c1-.06,1.48.64,2.44.7a.53.53,0,0,0,.5.26h0c0,.14.51.37-.27.42-1.34.08-2.69.21-4,.31a1.64,1.64,0,0,0-1.36,0l-.65,0a2.84,2.84,0,0,0-1.79-.66,13.36,13.36,0,0,0-2.25-1c-.35-.16-.68-.33-1-.46a18.43,18.43,0,0,1-4.19-2.1,1.43,1.43,0,0,0-.87-.46l-4.85-1h0l-1.43-.16a34.89,34.89,0,0,0-4.18-.8,31.45,31.45,0,0,0-6-.42,2.52,2.52,0,0,0-1.47-.16l-.41-.07a.47.47,0,0,0-.39-.09,15.86,15.86,0,0,0-1.59-.1,6.8,6.8,0,0,0-3.78.75,3.09,3.09,0,0,0-1.87,1c-.27.31-.44.63.17.81.23.34.43.69.68,1,.74,1,1.15,2.11,2.66,2.74l.16.16c0,.16.17.27.41.31a28,28,0,0,0,6.13,3.64,16.38,16.38,0,0,0,2.22.79c1.12.33,2.39.29,3.51.55a.44.44,0,0,0,.41.11h0c0,.18-.21.42.09.5.45.12.65-.2.93-.36a9.66,9.66,0,0,0,3-.1,1.19,1.19,0,0,0,.8.14,22.45,22.45,0,0,0,4.64-.61,37.19,37.19,0,0,0,6.6-.85,4.23,4.23,0,0,0,1.83-.43l.3-.08s0,0,.08-.07h0l-.11.08.29-.09.28-.09h.68a2.19,2.19,0,0,0,1.81-.35,9,9,0,0,1,4-.75,3.28,3.28,0,0,0,.86-.17h0a2.38,2.38,0,0,0,1.18.23c.89,0,1.81,0,2.65.09a5.06,5.06,0,0,0,2.35-.18,11.26,11.26,0,0,1,2.06.59,26.79,26.79,0,0,0,4.63,1.46c0,.63-.78.82-1.42,1.09-.19,0-.39,0-.57-.06a30.82,30.82,0,0,0-7.63-.71c-.87-.06-1.75.47-2.62.2-.55-.16-1.07.14-1.62.18a28.66,28.66,0,0,0-8,1.41,9.72,9.72,0,0,0-2.1.28c-1.58.43-3.14.91-4.74,1.3a7.59,7.59,0,0,0-2.84,1.07c-.54.29-1.41.13-1.77.55-.55.64-1.56.9-2.26,1.4-.5.35-1.29.46-1.63.93a13.69,13.69,0,0,1-3.11,1.41c-.65.13-.49.46-.4.74l.12,0v0l-.12,0c-.47.41-.41.83.17,1a20.84,20.84,0,0,0,4.22,1.21,6.55,6.55,0,0,0,1.65.55h0a2.45,2.45,0,0,0,1.06.46,21.92,21.92,0,0,0,4.22,1,11.6,11.6,0,0,0,3.6.34,13.22,13.22,0,0,0,3.75.08h0a22.34,22.34,0,0,0,7.29-.9h0l.87-.24a6.62,6.62,0,0,0,2.36-.58,32.66,32.66,0,0,0,4.09-1.31c.89-.36,1.68-.84,2.58-1.19a21.16,21.16,0,0,0,4.21-2.15h0c1.35-.69,2.87-1.22,4.14-2,.94-.37,1.89-.73,2.17-1.5l-.14-.05.09,0h0a.28.28,0,0,1,.05.09.72.72,0,0,0,.25-.13,5.86,5.86,0,0,0,1.41-.46,9.58,9.58,0,0,1,2.85-1,13.55,13.55,0,0,0,2.94-.58,16.73,16.73,0,0,0,3.11,0,12.05,12.05,0,0,0,3.18.25h0c.54.28.37.6-.05.94a1.15,1.15,0,0,1-1.21.19,1.51,1.51,0,0,0-1.24.16,22.58,22.58,0,0,1-4.91,1.55,7.61,7.61,0,0,0-2.69.73,6.62,6.62,0,0,1-2.18,1,5.28,5.28,0,0,0-2.94,1.79,82.65,82.65,0,0,0-7.4,4.66,1.22,1.22,0,0,0-.71.62.71.71,0,0,0-.42.35,7.47,7.47,0,0,0-2.78,2.76,2.84,2.84,0,0,0-.78,1,17,17,0,0,1-.92,2c-.72,1.4-.69,1.4,1.52,1.71h0c.29.17.91,0,1,.24.31.64,1.07.36,1.71.28s1.19-.2,1.78-.3a.32.32,0,0,0,.22,0h0a22.56,22.56,0,0,0,4.08-.07,30.21,30.21,0,0,0,10.1-1.49,26,26,0,0,0,6.32-2.91,26.45,26.45,0,0,0,3.56-2,16.84,16.84,0,0,0,4-2.71h0a18.75,18.75,0,0,0,5.13-4.19c.9-1.08,1.3-2.28,2.44-3.29a1,1,0,0,0,.81-.9h0a.85.85,0,0,0,.75-.61.5.5,0,0,0,.22-.08.7.7,0,0,0,.54-.37h0a.41.41,0,0,0,.19-.1c.76-.21,1.57-.37,2.29-.63a14.45,14.45,0,0,1,6.25-1.07,1.71,1.71,0,0,0,1.47-.39,1.63,1.63,0,0,1,1.18-.4l1.8-.16a.51.51,0,0,0,.34,0,2.48,2.48,0,0,0,.61-.13l2.58-.19a1.38,1.38,0,0,1,.38-.2,2.86,2.86,0,0,0-.38.2c.25.15.86-.09.92.36-1.14.24-2.07.8-3.17,1.11a21.09,21.09,0,0,0-2.86,1.07c-2,.91-3.92,2-6.06,2.76a11.09,11.09,0,0,0-3.9,2.4h0a10.17,10.17,0,0,0-3,2.54c-.68.86-1.64,1.71-1.67,2.71h0a1,1,0,0,0-.62.64,5.11,5.11,0,0,0-1.14,2c-.39.39-.36.84-.6,1.25-.08.09-.25.19-.24.26.29.93-.35,1.81-.82,2.7a9,9,0,0,1-2.81,3.72c-.13.19-.06.34.26.33a5.06,5.06,0,0,0,1.75-.3,3.54,3.54,0,0,1,1.59-.29h0a17.56,17.56,0,0,0,2.93-.31,34.87,34.87,0,0,1,4.17-.94s0,0,.07-.07h0l-.1.08a1,1,0,0,0,.26-.08l.58-.18a2.11,2.11,0,0,0,1-.13,41.09,41.09,0,0,1,4.66-1.69l.57-.18c.55-.23,1.26-.29,1.63-.71h0a4.71,4.71,0,0,0,1.3-.63,11.61,11.61,0,0,1,1.68-.75,8.78,8.78,0,0,0,2.81-1.94,12.58,12.58,0,0,0,2.89-2.2,20.9,20.9,0,0,1,3.55-3.42,10.06,10.06,0,0,0,1.71-1.47,13,13,0,0,0,3.06-5.7,3.91,3.91,0,0,0,.1-1.75c.23-.35.79-.41,1.18-.62,1.07-.55,2.55-.74,3.26-1.62h0c1.23-.49,2.57-.79,3.82-1.23a7.55,7.55,0,0,0,2.39-.94h0a25.35,25.35,0,0,0,4.06-.9c1.16-.39,2.33-.77,3.54-1a7.26,7.26,0,0,0,1.62-.58,2.39,2.39,0,0,0,1-.12l-.11.43c-.77.4-1.83.43-2.45,1h0l-.82.29-1.12.35a2.25,2.25,0,0,0-1,.71,3.21,3.21,0,0,0-1.37.7c-1.14,1-2.17,2-3.33,3-1.64,1.41-2.25,3.14-3.19,4.76-.19.33-.5.7-.31,1.06-.62.59-.6,1.3-1.14,1.92-.25.13-.24.26-.1.4l.13.36a1.9,1.9,0,0,0-.2,1.31c-.44.33-.36.69-.35,1s0,.91.06,1.36a.31.31,0,0,0,0,.44h0c0,.06,0,.13,0,.19a4.6,4.6,0,0,0,.08,2.92c-.16.37-.69.67-.7,1.07a12.91,12.91,0,0,0-1.42,1.93,1.85,1.85,0,0,0,1.21,0l.88,0h0a4.44,4.44,0,0,0,3-1.3,2.66,2.66,0,0,1,1.44-.72,13.62,13.62,0,0,0,2.84-.78,4.79,4.79,0,0,0,2-.78l.76-.29c.64-.26,1.48-.29,1.89-.81a9,9,0,0,0,1-.36,37.92,37.92,0,0,0,8.16-5.49,6.39,6.39,0,0,0,1.62-1.75c1.81-1.18,2.6-2.69,3.63-4.12l-.19-.15a.45.45,0,0,1,.19.15.86.86,0,0,0,.43-.52.87.87,0,0,0,.32-.57,7.89,7.89,0,0,1,1.32-4,2.53,2.53,0,0,0,.63-1.24.73.73,0,0,0,.11-.26l0,0q.21-.09.17-.24c.28-.52.67-1,.55-1.58.16-.18.29-.36.22-.56h0l.2-.88c.21-.24.06-.44-.1-.63-.11-.39-.7-.58-.85-1a6.87,6.87,0,0,1,4.37-2.89.81.81,0,0,0,.28-.09l1.42-.45.3-.1a3.29,3.29,0,0,0,1.38-.61l.83-.27c2-.63,3.68-1.68,5.72-2.27,2.89-.83,5.74-1.74,8.55-2.71l.29-.1.52-.19a2.32,2.32,0,0,1,.36-.2,56.43,56.43,0,0,0,8.08-3.31c.33-.09.66-.18.78-.44a8.2,8.2,0,0,0,1-.34c1.15-.57,2.52-1,3.06-2a.71.71,0,0,0,.37-.52l.19-.29c.1-.19.05-.35-.28-.31a7.45,7.45,0,0,0-.86.22c-2.28.56-4.26,1.55-6.41,2.29a2.67,2.67,0,0,1-1,.18l.7-.73c.78-.27,1.58-.53,2.35-.82.55-.2,1-.82.7-1s-.83-.07-1.33.13a29.21,29.21,0,0,1-2.91,1.43c-.24.07-.43.17-.47.35h0c-.32.09-.66.18-.75.45l-.27.1a2.8,2.8,0,0,0-.66.28,29.84,29.84,0,0,1-3,2.12,13,13,0,0,1-4,1.33,1.45,1.45,0,0,0-1,.47,0,0,0,0,1,0,0,.24.24,0,0,0,0,0l-.25.11-.57.18a15.11,15.11,0,0,0-3.4,1.25,5.62,5.62,0,0,0-1.8.83,2.29,2.29,0,0,1-1.31.15,2.88,2.88,0,0,0-2.43.37,26,26,0,0,1-5.17,2.1,2.05,2.05,0,0,0-.26.11c-2.54,1.06-5.32,1.74-7.92,2.7l-.57.16a.43.43,0,0,0-.59.19h0l-1.19.17a5.91,5.91,0,0,0-.88,0c-2.1.21-4.18.25-6.27.31a9.05,9.05,0,0,0-1.61,0c-1.41.27-2.83.49-4.24.72l-1.83-.27-.67-.4h0c-.11-.26-.15-.56-.65-.63h0c-.14-.4-.56-.67-.91-1a4.68,4.68,0,0,0-1.63-1.58l-.2-.36h0c-.14-.65-.82-1-1.53-1.4-.16-.25-.23-.54-.7-.64a11.84,11.84,0,0,0-2.37-1.44,21.41,21.41,0,0,0-5-2.29.64.64,0,0,0-.47-.32,6,6,0,0,0-2.4-1.08c-.24-.34-.77-.39-1.27-.45a7.81,7.81,0,0,0-3.59-1,.31.31,0,0,1-.1.12l.1-.12a8.69,8.69,0,0,0-3.27-.79,21.46,21.46,0,0,0-4.88-.37l-.41,0-.31,0a10.85,10.85,0,0,0-4.9.3.32.32,0,0,0-.15-.12c0-.11-.16-.15-.34-.13h0a1.94,1.94,0,0,0-1-.51,14.1,14.1,0,0,1-2.22-1c-.54.53-1.26.95-.87,1.56l-.22.26c-.21.32,0,.56.22.81l.11.31c-.2.28,0,.5.14.73.39.62.8,1.24,1.21,1.86a1.22,1.22,0,0,0,.72.86,5.46,5.46,0,0,0,1.38,1.62.76.76,0,0,0,.56.48l.37.46a5.28,5.28,0,0,0,1.37,1.26,10.86,10.86,0,0,0,2.49,2h0a.24.24,0,0,0,.14.11c.25.45.19,1.07,1.28,1.07h0a.51.51,0,0,0,.48.27.39.39,0,0,0,.36.11.68.68,0,0,0,.52.29,5.14,5.14,0,0,0,2.11,1.16,8.34,8.34,0,0,0,2.34,1.15,9.32,9.32,0,0,1,2.06,1,13.18,13.18,0,0,0,2.75,1.27l.35.1h0a1.52,1.52,0,0,1,.37.12,8.9,8.9,0,0,0,2.84.75,21.76,21.76,0,0,0,5.7.5,2.55,2.55,0,0,0,1.35,0h.68c.69.05.87.26.39.68l-.53.19h0a41.39,41.39,0,0,1-5.49,1.48,39.25,39.25,0,0,1-10.28.81,26.72,26.72,0,0,0-6.85.72,12.77,12.77,0,0,1-5.58.28c-1.55-.26-2-.94-1.5-2h-.25a.67.67,0,0,1,.25,0c.58-1.1,1.1-2.2.43-3.27h0c.1-.86-.7-1.48-1.05-2.22l-.4-1a20.38,20.38,0,0,0-1.93-3.51.69.69,0,0,0-.07-.17h0c.12-.16.16-.35,0-.47-.59-.41-.78-1-1.33-1.4-.33-.25-.32-.69-1-.75-.66-.79-2-1.08-3-1.58a22.33,22.33,0,0,0-5.24-1.74,1.19,1.19,0,0,1-.8-.49,1.73,1.73,0,0,0-1.3-.67,1.81,1.81,0,0,1-.71-.28c-1.43-.68-2.61-1.61-4.59-1.76a2.65,2.65,0,0,1-.52-.14c-1.77.17-1.87.25-1.59,1.34l-.21.26c-.31.32,0,.54.15.8h0c-.29.89.25,1.64.47,2.44.36,1.34,1.14,2.65,0,4.11-.21.32,0,.57.19.83a11,11,0,0,1,.61,1.06,32.17,32.17,0,0,0,2.69,5,.07.07,0,0,0,0,0c.22.7,1,1.19,1.43,1.8h0a.61.61,0,0,0,.57.48,5.45,5.45,0,0,0,2.35,1.14h0l.26.32.38.13h0a.27.27,0,0,0,.11.13l.37.08,1.29.44a.45.45,0,0,0,.49.25,1.09,1.09,0,0,0,.25,0l.44.08a.45.45,0,0,0,.15.14l.34.1h0a.59.59,0,0,0,.12.15,3,3,0,0,0,1.57.34c.25,0,.54,0,.56.22s-.18.34-.45.38a7.49,7.49,0,0,1-1.63.09,8.39,8.39,0,0,0-2.5,0,3.63,3.63,0,0,0-1.56.2,5.8,5.8,0,0,1-2,.12,1.38,1.38,0,0,0-.95.07c-.06,0-.11-.13-.18-.13a16.66,16.66,0,0,1-4.27-.63c-.15-.06-.47.07-.71.11a1.28,1.28,0,0,0-.67,0,1.72,1.72,0,0,0-1.29,0,1.51,1.51,0,0,0-.28,0c-.39,0-.81.12-1.05-.14s.23-.46.44-.66.79-.5.39-.85a1.76,1.76,0,0,1-1.08-2,9.36,9.36,0,0,0-.4-3,2,2,0,0,0,0-1.08,12.1,12.1,0,0,0-.05-1.44,5.46,5.46,0,0,0-1.59-4.12l-.1-.18c-.13-.33-.22-.68-.78-.81l-.25-.33a.63.63,0,0,0,0-.47c-.79-1.28-2.36-2.07-4-2.84-.87-.12-1.2-.67-1.85-1a.25.25,0,0,0-.15-.11.38.38,0,0,0-.34-.12h0a.69.69,0,0,0-.54-.23h0a.49.49,0,0,0-.38-.16h0a4.79,4.79,0,0,0-1.26-.38c-.31-.16-.73,0-1.08-.12a5.92,5.92,0,0,0-1.88-.82,1.73,1.73,0,0,0-1.23-.55,14,14,0,0,1-3.28-.78,5.34,5.34,0,0,1-2.45-.1,4,4,0,0,0-1,0,8.64,8.64,0,0,1-3.09-.71,8.91,8.91,0,0,0-1.12-.4.62.62,0,0,0-.55,0c-.19.12-.15.26,0,.34.46.26.59.7,1.25.86a2,2,0,0,1,1.52,1.15l0,0c-.38.4-.08.59.41.72.17.58-.57,1.15-.34,1.73l-.19.14c-1.3.39-1.41.58-.68,1.24h0l.37.5.23.52a3.16,3.16,0,0,0,.13,1.41h0a4.16,4.16,0,0,0,1,2.05,25.48,25.48,0,0,0,1.77,3,4.2,4.2,0,0,1,1,1.12,5,5,0,0,0,2.24,2.09l.46.65c-.4.54-1.28.56-1.91.84a22.08,22.08,0,0,1-3.44-1.22c-.57-.4-1.26-.73-1.49-1.31-.09-.24-.48-.27-.8-.36a14.3,14.3,0,0,1-3.11-1.09c-1.07-.59-2.45-.79-3.49-1.38a7.29,7.29,0,0,0-2.66-1,14.39,14.39,0,0,1-4.3-1.75,4.13,4.13,0,0,0-1-.36c-.16-.19-.25-.48-.51-.54a11.34,11.34,0,0,1-2-1c-.83-.36-1.72-.74-2-1.47a.27.27,0,0,0,0-.16,11.44,11.44,0,0,0-.43-2.84l-.09-.19c-.24-1.33-1.22-2.45-1.81-3.68a9.11,9.11,0,0,0-2.75-2.87l-2.94-2h0l-2.39-1.54a.74.74,0,0,0-.25-.16h0a.49.49,0,0,0-.49-.27l-.37-.11a.62.62,0,0,0-.52-.24c-.75-.29-1.12-.87-2-1.09a.26.26,0,0,0-.16-.1l-4.27-1.6c-.59-.18-.63-.81-1.51-.75a4.17,4.17,0,0,0-2.83-.81l-1.06-.08a.51.51,0,0,0-.41,0h0a.65.65,0,0,0-.66,0l-.27,0c-.2-.28-.68-.32-1-.5-.33-.43-.91-.24-1.46-.15-1.22-.24-1.42-.12-1.26.78-.25.4.11.68.29,1h0c-.23.62-.68,1.22-.54,1.86C401.1,818.88,400.77,819.35,401,819.85ZM501.1,866.08a.21.21,0,0,1-.11.14l-.21.11h0Zm5.92-3.27,0,0s0,0,0,0l-.07,0S507,862.82,507,862.81Zm-5.23,3.41,0,.06-.11,0Zm.45-3.43h0Zm19.86-10,0,0,.08,0Zm3.76-2.27,0,0h0v0Zm-1.43-.18h0Zm-12.61,14.73h0Zm-13.66,3.73,0,0-.27,0Zm-1.54.66a1,1,0,0,1-.37.13,2.87,2.87,0,0,1-.84.2,5.8,5.8,0,0,0,.82-.2h0Zm2.91-6.77h0Zm56.68-17h0v0Zm-4.47,4.36h0a1.18,1.18,0,0,1,.22-.16Zm-5.4,10.53h.1Zm1.21-1s0,0,0,0l0,0Zm-5.38-2.7,0,0h0Zm16.49-5.78-.12,0,.13,0Zm-2.79.77,0,0h-.06v0h0Zm-44.14-21.21-.06,0,0,0Zm.13,0h0Zm20.34,9.41h0Zm-19.1-6.42-.06,0v0ZM514,835l0,0s0,0,0,0Zm8.81,4.74h0Zm-12.94-6.38s0-.06,0-.09a.33.33,0,0,1,0,.08h0Zm23.32,8.33h0ZM510.7,828.28h.05l-.05,0S510.7,828.3,510.7,828.28Zm47.77,23.44,0,0c-.06,0-.07,0,0-.07l0,0ZM542,847.95h0ZM582.43,832l0-.1.15,0h0A1.63,1.63,0,0,1,582.43,832Zm-1.47.38h0Zm1.32-.52h0l.1,0v0h-.11Zm-21,14.95h0ZM558.55,852l0,0,.07,0Zm-16.21-6.25h0Zm-73.51,13.16a.23.23,0,0,1,.06.17l-.08-.16ZM482,866.65h0Zm-17-.83.07,0-.08,0S464.9,865.85,464.91,865.82Zm0,0h0Zm5.4-.45h0ZM475,863h0Zm0,0h0Zm4.21-2.6h0Zm3.63-.12h0Zm-11.74,1.33h0l0,0Zm3.82,1.2v0h0Zm0,1.79c-.11,0-.15,0-.16-.11Zm4-7.07.07,0v0Zm9.2,2.46h0Zm2.46-6h0l0,0Zm-26.18,17h0Zm-2-4.23.17-.18.19,0A2.46,2.46,0,0,1,462.48,866.76Zm25.46-19.47.06,0,0,0Zm5.62-3.23h0l.08,0s-.05,0-.09,0Zm0,0h0Zm6.64,3.87H500l0-.06h0A.64.64,0,0,1,500.15,847.95Zm-68.35-.62h-.15l.12,0Zm-12.53-.76a.41.41,0,0,0,0-.07l.19,0Zm24.41,1.4h0Zm-4.85,1.57h0l0,0h0Zm-6.25,6v0Zm3.82,6.46h.27l-.1,0C436.48,862,436.43,862,436.41,862Zm5.39-1.83h0Zm0,0h0Zm10.57-2.74h0s0,0,0,0Zm-13.1,4.17h0v0Zm0,0h0a.13.13,0,0,0,0,0l0,0Zm27.36-9.79v0l0,0Zm2.57-7.21h0l.14,0-.14,0Zm-13-9h0Zm12.1,10.18v0h-.16c-.18,0-.25-.07-.29-.13A1.82,1.82,0,0,0,468.33,845.72Zm3.81-7.05h0Zm-3.27,6.14,0,0,0,0Zm-21.34,18.1h0l.11,0,.05.09Zm-3-10.25a.24.24,0,0,1,0,0h0Zm-27.69-23.74h0l0,0Zm-.17,1.6-.05-.06h0s0,0,.1.08h0l.09,0h0a.15.15,0,0,1-.1,0c-.08,0-.12,0-.14,0Zm-8.5-4h-.05S408.14,826.51,408.18,826.52Zm20.66,7.28,0,0,0,0h0Zm-12.12-11.66a.22.22,0,0,1-.08-.09Z"/><path class="cls-10" d="M420.64,864.84c.08,0,0,.09-.09.12s-.08,0-.13,0l.08-.08S420.62,864.83,420.64,864.84Z"/><polygon class="cls-10" points="494.16 892.54 494.11 892.5 494.19 892.48 494.16 892.54"/><path class="cls-10" d="M448,845s0-.06,0-.08h0Z"/><polygon points="521.66 162.31 611.43 140.92 574.18 176.44 500.4 183.72 478.85 185.84 480.82 177.37 481.17 175.83 456.5 180.82 444.38 183.28 441.14 177.37 438.18 171.95 388.57 181.41 436.85 160.54 446.9 156.19 452.5 165.52 454.34 168.59 496.65 150.33 535.35 133.62 521.88 161.85 521.66 162.31"/><path d="M771,640c-31,0-48.92,10.88-48.92,10.88L724,639.34a82.81,82.81,0,0,1,94.12,0l1.86,11.58S802.05,640,771,640Z"/><path d="M771,645.5a119.71,119.71,0,0,1,23.7,2.31,106.58,106.58,0,0,1,24,8.58l-10.81,17.16s-19.29-3.9-36.85-3.9-36.85,3.9-36.85,3.9l-10.81-17.16a106.28,106.28,0,0,1,23.54-8.47A119.05,119.05,0,0,1,771,645.5Z"/><path d="M806,678.18c.62,1.88.41,4.32-4.65,4.47-7.68.23-53,.23-60.71,0-5.07-.15-5.27-2.58-4.65-4.47,4.56-.85,20.49-3.6,35-3.6S801.48,677.33,806,678.18Z"/><path d="M800.76,687.6,795,735.51H748.11l-6.67-47.9c5.14.11,18.88.15,29.59.15S795.74,687.72,800.76,687.6Z"/><path d="M801.7,603.69c3-13.14-5.07-23.86-8.67-27.86a31.61,31.61,0,0,1-4-5.56,20.2,20.2,0,0,0-1.48,9.55c-1.25-3.32-3.14-9.48-8.63-14s-10.67-4-14.77-17.68c-2.5,5.35-6,10.75-8.21,18.39s-2.64,18.27-2.64,18.27l-9.56-10.61a62,62,0,0,0-4,21.62c0,14.07,5.78,21.79,12.55,26a89.19,89.19,0,0,0-12.1,3.68c-10.36-8.47-16.52-22-16.52-39.74,0-31.72,18.31-53,18.31-53s-2.73,9.67,3.16,15.84c8-31.61,26.33-50.13,26.33-50.13s-7.67,25.37,9.23,36.41a34.76,34.76,0,0,1,5.63,4.59c4.49-12.16,11.08-16.65,11.08-16.65S793.19,540.72,803,551c11,11.54,18.68,29.32,14,48.65-2.42,10-7,19.35-14.79,26a89.35,89.35,0,0,0-12-3.71C796,618.1,799.81,612,801.7,603.69Z"/><path d="M747.68,603.68a46.26,46.26,0,0,1,3-16.12l7.13,7.91a68,68,0,0,1,2-13.62c1.67-5.7,4.26-9.73,6.12-13.71,3.06,10.18,6.92,9.82,11,13.18s5.5,8,6.43,10.43a15.06,15.06,0,0,1,1.1-7.12,23.59,23.59,0,0,0,3,4.14c2.69,3,8.69,11,6.46,20.77a22.52,22.52,0,0,1-6.34,11.86,83.32,83.32,0,0,0-32.88,0C750.72,618,747.68,612.48,747.68,603.68Z"/><path class="cls-3" d="M762.9,612.28s-3.7-15.55,5.37-24.24a28,28,0,0,0,6.48,5.8c4.07,2.64,7.59,7.38,5.93,14.49,0,0,4.26-1.32,4.44-7.64,0,0,5.61,3.58,2.22,12.91a29,29,0,0,1-5,9.08,77.1,77.1,0,0,0-22.69,0c-2-3-4.83-8.44-6.52-17.27C753.09,605.43,760.68,606.75,762.9,612.28Z"/><path d="M229,640c31,0,48.92,10.88,48.92,10.88L276,639.34a82.81,82.81,0,0,0-94.12,0l-1.86,11.58S197.95,640,229,640Z"/><path d="M229,645.5a119.71,119.71,0,0,0-23.7,2.31,106.58,106.58,0,0,0-24,8.58l10.81,17.16s19.29-3.9,36.85-3.9,36.85,3.9,36.85,3.9l10.81-17.16a106.28,106.28,0,0,0-23.54-8.47A119.05,119.05,0,0,0,229,645.5Z"/><path d="M194,678.18c-.62,1.88-.41,4.32,4.65,4.47,7.68.23,53,.23,60.71,0,5.07-.15,5.27-2.58,4.65-4.47-4.56-.85-20.49-3.6-35-3.6S198.52,677.33,194,678.18Z"/><path d="M199.24,687.6,205,735.51h46.92l6.67-47.9c-5.14.11-18.88.15-29.59.15S204.26,687.72,199.24,687.6Z"/><path d="M198.3,603.69c-3-13.14,5.07-23.86,8.67-27.86a31.61,31.61,0,0,0,4-5.56,20.2,20.2,0,0,1,1.48,9.55c1.25-3.32,3.14-9.48,8.63-14s10.67-4,14.77-17.68c2.5,5.35,6,10.75,8.21,18.39s2.64,18.27,2.64,18.27l9.56-10.61a62,62,0,0,1,4,21.62c0,14.07-5.78,21.79-12.55,26a89.19,89.19,0,0,1,12.1,3.68c10.36-8.47,16.52-22,16.52-39.74,0-31.72-18.31-53-18.31-53s2.73,9.67-3.16,15.84c-8-31.61-26.33-50.13-26.33-50.13s7.67,25.37-9.23,36.41a34.76,34.76,0,0,0-5.63,4.59c-4.49-12.16-11.08-16.65-11.08-16.65s4.2,17.88-5.63,28.17c-11,11.54-18.68,29.32-14,48.65,2.42,10,7,19.35,14.79,26a89.35,89.35,0,0,1,12-3.71C204,618.1,200.19,612,198.3,603.69Z"/><path d="M252.32,603.68a46.26,46.26,0,0,0-3-16.12l-7.13,7.91a68,68,0,0,0-2-13.62c-1.67-5.7-4.26-9.73-6.12-13.71-3.06,10.18-6.92,9.82-11,13.18s-5.5,8-6.43,10.43a15.06,15.06,0,0,0-1.1-7.12,23.59,23.59,0,0,1-3,4.14c-2.69,3-8.69,11-6.46,20.77a22.52,22.52,0,0,0,6.34,11.86,83.32,83.32,0,0,1,32.88,0C249.28,618,252.32,612.48,252.32,603.68Z"/><path class="cls-3" d="M237.1,612.28s3.7-15.55-5.37-24.24a28,28,0,0,1-6.48,5.8c-4.07,2.64-7.59,7.38-5.93,14.49,0,0-4.26-1.32-4.44-7.64,0,0-5.61,3.58-2.22,12.91a29,29,0,0,0,5,9.08,77.1,77.1,0,0,1,22.69,0c2-3,4.83-8.44,6.52-17.27C246.91,605.43,239.32,606.75,237.1,612.28Z"/></g></g></svg>