<svg id="Logo" xmlns="http://www.w3.org/2000/svg" viewBox="0 0 1024 1024"><defs><style>.cls-1,.cls-2{fill:none;}.cls-1,.cls-2,.cls-4,.cls-5,.cls-8{stroke:#231f20;stroke-miterlimit:10;}.cls-1{stroke-width:20px;}.cls-2{stroke-width:15px;}.cls-3,.cls-6{fill:#010101;}.cls-4,.cls-5{fill:#fff;}.cls-4{stroke-width:13px;}.cls-5{stroke-width:6px;}.cls-6{fill-rule:evenodd;}.cls-7,.cls-8{fill:#231f20;}.cls-8{stroke-width:4px;}</style></defs><title>district pi</title><circle class="cls-1" cx="508.59" cy="435.33" r="385.83"/><circle class="cls-2" cx="508.59" cy="435.33" r="235.66"/><g id="g13108"><g id="g13110"><path id="path13112" class="cls-3" d="M594.45,762.84c-172-153.43-138.65,55.68-293.79-46.89C465.22,737.87,419,625.17,605.22,751.76l-10.77,11.08Z"/><path id="path13114" class="cls-3" d="M433.84,695.48c-81.92-26.74-23.71-11.62-117.52-69.06,30.57,40.35,25.89,59.51,74.43,69.06-73.82-15.09-80.14,11.56-147.88-31.55C288.28,703.18,295,732.38,433.84,695.48Z"/><path id="path13116" class="cls-3" d="M344.38,683.1c-55.59-58.82-15.82-51.93-74.84-118.64,19,50.81,1,70.48,37.53,99.88-55.27-45.2-69.18-14.64-112.89-76.35C211,641.75,203,654.62,344.38,683.1Z"/><path id="path13118" class="cls-3" d="M277.19,635.62c-26.11-57.23-10.32-99.61-30-130.21-11.77,53.11-12.22,70,.6,98.57-28.76-53-40.73-24-78.4-92.24C166.78,568.16,202.41,597.14,277.19,635.62Z"/><path id="path13120" class="cls-3" d="M228.57,566.27c-8.21-61.16,15.73-45.68,21.5-131.68-37,53.76-40.44,67.41-36.56,97.91-12-57.65-22.41-35.81-38.51-110.17C155.69,476.23,167.78,512.25,228.57,566.27Z"/><path class="cls-3" d="M210.19,485.94a79,79,0,0,0-4.28-10.83c-6-12.85-15.21-34.75-8.85-52.42,11.4-31.69,30.72-45.69,30-68.3-.24-7.88,6,43.49,0,76.61-3.71,20.59-11.51,35.43-15.08,44.46C209.26,482.43,210.19,485.94,210.19,485.94Z"/></g><g id="g13128"><path id="path13130" class="cls-3" d="M424.41,759.7c172-153.44,138.65,55.68,293.79-46.89C553.63,734.72,599.85,622,413.64,748.61Z"/><path id="path13132" class="cls-3" d="M585,692.34c81.92-26.74,23.71-11.62,117.52-69.06-30.57,40.35-25.89,59.51-74.43,69.06,73.82-15.09,80.14,11.56,147.87-31.55C730.58,700,723.84,729.24,585,692.34Z"/><path id="path13134" class="cls-3" d="M674.48,680c55.59-58.82,15.82-51.93,74.84-118.64-19,50.81-1,70.48-37.53,99.88C767.06,616,781,646.55,824.68,584.85,807.9,638.6,815.9,651.48,674.48,680Z"/><path id="path13136" class="cls-3" d="M741.67,632.47c26.11-57.23,10.32-99.61,30-130.21,11.77,53.11,12.22,70-.6,98.57,28.76-53,40.73-24,78.4-92.24C852.08,565,816.45,594,741.67,632.47Z"/><path id="path13138" class="cls-3" d="M790.29,563.12c8.21-61.16-15.73-45.68-21.5-131.68,36.95,53.76,40.44,67.41,36.56,97.91,12-57.65,22.41-35.81,38.51-110.17C863.16,473.08,851.07,509.11,790.29,563.12Z"/><path class="cls-3" d="M812.67,494.3a79,79,0,0,1,4.28-10.83c6-12.85,15.21-34.75,8.85-52.42-11.4-31.69-30.72-45.69-30-68.3.24-7.88-6,43.49,0,76.61,3.71,20.59,11.51,35.43,15.08,44.46C813.59,490.79,812.67,494.3,812.67,494.3Z"/></g></g><circle class="cls-4" cx="508.59" cy="847.07" r="133.43"/><circle class="cls-5" cx="508.59" cy="847.07" r="100.67"/><path class="cls-6" d="M517.92,541.83c-.41-.23-.08-.84.65-2.13,1.23-2.18,2.73-3.71,3.57-6,.48-1.32.48-2.46.86-3.71s1.13-1.83,1.83-2.92c2.05-3.17.43-3.63,4.3-5,3.07-1.12,1.39-3.49,5.18-4.14,2.35-.4,4.94-1.66,7.28-2.09,3.46-.65,2-.66,3.48-1.11,1.25-.37,1.82.67,2.75,1.25s2.41.5,3.55,1c1.36.61,6,6.68,10.37,8.54,1.05.45,1.95.33,2.51,1.29a104,104,0,0,1-46.33,15.06Zm-9.33-230a125.48,125.48,0,0,0-29.9,3.6c-.07-.45-.08-.29.21-.8A30.13,30.13,0,0,0,479,310c-.26-2.42-.65-2-2-2.94a10.16,10.16,0,0,0,1.41-3.21c.53-2.28-.12-2.09-1.51-2.85H475c-5.81,2.23-6.79,5.84-11,9.92-1.18,1.15-2.51,2.11-3.71,3.26a52.25,52.25,0,0,0-6.37,7.56c-1.82,2.59-2.28,3.47-3.13,4.18a125.23,125.23,0,0,0-12.29,214.95l0,0c-4.65,2.11-10,5.29-14.6,7.77-5.3,2.87-3.83,2.8-6.7.05-4.26-4.08-4.76-2.09-6.66-.38-5.89,5.31-11.5,10.77-17.44,16.1-2,1.78-4.18,3.42-6.11,5.19h.55c1.17-.46,29.72-6,31.13-6.19,9.26-1.54-.64-8.15,4.58-10.73,4.25-2.1,8.24-4.31,12.4-6.58s5.17-3.18,6.57-2.83a125.25,125.25,0,0,0,135.6-2,1.91,1.91,0,0,1,1.07,0c3.35,1.27,11.79,13.33,21.29,16.27-.21-.37-8-8.33-9.06-9.42-2.15-2.23-8.23-9.86-8.45-10q.21-.31.44-.59a125.21,125.21,0,0,0,28.06-172.09c.13-2,5.16-5.7,7.19-16,.64-3.27-1.49-4.07-3.6-1.93a21.43,21.43,0,0,0-3.41,4.6l-.41.5c-.14-.88-.17-.3.15-.82-2.21-2.88-3.94,2.82-5.62,3.56-.68.29-1-1.65-2.54-2-.81-.18-1.28-.24-1.6-.32a124.87,124.87,0,0,0-92.86-41.23Zm1,21A105,105,0,0,0,488.77,335l-.49.1q-4.79,1-9.42,2.42c-.77.67.06,1.62.75,4,.58,2-.27,3.17-.57,5-.26,1.57.47,2.27,1.1,3.58,1.78,3.7-1.5,7.37-.93,9.18.68,2.15,4.83,1.06,2.48,7.31-.39,1-1.62,2.75-1.45,3.78s1.92,1.76,2.71,2.39c2.64,2.09,2,6,4.05,7.72,1,.85,2.73,1.24,3.34,2.34.78,1.42.68,2.51,1.95,3.93,1,1.09,2.23,1.62,2.87,3a16,16,0,0,0,2,3.85c4.25,5.4,3.84,9.14,6.28,11.13,1.18,1,2.58-.43,3.67-1.11,4.63-2.91,9.71-6.23,14.53-8.74,23-12,41.83-12.38,44.48-13.63.65-.31,5.17-4.67,6.16-5.55a69.52,69.52,0,0,1,6.48-5.24c2-1.35,2-1.08,4-1.84,1-.36,2.32-1.92,3-2.74l-.09-.1a104.34,104.34,0,0,0-76.16-32.89Zm-79.77,36.93A104.64,104.64,0,0,0,459,529.11c1.23.2,2.27-.47,4.78-1.89,3.33-1.89,7.19-3.56,10.08-6-9.41-13-21-16.76-29.69-24.72-1.75-1.61-3.57-2.26-5.25-3.73-1.9-1.65-2.47-3.17-3.8-5.19-2.89-4.39-5-7-5.73-12.51-.21-1.56.6-2.18.31-4.28-.6-4.31,0-1.58.85-2.27s-.15-3.64,1.27-5c1.71-1.61,1-4,1.61-6.1.54-2,1.68-3.08,1.29-5.27-.32-1.82-1.37-4.53,0-6.22,2.12-2.6,3.68,4.9,7.15,4.2,2.46-.5,2.52-1.85,3.87-3.6s3-3.06,4.34-4.64a11.62,11.62,0,0,0,.75-13.63c-1.76-2.64-6.55-6.55-9.06-8.91q-4.67-4.4-9.3-8.84c-3.43-3.3-6.46-5.66-7.59-10.56-1.59-6.86.55-16.79,2.72-23.61.2-.63,2.22-5.64,2.27-6.5ZM463,531.2a104.19,104.19,0,0,0,46.65,11c1.49,0,3,0,4.44-.1.58-.32.5-1.11.76-3,1.29-9.39,2.27-28.06,2.49-37.29-2,.7-21.73,12.13-25.56,14.22-2.71,1.48-5.75,3.45-8.5,4.71.39,1.72,8.53,13.49,9.7,16.31-.29-.12-7-6.43-7.57-7.05.64,2,4.34,7.25,4.47,8.69-1.81-.67-5.76-5.4-7.21-7l-6.34-7.76c-.61.14-12.25,6.56-13.34,7.33Zm108.82-9.51a104.63,104.63,0,0,0,40.67-64.75c-2.36.87-7.46,4.25-9.9,5.63-6.44,3.64-3.18,2.34-12.59,2.73-3.18.13-4-.4-6.92,1-5,2.45-10.1,5.28-15.19,7.77,2.29,0,5-.66,7.15-.44-.46.65-9.16,5.73-10.64,6.62-3.2,1.94-2.18,1.47-7.2,1.43-2.07,0-1.68,0-3.34,1a9.16,9.16,0,0,0-2.43,1.71c0,.13,4.59,8.19,5.14,9.24q2.49,4.75,5,9.48c2.21,4.17,7.88,15.15,10.27,18.52Zm41.28-68.35q.58-3.8.88-7.69c-2.11.86-7.63,6-7.8,8.32a19.09,19.09,0,0,0,6.93-.63Zm.91-8.21q.18-2.52.25-5.07c-1,1.1-4.69,4.92-5,5.9l4.72-.83Zm.27-6.87c0-.25,0-.5,0-.75a104.15,104.15,0,0,0-17.81-58.41c-1-.34-3.93,2-5.64,3-1.54.91-4.87,2.46-5.85,3.68-5.79,7.18-9,4.25-10.77,8.49-1.57,3.81-6.19,5.39-7.93,6.54-1.15.76-1.31,1.69-2,2.75-.92,1.4-3.72,4.33-4.12,5.37-.5,1.32-.42,2.26-1.14,3.66a23.51,23.51,0,0,1-7,7.51c-3.13,2.21-1.62,3.21-3.5,6-1.66,2.5-4.17,3.24-5.13,4.58-.69,1-.75,2.16-1.5,3.28-3,4.49-5.83,4.47-7,7.47-.74,1.91-1.08,1.5-1.95,2.82s-.36,2.69-.79,4c-.33,1-1.57,1.61-2.14,2.61s-.92,2.1-1.57,3.21c-4.94,8.41-5.89,3.46,3.58,10.21a82.76,82.76,0,0,1,12.23,10.86c.77.82,5.08,5.86,5.4,6.05a55.75,55.75,0,0,0,5.54-3.85,5.16,5.16,0,0,0,2.22-2.54c.69-1.18.86-2,2.1-2.65,4.1-2,8.63-4.46,12.77-6.2l.13.13-3.13,4c-.47.32-.29,0-.43.58l.65-.38c3.81-1.68,8.54-4.73,12.32-6.81,3.49-1.92,3.18-1.14,5-4.75,1-2.13,2.07-4.28,3.1-6.42,1.83-3.82,1.41-2.83,5.07-4.65l13-6.21c1.08-.5,5.66-2.25,6.24-3.19ZM480.55,517.6c-1.25-1.76-12.42-18.11-13-19.66s-.76-3.76-1.16-5.42c-1.78-7.5-7.13-14.2-4.48-20.44,1.86-4.4,5.67-2.22,9-1.17,13.69,4.28,19.95,5.74,33.56,3.74,2.49-.37,2.75-.07,4.09,1.87a43.43,43.43,0,0,1,6.46,13.16,42.55,42.55,0,0,1,1.24,5.33c.52,3.16.93,2.87-1.67,4.29-2.12,1.16-32.56,17.82-34.11,18.3Z"/><path class="cls-7" d="M377.45,292.14a7.13,7.13,0,0,0,5.69-1.61c1.92-1.65,2.3-4,.77-5.75s-4-2-7.81,1.22l-1.35-1.57c3.39-2.92,3.39-5.19,1.95-6.85s-3.22-1.61-4.91-.15a6.36,6.36,0,0,0-2,4.54l-2.21-.35a8.65,8.65,0,0,1,2.84-5.93c2.76-2.39,6-2.64,8.24-.07,1.66,1.92,1.54,4.15.38,6.28l.09.1a5.42,5.42,0,0,1,6.92,1.07c2.43,2.81,1.6,6.53-1.32,9a8.92,8.92,0,0,1-7.16,2.27Z"/><path class="cls-7" d="M395.07,278.61a2.08,2.08,0,1,1-.36,2.86A2,2,0,0,1,395.07,278.61Z"/><path class="cls-7" d="M404.63,273.8l4.11-2.48-8-13.23-3.27,2-.9-1.49a12.48,12.48,0,0,0,3-3.62l1.77-1.07,9.7,16,3.72-2.25,1.16,1.91-10.13,6.13Z"/><path class="cls-7" d="M432.23,255.13l-2.59,1.21,2.46,5.24-2.32,1.09-2.46-5.24-8.55,4-.75-1.61,2.44-16,2.74-1.28,5.52,11.8,2.59-1.21Zm-5.84.34-2.58-5.51c-.47-1-1.15-2.69-1.57-3.73l-.12.06c0,1.15-.19,2.23-.29,3.41l-1.4,8.57Z"/><path class="cls-7" d="M440.61,255.66l4.54-1.57-5-14.62-3.61,1.24-.57-1.65a12.49,12.49,0,0,0,3.69-2.91l2-.68,6.11,17.72,4.1-1.42.73,2.11-11.19,3.86Z"/><path class="cls-7" d="M458.91,247.68a7.14,7.14,0,0,0,5.7,1.15,4.53,4.53,0,0,0,3.41-5.72c-.65-2.82-2.77-4.09-5.4-3.48a5.91,5.91,0,0,0-3.21,2.06l-1.62-.57-1.6-10,10.23-2.36L467,231,459,232.86l.85,6.19a6.44,6.44,0,0,1,3-1.56c3.5-.81,6.81.52,7.83,4.95a6.87,6.87,0,0,1-5.3,8.52,9.21,9.21,0,0,1-7.35-1.24Z"/><path class="cls-7" d="M480,244.12a4.6,4.6,0,0,0,3.63,1.24c2.94-.36,5.14-3,4.42-9.62a6.58,6.58,0,0,1-4.57,3.28c-3.59.44-6.17-1.43-6.7-5.71-.49-4,2-7,5.32-7.45,4.11-.51,7.59,2.45,8.42,9.14,1,8.36-2.36,12.06-6.51,12.57a6.71,6.71,0,0,1-5.3-1.57Zm7.72-10.5c-.86-4-2.72-6-5.37-5.64-2,.25-3.4,2.27-3.06,5s1.81,4.25,4.39,3.93C485,236.77,486.55,235.79,487.71,233.62Z"/><path class="cls-7" d="M498.37,244.12c6.21-6.39,9.69-10.24,9.64-13.63,0-2.4-1.39-4.09-4.05-4a6.19,6.19,0,0,0-4.43,2.61l-1.57-1.52c1.71-1.94,3.56-3.25,6.29-3.3,3.88-.07,6.33,2.36,6.39,6.08.07,3.95-3.45,7.93-8.33,13.21,1.15-.12,2.43-.24,3.52-.26l6.09-.11,0,2.34-13.55.24Z"/><path class="cls-7" d="M531.59,229.32a4.57,4.57,0,0,0-3.3-1.94c-2.92-.25-5.57,1.79-6.28,8.4a6.7,6.7,0,0,1,5.11-2.2c3.61.31,5.78,2.68,5.41,7-.35,4-3.4,6.47-6.78,6.18-4.1-.36-6.92-4-6.34-10.69.73-8.39,4.81-11.31,9-10.94a6.62,6.62,0,0,1,4.85,2.67Zm-1.62,11c.24-2.72-.89-4.54-3.48-4.76-1.31-.11-3,.53-4.6,2.37,0,4.09,1.39,6.43,4,6.66C528,244.8,529.73,243.1,530,240.34Z"/><path class="cls-7" d="M539.76,243.74a7.14,7.14,0,0,0,4.75,3.37,4.53,4.53,0,0,0,5.44-3.84c.55-2.84-.87-4.86-3.52-5.37a5.91,5.91,0,0,0-3.77.58l-1.25-1.18,2.6-9.79,10.3,2-.44,2.29-8-1.55-1.73,6a6.44,6.44,0,0,1,3.33-.23c3.52.68,6,3.24,5.15,7.7a6.87,6.87,0,0,1-8.3,5.63,9.2,9.2,0,0,1-6.21-4.12Z"/><path class="cls-7" d="M559.79,248a7.12,7.12,0,0,0,4.4,4c2.42.74,4.6-.18,5.28-2.41.73-2.39-.42-4.49-5.2-6l.61-2c4.28,1.31,6.19.1,6.84-2,.59-2-.35-3.58-2.49-4.23a6.37,6.37,0,0,0-4.9.74l-.88-2.06a8.64,8.64,0,0,1,6.53-.76c3.49,1.07,5.44,3.69,4.45,6.93-.74,2.42-2.69,3.51-5.11,3.67l0,.13a5.42,5.42,0,0,1,2.79,6.42c-1.08,3.56-4.67,4.83-8.35,3.71a8.92,8.92,0,0,1-5.74-4.85Z"/><path class="cls-7" d="M579,254.41a7.14,7.14,0,0,0,3.94,4.28,4.53,4.53,0,0,0,6.12-2.62c1.13-2.66.17-4.93-2.32-6a5.91,5.91,0,0,0-3.8-.22l-1-1.41,4.59-9,9.66,4.11-.91,2.15-7.48-3.18L584.9,248a6.45,6.45,0,0,1,3.3.47c3.3,1.4,5.2,4.43,3.42,8.61a6.86,6.86,0,0,1-9.29,3.77,9.2,9.2,0,0,1-5.21-5.32Z"/><path class="cls-7" d="M603.65,258.39l.06-.11a6,6,0,0,1-.21-5.65c1.57-2.82,4.86-3.47,7.83-1.82,3.19,1.77,4,4.92,2.46,7.76a6.91,6.91,0,0,1-5,3l-.06.12c1.11,1.86,1.94,4,.57,6.49-1.52,2.73-5.08,3.58-8.64,1.59s-4.82-5.47-3.21-8.37C598.77,259,601.41,258.35,603.65,258.39Zm-2,9.68c2.13,1.18,4.33.68,5.38-1.22,1.31-2.36-.54-4.51-2.59-7-2,.16-3.85.91-4.78,2.57C598.57,264.41,599.45,266.82,601.69,268.07Zm10-10.51a3.5,3.5,0,0,0-1.38-5,3.25,3.25,0,0,0-4.61,1.31c-1.21,2.18.29,4.22,2,6.32A5.66,5.66,0,0,0,611.68,257.55Z"/><path class="cls-7" d="M615.65,274.27a4.6,4.6,0,0,0,1.86,3.36c2.42,1.7,5.79,1.26,9.73-4.17a6.58,6.58,0,0,1-5.59-.63c-3-2.08-3.62-5.2-1.14-8.73,2.31-3.28,6.2-3.89,8.94-2,3.39,2.39,4,6.91.1,12.42-4.85,6.89-9.84,7.35-13.26,4.95a6.71,6.71,0,0,1-2.87-4.72Zm12.77-2.6c2.05-3.54,2-6.25-.2-7.78-1.67-1.17-4-.6-5.64,1.66s-1.51,4.37.62,5.87C624.3,272.2,626.1,272.5,628.42,271.68Z"/><path class="cls-7" d="M648.44,280.73l-7.88-6.88,1.54-1.76,10.18,8.9-1.1,1.26c-7.92,1.51-11.82,4.43-17.49,10.36l-2.11-1.84C637,285.06,641.53,282.34,648.44,280.73Z"/><path class="cls-7" d="M646.86,300.15a4.6,4.6,0,0,0,1.12,3.67c2,2.17,5.41,2.43,10.39-2.07A6.58,6.58,0,0,1,653,300c-2.46-2.65-2.47-5.84.69-8.78,2.94-2.73,6.87-2.52,9.15-.06,2.82,3,2.47,7.59-2.47,12.18-6.17,5.74-11.15,5.16-14,2.1a6.71,6.71,0,0,1-1.84-5.21Zm13,.1c2.74-3,3.23-5.7,1.42-7.65-1.39-1.49-3.84-1.42-5.86.46s-2.38,4-.61,5.87C655.76,299.92,657.46,300.58,659.89,300.25Z"/><path class="cls-7" d="M660.36,314.12a7.13,7.13,0,0,0,1.23,5.79c1.52,2,3.82,2.56,5.69,1.16s2.31-3.88-.7-7.88l1.66-1.25c2.69,3.58,4.95,3.73,6.71,2.41s1.83-3.1.48-4.89a6.37,6.37,0,0,0-4.4-2.29l.5-2.19a8.64,8.64,0,0,1,5.72,3.23c2.2,2.92,2.23,6.19-.48,8.23-2,1.52-4.24,1.26-6.29,0l-.11.08a5.42,5.42,0,0,1-1.53,6.83c-3,2.23-6.62,1.15-8.94-1.92a8.92,8.92,0,0,1-1.79-7.3Z"/><path class="cls-7" d="M669.42,331.27c8.63,2.19,13.71,3.3,16.61,1.56,2.06-1.23,2.85-3.24,1.48-5.53a6.18,6.18,0,0,0-4.47-2.54l.53-2.12c2.53.52,4.6,1.47,6,3.81,2,3.33,1.11,6.66-2.08,8.57-3.39,2-8.59,1-15.6-.63.68.94,1.42,2,2,2.92l3.13,5.22-2,1.2-7-11.63Z"/><path class="cls-7" d="M682.33,348.4a7.13,7.13,0,0,0,0,5.92c1.06,2.3,3.2,3.3,5.32,2.32s3.07-3.31,1-7.85l1.88-.87c1.88,4.06,4.05,4.68,6.05,3.76,1.85-.86,2.44-2.65,1.5-4.68a6.36,6.36,0,0,0-3.82-3.16l.94-2a8.64,8.64,0,0,1,4.92,4.36c1.53,3.31.88,6.52-2.2,7.94-2.3,1.06-4.41.34-6.14-1.36l-.12.06a5.42,5.42,0,0,1-2.93,6.36c-3.37,1.56-6.72-.26-8.34-3.75a8.92,8.92,0,0,1-.21-7.51Z"/><path class="cls-7" d="M697.79,367.84l.13,0a6,6,0,0,1,3.64-4.33c3.05-1,5.93.69,7,3.9,1.17,3.46-.31,6.36-3.39,7.41a6.91,6.91,0,0,1-5.73-1.11l-.13,0c-.42,2.13-1.25,4.28-3.93,5.19-3,1-6.16-.75-7.47-4.62s.09-7.29,3.24-8.36C693.75,365,696.16,366.31,697.79,367.84Zm-7.95,5.86c.78,2.3,2.76,3.41,4.81,2.71,2.55-.87,2.63-3.71,2.81-7-1.6-1.23-3.47-1.92-5.27-1.3C690,368.89,689,371.27,689.85,373.7Zm14.46-1.09a3.5,3.5,0,0,0,2.34-4.65,3.25,3.25,0,0,0-4.3-2.12c-2.37.8-2.62,3.32-2.74,6A5.66,5.66,0,0,0,704.31,372.61Z"/><path class="cls-7" d="M701,399.07l-.63-2.79-5.65,1.28-.57-2.5,5.65-1.28-2.09-9.21,1.73-.39L714.48,390l.67,3-12.71,2.88.63,2.79Zm.92-5.77,5.94-1.34c1.09-.25,2.88-.55,4-.73l0-.13c-1.11-.29-2.14-.66-3.27-1l-8.08-3.2Z"/><path class="cls-7" d="M715,415.74a4.57,4.57,0,0,0,1.23-3.62c-.35-2.91-2.89-5.09-9.51-4.44a6.71,6.71,0,0,1,3.19,4.56c.43,3.59-1.45,6.2-5.73,6.71-4,.47-7-2-7.43-5.38-.49-4.08,2.48-7.58,9.18-8.38,8.36-1,12,2.41,12.54,6.56a6.62,6.62,0,0,1-1.62,5.3Zm-11.12.66c2.71-.32,4.26-1.8,4-4.38-.16-1.31-1.13-2.85-3.26-4-4,.81-6,2.67-5.7,5.32C699.13,415.37,701.14,416.72,703.89,416.4Z"/><path class="cls-7" d="M699.9,425.92c6.37,6.23,10.2,9.73,13.59,9.69,2.4,0,4.09-1.37,4.06-4a6.18,6.18,0,0,0-2.59-4.44l1.53-1.57c1.93,1.72,3.24,3.58,3.28,6.31.05,3.88-2.38,6.32-6.1,6.37-3.95.05-7.91-3.48-13.18-8.38.11,1.15.23,2.43.25,3.52l.08,6.09-2.33,0-.18-13.55Z"/><path class="cls-7" d="M714.56,459.22a4.58,4.58,0,0,0,2-3.29c.27-2.92-1.77-5.58-8.38-6.31a6.7,6.7,0,0,1,2.18,5.12c-.33,3.6-2.71,5.77-7,5.38-4-.37-6.46-3.43-6.15-6.81.37-4.1,4-6.9,10.72-6.29,8.39.77,11.29,4.86,10.91,9a6.62,6.62,0,0,1-2.69,4.84Zm-11-1.67c2.72.25,4.54-.87,4.78-3.46.12-1.31-.52-3-2.36-4.61-4.09,0-6.44,1.36-6.68,4C699.1,455.56,700.79,457.3,703.54,457.55Z"/><path class="cls-7" d="M699,480.65l.56-2.81-5.68-1.13.5-2.52,5.68,1.13,1.84-9.26,1.74.35,11.42,11.42-.59,3-12.78-2.53-.56,2.81Zm3.19-4.9,6,1.18c1.1.22,2.85.67,3.94.95l0-.13c-.9-.71-1.69-1.47-2.57-2.25l-6.08-6.2Z"/><path class="cls-7" d="M695.78,487.34a7.12,7.12,0,0,0-4,4.38c-.75,2.42.16,4.6,2.39,5.29,2.39.74,4.5-.4,6-5.17l2,.61c-1.33,4.27-.13,6.2,2,6.85,1.95.6,3.58-.34,4.25-2.47a6.36,6.36,0,0,0-.72-4.91l2.06-.88a8.65,8.65,0,0,1,.73,6.53c-1.08,3.49-3.71,5.43-7,4.42-2.42-.75-3.5-2.71-3.65-5.13l-.13,0a5.42,5.42,0,0,1-6.44,2.76c-3.55-1.1-4.81-4.7-3.67-8.37a8.92,8.92,0,0,1,4.87-5.72Z"/><path class="cls-7" d="M689.32,506.67a7.13,7.13,0,0,0-4.42,3.94c-1,2.33-.33,4.59,1.82,5.51s4.51.08,6.49-4.51l1.9.82c-1.77,4.11-.78,6.15,1.24,7s3.6,0,4.48-2a6.36,6.36,0,0,0-.2-5l2.14-.65a8.64,8.64,0,0,1,0,6.57c-1.44,3.36-4.27,5-7.38,3.67-2.33-1-3.2-3.06-3.09-5.48l-.12-.05a5.42,5.42,0,0,1-6.69,2.06c-3.42-1.47-4.29-5.18-2.77-8.71a8.93,8.93,0,0,1,5.45-5.18Z"/><path class="cls-7" d="M685.18,531.16l.11.07a6,6,0,0,1,5.65-.18c2.81,1.58,3.45,4.88,1.79,7.83-1.79,3.18-4.94,4-7.78,2.42a6.91,6.91,0,0,1-3-5l-.11-.07c-1.87,1.1-4,1.93-6.49.54-2.72-1.53-3.55-5.09-1.55-8.65s5.49-4.8,8.39-3.17C684.56,526.28,685.22,528.92,685.18,531.16Zm-9.67-2c-1.19,2.12-.7,4.33,1.2,5.39,2.35,1.32,4.52-.52,7.06-2.56a5.68,5.68,0,0,0-2.55-4.79C679.18,526,676.76,526.92,675.51,529.16Zm10.47,10a3.5,3.5,0,0,0,5-1.36,3.25,3.25,0,0,0-1.29-4.61c-2.18-1.22-4.23.27-6.33,2A5.66,5.66,0,0,0,686,539.19Z"/><path class="cls-7" d="M670.47,542.77a7.12,7.12,0,0,0-5.14,2.92c-1.47,2.07-1.28,4.42.62,5.77s4.4,1,7.29-3.05l1.69,1.2c-2.59,3.65-2.05,5.85-.26,7.12s3.51.8,4.8-1a6.36,6.36,0,0,0,.85-4.89l2.23-.19a8.64,8.64,0,0,1-1.34,6.43c-2.12,3-5.22,4-8,2-2.06-1.47-2.48-3.66-1.87-6l-.11-.08a5.41,5.41,0,0,1-7,.62c-3-2.15-3.11-6-.88-9.1a8.92,8.92,0,0,1,6.41-3.92Z"/><path class="cls-7" d="M656.88,556.61c.54,8.89,1,14.06,3.57,16.3,1.8,1.59,4,1.73,5.72-.27a6.19,6.19,0,0,0,1.06-5l2.18-.14c.28,2.57,0,4.82-1.8,6.88-2.57,2.91-6,3.08-8.8.63-3-2.61-3.53-7.89-4.14-15.05-.69.93-1.46,2-2.18,2.77l-4,4.57-1.75-1.54,9-10.17Z"/><path class="cls-7" d="M647.1,591.19l7.69-7.09,1.58,1.72L646.43,595l-1.14-1.23c-.65-8-3.14-12.23-8.42-18.5l2.05-1.9C644,579.4,646.24,584.15,647.1,591.19Z"/><path class="cls-7" d="M628,587.53a4.61,4.61,0,0,0-3.77.72c-2.37,1.77-3,5.11.93,10.55a6.58,6.58,0,0,1,2.34-5.11c2.9-2.16,6.07-1.82,8.65,1.64,2.4,3.22,1.76,7.1-.93,9.11-3.32,2.48-7.81,1.64-11.84-3.77-5-6.75-3.92-11.65-.57-14.15a6.71,6.71,0,0,1,5.38-1.26Zm-1.51,12.95c2.73,3.05,5.32,3.83,7.46,2.24,1.64-1.22,1.83-3.66.17-5.88s-3.68-2.79-5.77-1.24C627.22,596.41,626.38,598,626.44,600.48Z"/><path class="cls-7" d="M612.63,599.31a7.15,7.15,0,0,0-5.78.64,4.53,4.53,0,0,0-1.51,6.48c1.48,2.49,3.88,3.06,6.2,1.68a5.92,5.92,0,0,0,2.43-2.93l1.71.05,4.56,9-9,5.35-1.19-2,7-4.14-2.69-5.63a6.44,6.44,0,0,1-2.34,2.38c-3.08,1.83-6.64,1.57-9-2.34a6.86,6.86,0,0,1,2.46-9.72,9.21,9.21,0,0,1,7.38-1Z"/><path class="cls-7" d="M598.16,614.76c2.93,6.4,2.2,10.9-1.63,12.65s-7.68-.65-10.61-7-2.26-11,1.54-12.76S595.23,608.36,598.16,614.76Zm-9.84,4.5c2.56,5.59,5.1,7.18,7.31,6.17s2.7-4,.14-9.58-5.15-7.3-7.4-6.28S585.75,613.67,588.31,619.27Z"/><path class="cls-7" d="M576.14,614.62c-4,8-6.16,12.68-5.08,15.89.76,2.28,2.55,3.48,5.08,2.63a6.19,6.19,0,0,0,3.44-3.82l2,1c-1,2.36-2.42,4.18-5,5-3.68,1.23-6.74-.34-7.92-3.87-1.25-3.74.9-8.6,4-15.1-1.06.46-2.25,1-3.28,1.3l-5.77,1.93-.74-2.21,12.85-4.31Z"/><path class="cls-7" d="M555.14,630.75l0,.13a6,6,0,0,1,3.91,4.09c.7,3.15-1.33,5.82-4.64,6.56-3.57.79-6.29-1-7-4.18a6.91,6.91,0,0,1,1.73-5.57l0-.13c-2.07-.65-4.12-1.71-4.74-4.48-.68-3.05,1.42-6,5.41-6.93s7.24.89,8,4.13C558.36,627,556.84,629.29,555.14,630.75Zm-5-8.54c-2.38.53-3.69,2.37-3.22,4.49.58,2.63,3.4,3,6.62,3.55,1.4-1.46,2.28-3.24,1.87-5.1C554.94,622.87,552.68,621.65,550.18,622.21Zm-.49,14.5a3.5,3.5,0,0,0,4.37,2.84,3.25,3.25,0,0,0,2.57-4c-.54-2.44-3-3-5.71-3.38A5.65,5.65,0,0,0,549.69,636.71Z"/><path class="cls-7" d="M534.39,634.53l0,.13a6,6,0,0,1,3.46,4.47c.37,3.2-1.94,5.65-5.3,6-3.63.41-6.15-1.65-6.52-4.89a6.91,6.91,0,0,1,2.3-5.36v-.13c-2-.87-3.92-2.14-4.24-4.95-.35-3.11,2-5.86,6.1-6.33s7.11,1.64,7.49,4.94C538,631.17,536.24,633.26,534.39,634.53Zm-4-9c-2.42.28-3.92,2-3.67,4.13.31,2.68,3.07,3.36,6.21,4.23a5.69,5.69,0,0,0,2.39-4.88C535,626.67,532.9,625.23,530.35,625.52Zm-2,14.37a3.5,3.5,0,0,0,4.05,3.28,3.25,3.25,0,0,0,3-3.75c-.28-2.49-2.69-3.27-5.32-4A5.66,5.66,0,0,0,528.35,639.89Z"/><path class="cls-7" d="M503.2,631l2.86,0-.05-5.79,2.57,0,.05,5.79,9.44-.09,0,1.78-8.85,13.51-3,0-.12-13-2.86,0Zm5.45,2.12.06,6.09c0,1.12-.07,2.93-.13,4h.13c.52-1,1.1-2,1.68-3l4.83-7.22Z"/><path class="cls-7" d="M495.84,627l-4.78-.45L489.6,642l3.8.36-.17,1.74a12.49,12.49,0,0,0-4.57,1.12l-2.06-.2,1.78-18.67-4.32-.41.21-2.23,11.79,1.12Z"/><path class="cls-7" d="M475,625.78a4.6,4.6,0,0,0-3.05-2.33c-2.9-.59-5.81,1.17-7.24,7.73a6.58,6.58,0,0,1,5.37-1.67c3.55.72,5.41,3.31,4.55,7.54-.8,3.93-4.11,6-7.4,5.38-4.06-.82-6.43-4.72-5.09-11.34,1.67-8.26,6.06-10.69,10.15-9.86a6.72,6.72,0,0,1,4.53,3.17ZM464.3,633.3c-.46,4.07.69,6.52,3.31,7,2,.41,3.95-1.08,4.49-3.79s-.38-4.61-2.92-5.12C467.85,631.16,466.09,631.61,464.3,633.3Z"/><path class="cls-7" d="M442.34,633.05l10,3.14-.7,2.23-12.9-4.06.5-1.6c6.65-4.57,9-8.81,11.85-16.52l2.67.84C451,624.51,448,628.8,442.34,633.05Z"/><path class="cls-7" d="M437.07,613.68l-4.4-1.92-6.17,14.18,3.5,1.52-.69,1.6a12.48,12.48,0,0,0-4.69-.35l-1.9-.83,7.48-17.2-4-1.73.89-2.05L438,611.63Z"/><path class="cls-7" d="M402.08,613.25a4.57,4.57,0,0,0,2.19,3.14c2.55,1.45,5.81.69,9.21-5a6.71,6.71,0,0,1-5.56-.13c-3.15-1.79-4.14-4.85-2-8.59,2-3.49,5.79-4.47,8.74-2.8,3.58,2,4.64,6.49,1.31,12.36-4.16,7.33-9.09,8.27-12.72,6.21a6.62,6.62,0,0,1-3.3-4.45Zm6.06-9.35c-1.35,2.38-1.08,4.5,1.18,5.78,1.15.65,3,.78,5.17-.24,1.73-3.71,1.42-6.42-.9-7.74C411.79,600.67,409.51,601.49,408.14,603.9Z"/><path class="cls-7" d="M400.25,595.54a4.6,4.6,0,0,0-1.83-3.37c-2.41-1.72-5.78-1.31-9.77,4.09a6.58,6.58,0,0,1,5.58.68c2.94,2.11,3.58,5.23,1.06,8.74-2.34,3.26-6.23,3.83-9,1.88-3.37-2.41-3.93-6.94,0-12.42,4.91-6.84,9.9-7.27,13.3-4.83a6.71,6.71,0,0,1,2.83,4.74ZM387.46,598c-2.08,3.53-2,6.23.13,7.78,1.66,1.19,4,.63,5.65-1.62s1.54-4.36-.57-5.87C391.58,597.54,389.78,597.22,387.46,598Z"/><path class="cls-7" d="M384.22,584.51a7.12,7.12,0,0,0-2.35-5.43c-1.89-1.68-4.25-1.75-5.8,0s-1.5,4.26,2.24,7.58l-1.38,1.55c-3.34-3-5.59-2.68-7.05-1s-1.17,3.4.5,4.89a6.36,6.36,0,0,0,4.76,1.37l-.05,2.24a8.64,8.64,0,0,1-6.25-2c-2.73-2.42-3.41-5.62-1.16-8.16,1.68-1.89,3.91-2.07,6.17-1.2l.09-.1a5.41,5.41,0,0,1,.15-7c2.47-2.78,6.26-2.44,9.14.11a8.92,8.92,0,0,1,3.2,6.8Z"/><path class="cls-7" d="M369.25,569.39a4.6,4.6,0,0,0-1.09-3.68c-2-2.18-5.39-2.48-10.4,2a6.58,6.58,0,0,1,5.32,1.82c2.44,2.67,2.42,5.86-.76,8.77-3,2.71-6.89,2.46-9.15,0-2.8-3.06-2.41-7.61,2.57-12.16,6.21-5.68,11.19-5.07,14-2a6.72,6.72,0,0,1,1.79,5.23Zm-13-.21c-2.77,3-3.28,5.68-1.48,7.64,1.38,1.5,3.82,1.45,5.86-.41s2.41-3.95.66-5.86C360.35,569.55,358.65,568.87,356.22,569.18Z"/><path class="cls-7" d="M356,554.05a4.61,4.61,0,0,0-.7-3.78c-1.76-2.38-5.1-3-10.55.89a6.58,6.58,0,0,1,5.1,2.37c2.15,2.91,1.79,6.08-1.67,8.64-3.23,2.39-7.1,1.73-9.1-1-2.46-3.33-1.6-7.82,3.82-11.82,6.77-5,11.66-3.87,14.14-.51a6.71,6.71,0,0,1,1.24,5.38ZM343,552.49c-3.07,2.71-3.85,5.3-2.27,7.44,1.21,1.64,3.65,1.84,5.87.2s2.81-3.67,1.27-5.76C347.08,553.29,345.47,552.43,343,552.49Z"/><path class="cls-7" d="M344.12,538.66a7.13,7.13,0,0,0-.56-5.89c-1.28-2.18-3.5-3-5.52-1.8s-2.74,3.59-.21,7.91l-1.79,1c-2.27-3.86-4.49-4.27-6.39-3.15s-2.17,2.88-1,4.8a6.37,6.37,0,0,0,4.11,2.78l-.74,2.11a8.64,8.64,0,0,1-5.32-3.86c-1.85-3.15-1.51-6.4,1.42-8.12,2.19-1.28,4.36-.76,6.25.76l.11-.07a5.42,5.42,0,0,1,2.3-6.62c3.21-1.88,6.71-.39,8.66,2.93a8.92,8.92,0,0,1,.94,7.46Z"/><path class="cls-7" d="M317.16,518l4.32,9.53-2.13,1-5.58-12.32,1.53-.69c7.83,1.91,12.6.87,20.21-2.18l1.15,2.55C329.32,518.73,324.11,519.35,317.16,518Z"/><path class="cls-7" d="M326.31,502.15a7.14,7.14,0,0,0,.62-5.78,4.53,4.53,0,0,0-6-2.87c-2.75.91-3.81,3.13-3,5.69a5.91,5.91,0,0,0,2.34,3l-.42,1.66-9.81,2.51-3.29-10,2.22-.73,2.55,7.72,6.08-1.42a6.45,6.45,0,0,1-1.82-2.79c-1.13-3.41-.11-6.83,4.2-8.25a6.86,6.86,0,0,1,9,4.48,9.2,9.2,0,0,1-.56,7.43Z"/><path class="cls-7" d="M322.2,481.82l-1-4.69-15.11,3.29.81,3.73-1.7.37a12.48,12.48,0,0,0-2.46-4l-.44-2,18.33-4-.92-4.24,2.19-.48,2.52,11.58Z"/><path class="cls-7" d="M310.23,464c-7,.77-11-1.34-11.5-5.52s3-7.08,10-7.85,11.17,1.32,11.62,5.47S317.22,463.27,310.23,464ZM309,453.28c-6.12.67-8.42,2.58-8.16,5s2.93,3.81,9.05,3.14,8.55-2.59,8.28-5S315.16,452.61,309,453.28Z"/><path class="cls-7" d="M314.64,442.38a7.14,7.14,0,0,0,2.38-5.31,4.53,4.53,0,0,0-4.83-4.58c-2.9,0-4.6,1.8-4.58,4.5a5.91,5.91,0,0,0,1.3,3.58L308,442l-10.1-.64-.05-10.5h2.34l0,8.13,6.22.53a6.44,6.44,0,0,1-.87-3.22c0-3.59,2-6.52,6.55-6.55a6.86,6.86,0,0,1,7.14,7,9.2,9.2,0,0,1-2.83,6.89Z"/><path class="cls-7" d="M308.53,418.17h-.13a6,6,0,0,1-5.1,2.43c-3.21-.32-5.11-3.09-4.78-6.46.36-3.63,2.91-5.66,6.16-5.34a6.91,6.91,0,0,1,4.75,3.38h.13c1.27-1.76,2.92-3.38,5.73-3.1,3.11.31,5.3,3.24,4.89,7.3s-3.11,6.6-6.41,6.27C311.06,422.39,309.39,420.24,308.53,418.17Zm-4-7a3.51,3.51,0,0,0-4.06,3.27,3.25,3.25,0,0,0,3,3.71c2.49.25,3.77-1.94,5-4.36A5.66,5.66,0,0,0,304.57,411.13Zm13.62,5c.24-2.42-1.1-4.24-3.26-4.46-2.69-.27-3.93,2.29-5.44,5.18.95,1.78,2.36,3.18,4.26,3.37C316.08,420.45,317.94,418.68,318.2,416.13Z"/><path class="cls-7" d="M319.83,403.11c-4.87-7.46-7.86-11.71-11.18-12.39-2.35-.49-4.29.46-4.83,3.06a6.19,6.19,0,0,0,1.57,4.9l-1.83,1.2c-1.52-2.09-2.39-4.19-1.84-6.87.79-3.8,3.69-5.65,7.33-4.9,3.87.8,7,5.11,11.06,11,.14-1.15.3-2.42.52-3.49l1.23-6,2.29.47-2.75,13.27Z"/><path class="cls-7" d="M315.75,380.65c-6.71-2.14-9.54-5.71-8.26-9.72s5.65-5.24,12.35-3.1,9.66,5.75,8.39,9.73S322.46,382.79,315.75,380.65ZM319,370.34c-5.86-1.87-8.74-1.07-9.48,1.25s1.13,4.68,7,6.55,8.87,1.11,9.62-1.24S324.9,372.21,319,370.34Z"/><path class="cls-7" d="M329.68,362a4.61,4.61,0,0,0,2.93-2.49c1.19-2.71.09-5.93-6-8.72a6.58,6.58,0,0,1,.48,5.6c-1.46,3.31-4.39,4.58-8.33,2.84-3.67-1.62-5-5.31-3.68-8.38,1.67-3.79,6-5.27,12.16-2.55,7.71,3.39,9.15,8.2,7.47,12a6.71,6.71,0,0,1-4.06,3.75Zm-5.07-12c-3.88-1.31-6.52-.71-7.59,1.73-.82,1.87.21,4.08,2.74,5.2s4.58.62,5.63-1.76C325.94,353.89,325.88,352.06,324.61,350Z"/><path class="cls-7" d="M329.55,328.55l-5.2,9.08-2-1.16L329,324.73l1.46.83c3,7.47,6.67,10.72,13.6,15.11l-1.39,2.43C336,338.87,332.48,335,329.55,328.55Z"/><path class="cls-7" d="M349.32,325.41a2.07,2.07,0,1,1,.61,2.82A2,2,0,0,1,349.32,325.41Z"/><path class="cls-7" d="M356.59,315.59a2.07,2.07,0,1,1,.43,2.85A2,2,0,0,1,356.59,315.59Z"/><path class="cls-7" d="M364.47,306.23a2.08,2.08,0,1,1,.25,2.88A2,2,0,0,1,364.47,306.23Z"/><path class="cls-8" d="M245.08,220.55q10.94-13,24.23-14.71t24.87,8a29.56,29.56,0,0,1,10.91,23q.27,13-9.06,24.06l-27.85,33-49.62-41.93ZM289.21,254q6.25-7.4,5.5-16.21t-8.26-15.14q-8-6.74-17.18-5.77t-16.21,9.27L232.91,250l34.82,29.42Z"/><path class="cls-8" d="M345.59,216.46l-8.68,6.37-38.45-52.36,8.68-6.37Z"/><path class="cls-8" d="M398.57,132.81a64.21,64.21,0,0,0-29.91,5.07q-9.12,4-13,8.26t-2.26,8q1.73,3.94,7.7,3.48,4.28-.3,12.87-3.49,12.69-4.58,16.85-5.82,11.82-3.42,18.93-1.73t10.35,9.08q4.14,9.45-2,18.3t-21.81,15.73q-22.77,10-39.82,5.49l2.29-9.53a61.81,61.81,0,0,0,33.83-4.63q10.44-4.57,14.93-10,4.28-5.21,2.16-10.06-2.48-5.67-10.55-4.39-4.21.67-21.28,6.88-15.14,5.46-22.36,5.09-8.42-.43-12-8.56-3.67-8.38,2.05-16.67t20-14.55q19.23-8.43,36.07-5.32Z"/><path class="cls-8" d="M504.35,107.66l-30.82,3.72,6.62,54.88-10.69,1.29-6.62-54.88L432,116.38l-1.16-9.62L503.19,98Z"/><path class="cls-8" d="M599.07,176.61l-12.32-2.26-12.83-27.53-32.25-5.92-4.47,24.36-10.59-1.94,11.72-63.9,50.39,9.24q10.06,1.84,14.8,8.33t3,15.75q-1.49,8.12-7.07,12.2-5.17,3.8-13,3.64Zm-17.44-38.23q12.27,2.25,14.08-7.63,1.94-10.59-11.29-13l-37.24-6.83-3.76,20.48Z"/><path class="cls-8" d="M627.46,190.63l-9.87-4.31,26-59.54,9.87,4.31Z"/><path class="cls-8" d="M741.92,206.09,732,203q-1.54-14.33-15.7-25-10.73-8.12-21.66-7.73a22.79,22.79,0,0,0-21.43,28.17q2.6,10.47,14,19.07,13.74,10.4,28.05,7.84l4.28,9.66a41.76,41.76,0,0,1-19.75-.15q-9.24-2.44-19-9.85Q667,214.54,663.11,200.8q-4.42-15.72,5.22-28.46,9.47-12.52,26-12.5,14.41,0,27.93,10.22Q741.73,184.79,741.92,206.09Z"/><path class="cls-8" d="M806.87,282.52l-18-25.33-45.09,32-6.23-8.78,45.09-32-18-25.33,7.91-5.6,42.13,59.44Z"/><path class="cls-7" d="M560.73,799.08v16H535.32l-2.19,33.3q-.66,8.65-.66,15,0,15.23,3.56,18.57a12.11,12.11,0,0,0,8.6,3.34q10.51,0,12.49-13.25h3.94q-3.61,30.45-24.32,30.45-9.64,0-15.5-5.92T515.38,879q0-7.67,2.3-32.42l3-31.55H497.42q-2.3,39.87-5.53,58.27t-7.12,23.77a12.38,12.38,0,0,1-10.57,5.37,12.59,12.59,0,0,1-8.49-3,9.74,9.74,0,0,1-3.45-7.78q0-4.6,5.92-12.6A87.7,87.7,0,0,0,481.1,855q4.27-12.54,6.46-39.92h-7.45q-9,0-13.75,4a42.17,42.17,0,0,0-9,11.45h-3.94a65.69,65.69,0,0,1,8.21-19.28q5-7.56,10.35-9.86t18.89-2.3Z"/><circle class="cls-7" cx="574.39" cy="854.54" r="9.16"/><circle class="cls-7" cx="442.78" cy="854.54" r="9.16"/><circle class="cls-7" cx="794.22" cy="324.67" r="9.16"/><circle class="cls-7" cx="225.94" cy="314.2" r="9.16"/></svg>