<svg xmlns="http://www.w3.org/2000/svg" xmlns:xlink="http://www.w3.org/1999/xlink" viewBox="0 0 1024 1024"><defs><style>.cls-1,.cls-10,.cls-11,.cls-12,.cls-13,.cls-15,.cls-16,.cls-8,.cls-9{fill:none;}.cls-12,.cls-13,.cls-16,.cls-2,.cls-3,.cls-6,.cls-9{stroke:#fff;}.cls-10,.cls-11,.cls-12,.cls-13,.cls-15,.cls-16,.cls-17,.cls-2,.cls-3,.cls-4,.cls-5,.cls-6,.cls-8,.cls-9{stroke-miterlimit:10;}.cls-14,.cls-3,.cls-4,.cls-6{fill:#fff;}.cls-10,.cls-11,.cls-15,.cls-17,.cls-4,.cls-5,.cls-8{stroke:#000;}.cls-4{stroke-width:5px;}.cls-5{stroke-width:6px;}.cls-6{fill-rule:evenodd;}.cls-7{clip-path:url(#clip-path);}.cls-17,.cls-8{stroke-width:8px;}.cls-9{stroke-width:1.5px;}.cls-10,.cls-11{stroke-width:20px;}.cls-11{stroke-dasharray:19.6 16.66;}.cls-12,.cls-13{stroke-width:12px;}.cls-13{stroke-dasharray:12.1 24.19;}.cls-15,.cls-16{stroke-width:2px;}.cls-17{fill:#000009;}</style><clipPath id="clip-path"><path class="cls-1" d="M324.56,765.55h54s9.53,69.15,53.73,125.4,80.83,70.91,80.83,70.91S549.8,947.19,594,890.95s53.73-125.4,53.73-125.4h54V505.71s-79.16-96.86-188.6-96.86-188.6,96.86-188.6,96.86Z"/></clipPath></defs><title>median earth</title><g id="Weapons"><polygon class="cls-2" points="731.07 865.72 743.28 877.92 745.67 875.53 745 874.85 734.14 864 733.47 863.32 731.07 865.72"/><path class="cls-2" d="M739.71,858.14a10.61,10.61,0,0,1,9.15-9.14l3-3L749.78,844l-15.09,15.09,2.06,2.06Z"/><polygon class="cls-2" points="726.18 845.72 726.63 845.27 726.18 845.27 726.18 845.72"/><path class="cls-2" d="M743,866.77a10.2,10.2,0,0,0,6.88,3h0a10.24,10.24,0,1,0-9.8-11.51h0A10.22,10.22,0,0,0,743,866.77Z"/><circle class="cls-2" cx="746.25" cy="840.23" r="1.57" transform="translate(-375.56 773.78) rotate(-45)"/><path class="cls-2" d="M757.77,852a10.59,10.59,0,0,1,3.08,6.71l2-2,2.32-2.32-10.58-10.58-2.32,2.32-2.77,2.77A10.6,10.6,0,0,1,757.77,852Z"/><polygon class="cls-2" points="278.03 412.68 290.24 424.89 292.64 422.49 291.96 421.82 281.11 410.96 280.43 410.29 278.03 412.68"/><path class="cls-2" d="M730.07,863.12l4.2-4.2,15.37-15.37,4.2-4.2-6.7-6.7L742,837.76l-13.56,13.56-5.1,5.1Zm14.79-24.28a2,2,0,1,1,0,2.79A2,2,0,0,1,744.86,838.84Zm-7.69,7.69a2,2,0,1,1,0,2.79A2,2,0,0,1,737.17,846.53Zm-7.69,7.69a2,2,0,1,1,0,2.79A2,2,0,0,1,729.49,854.21Z"/><circle class="cls-2" cx="730.88" cy="855.61" r="1.57" transform="translate(-390.94 767.41) rotate(-45)"/><path class="cls-2" d="M742.73,867.05a10.6,10.6,0,0,1-3.07-8.3l-2.78,2.79-2.32,2.32,10.58,10.58,2.32-2.32,2-2A10.58,10.58,0,0,1,742.73,867.05Z"/><path class="cls-2" d="M757.77,867.05a10.6,10.6,0,0,1-7.8,3.11l-2.09,2.09,4.81,4.81L767.78,862,763,857.16l-2.1,2.1A10.59,10.59,0,0,1,757.77,867.05Z"/><circle class="cls-2" cx="738.57" cy="847.92" r="1.57" transform="translate(-383.25 770.59) rotate(-45)"/><polygon class="cls-2" points="731.09 840.82 731.54 840.37 731.09 840.36 731.09 840.82"/><polygon class="cls-2" points="732.15 840.31 731.03 841.43 727.25 845.21 726.12 846.34 724.95 847.51 728.34 850.9 741.62 837.62 738.23 834.23 737.06 835.4 735.93 836.53 732.15 840.31"/><circle class="cls-2" cx="303.1" cy="427.83" r="1.58" transform="translate(-213.74 339.63) rotate(-45)"/><path class="cls-2" d="M302.29,435.34l5.08-5.08,0,0,3.71-3.71,1.18-1.18,3.73-3.73,1.18-1.18,3.71-3.71,0,0,5.08-5.08-6.7-6.7-4.2,4.2-15.37,15.37-4.2,4.2Zm14.79-24.28a2,2,0,1,1,0,2.79A2,2,0,0,1,317.08,411.06Zm-7.69,7.69a2,2,0,1,1,0,2.79A2,2,0,0,1,309.39,418.75Zm-7.69,7.69a2,2,0,1,1,0,2.79A2,2,0,0,1,301.71,426.43Z"/><path class="cls-2" d="M319.59,413.57a1.58,1.58,0,1,0-2.23,0A1.58,1.58,0,0,0,319.59,413.57Z"/><circle class="cls-2" cx="310.79" cy="420.14" r="1.58" transform="translate(-206.06 342.82) rotate(-45)"/><polygon class="cls-2" points="736.45 835.46 735.99 835.46 735.99 835.91 736.45 835.46"/><path class="cls-2" d="M233.3,342.31a.2.2,0,0,1-.27.27l-.45-.23c-.3-.15-.73-.36-1.29-.62-1.12-.51-2.72-1.19-4.65-1.87a45,45,0,0,0-13.87-2.71l5.55,5.55,18.07,18.07,7.28,7.28,5.26,5.26c-.14-9.1-4.18-17.77-5.2-19.81l-.23-.45a.2.2,0,0,1,.27-.27l.45.23c.3.15.73.36,1.29.62,1.12.51,2.72,1.19,4.65,1.87A45,45,0,0,0,264,358.21L258.76,353l-7.28-7.28L233.41,327.6,227.86,322c.14,9.1,4.18,17.77,5.2,19.81Zm8.95,1.48a5.47,5.47,0,1,1-7.73,0A5.47,5.47,0,0,1,242.25,343.79Z"/><polygon class="cls-2" points="252.78 387.43 264.99 399.63 267.38 397.24 266.71 396.56 255.85 385.7 255.17 385.03 252.78 387.43"/><path class="cls-2" d="M242,351.25a5.08,5.08,0,1,0-3.59,1.48A5.06,5.06,0,0,0,242,351.25Zm-5.33-5.33a2.47,2.47,0,1,1,0,3.49A2.47,2.47,0,0,1,236.64,345.92Z"/><path class="cls-2" d="M227.46,322l-14.71,14.71c9.11.14,17.72,4.12,19.92,5.21C231.58,339.75,227.6,331.14,227.46,322Z"/><path class="cls-2" d="M264.72,388.48A10.24,10.24,0,1,0,261.8,380,10.2,10.2,0,0,0,264.72,388.48Z"/><path class="cls-2" d="M239.84,349.12a2.07,2.07,0,1,0-2.93,0A2.07,2.07,0,0,0,239.84,349.12Z"/><circle class="cls-2" cx="225.27" cy="319.25" r="1.58" transform="translate(-159.77 252.79) rotate(-45)"/><polygon class="cls-2" points="315.61 399.52 303.4 387.31 301.01 389.71 301.68 390.38 312.54 401.24 313.21 401.92 315.61 399.52"/><path class="cls-2" d="M227.51,321.42l3.86-3.86L227,313.15l-1.42,1.42-20.26,20.26-1.42,1.42,4.41,4.41,3.86-3.86Zm-3.64-3.56a2,2,0,1,1,0,2.79A2,2,0,0,1,223.87,317.86Zm-7.69,7.69a2,2,0,1,1,0,2.79A2,2,0,0,1,216.19,325.54ZM208.5,336a2,2,0,1,1,2.79,0A2,2,0,0,1,208.5,336Z"/><path class="cls-2" d="M290,413.74a10.24,10.24,0,1,0-2.92-8.51A10.2,10.2,0,0,0,290,413.74Z"/><path class="cls-2" d="M249.33,373.32,264,358.61c-9.11-.14-17.72-4.12-19.92-5.21C245.21,355.6,249.19,364.21,249.33,373.32Z"/><circle class="cls-2" cx="217.58" cy="326.94" r="1.58" transform="translate(-167.45 249.61) rotate(-45)"/><circle class="cls-2" cx="209.9" cy="334.62" r="1.58" transform="translate(-175.14 246.43) rotate(-45)"/><path class="cls-3" d="M233.83,327.46l17.94,17.94,7.14,7.14c17.07-17,32.52-19.36,43.7-17.42a39.6,39.6,0,0,1,17.88,8,61.9,61.9,0,0,0-77.21-77.21,39.6,39.6,0,0,1,8,17.88C253.19,294.93,250.83,310.39,233.83,327.46Zm23.24,7.22a4,4,0,1,1,0-5.71A4,4,0,0,1,257.07,334.68Z"/><path class="cls-2" d="M279.48,388.76a10.6,10.6,0,0,1-7.8,3.11L269.59,394l4.81,4.81,15.09-15.09-4.81-4.81-2.1,2.1A10.6,10.6,0,0,1,279.48,388.76Z"/><path class="cls-2" d="M264.44,388.76a10.59,10.59,0,0,1-3.07-8.3l-2.78,2.79-2.32,2.32,10.58,10.58,2.32-2.32,2-2A10.57,10.57,0,0,1,264.44,388.76Z"/><path class="cls-3" d="M243.25,368.19,236.11,361l-17.94-17.94c-17.07,17-32.52,19.36-43.7,17.42a39.6,39.6,0,0,1-17.88-8,61.9,61.9,0,0,0,77.21,77.21,39.59,39.59,0,0,1-8-17.88C223.89,400.71,226.25,385.26,243.25,368.19ZM219,361.34a4,4,0,1,1,0,5.71A4,4,0,0,1,219,361.34Z"/><circle class="cls-2" cx="267.96" cy="361.94" r="1.58" transform="translate(-177.45 295.49) rotate(-45)"/><circle class="cls-2" cx="260.27" cy="369.63" r="1.58" transform="translate(-185.14 292.3) rotate(-45)"/><circle class="cls-2" cx="252.59" cy="377.32" r="1.58" transform="translate(-192.82 289.12) rotate(-45)"/><path class="cls-2" d="M289.7,414a10.59,10.59,0,0,1-3.07-8.3l-2.78,2.79-2.32,2.32L292.1,421.4l2.32-2.32,2-2A10.58,10.58,0,0,1,289.7,414Z"/><path class="cls-2" d="M261.42,379.85a10.61,10.61,0,0,1,9.15-9.14l3-3-2.06-2.06-15.09,15.09,2.06,2.06Z"/><path class="cls-2" d="M279.48,373.72a10.58,10.58,0,0,1,3.08,6.71l2-2,2.32-2.32-10.58-10.58L274,367.87l-2.77,2.77A10.6,10.6,0,0,1,279.48,373.72Z"/><polygon class="cls-2" points="768.65 852.55 756.44 840.35 754.04 842.74 754.72 843.42 765.58 854.28 766.25 854.95 768.65 852.55"/><path class="cls-2" d="M251.17,286A39.42,39.42,0,0,0,243,266.21l-.18-.21a63,63,0,0,0-12.68,5.43c4.72,5,9.41,11.6,11.1,19.09,1.87,8.28,0,17.67-9.49,27.18l-3.86,3.86,5.62,5.62C249.42,311.24,252.43,296.81,251.17,286Z"/><polygon class="cls-2" points="205.68 327.74 211.93 321.49 203.99 313.55 205.68 327.74"/><path class="cls-2" d="M279,403.69a1.58,1.58,0,1,0-2.23,0A1.58,1.58,0,0,0,279,403.69Z"/><path class="cls-2" d="M243.53,368.47c-15.87,15.94-18.88,30.37-17.62,41.22A39.43,39.43,0,0,0,234,429.44l.17.21a62.93,62.93,0,0,0,12.72-5.45c-4.81-5.08-9.62-11.76-11.35-19.36-1.87-8.19-.11-17.46,9.07-26.82v0l.34-.34,3.86-3.86-5.33-5.33Z"/><path class="cls-2" d="M286.64,396a1.58,1.58,0,1,0-2.23,0A1.58,1.58,0,0,0,286.64,396Z"/><polygon class="cls-2" points="218.46 314.95 204.26 313.26 212.21 321.21 218.46 314.95"/><path class="cls-2" d="M782.8,881.82a7.26,7.26,0,1,1-12.34,4.36l-3.59-3.59a11.65,11.65,0,1,0,6.44-6.44l3.58,3.58A7.24,7.24,0,0,1,782.8,881.82Z"/><path class="cls-2" d="M320.16,343.32c-.21-.17-.52-.42-.92-.72a36.05,36.05,0,0,0-3.56-2.33,40.25,40.25,0,0,0-13.13-4.77c-11.06-1.91-26.35.39-43.35,17.32l5.33,5.33,3.86-3.86.34-.34h0c9.36-9.18,18.63-10.94,26.82-9.07,7.6,1.73,14.27,6.55,19.36,11.35a63,63,0,0,0,5.45-12.72Z"/><path class="cls-2" d="M305.3,281.06a62.78,62.78,0,0,1,9.91,75.43l1.07,1.05A73.46,73.46,0,0,1,325,368c20.89-30.16,18.13-71.6-8.44-98.17s-68-29.33-98.12-8.48a72.23,72.23,0,0,1,10.29,8.55c.4.4.8.82,1.21,1.24A62.78,62.78,0,0,1,305.3,281.06Z"/><polygon class="cls-2" points="290.36 374.26 278.15 362.06 275.75 364.45 276.43 365.13 287.28 375.99 287.96 376.66 290.36 374.26"/><path class="cls-2" d="M171.78,414.58a62.78,62.78,0,0,1-9.93-75.39c-.42-.4-.84-.81-1.24-1.21a72.24,72.24,0,0,1-8.55-10.29c-20.84,30.16-18.07,71.56,8.48,98.12s68,29.33,98.17,8.44a73.46,73.46,0,0,1-10.45-8.68l-1-1.07A62.78,62.78,0,0,1,171.78,414.58Z"/><path class="cls-2" d="M277,410.08l4.2-4.2,15.37-15.37,4.2-4.2-6.7-6.7-4.2,4.2-15.37,15.37-4.2,4.2Zm14.79-24.28a2,2,0,1,1,0,2.79A2,2,0,0,1,291.82,385.8Zm-7.69,7.69a2,2,0,1,1,0,2.79A2,2,0,0,1,284.14,393.49Zm-7.69,7.69a2,2,0,1,1,0,2.79A2,2,0,0,1,276.45,401.18Z"/><path class="cls-2" d="M770.81,886h0l1.54,1.54a4.16,4.16,0,0,0,5.89-5.89l-7.82-7.82-5.89,5.89Z"/><circle class="cls-2" cx="763.82" cy="873.18" r="1.58" transform="translate(-393.71 795.85) rotate(-45)"/><circle class="cls-2" cx="771.51" cy="865.49" r="1.58" transform="translate(-386.02 799.04) rotate(-45)"/><path class="cls-2" d="M156.93,352.32c.21.17.52.42.92.72a36.23,36.23,0,0,0,3.56,2.33,40.24,40.24,0,0,0,13.13,4.77c11.06,1.91,26.35-.39,43.35-17.31l-5.62-5.62-3.86,3.86c-9.51,9.52-18.9,11.36-27.18,9.49-7.49-1.69-14.07-6.38-19.09-11.09a63,63,0,0,0-5.43,12.68Z"/><polygon class="cls-2" points="222.33 311.63 212.34 321.63 202.35 331.62 205.14 334.4 225.12 314.42 222.33 311.63"/><circle class="cls-2" cx="756.14" cy="880.86" r="1.58" transform="translate(-401.4 792.67) rotate(-45)"/><path class="cls-2" d="M755.32,888.37l8.8-8.8,6.16-6.16,8.81-8.81-6.7-6.7-4.2,4.2-15.37,15.37-4.2,4.2,6.7,6.7Zm14.79-24.28a2,2,0,1,1,0,2.79A2,2,0,0,1,770.12,864.1Zm-7.69,7.69a2,2,0,1,1,0,2.79A2,2,0,0,1,762.43,871.78Zm-7.69,7.69a2,2,0,1,1,0,2.79A2,2,0,0,1,754.74,879.47Z"/><path class="cls-2" d="M283.71,408.08l3-3a10.61,10.61,0,0,1,9.15-9.14l3-3-2.06-2.06L281.65,406Z"/><path class="cls-2" d="M294.33,388.31a1.58,1.58,0,1,0-2.23,0A1.58,1.58,0,0,0,294.33,388.31Z"/><path class="cls-2" d="M249.28,373.93l-4,4-.19.2,6.69,6.69,4.2-4.2,15.37-15.37,4.2-4.2-6.69-6.69-.2.19-4,4-15.37,15.37Zm4.71,4.78a2,2,0,1,1,0-2.79A2,2,0,0,1,254,378.71Zm7.69-7.69a2,2,0,1,1,0-2.79A2,2,0,0,1,261.67,371Zm7.69-10.47a2,2,0,1,1-2.79,0A2,2,0,0,1,269.36,360.55Z"/><path class="cls-2" d="M304.74,399a10.58,10.58,0,0,1,3.08,6.71l2-2,2.32-2.32L301.54,390.8l-2.32,2.32-2.77,2.77A10.6,10.6,0,0,1,304.74,399Z"/><path class="cls-2" d="M304.74,414a10.6,10.6,0,0,1-7.8,3.11l-2.09,2.09,4.8,4.8,15.09-15.09-4.8-4.8-2.1,2.1A10.6,10.6,0,0,1,304.74,414Z"/><polygon class="cls-2" points="724.67 847.23 737.95 833.95 320.81 416.81 307.41 430.21 724.67 847.23"/><path class="cls-2" d="M502.35,290.48v85.45H524V264.15c-2.84,3.77-6.62,6.13-10.81,6.13s-8-2.36-10.82-6.13v26.34Z"/><polygon class="cls-2" points="513.16 898.05 521.85 852.09 521.85 376.92 504.47 376.92 504.47 852.09 513.16 898.05"/><polygon class="cls-2" points="524.13 183.04 502.19 204.98 502.19 208.98 524.13 187.04 524.13 183.04"/><path class="cls-2" d="M524.13,228.44v-5.35h-6.39A16,16,0,0,1,524.13,228.44Z"/><polygon class="cls-2" points="524.13 177.64 502.19 199.58 502.19 203.58 524.13 181.64 524.13 177.64"/><path class="cls-2" d="M528.32,254.81,596,225.21c-11.63,3.57-31.07,8.57-48.76,8.58-8,0-15.61-1-22-3.7a31.33,31.33,0,0,1,4.18,16.1A34.73,34.73,0,0,1,528.32,254.81Z"/><path class="cls-2" d="M513.16,223.09c-4.14,0-7.93,2.51-10.73,6.69a32,32,0,0,0,0,32.82c2.79,4.18,6.59,6.69,10.73,6.69s7.93-2.51,10.72-6.69a32,32,0,0,0,0-32.82C521.1,225.6,517.3,223.09,513.16,223.09Z"/><polygon class="cls-2" points="524.13 150.65 502.19 172.59 502.19 176.59 524.13 154.65 524.13 150.65"/><polygon class="cls-2" points="524.13 145.25 502.19 167.19 502.19 171.19 524.13 149.26 524.13 145.25"/><polygon class="cls-2" points="524.13 139.85 502.19 161.79 502.19 164.89 502.19 165.79 524.13 143.86 524.13 139.85"/><polygon class="cls-2" points="524.13 172.24 502.19 194.18 502.19 198.18 524.13 176.25 524.13 172.24"/><polygon class="cls-2" points="524.13 214.24 524.13 210.03 519.92 214.24 524.13 214.24"/><polygon class="cls-2" points="524.13 166.85 502.19 188.78 502.19 192.78 524.13 170.85 524.13 166.85"/><polygon class="cls-2" points="524.13 134.46 502.19 156.39 502.19 160.39 524.13 138.46 524.13 134.46"/><polygon class="cls-2" points="524.13 156.05 502.19 177.99 502.19 181.99 524.13 160.05 524.13 156.05"/><polygon class="cls-2" points="524.13 164.89 524.13 161.45 502.19 183.38 502.19 187.38 524.13 165.45 524.13 164.89"/><path class="cls-2" d="M541.13,281.92a35,35,0,0,0-6.57,5.3c-4.75,4.89-9.48,12.65-9.54,24.24,0,1.5,0,3,0,4.6v60.37l-.14.35-.35.15h-1.63V852.23l-9.18,48.52v94c25.9-37.28,29.25-102,29.65-117.68.06-2.27.06-3.51.06-3.52V280.67l-.08,0C542.77,281,542,281.37,541.13,281.92Z"/><path class="cls-2" d="M533.84,286.53a35.35,35.35,0,0,1,8.2-6.29,13,13,0,0,1-7.2-3.19,18.69,18.69,0,0,1-4.47-6.28c-2.28,7-4.19,16.78-5,30.51A34.07,34.07,0,0,1,533.84,286.53Z"/><path class="cls-2" d="M503.49,852.23V376.92h-1.63a.49.49,0,0,1-.49-.49V316.06c0-1.9,0-3.74-.06-5.54A33.83,33.83,0,0,0,483,280.65V873.52s0,1.24.06,3.52.18,5.56.42,9.65c.48,8.17,1.44,19.51,3.35,32.18,3.75,24.83,11.22,54.72,25.88,75.84v-94Z"/><path class="cls-2" d="M501.36,290.48V262.73a27,27,0,0,1-3-6.65,52.66,52.66,0,0,0-11.95-2.36c1.81,1.18,4.3,3.48,6.76,7.93a48.39,48.39,0,0,1,3.3,7.56v0c2.05,5.9,3.83,13.89,4.88,24.67v-3.42Z"/><polygon class="cls-2" points="518.53 214.24 524.13 208.63 524.13 204.63 514.53 214.24 518.53 214.24"/><path class="cls-2" d="M533.6,253.58a65.05,65.05,0,0,1,9-1.09h0c1.52-.08,3.06-.13,4.61-.13,23.33,0,49.7,8.7,57.2,11.34l-28.6-28.6Z"/><path class="cls-2" d="M525,262.73V293.9c1-10.77,2.83-18.77,4.87-24.67v0a48.57,48.57,0,0,1,3.31-7.56c2.46-4.45,4.94-6.74,6.76-7.93A52.69,52.69,0,0,0,528,256.08,27.11,27.11,0,0,1,525,262.73Z"/><path class="cls-2" d="M501.09,230.09c-6.41,2.66-14,3.69-22,3.69-17.7,0-37.13-5-48.77-8.57L498,254.81a34.55,34.55,0,0,1-1.09-8.62A31.31,31.31,0,0,1,501.09,230.09Z"/><polygon class="cls-2" points="513.13 214.24 524.13 203.24 524.13 199.24 509.13 214.24 513.13 214.24"/><polygon class="cls-2" points="524.13 192.44 524.13 188.44 502.19 210.38 502.19 214.24 502.33 214.24 524.13 192.44"/><polygon class="cls-2" points="507.73 214.24 524.13 197.84 524.13 193.84 503.73 214.24 507.73 214.24"/><path class="cls-2" d="M508.58,223.09h-6.38v5.35A16,16,0,0,1,508.58,223.09Z"/><path class="cls-2" d="M513.16,222.1H528a1.8,1.8,0,0,0,0-3.6h-29.6a1.8,1.8,0,1,0,0,3.6h14.8Z"/><polygon class="cls-2" points="517.54 217.52 527.47 217.52 527.47 215.23 524.63 215.23 518.73 215.23 513.33 215.23 507.94 215.23 502.54 215.23 501.7 215.23 498.86 215.23 498.86 217.52 508.79 217.52 517.54 217.52"/><path class="cls-2" d="M500.94,301.16c-.81-13.67-2.72-23.43-5-30.4a18.65,18.65,0,0,1-4.47,6.3,13,13,0,0,1-7.18,3.19,35.41,35.41,0,0,1,8.2,6.29A34.05,34.05,0,0,1,500.94,301.16Z"/><polygon class="cls-2" points="517.65 65.36 504.06 78.95 504.06 82.96 521.66 65.36 517.65 65.36"/><polygon class="cls-2" points="512.25 65.36 504.06 73.56 504.06 77.56 516.25 65.36 512.25 65.36"/><polygon class="cls-2" points="504.06 65.36 504.06 65.86 504.06 66.76 505.46 65.36 504.06 65.36"/><polygon class="cls-2" points="506.86 65.36 504.06 68.16 504.06 68.74 504.06 72.16 510.86 65.36 506.86 65.36"/><polygon class="cls-2" points="522.27 76.94 504.06 95.15 504.06 99.15 522.27 80.94 522.27 76.94"/><polygon class="cls-2" points="522.27 68.74 522.27 66.14 504.06 84.35 504.06 88.35 522.27 70.14 522.27 68.74"/><polygon class="cls-2" points="522.27 71.54 504.06 89.75 504.06 93.75 522.27 75.54 522.27 71.54"/><path class="cls-2" d="M507.1,64.37h15.17V60.29H504.06v4.07h2.41A.48.48,0,0,1,507.1,64.37Z"/><path class="cls-2" d="M505.21,54.22a4.61,4.61,0,0,1-1.05,1h4.42a13.76,13.76,0,0,1-2.94-1.76A3,3,0,0,1,505.21,54.22Z"/><path class="cls-2" d="M450.48,235.11l-28.6,28.6c7.5-2.65,33.87-11.34,57.2-11.34,1.56,0,3.09,0,4.61.13h0a65,65,0,0,1,9,1.09Z"/><path class="cls-2" d="M523.89,48.52a29.9,29.9,0,0,0,4.53-16.41,29.9,29.9,0,0,0-4.53-16.41C521.09,11.51,517.3,9,513.16,9s-7.93,2.51-10.73,6.69a29.92,29.92,0,0,0-4.53,16.41,29.91,29.91,0,0,0,4.53,16.41c2.79,4.18,6.59,6.69,10.73,6.69S521.1,52.69,523.89,48.52Z"/><polygon class="cls-2" points="522.27 82.33 504.06 100.55 504.06 104.55 522.27 86.34 522.27 82.33"/><polygon class="cls-2" points="523.67 59.3 523.67 56.2 513.16 56.2 502.66 56.2 502.66 59.3 503.56 59.3 522.76 59.3 523.67 59.3"/><polygon class="cls-2" points="524.13 129.7 523.48 129.7 502.19 151 502.19 155 524.13 133.06 524.13 129.7"/><path class="cls-2" d="M521.11,54.22a3.11,3.11,0,0,1-.43-.77,13.8,13.8,0,0,1-2.94,1.76h4.41A4.85,4.85,0,0,1,521.11,54.22Z"/><polygon class="cls-2" points="512.69 129.7 502.19 140.2 502.19 144.2 516.69 129.7 512.69 129.7"/><polygon class="cls-2" points="507.29 129.7 502.19 134.8 502.19 138.8 511.29 129.7 507.29 129.7"/><polygon class="cls-2" points="502.19 129.7 502.19 133.4 505.9 129.7 502.19 129.7"/><polygon class="cls-2" points="518.09 129.7 502.19 145.6 502.19 149.6 522.09 129.7 518.09 129.7"/><polygon class="cls-2" points="522.27 87.73 504.06 105.94 504.06 109.95 522.27 91.73 522.27 87.73"/><rect class="cls-2" x="504.06" y="122.06" width="18.21" height="1.9"/><path class="cls-2" d="M512.48,128.71h10.68a.45.45,0,0,1,.4,0H526v-3.76H500.33v3.76h12.16Z"/><polygon class="cls-2" points="518.53 117.07 522.27 113.33 522.27 109.33 514.53 117.07 518.53 117.07"/><polygon class="cls-2" points="522.27 117.07 522.27 114.72 519.92 117.07 522.27 117.07"/><polygon class="cls-2" points="522.27 102.53 522.27 98.53 504.06 116.74 504.06 117.07 507.73 117.07 522.27 102.53"/><polygon class="cls-2" points="513.13 117.07 522.27 107.93 522.27 103.93 509.13 117.07 513.13 117.07"/><polygon class="cls-2" points="525.99 121.07 525.99 118.05 522.76 118.05 518.73 118.05 513.33 118.05 507.94 118.05 503.56 118.05 500.33 118.05 500.33 121.07 503.56 121.07 522.76 121.07 525.99 121.07"/><polygon class="cls-2" points="522.27 93.13 504.06 111.34 504.06 115.34 522.27 97.13 522.27 93.13"/><path d="M822,274.53s16.59-23.46,10.24-27.48c-8.94-5.7-6.09,9.85-17.37,10.11-9.85.13-48.74,52.75-65.2,80.49L277.51,810c-27.74,16.46-80.36,55.35-80.49,65.2-.26,11.28-15.81,8.43-10.11,17.37,4,6.35,27.48-10.37,27.48-10.37-.26-.13-.52-.39-.78-.52l4-4c3,1.68,3.63,3.37,3.63,3.37,4.93-8.3,9.46-15,13.48-20.61l23.07-23.07c6.48-4.54,12.44-7.39,18.79-13,16.07-13.74,33.7-4,72.07-17.11,113.8,6.35,145.3-11.41,177.83-40.57s30.85-53.79,50.29-72.07S606.61,667,606.61,667s9.33-10.37,27.61-29.81,42.9-17.76,72.07-50.29,46.92-64,40.57-177.83c13.09-38.37,3.5-56,17.11-72.07,5.57-6.48,8.43-12.31,13-18.79l23.2-23.2a216.78,216.78,0,0,1,20.48-13.48s-1.68-.65-3.37-3.63l4-4C821.64,274.14,821.77,274.4,822,274.53Zm-4.41-4.8-2.46,2.46C813.86,267.66,815.55,268,817.62,269.73ZM212.06,875.43l-2.46,2.46C207.78,875.82,207.52,874.13,212.06,875.43ZM699.54,581.2c-27.48,30.85-79.45,41.74-79.45,41.74A138.58,138.58,0,0,0,586.77,647a134.35,134.35,0,0,0-24.11,33.31s-10.89,52.11-41.74,79.45C452,831,339.34,783.14,294.23,801L740.76,354.5C722.87,399.61,770.7,512.25,699.54,581.2Z"/><polygon points="818.41 791.76 815.41 791.88 815.41 791.62 818.41 791.76"/><polygon points="808.42 792 802.43 791.96 802.49 790.68 808.45 791.18 808.42 792"/><polygon points="795.41 791.75 789.44 791.39 789.65 789.17 795.59 789.93 795.41 791.75"/><polygon points="782.42 790.78 776.48 790.1 776.92 787.05 782.81 788.12 782.42 790.78"/><polygon points="769.47 789.11 763.58 788.09 764.36 784.26 770.18 785.64 769.47 789.11"/><polygon points="756.63 786.65 750.8 785.27 751.99 780.82 757.73 782.51 756.63 786.65"/><polygon points="743.92 783.41 738.2 781.68 739.88 776.64 745.5 778.68 743.92 783.41"/><polygon points="731.42 779.4 725.82 777.31 728.07 771.73 733.55 774.11 731.42 779.4"/><polygon points="719.19 774.56 713.74 772.09 716.58 766.16 721.92 768.86 719.19 774.56"/><polygon points="707.29 768.93 702 766.14 705.46 759.91 710.63 762.92 707.29 768.93"/><polygon points="695.75 762.59 690.63 759.49 694.75 753.01 699.73 756.32 695.75 762.59"/><polygon points="684.59 755.58 679.65 752.2 684.44 745.51 689.23 749.1 684.59 755.58"/><polygon points="673.85 747.95 669.11 744.3 674.48 737.55 679.1 741.35 673.85 747.95"/><polygon points="663.53 739.79 658.96 735.93 664.88 729.12 669.33 733.12 663.53 739.79"/><polygon points="653.58 731.2 649.16 727.17 655.61 720.31 659.91 724.47 653.58 731.2"/><polygon points="643.97 722.29 639.67 718.12 646.61 711.17 650.78 715.47 643.97 722.29"/><polygon points="634.64 713.12 630.45 708.85 637.81 701.81 641.89 706.18 634.64 713.12"/><polygon points="625.57 703.76 621.46 699.42 629.08 692.32 633.12 696.73 625.57 703.76"/><polygon points="616.65 694.32 612.55 689.96 620.39 682.73 624.41 687.16 616.65 694.32"/><polygon points="607.79 684.91 603.66 680.58 611.62 673.13 615.66 677.53 607.79 684.91"/><polygon points="598.87 675.64 594.66 671.4 602.64 663.62 606.78 667.95 598.87 675.64"/><polygon points="589.81 666.65 585.45 662.55 593.33 654.33 597.61 658.51 589.81 666.65"/><polygon points="580.48 658.09 575.93 654.2 583.48 645.45 587.99 649.38 580.48 658.09"/><polygon points="570.81 650.12 565.99 646.58 572.95 637.19 577.73 640.78 570.81 650.12"/><polygon points="560.66 643.02 555.52 639.96 561.6 629.85 566.71 632.95 560.66 643.02"/><polygon points="549.96 637.08 544.5 634.64 549.35 623.79 554.8 626.25 549.96 637.08"/><polygon points="538.72 632.52 532.97 630.87 536.29 619.41 542.03 621.09 538.72 632.52"/><polygon points="526.99 629.6 521.07 628.8 522.71 616.94 528.63 617.77 526.99 629.6"/><path d="M514.84,628.4l-2.9,0-2.9,0-.18-12,3.08,0,3.08,0Z"/><polygon points="502.82 628.81 496.89 629.63 495.24 617.79 501.16 616.95 502.82 628.81"/><polygon points="490.92 630.9 485.18 632.56 481.85 621.12 487.58 619.44 490.92 630.9"/><polygon points="479.4 634.69 473.95 637.13 469.09 626.29 474.54 623.84 479.4 634.69"/><polygon points="468.4 640.02 463.26 643.08 457.2 633 462.3 629.9 468.4 640.02"/><polygon points="457.94 646.64 453.12 650.18 446.18 640.84 450.96 637.25 457.94 646.64"/><polygon points="448 654.26 443.46 658.15 435.94 649.43 440.44 645.5 448 654.26"/><polygon points="438.5 662.62 434.15 666.72 426.33 658.55 430.6 654.38 438.5 662.62"/><polygon points="429.3 671.46 425.09 675.7 417.17 667.99 421.29 663.66 429.3 671.46"/><polygon points="420.31 680.63 416.19 684.96 408.29 677.57 412.33 673.16 420.31 680.63"/><polygon points="411.42 690.01 407.33 694.36 399.55 687.18 403.57 682.75 411.42 690.01"/><polygon points="402.53 699.45 398.42 703.79 390.85 696.75 394.88 692.33 402.53 699.45"/><polygon points="393.54 708.87 389.36 713.15 382.08 706.18 386.17 701.82 393.54 708.87"/><polygon points="384.33 718.14 380.04 722.3 373.2 715.46 377.37 711.17 384.33 718.14"/><polygon points="374.86 727.18 370.44 731.21 364.09 724.45 368.38 720.29 374.86 727.18"/><polygon points="365.07 735.93 360.5 739.78 354.68 733.09 359.12 729.1 365.07 735.93"/><polygon points="354.93 744.29 350.19 747.94 344.92 741.31 349.54 737.52 354.93 744.29"/><polygon points="344.39 752.19 339.46 755.57 334.8 749.05 339.59 745.48 344.39 752.19"/><polygon points="333.42 759.48 328.31 762.57 324.31 756.28 329.28 752.96 333.42 759.48"/><polygon points="322.05 766.13 316.76 768.92 313.41 762.88 318.58 759.87 322.05 766.13"/><polygon points="310.32 772.08 304.87 774.54 302.13 768.82 307.47 766.13 310.32 772.08"/><polygon points="298.25 777.3 292.64 779.39 290.5 774.08 295.98 771.69 298.25 777.3"/><polygon points="285.87 781.67 280.14 783.41 278.56 778.65 284.18 776.6 285.87 781.67"/><polygon points="273.26 785.27 267.44 786.65 266.33 782.48 272.07 780.79 273.26 785.27"/><polygon points="260.5 788.09 254.6 789.1 253.89 785.62 259.71 784.24 260.5 788.09"/><polygon points="247.6 790.1 241.66 790.77 241.26 788.1 247.15 787.03 247.6 790.1"/><polygon points="234.64 791.38 228.66 791.75 228.49 789.92 234.43 789.16 234.64 791.38"/><polygon points="221.65 791.96 215.67 792 215.63 791.17 221.59 790.67 221.65 791.96"/><polygon points="208.59 791.88 205.59 791.76 208.59 791.61 208.59 791.88"/></g><g id="Shield"><path class="cls-4" d="M513.16,994s56.8-26.11,103.93-91.31c41-56.7,50.9-111.8,50.9-111.8h33.77V433.31H666.91s-54.46-55.39-153.74-55.39-153.74,55.39-153.74,55.39H324.56V790.92h33.77s9.91,55.1,50.9,111.8C456.37,967.93,513.16,994,513.16,994Z"/><path class="cls-5" d="M324.56,765.55h54s9.53,69.15,53.73,125.4,80.83,70.91,80.83,70.91S549.8,947.19,594,890.95s53.73-125.4,53.73-125.4h54V505.71s-79.16-96.86-188.6-96.86-188.6,96.86-188.6,96.86Z"/><path class="cls-6" d="M504.87,801.17a1.17,1.17,0,0,0,1.09,1.38,1.49,1.49,0,0,0,1.61-1.3,1.26,1.26,0,0,0-1.28-1.32,1.5,1.5,0,0,0-1.42,1.24Z"/><path class="cls-6" d="M576.51,767.56c.6-6,1-15.13.93-15.1l.59-.51s-.23,6.23-.74,15.49a118.88,118.88,0,0,0,.08,14.46c.16,2,.54,7.71,1.65,7.47s2.71-4.19,2.71-4.16a10,10,0,0,1-.58-4.17c.25-2.13,1.88-4.85,3.84-4.81s1.35,3.27,0,3.41-1.13-1.7-1.13-1.7c-2.43,1.44-.24,7.72,1.54,7.07,2.81-1.16,3.26-6.82,3.2-6.84a23.13,23.13,0,0,0-.44-2.52,2.4,2.4,0,0,1,.24-2.2,17.83,17.83,0,0,0,1.09-2.08c-.24,4.76,1,9.59,2,9.36s2.22-4.67,2.2-4.66a8.52,8.52,0,0,1-.6-5.3c.31-1.63,1.55-3.93,3.3-3.68s2,3.38.33,3.52-1.2-2-1.2-2c-2.07,1.45-.63,7.48,2,7.13s3.3-5.35,3.26-5.34c-.94-1.44-1.37-2.57-1.18-5.28s1.89-4.83,3.56-4.49c1.25.24,1.53,2.79.25,3.16a1.15,1.15,0,0,1-1.56-1.16c-1.29,1.15-1.49,3.08-.39,5s2.64,2.15,4,.83,1-5.94,1-5.92-2.92-8.59-5.49-18c-2.69-10.93-5.42-22.29-5.45-22.22l.31-.57c-.08,0,2.39,9.23,6.23,23,2.34,8.33,4.95,14.9,5.19,15.65s1.65,4.16,2.47,3.74c1.08-.55,1.06-4.88,1-4.86a253.35,253.35,0,0,1-7.85-25.1c-3.22-13-6-21.59-5.9-21.61l.23-.59c-.08.07,2.34,7.59,5.95,20.7a164.38,164.38,0,0,0,7.22,20.9s.07-3.31,1.38-4.73,2.89.12,2.88.12-.94-7.23,2.92-7.24,3.8,7.64,3.76,7.7c2.62-3.54,2.61-6.56,2.57-6.57a14.47,14.47,0,0,1-2.06-5.49s-.62,2.78-2,3.19-5.47-2.3-7.28-7.59c-2.11-6.75-2.52-18.39-2.67-18.36L610,714c.07,0,1.06,9.87,3.27,17.47,1,3.47,4.89,6.9,6.54,5.89s1.24-4,1.23-4l.61-1.24c.45,4.54,2.45,8.55,4,8.4,2.17-.22,1.8-6,1.79-6-.9-.55-1.78-1.26-2.72-3.59s-.79-5.1.91-5.81,3.67,1.87,2.36,3c-1.05.89-2.44-1.13-2.44-1.12-2.23,2.62,3.38,6.54,4.75,5.43s.83-5.73.81-5.71a9.45,9.45,0,0,1-3.62-8.38c.24-2,1.89-1.95,2.84-1.11s1.19,1.85.36,2.47-1.89-.76-1.9-.76c-1.75,2.36,2.65,6.74,4.34,5.5,1.9-1.41.07-5.3-1.06-6.74a11.19,11.19,0,0,1-2.2-4.63c-.39-1.72.13-2.18.13-2.18.51,2.17,5.53,8.81,6,8.35.77-1-.13-5.07-.18-5.07s-4.95-6.32-10.51-13.2c-2.71-3.35-5.09-7.12-7.34-10.25-1.92-2.87-4.88-6.83-6.19-8.48-.52-.75-4.08-5.22-4.06-5.18l0-.58c-.05,0,7.2,8.35,13.32,17.14,4.18,5.51,12.38,14.77,12.32,14.86s-2.51-5.13-.27-7c2.31-2.15,6.79.86,7.7,4.93.53,2.05-.31,5.3-2,5a1.53,1.53,0,0,1-1-2.32c.73-1.25,1.87,0,1.87,0a4.24,4.24,0,0,0-3.72-5.79c-2.31-.08-2.5,1.22-2.13,3.14a36,36,0,0,0,1.1,4,65.65,65.65,0,0,1,4.44,5.71,47.68,47.68,0,0,1,4.67,8.43c3.54,9.47.46,12.8.51,12.73l-.32-.42c1.63-2.26.69-6.67-1.25-11.32A57.07,57.07,0,0,0,636.49,715c1,2.69.83,6.57.21,7.17s-1.76-1.23-1.77-1.22c.21.66.81,5.24-.28,6.43s-2.54,0-2.53.05,1.28,4.47-.64,7.17a2,2,0,0,1-3.24.44s.18,6.15-1.33,7.75a2.07,2.07,0,0,1-2.44.5,17.77,17.77,0,0,1-3.82,10.15,68.52,68.52,0,0,1-6.48,7.91,8.54,8.54,0,0,0-2.52,4.25,8.6,8.6,0,0,1-.07-2,12.51,12.51,0,0,0-.46-3.21s-.3,6.13-1.6,6.52-2.11-2.1-2.12-2.09-.28,5.72-2.38,6.92a2.72,2.72,0,0,1-3.36-.35c-.68,2.78-1.94,5.94-4,6.79a3,3,0,0,1-3.43-1.08c-1.1,3.1-2.06,5.07-2.06,5.07A31.8,31.8,0,0,1,591,793.19c-1.82,6.17-4.61,8.44-6,9.18s-3.43,1.12-4.69-1.18A4.87,4.87,0,0,1,582,795c1.72-1,3.67-1.26,4.46.24a2.69,2.69,0,0,1-1,3.77c-1.39.8-2.25.06-2.21-.95s1.73-1.63,1.72-1.65c-.12-.71-1.46-1.36-2.87,0a2.31,2.31,0,0,0,.86,3.95c1.65.48,5-1.22,6.94-6.79a23.72,23.72,0,0,0,1.24-9.93c-1.73,1.26-2-3.46-2-3.44-.59,3.17-1.77,6.46-4,7.57s-3.1-1.48-3.1-1.48-2.95,6.17-4.22,6c-1.48-.23-1.31-4.23-1.33-4.22-.49,2.22-2.5,6.49-4.74,7.58a2,2,0,0,1-2.79-.84s-3.47,5.36-6,4.09c-3.09-1.67.89-8.49.8-8.5a8.59,8.59,0,0,0-4.13,2.94c.69-3.35,6.65-6.91,10.7-8.3a10.85,10.85,0,0,0,5.63-4.34c-.08,0-.21-4.35.48-13.07ZM617,755a41,41,0,0,1,3.23-4.14c.84-2.45-.37-5.94-2.92-6.25-2.22-.29-2,4.79-2,4.8C617.05,751,617,755,617,755Zm-4.09,5.4a7.91,7.91,0,0,1,1.87-2.5,8,8,0,0,0,1.37-1.82,7.67,7.67,0,0,0-1-3.27c-.75-1.23-2-2.31-2.69-1.73a4.25,4.25,0,0,0-1.34,3.73,14.54,14.54,0,0,0,1.26,4,9.52,9.52,0,0,1,.49,1.6ZM570,787.6a20.4,20.4,0,0,0-5,2.1s-3.09,4.9-.27,6.63c2,1.13,4-2.93,3.92-3s-.72-1.62,1.36-5.78Zm5.51.92a16.67,16.67,0,0,0,.51-6s-2.32,3.45-4.79,4.44c0,0-2.93,5.29.27,6.36,1.21.39,3.32-1.92,4-4.77Z"/><path class="cls-6" d="M509.33,807.45s3.08-4.85,6.93-11.89,9.58-16.25,16.13-25.8l.54-.13s-1.13,1.76-3.13,4.85c-1.61,2.58-3.83,5.89-6.39,10.55-5.06,9.05-9.71,18.05-9.68,18.06s3.48-3.27,7.1-3.4c3-.05,2.39,3.09,2.38,3.1a24,24,0,0,1,6.5-5.24s-1.26-2.77,2.62-6.27c2.8-2.46,7.37-3.54,10.6-1.67,3.07,1.74,5.88,7.85-5.19,15.83,0,0,4.46.32,8.9-4.17a10.12,10.12,0,0,1,1.9-5.52c1.85-2.51,3.3-2.86,4.55-2.16.69.38.63,1.6,0,2.27s-1.69,1-2.38-.75a4.56,4.56,0,0,0-2,3.34c-.59,3.16.45,4.3,2.27,3.54s4.21-3.09,5.7-8.36a22.5,22.5,0,0,0,.5-2.19c.44-2.3,1.22-6.13,2.11-10,1.42-6.27,4.32-15.75,6.77-29.43l.48-.34c-.14,0-1.26,7-4,20.24-3.07,13.28-4.11,18.55-4.29,21.29-.34,2.77-.76,5.69-.12,5.94s2-1.52,2.43-2.27c.2-.35.43-.57.72-.47s.17.33-.07.75a19.43,19.43,0,0,1-3.37,4c-1.56,1.33-2.5.79-1.6-3.27,0-.06-2.56,5.49-7,6.49-2.25.51-2.51-2.17-2.52-2.17a26.32,26.32,0,0,1-6.58,4.52,42.92,42.92,0,0,1-7.33,10.49c-4.38,4.35-8.63,5.31-10.87,3.61-1.82-1.34-1-3.73.51-5.19a5.51,5.51,0,0,1,5.37-1c2.2.91,1.06,2.8.66,3.42a2.21,2.21,0,0,1-2.89,1c-1.43-.76-.3-2.62,1.93-2.81,0,0-2.21-1.41-3.74-.17-1.85,1.53-.58,3.17,1.09,3.68s4.25-.46,6.4-2.29A29.78,29.78,0,0,0,539,807.1a27.52,27.52,0,0,1-6,.64c-3.35-.08-5.78-.22-7.85.76a14,14,0,0,1-8.5,1.42,40.49,40.49,0,0,1-6.73,8.5c-3.4,3.06-6.25,3.11-8.48,1.14.05,0-6.17,3.43-9.11.49-1.71-1.69-.41-4.38.85-5.47,1.71-1.48,4.11-2.13,6-.94,3.84,2.44-1,6.14-2.94,4.31-.72-.71-.2-1.47.3-1.86a1.6,1.6,0,0,1,2.43.2s.55-.92-.94-1.62a3.11,3.11,0,0,0-3.5.48c-.69.59-1.14,2.09.56,3.37s4.58,1.06,7.41-.49a28.77,28.77,0,0,0,9.21-8.62s-8.4-1.55-10.6,1.05l-1.74.31a13.37,13.37,0,0,1,10-3.31Zm6.56,2.45-3.24-.3c.06,0-5.05,6.63-8.8,8.52a3.18,3.18,0,0,0,2.65.9c1.46-.29,3.6-1.57,6.14-4.67a42.45,42.45,0,0,0,3.25-4.46Zm3.72-1.55s3.6.36,5.71-.57,3.17-1.86,5.33-2.16,3.47,0,4.64-.27a13.7,13.7,0,0,0,7-5.07c2.51-3.3,2.3-7.23-1.46-8.81a8.13,8.13,0,0,0-8.29,1.32,4.07,4.07,0,0,0-1.77,4.08,4.36,4.36,0,0,1,3.38-.19,2.24,2.24,0,0,1,1,3.34,2.45,2.45,0,0,1-3.62.84,3.79,3.79,0,0,1-1.66-2.61,16.38,16.38,0,0,0-4.29,3.16,78.81,78.81,0,0,0-5.93,6.94Zm12.83-8.64c.89.53,1.58.49,2-.06s-.56-2.6-3.39-1.88a3.19,3.19,0,0,0,1.43,1.94Zm-20,5.57-1.36,2.24c2.95.19,6.75.82,6.75.84s4.46-3.66,2.37-6c-2.34-2.81-7.69,2.93-7.77,3Z"/><path class="cls-6" d="M553.4,806.13c-.31-.11-.91.44-1.36,1.75s-.36,3.83.56,4.09c.75.21,1.46-1,1.4-1.38-.11-.78-1.11-.56-.93-2.55.1-1.14.73-1.78.33-1.91Z"/><path class="cls-6" d="M550.86,808.11c-.67,0-.89,1.33-1.07,2.16a15.7,15.7,0,0,1-1.19,2.88c-.36.72-.46,1.9,0,1.92s.77-.41,1.31-1.29.43-2.16.67-3.58c.17-1,.88-2.09.28-2.09Z"/><path class="cls-6" d="M549,810.17a7,7,0,0,0,.34-1.95c0-.74-.9-.67-1,.38a5,5,0,0,1-1.47,2.62c-.76.57-1.67,1.88-.53,2.12s2.35-2.07,2.62-3.17Z"/><path class="cls-6" d="M631.57,741.39c-.3.13-.4.93.2,2.19s2.4,3,3.24,2.57c.68-.37.36-1.73.06-2-.62-.48-1.21.36-2.44-1.19-.7-.88-.67-1.77-1.06-1.59Z"/><path class="cls-6" d="M631.09,744.56c-.47.47.29,1.59.73,2.3a15.22,15.22,0,0,1,1.15,2.91c.24.75,1,1.67,1.33,1.37s.27-.82,0-1.83-1.19-1.86-2-3.06c-.59-.84-.82-2.12-1.25-1.7Z"/><path class="cls-6" d="M631.22,747.3a6.9,6.9,0,0,0-1.11-1.65c-.51-.54-1.1.13-.42.94a4.68,4.68,0,0,1,.73,2.89c-.17.94.11,2.52,1.08,1.9s.32-3.08-.29-4.08Z"/><path class="cls-6" d="M643.94,709.52c-.25.2-.1,1,.78,2.08s3.07,2.32,3.77,1.67-.07-1.76-.44-1.92c-.72-.32-1.06.65-2.66-.54-.92-.68-1.13-1.56-1.45-1.29Z"/><path class="cls-6" d="M644.29,712.72c-.35.57.67,1.47,1.27,2a15.35,15.35,0,0,1,1.83,2.53c.43.68,1.38,1.39,1.64,1s.06-.87-.41-1.79-1.61-1.5-2.7-2.45c-.77-.67-1.31-1.85-1.63-1.34Z"/><path class="cls-6" d="M645.08,715.34a6.81,6.81,0,0,0-1.48-1.31c-.62-.39-1,.4-.17,1a5,5,0,0,1,1.45,2.63c.08,1,.72,2.42,1.52,1.57s-.52-3.09-1.32-3.89Z"/><path class="cls-6" d="M476.54,807.88c-.2-.26-1-.17-2.09.72s-2.39,3-1.75,3.75,1.77-.06,1.93-.42c.33-.72-.62-1.08.59-2.65.69-.89,1.57-1.07,1.31-1.4Z"/><path class="cls-6" d="M473.33,808.17c-.56-.35-1.48.66-2.07,1.26a14.27,14.27,0,0,1-2.56,1.75c-.68.4-1.41,1.33-1,1.61s.86.09,1.78-.34,1.53-1.59,2.5-2.67c.69-.77,1.89-1.3,1.38-1.62Z"/><path class="cls-6" d="M470.68,808.95a7,7,0,0,0,1.35-1.46c.41-.62-.39-1-1-.19a4.78,4.78,0,0,1-2.64,1.35c-.95.06-2.44.7-1.6,1.5s3.08-.41,3.9-1.2Z"/><path class="cls-6" d="M445.23,795.05c-.13-.3-.93-.4-2.21.18s-3.07,2.37-2.62,3.2c.36.68,1.73.37,2,.07.49-.62-.34-1.2,1.24-2.42.89-.7,1.78-.65,1.62-1Z"/><path class="cls-6" d="M442,794.55c-.46-.48-1.61.28-2.32.71a15.11,15.11,0,0,1-2.9,1.06c-.76.22-1.69.94-1.4,1.31s.81.3,1.81.1,1.86-1.12,3.08-1.94c.86-.57,2.15-.8,1.73-1.23Z"/><path class="cls-6" d="M439.31,794.63a6.67,6.67,0,0,0,1.65-1.06c.54-.49-.1-1.12-.92-.45a4.82,4.82,0,0,1-2.89.67c-.94-.18-2.54.09-1.92,1.06s3.09.35,4.08-.21Z"/><path class="cls-6" d="M388,732.35c.07-.32-.52-.87-1.9-1.15s-3.88.1-4,1c-.11.76,1.19,1.32,1.57,1.22.76-.2.43-1.16,2.42-1.22,1.14,0,1.83.53,1.93.12Z"/><path class="cls-6" d="M385.68,730.07c-.08-.66-1.41-.74-2.25-.82a15.6,15.6,0,0,1-3-.87c-.75-.27-1.93-.24-1.91.22s.48.72,1.41,1.16,2.18.19,3.62.26c1,.05,2.18.63,2.1,0Z"/><path class="cls-6" d="M383.45,728.5a6.66,6.66,0,0,0,2,.12c.73-.07.57-1-.48-.91a4.87,4.87,0,0,1-2.74-1.17c-.66-.69-2.11-1.42-2.18-.28s2.31,2.11,3.44,2.24Z"/><path class="cls-6" d="M378.78,695.55s3.76,1.72,5.67,7.6c1,2.95,1.19,9.09,1.26,9.1a13.91,13.91,0,0,0,7.06,8.12c5.78,2.62,8.32-.28,8.57-3.43s-1.13-7.74-4.57-9.22-5.62,1.66-4.16,3.56c0,0,2.07-1,2.63.76s-2.29,2.46-3.57.17-.72-5.15,1.3-5.93,5.94.55,8.58,4.51,3.12,8.66.5,10.66-9.7,2.92-16.06-6.36a15.67,15.67,0,0,0,5.23,10.85,9.53,9.53,0,0,1,5.5,1.08c2.8,1.5,4.91,3.18,4.12,5.14-.88,2.14-3.72.57-3.23-.61a1.72,1.72,0,0,1,1.1-.91s.65-1.5-2.5-2.57-4.29.57-4.46,1.26.6,3.76,6,5.5c0,0,8.33.66,17.94,1.57,11.36,1.44,25.42,2.73,25.38,2.56l.34.4c0-.11-6.24-.31-18.57-1.41-9.17-.84-18.42-1.31-21.27-1.48s-6.45-.24-6.61.53,1.48,2.21,3.7,3.18a15.55,15.55,0,0,1,7.66,2.34s-.45-1.72-4.61-4.65c.05,0,2.36.17,7,5.15,2.72,3,3,6.32,5.22,9.17a6.74,6.74,0,0,0,3.42,2.22c0-.12,5.58-.51,16.36-1.13s18.1-1.67,18.14-1.65l.41.32s-8.39,1-19.94,2.32-18.5,1.82-20.44,2.11-3.57.6-3.62,1.21,2.51,1.79,5.12,2.46c0-.06,9.35-1.41,20.63-2.3,13-.73,26.06-2.27,26-2.37l.51.32s-11.27,1.67-24.7,2.91c-7.53.87-16.34,2-16.39,2s5.46,1.21,3.93,4.63c.05,0,6.52,1.29,5.63,4.36-.86,3.24-8,2.18-8,2.11a20.08,20.08,0,0,0,6,2.65s11.06-3.53,21.45-7,17.81-5,21.27-6.09l.41.21s-9.94,2.53-20.77,6.37c-8.88,3.33-16.82,6.07-16.83,6.12s7.44.35,6.42,4.17c0,.06,6.67.53,6,3.93-.53,3.13-7.77,3-7.77,2.9s2.54,1.84,8,2.8a22,22,0,0,1,6.43-1.82s-5.41-.61-3.46-4.15c2.57-5,11.84-6.65,26.69-11.55l.67.27s-7.29,2.61-17.75,6.51c-8.92,3.1-7.32,6.84-6.72,7.46a4.33,4.33,0,0,0,3,.93l1.28.66c0,.1-7.6,1-8.55,3.63-.57,1.84,6.76,1.7,6.75,1.61s1.1-1.54,4.19-2.19,4.08,0,4.43,1.12c.42,1.34-1.86,2.88-2.85,1.27-.69-1.14.17-1.52.17-1.53s-1.89-.49-3.46,1.67c-1.93,2.63-1.21,4.64,3.72,3.77a9.82,9.82,0,0,1,4.23-2.93c2.73-1,4.43-.92,5.54.86.78,1.18-2.11,4-3.19,1.71-.65-1.39,1.27-1.76,1.26-1.76s-.94-1.26-3.48.63c-2.11,1.55-2.45,3.11-2.06,4s4.54,1.85,8.62-2a6,6,0,0,1,4.55-1.62,23,23,0,0,0-4,2.84c-2.15,1.86-3.07,2.87-2.87,3.28s2,0,2.88-.45a84.18,84.18,0,0,0,9.55-7.78c3.72-3.36,8.37-7.13,13-10.77,5.61-4.29,10.08-8.74,12.95-10.56l.56,0c-.06-.06-4.73,3.75-12.62,10.71-8.69,7.57-15.25,13.89-18.76,17,.08.06,7.65-3.38,9.78-.83,1.05,1.28.55,3.81-1.47,5.64s-6.66,3-8,1.34a1.52,1.52,0,0,1,.33-2.52,1.78,1.78,0,0,1,2,.12c.81.74-.39,1.62-.4,1.62a3.33,3.33,0,0,0,3.94-.17c1.93-1.29,1.88-4.3,1-4.93s-3.12-1.45-8.7,1a74.75,74.75,0,0,1-11.84,8c-3.82,2.08-8.78,2.92-12.54,1.17l.63-.36s2.1,1.38,5.81.49c3.54-1,5.1-1.66,13.16-7.76,0,0-3.21.95-4,.14s1.47-2.47,1.46-2.47-4.79,1.8-7.19.16c-1.35-1-.64-2.81-.64-2.81s-5.21,1-6.85-.88c-1.33-1.44.37-3.48.37-3.48s-6.46.26-8.2-.72-.29-2.83.17-3.17a23.59,23.59,0,0,1-10-3.09c-4.51-2.76-7.57-6.28-9.78-7.92s-2.81-.86-3.67-1.76a21.29,21.29,0,0,0,4.64-.72c.14.07-10.24-1.91-17.42-14.15a9.59,9.59,0,0,0,3.28-.33c0,.07-5.61-2-6.36-3.5-.41-.86,2-1.47,2.71-1.56,0,.07-5.4-1.85-6.79-4s-.31-3.13.16-3.36c0,0-3.31-1.1-4.64-4s1.36-3.48,1.36-3.49-5.19-2.9-5.77-4.16,1.85-1.44,3.46-1.37c0,0-4.82-2.21-6.63-5.77-1.05-2.11,1.33-2.93,1.32-2.93a23.45,23.45,0,0,1-5.43-8.1,45.22,45.22,0,0,1-10.8-6.35c-3.84-3.4-6.88-7.5-5.43-10.52s4.62-1.53,5.61-.79a4.91,4.91,0,0,1,2.12,5.46c-.71,2.66-3.14,1.33-3.75.88a2.23,2.23,0,0,1-.9-2.62c.49-1.12,2.58-1,2.24,1.52,0,0,1,.44,1.18-1a2.8,2.8,0,0,0-1.74-3.08,2.1,2.1,0,0,0-2.62,1.61c-.34,1-.66,2.7,2,5.74a27.39,27.39,0,0,0,11.74,8,48.15,48.15,0,0,1-1.31-8.32c-.32-4.58-.17-10.21-3.7-11l-.87-2.09Zm52.42,85a36.24,36.24,0,0,0,3.34,2.81c3.49,1.7,7.42-.23,7.71-2s-3.92-2.44-3.95-2.44c-2.06,1.92-7.11,1.67-7.1,1.64ZM425,776.28a28.54,28.54,0,0,1,4.94,3.21c1.81.61,6.51-.39,6.31-2.1-.19-2-5.2-2.82-5.21-2.85a55.85,55.85,0,0,1-6,1.73Zm-9.66-9.66a28.1,28.1,0,0,0,4,3.72c3.36,1.56,6.83-.1,7-1.59.21-1.71-3.73-2.78-3.74-2.8-1.63,2-7.2.7-7.22.67Zm-3.55-4.87a22.29,22.29,0,0,0,2.59,3.69c2.76.87,6.91.06,6.71-1.54s-3.43-2.84-3.41-2.88l-5.89.73Zm-5.46-13.08c-1.2,0-2.55.35-3.05,1.36-.67,1.41,1.1,2.89,3,3.68a17.26,17.26,0,0,0,4.29,1.12l4.59-.45c-3-1.42-5.15-5.21-5.12-5.22a13.61,13.61,0,0,0-3.67-.49Zm.69-5c-2.59-1.74-6.8-2.19-7.94-.41-1.3,2.05,3.22,4.17,3.2,4.15,2.38-1,7.18.93,7.21.88-1.34-2.3-2.44-4.65-2.47-4.63Z"/><path class="cls-6" d="M398.18,749.29c-1.76-3.59-3.49-6.2-4.81-7.13s-4.23-1.66-3.6-.25,2.4.49,2.39.49c2.36,2.15,2.21,4,4.74,8.62a15.6,15.6,0,0,0,4.8,5.33c2.73,2.08,4.39,1.51,4.37,1.54-3.71-1.53-6.22-4.94-7.88-8.6Z"/><path class="cls-6" d="M395.72,750.11a3.39,3.39,0,0,0-2.31-1,9,9,0,0,1-3.32-1c-.7-.39-1.42-.58-1,.12a3.71,3.71,0,0,0,2.33,1.74,17.49,17.49,0,0,1,3.08.22c1,.38,1.41.3,1.26-.08Z"/><path class="cls-6" d="M431.23,567.22c.33,0,.76-.67.74-2.08s-.9-3.76-1.85-3.7c-.77,0-1.05,1.42-.88,1.77.35.7,1.24.18,1.7,2.11.27,1.1-.14,1.88.28,1.89Z"/><path class="cls-6" d="M433,564.54c.62-.23.41-1.56.3-2.4a14.48,14.48,0,0,1,.2-3.11c.11-.78-.17-1.93-.62-1.81s-.62.6-.83,1.62.3,2.19.54,3.63c.17,1-.15,2.28.41,2.07Z"/><path class="cls-6" d="M434,562a7,7,0,0,0,.31,2c.23.7,1.06.34.77-.68a4.68,4.68,0,0,1,.58-2.91c.54-.78,1-2.34-.18-2.18s-1.61,2.64-1.48,3.81Z"/><path class="cls-6" d="M418.5,577.92c.32,0,.65-.77.46-2.17s-1.37-3.64-2.29-3.45c-.76.15-.85,1.56-.63,1.88.44.65,1.24,0,1.95,1.89.4,1.06.1,1.9.53,1.86Z"/><path class="cls-6" d="M419.89,575c.6-.29.23-1.58,0-2.39a15.11,15.11,0,0,1-.17-3.1c0-.79-.41-1.9-.84-1.72s-.52.69-.62,1.71.54,2.13,1,3.51c.28,1,.11,2.26.64,2Z"/><path class="cls-6" d="M420.64,572.39a7,7,0,0,0,.54,1.9c.31.66,1.1.22.7-.75a4.89,4.89,0,0,1,.2-3c.43-.85.64-2.47-.46-2.16s-1.22,2.87-1,4Z"/><path class="cls-6" d="M383,633.72c.27-.18.22-1-.61-2.13s-2.91-2.56-3.65-2,0,1.78.31,2c.7.36,1.11-.57,2.61.74.86.75,1,1.63,1.33,1.39Z"/><path class="cls-6" d="M382.84,630.49c.37-.55-.58-1.52-1.13-2.14a15.08,15.08,0,0,1-1.59-2.65c-.36-.7-1.25-1.48-1.55-1.12s-.14.86.25,1.81,1.46,1.61,2.49,2.65c.73.74,1.2,2,1.53,1.46Z"/><path class="cls-6" d="M382.24,627.82a6.75,6.75,0,0,0,1.36,1.41c.58.44,1.08-.32.27-1a4.78,4.78,0,0,1-1.2-2.71c0-1-.58-2.48-1.41-1.69s.25,3.11,1,4Z"/><path class="cls-6" d="M376.46,666.13c.22-.24,0-1-1.12-1.92s-3.46-1.77-4-1,.41,1.73.79,1.82c.76.19.93-.81,2.71.09,1,.52,1.35,1.34,1.63,1Z"/><path class="cls-6" d="M375.54,663c.22-.62-.89-1.33-1.59-1.8a15.46,15.46,0,0,1-2.2-2.18c-.52-.59-1.58-1.13-1.78-.71s.08.86.68,1.69,1.83,1.21,3.05,2c.85.53,1.64,1.6,1.83,1Z"/><path class="cls-6" d="M374.33,660.59a6.6,6.6,0,0,0,1.67,1c.67.29,1-.57,0-1a4.87,4.87,0,0,1-1.83-2.34c-.25-.92-1.17-2.26-1.78-1.29s1,2.95,1.94,3.61Z"/><path class="cls-6" d="M400.56,610.33c.45,1.13,4.44,10.4,10.32,24.49s10.51,22.54,10.4,22.62l-.13.62c.08,0-4.06-7.78-9.05-18.69-6.59-15.11-9.28-20.79-9.51-20.61.19,6.47-3.55,5.08-3.58,5.11s1.69,6.62-2.15,6.91c-4,.4-4.84-7.08-4.74-7.11-2.18,6-1.29,9-1.3,9a9.1,9.1,0,0,1,2.6,3.79c.9-6.15,5.4-4,10,2.75,4.45,7,9.73,19.37,9.94,19.24l-.14.77c-1.49-3.2-2.85-5.6-6.87-13.23s-8.13-11.47-10.55-10.48-.64,5.11-.6,5.09l-.23.81c-1-2.9-3.61-6.63-5.56-6.88-1.21-.14-1.7,1.09-1.48,2.66.3,2,.73,4.09.71,4.08,2.12.72,5.44,5,4.14,7.75-1.15,2.38-3.6-.24-2.73-1.39.75-1,2,.22,2,.22,1-2.6-4.7-5.33-6-4-1.45,1.63.7,4.72.69,4.7,4.1,1.92,5.39,6.61,4.52,8.57s-3.73.65-3-1,2.09-.08,2.09-.08c.42-2.4-.82-3.48-2.67-4.48-1.52-.82-2.95-1.55-3.42.05-1.12,3.62,4.8,8.37,4.85,8.32,2,2.57,1.58,3.74,1.58,3.75-.49-1.24-2.47-2.81-3.8-3.92s-3.22-2.91-3.53-2.32c-.78,1.51,1.76,5.12,1.77,5.1,4.95,4.33,11.18,9,18.16,15.23s14.23,13,14.21,13l.09.6s-7.07-6.45-14.27-12.54c-7.35-5.87-15.5-12.18-15.48-12.18,2.12,3.13,2.18,5.19,1.59,6.14s-2.72,2.67-6.39-.29-3.07-6.35-2-7.55,2.47,1.36,1.82,2.18-1.58,0-1.58,0c-1.19,3.37,4.3,5.8,6.29,4,1.83-1.53-1.72-6.2-1.74-6.25a59.13,59.13,0,0,1-9.8-9c-7.5-10-4.6-14.9-4.69-14.77l.42.76c-1.42,4.56,1.89,9.7,5.33,13.48a58.28,58.28,0,0,0,6.48,6c-1.32-2.18-2.29-5.72-1.72-6.61s2.33.59,2.33.58c-.78-1.45-2-5.29-1.18-6.64a2,2,0,0,1,2.44-.71c-.62-.95-2.19-5.19-.76-6.56a2.9,2.9,0,0,1,3.21-.42s-.49-2-.78-4a7.74,7.74,0,0,1,0-3.95,2.11,2.11,0,0,1,3.22-1c-2.24-8.76,5.62-18.93,7.94-22.55,1.64-2.92,1.57-3.5,1.54-3.51.56,1,.39,3,.73,4.26Zm-4.8,6.26a38.63,38.63,0,0,0-2.9,5.4s.44,6.8,4.31,6.52c2.32-.12,1-5,1-5.06s-2.64-.95-2.47-6.85Zm5.55-1a21.77,21.77,0,0,1-2-4.9,17.1,17.1,0,0,1-2.86,4.74s.34,6.81,3.91,6.06c2.07-.37.9-5.9,1-5.91Z"/><path class="cls-6" d="M488.68,534.61c3.81,2.18-.57,8.32-4.63,7-4.47-1.19-1-5.29,1.19-4.5s0,3.13-1.78,2.65a3.41,3.41,0,0,0,1.16.68,2.81,2.81,0,0,0,3.27-1c1.56-2-2-4.62-5.84-2.39s-6.26,4.32-10.4,13.75c0-.08,8-1.32,8.16-4.55l1.46-.94s-.18,2-3,4.15a18.13,18.13,0,0,1-5.56,3c.07,0-1.76,2.3-3.87,11-1.2,5.16-3.53,11.88-5.43,19-2.11,7.14-5.09,16.34-5,16.37l-.48.35s2-7,4.37-16.36,4.44-15.63,6.1-22.56c0,0-1.62,2.83-3.89,3.36-1.91.52-2.69-1.68-2.69-1.68s-1.5,4.22-4.45,5.77c0,0,.85,2.67-1.42,6.05-2.12,3.23-7.3,8.18-11.63,6.09-4-1.9-3.91-10.12,1.74-16.36,0-.07-6.93,2.35-7.86,7.74a7.45,7.45,0,0,1,.74,4.13c-.26,2.64-1.58,4.72-3.28,5.13-1.93.48-2.51-2.88-.55-3.13,1.5-.18.84,1.79.85,1.78a3.32,3.32,0,0,0,1.95-3.54c-.36-2.46-2.38-4.11-3.39-4s-2.36,3.23-2.86,5.54c-.66,3.12.55,6.12.85,8.6s.88,5.61,1.11,17.34c.38,11.66,1.4,20.29,1.64,23.22l-.55.87c.26-.12-.61-4-1.87-19.91-.73-16.26-2.13-25.27-2.8-27.24-.43-2-.76-4.12-1.29-4s-2.34,3.22-3.28,7.82c.07,0,1.21,6.18,2.5,16.11s1.86,20.8,1.88,20.75l-.3.44c-.15.12-1.59-13.34-2.62-21.16-1.3-7.68-1.95-11.36-2-11.31s-1.41,5.18-4.16,4.67-2.82-4.93-1.92-8.64a8.92,8.92,0,0,0-3.07,5,62.8,62.8,0,0,1,4.23,13.73c1.64,8.32,3.3,16.28,3.49,20l-.3.52c.06-.06-.38-3.63-3-13.6-2.38-10.13-3-11.82-3.05-11.76s-1.21,3.14-3.48,1.22-5-4.65-5.42-2l-.26,2s1.88.67,2.53,4.5-2.52,8-3.69,4.83c-.68-2,1.39-3.23,1.88-.65a3.87,3.87,0,0,0,.69-4c-1-2.34-3.07-3.22-3.72-2.92-1,.4-1.61,3.17-.94,7,.56,3.34,2.28,4.69,1.16,6.87,0,0-.07-1.17-2.26-4.5s-6.34-10.59-6.59-16.85c-.51-6.27,2.81-16.73,6-18l-.05,1.42c.08,0-3.8,2.25-4.74,9.91-.59,5.37-.51,9,5.5,20.38-.05,0-1.07-6.74,1.18-8.61,1.11-.94,2.65.51,2.65.51s.34-5,1.19-5.74c1.13-1,5.53,5.12,7,4.64.47-.16.82-1.67.83-1.66s-1.45-6.08-3.09-6c-1.43.12-2.2,3.79-2.16,3.8a10.09,10.09,0,0,1,.16-3.06,5.88,5.88,0,0,1,1.85-3.44c1.07-1,2,1.14,2,1.14a11.49,11.49,0,0,1,4-7.79c3.9-3.2,4.7-3.82,5.36-5.32a12.7,12.7,0,0,0-.16,3.38c.21,1.28.48,2.67.47,2.66s1.53-6.76,4.26-9.33c.78-.74,1.47,3.67,1.48,3.66s.86-5.92,4.37-7.86c1.07-.61,2.33,1.42,2.34,1.42a14.58,14.58,0,0,1,6.69-7.74,36.68,36.68,0,0,1,3.89-11.26c3.2-6,6.91-8.89,10.07-8.3s1.92,4.18,1.42,5.34c-.71,1.49-3.15,3.51-5.35,3.22s-2.09-2.42-1.23-4c1.21-2.22,4.21-1.91,3.62,0-.45,1.54-2.46,1.49-2.8.94,0,0-.55,2,2,1.55a3.48,3.48,0,0,0,3-2.7c.28-.93-.52-2.21-2.21-2.45-2-.23-4.83,1.53-7.59,6.54a38.31,38.31,0,0,0-4.07,10.58,54.12,54.12,0,0,1,6.14-2.33c2.75-.85,5.27-1.42,5-3.48l1.41-1.92s.84,1.67-1.83,4.48c-2.87,3.21-7.3,3.67-7.3,3.73a13.37,13.37,0,0,0-5.56,8.76c-.76,5.66,3.38,8.29,7.82,5.8s6.51-5.6,5.66-8.87a5.67,5.67,0,0,1-3.39.72,2,2,0,0,1-1.71-2.85c.52-1.65,4.95-2.37,5.84.83a9,9,0,0,0,3.63-4.56c1.49-3.57,1.4-4.84,2.56-6.86a14.61,14.61,0,0,0-7.48,6.64c0,.09-.2-5.25,10.42-10.06,0,0,1.22-3.94,2.74-7.65s6.74-8.87,10.32-7.52c-.07,0,5.32-4.62,9.3-2.39Zm-34.47,31.55c-1-.2-2-.05-2.09.55-.07.35.65,1.1,1.69,1.18a4.17,4.17,0,0,0,2.22-.36,2.41,2.41,0,0,0-1.82-1.38Zm-30.68,14.65c-1.84,1.75-3.62,3.21-3.62,3.21-.41,1.14-1.39,5.42,1.08,6.78s3.53-3.84,3.59-3.82l-1.06-6.17Zm47.34-27.66s-1.64.49-2.84.72a18.87,18.87,0,0,0-3,.94s-2.89,3.84-1,5.81c2.19,2.43,4.86-1.92,4.89-1.92a47.75,47.75,0,0,1,2-5.53Zm-.4-2c4.18-9.67,6.77-11.89,6.68-11.87-2.38-.89-5.69,2.4-7.1,5.24a49.44,49.44,0,0,0-2.71,7.45c1-.35,3.13-.81,3.13-.81Z"/><path class="cls-6" d="M476.46,556.56a1.43,1.43,0,0,0-1.1,1.71,1.3,1.3,0,0,0,1.64.87,1.46,1.46,0,0,0,.93-1.63,1.18,1.18,0,0,0-1.48-.95Z"/><path class="cls-6" d="M511.55,540.63c.26.18,1-.11,1.82-1.24s1.49-3.55.69-4.07-1.69.51-1.75.89c-.13.77.89.89.13,2.71-.43,1-1.23,1.46-.89,1.71Z"/><path class="cls-6" d="M514.56,539.53c.64.19,1.25-1,1.67-1.74a15.61,15.61,0,0,1,2-2.4c.55-.58,1-1.68.57-1.84s-.85.16-1.62.85-1.06,1.93-1.71,3.23c-.46.91-1.47,1.73-.9,1.9Z"/><path class="cls-6" d="M516.9,538.11a7,7,0,0,0-.91,1.76c-.23.7.64.91,1-.08a4.94,4.94,0,0,1,2.18-2.05c.9-.3,2.15-1.3,1.14-1.85s-2.86,1.25-3.44,2.23Z"/><path class="cls-6" d="M642.11,637.1c-.12.31.38.94,1.71,1.4s3.84.42,4.11-.5c.21-.75-1-1.47-1.37-1.42-.78.1-.59,1.1-2.56.89-1.12-.12-1.72-.77-1.88-.37Z"/><path class="cls-6" d="M644,639.68c0,.66,1.33.91,2.16,1.09a14,14,0,0,1,2.86,1.24c.69.36,1.87.49,1.91,0s-.36-.79-1.24-1.33-2.17-.46-3.6-.71c-1-.18-2.09-.91-2.09-.31Z"/><path class="cls-6" d="M646.1,641.51a7,7,0,0,0-2-.37c-.74,0-.68.88.38,1a4.72,4.72,0,0,1,2.54,1.52c.55.77,1.88,1.69,2.12.57s-1.95-2.41-3.08-2.68Z"/><path class="cls-6" d="M554.21,561.16c-4-.07-3.3-2.54-2.33-3.19s1.55-.47,2,0,.69,1.84-.85,2c0,0,1.95,1.25,4.46-1,1.33-1.22,2.56-3.7,1.3-4.65-1.06-.86-4,0-7,1.44,0,0-3.52,3.64-6.52,3.26a17.6,17.6,0,0,0,4.08-2.9c1.92-1.84,2.59-3,2.42-3.57s-3.88-.19-6.77.51a15.53,15.53,0,0,1-4,2.61s3.25,1.37,5.74.43c0,0-4,2.45-11.26.34s-9.22-1.39-10.88-.81c0,0-6.2,6.86-12.44,13.77-6.55,6.78-15.15,15.08-15,15.14l-.71.13c0-.08,6.64-6.48,14.54-15.42,7.74-9,15.75-18.44,16.55-19.31s2.05-2.68,1.7-2.9-2.7.38-5,1.76c0,0-6.73,7.54-11.89,13.25-5.48,5.59-14.62,12.89-14.5,13l-.79.1c-.06,0,8-7,14.07-13.34a77.19,77.19,0,0,0,7.1-8.91c-.06,0-5.73,3.28-6.58-1.49-.08,0-6.19,5.05-7.93,1.93s4.66-7.54,4.73-7.46-3.21-1-12.1,3.75c0,.08,4.92-5.53,15.76-5.72,8.74.07,8.4,1.82,13.52,1.15a30.17,30.17,0,0,1,10.24-8c6.43-3,9.7-3.13,11.09-2.06l-1.31.59c0,.07-2.18-1.72-8,1.66s-12.07,10.15-12,10.09,5-2.73,7-1.56c.87.56-1.48,2.82-1.47,2.85s5-2.43,7.31-1.81a1.61,1.61,0,0,1,1.27,2.07s4.87-1.17,6.87,0-.29,3.19-.28,3.2l4.95-.83c-.09,0,7.83-6.06,12.29-6.85,4.37-1,10.25-1,10.66,3.2s-6.43,5-8,1.88c-2-3.78,4-4.79,4.5-2.77.46,1.81-2.45,2-3.19.74,0,0-.67.6.3,1.86a2.62,2.62,0,0,0,2.93.95,2.14,2.14,0,0,0,1.18-3.06c-1.36-3.25-6.69-2.33-8.44-1.7A30.07,30.07,0,0,0,552.79,551s2-.29,2.53.36c.37.49-1.82,2.53-1.81,2.53s6.11-2.67,8.19.11-3.58,7.37-7.49,7.15Zm-38.46-15c-2.15-.1-5.78-.49-5.78-.45s-5.41,3-3.95,5.53,5.64-.9,5.68-.9c.52-2.29,4-4.17,4-4.18Zm8.35,0c-2.35.5-7,.07-7,.13s-4.17,2.7-2.93,4.71c1.58,2.72,5.8-.42,5.84-.36q2-2.25,4.11-4.49Zm12.93,2.6c-1.55-2.43-7.79,1.73-7.74,1.81l-3.35,3.7c2.73-1.13,7.41-.59,7.39-.53s5-2.85,3.69-5Zm3,6.62c1.6-.89,5.25-3.52,4.27-5.24s-4.95-.07-4.93-.06c-.67,1.77-4.83,3.87-4.81,3.88,1.5.56,5.47,1.41,5.47,1.43Z"/><path class="cls-6" d="M565.76,569.43c-2-3.76-6.52-.89-5.62.81s2.78.36,2.52-.4a1,1,0,0,0-1-.71c1.77-2.22,4.73,2.68,1.49,3.88-2.9,1.12-7.69-2.71-5.87-6.25,1.83-3.7,11.59-3.66,11.61-3.53l.89-.66c-1.28.07-6,.42-6.41-1.24s2.88-5.22,8.36-7c11.1-3.42,15.47-1.69,15.42-1.82l1-.27c-1.55-1.43-14.24-.46-20.6,2.65a12.81,12.81,0,0,0-5.71,4.4c-2.41,3.51.73,3.85.73,3.85-3.48.5-10.75,3.67-7.17,8.33a6.76,6.76,0,0,0,7.36,2.44c2.35-.78,4-2.64,3-4.49Z"/><path class="cls-6" d="M607.61,617.25A90.54,90.54,0,0,1,592,615.33l-.42-.54s5,1.41,14.92,1.51c10.36.19,16.69-.5,17.73-.79s3-.36,3-1.12c-.05-.55-3.25-2.28-5.6-3a73.68,73.68,0,0,1-14.78-.53c-7.45-1.08-11.76-1.78-15.6-2.87l-.4-.46a99.28,99.28,0,0,0,15.49,2.32,86.44,86.44,0,0,0,9.33.14s-3.32-2.57-.56-4.64,5.54-3,3.13-4.56a20.48,20.48,0,0,0-4.1-2.13s-8.87,1.19-18.67,1.82c-9.89.47-21.38,1.1-27.32,1.09l-.63-.45s7.85-.13,19.51-1,21.64-2,21.61-2.09-6.3-2.57-5.17-5.7,8-1.13,8-1.06a13.74,13.74,0,0,0-6.4-3.84,35.35,35.35,0,0,1-5.2,1.22c-1.78.15-3.53-.77-5.06-1.75a16.62,16.62,0,0,0,5.5,0c2.21-.6,5.28-1.2,5-2.14s-4.87-2.19-4.85-2.19-7.68,2.26-13,3.85-10.62,3-14.76,4-8.86,2.1-8.81,2.06l-.6-.39c-.05,0,6.44-1.47,11.44-2.89,4.91-1.67,15-5.13,20-6.62,0-.09-7.48-.88-6.75-4.51a17.74,17.74,0,0,1-8.82-4c-4.47-3.73-9.4-6.66-13.76-7.23a17.72,17.72,0,0,0,4-1.07c3-1.24,5.65-2.23,6.21-3.34.67-1.36-4.21-1.33-4.19-1.31l.52-.59c0-.06,5.63-.29,6.54,1.52.35.67-2.37,1.93-2.37,1.94a10.76,10.76,0,0,1,4.3-.28c-.1-.08,11.38-3.28,16.32-2.39s8.72,2.26,8.73,5.73c0,2.87-3.24,3.19-4.13,3.16a4.87,4.87,0,0,1-4.51-3.64c-.63-2.57,4.09-3.49,4.64-1,.37,1.81-2.31,1.67-2.72.76,0,0-.52.49.38,1.71,1.29,1.72,4.07,1.51,3.75-1.57-.39-2.74-5.57-4.1-7.33-4.19s-6.39-.32-13.17,2.08c0,0,3,.66,1.39,3,0-.09,6.68-.32,6.65,3.2-.07,2.32-3.4,2.88-4.31,3l-4.39.53s3.13,3.64,6.5,3.21c0,0,1.07-2.5,5.59-2.88,2.71-.26,5.52,1.22,5.93,2.76.2.8.27,2.08-1.3,2.36a1.37,1.37,0,1,1-.39-2.66,4.06,4.06,0,0,0-3.88-1.52,3.65,3.65,0,0,0-3.09,3.77c.16,1.26,1.72,2.43,5.93,2.57,0-.07,7.35-1.69,11.45-2.21s12.49.14,16.44,4.27l-.63.15c0,.05-2.05-2.66-9-3.36-6-.62-13.62,1.67-13.61,1.69s6.79,1.82,7.23,3.54c.23.84-2.62,1.23-2.61,1.24a15,15,0,0,1,8.23,5c3.26,4.18,4.31,6,5.17,6.62a8.15,8.15,0,0,0-3.22-.1s5,2.38,5.63,3.7c.45,1-1.16,1.86-1.16,1.86s4.75,1.91,5.49,5.27c.38,1.71-2.86,1.81-2.85,1.82s6.45,3,6.56,4.54-4,1.19-4,1.21,7.84,3.28,7.49,7c-.35,3.49-8.48-.07-8.45,0s.2,2.39,3.85,4.86a8.43,8.43,0,0,1-5-3.73c-2.24-3.34-1.36-3.9-4.59-7.8a85.66,85.66,0,0,1-11.75-.07Zm-26.73-51.71c-2.34-2.69-11.42,1.4-11.35,1.5,2.86.39,6.35,2.65,6.36,2.62,1.79-.12,6.86-1.87,5-4.12Zm6.68,4.31c-.78-2.25-4.82-1.63-4.81-1.59-1.59,1.68-5.91,2-5.9,2,1.46,1,3.92,3.07,3.92,3.07,2.89,0,7.55-1.32,6.79-3.52Zm28.36,27.33a26.86,26.86,0,0,0-3.26-4.57s-5-2.39-6.6.48c-1.59,2.73,4.31,4.56,4.29,4.64l5.58-.56Zm7.74,10.61c-.59-2.18-3.8-3-3.79-3a18.52,18.52,0,0,0-3.17,2c-2.78,1.93.58,3.17.59,3.18s7,.25,6.38-2.15Zm5.72,12c-3.52-2.84-8.4-2.45-8.41-2.44a11.61,11.61,0,0,1,3.81,5.55c1.9.85,5.3.84,6.26-.19.48-.52-.26-1.73-1.67-2.92Z"/><path class="cls-6" d="M605.64,576.12a27.2,27.2,0,0,0,5.22-.36c1.2-.23.2-1.19-1.22-1.28s-2.63.59-3.91.7-1.91-.25-1.85.26.77.56,1.76.69Z"/><path class="cls-6" d="M619,584.29c-1.39-.22-2.68.33-4,.32s-1.88-.43-1.86.08.71.63,1.68.86a27.68,27.68,0,0,0,5.23.13c1.22-.12.31-1.17-1.09-1.39Z"/><path class="cls-6" d="M638.82,621a32.17,32.17,0,0,0,5,1.77c1.18.27.67-1-.59-1.69s-2.68-.5-3.92-.91-1.68-1-1.82-.5.51.82,1.38,1.33Z"/><path class="cls-6" d="M636.17,623.55c1.68,5.58,5.21,3.93,5.22,3.93-1.4,0-2.93-1.87-3.88-5.37-.65-2.4-2.44-6.62-4.52-8.24a7.26,7.26,0,0,0-4.4-1.81c5.16,1.71,6,6.7,7.58,11.48Z"/><path class="cls-6" d="M654.67,672.5c1.12-1.92-3.28-6.26-5-2.15-1.12,2.57,0,4.53,1.78,6s3.82,2.11,5.2.21c2.85-4.14-1.46-10.12-4.9-14a56.87,56.87,0,0,0-8.55-7.61c-1.05-6.81-6.45-12.65-6.45-12.59s4-.15,2.56-3.58c-1.61-3.75-6.19-6.25-6.14-6.24s5.87,1,3.34-2.24c-3-3.67-5.37-4.25-5.38-4.25s3.95,3,3.66,4-2.28.91-4.22.74-5.7-.5-18.7-2.44c-12.78-1.79-22.38-3.7-22.35-3.74l.37.58c7.89,1.65,13.09,2.21,20.83,3.84,7.57,1.61,19.91,3.18,19.94,3.25a14.11,14.11,0,0,1,5.82,4.15c1.79,2.4-.18,4.55-3.51,3.84a4.18,4.18,0,0,1-3.45-3.83c.55,1.08,2.59.55,1.92-1.24s-4.5-1.48-2.58,2.73c1.66,3.63,7,4.41,7,4.41,6.54,7.57,5.38,15.09,5.37,15-3.72-8.76-12.29-12.51-15.09-7.75a13.45,13.45,0,0,0-1.51,9.11,12.81,12.81,0,0,0,2.51,6.31c3.39,5.79,10.9,5.72,9.69-.17-1.39-5.78-6.58-4.37-5.89-1.38s2.85,1.74,2.79.65-1.34-1.29-1.34-1.29a1.2,1.2,0,0,1,1.36-.87c3.05,1.21,2.41,5.79-.07,6.16s-7.11-3.65-7.27-8.36c-.16-5.27,1.23-11.22,6.4-10.25,5.35,1,8.43,10.46,8.34,10.48-.93,4.33-1.07,6.46.39,10.31a11.66,11.66,0,0,0,4.42,5.78l-.81-2.51c-3.8-2.14-3.14-5.52-2.45-9a48.51,48.51,0,0,0,.61-8.26c4.13,2.81,5.56,4.1,9.29,9s2.93,7.92,2.3,9-2.35,1.94-3.37.79a3.38,3.38,0,0,1-.78-3.43,1.91,1.91,0,0,1,1.6-1.35c-.88,1.94,1.33,3.81,2.28,2.2Z"/><g class="cls-7"><line class="cls-8" x1="342.31" y1="749.11" x2="342.31" y2="970.54"/><line class="cls-8" x1="370.24" y1="724.44" x2="370.24" y2="961.03"/><line class="cls-8" x1="395.23" y1="700.36" x2="395.23" y2="974.09"/><line class="cls-8" x1="420.22" y1="671.94" x2="420.22" y2="964.63"/><line class="cls-8" x1="445.63" y1="649.36" x2="445.63" y2="959.43"/><line class="cls-8" x1="477.57" y1="629.57" x2="477.57" y2="972.54"/><line class="cls-8" x1="682.04" y1="748.11" x2="682.04" y2="969.54"/><line class="cls-8" x1="654.12" y1="723.44" x2="654.12" y2="960.03"/><line class="cls-8" x1="629.12" y1="697.36" x2="629.12" y2="971.09"/><line class="cls-8" x1="605.14" y1="674.41" x2="605.14" y2="967.09"/><line class="cls-8" x1="579.73" y1="649.36" x2="579.73" y2="959.43"/><line class="cls-8" x1="548.79" y1="629.57" x2="548.79" y2="972.54"/><line class="cls-9" x1="342.31" y1="749.11" x2="342.31" y2="970.54"/><line class="cls-9" x1="370.24" y1="724.44" x2="370.24" y2="961.03"/><line class="cls-9" x1="395.23" y1="700.36" x2="395.23" y2="974.09"/><line class="cls-9" x1="420.22" y1="671.94" x2="420.22" y2="964.63"/><line class="cls-9" x1="445.63" y1="649.36" x2="445.63" y2="959.43"/><line class="cls-9" x1="477.57" y1="629.57" x2="477.57" y2="972.54"/><line class="cls-9" x1="682.04" y1="748.11" x2="682.04" y2="969.54"/><line class="cls-9" x1="654.12" y1="723.44" x2="654.12" y2="960.03"/><line class="cls-9" x1="629.12" y1="697.36" x2="629.12" y2="971.09"/><line class="cls-9" x1="605.14" y1="674.41" x2="605.14" y2="967.09"/><line class="cls-9" x1="579.73" y1="649.36" x2="579.73" y2="959.43"/><line class="cls-9" x1="548.79" y1="629.57" x2="548.79" y2="972.54"/><path class="cls-10" d="M818.41,790.76q-5.08,0-10-.17"/><path class="cls-11" d="M791.79,789.51C632.59,774.08,612,621.37,512.11,621.37h-.21c-101.64,0-121.17,158-288,168.81"/><path class="cls-10" d="M215.59,790.59q-4.92.17-10,.17"/><path class="cls-12" d="M818.41,791.76q-3,0-6-.06"/><path class="cls-13" d="M788.28,790.14c-156-17.32-177-167.78-276.17-167.78h-.21c-101.69,0-121.19,158.14-288.22,168.83"/><path class="cls-12" d="M211.59,791.7q-3,.06-6,.06"/><path d="M512.62,747.81V969.93h-1.56L499.19,785.2l-17.83,179,10.07-240.1c.6.57,1.21,1.17,1.82,1.79,3.6,3.7,7.16,9.1,10.57,16A9.85,9.85,0,0,0,512.62,747.81Z"/><path d="M533.8,724.09l10.23,244L525.82,785.2,514,969.93h-1.34V747.81a9.85,9.85,0,0,0,8.8-5.89c3.41-6.95,7-12.35,10.57-16,.6-.62,1.2-1.21,1.8-1.78Z"/><path class="cls-14" d="M512.44,678.45a.69.69,0,0,1,.18,0,.6.6,0,0,1,.17,0c.29,0,7.54.66,12.7-15,3.16-9.63,5.68-25.52,7.26-37.46-3.64,4.48-11.2,12.16-20.13,12.16s-16.49-7.68-20.13-12.16c1.58,11.94,4.1,27.84,7.26,37.46C505,679.31,512.38,678.46,512.44,678.45Zm-1.21,65.94a6.72,6.72,0,0,0,3.07-.07V702.76h-3.07Zm.25-108.88a1.3,1.3,0,0,0,2.28,0s.23-.27.56-.68c8.53-1.09,15.7-10,17.85-12.95-2.16-3-9.34-11.87-17.86-13-.33-.41-.54-.65-.55-.68a1.36,1.36,0,0,0-1.14-.68,1.34,1.34,0,0,0-1.14.68s-.23.27-.55.68c-8.52,1.09-15.7,10-17.86,13,2.16,2.94,9.34,11.86,17.85,12.95C511.24,635.24,511.46,635.48,511.47,635.51ZM544,968.09l-10.23-244h0c-.6.57-1.21,1.16-1.8,1.78-3.6,3.7-7.16,9.1-10.57,16a9.52,9.52,0,0,1-17.6,0c-3.41-6.95-7-12.35-10.57-16-.6-.62-1.21-1.22-1.82-1.79l-10.07,240.1-.24,5.74h63Zm6.84-254.19a1.66,1.66,0,0,1-.47,1.17,1.28,1.28,0,0,1-1.09.39s-4.86-.43-12.8,6.1L547,971.46a1.67,1.67,0,0,1-.39,1.15,1.34,1.34,0,0,1-1,.48H479.67a1.31,1.31,0,0,1-1-.48,1.71,1.71,0,0,1-.39-1.15l10.43-249.89c-7.94-6.53-12.75-6.1-12.81-6.1a1.31,1.31,0,0,1-1.08-.4,1.7,1.7,0,0,1-.46-1.17V658.73a1.51,1.51,0,0,1,1.25-1.57,1.44,1.44,0,0,1,1.5,1.27l5,29.31,5.67-1.71V610.19a1.51,1.51,0,0,1,1.32-1.58,1.47,1.47,0,0,1,1.46,1.41c0,.11.35,3.62,1,8.91,3.18-4.16,11.28-13.28,21-13.28s17.83,9.12,21,13.28c.64-5.29,1-8.8,1-8.91a1.46,1.46,0,0,1,1.46-1.41,1.51,1.51,0,0,1,1.32,1.58V686l5.67,1.71,5-29.31a1.44,1.44,0,0,1,1.5-1.27,1.51,1.51,0,0,1,1.25,1.57Zm-2.78-1.54v-9.6H546.4v9.89A15.36,15.36,0,0,1,548.09,712.36Zm0-12.76V675.13L545.53,690a1.62,1.62,0,0,1-.63,1,1.26,1.26,0,0,1-1.1.18l-8.15-2.46a1.56,1.56,0,0,1-1-1.53V632.94c-1.58,10.87-3.8,23.3-6.51,31.57-5.61,17.1-14.12,17.19-15.48,17.1-1.36.09-9.87,0-15.48-17.1-2.72-8.27-4.93-20.7-6.51-31.58v54.31a1.56,1.56,0,0,1-1,1.53l-8.15,2.46a1.26,1.26,0,0,1-1.1-.18,1.62,1.62,0,0,1-.63-1l-2.55-14.88V699.6h2v-3.95a1.41,1.41,0,1,1,2.79,0v3.95H485v-3.95a1.41,1.41,0,1,1,2.79,0v3.95h3.07v-3.95a1.41,1.41,0,1,1,2.79,0v3.95h3.07v-3.95a1.41,1.41,0,1,1,2.79,0v3.95h3.07v-3.95a1.4,1.4,0,1,1,2.78,0v3.95h3.08v-3.95a1.4,1.4,0,1,1,2.78,0v3.95h3.08v-3.95a1.4,1.4,0,1,1,2.78,0v3.95h3.07v-3.95a1.41,1.41,0,1,1,2.79,0v3.95H526v-3.95a1.41,1.41,0,1,1,2.79,0v3.95h3.07v-3.95a1.41,1.41,0,1,1,2.79,0v3.95h3.07v-3.95a1.41,1.41,0,1,1,2.79,0v3.95h3.07v-3.95a1.41,1.41,0,1,1,2.79,0v3.95Zm-4.47,14V702.76h-3.07v12.31A25.81,25.81,0,0,1,543.61,713.57Zm-5.86,3.26V702.76h-3.07v16.42C535.75,718.28,536.78,717.5,537.75,716.83Zm-5.86,4.83v-18.9h-3.07v22.06c.43-.49.86-1,1.29-1.4C530.71,722.8,531.31,722.22,531.89,721.66ZM526,728.31V702.76H523V733C524,731.29,525,729.74,526,728.31Zm-5.84,9.59a1.39,1.39,0,0,1,0-.26V702.76h-3.07v40a8.07,8.07,0,0,0,1.89-2.53C519.38,739.46,519.77,738.67,520.18,737.9Zm-11.74,5.16V702.76h-3.08V738.5c.3.58.6,1.17.89,1.77A8.08,8.08,0,0,0,508.44,743.05Zm-5.86-9.6V702.76H499.5v26Q501.05,730.89,502.58,733.45Zm-5.86-8.29v-22.4h-3.07v19.18c.48.47,1,1,1.48,1.48S496.18,724.55,496.72,725.16Zm-5.86-5.74V702.76h-3.07V717Q489.24,718.07,490.85,719.42ZM485,715.23V702.76h-3.07v10.93A28.14,28.14,0,0,1,485,715.23Zm-5.86-2.5v-10h-2v9.6A13.84,13.84,0,0,1,479.13,712.73Z"/><path d="M548.09,702.76v9.6a15.36,15.36,0,0,0-1.68.3v-9.89Z"/><path d="M543.61,702.76v10.81a25.81,25.81,0,0,0-3.07,1.5V702.76Z"/><path d="M537.75,702.76v14.07c-1,.68-2,1.46-3.07,2.35V702.76Z"/><path d="M531.89,702.76v18.9c-.58.55-1.17,1.14-1.78,1.76-.43.44-.87.91-1.29,1.4V702.76Z"/><path d="M526,702.76v25.55c-1,1.42-2.06,3-3.07,4.65v-30.2Z"/><path d="M532.17,621.88c-2.15,2.94-9.32,11.86-17.85,12.95,1.7-2.06,6.59-8.32,6.59-13s-4.9-10.9-6.6-12.95C522.83,610,530,618.93,532.17,621.88Z"/><path d="M520.16,737.64a1.39,1.39,0,0,0,0,.26c-.41.77-.8,1.56-1.21,2.37a8.07,8.07,0,0,1-1.89,2.53v-40h3.07Z"/><path class="cls-14" d="M514.31,608.92c1.7,2.05,6.6,8.32,6.6,12.95s-4.89,10.9-6.59,13a13,13,0,0,1-3.41,0c-1.7-2.06-6.6-8.32-6.6-13s4.91-10.9,6.6-12.95a12.84,12.84,0,0,1,3.39,0Z"/><path d="M514.3,702.76v41.56a6.72,6.72,0,0,1-3.07.07V702.76Z"/><path class="cls-14" d="M513.76,608.24s.23.27.55.68a12.84,12.84,0,0,0-3.39,0c.33-.41.54-.65.55-.68a1.34,1.34,0,0,1,1.14-.68A1.36,1.36,0,0,1,513.76,608.24Z"/><path class="cls-14" d="M514.32,634.83c-.34.41-.55.65-.56.68a1.3,1.3,0,0,1-2.28,0s-.23-.27-.56-.68a13,13,0,0,0,3.41,0Z"/><path d="M508.44,702.76v40.29a8.08,8.08,0,0,1-2.19-2.78c-.3-.6-.6-1.19-.89-1.77V702.76Z"/><path d="M510.92,608.92c-1.7,2.05-6.6,8.32-6.6,12.95s4.9,10.9,6.6,13c-8.51-1.09-15.69-10-17.85-12.95C495.22,618.93,502.4,610,510.92,608.92Z"/><path d="M502.58,702.76v30.69q-1.52-2.56-3.08-4.73v-26Z"/><path d="M490.85,702.76v16.66q-1.62-1.35-3.07-2.39V702.76Z"/><path d="M485,702.76v12.47a28.14,28.14,0,0,0-3.07-1.54V702.76Z"/><path d="M479.13,702.76v10a13.84,13.84,0,0,0-2-.38v-9.6Z"/><path class="cls-15" d="M545.55,973.09H479.67a1.31,1.31,0,0,1-1-.48,1.71,1.71,0,0,1-.39-1.15l10.43-249.89c-7.94-6.53-12.75-6.1-12.81-6.1a1.31,1.31,0,0,1-1.08-.4,1.7,1.7,0,0,1-.46-1.17V658.73a1.51,1.51,0,0,1,1.25-1.57,1.44,1.44,0,0,1,1.5,1.27l5,29.31,5.67-1.71V610.19a1.51,1.51,0,0,1,1.32-1.58,1.47,1.47,0,0,1,1.46,1.41c0,.11.35,3.62,1,8.91,3.18-4.16,11.28-13.28,21-13.28s17.83,9.12,21,13.28c.64-5.29,1-8.8,1-8.91a1.46,1.46,0,0,1,1.46-1.41,1.51,1.51,0,0,1,1.32,1.58V686l5.67,1.71,5-29.31a1.44,1.44,0,0,1,1.5-1.27,1.51,1.51,0,0,1,1.25,1.57V713.9a1.66,1.66,0,0,1-.47,1.17,1.28,1.28,0,0,1-1.09.39s-4.86-.43-12.8,6.1L547,971.46a1.67,1.67,0,0,1-.39,1.15A1.34,1.34,0,0,1,545.55,973.09Z"/><path class="cls-15" d="M481.36,964.19l-.24,5.74h63l-.08-1.84-10.23-244h0c-.6.57-1.21,1.16-1.8,1.78-3.6,3.7-7.16,9.1-10.57,16a9.52,9.52,0,0,1-17.6,0c-3.41-6.95-7-12.35-10.57-16-.6-.62-1.21-1.22-1.82-1.79Z"/><path class="cls-15" d="M511.23,744.39a6.72,6.72,0,0,0,3.07-.07V702.76h-3.07Z"/><path class="cls-15" d="M505.36,738.5c.3.58.6,1.17.89,1.77a8.08,8.08,0,0,0,2.19,2.78V702.76h-3.08Z"/><path class="cls-15" d="M517.09,702.76v40a8.07,8.07,0,0,0,1.89-2.53c.4-.81.8-1.6,1.21-2.37a1.39,1.39,0,0,1,0-.26V702.76Z"/><path class="cls-15" d="M499.5,728.72q1.56,2.17,3.08,4.73V702.76H499.5Z"/><path class="cls-15" d="M523,702.76V733c1-1.67,2-3.23,3.07-4.65V702.76Z"/><path class="cls-15" d="M493.64,721.94c.48.47,1,1,1.48,1.48s1.06,1.13,1.59,1.74v-22.4h-3.07Z"/><path class="cls-15" d="M528.81,702.76v22.06c.43-.49.86-1,1.29-1.4.6-.62,1.2-1.21,1.78-1.76v-18.9Z"/><path class="cls-15" d="M487.78,717q1.46,1,3.07,2.39V702.76h-3.07Z"/><path class="cls-15" d="M534.68,702.76v16.42c1.07-.89,2.1-1.67,3.07-2.35V702.76Z"/><path class="cls-15" d="M481.92,713.69a28.14,28.14,0,0,1,3.07,1.54V702.76h-3.07Z"/><path class="cls-15" d="M540.54,702.76v12.31a25.81,25.81,0,0,1,3.07-1.5V702.76Z"/><path class="cls-15" d="M477.15,712.36a13.84,13.84,0,0,1,2,.38v-10h-2Z"/><path class="cls-15" d="M546.4,702.76v9.89a15.36,15.36,0,0,1,1.68-.3v-9.6Z"/><path class="cls-15" d="M546.4,699.6h1.68V675.13L545.53,690a1.62,1.62,0,0,1-.63,1,1.26,1.26,0,0,1-1.1.18l-8.15-2.46a1.56,1.56,0,0,1-1-1.53V632.94c-1.58,10.87-3.8,23.3-6.51,31.57-5.61,17.1-14.12,17.19-15.48,17.1-1.36.09-9.87,0-15.48-17.1-2.72-8.27-4.93-20.7-6.51-31.58v54.31a1.56,1.56,0,0,1-1,1.53l-8.15,2.46a1.26,1.26,0,0,1-1.1-.18,1.62,1.62,0,0,1-.63-1l-2.55-14.88V699.6h2v-3.95a1.41,1.41,0,1,1,2.79,0v3.95H485v-3.95a1.41,1.41,0,1,1,2.79,0v3.95h3.07v-3.95a1.41,1.41,0,1,1,2.79,0v3.95h3.07v-3.95a1.41,1.41,0,1,1,2.79,0v3.95h3.07v-3.95a1.4,1.4,0,1,1,2.78,0v3.95h3.08v-3.95a1.4,1.4,0,1,1,2.78,0v3.95h3.08v-3.95a1.4,1.4,0,1,1,2.78,0v3.95h3.07v-3.95a1.41,1.41,0,1,1,2.79,0v3.95H526v-3.95a1.41,1.41,0,1,1,2.79,0v3.95h3.07v-3.95a1.41,1.41,0,1,1,2.79,0v3.95h3.07v-3.95a1.41,1.41,0,1,1,2.79,0v3.95h3.07v-3.95a1.41,1.41,0,1,1,2.79,0Z"/><path class="cls-15" d="M512.62,678.44a.6.6,0,0,1,.17,0c.29,0,7.54.66,12.7-15,3.16-9.63,5.68-25.52,7.26-37.46-3.64,4.48-11.2,12.16-20.13,12.16s-16.49-7.68-20.13-12.16c1.58,11.94,4.1,27.84,7.26,37.46,5.23,15.91,12.63,15.06,12.69,15A.69.69,0,0,1,512.62,678.44Z"/><path class="cls-15" d="M514.32,634.83c8.53-1.09,15.7-10,17.85-12.95-2.16-3-9.34-11.87-17.86-13"/><path class="cls-15" d="M510.92,608.92c-8.52,1.09-15.7,10-17.86,13,2.16,2.94,9.34,11.86,17.85,12.95"/><path class="cls-15" d="M514.32,634.83c-.34.41-.55.65-.56.68a1.3,1.3,0,0,1-2.28,0s-.23-.27-.56-.68c-1.7-2.06-6.6-8.32-6.6-13s4.91-10.9,6.6-12.95c.33-.41.54-.65.55-.68a1.34,1.34,0,0,1,1.14-.68,1.36,1.36,0,0,1,1.14.68s.23.27.55.68c1.7,2.05,6.6,8.32,6.6,12.95S516,632.77,514.32,634.83Z"/><polyline class="cls-16" points="512.62 971.22 512.62 969.93 512.62 747.81 512.62 746.52"/><polyline class="cls-16" points="480.81 969.75 481.36 964.19 499.19 785.2 511.06 969.93 511.15 971.42"/><polyline class="cls-16" points="544.2 969.75 544.03 968.09 525.82 785.2 513.96 969.93 513.86 971.42"/></g></g><g id="Title"><path class="cls-14" d="M437.29,507.27a8.22,8.22,0,0,1-2.3,2.38,18.76,18.76,0,0,1-8,3.42q-.08-.11-.71-1.24a4.41,4.41,0,0,0-.9-1.27,19.09,19.09,0,0,0-3.35-2.26l-8.67-3.55q-1.41-.58-7.13-2.07-6.65-1.75-7.37-1.24-1.22.86,2,13.66a144.54,144.54,0,0,1,2.61,14.45q.16,1-1.27,2.07a5.88,5.88,0,0,1-3.29.88,3.21,3.21,0,0,1-2.87-1,7.73,7.73,0,0,1-.37-2.28,6.68,6.68,0,0,0-.45-2.38q-1.18-1.66-12.16-4-10.6-2.28-11.27-1.81-.88.63-.24,5.16.41,2.45.84,4.81.7,5.08,1.45,10.12a39.2,39.2,0,0,1,.11,10.82q-.16.94-2.21,2.4a4.62,4.62,0,0,1-2.15.95l-2.9-.1q-1.88-.07-5.12.06a1.43,1.43,0,0,1,.7-1l.15,0,.17-.12q.39-.28,1.12-.88l1.11-.79a1.3,1.3,0,0,0,.52-1.37q-.53-4.61-2.1-15.14-3.95-24.06-.08-26.81a8.69,8.69,0,0,1,3.58-1.17q2.47-.38,3.06.45a11.47,11.47,0,0,1,.44,3.14,11.45,11.45,0,0,0,.44,3.14q.75,1.05,11,2.89,8.49,1.54,10.89,1.75a4.36,4.36,0,0,0,.2-2.88q-.34-1.42-.63-2.88-1.37-6.85-2.78-13.75-2-10.74-.48-11.8.88-.63,4.37-.4t4.23,1.27a9.34,9.34,0,0,1,.27,3q.08,3.51.14,4.3l38.78,10.33Z"/><path class="cls-14" d="M469.39,464.56a3.44,3.44,0,0,1-.72,2.76,3.89,3.89,0,0,1-2.08,1.77,1.63,1.63,0,0,1-1.66-.78,4.59,4.59,0,0,0-2-1.69,12.45,12.45,0,0,0-3.8-.53,16.5,16.5,0,0,0-4.28.35,12.9,12.9,0,0,0-6.32,3.84,16.76,16.76,0,0,0-4.2,7.91A9.94,9.94,0,0,0,444,481a1.64,1.64,0,0,0,2.26,1.53l7-1.73q.13,0,1.5-.16t1.56-.17L466.47,478q3.75-.92,4.19.86.23.92-1.31,2.63a13.26,13.26,0,0,1-2,1.88,2.73,2.73,0,0,1-1,.46,6.94,6.94,0,0,1-2.14-.49,5.62,5.62,0,0,0-2.87-.31l-10.08,2.47q-.12.1-3.49,1.14-2.54.77-2.42,1.51.16,1.23.26,1.63.46,1,1.21,3,1.64,4.4,7.17,6.44a15.24,15.24,0,0,0,8.85.79,46,46,0,0,0,6.63-3.16q.43-.24,2.31-1.68a8.22,8.22,0,0,1,2.39-1.36q.86-.21,1.08.71t-.95,2.4a12.16,12.16,0,0,1-1.88,2q-2,1.62-6.56,4.55a15.65,15.65,0,0,1-3.58,1.37,26.71,26.71,0,0,1-6.29.85,41.07,41.07,0,0,1-5.47-1,16.83,16.83,0,0,1-10-5.93,22.1,22.1,0,0,1-4.54-9.08,21.41,21.41,0,0,1-.37-6.89,20,20,0,0,1,3.51-10.15,25.78,25.78,0,0,1,4.76-5.08q.64-.51,4.19-2.57a26.77,26.77,0,0,1,6.87-2.73,28.56,28.56,0,0,1,8.11-.81Q468.68,461.66,469.39,464.56Z"/><path class="cls-14" d="M528.81,477.73q0,6.71-7.52,13.16a43.63,43.63,0,0,1-8.68,5.37q-.54.14-1.7.48a19.28,19.28,0,0,1-8.75,2,40.79,40.79,0,0,1-5.43-.6q-.61-.34-2-.95a15.29,15.29,0,0,1-6-3.76,13.28,13.28,0,0,1-4-5.79,15.62,15.62,0,0,1-.61-4.61,21.15,21.15,0,0,1,.61-5.15,10.33,10.33,0,0,0,.95-1.7q.54-2.1,4.2-6.79a34.31,34.31,0,0,1,5.29-5,15.44,15.44,0,0,1,3.19-2q4.88-2.38,4.88-3.53,0-.47-1-1.49a19.93,19.93,0,0,1-1.63-1.56q-1.16-1.22-3.53-3.66-8.56-11.32-8.56-12.47,0-2.24,4.81-5,4.27-2.51,5.76-2.51a4.92,4.92,0,0,1,.75.1,4.88,4.88,0,0,0,.81.1.41.41,0,0,0,.1.2.68.68,0,0,1,.1.41q0,.41-1.08,1.09a4.36,4.36,0,0,0-1.63,1.36,1.8,1.8,0,0,0-.2,1q0,1.76,4.28,7.32a65.94,65.94,0,0,0,5,5.9q1.36,1.22,4.14,3.93l10.93,10.64a27.2,27.2,0,0,1,6,8.81A13.83,13.83,0,0,1,528.81,477.73Zm-7.12,2.85a10.43,10.43,0,0,0-1.84-4.88,22.84,22.84,0,0,0-3.06-4.13,91.65,91.65,0,0,0-7.87-7.38,3.05,3.05,0,0,0-2-.47q-3.73,0-8.07,3.77a21,21,0,0,0-6,8.11,22,22,0,0,0-1.22,3.53,13,13,0,0,0,1.94,6.47,12.33,12.33,0,0,0,5.12,5,17.89,17.89,0,0,0,4.07,1l.85.27a3.72,3.72,0,0,0,.85.2,22.93,22.93,0,0,0,10.17-2.86Q521.7,485.68,521.69,480.59Z"/><path class="cls-14" d="M554.82,501.92q-.22,1.06-2.27.91-1.5-.11-4.46-.52c-.13,0-.83-.11-2.1-.23l-2-.22q-2.19-.46-2.29-1.65a9.68,9.68,0,0,1,0-2.35l1.73-8.29q0-.13.32-1t.31-1l.55-2.65.25-1.19a11.85,11.85,0,0,1,.37-1.79q.18-.86.62-2.46l.45-1.67.69-3.31,1-4.91a26.89,26.89,0,0,1,.5-3.35q.75-3.58-.63-4.49a35.89,35.89,0,0,0-3.66-1.39q-2.3-.76-2.17-1.35.18-.86,2.68-.55,7.77.93,9.1,1.21a7.91,7.91,0,0,1,2.48,1.07q1.67,1,1.47,1.9l-2.57,12.33-.43,2.06q-.51,2.11-.7,3-.08.4-.56,2l-2.1,10.07a7.24,7.24,0,0,0,.07.84,5.19,5.19,0,0,1,.05.91l-.57,2.72a8.39,8.39,0,0,0-.07,2q.15,1.62.66,1.8,1,.29,3.07.92Q554.91,501.45,554.82,501.92Z"/><path class="cls-14" d="M606.62,523.13l-.81.16q-.77-.27-5.17-2.24-4.71-2.1-5.11-2.36-1-.53-1.81-3.26a27.49,27.49,0,0,1-.67-2.82c0-.46-.08-1-.13-1.54a1.31,1.31,0,0,0-.81-1.18q-1.18-.53-7.48.44a20,20,0,0,1-6.49.22,20.63,20.63,0,0,1-4.62-1.62,26.48,26.48,0,0,1-6.39-3.82,8.87,8.87,0,0,1-2.22-3.33q-1-2.35-.42-3.72.39-.87,13.11-7.21,2-.88,5.33-2.45.21-.13,7.24-3.23a1.66,1.66,0,0,0,.87-.95q1.19-2.66-1.34-10.63a3.25,3.25,0,0,0-.68-1,11.63,11.63,0,0,0-2.31-1.55,5,5,0,0,1-2.09-2l.3-.68a3.07,3.07,0,0,1,1.56.18l3.67,1.42,1.45.58,1.36.61,1.3.58,1.3.58q5.57,2.49,6.37,16.32.28,2.36.69,7.08,0,4.71.23,14.09.11,8.38,2.92,10.75a11.67,11.67,0,0,1,1.23,1.74Zm-14.13-17.91q.47-1.05-.11-11-.18-3.57-1.06-4.11a54.45,54.45,0,0,0-8.41,3.52,12.41,12.41,0,0,0-1.87,1q-1.48.82-3,1.62-3,1.8-3.48,3-.67,1.49.86,3.73a7.5,7.5,0,0,0,2.81,2.52,19,19,0,0,0,6.25,1.31,26.45,26.45,0,0,0,4-.14q.57-.12,1.41-.33Q592.22,505.84,592.49,505.23Z"/><path class="cls-14" d="M653.36,561.07q-.5.56-1.93-.09a7.71,7.71,0,0,1-1.84-1.2l-2.17-1.95a6.45,6.45,0,0,1-1.5-2.08,2.78,2.78,0,0,1,0-2.69,15.16,15.16,0,0,0,2.1-2.95,4.41,4.41,0,0,0-.88-2.88l-1.89-3q-1.18-2.24-3.24-6.65-2-4.93-2.94-7.29-1.8-4.8-2.8-8.25a38.46,38.46,0,0,0-1-5.42q-.81-.82-2,.49l-10,11.1q-4,4.44-11.05-1.9a2.28,2.28,0,0,1-1-2.16l6.12-6.81,14.1-13.68q.32-.35,1.07-1.09t1.16-1.19q3.58-4,1.48-7.24l.68-.76q6.59,2.82,7.95,4a3.61,3.61,0,0,1,1.31,3q-.55,5-1.7,16.61-.43,5.45,2.24,15.78,2.6,10,4.69,12.14,1.17,1.23,3.25-1.09,5.3-5.9,14.79-19.62a12.19,12.19,0,0,0,.71-3.74,4.31,4.31,0,0,1,2.52,1.26,16.1,16.1,0,0,1,3,3.63q1.11,1.81.9,2.45-2.54,7.2-11.2,17.55-2.86,3.08-8.23,9.47a11.18,11.18,0,0,0-2.43,4.33A7.81,7.81,0,0,1,653.36,561.07Z"/><path class="cls-17" d="M396.69,823.69a5.64,5.64,0,0,1-2.19,4.09,5.55,5.55,0,0,1-3.9,1.9,2.68,2.68,0,0,1-2.76-2.09A5.51,5.51,0,0,0,387,826a4.55,4.55,0,0,0-1-.9h.09a24.23,24.23,0,0,0-4.75-1.81,22.82,22.82,0,0,0-5.42-.86,16.46,16.46,0,0,0-9.13,2.85,27.62,27.62,0,0,0-4.37,3.9,21.6,21.6,0,0,0-3.42,4.94,13.51,13.51,0,0,0-1.33,3.14q-.19,1.9,1.52,1.9h9.89l.76,0,1.43.14h-.1a4.14,4.14,0,0,0,.81.1h.62a1.6,1.6,0,0,1,.38,0,1.25,1.25,0,0,0,.29,0h14.26q6.18,0,6.18,3.42,0,1.71-2.95,3.8a16.46,16.46,0,0,1-2,1.28l-1.38.71a4.23,4.23,0,0,1-1.9.38,8.66,8.66,0,0,1-3.14-1.43,7.75,7.75,0,0,0-3.23-1.24l-14.16.19a7.22,7.22,0,0,1-1.85.24l-3,.14H360a12.31,12.31,0,0,0-2.76.29,6.78,6.78,0,0,1,0,.71,6,6,0,0,0,0,.62,4.11,4.11,0,0,0-.1.62v.24q.09.57.14,1.14a8.33,8.33,0,0,0,.24,1.33,6.39,6.39,0,0,1,.14.86,5.84,5.84,0,0,0,.14.86q.57,5.7,6.94,10.08h-.09a20.28,20.28,0,0,0,11,3.71q1.52,0,9.51-2a6.86,6.86,0,0,0,2.28-.86q.76-.38,1.24-.57a13.06,13.06,0,0,1,4-1.14q2.09,0,2.09,2.28a3.13,3.13,0,0,1-.52,1.62,9.23,9.23,0,0,1-1.85,2,13.29,13.29,0,0,1-1.71,1.14q-.86.48-1.62,1a37.18,37.18,0,0,1-4.37,1.9q-2.57,1-5.89,2.09a20.15,20.15,0,0,1-5.42.67,34.59,34.59,0,0,1-8.84-1q-.38-.19-2.19-1l-4.85-2.14a28.52,28.52,0,0,1-6.8-4.8,22.54,22.54,0,0,1-5-6.8A31,31,0,0,1,342.5,846a24.83,24.83,0,0,1,.43-4.37,29.13,29.13,0,0,1,1.47-5.13h-.09a28.06,28.06,0,0,1,8.18-12.74,36.33,36.33,0,0,1,3.9-2.8,43.24,43.24,0,0,1,4.37-2.42,23.26,23.26,0,0,1,2.42-.9q1.85-.62,4-1.28A40.05,40.05,0,0,1,377.49,815a41.83,41.83,0,0,1,5.7.38,42.76,42.76,0,0,1,5.51,1.14Q396.69,818.84,396.69,823.69Z"/><path class="cls-17" d="M473.41,873.41a6.72,6.72,0,0,1-.71.57l-.81.57a20.85,20.85,0,0,1-2.57.09H458.67a23.6,23.6,0,0,1-2.66-.09q-1.9-.29-4.66-3.33a8.2,8.2,0,0,1-.9-1.14q-.52-.76-1.47-2.09l-.48-1v.19q-.38-.66-.71-1.19c-.22-.35-.46-.52-.71-.52q-1.71,0-8.65,4.47h.1a27.08,27.08,0,0,1-8.18,4.09,30.2,30.2,0,0,1-6.94.57,53.55,53.55,0,0,1-5.7-.29,22.24,22.24,0,0,1-4.66-1,13,13,0,0,1-5-3.14q-2.85-2.57-2.85-5,0-1.52,12.45-16.83l2.38-2.62q1.33-1.47,2.95-3.37.47-.57,2.23-2.61t5.09-5.56a1.48,1.48,0,0,0,.29-1q0-3.61-7.32-11.79a3.44,3.44,0,0,0-1.24-.76,17.93,17.93,0,0,0-3.42-.57,8.11,8.11,0,0,1-4.47-1.71v-2a6.19,6.19,0,0,1,2.85-1l5.32-.29H423a12.83,12.83,0,0,0,1.38-.1h2.95a8.92,8.92,0,0,1,1.24.1h1.9q4.28,0,8.89,4.71a57.07,57.07,0,0,1,8.89,12.5q.86,1.33,2,3.52t2.8,4.94q.95,2.09,2.33,4.94t3,6.46q.66,1.33,1.33,2.85t1.43,3.14a36.86,36.86,0,0,0,4.66,7.61,11.38,11.38,0,0,0,4.47,3.61,4.33,4.33,0,0,1,.9.52q.62.43,1.57,1-.1-.09.67.29ZM444,858.58a17.63,17.63,0,0,0-1.62-3.9q-1.62-3.33-4.66-9.32-1.71-3.52-2.57-4a40,40,0,0,0-3.33,3.33q-2.09,2.28-4.56,5.23l-1.09,1.47a10,10,0,0,1-.71.9l-.86,1-1,1.33q-.48.67-1,1.33-2.47,3.52-2.47,5,0,1.71,2.66,3.33a10,10,0,0,0,4.47,1.52,16,16,0,0,0,3.71-.47q2-.47,4.47-1.33.47-.19,1.66-.76t3.09-1.62l-.1.09.76-.57a3.52,3.52,0,0,1,.38-.33,3.66,3.66,0,0,0,.38-.33q.95-.66,1.66-1.19C443.79,859,444,858.77,444,858.58Z"/><path class="cls-17" d="M537.39,869.8a4.94,4.94,0,0,1-2.19,1.43,44.54,44.54,0,0,1-4.18,1.62,33.52,33.52,0,0,1-4.56,1.43,15.67,15.67,0,0,1-3.14.48q-2,0-5.8-2.61a77.82,77.82,0,0,1-8.94-7.46q-4.85-4.56-7.56-7.56t-2.71-4q0-1.52,6.08-5.51h-.09q3.9-2.66,6.51-4.52a40.54,40.54,0,0,0,3.95-3.09h-.1a20.76,20.76,0,0,0,4-4.33,7.68,7.68,0,0,0,1.33-3.56,9.81,9.81,0,0,0-1.71-5.61A8.39,8.39,0,0,0,516,824a4.4,4.4,0,0,0-2.8-.71q-6.18.19-13.78,7.79Q492,838.52,492,842.7V862.1l.19.67a8.06,8.06,0,0,1,.19,1.33v7q0,3.9-9.6,3.9-5.13,0-6.94-1.71a6.12,6.12,0,0,1,1-2.66,8.39,8.39,0,0,0,.62-1,1.6,1.6,0,0,1,.24-.38h-.1a33.21,33.21,0,0,0,1-5.51,3.35,3.35,0,0,1,0-.57,3.52,3.52,0,0,0,0-.57q.09-1.33.1-2.14a2.79,2.79,0,0,1,.19-1.19q0-3.8,0-8.6t0-9.79q0-5,0-9.79t0-8.6a3.35,3.35,0,0,0-2.19-2.85q-3.52-.95-4.47-2.28,1.14-2.95,6.37-2.95a17.5,17.5,0,0,1,2.28.29l1.9.19h.29a1.19,1.19,0,0,1,.43.1,4.74,4.74,0,0,0,.62.19c.06.06.25.1.57.1q2.85,0,3.8.76a8.73,8.73,0,0,0,.62.9q.33.43.71,1a5.88,5.88,0,0,1,.57.76,5.46,5.46,0,0,0,.57.76,10.43,10.43,0,0,1,.19,1.33v.86l-.09.57.09.09a.4.4,0,0,0,0,.19.44.44,0,0,1,0,.19,7.56,7.56,0,0,1,.14,1.24,12.63,12.63,0,0,0,.24,1.81v-.1a15,15,0,0,1,.38,4.37,1.23,1.23,0,0,0,.24.33l.24.24a17.27,17.27,0,0,1,3-3.8,43.71,43.71,0,0,1,9.41-7.7,27.09,27.09,0,0,1,7.18-3.18,27.9,27.9,0,0,1,7.37-1,9.27,9.27,0,0,1,4.66,1.19,12.53,12.53,0,0,1,3.71,3.28,14.57,14.57,0,0,1,2.66,8.56q0,5.51-5,11.12h.09a43.12,43.12,0,0,1-3.8,3.52q-2.28,1.9-5.32,4.18-1.14.86-1.95,1.43t-1.38,1l-1,.76q0,.86,7.51,7.7,3.42,3.23,6.08,5.51t4.56,3.61l-.09-.09a7.08,7.08,0,0,0,2.76.47,5.34,5.34,0,0,1,4.09,1.52Z"/><path class="cls-17" d="M604.41,817.42a3.26,3.26,0,0,1-1.81,2.76q-1,.67-1.62,1a3.77,3.77,0,0,1-1.24.48,43.44,43.44,0,0,1-4.47.62q-2.57.24-5.13.33a5.27,5.27,0,0,1-1,.1,7,7,0,0,0-1.14.09,6.91,6.91,0,0,1-1.14.09h-6.56c-.57.13-1.17.29-1.81.48a18.19,18.19,0,0,1-2,.48l-.38.19a1.46,1.46,0,0,0-.38.29q-.29.28-.29,3.71v34.51c0,.06.35.22,1,.48h.19a8.81,8.81,0,0,1,2,.86,1.85,1.85,0,0,1,1,1.71,2.25,2.25,0,0,1-.76,1.38q-.76.81-2.09,2-6.37,5.23-11,5.23-2.47,0-2.76-1.9-.48-3.23-.81-6.08t-.43-4.94q-.19-2.57-.24-5.09t0-4.42l1-20.82c0-.25,0-.6,0-1s-.06-.87-.09-1.28-.06-.73-.1-1-.08-.2-.14,0a12.67,12.67,0,0,0-.29-2.66q-.19-.76-1.62-1a25.46,25.46,0,0,0-3.14-.1,82.2,82.2,0,0,0-11,1.14.27.27,0,0,1-.19.1h-.19a6.39,6.39,0,0,1-2.28.47q-2.76,0-2.76-1.9a2.33,2.33,0,0,1,1-1.62,15,15,0,0,1,2.19-1.62,8.1,8.1,0,0,1,1.57-.86q.9-.38,1.76-.67,2.47-.86,4.9-1.57a29,29,0,0,1,3.75-.9c.32-.06.65-.11,1-.14a9.37,9.37,0,0,0,1-.14q2.95-.29,7.42-.86l30.52.19,3.28-.33q1.47-.14,2.23-.14Q604.41,815.13,604.41,817.42Z"/><path class="cls-17" d="M683.41,841.66a32.05,32.05,0,0,1-.86,8.46,1.47,1.47,0,0,1-.19.57q-.38,1-1.24,3.28t-2.19,5.56q-.57.76-1.33,1.9t-1.81,2.76h.09a61.44,61.44,0,0,1-5.51,7.56,53.32,53.32,0,0,1-7,6.8h.09q-3.33,2.94-6.27,2.76a2,2,0,0,1-1-1.81,4.94,4.94,0,0,1,.86-2.38,26,26,0,0,1,2.47-3.33,50.63,50.63,0,0,0,7.84-12.6A32.46,32.46,0,0,0,670,848.5a40.2,40.2,0,0,0-.57-6.7,34.78,34.78,0,0,0-1.9-6.8q-3.42-9.6-10.08-9.6-5.52,0-15,6.66a40.17,40.17,0,0,0-7.46,6.46,14.23,14.23,0,0,0-3.37,5.7q0,9,.09,9a14.74,14.74,0,0,1,.09,2q0,1.48-.19,3.57a6.3,6.3,0,0,1-1,3.23,6.74,6.74,0,0,1-1,1.24h1.9q0,1.33.09,2.42a11.85,11.85,0,0,0,.29,1.85l.52.81.81,1.28a6.5,6.5,0,0,1,.19,2.09,9.84,9.84,0,0,1-2.61,1.57q-1.95.91-4.9,2.14-2.76,1-4.47,1.66a9.92,9.92,0,0,1-2.09.62,4.47,4.47,0,0,1-2.8-1,3.16,3.16,0,0,1-1.28-2.61l.57-23.39v-3.09q0-1.66,0-3.28t.1-3q0-1.38.14-2.14v-7.56q0-4.42,0-9t0-9V806.2l-.19-2.09a.54.54,0,0,1-.1-.38.28.28,0,0,0-.09-.19,6.15,6.15,0,0,1-.67.38l-1.71.86a9.89,9.89,0,0,1-2.47,1,8.1,8.1,0,0,1-1.9.29q-3.42,0-3.42-2.38,0-2.19,6.65-5.32,1.9-.86,4.66-2.14t6.37-3.18h-.09q4-2,5.23-2,3.42,0,3.42,3.33l-.29,35.08.47,1.9a.17.17,0,0,0,.19.19,45.52,45.52,0,0,0,5-3.8q3.23-2.47,6.13-4.33t5.37-3.18a34.22,34.22,0,0,1,15.88-4.09,16.35,16.35,0,0,1,9,2.52,19.27,19.27,0,0,1,6.42,6.89A26.74,26.74,0,0,1,682.5,833,40.71,40.71,0,0,1,683.41,841.66Z"/><path class="cls-14" d="M396.6,821.13a4.82,4.82,0,0,1-1.9,3.52,5.45,5.45,0,0,1-3.42,1.71q-1.24,0-2-1.62a6.44,6.44,0,0,0-2.09-2.95,17.43,17.43,0,0,0-5-2,23.13,23.13,0,0,0-5.94-1,18.08,18.08,0,0,0-9.89,3.12,23.5,23.5,0,0,0-8.37,9.37,14,14,0,0,0-1.52,3.69q-.19,2.84,2.57,2.84h10.17q.19,0,2.09.29t2.19.29h14.64q5.42,0,5.42,2.57,0,1.33-2.66,3.14a18.54,18.54,0,0,1-3.33,1.9,3.83,3.83,0,0,1-1.52.29,9.77,9.77,0,0,1-2.76-1.38,7.87,7.87,0,0,0-3.8-1.38H364.94q-.19.1-5.13.38-3.71.19-3.8,1.25-.19,1.73-.19,2.31.28,1.54.67,4.43.76,6.54,7.6,11.16,6.08,4,11.79,4,1.81,0,10.08-2.09.66-.19,3.71-1.52a11.53,11.53,0,0,1,3.71-1q1.23,0,1.24,1.33,0,1.14-2.09,2.95a17,17,0,0,1-3.23,2.09q-3.33,1.52-10.46,4a21.9,21.9,0,0,1-5.32.67,37.48,37.48,0,0,1-8.84-1,57.51,57.51,0,0,1-7.13-3.14A23.58,23.58,0,0,1,345.93,858a31,31,0,0,1-3.14-13.88,30,30,0,0,1,1.81-9.51A28.1,28.1,0,0,1,352.77,822a36.13,36.13,0,0,1,8.18-5.32q1-.47,6.56-2.09a37.54,37.54,0,0,1,10.27-1.43,40,40,0,0,1,11.31,1.62Q396.59,816.94,396.6,821.13Z"/><path class="cls-14" d="M473.5,871.79c-.25.19-.57.41-1,.67q-1.14.09-7.89.09-7.23,0-7.89-.09-1.62-.1-4.18-3.14a38.92,38.92,0,0,1-2.47-3.23l-1-1.9a1.84,1.84,0,0,0-1.71-1q-1.81,0-9.32,4.85a28,28,0,0,1-8.18,4,28.88,28.88,0,0,1-6.84.57,37.08,37.08,0,0,1-10.36-1.24,12.43,12.43,0,0,1-4.75-3q-2.66-2.42-2.66-4.52,0-1.33,12.64-16.73,2.09-2.28,5.42-6.18.19-.29,7.42-8.27a2.32,2.32,0,0,0,.57-1.71q0-4.09-7.8-12.83a4.57,4.57,0,0,0-1.47-1,16.27,16.27,0,0,0-3.85-.67,7,7,0,0,1-3.8-1.33v-1a4.3,4.3,0,0,1,2.09-.67l5.51-.29,2.19-.09h6.08q8.56,0,17.49,17.24,1.71,2.86,4.94,8.66,2.76,6,8.37,17.9,4.94,10.67,9.89,12.09a16,16,0,0,1,2.57,1.52ZM445.17,857q0-1.61-6.46-14.07-2.28-4.47-3.71-4.66-2.38,1.81-8.75,9.32a17.34,17.34,0,0,0-1.81,2.38q-1.43,1.9-2.95,3.8-2.76,4-2.76,5.8,0,2.28,3.23,4.28a10.51,10.51,0,0,0,5,1.62,26.62,26.62,0,0,0,8.75-1.9,37,37,0,0,0,5-2.47q.66-.47,1.62-1.24Q445.17,857.92,445.17,857Z"/><path class="cls-14" d="M537.58,868.09q-.57,1-5.94,2.76a28.22,28.22,0,0,1-7.65,1.81q-3.8,0-14.54-10.08-10.27-9.6-10.27-11.22,0-1,5.8-4.94,7.89-5.42,10.74-7.8,5.7-5,5.8-8.94a10.65,10.65,0,0,0-2-6.27q-2.38-3.71-5.89-3.61-6.75.19-14.92,8.27-7.89,7.7-7.89,12.64v19.87a6.42,6.42,0,0,0,.19,1,6,6,0,0,1,.19,1.09v7.23q0,3-8.94,3-4.94,0-6.18-1.14a4.58,4.58,0,0,1,.86-1.81,12.42,12.42,0,0,0,1-1.62,41,41,0,0,0,1-5.89q.29-4.18.38-4.66V819.89a4,4,0,0,0-2.77-3.71q-3.32-1.14-3.79-1.71.77-1.9,5.54-1.9.19,0,2.34.24t2.39.24a2.6,2.6,0,0,1,.76.19,2.6,2.6,0,0,0,.81.19q2.68,0,3.35.67,1.05,1.52,2.2,3l.19,1.43v1.24q0,.1.52,3.52a19.29,19.29,0,0,1,.33,4.75q1.14,1.24,1.42,1.24A42,42,0,0,1,496.3,825a44.24,44.24,0,0,1,9.48-7.8A28.16,28.16,0,0,1,520.2,813a9.11,9.11,0,0,1,7.87,4.28,13.79,13.79,0,0,1,2.56,8.17q0,5.23-4.94,10.74a59.15,59.15,0,0,1-9.13,7.89q-4.94,3.61-4.94,4.09,0,1.24,8,8.56,7.32,6.65,11.12,9.51a7.12,7.12,0,0,0,3.23.57A5.11,5.11,0,0,1,537.58,868.09Z"/><path class="cls-14" d="M604.5,814.62q0,.92-1.52,2a6.71,6.71,0,0,1-2.57,1.29,70.55,70.55,0,0,1-9.79.92q-.48.1-2.14.24t-1.95.14h-6.46q.47,0-3.61,1a2.31,2.31,0,0,0-1.19.72q-.62.62-.62,4.53V861q0,.76,1.52,1.34.95.29,1.9.62a1.22,1.22,0,0,1,1,1.19q0,.67-2.57,2.77-6.47,5.25-10.74,5.25-1.71,0-1.9-1.14-1-7-1.24-11.31-.28-5.51-.29-9.7V828.64q0,.19.48-2.38a8.13,8.13,0,0,0-.09-3.33,3.13,3.13,0,0,0-2.57-2.38,33.24,33.24,0,0,0-3.42-.09,88.27,88.27,0,0,0-11.41,1.14,5.27,5.27,0,0,0-1,.29,5.11,5.11,0,0,1-1.62.29q-1.9,0-1.9-1t2.76-2.47a25.19,25.19,0,0,1,3.23-1.62,46.65,46.65,0,0,1,8.84-2.42q3.23-.43,9.6-1.19h31.37q4-.29,5.61-.29Q604.5,813.24,604.5,814.62Z"/><path class="cls-14" d="M683.69,839.57a35.27,35.27,0,0,1-.86,8.56q-.38,1.14-3.61,9.41-1.14,1.52-3.23,4.75a56,56,0,0,1-12.55,14.45q-3.33,2.85-5.51,2.66a1,1,0,0,1-.38-.86q0-1.52,3.23-5.32,11-13,11-26.62a41.93,41.93,0,0,0-2.66-14.17q-3.9-10.55-11.22-10.55-6,0-16.07,7-10.46,7.32-11.5,13.12v10q.09.67,0,5.13v4.75a17.45,17.45,0,0,0,.52,4.94,17.85,17.85,0,0,1,1.2,2,5.45,5.45,0,0,1,.09,1.24q-1.13,1-7.14,3.42a41.94,41.94,0,0,1-6.3,2.28,3.6,3.6,0,0,1-2.16-.76,2.37,2.37,0,0,1-1-2l.38-24.05q0-8,.29-11.79v-34l-.19-2.28q-.19-1.33-1.15-1.43a23.46,23.46,0,0,0-2.78,1.28,10.15,10.15,0,0,1-4.22,1.28q-2.59,0-2.59-1.43,0-1.71,6.27-4.66,3.8-1.71,11.41-5.42,3.9-2,4.85-2,2.76,0,2.57,2.47l-.29,36.22a6,6,0,0,1,.48,1.9,1,1,0,0,0,1.14,1q.57,0,5.8-4.09a72.23,72.23,0,0,1,11.69-7.6,35.41,35.41,0,0,1,15.88-4.09q10.17,0,15,9.13A33.61,33.61,0,0,1,683.69,839.57Z"/></g></svg>