<svg xmlns="http://www.w3.org/2000/svg" xmlns:xlink="http://www.w3.org/1999/xlink" viewBox="0 0 1024 1024"><defs><style>.cls-1,.cls-6,.cls-8,.cls-9{fill:none;}.cls-1,.cls-10,.cls-5,.cls-6,.cls-9{stroke:#000;}.cls-1,.cls-10,.cls-4,.cls-5,.cls-6,.cls-8,.cls-9{stroke-miterlimit:10;}.cls-2{fill:#231f20;}.cls-10,.cls-3,.cls-5{fill:#fff;}.cls-4{stroke:#231815;stroke-width:5px;}.cls-5,.cls-6{stroke-width:4px;}.cls-7{clip-path:url(#clip-path);}.cls-8{stroke:#fff;}.cls-10,.cls-9{stroke-width:3px;}.cls-11{fill:#231815;}</style><clipPath id="clip-path"><path class="cls-1" d="M511.8,283.87s-25.2,44.31-95,75.5S277.81,383,277.81,383,245,524.2,293.4,657.2c67,184.08,218.41,222,218.41,222s151.42-37.89,218.41-222C778.61,524.2,745.8,383,745.8,383s-69.1,7.56-138.95-23.63S511.8,283.87,511.8,283.87Z"/></clipPath></defs><title>cameplot</title><g id="Banner-Back"><path class="cls-2" d="M782.82,459.67c-7,23.23-7.36,49.66-7.36,61s10.5,23.69,36.95,25.06c2.84.15,13.19-1.42,13.19-1.42a26.9,26.9,0,0,0,6.18,15.18c16.91,20.38,64.2,20.12,98.72,19.93l8.27,0c28.17,0,32.49,14.56,36.09,23.68s5.09,21.71,5.09,21.71,11.7-18,11.7-32.11c0-13.74-7.65-25.56-16.66-34.45a40.15,40.15,0,0,1,16.95,8,183.89,183.89,0,0,1,16.62,16,136.85,136.85,0,0,0-4.46-23.64c-4.28-16.56-21.43-42.87-58.5-36.46-5.46.93-24.94,1.8-24.94,1.8a14.78,14.78,0,0,0-1.54-5.64v-.5c0-7.42-2.88-12.49-5.94-17.85-4.37-7.64-9.8-17.16-11.46-40.69a18.43,18.43,0,0,0-7.13-13.64c-10.36-8.07-28.36-5.37-33.34-4.42"/><path class="cls-2" d="M164.24,441.21c-5-.95-23-3.64-33.34,4.42a18.42,18.42,0,0,0-7.13,13.63c-1.66,23.54-7.09,33.05-11.46,40.7-3.05,5.36-5.89,11.69-5.21,20.72a7.89,7.89,0,0,0-1.73,4.36c-6.34-.28-20-2-25.48-2.9-37.07-6.4-53.14,19.35-57.43,35.91-2.9,13.08-1.55,20.25-1.55,20.25a112,112,0,0,1,12.64-12.07,40.23,40.23,0,0,1,16.95-8c-9,8.89-16.66,20.7-16.66,34.45,0,16.64,12.55,26.86,12.55,26.86s1.46-7,3.67-14.61c.5-2.62,6.29-25.53,36.66-25.53l8.26,0c34.53.19,81.81.45,98.73-19.93a26.93,26.93,0,0,0,6.18-15.19,64,64,0,0,0,13.19,1.44c26.48,0,36.94-13.83,36.94-25.06,0-44.89-7.36-61-7.36-61"/><path class="cls-3" d="M982.21,603.52s-5.58-31.75-43.44-31.75S827.06,575,833.27,537.49c0,0,13.86-4.87,20.89-7.83a73.66,73.66,0,0,1,22.76,11.85c10.76,8.46,37.24,13.12,41.38-9.74,0,0,19.83-.61,28.55-2.12,31.86-5.5,46.34,16.51,50.06,30.9,0,0-17.38-16.08-43.86-9.32C953,551.25,993.59,572.42,982.21,603.52Z"/><path class="cls-3" d="M878.09,537c18.23,14.12,33.87,5.08,35.85-4.45-17.89,5.66-26.67-2.87-26.67-2.87,14.48,4,23.18-1,26.15-3.26a12.19,12.19,0,0,0-1.4-2.71c-16.88,4.75-25.16-3.34-25.16-3.34,9.62,2.68,16.67,1.34,21.21-.52a28.8,28.8,0,0,0-15.83-4.57c-9.93,0-32.72,11.55-32.72,11.55S867.92,529.12,878.09,537Z"/><path class="cls-3" d="M812.79,538.13a35.54,35.54,0,0,0,7.77-.58c-1.63-.36-2.82-1.18-3.07-2.35-.44-2.06,2.1-4.37,5.67-5.17s6.82.23,7.26,2.29a3.44,3.44,0,0,1-1.49,3.17c22-6.77,49.5-24.12,62.87-24.45,13.65-.34,19.86,6.77,19.86,6.77,0-14-14.48-16.93-17.38-58-1.22-17.36-32.27-11-32.27-11s4.55,4.23,4.55,14.82C866.57,495,838,495.38,807,500S771.83,536,812.79,538.13Z"/><path class="cls-3" d="M824.11,454.6s-18.62,3.81-30.2,6.77q-1.91.49-3.74,1.09c-.43,1.49-.86,3.19-1.3,5.06,18.61-6.64,40.6-5.2,40.6-5.2s-18.62,3.81-30.2,6.77a78.91,78.91,0,0,0-11.57,4c-.38,2.09-.74,4.39-1.07,6.8,19.56-10.08,47.67-8.23,47.67-8.23s-18.62,3.8-30.2,6.77A87.14,87.14,0,0,0,786,485.62c-.19,1.9-.35,3.86-.48,5.92,19.59-10.77,48.82-8.86,48.82-8.86s-18.62,3.81-30.2,6.77A87.55,87.55,0,0,0,785.22,497c-.07,2-.11,4.11-.11,6.28,0,0,6.16-6.65,28.92-9.61,19.91-2.59,36.82-9.74,36.82-25S836.37,448,824.79,448a95.86,95.86,0,0,0-31.45,5.5s-.64,1.34-1.56,3.92A124.55,124.55,0,0,1,824.11,454.6Z"/><path class="cls-3" d="M43.28,603.52s5.59-31.75,43.45-31.75,111.71,3.18,105.5-34.28c0,0-13.86-4.87-20.89-7.83a73.7,73.7,0,0,0-22.76,11.85c-10.75,8.46-37.24,13.12-41.37-9.74,0,0-19.83-.61-28.55-2.12-31.86-5.5-46.34,16.51-50.06,30.9,0,0,17.37-16.08,43.85-9.32C72.45,551.25,31.91,572.42,43.28,603.52Z"/><path class="cls-3" d="M147.42,537c-18.23,14.12-33.87,5.08-35.85-4.45,17.89,5.66,26.68-2.87,26.68-2.87-14.49,4-23.19-1-26.15-3.26a12.26,12.26,0,0,1,1.39-2.71c16.88,4.75,25.17-3.34,25.17-3.34-9.62,2.68-16.68,1.34-21.21-.52a28.78,28.78,0,0,1,15.83-4.57c9.93,0,32.72,11.55,32.72,11.55S157.58,529.12,147.42,537Z"/><path class="cls-3" d="M212.71,538.13a35.48,35.48,0,0,1-7.77-.58c1.63-.36,2.82-1.18,3.07-2.35.44-2.06-2.11-4.37-5.68-5.17s-6.83.23-7.26,2.29a3.45,3.45,0,0,0,1.49,3.17c-22-6.77-49.51-24.12-62.88-24.45-13.65-.34-19.86,6.77-19.86,6.77,0-14,14.48-16.93,17.38-58,1.23-17.36,32.27-11,32.27-11s-4.55,4.23-4.55,14.82c0,31.32,28.55,31.74,59.58,36.4S253.67,536,212.71,538.13Z"/><path class="cls-3" d="M201.38,454.6s18.62,3.81,30.21,6.77q1.9.49,3.73,1.09c.42,1.49.86,3.19,1.3,5.06-18.61-6.64-40.6-5.2-40.6-5.2s18.62,3.81,30.2,6.77a78.66,78.66,0,0,1,11.58,4c.39,2.09.74,4.39,1.07,6.8-19.56-10.08-47.67-8.23-47.67-8.23s18.62,3.8,30.2,6.77a87.1,87.1,0,0,1,18.14,7.17c.19,1.9.35,3.86.48,5.92-19.59-10.77-48.82-8.86-48.82-8.86s18.62,3.81,30.2,6.77A87.61,87.61,0,0,1,240.28,497c.06,2,.11,4.11.11,6.28,0,0-6.16-6.65-28.92-9.61-19.9-2.59-36.82-9.74-36.82-25S189.13,448,200.71,448a95.86,95.86,0,0,1,31.44,5.5s.64,1.34,1.56,3.92A124.59,124.59,0,0,0,201.38,454.6Z"/><path class="cls-4" d="M569.7,212.73s-19.82,3.5-57.9,3.86-57.9-3.86-57.9-3.86"/></g><g id="Shield"><path class="cls-3" d="M809.18,800.8C802.77,796.06,772,768.16,668.5,667,613.82,613.57,286.15,286.5,272,272.48a13.23,13.23,0,0,1,7.1,3.4c.82,0,0-1.07-1.47-2.62l.15-.79c1.75,1.69,3,2.61,3,1.74a13.31,13.31,0,0,1-3.57-7.63C290.82,280.05,619,607.44,673.58,661.87c102.49,102.2,130.77,132.58,135.6,138.93"/><path class="cls-3" d="M277,264c.35-7.78,6-16.07,9.51-21.54l.4.27L285.71,245s-2,5.91.92,8.92h0l.13.12c3.3,3.21,347.58,345.6,416.81,417.05,115.18,118.85,142.75,158.42,145.2,168.78-10.4-2.31-50.31-29.37-170.66-143-72.34-68.31-415.63-411.69-418.88-415h0l-.1-.08,0,0h0c-3.05-2.83-8.93-.81-8.93-.81l-2.25,1.29-.23-.34c5.58-3.73,13.92-9.47,21.74-9.63,11.93,11.57,342,340,398.62,395.25,37.29,36.44,67.72,65.89,90.47,87.57,29.11,27.73,47.54,44.61,51.79,47.11l.85.5-.51-.84c-2.55-4.22-19.68-22.43-47.79-51.18-22-22.46-51.81-52.52-88.73-89.32C617.95,605.37,288.59,275.6,277,264"/><path d="M150.43,168.13c-1.06,1.08-3,.9-4.29-.42a3.77,3.77,0,0,1-1.13-2.13l-4.48,4.54a6.1,6.1,0,1,1-8.68-8.58l3.29-3.34a6.32,6.32,0,0,1-5.3-10.71l1.48-1.5A12,12,0,0,1,148,129.05l1.48-1.5a6.32,6.32,0,0,1,10.79,5.16l3.29-3.34a6.1,6.1,0,1,1,8.68,8.58l-4.48,4.54a3.8,3.8,0,0,1,2.15,1.09c1.33,1.32,1.55,3.2.48,4.28Zm-3-1.71c.63.62,1.43.75,1.73.45l20-20.27c.31-.31.17-1.11-.46-1.73s-1.44-.75-1.73-.45l-20,20.27c-.3.3-.17,1.11.47,1.73m8.52-36.36a2.71,2.71,0,0,0-3.83,0L132.42,150a2.72,2.72,0,0,0,3.86,3.82L156,133.89a2.73,2.73,0,0,0,0-3.84m13.75,1.83a2.49,2.49,0,0,0-3.51,0l-31.76,32.18a2.49,2.49,0,1,0,3.54,3.49l31.75-32.17a2.49,2.49,0,0,0,0-3.51m-24.21-.24a8.35,8.35,0,0,0-11.58,11.73Z"/><path d="M150.66,169.3l17.7-17.93-10.72,24.85c-4.37-1.74-6.28-4.63-7-6.92M165,156.6l-11.76,12.19c.56,2,2.22,3.55,3.92,3.19Z"/><path d="M162.43,176.26c-.22,1.65,2,2.92,3.19,2.14l7.26-19.74c-.21-1.49-.91-2-2.45-2.39Zm15.2-22.38-11.67,30.64a11.12,11.12,0,0,1-6-5.94l10.74-28.87,1.32-1.37c2.64.7,4.28,2.75,5.63,5.54"/><path d="M319.55,173.86c.3.54,6.27,14.79-13.48,36.89l2.43-6.48c15.29-17.51,10.1-28.64,9.84-29.11l-1.91-.91a6.15,6.15,0,0,1-1.48,5,11.94,11.94,0,0,1-1,1.09c-1.51,4.51-3.25,9-5.18,13.29l-1.19-.54c1.55-3.56,3-7.5,4.22-11.2a7.67,7.67,0,0,1-2.87.85c0,.08,0,.17,0,.26l-.83-.11s0-.09,0-.13a7.68,7.68,0,0,1-4.32-1.57c-2.14-1.58-6.34-9.67.34-16.43,11-11.18,23.23.88,25,11.07,2.67-1.39,14.73-7.18,19.89-2.08a1.72,1.72,0,0,1,.52,1.63c-.28,1.27-1.66,1.77-4.43,2.77-3.36,1.21-8.45,3.06-9.79,6.23a5.31,5.31,0,0,0,.27,4.31c.37.45.76.92,1.15,1.39,2.55,3,5.45,6.5,5,10.14a6.62,6.62,0,0,1-2,3.87,10.91,10.91,0,0,1-1.42,1.21c-3.08,2.2-6,1.9-8.72,1.61-3.75-.39-7.62-.8-13.23,4.88-2.66,2.7-2.61,3.84-2.53,4.12.24.85,2.34,1.35,3.61,1.65,1.6.38,3,.72,3.12,2.08s-1.25,2.12-2.81,2.86c-1.27.6-2.72,1.17-4.26,1.76l-1-2.52c1.42-.56,2.78-1.08,3.94-1.62-2-.5-5.15-1.05-5.79-3.29-.53-1.86.64-4.61,3.36-7.36a22.42,22.42,0,0,1,3.07-2.63,3.09,3.09,0,0,1,.35-.93l.49.36c4.78-3,8.8-2.38,12-2,2.58.27,4.34.1,6.57-1.5a4.82,4.82,0,0,0,2.11-3.42c.31-2.46-2-4.49-4.2-7.12-.32-.38-2.61-2.58-3-5.17l-.86-.8.92-1a4.44,4.44,0,0,1,.56-1.34c2.44-3.93,7.28-6.47,11.1-7.85.6-.21,1.21-.41,1.76-.64-.82-2.34-12.38,1.28-15.66,5-.2,1,0,2.06-.48,2.89l-4.11,2.12c4.58-7.3-6.9-28.68-17.94-17.89-5.74,5.61-1.88,10.33-.69,11.44,2,1.85,5.1,1.72,7.4-1.26a4.36,4.36,0,0,0-.13-5.64,4.38,4.38,0,0,1-1.25,2.31c-1.29,1.3-3,1.71-3.78.93s-.4-2.48.88-3.79a4.4,4.4,0,0,1,2.36-1.3,4.11,4.11,0,0,1,4.85,3.18Z"/><path d="M175.6,193.95l10.51-31.72c1.75.3,4.84,2.82,5.34,5.2-.15.69-9.9,32.66-9.9,32.66-2.32-.38-4.76-3.5-6-6.14m9.2-21.78L178.52,192c-.08,1.92,1.28,2.75,2.05,2.29L187.24,174c-.14-1.31-.91-3-2.44-1.85"/><path d="M184.54,160.6l-10.92,31.65a11.56,11.56,0,0,1-5.4-5.59l10.45-31.76a9.38,9.38,0,0,1,5.87,5.69m-7,3.55-6.49,20c0,1.68,1,2.31,2,1.6l6.76-19.67a2,2,0,0,0-2.29-1.91"/><path d="M194.42,206.79c.52,2,2.75,4,4,3.38L204,189c.06-3-2.18-5.06-3.83-2.92Zm-3,3.91c.14-.72,9.48-34.21,9.48-34.21,2.47.39,6.17,4,7.36,6.85,0,0-8.78,35-9,35.69-1.86-.15-7.21-4.94-7.85-8.32"/><path d="M201,220.82c.21-.67,8.67-36.15,8.67-36.15a10.35,10.35,0,0,1,6.49,6c-.2.63-8.06,37-8.28,37.64-2.36-.58-6.66-4.83-6.88-7.44m8.1-27.08-5.26,23.06c.52,1.81,1.53,2.79,2.81,2.69l5.26-23.3c.26-2.09-1.2-3.68-2.8-2.45"/><path d="M336.37,200.89c-4.43,3.68-14,.61-18.54,5.42l-.49-.36c2-4,12.44-16.51,13.37-15.34,0,0,9.35,7.23,5.66,10.29M325,200.51c.07.68,1.86,1.05,4,.83s3.81-1,3.74-1.65-1.86-1.05-4-.83-3.81,1-3.74,1.65"/><path d="M209.19,229.7c.17-.72,8.1-38,8.1-38,3.21.71,6.11,3.67,7.32,6.57,0,0-8,38.65-8.22,39.3-2.68-.86-6.63-6.24-7.2-7.9m7.27-29.44L211,226.31c.76.82,2.28,2.13,3.4,3.36l6-26.89c-.3-1.8-2.17-3.86-3.89-2.52"/><path d="M189.6,203.52l6-21.94c.58-2.63-1.6-4.78-3.11-3.08l-6.08,21.58c.68,2.45,1.69,3.51,3.24,3.45m10.15-28.17-9.69,33.88c-2.63-.55-5.72-4.24-6.82-6.66L193,169.08c2.43.48,5.56,3.21,6.74,6.27"/><path d="M225.72,207.3l-5.63,29.57c1.78,2,.93.86,2.72,2.83l5.8-29.58c0-2.09-1.16-3.45-2.88-2.82m-7.86,32,7.65-40.12c3.09-.35,6.82,4,7.51,6.71l-8,41.2c-3-.82-6.66-4.8-7.13-7.78"/><path d="M226,248.31c.32-1.71,7.82-41.73,7.82-41.73,2.68.18,7.23,4,8,7.27l-7.51,43.4s-8.83-4.36-8.36-8.93m8.45-33.61-5.83,30.22,3.34,3.28,5.53-30.71c0-1.78-1.17-3.63-3-2.8"/><path d="M254.59,230.61,252,245.85c-.67.26-1.27.48-1.77.66.88-5,3.8-21.56,3.93-21.92,1.57.36,6.89,3.78,8.15,7.13-.13.43-1.51,7-2.24,10.51-1.47.75-2.86,1.41-4.12,2l2.15-10.32c.14-2.25-3.46-3.26-3.46-3.26"/><path d="M295.08,230c2.17-3,12.41-15.59,13.3-15.43s-.23,5.48,3.34,5.62c-.26,1.13-9.17,2.06-16.36,9.79l-.13.14Z"/><path d="M294.7,230.58c-.06,0,.07-.19.38-.62l.16.12c5-4.7,12.35-6.41,17.18-8.3l1,2.52c-8.67,3.39-20.58,9.39-19.28,26L289.83,246c-.59-7.45,1.43-12.07,4.87-15.45"/><path d="M264.72,233.15a14.76,14.76,0,0,1,4.5,2.69,30.52,30.52,0,0,1-5.62,3.39c.61-3.38,1.07-5.95,1.12-6.09"/><path d="M260,241.06c1.26-.57,2.65-1.23,4.12-2l-.45,2.17-4.3,2.86Z"/><path d="M256,242.71l-.51,2.92L254,244.8s.09-.53.26-1.44c.51-.18,1.11-.39,1.77-.66"/><path d="M248.29,247.79l1.57.56-2.43,2.17c.61-1.74.86-2.73.86-2.73"/><path d="M259.34,244.1l4.3-2.86.45-2.17a95.17,95.17,0,0,0,30.4-24.72,73.33,73.33,0,0,0,13.57-31.41l.83.11a78.4,78.4,0,0,1-3.48,14.68c.74-1.42,1.46-3,2.17-4.59l1.19.54c-5.39,12.17-12.19,23.14-19.27,30.32-16,16.18-32,23.48-35.19,24.82l.11.11-.39.4-.29-.29-1.82-4.91h0s.85-.23,2.34-.76c-.17.91-.26,1.44-.26,1.44l1.52.83.51-2.92c1.13-.43,2.45-1,3.95-1.65Z"/><path d="M243.88,222l-6.49,36.13h0l2.83,3.17c-.11.24-.22.49-.35.73l-.78.71a5.73,5.73,0,0,1-3.85-4.27c.45-2.39,7.78-42.88,8-43.52,3.8.76,8,5.89,8.9,7.81-.06.36-3,17.57-4.25,24.49h0c-.3,1.74-.49,2.83-.49,2.83l-6.14,12.77,6.23-37.47c-.05-1.53-2.31-3.51-3.56-3.38"/><path d="M254.42,248.93a4.31,4.31,0,0,0,1.62,1c9-2.39,30.5-19.37,30.5-19.37L262,256.27a3.09,3.09,0,0,0,.54.7l-.4.41-.62-.61-.09-.08-6.61-6.53-.83-.81Z"/><path d="M262.17,257.38l.4-.41a2.18,2.18,0,0,0,1.48.66l42.85-46.1,23.49-25.27.86.8-66,73.23-2-1.82Z"/><path d="M253.41,249.72l.95.93,6.61,6.53.09.08.52.52-.4.4a3.24,3.24,0,0,0-.6-.43l-25.4,24.82c.51-.66,16.73-21.86,19-30.73a4.2,4.2,0,0,0-1.1-1.72Z"/><path d="M261.57,257.77l1.2,1.19,1.84,2-72.37,66.91-.81-.85,25-23.81,45.54-43.44a2.22,2.22,0,0,0-.78-1.57Z"/><path d="M244.29,258.18l.21.23-.56.5.35-.73"/><path d="M250.16,281s5.88-2,8.93.81h0l0,0,.1.08h0c3.26,3.26,346.55,346.64,418.88,415,120.34,113.64,160.26,140.69,170.66,143-2.45-10.36-30-49.93-145.2-168.78C634.32,599.64,290,257.24,286.74,254l-.13-.12h0c-2.88-3-.93-8.92-.93-8.92l1.25-2.27c-1.36,3.84,2.31,8.73,2.32,8.74C292.81,254.88,637,597.2,706.16,668.56c41.48,42.81,74.48,78.31,98.07,105.53,30.19,34.84,48.7,59.67,48.33,67.82l-.07,1.62-1.63.09c-8.14.47-33.22-17.71-68.45-47.45-27.52-23.24-63.45-55.77-106.78-96.69-72.52-68.48-416-412-419-415.05-.51-.36-5.11-3.51-8.72-2.17Z"/><path d="M235.31,290.74c3.33-3.48,7.93-5.55,15.38-5.06l4.28,4.23c-16.58-1.09-22.43,10.89-25.7,19.62-.4,1.09-.8,2.14-1.21,3.11l-2.51-1c.39-.94.78-2,1.18-3.05,1.81-4.82,3.42-12.14,8-17.21h0l.06-.07-.11-.15c.4-.29.62-.44.62-.39"/><path d="M219.43,304.64c-.18-.9,12.31-11.3,15.26-13.51l.11.15-.06.07h0l-.07.06c-7.63,7.28-8.46,16.21-9.57,16.48-.18-3.57-5.47-2.26-5.66-3.26"/><path d="M228.65,285.62c-6.71,6.8-16.82,13.39-28.15,18.78l-.56-1.18c.93-.45,1.81-.9,2.66-1.35a80.54,80.54,0,0,1-14.69,3.69l-.13-.83a73.74,73.74,0,0,0,31.31-14,95.17,95.17,0,0,0,24.86-31.84l.56-.5-.21-.23a78.17,78.17,0,0,0,3.14-7.65l2.43-2.17,3.38,1.2.17.17-.39.4c-1.3,3.2-8.4,19.32-24.37,35.51"/><path d="M200.5,304.4a152,152,0,0,1-15.14,6.23,10.39,10.39,0,0,1-1.08,1,6.1,6.1,0,0,1-5,1.55l.92,1.91c.48.24,11.69,5.28,29-10.23l6.45-2.52c-21.84,20-36.17,14.25-36.72,14L178.4,313a4.11,4.11,0,0,1-3.25-4.82,4.3,4.3,0,0,1,1.26-2.38c1.28-1.3,3-1.71,3.78-.93s.4,2.48-.88,3.79a4.37,4.37,0,0,1-2.29,1.28,4.34,4.34,0,0,0,5.64.06c2.95-2.33,3-5.45,1.16-7.42-1.12-1.17-5.89-5-11.42.83-10.65,11.17,10.88,22.38,18.12,17.71l-2.07,4.13c-.83.54-1.88.31-2.89.52-3.63,3.32-7.1,14.93-4.74,15.72.21-.56.41-1.16.62-1.77,1.33-3.83,3.8-8.71,7.7-11.2a4.59,4.59,0,0,1,1.33-.57l1-.93.81.85c2.6.37,4.82,2.63,5.21,3,2.65,2.16,4.71,4.45,7.16,4.11a4.87,4.87,0,0,0,3.4-2.15c1.57-2.25,1.72-4,1.41-6.6-.37-3.14-1.07-7.16,1.89-12l-.17-.58a2.31,2.31,0,0,1,.73-.26,22.13,22.13,0,0,1,2.59-3.11c2.72-2.76,5.45-4,7.32-3.46,2.24.61,2.84,3.73,3.36,5.75.13-.29.26-.59.39-.91l2.51,1q-.24.6-.5,1.17c-.72,1.57-1.46,3-2.82,2.85s-1.71-1.5-2.12-3.1c-.31-1.25-.85-3.35-1.7-3.59-.29-.07-1.42-.11-4.09,2.59-5.6,5.67-5.15,9.55-4.7,13.28.32,2.78.66,5.64-1.5,8.75a11.73,11.73,0,0,1-1.19,1.44,6.67,6.67,0,0,1-3.85,2.06c-3.62.5-7.11-2.35-10.2-4.86L194,332.1a5.28,5.28,0,0,0-4.3-.2c-3.16,1.37-4.94,6.49-6.11,9.87-1,2.77-1.45,4.17-2.71,4.46a1.75,1.75,0,0,1-1.65-.5c-5.15-5.09.48-17.23,1.84-19.92-10.21-1.61-22.43-13.64-11.39-24.82,6.66-6.76,14.81-2.67,16.43-.56a7.68,7.68,0,0,1,1.62,4.31h.06l.13.83-.2,0a7.69,7.69,0,0,1-.82,2.88,128.4,128.4,0,0,0,13-5.25Z"/><path d="M211.33,314.19c-4.75,4.63-1.54,14.13-5.17,18.61-3,3.73-10.36-5.52-10.36-5.52-1.2-.94,11.58-11.85,15.36-13.67Zm-4.81,11.25c.2-2.14-.2-3.92-.88-4s-1.4,1.62-1.6,3.75.2,3.93.88,4,1.4-1.62,1.6-3.76"/><path d="M668,667.56c-56.59-55.3-386.69-383.69-398.62-395.26-7.82.16-16.16,5.9-21.74,9.63-3.1,2.07-5.34,3.52-6.16,3l24.68-21.78s7.79,6.36,11.4,10.07c1.51,1.56,2.29,2.65,1.47,2.62a13.24,13.24,0,0,0-7.1-3.4C286.15,286.5,613.82,613.57,668.5,667,772,768.16,802.77,796.06,809.18,800.8c-4.83-6.35-33.11-36.73-135.6-138.93C619,607.44,290.82,280.05,277.14,266.58a13.31,13.31,0,0,0,3.58,7.63c0,.87-1.22-.06-3-1.74-3.79-3.68-9.9-11-9.9-11l21.46-25c.47.79-.84,2.93-2.76,5.9C283,247.91,277.4,256.19,277,264c11.54,11.62,340.9,341.39,397.08,397.42,36.91,36.81,66.76,66.86,88.73,89.32,28.11,28.75,45.23,47,47.79,51.18l.51.84-.85-.5c-4.25-2.5-22.67-19.38-51.79-47.11C735.76,733.45,705.33,704,668,667.56"/><path class="cls-3" d="M217.17,802.28c4.74-6.41,32.64-37.15,133.8-140.67,53.43-54.68,380.49-382.35,394.52-396.53a13.23,13.23,0,0,1-3.4,7.1c0,.82,1.07,0,2.62-1.47l.79.15c-1.69,1.75-2.61,3-1.74,3a13.31,13.31,0,0,1,7.63-3.57C737.92,283.91,410.53,612.1,356.11,666.67,253.9,769.16,223.52,797.45,217.17,802.28"/><path class="cls-3" d="M754,270.14c7.78.35,16.07,6,21.54,9.51l-.27.4L773,278.8s-5.91-2-8.92.92v0l-.12.13c-3.21,3.3-345.6,347.58-417.05,416.81C228,811.84,188.47,839.4,178.1,841.86c2.31-10.4,29.37-50.31,143-170.66,68.31-72.34,411.69-415.63,415-418.88h0l.08-.1,0,0h0c2.83-3.05.81-8.93.81-8.93L735.7,241l.34-.23c3.73,5.58,9.47,13.92,9.63,21.74-11.57,11.93-340,342-395.25,398.62-36.44,37.29-65.89,67.72-87.57,90.47-27.73,29.11-44.61,47.54-47.11,51.79l-.5.85.84-.51c4.22-2.55,22.43-19.68,51.18-47.79,22.46-22,52.52-51.81,89.32-88.73C412.6,611,742.37,281.68,754,270.14"/><path d="M849.84,143.53c-1.08-1.06-.9-3,.42-4.29a3.77,3.77,0,0,1,2.13-1.13l-4.54-4.48a6.1,6.1,0,1,1,8.58-8.68l3.34,3.29a6.32,6.32,0,0,1,10.71-5.3l1.5,1.48a12,12,0,0,1,16.93,16.71l1.5,1.48a6.32,6.32,0,0,1-5.16,10.79l3.34,3.29a6.1,6.1,0,1,1-8.58,8.68l-4.54-4.48a3.8,3.8,0,0,1-1.09,2.15c-1.32,1.33-3.2,1.55-4.28.48Zm1.71-3c-.62.63-.75,1.43-.45,1.73l20.27,20c.31.31,1.11.17,1.73-.46s.75-1.44.45-1.73l-20.27-20c-.3-.3-1.11-.17-1.73.47M887.92,149a2.71,2.71,0,0,0,0-3.83l-19.94-19.69a2.72,2.72,0,0,0-3.82,3.86l19.95,19.69a2.73,2.73,0,0,0,3.84,0m-1.83,13.75a2.49,2.49,0,0,0,0-3.51l-32.18-31.76a2.49,2.49,0,1,0-3.49,3.54l32.17,31.75a2.49,2.49,0,0,0,3.51,0m.24-24.21A8.35,8.35,0,0,0,874.6,127Z"/><path d="M848.67,143.76l17.93,17.7-24.85-10.72c1.74-4.37,4.63-6.28,6.92-7m12.7,14.3-12.19-11.76c-2,.56-3.55,2.22-3.19,3.92Z"/><path d="M841.71,155.52c-1.65-.22-2.92,2-2.14,3.19L859.31,166c1.49-.21,2-.91,2.39-2.45Zm22.38,15.2L833.46,159a11.12,11.12,0,0,1,5.94-6l28.87,10.74,1.37,1.32c-.7,2.64-2.75,4.28-5.54,5.63"/><path d="M844.12,312.65c-.54.3-14.79,6.27-36.89-13.48l6.48,2.43c17.51,15.29,28.64,10.1,29.11,9.84l.91-1.91a6.15,6.15,0,0,1-5-1.48,11.94,11.94,0,0,1-1.09-1c-4.51-1.51-9-3.25-13.29-5.18l.54-1.19c3.56,1.55,7.5,3,11.2,4.22a7.67,7.67,0,0,1-.85-2.87l-.26,0,.11-.83.13,0a7.68,7.68,0,0,1,1.57-4.32c1.58-2.14,9.67-6.34,16.43.34,11.18,11-.88,23.23-11.07,25,1.39,2.67,7.18,14.73,2.08,19.89a1.72,1.72,0,0,1-1.63.52c-1.27-.28-1.77-1.66-2.77-4.43-1.21-3.36-3.06-8.45-6.23-9.79a5.31,5.31,0,0,0-4.31.27l-1.39,1.15c-3,2.55-6.5,5.45-10.14,5a6.62,6.62,0,0,1-3.87-2,10.91,10.91,0,0,1-1.21-1.42c-2.2-3.08-1.9-6-1.61-8.72.39-3.75.8-7.62-4.88-13.23-2.7-2.66-3.84-2.61-4.12-2.53-.85.24-1.35,2.34-1.65,3.61-.38,1.6-.72,3-2.08,3.12s-2.12-1.25-2.86-2.81c-.6-1.27-1.17-2.72-1.76-4.26l2.52-1c.56,1.42,1.08,2.78,1.62,3.94.5-2,1.05-5.15,3.29-5.79,1.86-.53,4.61.64,7.36,3.36a22.42,22.42,0,0,1,2.63,3.07,3.09,3.09,0,0,1,.93.35l-.36.49c3,4.78,2.38,8.8,2,12-.27,2.58-.1,4.34,1.5,6.57a4.82,4.82,0,0,0,3.42,2.11c2.46.31,4.49-2,7.12-4.2.38-.32,2.58-2.61,5.17-3l.8-.86,1,.92A4.44,4.44,0,0,1,834,325c3.93,2.44,6.47,7.28,7.85,11.1.21.6.41,1.21.64,1.76,2.34-.82-1.28-12.38-5-15.66-1-.2-2.06,0-2.89-.48l-2.12-4.11c7.3,4.58,28.68-6.9,17.89-17.94-5.61-5.74-10.33-1.88-11.44-.69-1.85,2-1.72,5.1,1.26,7.4a4.36,4.36,0,0,0,5.64-.13,4.38,4.38,0,0,1-2.31-1.25c-1.3-1.29-1.71-3-.93-3.78s2.48-.4,3.79.88a4.4,4.4,0,0,1,1.3,2.36,4.11,4.11,0,0,1-3.18,4.85Z"/><path d="M824,168.7l31.72,10.51c-.3,1.75-2.82,4.84-5.2,5.34-.69-.15-32.66-9.9-32.66-9.9.38-2.32,3.5-4.76,6.14-6m21.78,9.2-19.87-6.28c-1.92-.08-2.75,1.28-2.29,2.05L844,180.33c1.31-.14,3-.91,1.85-2.44"/><path d="M857.37,177.64l-31.65-10.92a11.56,11.56,0,0,1,5.59-5.4l31.76,10.45a9.38,9.38,0,0,1-5.69,5.87m-3.55-7-20-6.49c-1.68,0-2.31,1-1.6,2l19.67,6.76a2,2,0,0,0,1.91-2.29"/><path d="M811.18,187.52c-2,.52-4,2.75-3.38,4L829,197.12c3,.06,5.06-2.18,2.92-3.83Zm-3.91-3c.72.14,34.21,9.48,34.21,9.48-.39,2.47-4,6.17-6.85,7.36,0,0-35-8.78-35.69-9,.15-1.86,4.94-7.21,8.32-7.85"/><path d="M797.15,194.08c.67.21,36.15,8.67,36.15,8.67a10.35,10.35,0,0,1-6,6.49c-.63-.2-37-8.06-37.64-8.28.58-2.36,4.83-6.66,7.44-6.88m27.08,8.1-23.06-5.26c-1.81.52-2.79,1.53-2.69,2.81l23.3,5.26c2.09.26,3.68-1.2,2.45-2.8"/><path d="M817.08,329.47c-3.68-4.43-.61-14-5.42-18.54l.36-.49c4,2,16.51,12.44,15.34,13.37,0,0-7.23,9.35-10.29,5.66m.37-11.35c-.68.07-1.05,1.86-.83,4s1,3.81,1.65,3.74,1.05-1.86.83-4-1-3.81-1.65-3.74"/><path d="M788.27,202.29c.72.17,38,8.1,38,8.1-.71,3.21-3.67,6.11-6.57,7.32,0,0-38.65-8-39.3-8.22.86-2.68,6.24-6.63,7.9-7.2m29.44,7.27-26.05-5.49c-.82.76-2.13,2.28-3.36,3.4l26.89,6c1.8-.3,3.86-2.17,2.52-3.89"/><path d="M814.45,182.7l21.94,6c2.63.58,4.78-1.6,3.08-3.11l-21.58-6.08c-2.45.68-3.51,1.69-3.45,3.24m28.17,10.15-33.88-9.69c.55-2.63,4.24-5.72,6.66-6.82l33.49,9.77c-.48,2.43-3.21,5.56-6.27,6.74"/><path d="M810.67,218.82l-29.57-5.63c-2,1.78-.86.93-2.83,2.72l29.58,5.8c2.09,0,3.45-1.16,2.82-2.88m-32-7.86,40.12,7.65c.35,3.09-4,6.82-6.71,7.51l-41.2-8c.82-3,4.8-6.66,7.78-7.13"/><path d="M769.66,219.13,811.4,227c-.18,2.68-4,7.23-7.27,8l-43.4-7.51s4.36-8.83,8.93-8.36m33.61,8.45L773,221.75l-3.28,3.34,30.71,5.53c1.78,0,3.63-1.17,2.8-3"/><path d="M787.36,247.69l-15.24-2.64c-.26-.67-.48-1.27-.66-1.77,5,.88,21.56,3.8,21.92,3.93-.36,1.57-3.78,6.89-7.13,8.15-.43-.13-7-1.51-10.51-2.24-.75-1.47-1.41-2.86-2-4.12l10.32,2.15c2.25.14,3.26-3.46,3.26-3.46"/><path d="M788,288.17c3,2.17,15.59,12.41,15.43,13.3s-5.48-.23-5.62,3.34c-1.13-.26-2.06-9.17-9.79-16.36l-.14-.13Z"/><path d="M787.4,287.8c0-.06.19.07.62.38l-.12.16c4.7,5,6.41,12.35,8.3,17.18l-2.52,1c-3.39-8.67-9.39-20.58-26-19.28l4.23-4.29c7.45-.59,12.07,1.43,15.45,4.87"/><path d="M784.83,257.81a14.76,14.76,0,0,1-2.69,4.5,30.52,30.52,0,0,1-3.39-5.62c3.38.61,5.95,1.07,6.09,1.12"/><path d="M776.92,253.07c.57,1.26,1.23,2.65,2,4.12l-2.17-.45-2.86-4.3Z"/><path d="M775.26,249.12l-2.92-.51.83-1.52,1.44.26c.18.51.39,1.11.66,1.77"/><path d="M770.18,241.39l-.56,1.57-2.17-2.43c1.74.61,2.73.86,2.73.86"/><path d="M773.87,252.43l2.86,4.3,2.17.45a95.17,95.17,0,0,0,24.72,30.4A73.33,73.33,0,0,0,835,301.15l-.11.83a78.4,78.4,0,0,1-14.68-3.48c1.42.74,3,1.46,4.59,2.17l-.54,1.19c-12.17-5.39-23.14-12.19-30.32-19.27-16.18-16-23.48-32-24.82-35.19l-.11.11-.4-.39.29-.29,4.91-1.82h0s.23.85.76,2.34l-1.44-.26-.83,1.52,2.92.51c.43,1.13,1,2.45,1.65,3.95Z"/><path d="M795.95,237l-36.13-6.49h0l-3.17,2.83-.73-.35-.71-.78a5.73,5.73,0,0,1,4.27-3.85c2.39.45,42.88,7.78,43.52,8-.76,3.8-5.89,8-7.81,8.9l-24.49-4.25h0l-2.83-.49-12.77-6.14,37.47,6.23c1.53-.05,3.51-2.31,3.38-3.56"/><path d="M769,247.51a4.31,4.31,0,0,0-1,1.62c2.39,9,19.37,30.5,19.37,30.5l-25.73-24.51a3.09,3.09,0,0,0-.7.54l-.41-.4.61-.62.08-.09,6.53-6.61.81-.83Z"/><path d="M760.59,255.26l.41.4a2.18,2.18,0,0,0-.66,1.48L806.45,300l25.27,23.49-.8.86-73.23-66,1.82-2Z"/><path d="M768.25,246.51l-.93.95-6.53,6.61-.08.09-.52.52-.4-.4a3.24,3.24,0,0,0,.43-.6l-24.82-25.4c.66.51,21.86,16.73,30.73,19a4.2,4.2,0,0,0,1.72-1.1Z"/><path d="M760.2,254.67l-1.19,1.2-2,1.84-66.91-72.37.85-.81,23.81,25L758.22,255a2.22,2.22,0,0,0,1.57-.78Z"/><path d="M759.79,237.38l-.23.21-.5-.56.73.35"/><path d="M737,243.26s2,5.88-.81,8.93h0l0,0-.08.1h0c-3.26,3.26-346.64,346.55-415,418.88-113.64,120.34-140.69,160.26-143,170.66,10.36-2.45,49.93-30,168.78-145.2,71.45-69.23,413.84-413.51,417.05-416.81l.12-.13v0c3-2.88,8.92-.93,8.92-.93l2.27,1.25c-3.84-1.36-8.73,2.31-8.74,2.32-3.43,3.53-345.75,347.71-417.11,416.87-42.81,41.48-78.31,74.48-105.53,98.07C209,827.52,184.2,846,176.05,845.66l-1.62-.07-.09-1.63c-.47-8.14,17.71-33.22,47.45-68.45C245,748,277.55,712.06,318.48,668.72c68.48-72.52,412-416,415.05-419,.36-.51,3.51-5.11,2.17-8.72Z"/><path d="M727.23,228.4c3.48,3.33,5.55,7.93,5.06,15.38l-4.23,4.28c1.09-16.58-10.89-22.43-19.62-25.7-1.09-.4-2.14-.8-3.11-1.21l1-2.51c.94.39,2,.78,3.05,1.18,4.82,1.81,12.14,3.42,17.21,8h0l.07.06.15-.11c.29.4.44.62.39.62"/><path d="M713.33,212.52c.9-.18,11.3,12.31,13.51,15.26l-.15.11-.07-.06h0l-.06-.07c-7.28-7.63-16.21-8.46-16.48-9.57,3.57-.18,2.26-5.47,3.26-5.66"/><path d="M732.35,221.74c-6.8-6.71-13.39-16.82-18.78-28.15l1.18-.56c.45.93.9,1.81,1.35,2.66A80.54,80.54,0,0,1,712.41,181l.83-.13a73.74,73.74,0,0,0,14,31.31A95.17,95.17,0,0,0,759.06,237l.5.56.23-.21a78.17,78.17,0,0,0,7.65,3.14l2.17,2.43-1.2,3.38-.17.17-.4-.39c-3.2-1.3-19.32-8.4-35.51-24.37"/><path d="M713.57,193.59a152,152,0,0,1-6.23-15.14,10.39,10.39,0,0,1-1-1.08,6.1,6.1,0,0,1-1.55-5l-1.91.92c-.24.48-5.28,11.69,10.23,29l2.52,6.45c-20-21.84-14.25-36.17-14-36.72l3.34-.51a4.11,4.11,0,0,1,4.82-3.25,4.3,4.3,0,0,1,2.38,1.26c1.3,1.28,1.71,3,.93,3.78s-2.48.4-3.79-.88a4.37,4.37,0,0,1-1.28-2.29,4.34,4.34,0,0,0-.06,5.64c2.33,2.95,5.45,3,7.42,1.16,1.17-1.12,5-5.89-.83-11.42-11.17-10.65-22.38,10.88-17.71,18.12l-4.13-2.07c-.54-.83-.31-1.88-.52-2.89-3.32-3.63-14.93-7.1-15.72-4.74.56.21,1.16.41,1.77.62,3.83,1.33,8.71,3.8,11.2,7.7a4.59,4.59,0,0,1,.57,1.33l.93,1-.85.81c-.37,2.6-2.63,4.82-3,5.21-2.16,2.65-4.45,4.71-4.11,7.16a4.87,4.87,0,0,0,2.15,3.4c2.25,1.57,4,1.72,6.6,1.41,3.14-.37,7.16-1.07,12,1.89l.58-.17a2.31,2.31,0,0,1,.26.73,22.13,22.13,0,0,1,3.11,2.59c2.76,2.72,4,5.45,3.46,7.32-.61,2.24-3.73,2.84-5.75,3.36l.91.39-1,2.51q-.6-.24-1.17-.5c-1.57-.72-3-1.46-2.85-2.82s1.5-1.71,3.1-2.12c1.25-.31,3.35-.85,3.59-1.7.07-.29.11-1.42-2.59-4.09-5.67-5.6-9.55-5.15-13.28-4.7-2.78.32-5.64.66-8.75-1.5a11.73,11.73,0,0,1-1.44-1.19,6.67,6.67,0,0,1-2.06-3.85c-.5-3.62,2.35-7.11,4.86-10.2l1.13-1.41a5.28,5.28,0,0,0,.2-4.3c-1.37-3.16-6.49-4.94-9.87-6.11-2.77-1-4.17-1.45-4.46-2.71a1.75,1.75,0,0,1,.5-1.65c5.09-5.15,17.23.48,19.92,1.84C693.76,164,705.8,151.73,717,162.77c6.76,6.66,2.67,14.81.56,16.43a7.68,7.68,0,0,1-4.31,1.62s0,0,0,.06l-.83.13c0-.07,0-.14,0-.2a7.69,7.69,0,0,1-2.88-.82,128.4,128.4,0,0,0,5.25,13Z"/><path d="M703.78,204.42c-4.63-4.75-14.13-1.54-18.61-5.17-3.73-3,5.52-10.36,5.52-10.36.94-1.2,11.85,11.58,13.67,15.36Zm-11.25-4.81c2.14.2,3.92-.2,4-.88s-1.62-1.4-3.75-1.6-3.93.2-4,.88,1.62,1.4,3.76,1.6"/><path d="M350.41,661.14c55.3-56.59,383.69-386.69,395.26-398.62-.16-7.82-5.9-16.16-9.63-21.74-2.07-3.1-3.52-5.34-3-6.16l21.78,24.68s-6.36,7.79-10.07,11.4c-1.56,1.51-2.65,2.29-2.62,1.47a13.24,13.24,0,0,0,3.4-7.1C731.47,279.25,404.4,606.92,351,661.6,249.81,765.12,221.91,795.87,217.17,802.28c6.35-4.83,36.73-33.11,138.93-135.6,54.42-54.57,381.81-382.76,395.28-396.43a13.31,13.31,0,0,0-7.63,3.58c-.87,0,.06-1.22,1.74-3,3.68-3.79,11-9.9,11-9.9l25,21.46c-.79.47-2.93-.84-5.9-2.76-5.47-3.54-13.75-9.16-21.54-9.51C742.37,281.68,412.6,611,356.57,667.22,319.77,704.14,289.71,734,267.25,756c-28.75,28.11-47,45.23-51.18,47.79l-.84.51.5-.85c2.5-4.25,19.38-22.67,47.11-51.79,21.68-22.75,51.13-53.18,87.57-90.47"/><path class="cls-5" d="M511.8,942.49s184.41-63,248.87-260.91c56.13-172.32,15.8-341.88,15.8-341.88s-80.26,16-159.47-21.07S510.73,198.85,510.73,198.85s-24.91,82.68-104.12,119.79S247.13,339.7,247.13,339.7s-40.33,169.56,15.8,341.88C327.39,879.49,511.8,942.49,511.8,942.49Z"/><path class="cls-6" d="M511.8,283.87s-25.2,44.31-95,75.5S277.81,383,277.81,383,245,524.2,293.4,657.2c67,184.08,218.41,222,218.41,222s151.42-37.89,218.41-222C778.61,524.2,745.8,383,745.8,383s-69.1,7.56-138.95-23.63S511.8,283.87,511.8,283.87Z"/><g class="cls-7"><polygon points="252.48 425.21 309.98 425.21 309.98 367.7 367.49 367.7 367.49 425.21 424.99 425.21 424.99 367.7 482.5 367.7 482.5 425.21 540 425.21 540 367.7 597.51 367.7 597.51 425.21 655.01 425.21 655.01 367.7 712.52 367.7 712.52 425.21 770.02 425.21 770.02 367.7 827.53 367.7 827.53 879.17 252.48 879.17 252.48 425.21"/><line class="cls-8" x1="309.98" y1="425.21" x2="309.98" y2="879.17"/><line class="cls-8" x1="367.64" y1="425.53" x2="367.64" y2="879.49"/><line class="cls-8" x1="425.33" y1="425.21" x2="425.33" y2="879.17"/><line class="cls-8" x1="482.92" y1="425.21" x2="482.92" y2="879.17"/><line class="cls-8" x1="539.9" y1="424.59" x2="539.9" y2="878.55"/><line class="cls-8" x1="597.49" y1="424.59" x2="597.49" y2="878.55"/><line class="cls-8" x1="655.19" y1="424.59" x2="655.19" y2="878.55"/><line class="cls-8" x1="712.48" y1="424.59" x2="712.48" y2="878.55"/><line class="cls-8" x1="770.09" y1="423.51" x2="770.09" y2="877.48"/><line class="cls-8" x1="246.86" y1="478" x2="829.48" y2="478"/><line class="cls-8" x1="246.86" y1="531.78" x2="829.48" y2="531.78"/><line class="cls-8" x1="246.86" y1="585.55" x2="829.48" y2="585.55"/><line class="cls-8" x1="246.86" y1="639.33" x2="829.48" y2="639.33"/><line class="cls-8" x1="246.86" y1="693.11" x2="829.48" y2="693.11"/><line class="cls-8" x1="246.86" y1="746.89" x2="829.48" y2="746.89"/><line class="cls-8" x1="246.86" y1="798.51" x2="829.48" y2="798.51"/><line class="cls-8" x1="246.86" y1="852.29" x2="829.48" y2="852.29"/><circle class="cls-5" cx="511.5" cy="647.99" r="136.73" transform="translate(-215.96 257.7) rotate(-23.5)"/><circle class="cls-6" cx="511.5" cy="647.99" r="91.15" transform="translate(-215.96 257.7) rotate(-23.5)"/><circle class="cls-6" cx="511.5" cy="647.99" r="45.58" transform="translate(-215.96 257.7) rotate(-23.5)"/><circle class="cls-6" cx="511.5" cy="647.99" r="15.19" transform="translate(-215.96 257.7) rotate(-23.5)"/><line class="cls-6" x1="386.11" y1="702.51" x2="636.89" y2="593.46"/><line class="cls-6" x1="566.02" y1="773.38" x2="456.98" y2="522.59"/><line class="cls-6" x1="461.39" y1="775.2" x2="561.61" y2="520.77"/><line class="cls-6" x1="638.72" y1="698.1" x2="384.28" y2="597.87"/><circle cx="486.91" cy="710.53" r="9.31" transform="translate(-359.81 552.41) rotate(-45)"/><circle cx="470.02" cy="666.02" r="9.31" transform="translate(-333.28 527.43) rotate(-45)"/><circle cx="435.03" cy="617.86" r="9.31" transform="translate(-309.48 488.58) rotate(-45)"/><circle cx="499.22" cy="619.74" r="9.31" transform="translate(-292 534.52) rotate(-45)"/><circle cx="529.29" cy="602.84" r="9.31" transform="translate(-271.25 550.83) rotate(-45)"/><circle cx="618.86" cy="601.3" r="9.31" transform="translate(-243.92 613.72) rotate(-45)"/><circle cx="593.61" cy="680.33" r="9.31" transform="translate(-307.2 619.01) rotate(-45)"/><circle cx="523" cy="674.44" r="9.31" transform="translate(-323.72 567.36) rotate(-45)"/><polygon class="cls-9" points="486.91 710.53 470.02 666.02 435.03 617.86 499.22 619.74 529.29 602.84 618.86 601.3 593.61 680.33 523 674.44 486.91 710.53"/><circle class="cls-10" cx="630.98" cy="528.51" r="22.06" transform="translate(-188.9 600.97) rotate(-45)"/><circle class="cls-10" cx="681.19" cy="647.99" r="22.06"/><circle class="cls-10" cx="511.5" cy="817.67" r="22.06"/><circle class="cls-10" cx="630.98" cy="767.46" r="22.06" transform="translate(-357.87 670.95) rotate(-45)"/><circle class="cls-10" cx="392.03" cy="767.46" r="22.06" transform="translate(-427.86 501.99) rotate(-45)"/><circle class="cls-10" cx="341.82" cy="647.99" r="22.06"/><circle class="cls-10" cx="392.03" cy="528.51" r="22.06" transform="translate(-258.89 432) rotate(-45)"/><circle class="cls-10" cx="511.5" cy="478.3" r="22.06"/></g><path class="cls-1" d="M511.8,283.87s-25.2,44.31-95,75.5S277.81,383,277.81,383,245,524.2,293.4,657.2c67,184.08,218.41,222,218.41,222s151.42-37.89,218.41-222C778.61,524.2,745.8,383,745.8,383s-69.1,7.56-138.95-23.63S511.8,283.87,511.8,283.87Z"/></g><g id="Embroidery"><path d="M474.66,263.66A66.59,66.59,0,0,0,486.53,258C477.83,255.84,474.66,263.66,474.66,263.66Z"/><path d="M501.52,222c5.1,5.81,7.14,13.42,6.49,21.55a17.67,17.67,0,0,1-9.75,14.73,20.11,20.11,0,0,0,5.08-11.38c1-8.08-7.23-14.8-7.23-14.8s5.81,9.56-.46,18.06a32.54,32.54,0,0,1-9.12,7.83c.34.08.68.18,1,.29,9.9,3.21,12.22,8.5,8.15,13.65s-9.55,3.9-10.74-1.08c-1.55-6.48,5.39-4.55,5.39-4.55a5,5,0,0,0-5.39-1.58c-3.69.91-5.17,3.61-5.17,7.58,0,4.24,2.88,13.51,14.06,11,8.4-1.9,8.09-11.81,11.41-12.18s6.46,8.7,6.46,8.7l-.69-81.54Zm6.24,38.92c-.91,2.12-2.59,3.43-3.76,2.93s-1.38-2.62-.48-4.74,2.59-3.43,3.76-2.93S508.67,258.82,507.76,260.93Z"/><path d="M547.85,264.1A66.59,66.59,0,0,1,536,258.44C544.68,256.28,547.85,264.1,547.85,264.1Z"/><path d="M538.27,265a5,5,0,0,0-5.39,1.58s6.95-1.93,5.39,4.55c-1.19,5-6.68,6.22-10.74,1.08s-1.75-10.44,8.15-13.65c.35-.11.7-.21,1-.29a32.54,32.54,0,0,1-9.12-7.83c-6.28-8.49-.46-18.06-.46-18.06s-8.2,6.71-7.23,14.8A20.11,20.11,0,0,0,525,258.52a17.67,17.67,0,0,1-9.75-14.73c-.65-8.13,1.38-15.74,6.49-21.55l-10.67-24,.69,81.54s2.9-8.84,6.22-8.47,3,10.28,11.41,12.18c11.18,2.53,14.06-6.74,14.06-11C543.44,268.57,542,265.87,538.27,265Zm-19-.88c-1.17.5-2.85-.81-3.76-2.93s-.69-4.24.48-4.74,2.85.81,3.76,2.93S520.41,263.58,519.24,264.08Z"/><path class="cls-3" d="M504,220.08s2-5.15,3.06-8.34,3.6-12.65,3.6-12.65l0,33.72s-1.42-3.44-3.54-7.61A50.32,50.32,0,0,0,504,220.08Z"/><path d="M485,256.29a31.46,31.46,0,0,0,5.83-7,61.84,61.84,0,0,0,3.42-8.07,6.22,6.22,0,0,1,0,7.53C491.39,252.8,485,256.29,485,256.29Z"/><path d="M490.79,264.1a9.58,9.58,0,0,0-10.56,1.6c-4.14,3.62-3,10.49.95,15.24,4.27,5.07,13,5.17,18.86,0,0,0-13.28,14-23.12,4.66-9.34-8.87-3.8-18.15,2.8-22C485.09,260.38,490.79,264.1,490.79,264.1Z"/><path d="M531.74,264.1a9.58,9.58,0,0,1,10.56,1.6c4.14,3.62,3,10.49-.95,15.24-4.27,5.07-13,5.17-18.86,0,0,0,13.28,14,23.12,4.66,9.34-8.87,3.8-18.15-2.8-22C537.45,260.38,531.74,264.1,531.74,264.1Z"/><path d="M299.1,342.24c-20.2.71-51.6-2.67-51.6-2.67s.12,28.7,22,30.09c19.85,1.27,25.33-18,25.33-18S299.2,359.1,310,358a17.82,17.82,0,0,0,14.47-9.45s7.82,3.61,14.92,0c2.55-1.3,5.24-4.91,5.24-4.91s9.9,1.47,16-1.29,9.74-10.17,9.74-10.17S347,340.54,299.1,342.24ZM269,363.58c-18.92-3-18-22-18-22a139.43,139.43,0,0,0,21,4,137.81,137.81,0,0,0,19.24.82S287.94,366.56,269,363.58Zm39.13-8.13c-8.56,0-13.19-9.58-13.19-9.58s3.58,0,13.11-.61,12.42-1.32,13.76-1.45C321.84,343.82,318.43,355.45,308.15,355.45Zm26.16-8.07c-5.48.91-9.4-3.76-9.4-3.76a76.8,76.8,0,0,0,8.05-1.24c4.9-1,9.07-2.2,9.07-2.2A9.4,9.4,0,0,1,334.31,347.38Zm21.94-6.28a13,13,0,0,1-10.87-1.5s3.17-.83,9.65-2.27a91.37,91.37,0,0,0,10-2.71A14.1,14.1,0,0,1,356.25,341.1Z"/><path d="M295,344.66s7.07,12.74,15.59,10.08c6.9-2.15,5.55-8.34,1.83-9.14-4.24-.91-4.82,3.48-4.82,3.48s1.65-3.13,3.95-1.72c2,1.24,1.11,3,0,3.76a4.68,4.68,0,0,1-6.52-1.47c-1.76-2.8,1.31-5.47,1.31-5.47"/><path d="M342,340.18s-2.71,3-5.94,3.63a15.42,15.42,0,0,1-6,0s1.91,2.29,6,1.75S342,340.18,342,340.18Z"/><path d="M248.84,339.7s8.33,9.93,17.74,11.26c10.81,1.53,21.38-2.84,21.38-2.84s-11,9.22-21.38,8.87S248.84,339.7,248.84,339.7Z"/><path d="M324.66,349.89s6.94,3,13.31,1.08,6.79-5.94,6.79-5.94a8.46,8.46,0,0,1-5.45,8.74C333,356.38,324.66,349.89,324.66,349.89Z"/><path d="M652.81,333.05s3.68,7.4,9.74,10.17,16,1.29,16,1.29,2.69,3.61,5.24,4.91c7.11,3.61,14.92,0,14.92,0a17.82,17.82,0,0,0,14.47,9.45c10.76,1.08,15.13-6.32,15.13-6.32s5.49,19.23,25.33,18c21.88-1.4,22-30.09,22-30.09s-31.4,3.38-51.6,2.67C676.08,341.4,652.81,333.05,652.81,333.05Zm79,14.22a137.81,137.81,0,0,0,19.24-.82,139.43,139.43,0,0,0,21-4s.89,19-18,22S731.85,347.27,731.85,347.27Zm-30.58-2.6c1.34.13,4.3.81,13.76,1.45s13.11.61,13.11.61-4.63,9.58-13.19,9.58C704.67,356.3,701.27,344.67,701.27,344.67ZM681.08,341s4.17,1.2,9.07,2.2a76.8,76.8,0,0,0,8.05,1.24s-3.93,4.67-9.4,3.76A9.4,9.4,0,0,1,681.08,341Zm-23-5.55a91.37,91.37,0,0,0,10,2.71c6.48,1.44,9.65,2.27,9.65,2.27a13,13,0,0,1-10.87,1.5A14.1,14.1,0,0,1,658.07,335.48Z"/><path d="M728.14,345.51s-7.07,12.74-15.59,10.08c-6.9-2.15-5.55-8.34-1.83-9.14,4.24-.91,4.82,3.48,4.82,3.48s-1.65-3.13-3.95-1.72c-2,1.24-1.11,3,0,3.76a4.68,4.68,0,0,0,6.52-1.47c1.76-2.8-1.31-5.47-1.31-5.47"/><path d="M681.08,341s2.71,3,5.94,3.63a15.42,15.42,0,0,0,6,0s-1.91,2.29-6,1.75S681.08,341,681.08,341Z"/><path d="M774.27,340.56s-8.33,9.93-17.74,11.26c-10.81,1.53-21.38-2.84-21.38-2.84s11,9.22,21.38,8.87S774.27,340.56,774.27,340.56Z"/><path d="M698.45,350.74s-6.94,3-13.31,1.08-6.79-5.94-6.79-5.94a8.46,8.46,0,0,0,5.45,8.74C690.1,357.23,698.45,350.74,698.45,350.74Z"/><path d="M506.07,899.38s-3.23,24-21.19,21.11C469.55,918,465.74,894,465.74,894s9.14,19.46,20.7,19.54C500.26,913.64,506.07,899.38,506.07,899.38Z"/><path d="M366.57,847.78a47.16,47.16,0,0,0,9.07,7.67C367.46,848.2,363.38,844.42,366.57,847.78Z"/><path d="M501.71,917c-13.88,13.63-26.54,3.53-29.08.32-4.77-6-6.13-13.11-9.58-21.89-3.94-10-11.33-15.48-27.61-12.37-12.19,2.33-18.55,1.14-24-3.82-4.41-4-5.62-11.68-12.1-16.55-7.15-5.36-13.27-.73-23.72-7.25,15.8,14,46.91,40.9,70.77,54.45,10.33,5.87,20.38,11.16,29.39,15.69-.5-.28-12.67-7.32-16.73-20.71-4.94-16.28-12-16.62-16.28-13.93-3.38,2.11-3.45,8.44,1.25,9.5,3,.68,6.09-2.87,3.94-5.52-2.73-3.37-5.38,1.08-5.38,1.08s2-5.93,7.53-3.08c4.24,2.2,4.3,11.58-3.59,12-10.22.55-12.19-10.42-7.89-15.53,4.13-4.9,10-5.44,15.6-1.08s5.92,11.41,9.14,20.55,12.37,16.69,12.42,16.73c20.79,10.46,36,16.88,36,16.88V883.07S509.05,909.8,501.71,917Z"/><path d="M517.54,899.38s3.23,24,21.19,21.11C554.06,918,557.87,894,557.87,894s-9.14,19.46-20.7,19.54C523.35,913.64,517.54,899.38,517.54,899.38Z"/><path d="M657,847.78a47.16,47.16,0,0,1-9.07,7.67C656.15,848.2,660.23,844.42,657,847.78Z"/><path d="M521.9,917c13.88,13.63,26.54,3.53,29.08.32,4.77-6,6.13-13.11,9.58-21.89,3.94-10,11.33-15.48,27.61-12.37,12.19,2.33,18.55,1.14,24-3.82,4.41-4,5.62-11.68,12.1-16.55,7.15-5.36,13.27-.73,23.72-7.25-15.8,14-46.91,40.9-70.77,54.45-10.33,5.87-20.38,11.16-29.39,15.69.5-.28,12.67-7.32,16.73-20.71,4.94-16.28,12-16.62,16.28-13.93,3.38,2.11,3.45,8.44-1.25,9.5-3,.68-6.09-2.87-3.94-5.52C578.35,891.57,581,896,581,896s-2-5.93-7.53-3.08c-4.24,2.2-4.3,11.58,3.59,12,10.22.55,12.19-10.42,7.89-15.53-4.13-4.9-10-5.44-15.6-1.08s-5.92,11.41-9.14,20.55-12.37,16.69-12.42,16.73c-20.79,10.46-36,16.88-36,16.88V883.07S514.56,909.8,521.9,917Z"/><path d="M612,877.42c-.24.37,1.86-1.23,3.24-5.09,1-2.93,2.84-7.19,6.38-10.11,8.45-6.95,18.5-3.47,22-6.78,2.21-2.08,15.51-14.51,15.51-14.51s-12.91,10.4-21.87,11.11-12,.69-18.37,5.65c-3.94,3-5.44,9.09-5.58,12.82A19.77,19.77,0,0,1,612,877.42Z"/><path class="cls-3" d="M485.9,927s10.31.18,15.51-3.94,8.07-12.91,8.07-12.91v27.79a81,81,0,0,1-11.79-4.17A84.7,84.7,0,0,1,485.9,927Z"/><path d="M411.58,877.42c.24.37-1.86-1.23-3.24-5.09-1-2.93-2.84-7.19-6.38-10.11-8.45-6.95-18.5-3.47-22-6.78-2.21-2.08-15.51-14.51-15.51-14.51s12.91,10.4,21.87,11.11,12,.69,18.37,5.65c3.94,3,5.44,9.09,5.58,12.82A19.77,19.77,0,0,0,411.58,877.42Z"/><circle class="cls-5" cx="445.25" cy="319.89" r="6.94"/><circle class="cls-5" cx="372.12" cy="353.23" r="6.94"/><circle class="cls-5" cx="250.58" cy="473.7" r="6.94"/><circle class="cls-5" cx="252.73" cy="546.83" r="6.94"/><circle class="cls-5" cx="264.47" cy="623.91" r="6.94"/><circle class="cls-5" cx="287.81" cy="696.94" r="6.94"/><circle class="cls-5" cx="322.07" cy="760.02" r="6.94"/><circle class="cls-5" cx="365.1" cy="813.8" r="6.94"/><circle class="cls-5" cx="422.1" cy="864.35" r="6.94"/><circle class="cls-5" cx="486.63" cy="898.77" r="6.94"/><path d="M611.73,877.42c-.24.37,1.86-1.23,3.24-5.09,1-2.93,2.84-7.19,6.38-10.11,8.45-6.95,18.5-3.47,22-6.78,2.21-2.08,15.51-14.51,15.51-14.51s-12.91,10.4-21.87,11.11-12,.69-18.37,5.65c-3.94,3-5.44,9.09-5.58,12.82A19.77,19.77,0,0,1,611.73,877.42Z"/><circle class="cls-5" cx="578.06" cy="319.89" r="6.94"/><circle class="cls-5" cx="651.19" cy="353.23" r="6.94"/><circle class="cls-5" cx="772.73" cy="473.7" r="6.94"/><circle class="cls-5" cx="770.58" cy="546.83" r="6.94"/><circle class="cls-5" cx="758.84" cy="623.91" r="6.94"/><circle class="cls-5" cx="735.5" cy="696.94" r="6.94"/><circle class="cls-5" cx="701.24" cy="760.02" r="6.94"/><circle class="cls-5" cx="658.21" cy="813.8" r="6.94"/><circle class="cls-5" cx="601.21" cy="864.35" r="6.94"/><circle class="cls-5" cx="536.68" cy="898.77" r="6.94"/><path class="cls-11" d="M615.52,149.37s-8.85-5-15.85-1c0,0-6.51-10.52-16-2.51,0,0,5.83,2.77,4.51,12.52-1.51,11-17.23,22.53-27.54,13-4-3.68-5.71-9.41-6.46-13.31a4.27,4.27,0,1,0-2.43-.4c-2.67,4.74-8.1,12.05-15.65,10.71-14-2.51-18-27.92-18-37.55,0-2.5,2.5-6.51,6-4.51s2,9.51,2,9.51c5.51-4,7.51-11.51,2.51-16.52a8.5,8.5,0,0,0-10.51-1.5s1-18.21-6.26-22.21c-7.26,4-6.26,22.21-6.26,22.21a8.5,8.5,0,0,0-10.51,1.5c-5,5-3,12.51,2.51,16.52,0,0-1.51-7.51,2-9.51s6,2,6,4.51c0,9.63-4,35-18,37.55-7.55,1.34-13-6-15.65-10.71a4.27,4.27,0,1,0-2.43.4c-.74,3.9-2.47,9.63-6.46,13.31-10.31,9.51-26-2-27.54-13-1.33-9.75,4.51-12.52,4.51-12.52-9.51-8-16,2.51-16,2.51-7-4-15.85,1-15.85,1,27.19,11.82,40.25,51.9,42.87,60.91-4.33,2.74-1.12,7.25,2.95,5.67,14.78-5.91,50-5.18,57.89-5.59,7.87.41,43.12-.32,57.9,5.59,4.06,1.58,7.28-2.93,2.95-5.67C575.27,201.27,588.33,161.19,615.52,149.37Z"/></g><g id="Banner"><path class="cls-2" d="M861.25,441.21l-1.31-1.56a38.79,38.79,0,0,1-7.08-10.85l-.66-1.57-1-3c-2.47-8.26-3.68-19.45-3.68-34.2l.12-3.26c.05-.89.1-1.82.1-2.8a16.06,16.06,0,0,0-4.17-11.28c-1.56-1.8-16.2-17.68-48.27-21l-3.61-.37-2.48,2.64-2.1-2.87h-3.72c-27.52,0-51.52,12-69.35,22.36l-2.8,1.63-.75,3.21a1.29,1.29,0,0,0,0,.17l-9-2.18s-.5,8-.54,8.64a8.77,8.77,0,0,0-7.09,1.14l-13.76,9.1c-28.39,18.89-60.56,40.3-100,52.29l-5.3,1.61-.82.15a232.65,232.65,0,0,1-121.93.1l0-.2-6.57-1.66c-39.48-12-71.66-33.4-100-52.29L331.66,386a8.77,8.77,0,0,0-7.09-1.13l-.54-8.64-9,2.18c0-.06,0-.1,0-.17l-.75-3.2-2.8-1.64C293.61,363,269.6,351,242.09,351h-3.72l-2.11,2.87L233.54,351l-3.37.62c-32.07,3.32-46.7,19.2-48.27,21a16.06,16.06,0,0,0-4.17,11.28c0,1,.06,1.91.11,2.8L178,390c0,14.76-1.2,25.94-3.68,34.2l-.21.69-1.44,3.93a38.59,38.59,0,0,1-7.08,10.85l-1.31,1.56,78.43,18.46c2.07.89,4.17,1.85,6.31,2.88l2.79,1.34,2.9-1.07c.76-.27,1.58-.6,2.4-.93,0,0,.22,4.7.22,4.7l3.67,2.23c9.91,5.55,20.12,12.05,30.93,18.94,23.25,14.81,49.6,31.6,82.6,45.07l2.84,1.16,2.83-1.23.46-.21c-.05,1.18-.1,2.41-.1,2.41l5.12,2.19a333.23,333.23,0,0,0,32,10l6.94,1.71c27.24,6.37,56.89,9.61,88.11,9.61s60.86-3.24,88.11-9.61l6.94-1.71a334.28,334.28,0,0,0,32-10l5.14-1.89s-.06-1.36-.11-2.7l.45.2,2.82,1.23,2.85-1.16c33-13.47,59.35-30.26,82.6-45.08,10.81-6.88,21-13.39,30.93-18.94l3.67-2.06s.22-4.84.22-4.87c.82.34,1.63.65,2.4.93l2.9,1.07,2.79-1.34c2.14-1,4.24-2,6.31-2.88Z"/><path class="cls-3" d="M512.75,465a234.62,234.62,0,0,1-63.1-8.43c-3.18,2.46-7.72,5.42-7.72,5.42s.82-3.38,1.41-7.24c-46.93-14.25-82.67-40.72-115.69-62.27-1.76-1.15-9.85,3.48-9.85,3.48l-.64-10.2-8.88,2.15a26.37,26.37,0,0,0-.53-7.85c-21.5-12.55-42.55-21.36-65.67-21.36a37,37,0,0,0-4.14,8s-4.55-5.09-7-7.49C204,362,190.4,374.33,187.47,377.7c-3.31,3.81-2.07,6.35-2.07,12.28,0,17.2-1.63,28.51-4,36.43,1.94,2.51,4,5.05,4,5.05s-2.07,0-5.93.36c-6.5,15.37-16,14.68-16,33.07,0,20.31,20.28,25.82,20.28,25.82s-14.07-6.78-14.07-22,12.41-25.4,34.34-25.4c16.94,0,32.49,4.79,48.15,12.34,4.81-1.76,11.84-5.15,11.84-5.15s.42,6.78.53,11.64c31.51,17.66,65.08,44.19,112.71,63.62,4.67-2,11.3-5.84,11.3-5.84s0,5.08-.39,10.07a326.92,326.92,0,0,0,31.34,9.74,53.54,53.54,0,0,0,3.8-5.42,65.39,65.39,0,0,0,3,7.09c25,5.84,53.79,9.42,86.46,9.42s61.47-3.57,86.45-9.42a64.38,64.38,0,0,0,3-7.09,53.58,53.58,0,0,0,3.8,5.42A327.06,327.06,0,0,0,637.33,530c-.38-5-.38-10.07-.38-10.07s6.62,3.81,11.29,5.84c47.63-19.44,81.2-46,112.71-63.62.12-4.86.53-11.64.53-11.64s7,3.39,11.84,5.15c15.66-7.56,31.21-12.34,48.15-12.34,21.93,0,34.34,10.16,34.34,25.4s-14.07,22-14.07,22S862,485.21,862,464.9c0-18.39-9.5-17.71-16-33.07-3.87-.36-5.93-.36-5.93-.36s2.07-2.54,4-5.05c-2.37-7.92-4-19.24-4-36.43,0-5.93,1.24-8.47-2.07-12.28-2.93-3.37-16.55-15.69-43.45-18.48-2.47,2.4-7,7.49-7,7.49a37.06,37.06,0,0,0-4.14-8c-23.11,0-44.17,8.82-65.66,21.36a26.11,26.11,0,0,0-.54,7.85l-8.88-2.15-.64,10.2s-8.09-4.63-9.85-3.48c-33,21.55-68.76,48-115.69,62.27.59,3.86,1.42,7.24,1.42,7.24s-4.55-3-7.72-5.42A234.64,234.64,0,0,1,512.75,465Z"/><path d="M315.2,400.8q2.07,3.72,1.88,4-.33,1.16,2.56,6.42a2.64,2.64,0,0,1,.83,2.33q-7.26,3.64-10,7.31l-.83-.05-.17-.13q-.47-.35-4.06-9l-1-1.31q-.26-.19-1,.16l-.13.17q-.42.56-.24.69l-.85.77-1.63,2.19q-1.63,2.19-2,1.92a1.65,1.65,0,0,0-.23.67,40.05,40.05,0,0,1-3.63,4.1q-3.75,5-3.34,8.27l-.69.92q-.4.54-7.19-1.39-6.86-.75-8.45-.1,0,3.16,3.1,9.14A35.34,35.34,0,0,0,287,448.1l-.07.81-.27.36q-.35.47-11.07,5.34a3.64,3.64,0,0,1-2.81-.4,102.1,102.1,0,0,1-9.89-16.75,26,26,0,0,1-1.36-17.2Q262.42,416,273.7,399q-.26-.19.36-2,1.07-1.44,7.69.36,20,2.46,31.49,3.4A2.76,2.76,0,0,1,315.2,400.8ZM280,412.55q-5.5,7.76-5.09,11,2.51.17,11-10.21l.4-.54a1.82,1.82,0,0,1,.25-.69,39.45,39.45,0,0,0,3.91-4.47l.8-1.07a.4.4,0,0,0-.09-.64l-.19-.14a14.52,14.52,0,0,0-7.71,3.87A8.46,8.46,0,0,0,280,412.55Z"/><path d="M353.46,443.55l.82.4q.36.18,6.76,8.4,5.69,7.61,6.05,7.78l.11.8-.2.41q-.3.6-4.65,2.79-1,1.43-2.51,4.08-7.33,14.9-5.7,15.71-.37.74,1.34,2.93a2.69,2.69,0,0,1-.19,1.43q-.72,1.47-9,4.43-3.79,1.93-5,1.35-1.44-.71-2-6.29L338.4,485l-.82-.4a58.9,58.9,0,0,0-8.92,2.18,5.73,5.73,0,0,1-1.94-.18l-.82-.4a97.24,97.24,0,0,0-6.49-12.06,2.76,2.76,0,0,1,0-2,77.93,77.93,0,0,0,11.75-22.85q.72-1.47,3.75-1.44A107.07,107.07,0,0,0,353.46,443.55ZM342.1,457.33q-2.07,3.4-4.13,7.46-3.82,7.76-.85,11.49a4.6,4.6,0,0,0,1.73,2.13q1.85.73,10.77-18.25.57-1.15-4.72-5.87Q344.17,453.94,342.1,457.33Z"/><path d="M412.58,464.51q.63.15,5.75,8.16a1.9,1.9,0,0,0,.84.42q1.07.26,8.56-3.53a4,4,0,0,1,2.93-.48l.89.21q5.32,6.87,7.36,8.33l.65.16a54.92,54.92,0,0,0,8.85-3.71,4.4,4.4,0,0,1,2.19-.41q.39.09,7.68,8.84,1.94,1.65,1.68,2.75a22.11,22.11,0,0,1-4.06,3.24l-1.13,2.76q-3,11-4.09,17-1.38,5.73.39,6.16,1.65,2,1.37,3.14a13.67,13.67,0,0,1-3.51,2.9q-5.26,4.35-7.24,3.88l-.44-.11q-6.09-8.71-5.56-10.92a68.94,68.94,0,0,1,2.41-8.07l3.4-14.14q1-4.17-1.42-6.13a8.91,8.91,0,0,0-2.8-1.66l-.76.29q-3.79,14.49-5.35,19.26-1.12,4.66,1,7.49l0,1.18q-8.22,8.08-9.16,7.85l-.86-.21q-2.19-.53-7.36-8.33a2.22,2.22,0,0,1-.77-1.59q3.93-4.56,8.1-23.06.74-3.1-.71-4.85l-4.66-3a5.53,5.53,0,0,0-1,2.32q-2.9,11-3.85,15l-1,4.18q-.53,2.21,1.93,5.61l-.08,1.38q-8,8.35-9.86,7.9l-.21,0q-1.38-.33-7.92-8a6.1,6.1,0,0,1-2.28-3.14l.05-.21q.13-.55,2.52-2.67a9.43,9.43,0,0,0,2.76-4.71l3.85-15q.57-5.7-.89-6.05a2.76,2.76,0,0,1-.46-2l.11-.44q.59-2.45,12-8.11Z"/><path d="M509.72,480.89q2,0,5,3.71l11,9.92v.67q0,1.37-3,3.82,0,.64-5.51,5.64,0,.43-7.17,7.86a6.32,6.32,0,0,0-1.14,1.57,31,31,0,0,0,9,3.06q5.7.61,5.68,1.68v.46q0,1.13-4,5.39,0,.4-3,3.6-2.27,3.37-3.9,3.35-.72,0-9.71-4.89-9.43-4.09-9.72-4.65-.58-.7-.21-2.74a146.41,146.41,0,0,0,.12-26.14q0-2.76,4.37-4.26,7-4.62,11.49-8.05Zm-3.13,14.5a5.52,5.52,0,0,0-.48,1.82,1.9,1.9,0,0,0,.2.91l-.56,7.95a7.59,7.59,0,0,1,.22,2V509h.21a41.81,41.81,0,0,0,4.63-5.62,16.41,16.41,0,0,0,2.31-2.7A44,44,0,0,0,506.59,495.39Z"/><path d="M564.57,476.56l1.13-.22q6.92,4.89,8,6.56a2.76,2.76,0,0,0,2,.55,78.85,78.85,0,0,0,5.62-9.19,2.59,2.59,0,0,1,1.45-1q1.63.1,7.76,5.43a36.91,36.91,0,0,1,10.27,14.93l.52,2.68q.25,1.32-.9,4.78.1.53-1.88,5.93,0,2-2.67,5.37-6.66,11.71-8.32,12-1,.19-4.35-2.16a1.73,1.73,0,0,0-.94-.06q-.43.17-.36.53l2.73,11.75q.33,1.71-6.1,4.42-1.51,1.22-7.59,3.78l-.68.13q-.55.11-.83-.77,2.14-4.48,1-11.71l-1.7-9.68q-.48-2.47-3.82-1.83-1.94-.42-2.09-1.21-.11-.58,2.52-4.88,1.66-3.4,1.46-4.46l-3.19-16.52q-.35-1.84-4.67-2.56l-1.11-1,0-.21q-.22-1.13,3.8-6.76A25.19,25.19,0,0,1,564.57,476.56Zm12.2,17.56,2.24,11.6q.6,3.13,2.6,2.74,8.2,3.06,9.57,2.79a9.28,9.28,0,0,0,1.35-6.29q-1.36-7.07-12.3-15.69a6.51,6.51,0,0,0-2.94-.82l-.21,0Q576.13,488.68,576.76,494.12Z"/><path d="M635.41,438.19l.2-.08q.49-.07,1.25.73a109.7,109.7,0,0,0,4.88,19.58q4.14,12.21,9.14,26.15l1,2.55q1.37,3.6,6.64,4l.63,1,.08.2q.52,1.38-4.25,11.85.21.55-1.38,1.5l-.83.31q-1.25.48-9.57-2.69a1.9,1.9,0,0,1-.53-.77l-.49-1.28a81.78,81.78,0,0,0-3-9.8q-4.35-12.1-8.8-24.69t-4.8-12.92q-1.36-3.58.51-5.07.65-.25,8-9.61Q633.94,438.84,635.41,438.19Z"/><path d="M688.57,432.66q2.24-.94,12.83,1.85,4.87,1.51,11.37,7.15,4,5.57,4.87,7.15l1.13,2q0,3.86-3.17,18.3-1.41,7.86-2.9,8.71-2,1.11-11.11,1.61-5.65,1.12-6.55-.46l-.22-.4a29.81,29.81,0,0,0-3.06-7.66L688.94,466l-.47-1.31q-.71-.77-5.11-7.57l-.9-1.58q-.16-.28-2.19-2.92-.61-1.07,2.64-6,2.69-6.15,4.58-11.23Q687.46,433.3,688.57,432.66Zm4.71,15.63q2.8,5.84,7.25,13.66l1.47,2.58q1.14,2,4.64,1.27a9.68,9.68,0,0,0,4.55-.77l1-.56q1.19-.68-1.12-6.14-3.76-6.61-12.27-10-4-.86-5.1-.24Z"/><path d="M735,383.71q.48-.39,1.6.15l1.25,5.16q2.58,4.63,4.59,8.55l.81-.07.89-.73q3.18-2.58,3.89-1.71l.29.35a16.72,16.72,0,0,0,2.61,4.33l2.58,3.18q1,1.21-.43,2.7a16,16,0,0,0-3.3,2.09l-.17.14q-1.06.86,3.09,6,3.44,4.24,9.19,11,1.52,1.87,5.95,1.94,2.59-.93,3.76-.43l.57.71q-1.49,8.93-.87,11.22a4.81,4.81,0,0,0-.49,1.57l-.17.13q-.58.47-5.69.55-8.09,1.59-9,.51.06-3.88-7.92-14.23-7.42-9-11.57-14.14a12,12,0,0,0-6.81-4.41l-.29-.35q-.34-.42,1.91-12.1,1.46-5.56,1.75-5.8A52.93,52.93,0,0,0,735,383.71Z"/></g></svg>