<svg xmlns="http://www.w3.org/2000/svg" viewBox="0 0 1000 1000"><defs><style>.cls-1{isolation:isolate;}.cls-2,.cls-5{fill:#fff;}.cls-2,.cls-3{stroke:#000;}.cls-10,.cls-11,.cls-2,.cls-3,.cls-5,.cls-9{stroke-miterlimit:10;}.cls-2{stroke-width:22.74px;}.cls-3{stroke-width:1.88px;}.cls-11,.cls-4,.cls-9{fill:#231f20;}.cls-11,.cls-5,.cls-9{stroke:#231f20;}.cls-5{stroke-width:11.91px;}.cls-6,.cls-7{opacity:0.2;}.cls-7,.cls-8{mix-blend-mode:multiply;}.cls-8{opacity:0.3;}.cls-9{stroke-width:6.25px;}.cls-10{stroke:#fff;stroke-width:4.33px;}.cls-11{stroke-width:3.25px;}</style></defs><title>far far array</title><g class="cls-1"><g id="Layer_1" data-name="Layer 1"><path class="cls-2" d="M161.66,85.06c-16.1-23.42-30.74-33.66-46.84-32.2C89.93,54.32,68,80.67,56.27,110S40.17,171.43,46,190.44c11.72,30.75,42.46,27.81,77.58,27.81,32.2,0,54.17,7.32,76.13,33.67,10,12.68,15.12,23.23,15.8,33.17l60.79-60.79C265.74,217.85,254,209,239.24,197.78,205.58,168.5,182.14,118.72,161.66,85.06Z"/><path class="cls-2" d="M943.73,110C932,80.67,910.07,54.32,885.18,52.86c-16.1-1.46-30.74,8.77-46.84,32.2-20.48,33.66-43.91,83.44-77.57,112.72C746,209,734.26,217.85,723.69,224.31l60.79,60.79c.68-9.95,5.79-20.5,15.8-33.17,22-26.35,43.93-33.67,76.13-33.67,35.13,0,65.86,2.94,77.58-27.81C959.83,171.43,955.44,139.23,943.73,110Z"/><path class="cls-2" d="M501.14,947.27C439.6,900.87,192.41,703.64,189.6,528.45a283.31,283.31,0,0,0-30.5-215L286,186.64H710L840.9,317.56a283.79,283.79,0,0,0-28.22,210.89C809.87,703.64,562.68,900.87,501.14,947.27Z"/><path class="cls-3" d="M121,74.66c11.66,11.13,14.47,35.61,5.72,60.42-10.5,29.73-33.64,48.67-51.69,42.3a21.48,21.48,0,0,1-4-1.92c10.73,14.39,30.15,12.09,45.24,3.28,14.64-8.78,21.95-19,24.88-30.74s0-26.34-2.94-42.44C134.78,91.73,129.52,78.83,121,74.66Z"/><path class="cls-3" d="M925,177.37c-18.05,6.37-41.2-12.56-51.69-42.3-8.76-24.81-5.94-49.28,5.72-60.42-8.5,4.16-13.77,17.07-17.22,30.89-2.94,16.1-5.86,30.74-2.94,42.44s10.24,22,24.88,30.74c15.09,8.81,34.51,11.11,45.24-3.28A21.48,21.48,0,0,1,925,177.37Z"/><path class="cls-4" d="M301.66,361.4h-39.4v54.1h-29.5V277.7h68.9v29.6h-39.4v24.6h39.4Z"/><path class="cls-4" d="M391.12,409.64h-29.5l-3.36-19.7H333.47l-3.36,19.7H300.8l25.46-137.8h39.3Zm-38-49.2-7.3-42.76-7.21,42.76Z"/><path class="cls-4" d="M474.82,417.52h-29.5v-54.2h-19.7v54.2h-29.5V279.72h59l19.7,19.7v35.36l-13.74,13.84,13.74,13.74Zm-29.5-83.7v-24.6h-19.7v24.6Z"/><path class="cls-4" d="M594.08,361.4h-39.4v54.1h-29.5V277.7h68.9v29.6h-39.4v24.6h39.4Z"/><path class="cls-4" d="M683.54,409.64H654l-3.36-19.7H625.89l-3.36,19.7H593.21l25.46-137.8H658Zm-38-49.2-7.3-42.76-7.21,42.76Z"/><path class="cls-4" d="M767.24,417.52h-29.5v-54.2H718v54.2h-29.5V279.72h59l19.7,19.7v35.36L753.5,348.62l13.74,13.74Zm-29.5-83.7v-24.6H718v24.6Z"/><path class="cls-4" d="M398.29,229.36a4.69,4.69,0,0,1-2.79.5q-7.26,16.31-10.51,24.67h-5.3q-1.51-4.52-4.89-13.66-2.24,4.8-6.72,14.12h-5.3q-1.6-3.47-4.75-11.37-3.61-9.14-5.07-12.43.18-1.37-1.51-1.64t-1.69-1a1.87,1.87,0,0,1,.23-.82,85.23,85.23,0,0,0,15.76-.09,2.47,2.47,0,0,1,.55,1.74,18.38,18.38,0,0,0-2.7.87,124,124,0,0,0,5.25,15.67A44.08,44.08,0,0,0,373,234.7q-.46-1.28-1-2.58a4.87,4.87,0,0,0-1.44-2q-1-.18-1.92-.32a1.16,1.16,0,0,1-.91-1.55q6.3-.59,15.71-.59.59,0,.59,1.74h-.37a7.09,7.09,0,0,0-2.28.87q1.1,6,3.47,14.76a132,132,0,0,0,6.12-14.3q0-1-2.08-1.21t-2.08-.89a1.49,1.49,0,0,1,0-.37,75.05,75.05,0,0,0,10.28-.59q.32,0,.71.66A2.31,2.31,0,0,1,398.29,229.36Z"/><path class="cls-4" d="M423.64,240.23a1.71,1.71,0,0,0-.5,1l-15.76.41a9.33,9.33,0,0,0,.59,3.29,7.08,7.08,0,0,0,6,3.38,7.8,7.8,0,0,0,2.83-.55,14.5,14.5,0,0,0,2.33-1.51,4.33,4.33,0,0,1,2.33-1.14,1.41,1.41,0,0,1,.87.27,12.76,12.76,0,0,1-4.75,6.17,11.71,11.71,0,0,1-6.53,1.87,12.9,12.9,0,0,1-8.54-3.11,10,10,0,0,1-3.88-8,11.25,11.25,0,0,1,.32-2.65q.23-1.1.82-3.29,1.46-4.84,7.45-6.49a13.91,13.91,0,0,1,10.69,1A10.24,10.24,0,0,1,423.64,240.23Zm-8.31-3.06q-.23-5.34-5.15-5.07a5.43,5.43,0,0,0-2.07,2.6,7,7,0,0,0-.74,2.88,1.77,1.77,0,0,0,.09.64h7q.69,0,.83-.5A1.07,1.07,0,0,0,415.33,237.17Z"/><path class="cls-4" d="M450.92,248.18a18.64,18.64,0,0,1-1.46,6.85l-12.24-.18q-7.58-.09-12.61.18a2.45,2.45,0,0,1-.55-1.78,4.16,4.16,0,0,0,2.38-.5,2.56,2.56,0,0,0,.82-2.15q0-8-.14-13,0-3.43-.18-5.3-.14-1.64-.14-1.55.09-.91-1-.91a1.29,1.29,0,0,0-.27,0h-.27q-1.51,0-1.28-1.69,2.33-.23,7.47-.3t7.7-.3a2.45,2.45,0,0,1,.55,1.78,3.94,3.94,0,0,0-1,.25,3.93,3.93,0,0,1-1,.25,6.36,6.36,0,0,0-.82,2.6q0,7.63.14,12.33.09,3.29.23,5.12.09,1.55.09,1.51l.82.82a6.31,6.31,0,0,1,1.1,0q.91,0,1.42,0,5.66,0,6.53-4.66A7.36,7.36,0,0,1,450.92,248.18Z"/><path class="cls-4" d="M481.38,248.59a19.52,19.52,0,0,1-14.48,6.3,18.25,18.25,0,0,1-7.88-1.76,17.1,17.1,0,0,1-6.24-4.95,12.52,12.52,0,0,1-1.55-6.29,13.23,13.23,0,0,1,2-7.07,14.23,14.23,0,0,1,6.76-5.66,20.17,20.17,0,0,1,8-1.55,44.7,44.7,0,0,1,7.4.78q.59.09,3.56.09A1.67,1.67,0,0,0,480,229v7.4l-1,1h-2.42a7.51,7.51,0,0,1-.94-2.54,7,7,0,0,0-.8-2.32,6,6,0,0,0-2.7-2.09q-2.33-.23-3.29-.23-3.88,0-5.8,2.23a16.12,16.12,0,0,0-2.42,8.16q0,6.56,6.67,10.21a11.25,11.25,0,0,0,2,.18q4.52,0,10.42-4.39.32-.14,1,.57A2,2,0,0,1,481.38,248.59Z"/><path class="cls-4" d="M504.73,232.42a10.42,10.42,0,0,1,3.33,8.13,12.49,12.49,0,0,1-2.47,7.63,11.73,11.73,0,0,1-7.45,4.66,17.85,17.85,0,0,1-7.4-.09,11.57,11.57,0,0,1-6.76-4.52A12,12,0,0,1,481.7,241a11.81,11.81,0,0,1,9.91-11.83,42.66,42.66,0,0,1,6.81.32A11.71,11.71,0,0,1,504.73,232.42Zm-7,.73a4.55,4.55,0,0,0-3.52-1.83,5.9,5.9,0,0,0-2.74,3.52,16.39,16.39,0,0,0-.91,5.71,18.28,18.28,0,0,0,.91,6,6.46,6.46,0,0,0,2.69,3.75,1.81,1.81,0,0,0,1.92,0q3.15-3.29,3.15-9.18A22,22,0,0,0,497.69,233.15Z"/><path class="cls-4" d="M549.27,254.39q-6.44.59-15.67.59a2.33,2.33,0,0,1-.59-1.19,2.65,2.65,0,0,1,2-.64q1.55-1,1.55-7,0-3.15-.59-9.73-1.65,3-4.57,9.27T526.84,255h-3.47a48.41,48.41,0,0,1-3.93-8.84,48.59,48.59,0,0,0-4.2-9.25v15.44a7.63,7.63,0,0,0,2.83.91v1.28a35.86,35.86,0,0,1-9.55.14v-.91q1.05-.55,1.32-.73a6.54,6.54,0,0,0,1.32-1.1V231.18a10.17,10.17,0,0,0-2.79-2.33q.27-.55.64-1.23a119.14,119.14,0,0,0,12.7.5,39.51,39.51,0,0,1,3.27,7.1q1.35,3.86,2.67,7.74,2.74-5.13,8.27-15.35a99.48,99.48,0,0,0,12.84.5,2.7,2.7,0,0,1,.09.64q0,.69-1.44,1a1.6,1.6,0,0,0-1.44,1.72v20.45q.41.91,2,1,1.32,0,1.32.92A4.37,4.37,0,0,1,549.27,254.39Z"/><path class="cls-4" d="M574.67,240.23a1.71,1.71,0,0,0-.5,1l-15.76.41a9.33,9.33,0,0,0,.59,3.29,7.09,7.09,0,0,0,6,3.38,7.8,7.8,0,0,0,2.83-.55,14.52,14.52,0,0,0,2.33-1.51,4.33,4.33,0,0,1,2.33-1.14,1.41,1.41,0,0,1,.87.27,12.76,12.76,0,0,1-4.75,6.17,11.71,11.71,0,0,1-6.53,1.87,12.9,12.9,0,0,1-8.54-3.11,10,10,0,0,1-3.88-8,11.23,11.23,0,0,1,.32-2.65q.23-1.1.82-3.29,1.46-4.84,7.45-6.49a13.91,13.91,0,0,1,10.69,1A10.23,10.23,0,0,1,574.67,240.23Zm-8.31-3.06q-.23-5.34-5.15-5.07a5.43,5.43,0,0,0-2.07,2.6,7,7,0,0,0-.73,2.88,1.76,1.76,0,0,0,.09.64h7q.69,0,.83-.5A1.08,1.08,0,0,0,566.35,237.17Z"/><path class="cls-4" d="M623.55,227.71a38.1,38.1,0,0,1-.46,6.76h-2.56a5.24,5.24,0,0,1-.55-2.88,4.49,4.49,0,0,0-3.06-1.78,9.86,9.86,0,0,0-2.47.5v22.11a28.68,28.68,0,0,1,2.79,1.46,4.19,4.19,0,0,1-.64,1.14q-5.07-.5-14.85-.5a3,3,0,0,1-.18-.91q0-.82,1.6-.82.46-.59.87-1.26a2.53,2.53,0,0,0,.41-1.35v-19a8.18,8.18,0,0,0-.82-1.28,2.57,2.57,0,0,0-1.42-.41,3.86,3.86,0,0,0-2.83,1.34,5.62,5.62,0,0,0-1.42,3.64,5.13,5.13,0,0,1-3.11-.51q0-.92,0-3.13v-3.13Z"/><path class="cls-4" d="M646.89,232.42a10.42,10.42,0,0,1,3.33,8.13,12.49,12.49,0,0,1-2.47,7.63,11.73,11.73,0,0,1-7.45,4.66,17.85,17.85,0,0,1-7.4-.09,11.58,11.58,0,0,1-6.76-4.52,12,12,0,0,1-2.28-7.22,11.81,11.81,0,0,1,9.91-11.83,42.67,42.67,0,0,1,6.81.32A11.71,11.71,0,0,1,646.89,232.42Zm-7,.73a4.55,4.55,0,0,0-3.52-1.83,5.9,5.9,0,0,0-2.74,3.52,16.38,16.38,0,0,0-.91,5.71,18.27,18.27,0,0,0,.91,6,6.46,6.46,0,0,0,2.7,3.75,1.81,1.81,0,0,0,1.92,0q3.15-3.29,3.15-9.18A22,22,0,0,0,639.85,233.15Z"/><rect class="cls-5" x="70.11" y="675.32" width="859.77" height="155.76"/><line class="cls-5" x1="757.93" y1="675.32" x2="757.93" y2="831.07"/><line class="cls-5" x1="585.98" y1="675.32" x2="585.98" y2="831.07"/><line class="cls-5" x1="414.02" y1="675.32" x2="414.02" y2="831.07"/><line class="cls-5" x1="242.07" y1="675.32" x2="242.07" y2="831.07"/><path class="cls-4" d="M178.51,788.26v-9.77q-16.75,12.44-35.79,12.44-13.82,0-21.6-6.18t-7.78-15.15q0-9.85,10.25-17.21T153.52,745q5.31,0,11.53.61t13.46,1.9v-11q0-5.57-5.86-9.69t-17.57-4.12q-9,0-25.17,4.6a19.46,19.46,0,0,1-3.75.81,3.59,3.59,0,0,1-2.52-1,3.16,3.16,0,0,1-1.05-2.42,2.76,2.76,0,0,1,.92-2.18q1.28-1.21,10.34-3.31,14.28-3.39,21.6-3.39,14.55,0,22.7,6.34t8.15,14.34v44.92h10.25a6.68,6.68,0,0,1,4,.93,3,3,0,0,1,1.19,2.46,3,3,0,0,1-1.19,2.42,6.46,6.46,0,0,1-4,1Zm0-33.77a81.74,81.74,0,0,0-11.44-2,119.85,119.85,0,0,0-12.72-.65q-16.75,0-26.18,6.38Q121,763,121,769.6q0,6.14,5.45,10.34t15.88,4.2a48.34,48.34,0,0,0,18.54-3.51,67.27,67.27,0,0,0,17.62-11.19Z"/><path class="cls-4" d="M314.18,718.3v17.13q15-12,22.47-15.39a33.23,33.23,0,0,1,13.78-3.43,22,22,0,0,1,12.77,4.08q5.9,4.08,5.9,6.18a3.25,3.25,0,0,1-1.14,2.54,4.19,4.19,0,0,1-2.88,1,3.83,3.83,0,0,1-1.56-.28,12.61,12.61,0,0,1-2.38-1.82,23.14,23.14,0,0,0-5.58-3.88,11.53,11.53,0,0,0-4.67-1.05q-5,0-12.13,3.55t-24.58,17.37v37.16h34.05a6.68,6.68,0,0,1,4,.93,3,3,0,0,1,1.19,2.46,3,3,0,0,1-1.19,2.42,6.46,6.46,0,0,1-4,1H287.91a6.48,6.48,0,0,1-3.94-.93,2.89,2.89,0,0,1-1.19-2.38,2.85,2.85,0,0,1,1.14-2.3,6.45,6.45,0,0,1,4-.93h18.58V725.17H292.3a6.27,6.27,0,0,1-3.94-1,3.08,3.08,0,0,1-1.19-2.5,3,3,0,0,1,1.14-2.42,6.25,6.25,0,0,1,4-1Z"/><path class="cls-4" d="M486.57,718.3v17.13q15-12,22.47-15.39a33.23,33.23,0,0,1,13.78-3.43,22,22,0,0,1,12.77,4.08q5.9,4.08,5.9,6.18a3.25,3.25,0,0,1-1.14,2.54,4.2,4.2,0,0,1-2.88,1,3.83,3.83,0,0,1-1.56-.28,12.65,12.65,0,0,1-2.38-1.82,23.14,23.14,0,0,0-5.58-3.88,11.54,11.54,0,0,0-4.67-1.05q-5,0-12.13,3.55t-24.58,17.37v37.16h34.05a6.68,6.68,0,0,1,4,.93,3,3,0,0,1,1.19,2.46,3,3,0,0,1-1.19,2.42,6.46,6.46,0,0,1-4,1H460.3a6.48,6.48,0,0,1-3.94-.93,2.89,2.89,0,0,1-1.19-2.38,2.85,2.85,0,0,1,1.14-2.3,6.45,6.45,0,0,1,4-.93h18.58V725.17H464.69a6.27,6.27,0,0,1-3.94-1,3.08,3.08,0,0,1-1.19-2.5,3,3,0,0,1,1.14-2.42,6.25,6.25,0,0,1,4-1Z"/><path class="cls-4" d="M689.18,788.26v-9.77q-16.75,12.44-35.79,12.44-13.82,0-21.6-6.18T624,769.6q0-9.85,10.25-17.21T664.19,745q5.31,0,11.53.61t13.46,1.9v-11q0-5.57-5.86-9.69t-17.57-4.12q-9,0-25.17,4.6a19.48,19.48,0,0,1-3.75.81,3.59,3.59,0,0,1-2.52-1,3.15,3.15,0,0,1-1.05-2.42,2.76,2.76,0,0,1,.92-2.18q1.28-1.21,10.34-3.31,14.28-3.39,21.6-3.39,14.55,0,22.7,6.34T697,736.56v44.92h10.25a6.68,6.68,0,0,1,4,.93,3,3,0,0,1,1.19,2.46,3,3,0,0,1-1.19,2.42,6.46,6.46,0,0,1-4,1Zm0-33.77a81.74,81.74,0,0,0-11.44-2,119.87,119.87,0,0,0-12.72-.65q-16.75,0-26.18,6.38Q631.7,763,631.7,769.6q0,6.14,5.45,10.34t15.88,4.2a48.34,48.34,0,0,0,18.54-3.51,67.28,67.28,0,0,0,17.62-11.19Z"/><path class="cls-4" d="M838.88,788.26l-35.7-63.09H800.9a6.26,6.26,0,0,1-3.93-1,3,3,0,0,1-1.19-2.42,3.22,3.22,0,0,1,.6-1.9,3.27,3.27,0,0,1,1.56-1.21,9,9,0,0,1,3-.36h21.05a6.27,6.27,0,0,1,3.94,1,3.09,3.09,0,0,1,1.19,2.5,3,3,0,0,1-1.19,2.42,6.27,6.27,0,0,1-3.94,1H811.6L843,780.83l30.94-55.66H863.6a6.26,6.26,0,0,1-3.93-1,3.08,3.08,0,0,1-1.19-2.5,3,3,0,0,1,1.19-2.42,6.26,6.26,0,0,1,3.93-1h21a6.46,6.46,0,0,1,4,1,3.09,3.09,0,0,1,1.19,2.5,3,3,0,0,1-.73,1.94,3.47,3.47,0,0,1-1.65,1.17,25.54,25.54,0,0,1-5.13.28l-48.7,87.49h12a6.48,6.48,0,0,1,3.94.93,3,3,0,0,1,1.19,2.46,3,3,0,0,1-1.19,2.42,6.28,6.28,0,0,1-3.94,1h-44.3a6.48,6.48,0,0,1-3.94-.93,3.15,3.15,0,0,1,0-4.93,6.47,6.47,0,0,1,3.94-.93h24.07Z"/><rect x="450.37" y="521.3" width="103.96" height="72.08"/><rect x="441.79" y="511.42" width="8.4" height="9.58"/><rect x="452.04" y="511.42" width="8.4" height="9.58"/><rect x="462.28" y="511.42" width="8.4" height="9.58"/><rect x="472.53" y="511.42" width="8.4" height="9.58"/><rect x="482.78" y="511.42" width="8.4" height="9.58"/><rect x="493.02" y="511.42" width="8.4" height="9.58"/><rect x="503.27" y="511.42" width="8.4" height="9.58"/><rect x="513.51" y="511.42" width="8.4" height="9.58"/><rect x="523.76" y="511.42" width="8.4" height="9.58"/><rect x="534" y="511.42" width="8.4" height="9.58"/><rect x="544.25" y="511.42" width="8.4" height="9.58"/><rect x="554.49" y="511.42" width="8.4" height="9.58"/><rect x="441.79" y="516.21" width="121.1" height="7.48"/><rect x="447.51" y="523.09" width="5.71" height="9.58"/><rect x="456.17" y="523.09" width="5.71" height="9.58"/><rect x="464.84" y="523.09" width="5.71" height="9.58"/><rect x="473.5" y="523.09" width="5.71" height="9.58"/><rect x="482.16" y="523.09" width="5.71" height="9.58"/><rect x="490.83" y="523.09" width="5.72" height="9.58"/><rect x="499.49" y="523.09" width="5.72" height="9.58"/><rect x="508.15" y="523.09" width="5.72" height="9.58"/><rect x="516.82" y="523.09" width="5.72" height="9.58"/><rect x="525.48" y="523.09" width="5.72" height="9.58"/><rect x="534.14" y="523.09" width="5.72" height="9.58"/><rect x="542.8" y="523.09" width="5.72" height="9.58"/><rect x="551.47" y="523.09" width="5.72" height="9.58"/><rect x="487.56" y="481.06" width="30.8" height="135.5"/><rect x="513.62" y="481.06" width="4.73" height="135.5"/><rect x="494.14" y="497.15" width="15" height="23.88"/><rect x="494.14" y="489.51" width="15.87" height="22.13" rx="7.87" ry="7.87"/><rect x="495.89" y="498.9" width="14.12" height="22.13"/><path d="M510,505.77c0,4.2-3.18,7.63-7.06,7.63s-7.06-3.43-7.06-7.63V498.9c0-4.2,3.18-7.63,7.06-7.63S510,494.7,510,498.9Z"/><rect x="483.45" y="528.74" width="39.01" height="11.29"/><rect x="483.45" y="528.74" width="39.01" height="3.41"/><path d="M480.56,481.06S503,441.28,503,430.21c0,10.82,22.4,50.85,22.4,50.85Z"/><g class="cls-6"><path d="M506.36,442.48c-2-5.17-3.41-9.61-3.41-12.27,0,5-4.58,15.88-9.6,26.3-6.08,12.62-12.8,24.55-12.8,24.55H482c12.79-6.5,22-19.15,27.75-30.63C508.51,447.68,507.35,445,506.36,442.48Z"/></g><circle cx="503.09" cy="432.36" r="2.81"/><path d="M503.63,434.33c0,.46-.27.84-.59.84s-.59-.38-.59-.84V409.87c0-.46.27-.84.59-.84s.59.38.59.84Z"/><path d="M515.81,416.48c-6.09,1.49-13.07,0-13.07,0v-5.94s7.5,1.78,13.07,0l-4.45,3A10.88,10.88,0,0,0,515.81,416.48Z"/><circle cx="503.12" cy="409.03" r="1.26"/><rect x="497.65" y="552.5" width="13.14" height="8.9"/><rect x="491.08" y="599.8" width="13.14" height="8.89"/><rect x="488.01" y="568.17" width="16.64" height="8.9"/><rect x="453.98" y="509.25" width="23.18" height="101.99"/><rect x="473.6" y="509.25" width="3.56" height="101.99"/><rect x="458.94" y="526.04" width="11.29" height="17.98"/><rect x="458.94" y="520.3" width="11.95" height="16.66" rx="5.92" ry="5.92"/><rect x="460.26" y="527.36" width="10.63" height="16.66"/><path d="M470.89,532.53a5.33,5.33,0,1,1-10.63,0v-5.17a5.33,5.33,0,1,1,10.63,0Z"/><path d="M448.71,509.25s16.86-29.94,16.86-38.28c0,8.14,16.86,38.28,16.86,38.28Z"/><g class="cls-6"><path d="M468.13,480.21c-1.54-3.89-2.56-7.23-2.56-9.23,0,3.77-3.45,12-7.22,19.79-4.58,9.5-9.63,18.48-9.63,18.48h1.09c9.63-4.9,16.55-14.41,20.89-23.05C469.76,484.13,468.88,482.11,468.13,480.21Z"/></g><circle cx="465.67" cy="472.6" r="2.11"/><path d="M466.08,474.08c0,.35-.2.63-.45.63s-.45-.28-.45-.63V455.67c0-.35.2-.63.45-.63s.45.28.45.63Z"/><path d="M475.24,460.65a25.58,25.58,0,0,1-9.84,0v-4.47s5.64,1.34,9.84,0l-3.35,2.23A8.19,8.19,0,0,0,475.24,460.65Z"/><circle cx="465.69" cy="455.04" r="0.95"/><rect x="454.18" y="563.03" width="9.89" height="6.7"/><rect x="463.56" y="600.28" width="9.89" height="6.7"/><rect x="457.66" y="548.23" width="12.71" height="6.7"/><rect x="527.79" y="509.25" width="23.18" height="101.99"/><rect x="547.41" y="509.25" width="3.56" height="101.99"/><rect x="532.75" y="526.04" width="11.29" height="17.98"/><rect x="532.75" y="520.3" width="11.95" height="16.66" rx="5.92" ry="5.92"/><rect x="534.07" y="527.36" width="10.63" height="16.66"/><path d="M544.7,532.53a5.33,5.33,0,1,1-10.63,0v-5.17a5.33,5.33,0,1,1,10.63,0Z"/><path d="M522.52,509.25s16.86-29.94,16.86-38.28c0,8.14,16.86,38.28,16.86,38.28Z"/><g class="cls-6"><path d="M541.95,480.21c-1.54-3.89-2.56-7.23-2.56-9.23,0,3.77-3.45,12-7.23,19.79-4.58,9.5-9.63,18.48-9.63,18.48h1.09c9.63-4.9,16.55-14.41,20.89-23.05C543.57,484.13,542.7,482.11,541.95,480.21Z"/></g><circle cx="539.48" cy="472.6" r="2.11"/><path d="M539.89,474.08c0,.35-.2.63-.45.63s-.45-.28-.45-.63V455.67c0-.35.2-.63.45-.63s.45.28.45.63Z"/><path d="M549.06,460.65a25.58,25.58,0,0,1-9.84,0v-4.47s5.64,1.34,9.84,0l-3.35,2.23A8.19,8.19,0,0,0,549.06,460.65Z"/><circle cx="539.51" cy="455.04" r="0.95"/><rect x="528" y="563.03" width="9.89" height="6.7"/><rect x="537.37" y="600.28" width="9.89" height="6.7"/><rect x="531.47" y="548.23" width="12.71" height="6.7"/><rect x="442.66" y="584.92" width="120.24" height="57.35"/><rect x="442.66" y="588.08" width="121.71" height="2.09"/><rect x="442.66" y="578.98" width="8.64" height="8.37"/><rect x="458.6" y="578.98" width="8.64" height="8.37"/><rect x="474.55" y="578.98" width="8.64" height="8.37"/><rect x="490.49" y="578.98" width="8.64" height="8.37"/><rect x="506.43" y="578.98" width="8.64" height="8.37"/><rect x="522.37" y="578.98" width="8.64" height="8.37"/><rect x="538.32" y="578.98" width="8.64" height="8.37"/><rect x="554.26" y="578.98" width="8.64" height="8.37"/><g class="cls-7"><path d="M474.55,579v5.94h-7.3V579H458.6v5.94h-7.3V579h-8.64v63.29h2c5.68-22.73,24.84-49.58,36.57-63.29Z"/></g><rect x="486.97" y="607.52" width="26.55" height="34.81"/><path d="M515.59,614.72a14.31,14.31,0,1,1-28.62,0V608.4a14.31,14.31,0,1,1,28.62,0Z"/><rect x="489.04" y="609.59" width="26.55" height="32.73"/><path d="M515.59,617.33c0,7.68-6,14-13.27,14S489,625,489,617.33v-7.39c0-7.68,6-14,13.27-14s13.27,6.29,13.27,14Z"/><rect x="534.97" y="593.07" width="12.43" height="5.26"/><rect x="461.73" y="593.48" width="12.43" height="5.26"/><rect x="521.42" y="610.96" width="12.43" height="5.26"/><rect x="474.34" y="602.19" width="12.43" height="5.26"/><rect x="451.3" y="616.77" width="12.43" height="5.26"/><rect x="538.36" y="619.4" width="12.43" height="5.26"/><rect x="560.47" y="562.11" width="18.22" height="80.16"/><rect x="575.89" y="562.11" width="2.8" height="80.16"/><rect x="564.37" y="575.3" width="8.87" height="14.13"/><rect x="564.37" y="570.79" width="9.39" height="13.09" rx="4.65" ry="4.65"/><rect x="565.4" y="576.34" width="8.35" height="13.09"/><path d="M573.76,580.4a4.19,4.19,0,1,1-8.35,0v-4.06a4.19,4.19,0,1,1,8.35,0Z"/><rect x="558.04" y="593.38" width="23.07" height="6.68"/><rect x="558.04" y="593.38" width="23.07" height="2.02"/><path d="M556.33,562.11s13.25-23.53,13.25-30.08c0,6.4,13.25,30.08,13.25,30.08Z"/><g class="cls-6"><path d="M571.59,539.28c-1.21-3.06-2-5.68-2-7.26,0,3-2.71,9.4-5.68,15.56-3.6,7.46-7.57,14.52-7.57,14.52h.86c7.57-3.85,13-11.33,16.42-18.12C572.87,542.36,572.18,540.77,571.59,539.28Z"/></g><circle cx="569.66" cy="533.3" r="1.66"/><path d="M570,534.46c0,.27-.16.5-.35.5s-.35-.22-.35-.5V520c0-.27.16-.5.35-.5s.35.22.35.5Z"/><path d="M577.18,523.91a20.12,20.12,0,0,1-7.73,0v-3.51s4.44,1.05,7.73,0l-2.64,1.76A6.44,6.44,0,0,0,577.18,523.91Z"/><circle cx="569.68" cy="519.5" r="0.75"/><rect x="561.08" y="604.82" width="7.77" height="5.26"/><rect x="568" y="633.64" width="7.77" height="5.26"/><rect x="561.78" y="619.4" width="12.43" height="5.26"/><rect x="552.92" y="633.64" width="7.55" height="5.26"/><rect x="476.93" y="631.01" width="9.88" height="5.26"/><line class="cls-8" x1="502.35" y1="595.53" x2="502.32" y2="642.27"/><g class="cls-6"><path d="M501.26,596c-6.7.57-12,6.42-12.2,13.57h0v17.53C491,611.08,495.61,601.3,501.26,596Z"/></g><rect x="426.87" y="562.11" width="18.22" height="80.16"/><rect x="442.29" y="562.11" width="2.8" height="80.16"/><rect x="430.77" y="575.3" width="8.87" height="14.13"/><rect x="430.77" y="570.79" width="9.39" height="13.09" rx="4.65" ry="4.65"/><rect x="431.8" y="576.34" width="8.35" height="13.09"/><path d="M440.16,580.4a4.19,4.19,0,1,1-8.35,0v-4.06a4.19,4.19,0,1,1,8.35,0Z"/><rect x="424.44" y="593.38" width="23.08" height="6.68"/><rect x="424.44" y="593.38" width="23.08" height="2.02"/><path d="M422.73,562.11S436,538.58,436,532c0,6.4,13.25,30.08,13.25,30.08Z"/><g class="cls-6"><path d="M438,539.28c-1.21-3.06-2-5.68-2-7.26,0,3-2.71,9.4-5.68,15.56-3.6,7.46-7.57,14.52-7.57,14.52h.86c7.57-3.85,13-11.33,16.42-18.12C439.27,542.36,438.58,540.77,438,539.28Z"/></g><circle cx="436.06" cy="533.3" r="1.66"/><path d="M436.38,534.46c0,.27-.16.5-.35.5s-.35-.22-.35-.5V520c0-.27.16-.5.35-.5s.35.22.35.5Z"/><path d="M443.58,523.91a20.12,20.12,0,0,1-7.73,0v-3.51s4.44,1.05,7.73,0l-2.64,1.76A6.44,6.44,0,0,0,443.58,523.91Z"/><circle cx="436.08" cy="519.5" r="0.75"/><rect x="432.84" y="604.37" width="7.77" height="5.26"/><rect x="428.95" y="632.35" width="7.77" height="5.26"/><rect x="427.14" y="613.64" width="9.84" height="5.26"/><circle cx="506.4" cy="620.74" r="1.9"/><circle cx="498.01" cy="620.74" r="1.9"/><ellipse cx="498.01" cy="619.19" rx="1.39" ry="1.11"/><ellipse cx="506.4" cy="619.19" rx="1.39" ry="1.11"/><path class="cls-9" d="M307.35,440.38v197h29.88q4.39,0,6.3,1.68a6.19,6.19,0,0,1,0,8.93q-1.9,1.68-6.3,1.68H295V427.93h42.18q4.39,0,6.3,1.76a5.9,5.9,0,0,1,1.9,4.54,5.74,5.74,0,0,1-1.9,4.39q-1.9,1.76-6.3,1.76Z"/><path class="cls-9" d="M662.78,440.38q-4.39,0-6.3-1.76a5.74,5.74,0,0,1-1.9-4.39,5.9,5.9,0,0,1,1.9-4.54q1.9-1.76,6.3-1.76H705V649.66H662.78q-4.39,0-6.3-1.68a6.19,6.19,0,0,1,0-8.93q1.9-1.69,6.3-1.68h29.88v-197Z"/><path class="cls-10" d="M625.27,589.17a21.11,21.11,0,0,0-2.65-.91c-1.68-.41-3.27,2.15-4.83.65-1.21-4.19.88-8,.56-12.29-.77-3.13-3.09-5.63-4.86-8.34l-.12-.38c.35-2.62.41-5.42.59-8-.12-6-1.5-11.49-2.86-17,1.27-1,1.5-2.36,1.77-3.71a1.47,1.47,0,0,1,0,.94H613c1.8-5.54-.41-11.05-4.22-15.09a5,5,0,0,0,.47-2.3c-.8-1.59,1-2.74.68-4.24a4.37,4.37,0,0,1-.53,1.47c-.06-1.18-.15-2.42-.21-3.62s-.18-2.27-.91-3c0,0,.35,1.53.06.88s-.8-.56-.8-.56l.24-1.44c.12-2-.09-4-1.39-5.31.06.38.38.8.09,1.21-.24-.68-.62-1.33-.92-2,2.45-6.31,3.48-15.62-.88-21.4a38.32,38.32,0,0,0-11.23-10,17.27,17.27,0,0,0-8.19-2.42c-1.18.09-2.62.09-2.51.71a13.68,13.68,0,0,0,1.3,5.78c2.18,4.3,4.69,5.6,7.25,8.34,1.27,1.24,3.3,2.77,4.42,4.51,1.62,3.45,1.89,7.4,2.36,11.29v.18a3.62,3.62,0,0,1-.83-3.42,2.9,2.9,0,0,0-.68,2.3,4.37,4.37,0,0,1-1.12-2,4.23,4.23,0,0,0,.32,1.77c-1.18-.62-1.8-1.53-3.45-2.27l.59.71c.59.62.83,1,1.47,1.56a42.61,42.61,0,0,0-4.33-1.71,5.44,5.44,0,0,1,.74,1,5.46,5.46,0,0,1-2.09-1.65l-.15-.24a11.84,11.84,0,0,0-.32,2,3.32,3.32,0,0,0-1.59-.29c.47.29,1.68,1.21,1.33,1a8.25,8.25,0,0,0-2.09-.32c-3.86-3.71-7.9-6.93-12.82-8-7-.94-13.41,1.68-18.36,6.72a.74.74,0,0,0,0,1,12.46,12.46,0,0,0,5.81,1.21,31.66,31.66,0,0,1,13.65,3.39c3.6,1.5,5.78,5.81,10.11,6.16-1.3,1.09-3.45.77-4.16,2.65-.8,1.33-.15,3,.38,3.92l0-.35a11.32,11.32,0,0,0,2.45,3.09L583,523c.88.71.3,1.92.71,2.83a23,23,0,0,1-3.57,2.3c-3.83.56-8.34,1-10.14,5.1-1.47,3.12-1.59,7.6.65,10.43.65,2,.32,3,.53,4.48.27,1,1.33.83,2.09,1.06A9.22,9.22,0,0,0,574,552c.29.59,1,.68,1.62.77a3.07,3.07,0,0,0,1,.85,2.12,2.12,0,0,1-.06.62,3.16,3.16,0,0,0,.18,2.09c.8,1.71,2.51,1.44,4,1.74a2.32,2.32,0,0,0,1.12.38,14.85,14.85,0,0,0,8.16-1l-.15.82a1.64,1.64,0,0,0-.74.18c-2.33.91-4.72,1.59-6.66,3.39a17.44,17.44,0,0,1-5.42-.38c-3-2.09-6-4-9.78-4.13-5.31-.06-11.7-.06-16.27,3.3-5.69.77-11.26,2.24-15.3,6.87a8.37,8.37,0,0,0-4.21-1.33,6.86,6.86,0,0,0-6.66,3.92.36.36,0,0,0,.38-.15,5.23,5.23,0,0,1,4.63-2.45,9.44,9.44,0,0,0-3.62,2c-2.3,1.92-2.53,3.66-2.45,6.45,0,0,.06,1.33-.38,1.59-.53.44-1.59.15-2.51-.27,0,.29.24.38.44.53,3,1.47,6.25,2.74,9.9,2.15,3.24-.53,5.63-3.83,6.37-6.72.26,1.62-.77,2.95-1.3,4.24l.71-.83a4.92,4.92,0,0,0,1-3.57,16.59,16.59,0,0,0-.83-4.3,22,22,0,0,1,9.61-4c-2,2.77-2.45,6.13-2.51,9.67-1.71,2.59-3.83,5-5.1,7.81-1.45,2.24-1,5.89-4.1,6.78-2,4.27-.91,9.73.53,13.94.56,2.36-.24,4.86-.62,7.19.18,1.56,2.33,2.18,2.18,3.77-1.5,1-1.68,2.71-2.24,4.16a9.2,9.2,0,0,0,3.83,6.66,3.18,3.18,0,0,0,3.86.06c1.86-1.59,1.24-4.27,1.39-6.57.32-1.56-1.47-2.27-1.3-3.8-.27-2,1.3-4-.21-5.72-2.62-3.92-2-9.81.12-13.76a24.46,24.46,0,0,1,8.14-2.65c.59,1.95,1,4,1.77,5.84,1.12,3.15,4.21,5.54,7,7.13-.91,1.06-2.77.53-3.07,2.15.12,4.63.12,9.34-1.06,13.59-.44,2.21-1.92,4.07-2.09,6.25-.15,2.89,2.65,2.89,4.57,4.86a1.39,1.39,0,0,1,.27,1.86l.21,4,.35.21a11.71,11.71,0,0,0,5.13,1.33,12.54,12.54,0,0,0,5.78-.88,16.18,16.18,0,0,0-2.56-6.34,11.46,11.46,0,0,1-5.57-7.66c-.53-6.72,3.15-12.73,9-16.24l8.61,1.15,1.24,2.71c.8,2-.24,4,.41,6a25.07,25.07,0,0,1,3.18,14.5c-.5,3.74,4.07,3.86,5.48,6.54.65,1.09,0,2.33-.53,3.27a17.64,17.64,0,0,0,.62,4.27,9.18,9.18,0,0,0,2.36,1.71A9.92,9.92,0,0,0,602,647.5a23,23,0,0,0-1.41-5.51,3,3,0,0,0-.56-.88,21,21,0,0,1-7-8.25c-1.65-3.86-3.21-8-2.74-12.5.59-2.71-.38-5.16-1.47-7.43a19.6,19.6,0,0,1,.3-3.24l3.09-1.12a38.43,38.43,0,0,0,12.76-8,11.16,11.16,0,0,0,3.6,2.21c2.83.35,5.1-1.27,7.43-2.42.12-.06.62-.41.94-.09-.12,2.65-1.68,4.75-3.36,6.75a20,20,0,0,0-3.8.38,10.13,10.13,0,0,0-4.48,5.84c-.41,2.27-.38,5.42,2,6.16s4.24-.74,6-1.86c1.44-.79,2.39-2.36,3.39-3.48,1.3-.47,2.92-1.44,3.24-2.95,1-4.27,1.92-8.67,5.25-11.88a15.65,15.65,0,0,0,1.68-5C627.37,592.24,626.57,589.76,625.27,589.17Z"/><path class="cls-10" d="M466.83,518.72c-3.73-3.73-7.45-8.4-10.87-11.5a34,34,0,0,0-11.18-6.53,19.57,19.57,0,0,1-2.17-.62,21.44,21.44,0,0,0-.93-2.49c-.31-.62-.62-1.24-1.24-1.24-1.55.31-2.48,1.55-3.73,1.86-3.41-1.24-6.52-2.8-9.62-3.73-1.55-.62-3.41-.62-5-1.86a39.21,39.21,0,0,0-7.45-13.68,4.46,4.46,0,0,1,.93-3.42c1.24-2.49,4.35-2.49,6.21-4.35a3.69,3.69,0,0,0-.31-3.11c-.93-1.55-2.79-3.42-4.66-3.11-1.24,0-1.86,1.24-2.17,2.18-.31,2.49-.31,5-2.17,6.84a1.38,1.38,0,0,1-1.86.62c-1.86-1.24-3.73-3.11-6.21-4-5.28-2.49-12.11-.93-16.45,2.8-3.73,3.42-4.66,8.09-5.28,12.44,0,.62,0,.93-.62,1.24-1.24.62-2.79,0-3.73-.62-2.17-.93-3.73-3.42-6.21-2.8-.62.31-.93,1.24-1.24,1.87-.31,2.18-.31,4.35,1.24,5.91,2.48,1.24,3.73-1.56,6.21-1.24,1.55,0,3.73.62,4.35,2.49a30.31,30.31,0,0,0,1.86,10.57L381.77,505c-.62.31-1.55-.31-2.48-.31-2.79.31-3.73,3.42-4.35,5.6a22.5,22.5,0,0,0-10.24,12.44c-3.11,4.35-5,9-7.45,14-.93,2.49-2.17,5.29-2.48,8.08.31,9,4.35,16.17,10.25,22.39,1.55,1.87,3.41,3.42,4.66,5.29.31.31.62,0,1.24,0,1.24,3.11,4,6.53,7.45,7.46a5.3,5.3,0,0,0-.31,2.18c0,1.24.31,4.35-1.24,6.22.31.93,1.86,1.56,2.48,2.18,0,3.73-.31,7.77.93,10.88l.31,7.15c.31,4.66,2.48,8.4,2.79,13.06a6.4,6.4,0,0,1,0,3.42,10.39,10.39,0,0,1-3.11,0c-.31,0-.31.31-.31.93.31.62-.62,1.55,0,2.18.62.31,1.24,0,1.86.31.31.31,0,.62-.31.62-.93.62-2.17.62-2.79,1.56l.31.31c.62.62.93-.31,1.55-.31a20.4,20.4,0,0,1-7.14,5.6c-2.17,1.55-5.28,2.18-7.14,4.66-.31.62-.93,1.24-.62,1.87,2.79,1.87,5.9,2.49,9.31,3.11,5,.62,9.62-.62,14-2.18,3.11-.93,6.83-.31,9.31-2.8,1.24-1.87.62-4.66,0-6.84a18.32,18.32,0,0,1-1.24-2.49c.31,0,.93,0,.93-.31.31-.93-.31-1.24-.31-1.87l.31-1.55a18.74,18.74,0,0,1-2.48-2.49c.93-3.73,2.48-7.15,3.41-11.19A17.89,17.89,0,0,0,396.67,602a9.75,9.75,0,0,1,1.55-3.11l1.86.31c6.83,2.18,14.9,1.87,21.73.62h.31c.62,2.18,1.24,4.66,1.86,6.53a22.76,22.76,0,0,0,0,11.19c.93,3.73,3.73,6.53,4.35,10.57-.62.62-1.86.31-2.17,1.55,0,.31-.62.93,0,1.24.93.62,1.55,1.86,2.48,2.8v2.8c0,3.11-2.48,5.29-2.17,8.39,1.24,3.42,4.66,5.29,7.76,5.91,5.28.62,10.25-.93,14.59-3.11a5.48,5.48,0,0,0,2.48-2.8c.31-.62-.31-1.24-.62-1.87-3.42-3.73-6.83-7.77-7.45-12.75.93-.31,1.86-.31,2.17-1.24h1.24a9.3,9.3,0,0,0-4.66-3.73c-.93,0-.62-.93-.62-1.87a43.53,43.53,0,0,1,1.86-7.46c1.24-4.35-.31-8.71-1.24-12.75,1.55-3.73,2.17-7.77,3.1-11.5l2.48-1.24c1.55-.93,1.55-2.8,1.86-4.35V575.62c.31-.31.62-.62.93-.62.62.62,1.55,1.87,2.48,1.55,1.86-.31,4,0,5.59-1.24l2.17.62c1.55.31,2.79-.62,4-1.55,1.24,0,2.48.62,3.41-.31.31-1.56,1.24-2.8,1.24-4.66-.31-2.49-.93-4.66-1.24-7.15.31-.31.93-.31,1.24-.93v-.93a32.51,32.51,0,0,1,1.24-5.29c1.24-4,3.41-8.08,4-12.75.31-3.11.62-6.53.62-9.64C473.35,527.74,470.87,522.76,466.83,518.72Z"/><path d="M625.27,589.17a21.11,21.11,0,0,0-2.65-.91c-1.68-.41-3.27,2.15-4.83.65-1.21-4.19.88-8,.56-12.29-.77-3.13-3.09-5.63-4.86-8.34l-.12-.38c.35-2.62.41-5.42.59-8-.12-6-1.5-11.49-2.86-17,1.27-1,1.5-2.36,1.77-3.71a1.47,1.47,0,0,1,0,.94H613c1.8-5.54-.41-11.05-4.22-15.09a5,5,0,0,0,.47-2.3c-.8-1.59,1-2.74.68-4.24a4.37,4.37,0,0,1-.53,1.47c-.06-1.18-.15-2.42-.21-3.62s-.18-2.27-.91-3c0,0,.35,1.53.06.88s-.8-.56-.8-.56l.24-1.44c.12-2-.09-4-1.39-5.31.06.38.38.8.09,1.21-.24-.68-.62-1.33-.92-2,2.45-6.31,3.48-15.62-.88-21.4a38.32,38.32,0,0,0-11.23-10,17.27,17.27,0,0,0-8.19-2.42c-1.18.09-2.62.09-2.51.71a13.68,13.68,0,0,0,1.3,5.78c2.18,4.3,4.69,5.6,7.25,8.34,1.27,1.24,3.3,2.77,4.42,4.51,1.62,3.45,1.89,7.4,2.36,11.29v.18a3.62,3.62,0,0,1-.83-3.42,2.9,2.9,0,0,0-.68,2.3,4.37,4.37,0,0,1-1.12-2,4.23,4.23,0,0,0,.32,1.77c-1.18-.62-1.8-1.53-3.45-2.27l.59.71c.59.62.83,1,1.47,1.56a42.61,42.61,0,0,0-4.33-1.71,5.44,5.44,0,0,1,.74,1,5.46,5.46,0,0,1-2.09-1.65l-.15-.24a11.84,11.84,0,0,0-.32,2,3.32,3.32,0,0,0-1.59-.29c.47.29,1.68,1.21,1.33,1a8.25,8.25,0,0,0-2.09-.32c-3.86-3.71-7.9-6.93-12.82-8-7-.94-13.41,1.68-18.36,6.72a.74.74,0,0,0,0,1,12.46,12.46,0,0,0,5.81,1.21,31.66,31.66,0,0,1,13.65,3.39c3.6,1.5,5.78,5.81,10.11,6.16-1.3,1.09-3.45.77-4.16,2.65-.8,1.33-.15,3,.38,3.92l0-.35a11.32,11.32,0,0,0,2.45,3.09L583,523c.88.71.3,1.92.71,2.83a23,23,0,0,1-3.57,2.3c-3.83.56-8.34,1-10.14,5.1-1.47,3.12-1.59,7.6.65,10.43.65,2,.32,3,.53,4.48.27,1,1.33.83,2.09,1.06A9.22,9.22,0,0,0,574,552c.29.59,1,.68,1.62.77a3.07,3.07,0,0,0,1,.85,2.12,2.12,0,0,1-.06.62,3.16,3.16,0,0,0,.18,2.09c.8,1.71,2.51,1.44,4,1.74a2.32,2.32,0,0,0,1.12.38,14.85,14.85,0,0,0,8.16-1l-.15.82a1.64,1.64,0,0,0-.74.18c-2.33.91-4.72,1.59-6.66,3.39a17.44,17.44,0,0,1-5.42-.38c-3-2.09-6-4-9.78-4.13-5.31-.06-11.7-.06-16.27,3.3-5.69.77-11.26,2.24-15.3,6.87a8.37,8.37,0,0,0-4.21-1.33,6.86,6.86,0,0,0-6.66,3.92.36.36,0,0,0,.38-.15,5.23,5.23,0,0,1,4.63-2.45,9.44,9.44,0,0,0-3.62,2c-2.3,1.92-2.53,3.66-2.45,6.45,0,0,.06,1.33-.38,1.59-.53.44-1.59.15-2.51-.27,0,.29.24.38.44.53,3,1.47,6.25,2.74,9.9,2.15,3.24-.53,5.63-3.83,6.37-6.72.26,1.62-.77,2.95-1.3,4.24l.71-.83a4.92,4.92,0,0,0,1-3.57,16.59,16.59,0,0,0-.83-4.3,22,22,0,0,1,9.61-4c-2,2.77-2.45,6.13-2.51,9.67-1.71,2.59-3.83,5-5.1,7.81-1.45,2.24-1,5.89-4.1,6.78-2,4.27-.91,9.73.53,13.94.56,2.36-.24,4.86-.62,7.19.18,1.56,2.33,2.18,2.18,3.77-1.5,1-1.68,2.71-2.24,4.16a9.2,9.2,0,0,0,3.83,6.66,3.18,3.18,0,0,0,3.86.06c1.86-1.59,1.24-4.27,1.39-6.57.32-1.56-1.47-2.27-1.3-3.8-.27-2,1.3-4-.21-5.72-2.62-3.92-2-9.81.12-13.76a24.46,24.46,0,0,1,8.14-2.65c.59,1.95,1,4,1.77,5.84,1.12,3.15,4.21,5.54,7,7.13-.91,1.06-2.77.53-3.07,2.15.12,4.63.12,9.34-1.06,13.59-.44,2.21-1.92,4.07-2.09,6.25-.15,2.89,2.65,2.89,4.57,4.86a1.39,1.39,0,0,1,.27,1.86l.21,4,.35.21a11.71,11.71,0,0,0,5.13,1.33,12.54,12.54,0,0,0,5.78-.88,16.18,16.18,0,0,0-2.56-6.34,11.46,11.46,0,0,1-5.57-7.66c-.53-6.72,3.15-12.73,9-16.24l8.61,1.15,1.24,2.71c.8,2-.24,4,.41,6a25.07,25.07,0,0,1,3.18,14.5c-.5,3.74,4.07,3.86,5.48,6.54.65,1.09,0,2.33-.53,3.27a17.64,17.64,0,0,0,.62,4.27,9.18,9.18,0,0,0,2.36,1.71A9.92,9.92,0,0,0,602,647.5a23,23,0,0,0-1.41-5.51,3,3,0,0,0-.56-.88,21,21,0,0,1-7-8.25c-1.65-3.86-3.21-8-2.74-12.5.59-2.71-.38-5.16-1.47-7.43a19.6,19.6,0,0,1,.3-3.24l3.09-1.12a38.43,38.43,0,0,0,12.76-8,11.16,11.16,0,0,0,3.6,2.21c2.83.35,5.1-1.27,7.43-2.42.12-.06.62-.41.94-.09-.12,2.65-1.68,4.75-3.36,6.75a20,20,0,0,0-3.8.38,10.13,10.13,0,0,0-4.48,5.84c-.41,2.27-.38,5.42,2,6.16s4.24-.74,6-1.86c1.44-.79,2.39-2.36,3.39-3.48,1.3-.47,2.92-1.44,3.24-2.95,1-4.27,1.92-8.67,5.25-11.88a15.65,15.65,0,0,0,1.68-5C627.37,592.24,626.57,589.76,625.27,589.17Z"/><path d="M466.83,518.72c-3.73-3.73-7.45-8.4-10.87-11.5a34,34,0,0,0-11.18-6.53,19.57,19.57,0,0,1-2.17-.62,21.44,21.44,0,0,0-.93-2.49c-.31-.62-.62-1.24-1.24-1.24-1.55.31-2.48,1.55-3.73,1.86-3.41-1.24-6.52-2.8-9.62-3.73-1.55-.62-3.41-.62-5-1.86a39.21,39.21,0,0,0-7.45-13.68,4.46,4.46,0,0,1,.93-3.42c1.24-2.49,4.35-2.49,6.21-4.35a3.69,3.69,0,0,0-.31-3.11c-.93-1.55-2.79-3.42-4.66-3.11-1.24,0-1.86,1.24-2.17,2.18-.31,2.49-.31,5-2.17,6.84a1.38,1.38,0,0,1-1.86.62c-1.86-1.24-3.73-3.11-6.21-4-5.28-2.49-12.11-.93-16.45,2.8-3.73,3.42-4.66,8.09-5.28,12.44,0,.62,0,.93-.62,1.24-1.24.62-2.79,0-3.73-.62-2.17-.93-3.73-3.42-6.21-2.8-.62.31-.93,1.24-1.24,1.87-.31,2.18-.31,4.35,1.24,5.91,2.48,1.24,3.73-1.56,6.21-1.24,1.55,0,3.73.62,4.35,2.49a30.31,30.31,0,0,0,1.86,10.57L381.77,505c-.62.31-1.55-.31-2.48-.31-2.79.31-3.73,3.42-4.35,5.6a22.5,22.5,0,0,0-10.24,12.44c-3.11,4.35-5,9-7.45,14-.93,2.49-2.17,5.29-2.48,8.08.31,9,4.35,16.17,10.25,22.39,1.55,1.87,3.41,3.42,4.66,5.29.31.31.62,0,1.24,0,1.24,3.11,4,6.53,7.45,7.46a5.3,5.3,0,0,0-.31,2.18c0,1.24.31,4.35-1.24,6.22.31.93,1.86,1.56,2.48,2.18,0,3.73-.31,7.77.93,10.88l.31,7.15c.31,4.66,2.48,8.4,2.79,13.06a6.4,6.4,0,0,1,0,3.42,10.39,10.39,0,0,1-3.11,0c-.31,0-.31.31-.31.93.31.62-.62,1.55,0,2.18.62.31,1.24,0,1.86.31.31.31,0,.62-.31.62-.93.62-2.17.62-2.79,1.56l.31.31c.62.62.93-.31,1.55-.31a20.4,20.4,0,0,1-7.14,5.6c-2.17,1.55-5.28,2.18-7.14,4.66-.31.62-.93,1.24-.62,1.87,2.79,1.87,5.9,2.49,9.31,3.11,5,.62,9.62-.62,14-2.18,3.11-.93,6.83-.31,9.31-2.8,1.24-1.87.62-4.66,0-6.84a18.32,18.32,0,0,1-1.24-2.49c.31,0,.93,0,.93-.31.31-.93-.31-1.24-.31-1.87l.31-1.55a18.74,18.74,0,0,1-2.48-2.49c.93-3.73,2.48-7.15,3.41-11.19A17.89,17.89,0,0,0,396.67,602a9.75,9.75,0,0,1,1.55-3.11l1.86.31c6.83,2.18,14.9,1.87,21.73.62h.31c.62,2.18,1.24,4.66,1.86,6.53a22.76,22.76,0,0,0,0,11.19c.93,3.73,3.73,6.53,4.35,10.57-.62.62-1.86.31-2.17,1.55,0,.31-.62.93,0,1.24.93.62,1.55,1.86,2.48,2.8v2.8c0,3.11-2.48,5.29-2.17,8.39,1.24,3.42,4.66,5.29,7.76,5.91,5.28.62,10.25-.93,14.59-3.11a5.48,5.48,0,0,0,2.48-2.8c.31-.62-.31-1.24-.62-1.87-3.42-3.73-6.83-7.77-7.45-12.75.93-.31,1.86-.31,2.17-1.24h1.24a9.3,9.3,0,0,0-4.66-3.73c-.93,0-.62-.93-.62-1.87a43.53,43.53,0,0,1,1.86-7.46c1.24-4.35-.31-8.71-1.24-12.75,1.55-3.73,2.17-7.77,3.1-11.5l2.48-1.24c1.55-.93,1.55-2.8,1.86-4.35V575.62c.31-.31.62-.62.93-.62.62.62,1.55,1.87,2.48,1.55,1.86-.31,4,0,5.59-1.24l2.17.62c1.55.31,2.79-.62,4-1.55,1.24,0,2.48.62,3.41-.31.31-1.56,1.24-2.8,1.24-4.66-.31-2.49-.93-4.66-1.24-7.15.31-.31.93-.31,1.24-.93v-.93a32.51,32.51,0,0,1,1.24-5.29c1.24-4,3.41-8.08,4-12.75.31-3.11.62-6.53.62-9.64C473.35,527.74,470.87,522.76,466.83,518.72Z"/><path class="cls-11" d="M496.48,874.75V851a5.33,5.33,0,0,1,1-3.65,3.34,3.34,0,0,1,2.57-1.08,3.25,3.25,0,0,1,2.49,1.08,5.34,5.34,0,0,1,1,3.65v23.79l22.63-7.38a8.77,8.77,0,0,1,2.4-.5,3.12,3.12,0,0,1,2.32,1,3.57,3.57,0,0,1,.29,4.6,5.75,5.75,0,0,1-2.86,1.58l-22.63,7.38,14,19.23a6,6,0,0,1,1.33,3,3.44,3.44,0,0,1-1,2.53,3.34,3.34,0,0,1-2.44,1q-1.82,0-3.56-2.4l-14-19.31-14,19.31q-1.74,2.4-3.48,2.4a3.54,3.54,0,0,1-3.56-3.56,5.79,5.79,0,0,1,1.41-3l14-19.23L471.61,874a5.88,5.88,0,0,1-2.78-1.53,3.25,3.25,0,0,1-.7-2.11,3.41,3.41,0,0,1,1-2.44,3,3,0,0,1,2.24-1,8.87,8.87,0,0,1,2.49.5Z"/><path class="cls-11" d="M240.94,534.64V510.85a5.33,5.33,0,0,1,1-3.65,3.34,3.34,0,0,1,2.57-1.08,3.25,3.25,0,0,1,2.49,1.08,5.34,5.34,0,0,1,1,3.65v23.79l22.63-7.38a8.77,8.77,0,0,1,2.4-.5,3.12,3.12,0,0,1,2.32,1,3.57,3.57,0,0,1,.29,4.6,5.75,5.75,0,0,1-2.86,1.58l-22.63,7.38,14,19.23a6,6,0,0,1,1.33,3,3.44,3.44,0,0,1-1,2.53,3.34,3.34,0,0,1-2.44,1q-1.82,0-3.56-2.4l-14-19.31-14,19.31q-1.74,2.4-3.48,2.4a3.54,3.54,0,0,1-3.56-3.56,5.79,5.79,0,0,1,1.41-3l14-19.23-22.71-7.46a5.88,5.88,0,0,1-2.78-1.53,3.25,3.25,0,0,1-.7-2.11,3.41,3.41,0,0,1,1-2.44,3,3,0,0,1,2.24-1,8.87,8.87,0,0,1,2.49.5Z"/><path class="cls-11" d="M752,534.64V510.85a5.33,5.33,0,0,1,1-3.65,3.34,3.34,0,0,1,2.57-1.08,3.25,3.25,0,0,1,2.49,1.08,5.34,5.34,0,0,1,1,3.65v23.79l22.63-7.38a8.77,8.77,0,0,1,2.4-.5,3.12,3.12,0,0,1,2.32,1,3.57,3.57,0,0,1,.29,4.6,5.75,5.75,0,0,1-2.86,1.58l-22.63,7.38,14,19.23a6,6,0,0,1,1.33,3,3.44,3.44,0,0,1-1,2.53,3.34,3.34,0,0,1-2.44,1q-1.82,0-3.56-2.4l-14-19.31-14,19.31q-1.74,2.4-3.48,2.4a3.54,3.54,0,0,1-3.56-3.56,5.79,5.79,0,0,1,1.41-3l14-19.23-22.71-7.46a5.88,5.88,0,0,1-2.78-1.53,3.25,3.25,0,0,1-.7-2.11,3.41,3.41,0,0,1,1-2.44,3,3,0,0,1,2.24-1,8.87,8.87,0,0,1,2.49.5Z"/><path class="cls-11" d="M301.3,231.27V207.49a5.33,5.33,0,0,1,1-3.65,3.34,3.34,0,0,1,2.57-1.08,3.25,3.25,0,0,1,2.49,1.08,5.34,5.34,0,0,1,1,3.65v23.79L331,223.9a8.77,8.77,0,0,1,2.4-.5,3.12,3.12,0,0,1,2.32,1A3.57,3.57,0,0,1,336,229a5.75,5.75,0,0,1-2.86,1.58L310.5,238l14,19.23a6,6,0,0,1,1.33,3,3.44,3.44,0,0,1-1,2.53,3.34,3.34,0,0,1-2.44,1q-1.82,0-3.56-2.4l-14-19.31-14,19.31q-1.74,2.4-3.48,2.4a3.54,3.54,0,0,1-3.56-3.56,5.79,5.79,0,0,1,1.41-3l14-19.23-22.71-7.46a5.88,5.88,0,0,1-2.78-1.53,3.25,3.25,0,0,1-.7-2.11,3.41,3.41,0,0,1,1-2.44,3,3,0,0,1,2.24-1,8.87,8.87,0,0,1,2.49.5Z"/><path class="cls-11" d="M691.66,231.27V207.49a5.33,5.33,0,0,1,1-3.65,3.34,3.34,0,0,1,2.57-1.08,3.25,3.25,0,0,1,2.49,1.08,5.34,5.34,0,0,1,1,3.65v23.79l22.63-7.38a8.77,8.77,0,0,1,2.4-.5,3.12,3.12,0,0,1,2.32,1,3.57,3.57,0,0,1,.29,4.6,5.75,5.75,0,0,1-2.86,1.58L700.86,238l14,19.23a6,6,0,0,1,1.33,3,3.44,3.44,0,0,1-1,2.53,3.34,3.34,0,0,1-2.44,1q-1.82,0-3.56-2.4l-14-19.31-14,19.31q-1.74,2.4-3.48,2.4a3.54,3.54,0,0,1-3.56-3.56,5.79,5.79,0,0,1,1.41-3l14-19.23-22.71-7.46A5.88,5.88,0,0,1,664,229a3.25,3.25,0,0,1-.7-2.11,3.41,3.41,0,0,1,1-2.44,3,3,0,0,1,2.24-1,8.87,8.87,0,0,1,2.49.5Z"/></g></g></svg>