<svg xmlns="http://www.w3.org/2000/svg" xmlns:xlink="http://www.w3.org/1999/xlink" viewBox="0 0 1024 1024"><defs><style>.cls-1{fill:none;}.cls-2{clip-path:url(#clip-path);}.cls-3,.cls-7{fill-rule:evenodd;}.cls-4,.cls-7{fill:#fff;}.cls-5{fill:#231f20;}.cls-6{stroke:#000;stroke-miterlimit:10;}</style><clipPath id="clip-path"><ellipse class="cls-1" cx="509.2" cy="590.02" rx="331.03" ry="292.38"/></clipPath></defs><title>gothohm city</title><g id="Omega"><path d="M258.17,889.95C220.6,923,125.89,941.27,106,946.32H392.47c-121-47.54-206.62-165.39-206.62-303.24,0-179.87,145.82-325.69,325.69-325.69S837.22,463.21,837.22,643.09c0,137.85-85.64,255.69-206.62,303.24H931c-21.66-5.21-123.58-24.52-163-59.51A360.42,360.42,0,0,0,873.11,632c0-199.69-161.88-361.57-361.57-361.57S150,432.31,150,632A360.47,360.47,0,0,0,258.17,889.95Z"/></g><g id="Lightning"><g class="cls-2"><path class="cls-3" d="M1009.21,743.24Z"/><path class="cls-3" d="M572.26,189.67c-1.69.45-4.66-1-4.58,1.86,1.35-1.83,4.42-.89,6.58-1.43,2.36-2.66,5-4.84,7-8.13l-1-.22C577.9,184.66,575.84,188.72,572.26,189.67Z"/><path class="cls-3" d="M550.86,203.25c-1.05.36.23,2.31,1.11,1.31C551.07,204.48,552,203.19,550.86,203.25Z"/><path class="cls-3" d="M810.24,331.14c0,1.23.12,2.45.25,3.63C811.33,333.93,810.85,331.94,810.24,331.14Z"/><path class="cls-3" d="M496,338.64c.09-1,1.28-4.33.48-3.83C496.42,335.85,495.22,339.14,496,338.64Z"/><path class="cls-3" d="M651.85,400c.49-1.07-.55-.67-.66-.14C652.31,401.15,655.34,400.52,651.85,400Z"/><path class="cls-3" d="M432.45,411.7c-1.6.23-3-.87-4.29.5C429.39,411.7,431.53,412.69,432.45,411.7Z"/><path class="cls-3" d="M259.87,404.93c-1.31,3,.29,3.94,0,0Z"/><path class="cls-3" d="M306.36,426.48c.07.53-.77,1.68,0,1.78a6,6,0,0,1,1.29-1.15c.52.84-.29.64-.63,1.29.83,0,.59.78,1.59.7.4-1-.95-1.15,0-1.78C307.85,427,307.48,426.51,306.36,426.48Z"/><path class="cls-3" d="M577.32,494.67c.22-1.22.14-2.24-.81-2.68C576.95,492.78,576.56,494.1,577.32,494.67Z"/><path class="cls-3" d="M305.51,462.4c.64-1,2.62-2.23,1.89-3.88C307.27,461.08,304.73,460.85,305.51,462.4Z"/><path class="cls-3" d="M593.39,603.28c1.24,0,1,2.43,2.11,1.53C594.76,604.5,594.57,602.34,593.39,603.28Z"/><path class="cls-3" d="M498.61,600.55c-.61-.18-1.06-.47-1.18-1,0-.28.14-.68-.18-.76C496.48,600.24,497.86,601.9,498.61,600.55Z"/><path class="cls-3" d="M548,203.7c.33-.56-.67-1.63.37-1.71,1.34.88.9,2,1.48,2.82.12-1.06.95-2.57-.07-2.88-.14.39-.15,1-.55,1-.17-4.85,7.25-2,10.2-2.07-.77-3.1-2.08-5.83-1.32-9.94l2.33.51c2.2-3.16,7.24-5.87,10.64-4.12,2.21-2,4.64-3.62,6.54-6.09l-.66-.14a64.89,64.89,0,0,1-5.66,5.21c-1.07,0-1.14-.61-1.92-.77a6.34,6.34,0,0,1-5.1,1c-2.25,1.61-4.37,5.17-6.76,3.89a25.16,25.16,0,0,0,1,9.87c-1.32-1.13-3.24,0-3.84-1.55.59.17.85-.17.89-.88-1.16-.33-1,1.46-2.29.93-1-.53-.6-1.94-1.55-2.48C550.61,198.37,545.88,201,548,203.7Z"/><path class="cls-3" d="M764.47,482.44c3.72,4.46,9.37,9.18,8.41,15.77,1.7,1.8,3,3.86,6.31,4.59,1.09,3.66,2.29,7.25,3.17,11.06.2-4.52-2-7.44-2.76-11.33-3.17-.73-4.57-2.62-6-4.52.12-7.19-4.92-11-8.41-15.77,1-1.46.45-2.86,1.37-4.71-.17-.15-.33-.32-.49-.49a2.64,2.64,0,0,1,.08.76C765.24,478.77,765.44,481.54,764.47,482.44Z"/><path class="cls-3" d="M763.85,440.47c-1.12-.55.14-.85.11-2.12a5.14,5.14,0,0,1-1.36-1C763.25,438.59,762.79,440.34,763.85,440.47Z"/><path class="cls-3" d="M704.47,478.2a2.38,2.38,0,0,0-.4.61A1.07,1.07,0,0,0,704.47,478.2Z"/><path class="cls-3" d="M765.33,476.16a9.83,9.83,0,0,0,.76.89A1.34,1.34,0,0,0,765.33,476.16Z"/><path class="cls-3" d="M716.18,494.83c0,.95,1.36,1.05,1.29,2.07a49.06,49.06,0,0,0-2.44,4.83,15.86,15.86,0,0,1,.18,7.19c1.9,3.71,7,5.28,5.57,11.22,1.31.4,2-.21,3.4.38,2.16,5.27-.24,11.09,1.79,15.76,1.21,2.79,3.9,5.11,4.09,8.4-.08-4.92-4-7.26-4.35-12,.61.44,1.95-.14,1.15-.47-.14.39-.61.26-1.07.13.28-4.47-.58-8.19-1.21-12.06-.94-1.06-2.62.13-3.32-.72,1.89-4.23-3.73-7.09-5.31-10.81-.19-2.41.35-5.3-.51-7.26a17.28,17.28,0,0,0,2.52-5.17c-.59-.49-1.29-.9-1.37-1.73-3.52-.32-3.77-2.43-6.13-3.84a10.73,10.73,0,0,1-4.5-4.91c-.94-2-2.28-5.66-2.06-6.53a3,3,0,0,1,.17-.48.82.82,0,0,1-.76,0C704.73,486,707.75,492.22,716.18,494.83Z"/><path class="cls-3" d="M420.78,635.06c0-.29-.08-.59-.12-.89,0,.18-.08.36-.14.53A4.13,4.13,0,0,1,420.78,635.06Z"/><path class="cls-3" d="M427.65,709.19c0-.07,0-.15,0-.23l-.18.26Z"/><path class="cls-3" d="M508.36,443.57a4.58,4.58,0,0,0-1.51,0C507.36,443.57,507.87,443.58,508.36,443.57Z"/><path class="cls-3" d="M420.78,635.06a82,82,0,0,0,2,8.71C422,640.92,422.47,637.27,420.78,635.06Z"/><path class="cls-3" d="M426,710.61c3.72,1.92,7.73,6.18,8,11.39l.66.14c-.48-1.73-.81-3.56-1.29-5.29.82.07,1.29,1.84,2.25.85-4.47-1.91-2.87-9.4-6.31-11,1.32,2.73,3.14,5.13,2.95,8.86-2-1.71-3-4.08-5.43-5.47.24-.27.47-.55.68-.84C426.7,709.38,425.28,709.91,426,710.61Z"/><path class="cls-3" d="M762,436.66a6.5,6.5,0,0,0,.59.69A2,2,0,0,0,762,436.66Z"/><path class="cls-3" d="M441.32,406.12c-1.34,0-2-1-2.66-.58a22.83,22.83,0,0,1-10.38,4.54c.4.13.76.27.52.83-5.1.73-8.61,4-11.28,8.63-2.16.53-4.46.83-6.06,2.26.42,3.52-2.83,4.08-5.18,4.6-.33,2.39-3.36,2.88-3.37,4.27,1.33-1.1,2.84-1.9,3.62-3.86,2.47-.45,5.56-1.46,5.25-4.94a14.65,14.65,0,0,1,6-1.92c4.77-9.65,14.93-8.65,21.14-14,3.1,1.29,4.38-.34,6.43-.75,2.36,1.53,4.3-.9,6.24-1.5L452,402C449.8,405.57,444.77,404.58,441.32,406.12Z"/><path class="cls-3" d="M919.43,445.34c-.15-1-1.07-1.44-1.22-2.41-2.28-.63-3.05-2.26-4.06-3.74-2.19-.4-2.72-1.91-4.69-2.45-6.74,4-10.48-4.52-11.88-9.38a12.66,12.66,0,0,1-7.6-3.43c3,4.44,10,5.46,10.62,12,2.45,2.34,6.51,3.12,9.12,1.27,2.67,1.44,5.71,4.4,8.67,6.53a9.34,9.34,0,0,0,.63,1.92c2.09,1.15,3.41,2.81,5.39,4C924.52,449.32,921.16,446.38,919.43,445.34Zm-24.33-17.8c.86-.24,2.19-.12,2.18,1.19A12.48,12.48,0,0,1,895.11,427.53Z"/><path class="cls-3" d="M890,423.92h0Z"/><path class="cls-3" d="M879.8,293c-2,3.89-5.61,5.13-9.09,6.6-1.13,4.5-4.89,6.26-9.69,6.12-3.38,4.25-7.69,7-13.45,7.44a12.7,12.7,0,0,1-3,4.35,13.07,13.07,0,0,1-3.1-1.75c-3.82,2.47-10.24.78-13.71,3.81a13.76,13.76,0,0,0-10.82.15c-2.07-.39-2.59-3.35-4.21-3.06,1.43.81,2,2.17,3.14,3.18-5-2.25-5.88-7.22-8.78-10.85a7.33,7.33,0,0,1,3.25-2.15c.62-4.81,2.34-7.08,5.73-8.76,5.5-2.74,13.56-4.85,18.18-6.77,2.55-5.74,8.13-6.61,13-8.61a4.32,4.32,0,0,0,2.44,1.6c1.29-2.94,7.14-3.15,6.8-5.67-1.76,2.7-5.41,2.38-7.06,5.26-.87-.49-1.12-1.4-2.44-1.6-4.85,2-10.43,2.92-13,8.61-6,3.07-16.93,4.38-21.77,8.86-1.34,1.24-1.26,4.56-2,6-.6,1.17-2.68,2.38-4.14,3-.34.15-1-.42-1.33-.29-2.44.87-4.68,2.57-8,3.26-4.06-2-6.78-2.1-11.56-2.87-3.86-2.41-3.32-7.74-6-11-4.06-.15-9.93-.2-13.19-1.79-3.92-1.91-5.22-6-8.45-7.56-3.48-1.64-6.61-.9-9.49.44-1-1.31-2-2.58-3-3.87-5.57.44-14.18,1-18.4-1.85-2,2.08-4.73.31-7.5.87-1.67.34-2.22,1.54-3.44,1.4-1.81-.21-3-2.25-4.95-2.86-3.2-1-6.17.7-9.2-.93-5.34,1.94-9.24-1.81-15-3.25-.6-2-2.64-1.5-4.36-2.38a2.21,2.21,0,0,1-2.11,1.69c-2.86-1.63-8.63.63-13,.74-4.29-3.51-9.49-5.85-13.36-9,.13-1,1-.88,1.11-1.9a245.92,245.92,0,0,0-3.67-24.75c-5.08-6.44-13-9.3-15.79-17l-2.66-.58c-1.33-4.77-7.31-6.46-7.08-12.27-2.85-1.6-3-4.76-5-7.52-2.72-3.7-6.11-4.68-1.77-4.67a5.43,5.43,0,0,1,2.48-3.39c-.47-.56-.37-1.51-1-2,2.94-.51,5.11-2.24,7.69-3.33l-1.33-.29c-2.3.62-3.71,2.64-6.47,2.53-1.75-1.18-1.58-3.63-3.91-4.43l.07-.34-8-1.73c-.63,1.08.37,3.12-.78,2,.87,1.23.39,2.16-.15,3.9-2.31-.48-3.13,1.44-5.69.55-.16,1.91-2.92,2.06-3.51,1.74.8-1.2-.26-2.84.45-5.27-.13.41-.28.79-.81.54,2-1.67,1.06-3.42.85-5.53l-3.32-.72c-.64,2,.27.63.44,1.17-.66,1.82-.49,1.45.29,1.85-1.32.49-1.55,2.88-.22,1-1.78,3.16.3,7.74-2.3,10.58a45.8,45.8,0,0,1-11.15-9.57c.28-2.72-.07-5,.3-7.8l-1.33-.29c.06,3.18-.59,6.82,0,9.65,1.6.16,3.08,3.05,3.32,3.94-2.59.05-3.74-2.38-5.91-1.64,3.24,2.64,9.49,1.5,10.23,5.8l3,.65c.3,1.24-.36,1.29-.59,2.73.77-.17,2.41-1.32,2.88-.45-1.38.45.43,1.33-1.37,1.49,3.33,2-1.19,5.34.1,7.53-.53.47-1.74.92-1.55.74-.77.79-1.1,2.71-2.29,4.15-.9,1.08-2.6,1.54-3.33,2.49a20.22,20.22,0,0,0-2.37,4.49c-.92,2.86-2.07,3-4,5.57-.48.64-.34,1.46-.78,2-.15.18-.95,0-1.07.12-2.7,3.12-5,6.1-7.95,6.14-1.59,1.55-1.64,2.79-2.78,4.76a1.3,1.3,0,0,1,1,1.65c-.87,2.6-2.31,4.28-4.51,4.74-4.74,6.1-3.28,14.35-3.71,20.29-1,.25-1,1.25-1.37,1.49-1.51.07-.46.07-.92-.56-1.38.35-2.57,4.58-3.55,3.52-.74,1.66.1,3.33-1.15,3.68,0-.41.27-1-.11-1.1-3.87,10.68-14.73,10.15-18,21.83-2.4,1.22-4.14,3.49-7.87,2.58-3.08,2.83-7.61,2.15-12.19,1.64-3.31,2.38-7.74,4.33-12.49,3-4.16,1.14-7.75,5.55-12.42,5.88-3.26.23-6.24-2-10-2.17a9.72,9.72,0,0,1-2.43-4.82c-2.82.64-5.09-.4-7.68.12-1.63-2.82-2.86-5.9-6.38-7.47C460,285.4,447.94,278.49,442,270c6.16,9.66,17.76,15.72,21.25,27.14a3,3,0,0,1,2.88,2.77,20.65,20.65,0,0,1-14.78,3.94c-4.29,5.1-11.34,5.77-16.63,9.26-2-2.05-4.88-.75-7.05-1.18-2.41-.47-4-2.68-6.76-2.54-.92.68-1.41,2-2.85,1.88-3.61-3-8.64.07-12-2.6-3.55.74-6.54,4.36-9.39,4.75.4.13.76.27.52.83-6.47,7-14.72,11.09-23.1,15-4.41-2.59-8.06,2.38-12,2.39-7.32,0-11.06-7.16-17.8-7.8-.51-1.51-1.91-2.44-2.66-3.8-3.75-.83-6.37-2.41-9.68-3.53-.61-7.12-5.35-11.5-13.49-13.64,3.84,2.45,9,4,11.35,7.46-.33,2.85,1.39,4.34,1.66,6.8,3.57.78,6.17,3,9.42,3.12,1.67,4.3,7.09,4.93,11.59,7.53,2.27,1.31,5.17,4,8.38,4.68-3.87,3.6-10.51,10.37-8.7,16-4.34-1-4.81,4.27-8.06,5-5.32-1-9.46,3.84-13,7.17-5,.34-8.79-3.22-12.3-2.67-1,.16-1.89,1.31-2.77,1.54-4.56,1.2-8.88.68-13,3.62l-2-.43a18,18,0,0,1-5.65,2c-.79.72-1.18,2.1-2.26,2.37-2,.42-4.45-2-6.65-1.45-2.8,4.26-6.29,7.42-10.94,8.7-.39,1,.18,1.44.22,2.19-1.32.95-3.55.45-5.1,1-.4-.81-.55-1.78-1.62-2.14-8.89-.16-15.68-4.5-23.41-7.59-5.1,4.1-13.46,3-19.62,5.39l-.3,1.37c6.24-2.74,14.89-1.61,20.36-5.59,7.27,3.2,14.09,7.31,22.75,7.45-.07.83,1,.89.63,1.92-1.59,2.37-5.42,2-6.06-1-1.3,1.17-.89,3.29-1.22,4-5.06.26-8,5-12.75,5.81-1.3.22-2.69-1-4,.57-.61,1.18,1.63,2.74,1.84,4.33,1,.56,2.36-.77,2.73.24-.1,2.23-2.68,4.24-4.33,5.49.8.64.85,1.77,2.36,1.94.45-.82-1-1.85.11-2.12.77-.53,1.24.16,2,.43-1.27,1.56.17,5-.3,7.8,1.69,1.26,2.69.64,5,1.08,1.28-2.4,4.11-2.31,6.28-3.28.78-1.4.42-1.75.34-3.15.74-1,2.12,1.22,2.14-.25-.27-1.09-2.14.32-2.59-.92.59,5.77-4.92,3.92-6.77,7.11l-3.66-.79a37.31,37.31,0,0,1,.19-8.9c-.52-1.28-2,1.06-2.4-.17a4.43,4.43,0,0,1,1.85-2.1c.87.49,1.12,1.4,2.44,1.6a5.9,5.9,0,0,1,.19-2.46c-2.92.34-1.74-4.22-5.1-2.18.32-1.77-1.79-1.93-1.66-3.58,7.34.56,10.46-5.64,17.29-5.89.71-.09.33-1.92,1.11-1.9.21.64,1.33.68,1.85,1.12,2.87-2.62,7.51-2.4,11-4,.3-1-.52-1.21-.22-2.19a18,18,0,0,0,10.13-8.17c3,.5,3.43,1.38,6.5,2.13,2.09-2.87,5.73-5.44,9.31-4.41,4.68-3.24,11.43-3.17,16.81-5.28,4.2,1.71,11,3.58,14.33,1.33,0,.86-.25,1.63-.34,3.14,5.18,5-1,10.73-2.12,17.77-2.11.92-3,3.82-4.92,5-1.63-.09-2.2-.88-3.58-1.14-2.6,1.52-4.54,4.08-7.39,5.19,1.15,2.91,2,8.95-1.89,10.31a4.89,4.89,0,0,0-2.77-1.67c-.32,1.22-3.15,1.45-4.4,2.62-1.76,5.06-3.85,10.94-1.23,13.68-2.76-5.3,1.91-18.79,8.66-14.21,4.52-.84,3.07-7.21,2.63-10.51,2.49-1.22,4.23-3.65,6.65-5,1.28,1.2,2.87,1.1,4.65,1a9.68,9.68,0,0,1,4.25-5.15c1.61-7.53,6.57-14.06,2.09-19.21l.59-2.73c-.55-.46-1.33.78-1.33-.29,3.44-1.58,6.1-6.23,10.72-4.46a35.63,35.63,0,0,0,6-5.13c2.35,3.17-2.21,9.77-1.71,14.29-4.46,3.29-5.82,11.54-9.44,16.18-.39,1,.18,1.44.22,2.19-3.46,3.52-8.11,9.06-5.19,14.25-.08.58-.85,3.05-.11,2.12.17-.5.15-1.29.63-1.29,2.41,2.2,2.38,6,3.2,9.28-3.26.92-3.73,6.3-5.29,9.93a2.17,2.17,0,0,1-1.74,0c-.1,5.21-6.47,6.4-7.69,9.77,3.15-2.64,7.19-5.74,8.95-9.14-4.07,9.21-10,16-13.14,26.82a7.59,7.59,0,0,0-2.14.25c-.44,1.17,1,1.1.55,2.27-3.31,3-7.92,3.87-10.72,7.68-.85-1.1-2-.65-2.84-1.33a18.31,18.31,0,0,0,.63-4.51c-.12-3.91-.52,2.87-1,4.78.69.62,2.27.64,2.84,1.33a19.46,19.46,0,0,1-5,3.57c6-2.76,10.29-8.36,16.34-11.11.75-1.41-1.29-1.74-.15-2.53,1.36.64,1.49-.68,2.55-.52-1,2.49,0,3.71.22,5.41-3.15,7.64,1.14,13.67-2.83,19.41-2,2.93-6.2,3.21-9.2,5.51-.49,7-3.67,12.84-.94,18.74-1.61,2-3.77,3.16-5.84,4.45.85,1.09-.46,3.62.37,4.73a21.63,21.63,0,0,1-3.84,1.67c-2.47,5.74-5.62,10.76-5.81,15.54,1.33-5.34,3.6-9.57,6.07-15.13,1.3-.36,2.29-1.24,3.77-1.33-.25-2.33.34-3.55.19-5.68a12.43,12.43,0,0,0,4.88-3.23,1.73,1.73,0,0,0,.29,1.85c0-1.47.34-1.37.67-3.07-3.12-5.43.45-11.45.79-18.06,2.84-1.74,5.94-3.07,8.72-4.9,5.24-6.88-.28-12.11,3.46-20.7-1.08-1.62-.35-4.45-.66-6.58a17.21,17.21,0,0,0,2.37-7.71c5.21-7.62,10.43-15.21,13.4-26.41,1.19-.24,1.72-1.53,2.85-1.88,0-4.55-4.59-9.88-4.64-13.88-.05-4.18,3.2-4.44,4.26-8.37.88.49,1-.29,1.74,0,.79-2.88,1-3.71.6-5.95,1.7-1.79,2.17-3.64,3.15-6.47,1.11-3.21,4.08-5.35,5.18-7.81,2-4.52,1.85-9.89,2.53-14.82,1.26.64,1.59-.21,2.22-.59-3.42-5.52,6.23-15.75,11.25-16.5.41.31-.24,1.33.37,1.51.46-1.64,1.26-1.38.59-2.73,2.74,0,5.85-1.94,8,0,2.05-1.16,3.51-3.28,6.54-2.87,6.16-4.1,12.68-7.62,17.6-13.69,1.08,0,1.66-.72,2.62-.86-.4-.13-.76-.27-.52-.83,3.46-3.15,8-2,12.79-1.36a2.71,2.71,0,0,1,1.4.15l-1.4-.15c-.48.06-.79.24-.41.48,2-.74,3.51.59,6.06,1,1.39-.07,1.6-2,3.18-1.81,3,2.16,9.23,1.46,12.81,3.5,5.32-3.76,12.57-4.4,17-9.52,5.1.94,10.57-1.46,14.71-3.6,1.51.85,1,3,2.66,3.8,2.63-.23,4.06.16,6.95.08.95,5.11,6.49,5.16,10.23,5.8,1.64.28,3.44,1.47,4.65,1,4.49-1.71,8.68-5.55,12.34-5.54-4.57,2.84-3.24,8.55-5.19,14.25,3.87,4.12-.2,9.12-1.16,13.33,2.37-4.34,5.11-10,1.64-13.95,1.8-4,.73-11.92,5.7-13.42,6.77.41,10-4.91,17.7-2.95,3.13-1.89,7.11-2.41,11.08-3-.5,6.76,3,10.87,1.61,18.23a12.17,12.17,0,0,0,2.29,2.29c-.78,3.53-3.61,6.41-5.11,10.69-1.3,3.72-1.39,8.16-2.93,11.88-.68,1.65-2.18,2.84-2.7,4.42-1,3.16-.38,6.54-2.19,8.46a11.3,11.3,0,0,1-.12,5.34c-2.64,2.42-9.91,3.05-7.8,8.67-2.59,5.37-7.54,6.95-12.6,8.34-1.2-.79-4.3-.09-2.4-.16l2.33.51a23.16,23.16,0,0,1,7-1.7c-2.6,3.38-6.15,9.33-6,13A124.62,124.62,0,0,1,491,398.68c-1.83-2.68-4.55-1-7.2-.49-7.47-6.08-16.42,4-24.64-.35-1.91,1.08-3.33,2.94-6.39,2.19a7.34,7.34,0,0,1-.41,1.22c2.25-.85,5-.83,6.65-2.72,8.22,4.14,17.93-6.06,25,.42,1.45-.14,2.29-1.24,3.77-1.33,6.36,4.22,10.5-4.22,16.66-4.6-.43,2.13-.27,3.88-1,6.22,3.63,3.73-1.56,8-2,13.87-.21,3,.64,5.75.29,8.29-.67,4.85-3.28,7.93-5.11,10.69,2.07,5-4.38,8.26-3,13.66-.39.3-1.25-.16-1.22.81.38.14,1,.15.92.56-.22,3.58.94,4.73.51,7.26s-2.79,3.41-3.66,5.64.3,4.43-1.15,6.9c-1.32,0-3.67.86-3.51,1.74.68-.17,2.17-1.39,2.55-.52-.87.61-1.43,2-2.62.86-.25.65.3.77.44,1.17-3.57,3-5.95,8-8.62,12.43-.23.49-2.51,1.24-1,1.56.13-.25.16-.67.48-.61-1.75,4.24-5.1,8.21-5.81,12.32-.15.88.47,1.84.4,2.95-.11,1.9-1.59,4-1.59,5.73,0,1.26.93,2.52.92,3.78,0,3.27-2.85,6.56-1.89,10.31-1.77.23-3.4.69-4.32,2.28-.34,1.49.84,2,.26,3.63-.5.73-2-.11-2.55.52,1.19,1.37,4.57-.88,4.43,2-7.14,4.72-12.72,13-16.72,22.47-.37.87-.27,1.88-.59,2.73-2.66,7-10.63,8.66-11.54,14.65-3.19,1.32-3.41,4.54-4.85,7.88-1.78,4.17-5.65,7.51-7.07,11.69-.9,2.65-.32,5.28-1,8-5.64,2.37-8.41,8.31-11.91,13.14-2.4-.26-4.51,3.62-6,1.92.34,2.06-1.31,1.76-2,1.35-.65,1,1,.49.37,1.51-2.53,2.32-4.61,6.22-9.31,4.41-1.71,1.7-3.86,2.72-5.51,4.52.05.94.84,1.39.88,2.34-3.57-1-6.84.78-9.71-1.75-2.57.94-5,2.12-8.13,2.17a28.06,28.06,0,0,0-7,9.91c-3.22,4-7.92,5.72-9.1,13-2.76.72-6.28,2.43-9.53,2.22-2.3-.15-4-1.75-5.83-2-2.65-.34-4.64,2-7.5,1.58.57.26.84.73,1.77.75,1.69-.07,1.93-1.52,3.18-1.81,2.65-.63,4.82,1.66,7.57,2,3.69.46,8-1.65,10.6-2.34,3.33,4.22-4.12,12-2.53,14.82-2,1-.23,1.06-.22,1-.19.67-.82.51-1.37,1.49-2.14,3.85-2.76,6.8-7.95,6.14-.47,1,.35,1.13-.11,2.12a16.89,16.89,0,0,0-3.66,2.42c-2.46,5.58-7.6,6.86-11.06,10.83-5.48-1.72-9-.26-11.93,2.05-4.72,1.33-10.37,1.19-13.86,4.49a45.92,45.92,0,0,1,12-3.83c3.63-.57,5.83-3,8.68-3.12,1.9-.09,3.8,1.22,5.39.81,1.84-.47,3.64-3,5.1-4.25,1.75-1.44,3.29-2.68,5.1-4.25.69-3.62,5-3.49,5-6.79a21,21,0,0,0,5.84-1.23,27.58,27.58,0,0,0,4.59-11.52c.34-2.87,2.69-4.81,3-7.56.32-2.54-2.17-4.81-.29-8.28,5.89-4.67,9.43-13.12,15.09-18.17a11.06,11.06,0,0,0,7-1.7c3.17,2.15,5.76,1,9.38,1.68-1,2.3-3.91,1.4-5.73,2.33.79,5.88-3.09,7.6-7,9a2.81,2.81,0,0,1,1.83.27c3.19-2.36,6.58-3.61,5.81-9.11,4.94.7,6.08-4.68,11-4-2.09,1.36-1.11,5.21-2.19,8.46,2.1,2.51.21,5.93.07,9.31-.14,3.22,1,6.4.65,9.8-.33,3-1.31,5.46-1.12,8.34.55.46,1.33-.78,1.33.29-.83,1.57.92,4.93-.23,7.46-.93,2-4.79,2.64-6.51,4.31-2.32,2.25-4.25,7.14-7.73,11.55-3.21,4.07-6.42,7.55-8.14,11.82-2.15,5.33-4.6,8.68-6.63,12.86l5.32,1.16a157.43,157.43,0,0,1,10.14-17.82c.72.21.53,1,.29,1.85,1.18-.52.1-2,.67-3.07,5.63-3.1,6.3-14.14,12.58-16.22,1.47,3.12.82,7.64,5.83,8.42-.13,3,3.66,3.43,4.69,5.67.93,4.12-1.84,8.92-.68,12.72-.74,1.72-2.73,1.46-3.73,2.76.06.74,1.66.46,1,1.65-1.15.79-.19-1.11-1.51-1-4.12,2.91-9.18,4.32-12.35,8.76l.66.14c2.78-4.45,7.75-5.38,11.53-8.22,1.14-.07.22,1.22.7,1.58.93.12,1-1.1,1.7-1.42.3-.88-.22-1.22-1.11-1.31,1-.57,1.83-1.37,3.1-1.47.84,5,4.5,8,1.69,14.67l1.33.29c-.2-2,.77-3.69,1.52-5.39-1.33-1.89-1-4.21-1.73-6.45-.37-1.09-1.64-2-1.73-3.24-.32-4.12,4.14-6.2,5.7-10.2,6.44,1.78,4.35,9.2,9.63,11.75-.15-2.14-2.32-2.95-3.58-4.35-.07-2.58-1.87-4-2.06-6.53-.93-.26-2.34-.2-2.18-1.19,4.75-.67,5-8.62,8.4-11.4.46,5,5.51,8.87,5.56,14.44,0,3.77-2,7.09,1,9.87-.32,1.79-1,3.84-.88,5.31a8.2,8.2,0,0,0,1.69-5.84c-.06-.35-1.23-1.37-1.55-2.48a6.79,6.79,0,0,1,.6-5.95c-.1-2.22-2.24-4.49-1-6.65-3.16-2.83-4.67-7.53-5.83-11.63a27.26,27.26,0,0,1-1.18-4.19c0,.28.91-.89,1-1.22.45-2.69-.83-4.22-1.21-5.63s.1-2.85-.85-4.12c.84-3.05.32-4.77.71-8.07,1.67-1,3.07-4.33,4.7-4-.31-2.8,1.22-7.1-.17-10.41a25.24,25.24,0,0,0,3.56-10c-.72-2.74-3.81-3.91-5.28-6.15.05-3.27,0-4.36,1.3-7.58-.75-.67-2-1-2.36-1.94.08-1.79.66-2.52,1-4.78,0-1.05-1.65-1.05-1.22-2.41.24-5.95,7.23-6.29,8.47-11.75.58-2.55-.36-5,.56-7.39,1.27-3.37,4.06-4.67,5.51-7.74.93.21-1,.76.52.83,2.73-4.57,3.6-9.29,6.77-13.54,2-2.73,5.32-4.83,7.51-7.31a25.52,25.52,0,0,0,4-5.57c4.24-9.21,6.08-17.16,14-21.26,0,.41.44.48.92.56,0,1.8-1.18,1.79-1.41,3.27,1.94,4.36,4.91,8.05,6.27,12.8,3.3,1.52,4.11,4.68,6.53,6.78.23,3.74,1.71,6.66,3.13,9.62,2.65,1.17,4.41,2.93,4.69,5.67,5.39,2.57,3.28,10.1,5.49,14.78-1.76,6,.77,9.24,3.2,12.49.18-.8-.35-1.13.11-2.12-3.44-1.62-3.88-6.46-2.65-10.23a31,31,0,0,1-1.76-11.11C489.45,568.23,482,564,481.7,555c-2.22-1-2.7-3.87-4.69-5.67-.26-.24-1.3-.34-1.59-.7-1.74-2.19-1.89-5.56-3.17-7.84-.7-1.25-2.23-1.93-2.8-3.11-.94-1.93,2.25-4.27,1.34-6.15a2.82,2.82,0,0,0,2.07.09c.19-3.4.65-5.24.38-8.14,1.73.16,2.74-.82,4.62-.43,1.53,2.69,4.06,4.72,4.5,8.13,3.08.79,5.56,3.53,7.86,3.85-2-1.7-4.76-2.89-7.46-4.12-.54-3.54-3.5-5.48-4.76-8.54-1.68-.24-2.68.61-4.54.08,1.5-2.18-.1-8.57,2.37-10.92-1.31-1.56.23-2.81.23-4.24,0-1.67-1.48-3.75-.81-5.9.59-1.87,1.1-4.09,1.74-6.41,2-7.3,6.2-13.47,9.4-17.62-.22-1.49,3-5.2,4.88-6.45,1.1,2.78,2.86,5.12,3.43,8.25,3.09.13,3.57,4.31,5.2,6.49.42.56,1.49.54,1.85,1.12,3.2,5.23-.2,10.91.61,18,2.84.85,5.57,3.19,8.57,2.22,2,2.55,4.19,5.77,4.61,9.23s3.49,6.67,3.54,9.35c0,1.62-2.57,3.83-.45,5.27-.36-1.37-.28-4.26,1.11-5.12-3.32-6-4.18-13.6-8-19.26-3.15,1-6.39-.89-8.83-2.63,0-3.29-.55-8.26,2-10.66-1.17-5-4.6-8.45-6.6-12.88-2.51-1.16-6.25-6.37-5.79-10.2.33-2.73,3.17-6.43,4.07-9.13a36.35,36.35,0,0,0,1.34-6.15c.48-3.62-1.06-7.68,0-9.65s3-1.08,5.1-1a31,31,0,0,0,3.84-.64c-2.94-.09-6.09-.43-9,.24,3.56-6,3.55-13,8.33-17.5.41-4.51-1-9-.58-13.35.35-3.3,2.84-6,3.08-9.34.31-4.51-2.32-8.34,0-12.87.58-.45,1.67-.08,1.7-1.42,1,.17,2.13.66,2.73.24,3.21-3.46,6.58-6.64,11.64-7.12.31-3,.91-6.25.53-8.82,2.65-1.58,3.59-5.91,6.69-6.77,2.21-5.21,4.74-9.9,9.14-11.6,1.55-4.73,5.13-6.2,8.65-7.77.18,3.22-1.78,6-2.34,9.15-.33,1.85.3,3.8-.12,5.34-.87,3.22-4,5.39-4.4,9.05,1.23,1.63,2.25,4.59,1.73,6.45,2.3,2.47,7.68,2.91,10,5.38-1.41,2.2.64,5.28-1.56,7.17,1.05.29,2.46,1.28,4.1,2-3.15,2.95-2.75,8-5.37,10.27,1.44,1.19,1.39,3.37,1.62,5.36-.71.86-2.16.52-3.55.3.32,1.75,2-.25,3.66.79.16-2.44.34-4.9-1.07-6.31,2-1.76,1.92-5.11,3-7.22a2.53,2.53,0,0,1,2.48-.18c.42-1.55-.35-2.3-.26-3.63-1.73-.12-2.33-1-3.51-1.48,1.84-2.49-.9-5.11,1.15-6.9-2.33-2.45-6.41-3.75-10-5.38.64-1.65-.8-1.92.34-3.15-3.13-3-1.09-6.09.82-10.19a13.09,13.09,0,0,1,.1,7.53c1.67-2.28.54-5.22.56-7.39a1.93,1.93,0,0,1,2.22-.59c1.59-10.81,7.73-13.69,6.38-22.93,1.57.06,2.15-1.46,3.51-1.74,5.33-7,13.72-9,15.76-21.24,1.24-.63,2-2,2.81-3.32.49-1.78-1.17-2.15-1.33-3.51,2.5-2.67,6.76-6.12,5.92-11.23,1.14-1.55,2.89-2.12,3.7-4.2,1.18-.38,1.38,1.31,1.44,1.39.44.59,1.31.63,1.29,2.07,0,2.57,1,5.6,1.36,8.16a29.8,29.8,0,0,1-.45,8.48c-.15.52-.78,1.43-.78,2,0,3.51,4.59,4.57,2.84,7.77,1-.3.73,1.93,1.26.63,2.59,3.55-.34,10.74,1.28,14.94,3.69,3.11.64,7.43-.86,12-.73,2.22-.4,4-1.45,5-2.51,2.4-5.81-.76-7.46,2.31-.45,1.27.92,1.34.07,2.88-1,.63-2.9,1.41-3.07-.31a21.71,21.71,0,0,0-1.56,4c.86-2.77,4.1-1.72,5.36-3.84a9.62,9.62,0,0,1,.33,3.29c-2.13.21-3.29,8.6-1.38,11.14-1.72,7.68-5.55,13.54-5.86,20.54-.06,1.28.95,2.57.92,3.78-.07,2.88-2.11,5.38-1.45,8.27-3,2.64-5.78,5.78-8.8,8.46-.53,1.71.42,2.45.18,4-3.68-.53-4.11,4.15-6.47,5.74-5.31-.86-9.22,0-13-2.82-2.08-1.59-2.7-5.41-6-6a1,1,0,0,0-.44-1.17c3.63-3.36,1.84-9.65,1.23-13.68-.45,3.12,1.52,7.1.51,10.48-1.9,6.35-7.55,2.43-12.89,3.28-1.24-.05-.75-1.26-1.77-1.46-1.83,0-3.26.61-3.48,3.18-1.53.93-4.27-.08-5.5,1.31a40.58,40.58,0,0,0,5.36-.62,6,6,0,0,1,2.81-3.32c3.77,2.29,9.43,2,13.92,1.6,0,1.73,2.34,2,3.54,2.92.54,1.59,1.77,2.72,2.58,4.14a26.1,26.1,0,0,0,12.3,2.67,9,9,0,0,1-3.4,2.84c-5.47-2-8.19.37-13.08-.7-1.37-.2-1.76,1.17-2.77,1.54-8.28-4.86-12.63,1.75-18.77,3.07-2.15.85-2.88,4-5.69,3.77.1,2.61-1,2.83-2.29,4.15a2.53,2.53,0,0,1-2.18-1.19,10.46,10.46,0,0,1-5.51,1.31h0c2.31.49,4,1,5.43-1,0,1.59,1.41.75,2.1,1.53,1-1.44,3.12-1.57,2.63-4.08,3.71-1.42,5.8-5.43,10.53-5.22.38-.93,1.12-1.28,1.52-2.17,2.92-1.55,8-2.16,11.75.41,4.42-2.28,10.46-2,16.92-1,1.58-1.3,3-2.94,5.21-3.16,1.08,1.58.13,3.76-.86,5.53,1.48,3.1,4.12,5.88,4.68,8.88.37,1.94.35,4.15.66,6.58.66,5.17-5.16,9-3.52,14.61a8.84,8.84,0,0,0-2.88.45l-.67,3.07c3.47,5.89,1.8,15.18,5.15,21.14a30.17,30.17,0,0,1-6.81,8.89c.69,1.56-1,3.15-1.45,5-.54,2.49.22,5.21-1.48,6.83,4.91,4.49-3.12,11,1.2,15.28-2.82,3.53.77,8-.53,12-.55,1.71-2.76,2.54-3.62,3.86-.47.72-.2,2-.59,2.73s-1.93,1.33-2.59,2.3c-2.46,3.62-5,6.39-8.69,6.33-3.69,5.42-6.91,12.62-6.85,20.32-3.51,2.2-5.93,6.15-10.24,7.07-3,5.93-1.23,9.75-1.2,15.11,3.81,5.22,2.95,14.44,0,22.52.07,1,.77,1.63.4,2.95-.51.86-1.34,1.23-1.85,2.1,4.88,4.29-3.91,9.92-.13,15a17.48,17.48,0,0,0-2.4,3.05c1.43,2.38-1.19,4.2-2,7.44-1.16,4.84-2.11,7-6.62,6.43-.73.51-1.24,1.39-2.11,1.69-4.27.94-8.49,1.09-11.23,3.64-.34.32-.08,1.33-.37,1.71-.81,1.07-2.05,1.31-2.59,2.3-.4.72.11,1.68-.19,2.46s-1.47,1.61-1.92,2.44c-1.18,2.14-1.5,5.38-3.81,6.32-6-.49-6.41,7.84-13.67,5.25-3.27,1.66-4.82,6.09-7.73,8.33-1.47-.52-2.2.15-3.73-.45-3.06,2.31-6,4-7.06,8.48,1.78,7.12-4.59,14.72-10.36,15.63-1.53,4.87-4.28,7.79-8.25,10.72l2,.43c3-2.6,6.28-4.67,7.69-9.77,5.86-1.66,9.33-7.14,11.54-14.65-2.35-4.08,2.4-8.17,5.48-9.18,1.47.57,3.45.35,4,.87,2.17-3.17,3.14-7.07,6.32-8.28,2.63-1,5.72.26,8.05-1.82a8.28,8.28,0,0,1,3.22-3.59,14.58,14.58,0,0,0,4.77-1.11c1.22-4.47,4.65-7.39,5-11.79,3.14-2.15,6.57-8.13,12.12-4.52.92-1.6,2.54-2.07,3.55-3.52,7.54,1.46,6.65-8.34,9.84-13.23.3-1-.52-1.21-.22-2.19.71-1.16,2-1.44,2.4-3.05-3.69-4.59,3.93-10.07.87-15.19.17-1.11.9-1.32.93-2.66-.48-4.7,2.09-8.3,2.16-13.12,0-3.11,0-7.9-1.17-10.62-.37-.88-1.11-1.1-1.29-2.07-.45-2.45-1-4.32-1.14-6-.24-2.87,1.78-4.47,1.89-7.1,3.75,0,4.3-2.78,7-4.92,1.65-1.31,3.08-1.27,3.73-2.76.93-2.13.05-4.65.49-7,.9-4.95,3.35-8.33,5.74-12,5.27-.91,8.2-5.59,11.5-9.66.3-3.21,2.36-3.59,3.59-5.3.84,3.78,4.39,5.61,5.53,9.78a7.23,7.23,0,0,0-1.44,1.83c2.4,1.67.25,5.71-1.23,7.24,4.11,6.54,4.1,15.8,8.81,21.94,2.91.22,3.09,2.24,5.69,2.67a51,51,0,0,0,2.8,6.33,34.27,34.27,0,0,1,12.55,12.74c1.44-.38-1.52-2.62-1.58-3.92-3.76-3.16-6.41-7.06-11.15-9.57-.33-2-1.61-3.41-2-5.43-5.48-2.65-10.52-7-9.33-13.11-3.08-3-2.75-8.31-5.09-11.83,1.81-1.8,2.93-5.92,1.3-7.58.64.1.48-1.08,1.22-.81,2.37,1,1.35,4.17,4.58,4.57,1.53-.46,2.4-2,4-2.35-.46,1.16,1.33,1.47.22,2.19a2.17,2.17,0,0,0-1.59-.7c-1.27,1.37-.94,2.54-1,4.44-2.35-.24-2.57,2.93-5.32,2.06-1-.93,0-1.69-.88-2.34-1.63,2.23.73,3.08,2.81,3.11,1.12-1.28,2.2-2.62,4.07-2.69,0-1.34-.52-2.64.48-3.83.88.19,1.87.54,2.4.16.53-1.42-1.16-1.37-.81-2.68s1.19.72,1.29-1.15c-.24-.13-.32-.37-.18-.75-3,.07-2.51,3.55-5.69,3.77-3.9-2.88-4.68-7.81-8.45-10.77.9-2.45-1.59-2.65-1.44-4.6,1.66-5-2.34-9.28,1-12.65-4.28-2.76.57-6.65.56-10.6,0-2-1.94-2.65-1.77-4.68,1.33-4.82,2.85-8.37,2.6-11.95,3.23-1.42,4.85-5.43,7.07-8.48,0-2.36-1.89-3.42-1.07-6.31-2.22-3.4-2.41-8.15-2.39-13-.45-1.23-2.47-2.08-1.33-3.51.86-.62,2.14-.56,3-1.13-.55-5.44,2.89-9.08,3.56-13.17.56-3.45-1.74-6.29-.58-10.14-1.88-2.56-2.93-5.66-4-8.74,1.33-2.2.82-5.35,3.66-5.64.37,3.36,4.12,4.48,5.39,7.25.68,4.89,2.6,8.48,2,14.74,1.19,2.31,3.1,2.47,4.58,4.57,2.66,3.8-.48,10.05,2.46,12.69-2.15-4.18.56-9.24-2.06-13-1.36-1.93-3.42-2-4.24-4.5-.09-3.64-.37-7.16-1.65-10,1.2-1.41-1.36-2.52-.36-4.73-3.24-2.79-8.53-7.73-2.94-12.08-.53-1.11-1.12-2.18-1.73-3.24a41.75,41.75,0,0,1,8.25-7.5c1.28-5,1.15-10,1.49-13.26.78-7.47,4.64-13.11,5.75-21.63-2.5-2.85-.92-8.87,1.79-11.41-.06-1.91-1.22-1.78-.59-3.7a20.93,20.93,0,0,1,6-1.92c1.06-6.15,6.18-13,4.27-18,3,1.74,3.42,5.14,6.53,6.78-1.09,2.23.54,3.49,1,5.21,1,4.29,1.8,5,4.42,8.47,2.92,3.87,7.7,9.09,4,13.74,1.69.44,1.6,2.06,2.88,2.77-.46-1.35-1.59-2.26-2.4-3.38,1,.23.7-1.65,1.7-1.42,1.18,1.46,1.38,3.57,1.55,5.7,3.25,2.91,8.13,7.28,12.33,10.55-.28.62-1.08.41-1,1.56,2.69.56,3.4,2.42,3.5,4.69,1.47,1.17,3.93,1.69,3.65,4,2.41.76,5,.43,8.13,1.05,1.53-1.26-2.82-.31-4.73-.67-1.59-.3-2.31-1.33-3.25-1.06.32-2.16-2.2-2.44-3.4-3.6.11-2.41-1.41-3.74-3.1-5,.2-.44.61-.55.63-1.29-4.4-4.59-12.09-7-12.58-14.18,3.4,1.64,7.25,3,8.42,6.12a5.76,5.76,0,0,1,5.13,3.62c4,2.37,7.45-.77,11.19,1.36-.17,1.6-1,1.81-.67,3.07,2.59,1.27,4.2,3.52,6.79,4a17.28,17.28,0,0,0,1.4,6.38c-.55.49-2-.42-2.22.59,1.55,1,2-1.23,2.81-.1-.48.91.28,1,0,1.78,2.74,3.13,6.71,4.63,8.23,8.58,1.67,4.34-.42,10,2.09,14.4-.8.5-.51,1.58-.52,2.39,8.57,1.44,10.95,7,11.66,13.62,1.15.15,2-.13,3.4.38.72.63-.64,1.19,0,1.44,1.41-1.49,2.37,1.52,3.77,1.89-.39,2.6,1.3,2.86,2.58,4.14s1.71,3.63,2.51,4.48c1.35,1.44,3.49.34,5.32,1.16s2.58,3.31,4.24,4.5c3,2.1,7,2,8.31,5-1.16,2.13,1.05,2,1,3.43-.23,6.51-6.31,9.62-7.25,14.15-.53,2.56,1,4.9-.56,7.39,1.28.22,2.42.54,2.84,1.33-1.26,2.67-.47,6.36-3.33,8.93,1.57,4,2.35,8.16.25,13.28,2-.33,1.2,2,1.81,2.9,1,1.5,2.45,1.85,3,3.87.16.59-.5,1.44-.45,2,.16,1.68,1.62,3.47,1.7,5,.13,2.75-1.28,5.53-1.19,8.68,4.63,1.5,4.58,7.27,1.69,11.45,1.68,3.27,2.2,7.31,5.2,9.71.51,4.6-2.83,9.37-1.75,12.85-2.87,1.8-5.53,5.18-8.13,8.6-1,1.36-3.42,2.54-4,4.13-1.08,2.83.63,5.77.8,9.11.63.86.81,0,.07-.34.25-3.28-1.54-5.22-.47-9,4.14-4.11,7.89-8.84,12.17-12.73-.42-4.4,2.11-8.12,1.82-13.19-3.28-2.12-4-5.95-4.87-9.64,2.93-3.83,2-9.8-1.76-11.11.65-7.08,1.49-16-3.64-20.1.61-1.67-.75-2-1.07-3.09,1.57-4.23.82-8.75-.39-12.6,3.3-3,1.61-6,3.08-9.34-.36-.93-3-.36-2.77-1.67,1.95-2,.43-4.37.41-6.7,3.35-3.37,5.37-8.89,7.84-13.67,2.73,1.94,6.34,7.89.69,8-.13.5-.2,1.11-.35,1.57,1.24-1.38,3.82-1.08,5.19-3-1.74-1.62-2.5-5.78-5.31-7.59,1.22-3.11,3.5-4.52,5-7.13-.11-1.49-.71-2.65-.44-4.39,2.1-.16,4.33-.13,5.58-1.65,2.71,1.42,6.52,2.11,8.94,3.73-2.89,4.93.6,8.88,1.72,12.89-.84,3.12,1.3,6.72,1.25,10.28,1.57,1.15,4.06,1,6,1.3a74.1,74.1,0,0,0,8.67,13c2-.05,4.47,2.1,5.06,4-1.21,3.82,1.62,5,.14,9a6.19,6.19,0,0,1,1.65,2,11.63,11.63,0,0,1-.84-2.51c-.4-2.18.89-4.21-.81-5.9,1.28-4.26-1.21-6-4.72-7.1-1.45-2.56-4.26-4.58-6-7.73-1.88-3.45-2.14-6.52-8.42-6.12a93.29,93.29,0,0,1-1.32-9.94c-.53-4.61-4.86-7.72-1.8-12.55,2.85,1,4.33-3.69,7.17-4.16-.66.43,0,1.49-.59,2.73l2.66.58c1.14-3.08,3.54-2.75,4.59-5.08a10.74,10.74,0,0,1,8.82,9.07c2.85.82,4.9,2.82,7.2,3.71,1.92.74,4.18.59,5.58,1.57,2.24,1.57,2.44,5.82,4.17,8.06a4,4,0,0,0,1.7,1c-2.65-3.55-3.33-8.82-8-10.64-3.47-1.35-6.88-1.62-10.19-4.36-1.33-4.19-3.34-7.92-9.56-8.87,1.34-11.65,14.58-7.84,19.63-15,1.81.29,2.67-.94,4.36-.84a2.12,2.12,0,0,1,.41.25,16,16,0,0,1-1.11-1.83c-.58,2.29-2.92,1.77-4.66,2.21-3.09,5.33-10.05,4.45-14.78,7.16-.85,1.86-2.37,2.64-3.62,3.86-.59,2,.46,2.88-.89,4.1-5-2.07-7.12-6-11-8.82-1,.71-2.48.63-4.21.16-3.51-5.28-7.6-10.17-9.66-16.4a3.64,3.64,0,0,0-.51-4c.7,0,2.53-.5,2-1-1,.35-2.24,1-2.73-.24,3.13-4.92,1-11.27,3.82-16-.39-1.1-1.44-1.77-.59-3.7,5.21-2.28,7.5-10.88,7.33-17.71-1.92-2.33-2.72-5.41-5-7.52.72-2.23-.32-3.3-.29-5.07a8.45,8.45,0,0,1-2.51-1.26c.22-1.42-.59-2.14-.25-3.63-4.11-1.32-3-7.14-2.58-10.57-.52-1-1.92-.12-2.25-.85-.54-2.41-.24-6.49,2-7.78,4.62,3.28,5.36,9.12,12.25,10.89.89,4,4.15,6.81,5.72,10.54,1.19,2.83,1,6.06,4,7.3,2.54.09,4.52.09,6.54.35,3.91.5,6.25,4.15,9.71,5,3.8.9,7.6-.82,11.49,0,4.91,3.39,8.13,10,14.4,10.64,1.1.73,1.53,1.91,3,2.43,1.09.22,1.48-.69,2.81-.1-.39,1,.18,1.44.22,2.19,4.79.44,4.55,6.46,9.86,7.51,1.19,4.35,3.54,9.8,9.86,7.51.76,1,.67,2.48,1.73,3.24,1.74-1.3,4.2-1.41,5.65-2a2.4,2.4,0,0,1-.85-.9c2.24.76,5.8-.41,7.83-.8a3,3,0,0,1,.42,0c-.19-.09-.42-.21-.68-.37-1.83.59-4,.67-5.84,1.23a7.16,7.16,0,0,1-2.92-1c-.82,1.22.71.9.7,1.58a38,38,0,0,1-4.51,1.52c.52-1.71-1.61-1.66-1.4-3.17-5.57,2.54-8.87-2.71-9.27-7-3-.62-5.47-3.41-6.68-6.1,5.56,1.76,14.84,9.74,21.2,5,6,3.58,13.11-.88,19.47,1.73,4-2.88,12.9-4.22,18,.34,3.33-3,5,1,8.31,1.81,1.53.39,2.68-.06,3.66.79s2.11,1.89,3.2,2.84a18.34,18.34,0,0,0-2.79-3.11c-1.51-.95-3.56-.77-5.24-1.5-2.45-1.06-4.65-3.56-7.31-1.59-2.23-2.82-8.35-2.34-11.89-2.94-3.8,3.3-9.77,2.65-15.33,1.67-3.22,1-7.23,1.94-9.94-.73-3.2,2.79-8.49,1.62-12.49-.21-1.65-2.95-6.78-2.88-9.71-5-2.13-1.51-2.92-4.62-6.28-3.15a8,8,0,0,0-5.69-2.67c-4-3.39-7.5-7.12-11.66-10.4-5.85.32-14.31,1.13-17.54-4.17-2.65.29-6.75-1.25-10.19-1.14a23.18,23.18,0,0,1-2.21-2.63c-1-6.26-5.11-10.45-7.74-15.63-6.09-1.13-7.4-8-12.25-10.89,2.73-6.5-.33-11.39,1.24-16.89-.77-1.21-.54-1.35,0-3.22-.88-1.37-.53-3.54-1-5.21-5-4.7-3.69-14.32-10.44-17.64-1.42-.7-3.2-.35-4.65-1-1.61-.74-2.31-2.63-4.36-2.38.91-4.69-2.13-6.77-2.17-10.84-3.95-2.55-5.59-6.63-7.86-10.29,1.3.24,1.39-1.45,2.7-1.2,2.33,1.41,9.42,4.29,13.37,5.77,3.46,0,9.6-1.49,13.89.16,4.14,1.59,5.89,5.74,6.34,9.25,1.37-3.34-1.43-3.92-1.8-6.11,8-4.41,19.43,1.08,29-.49,1.34,1.06,2.61,2.17,3,3.87,3.11-2.1,6-1.1,10-1,3.25,6.57,12.38,10.43,21.9,9.76,1.25,4.18,1.21,8.89,6,11,1.81.78,3.53.07,5.47.47,2.66.56,4.7,2.77,7.16,2.27.57-.31.74-1.27,1.63-1.08,2.2,1.56,7.84,2.38,9.19,4.14-1-2.58-6-2.44-8.12-4.27,2.4-.26,3.54-2.39,5.58-1.65,1.79.65,1.18,2.26,1.92,4s1.61,1.5,2.88,2.77.87,2.78,2.07,3.31c-1.17,1.33-2.34,7-2,11,.3-3.14,1-9,2.71-10.85,2.24,1.12,4.17,1.52,5.46,3.69,2.8,0,4.57,2.16,6,1.3-3.54-1.41-7.09-1.2-7.79-4.2,4.19-3.05,8.6.39,12.23-.2-.57,1.35.13,1.86-.34,3.15l-1.33-.29c2.29,4.23,9.34,5.31,11.48,9.65,1.49.24,2.57-.17,4.14.18.66,1.61,2.13,2.68,2.91,4.21,1.16.63.8-1.17,1.89-.66-.34,2,2.3,3.4,3.61,5.79.91,1.65.82,4.21,2.43,4.82,2.17.83,3.77-1.66,6.32-1.84a10.79,10.79,0,0,1,3.35,8.59c-1.39-.06-1.83-.74-2.92-1,.08,2.43-2.05,2.19-2.85,1.88.43.21.53.62,1.26.63-.83,1.78.4,3.47.88,5.55.42,1.81.83,6,1.58,7.14,1,1.55,2.53,1.43,3.14,3.18,1,2.76,1,6.81-1.41,9.7.78,2.16,3.38,3.19,5.17,5.06,1.37,1.43,2.29,5.53,5.06,4-.77-.31-.86.47-1.74,0-1.79-3.59-6-5.59-7.75-9.19,3-2.54.8-6.71,1.16-10.12-3.72-2.9-4.65-7.64-5.27-12.59,1.2-.34,2.26-1.69.93-2.66.67,1.5-1,2.32-1.7,1.42.86-2.8,3.59-1.83,5.21-3.16,2.5,4.48,8.67,6.53,10.37,11.55-2.52,3.43-1.8,6.54-1.75,9.63,0,.61-.68.93-.7,1.63-.12,4.64,2.81,10.19,2.31,13.37-.22,1.42-1.67,2.55-1.89,3.88-.47,2.79,1.09,4.71.44,7.6.92,1.34,2.41,2.31,3.4,3.6,1.6.11,2,1,3.18,1.41A178.2,178.2,0,0,0,888,423.48l2,.43c-6.18-5.93-6.12-17.56-15.49-21.6.12-3.81-2-8,1-11.21,3.09,1.1,5.29-1.19,9.53,1,.68,1.13.21,3.42-1.15,3.68,3.24,1,1.71-2.37,1.56-4-4.22-1.7-5.67-1.45-9.6-.66-.42-5.1-3.63-11.07-1.39-16-1.75-2.27-.45-7.77,1.75-9.63,2.88,2.77,4.9,6.11,9.45,7.77.76,4.19,4.31,9.33,8.75,9.41,2,0,4.56-1.94,6.91-1.36,1.83.45,2.9,2.51,4.28,2.72,2.43.36,5.29-1.46,7.57-1.21-2.77-.94-5.2,1.21-7.5.87-2-.29-3-2.55-4.95-2.86-2.49-.41-6.1,2.47-9.57.78-1.76-2.83-4.76-4.84-5.09-8.61-8.44-4.94-12.66-12.66-20-18.3,1-.81-.07-2.46,1.33-2.93-1.08-.35-2-.5-2.48.18a27.34,27.34,0,0,0-2.73-6.67c-3.53-1.37-4.34,1.64-7.5.87-1.81-3.58-4.6-6.5-6.12-10.27-3,1.12-2.93-2.51-5.13-3.62a7.76,7.76,0,0,1-3.81-.11c-1.86-3.45-6.58-5-9.45-7.77.29-1.65.12-3,.3-4.58-.84-.13-1.63-.29-1.51-1,4.28-.66,8.82-.91,12.67-2.25.64.84,2.08,1.16,3.1,1.75,1.28-1.49,2.33-3.33,3.51-5,6,.1,9.66-3.56,13.38-7.1,4.09.88,5.78-2.1,8.68-3.12-.2-3.85,3.79-4.56,6.4-5.4a25.06,25.06,0,0,1,3.7-4.2M340.72,382.1a1.56,1.56,0,0,1-.22-2.19C341,380.35,341,381.14,340.72,382.1Zm57.8,238.53a8.89,8.89,0,0,1-7.32,1.63c1.08-4,5.64-4.28,9.39-4.75C400.84,617.91,399.33,620,398.52,620.63Zm10.64,72.75c-.66,1.06-1.68,4.31-3.11,4.69.1-3.63,1.71-7.84.45-11.7,2.11-.61,5.5,2,5.46,3.69C411.95,691,409.7,692.5,409.16,693.38Zm11.27-75.85c.7-.83.19-1.77,1-3,2.73.48.59,2.93.51,4-.41,5.76,2.83,6.95,5.31,10.81-.07,3.43-3,6-3.48,9.61-.42,3,.92,5.64-.12,8.56-.9,2.53-2.55,3.17-4.66,5.42-.27,5.91-.91,12,1.54,15.35-1.42,4.64.07,6.83.84,10.55a57.69,57.69,0,0,0-5.44,10.62c-4.69,3.26-4.85-5.54-9.6-3.87-3.58-1.63-3.69-5.54-7.94-6.73-1.1-2.28-1.91-7.92,1.86-8.54.67-4.36,2.28-11-.28-14.72,1.5-6.81.33-13.31,1.13-21.21.61-6-1.75-12.28,5.78-13.76l.52-2.39c2.47.43,2.23.84,4.17,1.62A12,12,0,0,1,418,617.7c.45,3.21.19,6.89,2.61,8.79a32.75,32.75,0,0,0,.09,7.68c.7-2.73-.13-5.58.5-7.19-1.25-1.46-3-4-1.4-6.38-1.78,1.22-.91-1.87-1.4-3.16C419.32,617.19,419.52,616.9,420.43,617.52Zm.93-9.09-1.78,8.19c-2.61.57-5.79.24-7.46,2.31-1.68-.71-2.69-1.09-3.84-1.55,1.31-3.1,5.54-4.32,8.35-6.41,1.44,1.09.73,3.61,1.69,5,0-2.58-1.11-6.11,1.52-8.61C420.45,607.67,420.52,608.31,421.36,608.43Zm45.81-82.64c-3.84-1.26-2.18-7.89,2.07-6.34C468.62,521.67,468.54,524.77,467.17,525.79Zm3.73,3.67c.15,1.13,1.09.52.41-.27.14-.39.67-.16,1.07-.13-.09.55-.44,1.27,0,1.44-.21.74-1,.55-1.81.32Zm20.38-68.15c-.86-.55.41-1.43.45-2C493.21,459.54,491.64,461.11,491.28,461.31Zm72.58-32.85c1.86-1.63,1.94-6.09,5.58-4.86A6.21,6.21,0,0,1,563.86,428.47ZM781,395.22c.84.13.91.76,1.51,1C781.76,396.83,780.32,396.83,781,395.22ZM602.4,195.15c2.56.42,4.27-.52,6.69-.33-.08,1.1-1,.78-1.63,1.08.34.65,1,1.1.55,2.26-3.32.85-3.12,4.4-7.21,2.72-.09.64,1.08.45,1.18,1-1,.72-2.47-.69-3.25-1.06.11-.75,1.21.1,1.74,0,.22-.73-1.15-.41-1.59-.7a3.19,3.19,0,0,0-.15-2.53C600,196.8,601.92,197.15,602.4,195.15ZM535.79,319c.94-1.63.92-1.54.74-3.41,1.52,1.37.61,2.84,1.1,4.53C537.31,319.59,536.11,319.6,535.79,319Zm4.69,36.06c-1.29-.07-2,.82-3,1.13-2.32,3.57-4.29,5-6,9.79-3.24,2.16-5.49,5.93-8.21,8.94a5,5,0,0,0,.88-.88c1.46,1.57.06,5,.1,7.53a2.17,2.17,0,0,1-1.74,0c-3.16,2.6-7.38,3.51-9.65,7.56-1.39-.41-2.69-.7-3.33.09l-.29.55a1.53,1.53,0,0,1,.29-.55c1.82-3.44,4.84-9,8.48-12.56a10.8,10.8,0,0,0,5.25-1.72c-1.81-.14-2.67,1.24-4.69.77a10.62,10.62,0,0,0,3-4.35c.06-.73-1,.31-.85-.9,1.85-3.11,10.11-4.5,7.47-12,2.11-2.06.87-5.72,1.86-8.53.63-1.79,2.54-3.11,3.18-5,2.19-6.56,3.47-15.35,7-21,2.65,1.35,3.86,3.2,6.87,3.64a31,31,0,0,0,.07,6.09c2.25,2.12,6.5,2.9,7,6.17C552.94,348.4,542.09,347.08,540.48,355.09Zm8,8.17c-1.47-.16-.74-2.15-.74-3,0-4.08,2-8.07,2.49-13,1.92-1.33,4.26-3.54,4.48-6.18C557.43,349,549.9,354.47,548.45,363.26Zm38.78-69.51c-.57.47-1.59.21-2.22.59-.14,3.46-2.51,3.35-3.59,5.3,1.23,4.75-2.94,8.63-5.85,10.89-.16,1.47,1.23,1.91,1.4,3.16a5.28,5.28,0,0,1-3,4c-.31,3.56-2.84,7.71-4.59,11.52-5.37,2.75-8.87,8.5-14.27,11.2-1.1-3.17-3.55-5.44-7.6-6.66.21-2.38,0-4.5.08-6.78-2.59-1-4.75-1.78-6.46-3.91,2-7.89-4.16-12-3.9-20.51.06-2.06,1.43-2.57,2.11-4.9a11.41,11.41,0,0,1,7.32-8.06c3.21-5.91,8.94-7.77,11.28-15.07,1.2-.22,2.86.28,3.36-1.06.9.57.6,1.94,2.36,1.94-.32,2.35.22,4.14,0,6.43.79-1.76,1.83-6.4-.77-7.68,2-5.15.6-9.64,1.16-13.33,1.39-9.12,11.5-11.4,12.06-20.26,1.51,1.09,3.16-3,4.18-1.6-.26-1.36,2.89-1.76,3.33-2.49.3-.51,0-1.28,1.11-1.9.2-.11.29.66.18.76a6.35,6.35,0,0,0,2.22-3.81c3.44.88,3-2.65,4-7-.4,0-.42.56-.55,1-.42-.4-.94-.74-.7-1.58,6.35.89,1,10.94.36,14.38-.59,0-.57-.4-.52-.83-2.66,1.51.54,4.23-1.34,6.15.85.28,1.64.48,1.55-.74.88,1.09-2.23,6.86.14,5.75.63,1.51-1.36,3.44.18,4-.14.39-.67.16-1.07.12-1,4.43-2.15,11.13-2.82,16.19a8.28,8.28,0,0,0-3.25-1.06c1,.81-.14.9-.45,2-.46-1.72-1.79,0-2.55.52.23.93.67,4.47,1.4,3.16-.35,2.28,2.31,2.56,2.1,4.75,3.18-1.26,3.91,4.08,8.42,2.9C592,285.75,586.47,289.75,587.23,293.75Zm5.26-17.81c-1.42-1.32-.86,1-3.8-.11-.44-1-.63-2.12-1.07-3.09-1.4-.24-2.8-.48-3.18-1.41.15-.68,1-.24,1-1.22,4.16,1.16,7.67,2.87,9.56,2.44C595.45,273.95,592.81,274.29,592.49,275.94ZM704,467.51c-.84-.13-.91-.76-1.51-1q.2-1.29,1-1.56c-.84-2-3.9-2.48-5.39-4,1.28-1.44,3.6-3.59,2.92-5.44a16.69,16.69,0,0,0,7.13.83C710.54,461.41,705.24,462.87,704,467.51ZM733.1,457c-.88-.2-2-.24-1.85-1.12.22-1,1.35-.6,2.22-.59Zm-7.26-13c4.08,2.56,5.81,6.67,11,8.48-.55,2.5-2.66,2.49-4.73,2.55-1.28.07.05-1.59-1-1.65-2.3,1.22-3.58,4.08-6.25,4.72-.68-4.65-2.56-8.38-2.9-13.86C723.53,444.62,724.57,444.14,725.83,444Zm-4.54.09c-.3,5.07,2.38,8.16,2.39,13-3.26-.92-7.09-2.3-8.94-3.73-1.93,1.94-7.2,3.39-7.46-.91,3.28-2.39.78-5.2.64-7.73-.29-5.12,5.26-9.8,3.49-16A180.36,180.36,0,0,0,721.29,444.09Zm-10.55-15.52c-.39,2.23.37,4.67.07,6.09-.44,2.07-2.13,4-2.74,6.2-.86,3.15-.26,5.28.62,8.36-2.17,1.58-1.66,5.27-1,6.22-2,.32-4.39.51-6.06-1-1.9,1.13-1.73,5.45-4.73,5.76-4.55-1.51-4.93-7.2-11.48-6.43a23.15,23.15,0,0,0-5.28-6.15,6.93,6.93,0,0,0-6.94-6.51c-.89-3.12-2.31-5.87-2.87-9.21-2.84-1.63-5.29-3.51-9.12-4.49,0-.85.77-.61.7-1.64-2.5-4.38-.88-11.49-2.72-16.32,5.63.1,11.75-.45,16.81,1.15,2-.22,3-1.87,4.47-3,3.93-.71,5.53,2.17,8.6,3.66,3.52,1.7,7,1.52,8,4.61,2.28.23,2.64.34,3.84,1.55,3.54-.08,6.23,1.86,8.16,2.49C711,422.78,711.45,424.52,710.74,428.57ZM688.15,290.66c1.87,3.64.48,10.64,5.16,11.49,1.06.37,1.25,1.32,2,1.87,1.52-.31,2.64.95,4.4.6,5.92,4,5.28,12.29,9.85,17.16.16,2.11,1.22,4.27,0,6.43-.53,1,1,.71.7,1.58l-.82,3.76c3.78,6.77-3.27,15.31-1.76,22.5.76.28,1.13.81,2.25.85-2.76,7.19,2.92,8.79,2.83,14.2a8.47,8.47,0,0,0,2.51,1.26c-.17,1.86,1.27,2.67.29,5.07.54,1.51,2,1.93,2.8,3.11,3.14,4.73,2.26,10.16-.09,16.43-1.63,3.29-7.52,4.74-4.66,8.64-2.26,4.4-1.17,9.94-2.93,15.09-2.31-.89-5.33-4-9-3.39-2-1.13-1.48-2-4.17-1.62-1.35-3.12-4.56-3.22-7.38-4.47s-5.3-4.34-9.19-4.14a46.13,46.13,0,0,0-4.55,3.3c-5-1.87-12.59-1.54-17.88-1-3.94-3.53-7.54-7.29-9.15-12.36,1.67-5-4.65-4.71-6.79-7.2a7.74,7.74,0,0,0,1-3c-4.07-3.2-11.7,1.56-13.66-4.4-1.38-.25-2-1-3.58-1.14-1.4-3.72-5.62-4.39-9.08-6.26-1.79-9.93-12.72-15.34-11.72-26.15-3-1.93-3.76-5.31-6.79-7.2.69-8.15-.42-15.11-3.08-21-2.15-.33-2.82-1.64-4-2.65,2.44-8.07-.86-14.27-.87-21.64,2.82-2.89,11.71-6.24,4.7-10.42.72-1,.94-2.8,1.3-4.37,1.45-1.05,4.19,0,5.76-.89.81-4.69,4.05-7.39,2.67-12.29-1.89-.11-4,3.39-7.72,1.9-.16-1.65-.56-3.14-1.92-4,1.63-1.56.52-4.55,0-6.43,2-.2.21-1.2,1-3-.74-.12-.46,1.42-.78,2-.14-1.27-1-2-.59-3.7,1.7-2.36,5.52-3.61,6.92-7.79-.12-3.57,2.08-7.52.31-11-2.37-.67-1.46-3.51-3.17-4.62,1.12.38.53-1.42-.22-2.19,1.46-1,0-1.68.41-3.49-.85-.28-1.64-.48-1.55.74-1.33-3.18.66-7.37.23-10.68,1.69-2.1,4.28-6.19,7-8.13.38.43.18,1.24.7,1.58.74-2.83,5.18-2,6.65-5,.57.21.63.75.37,1.51,1.53-.16.62-2.14,1.07-3.34a1.87,1.87,0,0,0,1.26.63,5.81,5.81,0,0,0-1.11-1.31c2.86,1.81,7.23,5.15,7.27,9.8a20.77,20.77,0,0,1,2.77,1.67c-.31,6.84,10,8.21,5.78,16.63a8.63,8.63,0,0,1,1,6.65c2.19-3.65-1.27-6.44.42-9.92,4.24.61,5.88,5.46,7.9,8.51,1,.47,1.11-.38,2.07.09a6.89,6.89,0,0,0,1,2c3.43.49,5.42,4.38,8,6.39,1.43,7.53,2.26,15.45,3.3,23.24-.29,1.52-1.36,1.8-1.48,3.61,5.18,2.91,10.42,5.77,14.69,9.27,4.62.32,8.37-2.59,13.3-.33C682.45,283.52,684.36,287.72,688.15,290.66Z"/><path class="cls-3" d="M751.67,546.16h0Z"/><path class="cls-3" d="M377.49,636.13a25.41,25.41,0,0,0-3.92,1.6C375.64,638.42,376.25,636.77,377.49,636.13Z"/><path class="cls-3" d="M789.7,560.15c-1.51-1.6-3.6-2-5.94-3.08-5.25-2.41-9.53-5.91-10.85-10.94-4.52-.9-4.41-4.88-7.2-6.93-1.71,0-3.43,0-5.21-.06-1.1-2.14-3.87-1.66-5.87-3.42-.09-2.38-1.46-3.9-1-6.65-4.85.09-4.53-3.24-5.35-5.81a13.44,13.44,0,0,0,1.67-6.07,13.08,13.08,0,0,0-1.66-5.86c2,5.38-2.34,13.59,1.54,17.63l3,.65c-.52,2.74,1.3,4.75,1.84,7.55-1.21,3.5-1.12,6.42-3,9,3.26-2,1.4-5.79,3.73-9.19,3.53,1.43,5.66,3.24,10.49,3,2.13,2.29,2.66,5.65,6.53,6.78a18,18,0,0,0,11.26,10.67,15.72,15.72,0,0,1,7.66,5.56A20.29,20.29,0,0,0,789.7,560.15Z"/><path class="cls-3" d="M333.59,648.7a4.86,4.86,0,0,0,.81.17A2,2,0,0,0,333.59,648.7Z"/><path class="cls-3" d="M793,564.09a2.51,2.51,0,0,1-1.61-1,28.37,28.37,0,0,1,2.6,4.46c2.91,1.1,5.37,4,7.72,4.54a61.08,61.08,0,0,0-7.31-4.81C794,566.17,793.45,565.17,793,564.09Z"/><path class="cls-3" d="M861.15,412.9c-.95-.73-1.86-1.51-2.75-2.29a11.16,11.16,0,0,0,1.71,1.8Z"/><path class="cls-3" d="M873.21,417.77c-4.29-.82-8.12-3-12.07-4.86C864.54,415.53,868.38,417.64,873.21,417.77Z"/><path class="cls-3" d="M815.13,411.44c1.23.58,1.06,0,0,0Z"/><polygon class="cls-3" points="523.28 374.95 523.28 374.95 523.28 374.95 523.28 374.95"/><path class="cls-3" d="M753.46,558.7c-1.49,7.54,3.92,13,4.3,20.24-2.83,3.15.07,6.39-1.82,10,.8,3.37,4.75,6.21,6.24,8.15-1.21-3.1-5.06-4.25-5.5-8.35-.05-.5.49-1.53.52-2.39.1-3.15-.94-5.82,1-7.65-.35-7.17-6.33-13.62-4-19.83-3.11-3.35.42-9.3-2.46-12.69-.15.2-.31.41-.48.61C754.25,549.66,750.71,555.39,753.46,558.7Z"/><path class="cls-3" d="M452,402a5.94,5.94,0,0,0,.37-.74l-.22.08Z"/><path class="cls-3" d="M318.26,302.86l.24.07-.36-.23Z"/><path class="cls-3" d="M313.95,295.48c-4.21-1.11-6.94-3.2-9.64-5.31,3.33-9.14-9.68-7.13-14.4-7.42-1.63,4.22-6.79.48-10.23.64.91.89,5.14,1,7.16,2.27,3.9-3.5,20.15-4.87,16.91,5.46,3.8,1.38,5.8,4,10,5,.2,3,2,5,4.34,6.53A25.68,25.68,0,0,1,313.95,295.48Z"/><path class="cls-3" d="M618.51,382.07c.29,1.17.44,2.44,1.4,3.16-.41-1.09-1.12-2-1-3.43a6.78,6.78,0,0,1-1.36-1.73C617,381.3,618.66,381.09,618.51,382.07Z"/><path class="cls-3" d="M718.77,298.75c-2-.62-.48-3.58-1.36-4.94a9,9,0,0,1-.41,3.49C717.74,297.5,717.84,299.62,718.77,298.75Z"/><path class="cls-3" d="M800.29,340.06c-.44.68-1.11,1-1.18,2.25.52-.08.52,1.51.92.56C798.58,341.87,800.93,340.75,800.29,340.06Z"/><path class="cls-3" d="M435.84,264.77c-.13-.35-1.27-3.68-1.4-3.17C435.19,264.29,437.28,268.57,435.84,264.77Z"/><path class="cls-3" d="M799.21,346.62c.64-.11,2-3.55.59-2.73C801,345,798.31,346,799.21,346.62Z"/><path class="cls-3" d="M440.85,269.65a.92.92,0,0,0,.57-.09A1,1,0,0,1,440.85,269.65Z"/><path class="cls-3" d="M440.85,269.65c-1.3-.19-2.82-2.69-3.71-2.8C437.22,267.54,439.46,269.52,440.85,269.65Z"/><path class="cls-3" d="M917.28,384.8c-.48-.67-1.95-2.2-3.18-1.4C915.94,383.16,916.7,385.16,917.28,384.8Z"/><path class="cls-3" d="M920.52,389.08c.33-1.13-2.24-3-2-2.21C919.57,387.37,919.75,388.42,920.52,389.08Z"/><path class="cls-3" d="M278.94,283.58c-2.06-.79-2.38-4.26-4.72-3.89C276.73,280.17,276.77,283.84,278.94,283.58Z"/><path class="cls-3" d="M411.64,312.07c-2.2.16-3.65,1.52-5.4,2.4-1.81,1.24,4.91-2.36,6.13-2.6C412.1,311.89,411.72,311.74,411.64,312.07Z"/><path class="cls-3" d="M405,315.28c-1.35,1.33-3.27-1.55-3.32-.72C402.61,315.43,404,316.76,405,315.28Z"/><path class="cls-3" d="M878,421.31c-.65-1.42-2.45-3.63-4.54-3.13,2.7.45,3.26,2.33,4.8,3.55.61-.87,2.45.24,3.21-.37C880.41,420.45,879.16,421.06,878,421.31Z"/><path class="cls-3" d="M494.95,338.76a18.17,18.17,0,0,0-3.74,6c-.06.36.37.36.41-.27.34-1.15,1.2-1.46,1.33-2.93C493.74,341.09,495.21,339.36,494.95,338.76Z"/><path class="cls-3" d="M820.39,417.37c-.48-.2-1.08-1.77-1.51-1C819.61,418.58,825.08,417.44,820.39,417.37Z"/><path class="cls-3" d="M911,443.87c-2.16.06-3.22-2.14-4.1-2,1.25,1,2,2.37,4.28,2.72a2,2,0,0,0,.55,2.27A7,7,0,0,0,911,443.87Z"/><path class="cls-3" d="M913.52,450.13c.18.08.14.07,0,0Z"/><path class="cls-3" d="M911.64,447.57c-.53,1.12,1.37,2.26,1.88,2.54C913.25,449,911.79,448.73,911.64,447.57Z"/><path class="cls-3" d="M927.62,458.91c-.19,1,.5,3,1.62,2.14l-1-.22C928.31,460,928.23,459.29,927.62,458.91Z"/><path class="cls-3" d="M544.91,397.17c.2-4.1.95-7-.17-10.41,1.79-.25,1.79-6,1.3-7.58-.3,2.09.27,6.26-1.63,7.51C545.65,390.1,544.1,393.55,544.91,397.17Z"/><path class="cls-3" d="M621.48,398.8c-.47,1.57-1.68,3.89-1.08,3.34C620.47,400.83,622.38,400.12,621.48,398.8Z"/><path class="cls-3" d="M544.42,404.22a5.77,5.77,0,0,0-.51-4A17,17,0,0,0,544.42,404.22Z"/><path class="cls-3" d="M490.58,389.29c-.69,1.2-3.57,1.32-3.33,2.49C488,390.91,491.5,389.88,490.58,389.29Z"/><path class="cls-3" d="M547,405.14c-.43-2,2.11-1.49,1.26-2.59-.28.78-1.19.54-1.63,1.08C547.27,403.8,545.77,404.83,547,405.14Z"/><path class="cls-3" d="M549.36,410.3c.63-1.2-1.13-.81-.63-1.92.28,0,.66.13.74-.2-.61-.21-.82.23-1.4.05C547.76,409.41,549,409.56,549.36,410.3Z"/><path class="cls-3" d="M742.74,459.12c-2.19-1.09-3.87-4.06-5.65-4.44C739,456,740.72,458.9,742.74,459.12Z"/><path class="cls-3" d="M543,423.57c-.42-.52.68-3.54-.07-2.88C542.54,421.75,542.43,424.12,543,423.57Z"/><path class="cls-3" d="M542.85,424.25c-.64,1-2.05,3.13-1.89,3.88C541.43,426.87,543.26,425.39,542.85,424.25Z"/><path class="cls-3" d="M538,432.14a33.53,33.53,0,0,0-3.62,3.86C534.13,436.25,538.12,433.19,538,432.14Z"/><path class="cls-3" d="M528.24,445c.31-1.08,2.94-2.71,2-2.78C529.65,442.88,527.29,444.95,528.24,445Z"/><path class="cls-3" d="M333.24,401.06q.42-.53.81-1.1A4.81,4.81,0,0,0,333.24,401.06Z"/><path class="cls-3" d="M330.91,403.21c1.44,2.61-1.3,6.39.62,8.36-.9-3.66.4-8.25,1.71-10.51A7.85,7.85,0,0,1,330.91,403.21Z"/><path class="cls-3" d="M260.66,386.87c-.49.86-.88.47-1.22.81C256.34,390.71,261.46,387.9,260.66,386.87Z"/><path class="cls-3" d="M521.06,452.41c1.76-1.79,4.7-4.12,5.47-6C524.93,448.48,521.91,450.69,521.06,452.41Z"/><path class="cls-3" d="M261.25,393.79a7.11,7.11,0,0,1-.63-1.92c-.6,0-.74-.69-1-.22C261.24,393.81,262.74,397.41,261.25,393.79Z"/><path class="cls-3" d="M596.84,481.75c-.12-.27-.25-.54-.4-.82A1.29,1.29,0,0,0,596.84,481.75Z"/><path class="cls-3" d="M587.28,469.67c2.78,3.69,7.21,7.63,9.16,11.27a2.64,2.64,0,0,1,.1-1A76.08,76.08,0,0,0,587.28,469.67Z"/><path class="cls-3" d="M515.44,459.06a6,6,0,0,1,1.92-2.44C516,455.92,514.86,459.68,515.44,459.06Z"/><path class="cls-3" d="M264.19,402.65c.37,1.52-.29,5.25,1,5.21C264.61,406.6,264.57,402.1,264.19,402.65Z"/><path class="cls-3" d="M334.58,421.53c1.35.18.07,2.09.81,2.68C335.91,423,335.63,420.76,334.58,421.53Z"/><path class="cls-3" d="M305.37,416.61c-.26,1.83,1.63,3.78,2.66,3.8C306.73,419.6,305.67,417.1,305.37,416.61Z"/><path class="cls-3" d="M596.68,488.87s-1-.2-1-.22A.55.55,0,0,0,596.68,488.87Z"/><path class="cls-3" d="M595.7,488.4c.19-1.2,2.11-4.64,1.32-5.89C597.3,483,595.83,486.44,595.7,488.4Z"/><path class="cls-3" d="M309.27,421.51c-.61-.51-.94-.64,0,0Z"/><path class="cls-3" d="M309.94,422.13c.9,1.89-.78,3.69-.92,4.92.64-.82,1.29-1.62,1.92-2.44C311.25,423.78,310.61,422.84,309.94,422.13Z"/><path class="cls-3" d="M309.27,421.51a8.14,8.14,0,0,1,.67.63,2.53,2.53,0,0,0-.14-.27Z"/><path class="cls-3" d="M321.5,427.27c-1.74,1.67-4.11,2.32-6.28,3.28-.52,1.34-1.82,6.4-.59,2.73.39-.72,1.37-1.49.85-2.32C317.3,429.73,321,429,321.5,427.27Z"/><path class="cls-3" d="M303.21,432.94c-1.51-.52-.53.78-.7,1.64.29-1.08,1.08-1.34,1.26-2.59-.49-.17-1.25-.14-1.26-.63,1.29-.25,3.89-.81,3.07-2.91-.17,2.65-2.53,1.78-3.48,3.18C302.23,432.23,303.75,431.91,303.21,432.94Z"/><path class="cls-3" d="M600,499.25c.14-.44.59-2.46,0-1.44l-.37,1.71C601.32,502.72,601.72,503.44,600,499.25Z"/><path class="cls-3" d="M307.75,439.29c2.1.29,2.72-1.78,4.58-1.86-2.27-.57-2.38,2.32-4.84,1.45C306.31,441.8,306.75,442.5,307.75,439.29Z"/><path class="cls-3" d="M306,442.49a9,9,0,0,1-1.88.66c-.32,2.29.48,2.46.33.07C305.31,443.73,306.83,441.75,306,442.49Z"/><path class="cls-3" d="M730,545c-2.68,2.78.37,8.31,1.8,9.33C730.72,551.56,728,548,730,545Z"/><path class="cls-3" d="M780.72,558.2c-.45-.41-.73-2.41-1.36-1.73a1.74,1.74,0,0,1,.77,1.24C779.85,562.06,779.94,563.08,780.72,558.2Z"/><path class="cls-3" d="M298,460.06c.1-1.3,4.19-1.72,2.44-1.61-5.29,1.8-10.65,3.5-14.52,7.57-.78-.18-1.11.38-2.07-.09-.67.76-2.16.22-2.7,1.2l3-.79c1.09.52,1.39-.23,2.4.16C289.35,462.74,293.43,461,298,460.06Z"/><path class="cls-3" d="M780.09,562.71c1,.72,1.11,2,1.4,3.16-.61,1.94.34,1.31.41-.27C781.39,564.76,781,562.31,780.09,562.71Z"/><path class="cls-3" d="M808,573.77c1.76.21,2.95,2.32,4.51,1.69C811,575.17,808.29,572.9,808,573.77Z"/><path class="cls-3" d="M274.21,470.26a24.43,24.43,0,0,1,3.84-1.67C276.34,468.16,274.45,469.86,274.21,470.26Z"/><path class="cls-3" d="M306.88,497.74l-.45,2c.85.12.64.94,1.11,1.31-.28,0-.66-.13-.74.2a1.48,1.48,0,0,0,1.48-.39C306.76,500.73,307.23,497.72,306.88,497.74Z"/><path class="cls-3" d="M307.06,501.71c-.45,1.21-3.07,2.5-1.56,4C304.73,503.46,307.71,503.41,307.06,501.71Z"/><path class="cls-3" d="M764.13,605.71a11.14,11.14,0,0,0-.59-3.7C763,603.73,763.92,604.49,764.13,605.71Z"/><path class="cls-3" d="M305.43,506c-.56,1.74-1.05,5,0,4.65C304.27,509.28,306.54,507,305.43,506Z"/><path class="cls-3" d="M765.6,611.76c.49-.84-.36-2.25-.7-1.58C764.86,611.6,767.18,614.18,765.6,611.76Z"/><path class="cls-3" d="M768.55,620.62c-1.07-1.36-.53-2.68-1.51-4.26,0,.28-.14.68.18.76C766.75,619.16,770.32,622.87,768.55,620.62Z"/><path class="cls-3" d="M278.37,531.23c-.26,1.12-1.23,1.1-1.26,2.59a8.93,8.93,0,0,0-3.84,1.67c1.66-.11,2.58-1.39,4.18-1.6.05-1.3,1-1.15,1.18-2.25,4-1.48,6.5-5.44,9.76-8.13-2.1,1.43-4.58,2.76-5.7,5.44C281.11,529.49,280.13,531,278.37,531.23Z"/><path class="cls-3" d="M288.38,523.51l.56-.4-.12,0C288.67,523.25,288.53,523.38,288.38,523.51Z"/><path class="cls-3" d="M291.56,520.15a7,7,0,0,1-2.61,3C290.25,522.87,292.93,521.6,291.56,520.15Z"/><path class="cls-3" d="M332.85,648.9a12,12,0,0,0-3.7,1C326.73,650.93,333.24,649.07,332.85,648.9Z"/></g><path d="M608.77,32.46c-4.15,12.18-8.51,24.24-13,36.24s-9,23.94-13.67,35.85l-7,17.82L568,140.12l-7.21,17.71-7.31,17.65c-2.43,5.89-4.93,11.73-7.4,17.6s-4.95,11.73-7.47,17.56l-7.53,17.53-7.62,17.47c-5.07,11.66-10.28,23.23-15.42,34.85s-10.41,23.16-15.7,34.69-10.54,23.08-15.94,34.55-10.7,23-16.16,34.42-10.85,22.91-16.38,34.3-11,22.83-16.59,34.18-11.12,22.75-16.78,34.07-11.29,22.65-17,34L376.29,554.5l-17.37,33.73-76.11-82.36,27.56-14.41L338,477.2l27.68-14.14,27.76-14,27.82-13.86,27.88-13.73,27.94-13.59,28-13.46,28.06-13.34,28.12-13.22,28.18-13.09,28.24-13Q674.21,316,731.25,291.33L907.82,214.9,811.54,377.22l-12.17,20.52-12.23,20.48q-12.24,20.48-24.62,40.87-24.74,40.81-50,81.35-12.62,20.26-25.36,40.46c-8.54,13.44-17,26.92-25.62,40.32s-17.17,26.83-25.89,40.17l-13,20-13.14,20c-8.73,13.33-17.61,26.58-26.46,39.85-4.4,6.65-8.91,13.23-13.36,19.85s-8.9,13.24-13.42,19.82l-13.51,19.77-13.62,19.71q-6.79,9.86-13.7,19.66c-4.58,6.54-9.15,13.1-13.79,19.61q-13.83,19.59-27.9,39.05T445.4,937.53Q431.11,956.87,416.46,976c-9.76,12.76-19.65,25.45-29.8,38,5.3-15.24,10.87-30.34,16.56-45.36s11.49-30,17.43-44.88,11.92-29.75,18-44.56,12.23-29.58,18.47-44.3c3.09-7.38,6.25-14.71,9.39-22.06s6.28-14.7,9.48-22l9.57-22L495.21,747c3.2-7.31,6.51-14.57,9.76-21.86s6.5-14.58,9.82-21.82c6.61-14.51,13.19-29,19.91-43.5l10-21.7,10.15-21.64c6.73-14.45,13.64-28.79,20.48-43.18s13.84-28.68,20.75-43,14-28.61,21-42.89q21.14-42.81,42.77-85.35,10.82-21.27,21.74-42.48l11-21.19,11-21.16,80.29,85.89q-55.37,28.27-111.27,55.43l-28,13.53-28,13.39-28.1,13.26-28.15,13.14-28.21,13-28.27,12.89-28.34,12.75-28.4,12.63-28.46,12.5L390.18,588l-28.59,12.22-28.66,12.07L158.52,685.73l98.3-155.83,20.24-32.09,20.44-32q10.26-16,20.62-31.88C325,423.33,332,412.78,339,402.2s14-21.11,21-31.65,14.12-21,21.23-31.53,14.27-20.95,21.45-31.4,14.44-20.85,21.68-31.27,14.61-20.76,21.91-31.14,14.73-20.69,22.2-31l11.18-15.44L490.9,183.4q5.62-7.7,11.34-15.35c3.81-5.1,7.57-10.23,11.41-15.31l11.49-15.26,11.59-15.21,11.68-15.15L560.2,92c7.92-10,15.86-20,23.94-30S600.39,42.22,608.77,32.46Z"/><path class="cls-4" d="M603.77,41.46c-4.88,11.76-9.92,23.44-15,35.08L581.09,94l-7.76,17.39q-7.82,17.36-15.76,34.66l-8,17.27-8,17.24c-5.39,11.47-10.77,23-16.23,34.39s-10.91,22.87-16.42,34.28l-16.59,34.18-16.78,34.07c-5.64,11.33-11.23,22.69-16.93,34l-17.08,33.9q-8.58,16.93-17.22,33.82L407,452.91c-5.82,11.23-11.61,22.47-17.49,33.67l-17.62,33.59-17.74,33.52-17.87,33.45L286.49,533.3l27.75-14q13.87-7,27.79-13.91l27.82-13.84,27.89-13.71L411.68,471l14-6.79,27.95-13.58,28-13.45,28-13.4,28.07-13.31c9.35-4.46,18.75-8.81,28.12-13.21L594,384.09l28.2-13,14.1-6.52,14.13-6.45,28.27-12.9L707,332.39q14.16-6.4,28.36-12.71L849.84,269,787.9,375.72c-7.37,12.7-14.66,25.45-22.1,38.11l-22.25,38-22.4,37.95-22.56,37.86-22.73,37.76L653,603.1c-7.69,12.53-15.33,25.08-23.08,37.57l-11.6,18.75-11.67,18.71c-7.76,12.49-15.62,24.92-23.45,37.37L559.5,752.75q-11.9,18.59-23.89,37.12l-12,18.51-12.09,18.48q-24.25,36.92-49.1,73.51-12.41,18.3-25.09,36.46Q431,945.94,424.56,955t-12.91,18q4.14-10.3,8.4-20.52t8.59-20.42q8.65-20.38,17.52-40.64,17.73-40.53,36.13-80.69l9.21-20.07,9.27-20q9.29-20,18.72-40l18.95-39.85c6.37-13.25,12.72-26.52,19.16-39.74l9.64-19.84,9.71-19.8c6.45-13.21,13-26.36,19.53-39.53l19.71-39.43,19.88-39.34,20.05-39.24,20.21-39.16,20.37-39.07c6.77-13,13.68-26,20.52-39l52.53,56q-13.9,6.95-27.86,13.78L714,420.19l-27.95,13.58-14,6.79-14,6.72-28,13.44L602,474c-9.36,4.43-18.7,8.9-28.09,13.27L545.8,500.49l-28.18,13.09-28.2,13-28.26,12.91L447,546l-14.16,6.39-28.33,12.77-28.39,12.64q-14.18,6.34-28.42,12.57l-28.46,12.49L206.48,652.33,269.5,549l19.74-32.38,19.88-32.3,20-32.23c6.65-10.75,13.41-21.45,20.12-32.16l20.25-32.09q10.13-16,20.39-32l20.53-31.93c6.84-10.64,13.78-21.23,20.68-31.84l20.84-31.75,21-31.65q10.55-15.8,21.19-31.55c7.08-10.51,14.24-21,21.39-31.44L526.3,150l10.83-15.64Q548,118.74,559,103.19l11-15.52L581.17,72.2C588.62,61.9,596.12,51.63,603.77,41.46Z"/></g><g id="Spotlight"><path class="cls-4" d="M261.24,300.48l47,234.11L166.29,420.82S200.6,384.27,231.46,349,261.24,300.48,261.24,300.48Z"/><path class="cls-5" d="M259.79,300.87l15.86,79L301,506l5.82,29,2.79-1-92.87-74.44-45.45-36.43a24.12,24.12,0,0,1-3.48-2.79s-.74,1.22.22.2c1.24-1.3,2.46-2.63,3.68-3.94q19.05-20.45,37.76-41.22c16.25-18,34.06-35.93,46.31-57.09,2.85-4.93,7.37-12.12,6.94-18.2-.07-1-3-.42-2.9.78.12,1.73-1,5-1.71,7-3.23,8.61-8.62,16.48-14,23.83-10.15,13.78-21.94,26.38-33.36,39.1q-15,16.67-30.15,33.12-7.69,8.34-15.43,16.62c-.18.2-.47.63-.16.88l48,38.43,76.44,61.26,17.55,14.07c.67.54,3,.24,2.79-1l-15.86-79-25.3-126-5.82-29C262.47,299,259.56,299.72,259.79,300.87Z"/><ellipse class="cls-4" cx="196.71" cy="334.19" rx="95.17" ry="66.95" transform="translate(-149.59 508.71) rotate(-86.27)"/><path class="cls-5" d="M265,338.16c2-34.26-8.72-78-42.31-94.5-28.18-13.86-58.09,2.28-74.46,26.2-21.8,31.84-26,76.52-12.5,112.41,10.69,28.37,36.42,53.84,68.95,46.26,39.24-9.15,57.74-54.15,60.32-90.37,0-.52-2.83-.16-2.9.78-2.3,32.35-16.66,70.93-48.25,85.34-31,14.15-60.05-8.86-72.58-36.41-14.81-32.58-13.44-73.14,2.13-105.19,13.4-27.58,42.6-52.91,74.69-38.85,35,15.31,46.05,60.58,44,95.11C262,339.47,264.91,339.1,265,338.16Z"/><path class="cls-5" d="M193.29,327.71a5.67,5.67,0,0,1,2.39-1.49l-1.33-6.33s2.47,3.56,4.34,7.05,5.69-3.19,9.31-7.92.69-14.59.69-14.59l38-33.09s-19,29.55-4.51,45.51c0,0-36.79,22.42-30,56.12h0C194.84,348.43,163.92,385,163.92,385c-2.9-26-29.77-15.62-29.77-15.62l38-33.09s4.61,8.39,9.19,6,10.43-4.17,9.19-8.21-2.24-8.88-2.24-8.88l3.22,4.68a8.18,8.18,0,0,1,2-2.36l-.21.18Z"/></g><g id="Title"><path class="cls-6" d="M836.11,605.9H187.89a329.62,329.62,0,0,0-2.19,37.81A325.51,325.51,0,0,0,299.18,891L727,889.1A325.47,325.47,0,0,0,838.31,643.7,329.62,329.62,0,0,0,836.11,605.9Z"/><path class="cls-3" d="M169.26,608.58l.49-83.54,24.71.71,7.32.83-.08,48.16h4.23l.33-4.14s3.9-.36,4.31-.36,17,2.37,17,2.37L228,525l12,.35,7,2.48.73,47.92,2.85.59,12.44.59.08-26.39-2.68-1.18.08-16,4.23-1.89.33-6.15,2.76-.95V503.62s-1.3-.36,6.67-.36,22.68,4.61,22.68,4.61l.24,22.13.08,3.79,12.11.71V498.65a77.05,77.05,0,0,1,10.73-2.13c4.23-.35,5.2-.12,5.2-.12l2.93,1.77.73,93.36,3.58.95-.41-83.9,4.71-.59.24-2.13,10.73-.24,2.11,2,.73-4.14,12.19-1.12,8,4,.69,3.25.12,18.58.81.3.12-1.3,1.3-.36.24-9.41,6.38-1.77,8,1.06,0,11.12,4.19,8.93,5.45-.24.57-4.26,18.13-.83-.08-30.17s4.15-3,5.24-3.25a9.85,9.85,0,0,1,1.22-.3l4.27.89.41,21.54,8.82.59.77,42.36,5.2.12.41-106.14,6.5-11.24s-.12-34,.08-34.2.65-.06.65-.06l.53,25.91,5.16-.18s0-26,.16-26.09a2.69,2.69,0,0,1,.73-.18l.85,35.2,5.77,10.41,1,52.3,1.79-12.78,17.07,10.18.81,7.81,2.11.47.32-55.85,15.77-2.13,8.78,4.26,1.3,102.24,11.06.71.65,13.25,7.15,1.18-.33-33.13h6.18l.24-18.11,6.75-5.32h24.87v-8.52h8.62l1.14,29.82,4.55.24v-16.8l18.94-.47-.08,8.76,6.67-.71V513.5l2-2.13.24-4,.77-.3V503.8l3.41-5.56,3.41,4.62.57,8.28,5.45-.12-.16-8.76,5.69-7.22,7.8-.95,10,.47,4.55,8.76v36.21l5,.71,3.58,6.15,12.68-1.89.65-54.67,4.39-.83.57-2.13,7.32.12.08,3.2,2.76-.35.16-2.6,6.5-.59.49,2.37,7.23-.24s-1.63-127.62-1.38-128.33.73-2.43.73-2.43-.77-33.43-.45-35a19.06,19.06,0,0,1,1.06-3.2s-.12-23.79.28-25.44a20.85,20.85,0,0,1,1.18-3.31,55.88,55.88,0,0,1,.53-8.88,11.71,11.71,0,0,1,1.26-3.67s1.75-9.29,3.62-14.14,3.41-7.69,4.15-8.4a2.49,2.49,0,0,1,1.18-.77s9.71-2,11.5-.95,7.07,18.46,8.7,26S739.68,313,739.68,313l1,3,.45,36.8s.93,1.06.93,1.72.53,45.5.65,45.85a5.42,5.42,0,0,1,.41,1.54c0,.65.24,111.23.24,111.23l.08,8,1.3,51.59h7.48l4.55-5,7-.71-.33-50.41,7.56-2.13H791.3l2.11,54.91,14,.47-2.28-72.18L808,463.15l.73-2.84,4.55,3.55,23.82,27.93L849.94,617.4H169.54Z"/><path class="cls-4" d="M239.25,610a33.18,33.18,0,0,1,13.78,2.6q5.72,2.6,5.72,9.8v39.2h-9.36v-39.2q0-9-9.88-9a15.42,15.42,0,0,0-8.71,2.5,8.38,8.38,0,0,0-3.77,7.49V774q0,4,4,7.79t7.41,3.79a11.24,11.24,0,0,0,8.32-3.79,11.65,11.65,0,0,0,3.64-8.18V704.23h-14v-3.4h24.44v69.44q0,6.59-5.33,12T239,787.63q-11.7,0-16.77-4.79T217.15,770V622.42q0-7,7.15-9.69A42,42,0,0,1,239.25,610Z"/><path class="cls-4" d="M291.51,610q9.1,0,14.69,2.4t5.59,9.18V769.67q0,10-5.85,14t-14.69,4A29.77,29.77,0,0,1,276.17,784q-6.24-3.59-6.24-14.37V621.8q0-6.19,6-9T291.51,610Zm9.36,12q0-9.56-9.48-9.57-10.54,0-10.54,9.77V769.68a16.33,16.33,0,0,0,3,10.17q3,4,7.25,4a8.4,8.4,0,0,0,7-3.69q2.77-3.68,2.77-10.26Z"/><path class="cls-4" d="M323,610h43.16v4h-15.6v173.6H339.61V614H323Z"/><path class="cls-4" d="M374.7,610h10.92v83.6H407.2V610h9.62v177.6H407.2V696H385.62v91.6H374.44Z"/><path class="cls-4" d="M450.1,610q9.1,0,14.69,2.4t5.59,9.18V769.67q0,10-5.85,14t-14.69,4A29.77,29.77,0,0,1,434.76,784q-6.24-3.59-6.24-14.37V621.8q0-6.19,6-9T450.1,610Zm9.36,12q0-9.56-9.48-9.57-10.54,0-10.54,9.77V769.68a16.33,16.33,0,0,0,3,10.17q3,4,7.25,4a8.4,8.4,0,0,0,7-3.69q2.77-3.68,2.77-10.26Z"/><path class="cls-4" d="M480.78,610H491.7v83.6h21.58V610h9.62v177.6h-9.62V696H491.7v91.6H480.52Z"/><path class="cls-4" d="M535.37,610h8.84l21.32,124.4L586.07,610h8.84v177.6H584l0-124-16.62,100.6h-3.6l-17.39-98.43-.13,121.81H535.37Z"/><path class="cls-4" d="M667.19,610a47.21,47.21,0,0,1,13.78,1.9q6.24,1.9,6.24,6.3v44h-8.84v-43.8a4.39,4.39,0,0,0-3.12-4.4,29.56,29.56,0,0,0-8.06-1.6,12.8,12.8,0,0,0-6.5,2q-3.38,2-3.38,4.6v158.4q0,3.2,3.33,5.3a14,14,0,0,0,7.6,2.1,11.85,11.85,0,0,0,6.8-2.3q3.33-2.3,3.34-5.3v-45.8h8.84v45.4q0,5-6,7.9a30.58,30.58,0,0,1-13.52,2.9q-9.1,0-14.69-2.4T647.43,776V618.62q0-4.59,5.59-6.59A42.66,42.66,0,0,1,667.19,610Z"/><path class="cls-4" d="M700.47,610h10.92v177.6H700.47Z"/><path class="cls-4" d="M723.87,610H767v4h-15.6v173.6H740.51V614H723.87Z"/><path class="cls-4" d="M775.6,610h11.52l15,94.37L817.67,610h5.51l-19.76,108.4v69.2H792.5v-69.2Z"/><polygon class="cls-7" points="424.18 788.25 424.18 779.78 438.67 779.78 438.67 784.02 461.25 784.29 461.25 779.78 474.29 779.78 474.29 788.25 424.18 788.25"/><rect x="446.68" y="779.15" width="6.07" height="10.28"/><path class="cls-4" d="M502.35,846.17l-13.47,0v6.49a3.07,3.07,0,0,1-.91,2.19,3,3,0,0,1-2.17.9l-19.43,0V814.24h19.4a3.26,3.26,0,0,1,3.07,3.07l0,4.51,13.48,0ZM429,814.23a3.1,3.1,0,0,0-2.18.91,3.06,3.06,0,0,0-.9,2.17v14H149.48v6.23H425.91v15.09a3.25,3.25,0,0,0,3.07,3.07l30.66,0V814.23Zm106.31,0a3.11,3.11,0,0,0-3.1,3.1v4.48H509.07v24.37h23.17l0,6.52a3.31,3.31,0,0,0,3.08,3.06h4.89V814.22Zm11.6,0v41.53h19.86V814.23Zm48.26,22.71H874.52v-6.23H595.19V817.3a3.31,3.31,0,0,0-3.07-3.07H573.49v41.54l18.61,0a3,3,0,0,0,3.07-3.07Zm0,0"/></g></svg>