<svg id="Layer_1" data-name="Layer 1" xmlns="http://www.w3.org/2000/svg" viewBox="0 0 1000 1000"><defs><style>.cls-1{fill:#010101;}.cls-2,.cls-5{fill:none;stroke:#000;}.cls-2,.cls-5,.cls-6{stroke-miterlimit:10;}.cls-2{stroke-width:9px;}.cls-3{fill:#231f20;}.cls-4,.cls-6{fill:#fff;}.cls-5{stroke-width:3.49px;}.cls-6{stroke:#fff;stroke-width:10px;}</style></defs><title>kingdom charts</title><path class="cls-1" d="M459.27,110.62,455,113.11c-.16.1-16.6,9.75-27.92,13.36l-1.78.57,1.19,1.45a7.44,7.44,0,1,1-11.49,0l1.19-1.45-1.78-.57c-11.31-3.6-27.75-13.26-27.92-13.36l-4.23-2.49,2.49,4.23c.1.16,9.76,16.61,13.36,27.92l.57,1.78,1.45-1.19a7.44,7.44,0,1,1,0,11.49l-1.45-1.19-.57,1.78c-3.6,11.31-13.26,27.75-13.36,27.92l-2.49,4.23.78-.46-.46.78,4.23-2.49c.16-.1,16.6-9.75,27.92-13.36l1.78-.57L415.36,170a7.44,7.44,0,1,1,11.49,0l-1.19,1.45,1.78.57c11.31,3.6,27.75,13.26,27.92,13.36l4.23,2.49-2.49-4.23c-.1-.16-9.76-16.61-13.36-27.92l-.57-1.78-1.45,1.19a7.44,7.44,0,1,1,0-11.49l1.45,1.19.57-1.78c3.6-11.31,13.26-27.75,13.36-27.92l2.49-4.23-.78.46Z"/><polyline class="cls-2" points="285.83 550.14 333.73 393.77 423.67 644.23 456.48 515.44 481.11 583.05 517.51 371.17 540.81 485.94 594.36 588.82 651.96 614.21 673.02 490.15 695.31 550.42 740.87 386.72 754.74 428.87"/><rect x="561.76" y="707.66" width="233.08" height="32.12" transform="translate(688 1715.58) rotate(-137.42)"/><rect x="703.07" y="765.9" width="27.67" height="135.21" transform="translate(680.75 1932.31) rotate(-137.42)"/><rect x="709.65" y="758.04" width="27.67" height="57.54" transform="translate(723.77 1855.7) rotate(-137.42)"/><rect x="675.26" y="734.2" width="27.67" height="100.89" transform="translate(665.53 1828.65) rotate(-137.42)"/><rect x="633.15" y="696.92" width="27.67" height="108.83" transform="translate(679.02 -239.66) rotate(42.58)"/><rect x="663.11" y="719.02" width="27.67" height="78.49" transform="translate(691.61 -258.1) rotate(42.58)"/><rect x="205.16" y="707.66" width="233.08" height="32.12" transform="translate(-404.89 408.54) rotate(-42.58)"/><rect x="266.89" y="766.82" width="27.67" height="128.21" transform="translate(-488.23 409.08) rotate(-42.58)"/><rect x="270.55" y="754.98" width="27.67" height="80.8" transform="translate(-463.21 402.18) rotate(-42.58)"/><rect x="297.07" y="734.2" width="27.67" height="100.89" transform="translate(-448.95 417.3) rotate(-42.58)"/><rect x="351.82" y="691.99" width="27.67" height="146.2" transform="translate(1152.59 1081) rotate(137.42)"/><rect x="303.68" y="721.18" width="27.67" height="62.12" transform="translate(1060.32 1091.25) rotate(137.42)"/><path class="cls-3" d="M697.2,596C805.69,501.53,805,450.39,805,407.77,798.85,236.29,647.6,248.21,647.6,248.21s-135.19,0-145.48,126.9c3.7,78.74,75.54,81.47,75.54,81.47s62.56-.13,62.56-55-57.79-44.27-57.79-44.27,35.8,12.66,35.8,37c0,16.79-25.55,33.64-39.32,33.64s-37.61-11.37-37.61-40.32c0-80.34,93.3-80.72,103.65-80.72S748.16,315.25,750,411.1c.63,32.35,0,67-52.09,120.55C515.6,684.55,500.69,789.84,500.69,789.84c-1.39,0-16.3-105.29-198.62-258.2C250,478.12,249.35,443.44,250,411.1c1.87-95.84,94.74-104.19,105.09-104.19s103.66.38,103.66,80.72c0,29-23.84,40.32-37.61,40.32s-39.32-16.85-39.32-33.64c0-24.36,35.8-37,35.8-37s-57.8-10.61-57.8,44.27,62.57,55,62.57,55,71.82-2.73,75.53-81.47C487.59,248.21,352.4,248.21,352.4,248.21S201.16,236.29,195,407.77c0,42.62-.67,93.76,107.83,188.23C449.53,723.75,484.61,824.6,500.4,914.51c15-89.91,50.09-190.77,196.8-318.51Z"/><path class="cls-3" d="M854.11,331.49c-6.63-8.25-14.72-10.06-24.27-7.25-1.5.44-3.66-.27-5.17-1.09-13.14-7.14-26.2-14.42-39.5-21.78-3.05,2.84-6.14,5.43-8.87,8.35-2.26,2.41-4.27,2-6.24,0-8-8.12-15.82-16.33-23.76-24.47-1.71-1.75-1.49-3.18.21-4.74,2.54-2.35,4.86-4.93,7.51-7.13,2.28-1.89,2.5-3.68,1.32-6.35-5.11-11.58-10-23.27-15-34.86-1.12-2.56-1.38-4.52.35-7.12,4.27-6.43,3.63-13.24-.31-19.53-2.1-3.36-1.44-5.32,1-8.09,25.68-28.59,51.19-57.33,76.81-86a9.37,9.37,0,0,0,2.74-7.64c-.72-9.85,7-17.82,17.15-18.34,10.72-.55,18.38,5.94,19.18,16.08.1,1.24.7,3,1.63,3.54,15.76,9.22,31.62,18.29,47.46,27.38.1.06.28,0,.69-.06l1.43-6.49c14,4.71,33.68,26,37.45,40.57l-6.34,1.88c.51,1.51.88,2.85,1.39,4.14,6.31,15.75,12.69,31.48,18.91,47.27,1,2.66,2.34,4.08,5.4,4.54,10.29,1.53,17.23,11.94,15.28,22.37-1.9,10.16-11.49,16.24-22,14.49a11.07,11.07,0,0,0-7.44,1.7q-46.46,32.62-92.68,65.58C857.13,329.41,855.83,330.29,854.11,331.49ZM803.87,283.4a6.17,6.17,0,0,0,.87,1.34c9.36,7.41,18.59,15,28.15,22.13,6.51,4.87,13.14,4.39,19.81-1q38.52-31.28,76.9-62.73c6.77-5.55,7-8.92,1.41-15.51-7.57-8.86-15.25-17.62-22.91-26.39-.74-.85-1.66-2.11-2.55-2.17-8-.48-16.74-5.32-23.23,3.76-.6.84-1.75,1.3-2.81,2.05L862.69,187.1c11.13-4.31,9.54-13.45,9.24-22a8.56,8.56,0,0,0-1.88-5q-11.17-12.87-22.67-25.45c-5.91-6.51-9.06-6.59-15.39-.27q-34.34,34.32-68.56,68.75c-6.54,6.58-7.34,13.49-2.59,21.53,5.26,8.91,10.65,17.76,16,26.62.57,1,1.31,1.8,2.2,3,2.09-2,3.92-3.74,5.85-5.43,3.45-3,11.81-2.52,14.8.85,3.91,4.41,7.85,8.8,11.66,13.3.85,1,1.81,2.49,1.7,3.66-.52,5.69-.8,11.62-6.87,14.81A14.26,14.26,0,0,0,803.87,283.4Z"/><ellipse class="cls-3" cx="930.28" cy="139.66" rx="6.18" ry="5.33" transform="translate(173.72 698.71) rotate(-45)"/><rect class="cls-3" x="787.09" y="207.14" width="114.26" height="26.25" transform="translate(73.61 629.39) rotate(-42.59)"/><path class="cls-3" d="M891.73,406.23c3-1.91,5.69-4.23,8.51-6.37,3.07-2.33,5.81-5.48,9.26-6.82,6.14-2.39,9.17-7.34,13.27-11.87a50.56,50.56,0,0,0,12.43-24.11c1.56-7,3.68-13.05,1.88-20.4a82.51,82.51,0,0,0-9.34-22.06c-5.32-9.17-12.25-16.69-19.11-24.57-5.32-6.11-10.32-12.62-15.45-18.95-9.07-11.18-13.39-24.85-14.14-39.4-.11-2.09.6-4.24.39-6.31a44.08,44.08,0,0,1,25.48-44.05,8.34,8.34,0,0,0,4.25-5.07c1.63-7.84,3.16-15.51,10.21-20.7,1-.76,1.14-2.76,1.72-4.17,2.78-6.75,5.56-13.49,12.16-17.58,1.28,1.26,2.12,2.81,3.19,3,5.79,1,4.94,5.05,3.26,8.25-3.25,6.2-7.29,12-11,18-.76,1.23-1.76,2.49-2,3.85-2.59,16.28-12.2,27-26.51,34.21-1.64.83-3,3-3.61,4.91-1.88,5.63-3.49,11.37-4.89,17.14a15.88,15.88,0,0,0,0,6.33c1.12,6.4,2.46,12.76,3.8,19.11.37,1.77.49,4.08,1.64,5.11,9.73,8.71,14.16,21.8,24.93,29.74,2.55,1.88,3.48,5.9,5.32,8.84a19,19,0,0,0,3.7,4.68c11.48,9.46,17.59,22.09,20.46,36.21,1,4.87-1.33,10.33-1,15.45,1,15.83-7,28.53-15.49,40.11-6.36,8.72-16.57,14.61-25,21.85-3.52,3-6.86,6.28-10.39,9.54,4.17,3.5,23.2,23.45,20.53,23.8,1.24,15.68-3.76,27.91-18.42,34.39-11.45,5.05-22.62,3.41-32-4.8-11.69-10.26-13.4-23.25-7.94-37.33-12.4-8.08,19.83-25.53,21.32-16.38l5.85-.69C886.71,413.85,886.65,409.48,891.73,406.23Zm15.75-123.81c3.83,4.51,7.65,9,11.75,13.3.73.76,2.7.33,4.1.45,0-1.43.71-3.33,0-4.22A147,147,0,0,0,912,278.38c-.88-.91-3.54-.1-6-.07C906.82,280.66,906.91,281.74,907.48,282.42Zm33.61,33.39c-3.9-5.55-8.15-10.86-12.52-16.06a25.76,25.76,0,0,0-3.76,2.56c3.54,6,7.29,11.83,11,17.69l2.65,0C939.42,318.57,941.47,316.34,941.09,315.81ZM890.45,251c3.28-3,.64-20.32-3.49-21.84-2.4-.88-5-.18-4.5,3.16,1,6.52,2.41,13,3.77,20.13C889,251.48,889.94,251.44,890.45,251Zm10,22.59c.8.89,3,.56,4.49.79.14-1.52,1-3.47.3-4.47a93,93,0,0,0-9.25-12.29c-1.27-1.38-4.06-1.37-6.15-2l-1.93,2.84C892,263.52,896,268.69,900.41,273.56Zm36.66-132.35a4.26,4.26,0,0,0-1.36-3.32,3.07,3.07,0,0,0-2.95.57,166.18,166.18,0,0,0-8.63,16c-.52,1.17,1.43,3.45,2.49,5.77C933,154.73,935.74,148.32,937.06,141.22Zm9.27,180.45c-6.43,2.82-7.5,7.81-5.58,17.59.73,3.71,1.94,6.27,8.17,4.3Zm-59.21-98.55c2.17-6.19,4-12.49,5.72-18.83.14-.52-1.62-2-2.7-2.24a3.23,3.23,0,0,0-2.7,1.35c-3.68,6.19-5.91,12.76-4.58,20.82C884.54,223.82,886.87,223.84,887.12,223.12Zm17.15-37.63c-4.54,3.2-9,6.59-14,10.31,7.18,4,14.67.83,21.88-7.86C910.29,183.88,907.58,183.17,904.27,185.49ZM937,380.12c.65-.91.58-3.55,0-3.9-1.22-.71-3.81-1.1-4.48-.38a107.9,107.9,0,0,0-10.38,12.85c-.75,1.11.6,3.62,1,5.49l2.53.72C929.42,390,933.34,385.17,937,380.12Zm2.28-25.35a75,75,0,0,0-2.63,11.68c-.17,1.42,1.45,3,2.26,4.58,1.39-1,3.56-1.68,4-3,1.94-5.3,3.36-10.78,5-16.42C942.77,349.55,940.31,351.06,939.25,354.78ZM899.58,404.7c4,7.88,7.88,3.44,11.2,1.25,7.92-5.22,8.85-7.48,4.89-13.33Zm19.84-244.26c-7.39,8.38-8.54,17.3-2.49,22.16C923.71,173.42,924.56,165.4,919.43,160.44ZM893,407.48c-1.06,2.77-2.65,5-2.48,7.12.12,1.45,2.56,3.64,4.16,3.82,1.9.22,4-1.35,6.33-2.25Zm-13.19,77a35.16,35.16,0,1,1,41.57-27.28A35.16,35.16,0,0,1,879.85,484.5Z"/><circle class="cls-4" cx="886.85" cy="449.8" r="28.3" transform="translate(266.27 1226.79) rotate(-78.28)"/><polyline class="cls-5" points="881.11 477.5 886.85 449.8 909.88 428.98"/><polyline class="cls-5" points="881.61 419.17 886.85 449.8 916.1 443.45"/><path class="cls-3" d="M141.59,328.5Q95.28,295.66,48.9,262.92a11.07,11.07,0,0,0-7.44-1.7c-10.53,1.76-20.12-4.33-22-14.49-2-10.43,5-20.84,15.28-22.37,3.06-.46,4.36-1.88,5.4-4.54C46.35,204,52.73,188.31,59,172.56c.51-1.28.89-2.62,1.39-4.14l-6.34-1.88C57.86,152,77.58,130.68,91.54,126L93,132.46c.4,0,.58.12.69.06,15.84-9.09,31.69-18.16,47.46-27.38.93-.55,1.53-2.29,1.63-3.54.8-10.14,8.46-16.63,19.18-16.08,10.19.53,17.87,8.5,17.15,18.34a9.37,9.37,0,0,0,2.74,7.64c25.63,28.63,51.13,57.37,76.81,86,2.49,2.77,3.14,4.73,1,8.09-3.93,6.3-4.58,13.11-.31,19.53,1.73,2.6,1.46,4.57.35,7.12-5.07,11.59-9.93,23.29-15,34.86-1.18,2.67-1,4.46,1.32,6.35,2.65,2.2,5,4.78,7.51,7.13,1.69,1.57,1.92,3,.21,4.74-7.94,8.14-15.8,16.35-23.76,24.47-2,2-4,2.37-6.24,0-2.73-2.92-5.82-5.51-8.87-8.35-13.3,7.36-26.36,14.64-39.5,21.78-1.51.82-3.67,1.53-5.17,1.09-9.55-2.81-17.64-1-24.27,7.25C144.17,330.29,142.87,329.41,141.59,328.5Zm52.25-47c-6.07-3.19-6.35-9.11-6.87-14.81-.11-1.17.85-2.65,1.7-3.66,3.81-4.5,7.75-8.89,11.66-13.3,3-3.37,11.34-3.88,14.8-.85,1.92,1.68,3.75,3.48,5.85,5.43.88-1.2,1.62-2.05,2.2-3,5.35-8.86,10.74-17.71,16-26.62,4.75-8,3.95-14.95-2.59-21.53Q202.35,168.74,168,134.42c-6.32-6.32-9.47-6.24-15.39.27Q141.17,147.31,130,160.14a8.56,8.56,0,0,0-1.88,5c-.3,8.55-1.89,17.69,9.24,22L120.5,204.86c-1.06-.75-2.2-1.21-2.81-2.05-6.48-9.08-15.24-4.24-23.23-3.76-.9.05-1.81,1.32-2.55,2.17C84.25,210,76.56,218.75,69,227.61c-5.62,6.58-5.37,10,1.41,15.51q38.38,31.45,76.9,62.73c6.67,5.42,13.3,5.89,19.81,1,9.56-7.15,18.79-14.72,28.15-22.13a6.17,6.17,0,0,0,.87-1.34A14.26,14.26,0,0,0,193.84,281.51Z"/><ellipse class="cls-3" cx="69.72" cy="139.66" rx="5.33" ry="6.18" transform="translate(-78.33 90.2) rotate(-45)"/><rect class="cls-3" x="98.65" y="207.14" width="114.26" height="26.25" transform="translate(121.43 487.85) rotate(-137.41)"/><path class="cls-3" d="M343.25,130c-2.47-2.53-5.3-4.71-8-7-2.9-2.53-6.55-4.58-8.56-7.68-3.59-5.52-9-7.49-14.32-10.58a50.56,50.56,0,0,0-26.13-7.27c-7.12-.12-13.53-.95-20.36,2.31a82.51,82.51,0,0,0-19.7,13.63c-7.9,7.07-13.85,15.38-20.17,23.71-4.9,6.45-10.26,12.67-15.41,19-9.11,11.15-21.61,18.16-35.7,21.85-2,.53-4.27.28-6.25.9a44.08,44.08,0,0,1-48.31-16,8.34,8.34,0,0,0-5.83-3.13c-8,0-15.83.05-22.34-5.79-1-.86-2.93-.56-4.43-.84-7.17-1.35-14.34-2.71-19.68-8.33,1-1.51,2.32-2.64,2.29-3.73-.18-5.87,3.94-5.86,7.42-4.87,6.73,1.92,13.22,4.7,19.83,7.09,1.36.49,2.8,1.21,4.17,1.15,16.47-.78,28.89,6.47,38.88,19,1.14,1.44,3.59,2.31,5.54,2.54,5.9.7,11.84,1.1,17.78,1.31a15.88,15.88,0,0,0,6.2-1.25c6-2.4,12-5,17.94-7.61,1.65-.72,3.89-1.31,4.67-2.65,6.56-11.3,18.47-18.29,24.05-30.45,1.32-2.88,5.07-4.61,7.58-7a19,19,0,0,0,3.83-4.57c6.93-13.16,18.06-21.71,31.3-27.38,4.57-2,10.39-.8,15.33-2.15,15.29-4.2,29.37,1.1,42.42,7,9.83,4.45,17.67,13.26,26.47,20,3.68,2.84,7.54,5.44,11.45,8.24,2.58-4.79,18.25-27.48,19.14-24.94,15.1-4.4,28.1-2,37.41,11.05,7.27,10.18,7.94,21.46,1.8,32.3-7.67,13.53-20,17.84-34.94,15.35-5.39,13.78-29-14.23-20.37-17.55l-1.86-5.59C351.74,133.42,347.47,134.36,343.25,130Zm-124.42,9.73c3.64-4.66,7.29-9.33,10.63-14.2.6-.87-.22-2.71-.39-4.1-1.41.24-3.41,0-4.14.82a147,147,0,0,0-11,13.91c-.71,1,.62,3.48,1.15,5.88C217.24,140.78,218.28,140.47,218.83,139.77Zm25.86-39.69c-4.65,4.94-9,10.19-13.18,15.52a25.76,25.76,0,0,0,3.28,3.16c5.13-4.68,10.1-9.54,15.08-14.39l-.52-2.6C247.74,101.16,245.14,99.61,244.69,100.08Zm-53.2,62.76c-3.63-2.59-20,3.5-20.67,7.85-.38,2.53.84,4.95,4,3.77,6.18-2.3,12.21-5,18.94-7.78C192.28,164.11,192.06,163.24,191.49,162.84Zm20.1-14.34c.71-1-.05-3-.13-4.55-1.51.17-3.59-.23-4.44.61a93,93,0,0,0-10.16,11.55c-1.09,1.53-.52,4.25-.7,6.43l3.17,1.31C203.46,158.76,207.71,153.76,211.6,148.5Zm-137-9a4.26,4.26,0,0,0-3,2,3.07,3.07,0,0,0,1.16,2.77,166.18,166.18,0,0,0,17.46,5.2c1.25.28,3.09-2.1,5.14-3.61C88.62,140.71,81.78,139.35,74.56,139.49Zm174.8-45.73c4.07,5.72,9.17,5.76,18.36,1.89,3.49-1.47,5.74-3.18,2.55-8.87Zm-84.46,78c-6.5-.86-13.05-1.41-19.6-1.78-.54,0-1.58,2-1.65,3.1a3.23,3.23,0,0,0,1.87,2.37c6.81,2.35,13.7,3.2,21.31.26C166.11,174.14,165.65,171.85,164.9,171.75Zm-40.33-9.15c4.05,3.8,8.27,7.43,12.93,11.59,2.44-7.84-2.17-14.53-12.14-19.82C121.77,157,121.63,159.84,124.57,162.61ZM308.5,91.06c-1-.45-3.59.16-3.81.82-.44,1.34-.31,4,.54,4.46a107.9,107.9,0,0,0,14.69,7.55c1.23.51,3.42-1.32,5.18-2.08l.19-2.62C319.71,96.44,314.18,93.58,308.5,91.06ZM283.22,94a75,75,0,0,0,12,.2c1.42-.12,2.69-2,4-3.14-1.24-1.16-2.36-3.14-3.75-3.35-5.58-.82-11.24-1.1-17.1-1.59C277.39,91.59,279.37,93.68,283.22,94Zm56.94,28.7c6.89-5.56,1.76-8.41-1.05-11.22-6.73-6.7-9.12-7.15-14-2.08ZM97,152.86c9.7,5.53,18.68,4.85,22.2-2.06C108.8,146,100.78,146.82,97,152.86Zm247.25-24.34c2.92.48,5.45,1.58,7.48,1,1.4-.41,3-3.25,2.9-4.85-.17-1.91-2.13-3.65-3.49-5.74Zm78.09-2.73a35.16,35.16,0,1,1-35.16-35.16A35.16,35.16,0,0,1,422.31,125.78Z"/><circle class="cls-4" cx="386.91" cy="125.97" r="28.3"/><polyline class="cls-5" points="415.2 125.97 386.91 125.97 361.85 107.66"/><polyline class="cls-5" points="357.98 137.32 386.91 125.97 374.75 98.63"/><path class="cls-1" d="M500,115.11l36.59,113.63a13,13,0,1,0,11.76,2L610.09,159,582.26,300.14H417.75L389.91,159l61.72,71.73a12.93,12.93,0,1,0,11.8-2L500,115.11"/><path class="cls-1" d="M185,743.13l-4.23,2.49c-.16.1-16.6,9.75-27.92,13.36l-1.78.57,1.19,1.45a7.44,7.44,0,1,1-11.49,0l1.19-1.45-1.78-.57c-11.31-3.6-27.75-13.26-27.92-13.36L108,743.13l2.49,4.23c.1.16,9.76,16.61,13.36,27.92l.57,1.78,1.45-1.19a7.44,7.44,0,1,1,0,11.49l-1.45-1.19-.57,1.78c-3.6,11.31-13.26,27.75-13.36,27.92L108,820.1l.78-.46-.46.78,4.23-2.49c.16-.1,16.6-9.75,27.92-13.36l1.78-.57-1.19-1.45a7.44,7.44,0,1,1,11.49,0L151.37,804l1.78.57c11.31,3.6,27.75,13.26,27.92,13.36l4.23,2.49-2.49-4.23c-.1-.16-9.76-16.61-13.36-27.92l-.57-1.78-1.45,1.19a7.44,7.44,0,1,1,0-11.49l1.45,1.19.57-1.78c3.6-11.31,13.26-27.75,13.36-27.92l2.49-4.23-.78.46Z"/><path class="cls-6" d="M261.33,587.28q.28.57-4,1.84T246,592q-7.08,1.56-16.29,3.12t-19.55,2.27a192.66,192.66,0,0,1-21,.28,101.77,101.77,0,0,1-20-2.69,226.45,226.45,0,0,0-22.52-4.39,73.36,73.36,0,0,0-12.61-.71A24.54,24.54,0,0,0,127,591.1a21.77,21.77,0,0,1-6.23,1.28,16.47,16.47,0,0,0-.43-8.36,25.4,25.4,0,0,0-3.68-7.08,46,46,0,0,0-5.24-5.95q-2.83-2.69-5.38-5.24a89.71,89.71,0,0,1-7.22-7.65q-4.68-5.38-9.49-11-5.38-6.51-11.9-13.6-.29,9.35-.57,22.1-.29,10.77-.43,26.49t-.14,35.56a111.58,111.58,0,0,0-6.23-21.11A61.39,61.39,0,0,0,61.74,582a47.43,47.43,0,0,0-10.06-9.49,72,72,0,0,0-11-6.23A42.44,42.44,0,0,0,50,558.95a37.87,37.87,0,0,0,5.67-7.65,34.46,34.46,0,0,0,3.4-8.22q-.29-17.56-.28-32.86,0-6.51-.14-13.17t-.14-12.61V466.3q-2.55-3.4-5-3.68a6.36,6.36,0,0,0-4.82,1.7,38.88,38.88,0,0,0-5.1,5.24q-2.7,3.26-6.09,6.94a34.36,34.36,0,0,1,3.68-10.77,31.41,31.41,0,0,1,6.09-7.79,37.75,37.75,0,0,1,7.79-5.53,86,86,0,0,1,8.5-4,82.93,82.93,0,0,0,18.84-11.62A94.36,94.36,0,0,0,99,420.41,31.35,31.35,0,0,1,95.17,431a80.7,80.7,0,0,1-6.37,9.63A77.63,77.63,0,0,1,82.42,448q-3,3-3.83,3.26a2.53,2.53,0,0,0-1.42,1.56q-.29,1-.57,2.13a11.83,11.83,0,0,0-.28,2.83q.28,9.92.57,19.27.28,7.94.43,16.43t.14,13.88q2.55-1.7,8.92-6.66T99.56,490.1q6.8-5.66,12-10.48a67,67,0,0,0,5.81-5.67c.38-.57-.14-1.18-1.56-1.84a44.22,44.22,0,0,0-4.67-1.84,35.91,35.91,0,0,0-7.08-1.7q6.23-1.7,12.47-3.12,5.1-1.41,10.77-2.83t9.63-2.83a33.53,33.53,0,0,0,7.08-3.12q3.4-2,7.22-4.53t8.64-5.95q4.81-3.4,11.62-7.37a258.8,258.8,0,0,1-20,23.09q-10.63,10.91-22,20.68T106.92,501q-11.33,8.65-22.38,16.57,14.45,17,24.79,27.2a158.28,158.28,0,0,0,19.12,16.43,100.24,100.24,0,0,0,17.42,10.06q8.64,3.82,19.69,8.07a84.87,84.87,0,0,0,17.28,4.39q9.91,1.56,20.54,2.27t21,.85q10.34.15,18.56.14h13.17Q261,587,261.33,587.28Z"/><path class="cls-6" d="M150.22,568.11q-.57-.85-3.68-1.7a31,31,0,0,1-7.08-3.12q-4-2.27-3.68-4.68a10.61,10.61,0,0,0-1.13-5.52,9.93,9.93,0,0,0-3.4-4.39q-2-1.28-2-6.09,1.7.85,4-.85a7.33,7.33,0,0,0,1.7-1.7q-.29-8.21-.28-15.58V504.93c0-1.32-.57-2-1.7-2a9.18,9.18,0,0,0-4,1.13,32.15,32.15,0,0,0-5.67,3.4,4.38,4.38,0,0,1,.28-3.4q1.13-3.68,6.52-8.78,2.83-2.83,5-4.68a44.79,44.79,0,0,0,3.68-3.54q1.55-1.7,3.12-3.54t3.54-4.67q2-2.83,3.4-4.53t2.55-2.83a14,14,0,0,1,2-1.7q-.29,17.28-.28,32,0,6.24-.14,12.47t-.14,11.62v14.73a8.08,8.08,0,0,1,2.55,3.4,6.79,6.79,0,0,1-.28,4.25q-5.67,1.42-7.08,4.82a12.13,12.13,0,0,0-.85,6.8,20,20,0,0,0,2,6.09Q150.5,568.68,150.22,568.11Z"/><path class="cls-6" d="M222.68,476.1q1.41-2.83,5.81-4.53a33.07,33.07,0,0,1,8.07-2.13q3.68-.43,4.82.14t-3.4,1.7A16.55,16.55,0,0,0,230.9,475a13,13,0,0,0-3.12,4.53,9,9,0,0,0-.57,5.38q.28,12.75.57,24.36.28,9.92.43,20.82t.14,18q1.7,8.5.71,12.61a17.46,17.46,0,0,1-5,8.07,30.93,30.93,0,0,0-1.56-5.52,4,4,0,0,0-2-2.12,9.92,9.92,0,0,0-3.26-.71,15.7,15.7,0,0,1-5.1-1.56,10,10,0,0,1-4.53-3.68,11.06,11.06,0,0,1-1.7-4.53,11.52,11.52,0,0,1,.28-5.67,4.24,4.24,0,0,0,1.42,1.7q1.7,1.7,2.83-.28a35.8,35.8,0,0,0-6.66-11.19,127.85,127.85,0,0,0-9.77-10.34q-5.95-5.38-12.75-10.77l-.57,26.63q0,5.1-.14,9.77t-.28,8.5q-.15,3.82-.14,8.08A6.9,6.9,0,0,0,179,565.2l-2.69-3.68a47,47,0,0,0-3.4-4.11,40.07,40.07,0,0,0-3.54-3.4l-6.09-5q-3-2.4-4.11-8.92,3.11,2,3.68.85a1.85,1.85,0,0,0,0-1.42q-.29-6.23-.28-12.47-.29-5.38-.28-11.19V505.85q-5.67-1.7-6.09-3.12a8.35,8.35,0,0,1-.43-2.27c0-.19.19-.24.57-.14s.85.24,1.42.43a4,4,0,0,0,2.13,0,7.47,7.47,0,0,0,3-1.7,5.75,5.75,0,0,0,1.42-6.23,14.39,14.39,0,0,0-2-3.68q3.4-2.83,7.08-5.38a40.45,40.45,0,0,1,7.23-4.11,30.19,30.19,0,0,1,8.36-2.41,20.56,20.56,0,0,0-3.68,5.1,9.7,9.7,0,0,0-.85,3.82,11,11,0,0,0,.57,3.54,9,9,0,0,1,.28,4,50.21,50.21,0,0,1,9.35,6.8q5.1,4.54,9.92,9.35,5.38,5.38,11,11.9V499c0-1.51-.52-2.41-1.56-2.69s-3.45,1.09-7.23,4.11a10.13,10.13,0,0,1,2.83-5.67q2.26-2.26,5.1-4.67t6.09-5.53A28.53,28.53,0,0,0,222.68,476.1Z"/><path class="cls-6" d="M276.74,501.31c-.19,0,0-.33.57-1a14.81,14.81,0,0,0,1.7-2.55,10.56,10.56,0,0,0,1.13-3.68,6.59,6.59,0,0,0-1.13-4.39,7.45,7.45,0,0,0-4.67-3.12,28.66,28.66,0,0,0-7.22-.85,40.54,40.54,0,0,0-7.65.71q-3.69.71-6,1.27a8.39,8.39,0,0,1,2.13,1.7c.47.57.52.85.14.85-.19,0-.24,1.94-.14,5.81s.14,8.07.14,12.61,0,8.74.14,12.61,0,5.81-.14,5.81a16.72,16.72,0,0,0,2.69.71,42.67,42.67,0,0,0,6.66,1,22.6,22.6,0,0,0,6.8-.43,3.86,3.86,0,0,0,3.4-3.54q.56-5.66-2.27-5.67a14.4,14.4,0,0,0-5.95,1.42q-.85-3.11,3.54-7.51a29.66,29.66,0,0,1,8.92-6.37,16.08,16.08,0,0,0,4.39-2.55,43.14,43.14,0,0,0,3.54-3.12q1.7-1.7,3.4-3.68v19q0,7.37-.14,13.74a67.94,67.94,0,0,1-.43,7.79c-.19.95-.38,1.75-.57,2.41a12.54,12.54,0,0,1-.85,2.12c-.38.76-.85,1.66-1.42,2.69s-1.42,2.41-2.55,4.11a9.81,9.81,0,0,0-1.84,4.67,8.76,8.76,0,0,0,.71,4.11,38.57,38.57,0,0,0,2.27,4.39q1.41,2.41,3.12,5.24a28.47,28.47,0,0,1-8.92-5,17,17,0,0,1-4.25-5.53,21.66,21.66,0,0,1-1.7-5.52,25.41,25.41,0,0,0-1.27-5q-3.12-8.5-14.45-6-5.95,1.42-5.67,3.26a30.7,30.7,0,0,0,2.27,6.37q-5.38-.28-7.79-1.84a11.37,11.37,0,0,1-3.68-3.68,16.49,16.49,0,0,1-1.84-4.25,5.46,5.46,0,0,0-2.27-3.26,35.63,35.63,0,0,1-5.95-5.53q-2.84-3.25-1.13-7.79A8.5,8.5,0,0,0,235,526.8a3.44,3.44,0,0,0,1.56.57,1.67,1.67,0,0,0,1.42-.85l.57-26.92a6.49,6.49,0,0,1-3.4-.85,9.12,9.12,0,0,1-2.69-1.7,8.37,8.37,0,0,1-2.12-3.4q5.1-1.41,6.66-3a3.16,3.16,0,0,0,1.13-3.12,5.76,5.76,0,0,0-2.41-3,18.47,18.47,0,0,0-4.25-2.27A37.36,37.36,0,0,1,247.28,473a56.72,56.72,0,0,1,18.27-2.55,42.85,42.85,0,0,1,16,3.4q7.08,3.12,8.78,8.5t0,8.92a15.68,15.68,0,0,1-4.67,5.81,21.26,21.26,0,0,1-5.81,3.26A25.52,25.52,0,0,1,276.74,501.31Z"/><path class="cls-6" d="M310.32,489.82c.19-.19.14.14-.14,1a13.11,13.11,0,0,0-.57,3.12,12,12,0,0,0,.28,3.68A3.83,3.83,0,0,0,312,500.3a7.78,7.78,0,0,1,2.83,2.41,14.25,14.25,0,0,1,1.7,3,12,12,0,0,1,1.13,3.68v39.95a8.44,8.44,0,0,0,4,.28,33.36,33.36,0,0,0,5.81-1.42,41.78,41.78,0,0,0,8.64-4.25,17.16,17.16,0,0,0,7.51-8.22,29.32,29.32,0,0,0,.71-22.24,21.4,21.4,0,0,0-5.38-8.36,90.57,90.57,0,0,0-7.65-5.67,72.43,72.43,0,0,0-9.77-5.38,83,83,0,0,0-12.75-4.53,144.18,144.18,0,0,0-16.86-3.4,93.62,93.62,0,0,1-17.28-4,88.22,88.22,0,0,1-12.18-5.1,90.39,90.39,0,0,1-9.92-6.23q9.92,2,19.55,3.68,8.22,1.42,17.85,3.26t17.28,3q7.65,1.14,17.28,3a69.69,69.69,0,0,1,18.13,6.09,39.14,39.14,0,0,1,14,11.62q5.52,7.37,5,19.83t-5,20.54A45,45,0,0,1,346.16,555a48.64,48.64,0,0,1-12.61,7.79q-6.52,2.7-11,4.39.85-4.53-.28-5.81a3.21,3.21,0,0,0-3.26-.85,16.49,16.49,0,0,0-4.67,1.84,13.47,13.47,0,0,1-4.53,1.7,17.66,17.66,0,0,1-7.37.14,18.34,18.34,0,0,1-7.37-3.83q3.68-.85,5-8.22a93.11,93.11,0,0,0,1.27-15.86,200.69,200.69,0,0,0-1.42-22.38,2.61,2.61,0,0,1-1.7,0,12.7,12.7,0,0,1-1.42-.85,5.83,5.83,0,0,1-1.7-2.27,12.67,12.67,0,0,0,4.67-3.12q1.84-2,3.26-9.35a17,17,0,0,1,2-5.38,6.41,6.41,0,0,1,2.27-2.27,3.31,3.31,0,0,1,2-.43C309.76,490.34,310.13,490.2,310.32,489.82Z"/><path class="cls-6" d="M397.18,561.28q.28.57-1.13-1t-4-4q-2.55-2.4-5.67-5.1t-5.95-4.68a28.84,28.84,0,0,1-10.2-12,42.2,42.2,0,0,1-4-18.84q0-10.76,7.93-20.82t24.65-18.27a33.32,33.32,0,0,0,9.91,6.52,40.55,40.55,0,0,1,9.63,5.67q4.25,3.4,7.51,10.91t3.26,18.56a30.31,30.31,0,0,1-1.84,10.62,38.39,38.39,0,0,1-4.68,8.92,50.15,50.15,0,0,1-6.09,7.08,35.46,35.46,0,0,1-6.09,4.82,70.62,70.62,0,0,0-9.92,7.08Q396.33,560.43,397.18,561.28Zm0-68q-2,0-5.1,2.27a29.52,29.52,0,0,0-5.95,5.95,30.43,30.43,0,0,0-4.53,8.5,21.71,21.71,0,0,0-1,10.2,23.53,23.53,0,0,0,4.82,10.91q4.1,5.52,12.89,10.34,5.1-5.38,9.07-9.77a31.41,31.41,0,0,0,5.81-8.78,17,17,0,0,0,1.13-9.21q-.71-4.81-5-10.77a41.45,41.45,0,0,0-5.53-6.37,17.83,17.83,0,0,0-4-2.83,4.34,4.34,0,0,0-2.27-.57C397.13,493.24,397,493.28,397.18,493.28Z"/><path class="cls-6" d="M489.26,591.95a2.21,2.21,0,0,0-.85.28c-.38.19-.85,0-1.42-.43a11.06,11.06,0,0,1-2.13-3.26,43.28,43.28,0,0,1-2.69-8.22,29.29,29.29,0,0,1-.57-11.47,73.63,73.63,0,0,1,2.69-11.62A89,89,0,0,1,488.69,546q2.55-5.38,4.53-9.92a83.89,83.89,0,0,1,6.37-11.33q4.39-6.8,8.22-14.17a63.65,63.65,0,0,0,5.52-14.45,16.43,16.43,0,0,0-1.7-12.75q-3.4-5.66-8.08-7.65a27.7,27.7,0,0,0-8.92-2.27,29.24,29.24,0,0,0-9.92,1.13v51.28a15.61,15.61,0,0,1-1,5.1q-1,2.84-2.12,5.53t-2.12,4.53c-.66,1.23-1,1.75-1,1.56v-2.27a46.4,46.4,0,0,0-.28-4.67,53.74,53.74,0,0,0-.85-5.38,18.56,18.56,0,0,0-1.42-4.39,8.43,8.43,0,0,0-2.55-3,45.24,45.24,0,0,1-3.68-3.12,39.64,39.64,0,0,1-4.11-4.53,26.29,26.29,0,0,1-3.83-7.51q2.55,4,4.11,2.27t2.27-6.52a97.18,97.18,0,0,0,.85-11.76q.14-6.94-.14-13.46t-1-11.33q-.71-4.81-1.56-5.95a7.76,7.76,0,0,0-3.54-2,33.4,33.4,0,0,0-4.39-.85q-2.83,0-5.67.28,0,22.95.28,44.76v19.41q0,10.06.14,20.12t.14,19.41v17q-7.65-23-25.5-35.42a12.92,12.92,0,0,0,3.68-4.39,35.09,35.09,0,0,0,2.27-5.24,38.73,38.73,0,0,0,1.7-6.23V503.27q0-9.35.28-17.85t.85-10.2a7.36,7.36,0,0,1,2.12-3.12,31.6,31.6,0,0,0,3-3.12,10.08,10.08,0,0,0,2-3.68,7.55,7.55,0,0,0-.57-4.82q-1.13-2.83-8.22-3.26a111,111,0,0,0-17.14.57q-10.05,1-21.11,3.12t-20.4,4.67a104.22,104.22,0,0,1,32.16-15,156.34,156.34,0,0,1,34.71-4.82q18.41-.56,27.91,3.68a26.24,26.24,0,0,1,13.74,14.17,31.26,31.26,0,0,1,17.85-.43,39.19,39.19,0,0,1,14.31,7.51,40.89,40.89,0,0,1,9.63,11.47,27.63,27.63,0,0,1,3.83,11.76Q530.9,504.69,525,518t-21.53,30.31q-7.65,8.5-10.77,16.29a55.1,55.1,0,0,0-3.83,13.88,33.24,33.24,0,0,0,0,9.77Q489.53,591.95,489.26,591.95Z"/><path class="cls-6" d="M532.64,538.46q-.56-29.75,6.52-50.43T558,454a77.09,77.09,0,0,1,26.92-20,108,108,0,0,1,31.31-8.5,123,123,0,0,1,31.73.42,153,153,0,0,1,28.19,6.66A80.92,80.92,0,0,1,697,443q8.21,5.95,9.63,11.62A134,134,0,0,0,676,444a149.61,149.61,0,0,0-32.86-3.82,93.37,93.37,0,0,0-28.33,4q-12.47,4-16.72,12.75a8.76,8.76,0,0,1,3.12,2.83,24.15,24.15,0,0,1,2.27,3.82,15.25,15.25,0,0,1,1.13,3.26c.19.95.09,1.42-.28,1.42q-3.68,0-5.95,4.39a31,31,0,0,0-3,10.91,55.59,55.59,0,0,0,.43,14.17,45,45,0,0,0,4.39,14,30.25,30.25,0,0,0,8.64,10.48q5.38,4.11,13.32,3.54,0,14.17,3.26,21.67t8.92,10.91a28.31,28.31,0,0,0,13.17,3.82q7.5.43,16,.43a34.66,34.66,0,0,0,8.36-1.27,73.53,73.53,0,0,1,9.92-1.84,34.4,34.4,0,0,1,9.35.14,9.18,9.18,0,0,1,6.66,4.39,31.41,31.41,0,0,0-9.63.43,46,46,0,0,0-10.77,3.26,26.06,26.06,0,0,0-8.36,5.67,7.62,7.62,0,0,0-2.12,7.65q-2.27,1.7-8.5.71T645,578.83q-7.23-1.84-13.74-3.54a43.06,43.06,0,0,0-9.07-1.7q-9.64,0-15.44,5.95a27.9,27.9,0,0,0-7.51,13,18.09,18.09,0,0,0,1.42,13q3.11,5.95,11.33,6.23-10.77,2.55-16.29.57a13.94,13.94,0,0,1-7.93-6.37,22,22,0,0,1-2.55-10.2q-.15-5.8.14-11.33a61.69,61.69,0,0,0-.14-9.49q-.43-4-3.54-4.82a41.1,41.1,0,0,1-8.5-3.12,20.46,20.46,0,0,1-6.52-5,14.38,14.38,0,0,1-3.26-7.08,18.5,18.5,0,0,1,1.28-9.49q2.55,6.8,7.37,8.78a13,13,0,0,0,9.77.14,19.89,19.89,0,0,0,8.78-6.8,24.29,24.29,0,0,0,4.68-12.32,32.09,32.09,0,0,1-10.34-9.77q-3.82-5.8-5.24-15.72a12.71,12.71,0,0,1-4.53-2.27,20.93,20.93,0,0,1-4.25-4.39,34.41,34.41,0,0,1-4.25-7.79q10.2-8.78,13.17-17t1-12.75q-2-4.53-7.79-4.39t-13,7.93q-7.22,7.8-14.59,24.51T532.64,538.46Z"/><path class="cls-6" d="M699.85,498.18a21.86,21.86,0,0,0,2.22.33c.74.08,1.11,0,1.11-.11q4-2.43,4.65-4.1a17.54,17.54,0,0,1,2-3.54,17.72,17.72,0,0,1,5.09-4.21q3.76-2.33,13.73-6.09a17,17,0,0,0-6.2,5,18.33,18.33,0,0,0-3.1,6.53l-.22,52.27a17.76,17.76,0,0,0,3.88,4.87,23.73,23.73,0,0,0,7.2,3.54q-5.1,0-10.3.11a13.8,13.8,0,0,1-9-2.77,16.62,16.62,0,0,1-3.65-5.32,21.69,21.69,0,0,1-1.55-6.53,72.91,72.91,0,0,1-.22-8.3q.11-4.65.11-10.41H685.9v73.09a105.54,105.54,0,0,0-4.76-17.39A48.59,48.59,0,0,0,675,563.52a25.46,25.46,0,0,0-7-6.64,18.66,18.66,0,0,0-7.64-2.66,29.73,29.73,0,0,0,7.64-8.42,36,36,0,0,0,3.54-8,18.52,18.52,0,0,0,.89-5.65q-.11-2.1-.33-1.66.22-10.63.44-20.15.22-8.19.33-16.39t.11-12.62a9.08,9.08,0,0,0-3.88-3.32,4.52,4.52,0,0,0-3.76.33,17.24,17.24,0,0,0-4,3.1q-2.11,2.11-4.76,5a21.93,21.93,0,0,1,2.88-8,18.52,18.52,0,0,1,4.76-5.09,28.45,28.45,0,0,1,6.09-3.32L677,467.4a52.15,52.15,0,0,0,14-9.08,89.68,89.68,0,0,0,12.18-12.85,25,25,0,0,1-2.77,8.08,50.13,50.13,0,0,1-4.43,6.87,44.68,44.68,0,0,1-4.43,5,11.74,11.74,0,0,1-2.77,2.21,2.45,2.45,0,0,0-1.22,1.66,21.56,21.56,0,0,1-.77,2.33,22.57,22.57,0,0,0-.66,3.1q-.22,6.87-.22,13.51v22.15h19.71l-.22-6.42a8.54,8.54,0,0,1-3.32-.22l-3.43-1a9.7,9.7,0,0,1-3.65-2.1l-2.66-2c-.59-.44-1.07-.81-1.44-1.11a11.25,11.25,0,0,1-1-.89,19.35,19.35,0,0,1-1.33-1.55,25.65,25.65,0,0,0,3.1,1.11q1.55.45,2.66.89a19.44,19.44,0,0,0,2.44.66Z"/><path class="cls-6" d="M778.15,582.89a45.18,45.18,0,0,0-3.4-15,25.49,25.49,0,0,0-7.51-10.06Q762,553.42,752.94,554q7.65-2.26,9.77-6.52a12.94,12.94,0,0,0,1.13-8.78,24.38,24.38,0,0,0-3.54-8.36,25.93,25.93,0,0,0-4.25-5.24,42.28,42.28,0,0,1-7.37,9.35,63.06,63.06,0,0,0-6.23,6.52,21.48,21.48,0,0,0,3.54,3,7.63,7.63,0,0,0,3.68,1.13,15.05,15.05,0,0,0,4.82-.57q2.69-.71,6.66-2.13l-5.24,3.83a46.2,46.2,0,0,0-3.83,3.12q-1.7,1.56-3.54,3.4t-4.39,4.67a110.83,110.83,0,0,1-12.75-9.07q-4.25-3.68-4.68-7.22t2.83-7.79q3.25-4.25,9.49-11,7.08-7.65,8.08-12.61t-1.42-7.51a9.35,9.35,0,0,0-6.8-2.69,14.27,14.27,0,0,0-7.79,1.84q1.7-1.7,4.53-4.39t8.5-3.26a59.29,59.29,0,0,0,14.59-4.53,26.84,26.84,0,0,0,9.49-7.51,38.28,38.28,0,0,0,5.95-11.19q2.26-6.51,4.53-15.3v14q0,8.36-.14,18.42t-.14,21.11v21.53Q778.15,555.12,778.15,582.89ZM764,512.63V496.19a13.18,13.18,0,0,1-2.55,2q-1.42.57-3,1.13a10.25,10.25,0,0,1-3.54.57Z"/><path class="cls-6" d="M793.3,556.16a5.58,5.58,0,0,0,1-2.55,13.44,13.44,0,0,1,1-3.12,6.24,6.24,0,0,0,.14-3.54q-.42-2.13-3.26-4.39a9.42,9.42,0,0,1-2.55-2.27,11.07,11.07,0,0,1-1.7-2.83,15.57,15.57,0,0,1-1.42-3.12v-39.1a4.09,4.09,0,0,1,1.42-3.4,47.27,47.27,0,0,0,3.68-3.4q4.81-5.95,4-7.65t-4-1.13a49.4,49.4,0,0,0-9.63,3.12,32.62,32.62,0,0,0,2.83-3.4A18.07,18.07,0,0,1,790,475a40.2,40.2,0,0,1,9.49-3.82,66.74,66.74,0,0,1,15.87-2q11.33-.28,17.28,2.13t7.65,6.09a10.72,10.72,0,0,1,.14,8.22,26,26,0,0,1-5,8.5,18.89,18.89,0,0,1,5.81,5.38q2.12,3.12,2.13,9.63,0,3.4-2.69,8.5t-5.95,10.62a101.15,101.15,0,0,0-5.67,11q-2.41,5.52-1.56,9.49a12.43,12.43,0,0,0,3.26,6.37,19.55,19.55,0,0,0,6.66,4.11,77.49,77.49,0,0,0,10.91,3.26q6.65,1.56,16,4.11Q850,570,840.48,568.2t-15.3-5.81a28.79,28.79,0,0,1-8.64-8.64,54.42,54.42,0,0,1-4-7.51,14.07,14.07,0,0,1-.85-6.66,47.87,47.87,0,0,1,3.68-15.3,44.49,44.49,0,0,1,2.27-4.67,4.15,4.15,0,0,0,1.27-2.55,7.57,7.57,0,0,0-.14-2.55,9.84,9.84,0,0,0-1.13-2.55,20.2,20.2,0,0,0,6.8,0,7,7,0,0,0,3.26-1.56q1-1-1.84-4.11a10.07,10.07,0,0,0-5.67-3.4,13.27,13.27,0,0,0-6.09.28,23,23,0,0,0-5.38,2.27,40.8,40.8,0,0,0-3.54,2.27q-1.14.57-1.42,3.4a45.27,45.27,0,0,0-.14,6.37q.14,3.55.28,6.94a31.34,31.34,0,0,1-.14,5.38,5.59,5.59,0,0,0,0,2.55,7,7,0,0,0,.85,1.7q.57.85,1.28,2.12a15.16,15.16,0,0,1,1.28,3.83q.56,2.55-1.7,5.38a45.81,45.81,0,0,1-5.1,5.38,42.56,42.56,0,0,1-5.24,4.11Q792.73,556.44,793.3,556.16Zm21-63.75a30.78,30.78,0,0,1,4-.43,14.66,14.66,0,0,0,4.68-1,5.61,5.61,0,0,0,3.12-3.12q1-2.27-1-6.52a6.58,6.58,0,0,0-4.53-3.26A16.84,16.84,0,0,0,814,478q-4,.57-8.78,1.7l-.57,15.58Z"/><path class="cls-6" d="M889,472.25c-.38-.19-.24-.28.43-.28a10.14,10.14,0,0,1,2.55.43,9.74,9.74,0,0,1,3.12,1.56,5.68,5.68,0,0,1,2.12,3.12q.57,2,.85,2.12a.58.58,0,0,1,.28.57,12.81,12.81,0,0,1-.28,1.84,53,53,0,0,0-.57,5.67,9.81,9.81,0,0,1-4,6.8,27.8,27.8,0,0,1-7.37,4,57,57,0,0,1-10.48,2l5.67,50.43a12.2,12.2,0,0,0,4.82.85,47.27,47.27,0,0,0,5.67-.43,27.62,27.62,0,0,0,7.37-2.13q-4.54,3.4-5.67,6.37a8.72,8.72,0,0,0-.57,5.24,9.17,9.17,0,0,0,2.55,4.82,15.86,15.86,0,0,1-5.95.85,58.38,58.38,0,0,1-9.92-1.13q-6.23-1.13-17-4.25t-15-8.64a20.37,20.37,0,0,1-4.53-11.62,23.57,23.57,0,0,1,2.41-11.62,28.54,28.54,0,0,1,6.09-8.64q-1.42,7.37-.42,11.62a20.78,20.78,0,0,0,2.69,6.8,10.24,10.24,0,0,0,4.82,4.25,28.14,28.14,0,0,0,2-4.53,46.83,46.83,0,0,0,1.56-6.66,86.24,86.24,0,0,0,1-10.34,32.51,32.51,0,0,0-.71-9.77,18,18,0,0,0-2.41-5.52,6.08,6.08,0,0,0-3.4-2.83A6.08,6.08,0,0,0,858.1,502a26.45,26.45,0,0,1,4-3.12,54.61,54.61,0,0,1-11.33-9.63,33.8,33.8,0,0,1-7.37-13.88,81,81,0,0,0,17,9.21,35.5,35.5,0,0,0,12.89,2.55,19.44,19.44,0,0,0,9.07-2.12,16.33,16.33,0,0,0,5.38-4.53,10.71,10.71,0,0,0,2.12-5C890,473.91,889.73,472.82,889,472.25Z"/><path class="cls-6" d="M846.86,614.34a111.85,111.85,0,0,0,10.77-7.65,173.46,173.46,0,0,0,13.74-12.61q8.08-8.07,19.41-20.82,9.91-11.33,14.59-20.82a93.79,93.79,0,0,0,6.52-16.29,51.54,51.54,0,0,0,2-10.34q.14-3.54,1.56-3.54c.75,0,1.13.76,1.13,2.27s0,3.17.14,5a28.69,28.69,0,0,0,.85,5.52,6.28,6.28,0,0,0,3.83,4.25,14.71,14.71,0,0,0,9.21,1.42,12.44,12.44,0,0,0,7.08-3.83,11.92,11.92,0,0,0,2.83-7.93q.14-5-3.26-10.91a30.88,30.88,0,0,0-7.93-9.35,63.9,63.9,0,0,0-8.36-5.24q-4.11-2.12-8.08-4.53a25.22,25.22,0,0,1-7.37-7.23A22.33,22.33,0,0,1,901.4,482a23.29,23.29,0,0,1,.28-8.92,20.24,20.24,0,0,1,3.4-7.37,22.94,22.94,0,0,1,5.24-5.24,11.73,11.73,0,0,1,6.37-2.13,46.93,46.93,0,0,1,7.23.28q3.68.43,7.22.57a10,10,0,0,0,6.09-1.56q2.55-1.41,6.8-7.08T952.26,439q4.81-7.08,9.63-15.3-4.82,13.6-8.5,26.92-3.12,11.33-5.81,23.94a150.48,150.48,0,0,0-3.26,22,22.18,22.18,0,0,0-2.41-9.35,29.17,29.17,0,0,0-6.09-8.64,17.18,17.18,0,0,0-7.65-4.53q-4-1-7.37,2.41-4.82,5.1-3.4,9.07a16.15,16.15,0,0,0,5.24,7.08A50.76,50.76,0,0,0,931,498a28.1,28.1,0,0,1,6.23,4.11q1.41,1.7,6.09,3.83a40.54,40.54,0,0,1,9.35,6.09,31.92,31.92,0,0,1,7.79,10.2q3.11,6.24,1.42,15.87a23.9,23.9,0,0,1-6.8,13.46,36.63,36.63,0,0,1-12.18,7.93,60.81,60.81,0,0,1-13.46,3.68,52.66,52.66,0,0,1-10.91.71q-3.12,0-7.93,3.12a84.81,84.81,0,0,0-10.34,8.07q-5.52,5-11.47,10.77t-11.05,10.91a55.82,55.82,0,0,1-10.06,8.07,98.19,98.19,0,0,1-10.06,5.53A61.84,61.84,0,0,1,846.86,614.34Z"/><path class="cls-3" d="M261.33,587.28q.28.57-4,1.84T246,592q-7.08,1.56-16.29,3.12t-19.55,2.27a192.66,192.66,0,0,1-21,.28,101.77,101.77,0,0,1-20-2.69,226.45,226.45,0,0,0-22.52-4.39,73.36,73.36,0,0,0-12.61-.71A24.54,24.54,0,0,0,127,591.1a21.77,21.77,0,0,1-6.23,1.28,16.47,16.47,0,0,0-.43-8.36,25.4,25.4,0,0,0-3.68-7.08,46,46,0,0,0-5.24-5.95q-2.83-2.69-5.38-5.24a89.71,89.71,0,0,1-7.22-7.65q-4.68-5.38-9.49-11-5.38-6.51-11.9-13.6-.29,9.35-.57,22.1-.29,10.77-.43,26.49t-.14,35.56a111.58,111.58,0,0,0-6.23-21.11A61.39,61.39,0,0,0,61.74,582a47.43,47.43,0,0,0-10.06-9.49,72,72,0,0,0-11-6.23A42.44,42.44,0,0,0,50,558.95a37.87,37.87,0,0,0,5.67-7.65,34.46,34.46,0,0,0,3.4-8.22q-.29-17.56-.28-32.86,0-6.51-.14-13.17t-.14-12.61V466.3q-2.55-3.4-5-3.68a6.36,6.36,0,0,0-4.82,1.7,38.88,38.88,0,0,0-5.1,5.24q-2.7,3.26-6.09,6.94a34.36,34.36,0,0,1,3.68-10.77,31.41,31.41,0,0,1,6.09-7.79,37.75,37.75,0,0,1,7.79-5.53,86,86,0,0,1,8.5-4,82.93,82.93,0,0,0,18.84-11.62A94.36,94.36,0,0,0,99,420.41,31.35,31.35,0,0,1,95.17,431a80.7,80.7,0,0,1-6.37,9.63A77.63,77.63,0,0,1,82.42,448q-3,3-3.83,3.26a2.53,2.53,0,0,0-1.42,1.56q-.29,1-.57,2.13a11.83,11.83,0,0,0-.28,2.83q.28,9.92.57,19.27.28,7.94.43,16.43t.14,13.88q2.55-1.7,8.92-6.66T99.56,490.1q6.8-5.66,12-10.48a67,67,0,0,0,5.81-5.67c.38-.57-.14-1.18-1.56-1.84a44.22,44.22,0,0,0-4.67-1.84,35.91,35.91,0,0,0-7.08-1.7q6.23-1.7,12.47-3.12,5.1-1.41,10.77-2.83t9.63-2.83a33.53,33.53,0,0,0,7.08-3.12q3.4-2,7.22-4.53t8.64-5.95q4.81-3.4,11.62-7.37a258.8,258.8,0,0,1-20,23.09q-10.63,10.91-22,20.68T106.92,501q-11.33,8.65-22.38,16.57,14.45,17,24.79,27.2a158.28,158.28,0,0,0,19.12,16.43,100.24,100.24,0,0,0,17.42,10.06q8.64,3.82,19.69,8.07a84.87,84.87,0,0,0,17.28,4.39q9.91,1.56,20.54,2.27t21,.85q10.34.15,18.56.14h13.17Q261,587,261.33,587.28Z"/><path class="cls-3" d="M150.22,568.11q-.57-.85-3.68-1.7a31,31,0,0,1-7.08-3.12q-4-2.27-3.68-4.68a10.61,10.61,0,0,0-1.13-5.52,9.93,9.93,0,0,0-3.4-4.39q-2-1.28-2-6.09,1.7.85,4-.85a7.33,7.33,0,0,0,1.7-1.7q-.29-8.21-.28-15.58V504.93c0-1.32-.57-2-1.7-2a9.18,9.18,0,0,0-4,1.13,32.15,32.15,0,0,0-5.67,3.4,4.38,4.38,0,0,1,.28-3.4q1.13-3.68,6.52-8.78,2.83-2.83,5-4.68a44.79,44.79,0,0,0,3.68-3.54q1.55-1.7,3.12-3.54t3.54-4.67q2-2.83,3.4-4.53t2.55-2.83a14,14,0,0,1,2-1.7q-.29,17.28-.28,32,0,6.24-.14,12.47t-.14,11.62v14.73a8.08,8.08,0,0,1,2.55,3.4,6.79,6.79,0,0,1-.28,4.25q-5.67,1.42-7.08,4.82a12.13,12.13,0,0,0-.85,6.8,20,20,0,0,0,2,6.09Q150.5,568.68,150.22,568.11Z"/><path class="cls-3" d="M222.68,476.1q1.41-2.83,5.81-4.53a33.07,33.07,0,0,1,8.07-2.13q3.68-.43,4.82.14t-3.4,1.7A16.55,16.55,0,0,0,230.9,475a13,13,0,0,0-3.12,4.53,9,9,0,0,0-.57,5.38q.28,12.75.57,24.36.28,9.92.43,20.82t.14,18q1.7,8.5.71,12.61a17.46,17.46,0,0,1-5,8.07,30.93,30.93,0,0,0-1.56-5.52,4,4,0,0,0-2-2.12,9.92,9.92,0,0,0-3.26-.71,15.7,15.7,0,0,1-5.1-1.56,10,10,0,0,1-4.53-3.68,11.06,11.06,0,0,1-1.7-4.53,11.52,11.52,0,0,1,.28-5.67,4.24,4.24,0,0,0,1.42,1.7q1.7,1.7,2.83-.28a35.8,35.8,0,0,0-6.66-11.19,127.85,127.85,0,0,0-9.77-10.34q-5.95-5.38-12.75-10.77l-.57,26.63q0,5.1-.14,9.77t-.28,8.5q-.15,3.82-.14,8.08A6.9,6.9,0,0,0,179,565.2l-2.69-3.68a47,47,0,0,0-3.4-4.11,40.07,40.07,0,0,0-3.54-3.4l-6.09-5q-3-2.4-4.11-8.92,3.11,2,3.68.85a1.85,1.85,0,0,0,0-1.42q-.29-6.23-.28-12.47-.29-5.38-.28-11.19V505.85q-5.67-1.7-6.09-3.12a8.35,8.35,0,0,1-.43-2.27c0-.19.19-.24.57-.14s.85.24,1.42.43a4,4,0,0,0,2.13,0,7.47,7.47,0,0,0,3-1.7,5.75,5.75,0,0,0,1.42-6.23,14.39,14.39,0,0,0-2-3.68q3.4-2.83,7.08-5.38a40.45,40.45,0,0,1,7.23-4.11,30.19,30.19,0,0,1,8.36-2.41,20.56,20.56,0,0,0-3.68,5.1,9.7,9.7,0,0,0-.85,3.82,11,11,0,0,0,.57,3.54,9,9,0,0,1,.28,4,50.21,50.21,0,0,1,9.35,6.8q5.1,4.54,9.92,9.35,5.38,5.38,11,11.9V499c0-1.51-.52-2.41-1.56-2.69s-3.45,1.09-7.23,4.11a10.13,10.13,0,0,1,2.83-5.67q2.26-2.26,5.1-4.67t6.09-5.53A28.53,28.53,0,0,0,222.68,476.1Z"/><path class="cls-3" d="M276.74,501.31c-.19,0,0-.33.57-1a14.81,14.81,0,0,0,1.7-2.55,10.56,10.56,0,0,0,1.13-3.68,6.59,6.59,0,0,0-1.13-4.39,7.45,7.45,0,0,0-4.67-3.12,28.66,28.66,0,0,0-7.22-.85,40.54,40.54,0,0,0-7.65.71q-3.69.71-6,1.27a8.39,8.39,0,0,1,2.13,1.7c.47.57.52.85.14.85-.19,0-.24,1.94-.14,5.81s.14,8.07.14,12.61,0,8.74.14,12.61,0,5.81-.14,5.81a16.72,16.72,0,0,0,2.69.71,42.67,42.67,0,0,0,6.66,1,22.6,22.6,0,0,0,6.8-.43,3.86,3.86,0,0,0,3.4-3.54q.56-5.66-2.27-5.67a14.4,14.4,0,0,0-5.95,1.42q-.85-3.11,3.54-7.51a29.66,29.66,0,0,1,8.92-6.37,16.08,16.08,0,0,0,4.39-2.55,43.14,43.14,0,0,0,3.54-3.12q1.7-1.7,3.4-3.68v19q0,7.37-.14,13.74a67.94,67.94,0,0,1-.43,7.79c-.19.95-.38,1.75-.57,2.41a12.54,12.54,0,0,1-.85,2.12c-.38.76-.85,1.66-1.42,2.69s-1.42,2.41-2.55,4.11a9.81,9.81,0,0,0-1.84,4.67,8.76,8.76,0,0,0,.71,4.11,38.57,38.57,0,0,0,2.27,4.39q1.41,2.41,3.12,5.24a28.47,28.47,0,0,1-8.92-5,17,17,0,0,1-4.25-5.53,21.66,21.66,0,0,1-1.7-5.52,25.41,25.41,0,0,0-1.27-5q-3.12-8.5-14.45-6-5.95,1.42-5.67,3.26a30.7,30.7,0,0,0,2.27,6.37q-5.38-.28-7.79-1.84a11.37,11.37,0,0,1-3.68-3.68,16.49,16.49,0,0,1-1.84-4.25,5.46,5.46,0,0,0-2.27-3.26,35.63,35.63,0,0,1-5.95-5.53q-2.84-3.25-1.13-7.79A8.5,8.5,0,0,0,235,526.8a3.44,3.44,0,0,0,1.56.57,1.67,1.67,0,0,0,1.42-.85l.57-26.92a6.49,6.49,0,0,1-3.4-.85,9.12,9.12,0,0,1-2.69-1.7,8.37,8.37,0,0,1-2.12-3.4q5.1-1.41,6.66-3a3.16,3.16,0,0,0,1.13-3.12,5.76,5.76,0,0,0-2.41-3,18.47,18.47,0,0,0-4.25-2.27A37.36,37.36,0,0,1,247.28,473a56.72,56.72,0,0,1,18.27-2.55,42.85,42.85,0,0,1,16,3.4q7.08,3.12,8.78,8.5t0,8.92a15.68,15.68,0,0,1-4.67,5.81,21.26,21.26,0,0,1-5.81,3.26A25.52,25.52,0,0,1,276.74,501.31Z"/><path class="cls-3" d="M310.32,489.82c.19-.19.14.14-.14,1a13.11,13.11,0,0,0-.57,3.12,12,12,0,0,0,.28,3.68A3.83,3.83,0,0,0,312,500.3a7.78,7.78,0,0,1,2.83,2.41,14.25,14.25,0,0,1,1.7,3,12,12,0,0,1,1.13,3.68v39.95a8.44,8.44,0,0,0,4,.28,33.36,33.36,0,0,0,5.81-1.42,41.78,41.78,0,0,0,8.64-4.25,17.16,17.16,0,0,0,7.51-8.22,29.32,29.32,0,0,0,.71-22.24,21.4,21.4,0,0,0-5.38-8.36,90.57,90.57,0,0,0-7.65-5.67,72.43,72.43,0,0,0-9.77-5.38,83,83,0,0,0-12.75-4.53,144.18,144.18,0,0,0-16.86-3.4,93.62,93.62,0,0,1-17.28-4,88.22,88.22,0,0,1-12.18-5.1,90.39,90.39,0,0,1-9.92-6.23q9.92,2,19.55,3.68,8.22,1.42,17.85,3.26t17.28,3q7.65,1.14,17.28,3a69.69,69.69,0,0,1,18.13,6.09,39.14,39.14,0,0,1,14,11.62q5.52,7.37,5,19.83t-5,20.54A45,45,0,0,1,346.16,555a48.64,48.64,0,0,1-12.61,7.79q-6.52,2.7-11,4.39.85-4.53-.28-5.81a3.21,3.21,0,0,0-3.26-.85,16.49,16.49,0,0,0-4.67,1.84,13.47,13.47,0,0,1-4.53,1.7,17.66,17.66,0,0,1-7.37.14,18.34,18.34,0,0,1-7.37-3.83q3.68-.85,5-8.22a93.11,93.11,0,0,0,1.27-15.86,200.69,200.69,0,0,0-1.42-22.38,2.61,2.61,0,0,1-1.7,0,12.7,12.7,0,0,1-1.42-.85,5.83,5.83,0,0,1-1.7-2.27,12.67,12.67,0,0,0,4.67-3.12q1.84-2,3.26-9.35a17,17,0,0,1,2-5.38,6.41,6.41,0,0,1,2.27-2.27,3.31,3.31,0,0,1,2-.43C309.76,490.34,310.13,490.2,310.32,489.82Z"/><path class="cls-3" d="M397.18,561.28q.28.57-1.13-1t-4-4q-2.55-2.4-5.67-5.1t-5.95-4.68a28.84,28.84,0,0,1-10.2-12,42.2,42.2,0,0,1-4-18.84q0-10.76,7.93-20.82t24.65-18.27a33.32,33.32,0,0,0,9.91,6.52,40.55,40.55,0,0,1,9.63,5.67q4.25,3.4,7.51,10.91t3.26,18.56a30.31,30.31,0,0,1-1.84,10.62,38.39,38.39,0,0,1-4.68,8.92,50.15,50.15,0,0,1-6.09,7.08,35.46,35.46,0,0,1-6.09,4.82,70.62,70.62,0,0,0-9.92,7.08Q396.33,560.43,397.18,561.28Zm0-68q-2,0-5.1,2.27a29.52,29.52,0,0,0-5.95,5.95,30.43,30.43,0,0,0-4.53,8.5,21.71,21.71,0,0,0-1,10.2,23.53,23.53,0,0,0,4.82,10.91q4.1,5.52,12.89,10.34,5.1-5.38,9.07-9.77a31.41,31.41,0,0,0,5.81-8.78,17,17,0,0,0,1.13-9.21q-.71-4.81-5-10.77a41.45,41.45,0,0,0-5.53-6.37,17.83,17.83,0,0,0-4-2.83,4.34,4.34,0,0,0-2.27-.57C397.13,493.24,397,493.28,397.18,493.28Z"/><path class="cls-3" d="M489.26,591.95a2.21,2.21,0,0,0-.85.28c-.38.19-.85,0-1.42-.43a11.06,11.06,0,0,1-2.13-3.26,43.28,43.28,0,0,1-2.69-8.22,29.29,29.29,0,0,1-.57-11.47,73.63,73.63,0,0,1,2.69-11.62A89,89,0,0,1,488.69,546q2.55-5.38,4.53-9.92a83.89,83.89,0,0,1,6.37-11.33q4.39-6.8,8.22-14.17a63.65,63.65,0,0,0,5.52-14.45,16.43,16.43,0,0,0-1.7-12.75q-3.4-5.66-8.08-7.65a27.7,27.7,0,0,0-8.92-2.27,29.24,29.24,0,0,0-9.92,1.13v51.28a15.61,15.61,0,0,1-1,5.1q-1,2.84-2.12,5.53t-2.12,4.53c-.66,1.23-1,1.75-1,1.56v-2.27a46.4,46.4,0,0,0-.28-4.67,53.74,53.74,0,0,0-.85-5.38,18.56,18.56,0,0,0-1.42-4.39,8.43,8.43,0,0,0-2.55-3,45.24,45.24,0,0,1-3.68-3.12,39.64,39.64,0,0,1-4.11-4.53,26.29,26.29,0,0,1-3.83-7.51q2.55,4,4.11,2.27t2.27-6.52a97.18,97.18,0,0,0,.85-11.76q.14-6.94-.14-13.46t-1-11.33q-.71-4.81-1.56-5.95a7.76,7.76,0,0,0-3.54-2,33.4,33.4,0,0,0-4.39-.85q-2.83,0-5.67.28,0,22.95.28,44.76v19.41q0,10.06.14,20.12t.14,19.41v17q-7.65-23-25.5-35.42a12.92,12.92,0,0,0,3.68-4.39,35.09,35.09,0,0,0,2.27-5.24,38.73,38.73,0,0,0,1.7-6.23V503.27q0-9.35.28-17.85t.85-10.2a7.36,7.36,0,0,1,2.12-3.12,31.6,31.6,0,0,0,3-3.12,10.08,10.08,0,0,0,2-3.68,7.55,7.55,0,0,0-.57-4.82q-1.13-2.83-8.22-3.26a111,111,0,0,0-17.14.57q-10.05,1-21.11,3.12t-20.4,4.67a104.22,104.22,0,0,1,32.16-15,156.34,156.34,0,0,1,34.71-4.82q18.41-.56,27.91,3.68a26.24,26.24,0,0,1,13.74,14.17,31.26,31.26,0,0,1,17.85-.43,39.19,39.19,0,0,1,14.31,7.51,40.89,40.89,0,0,1,9.63,11.47,27.63,27.63,0,0,1,3.83,11.76Q530.9,504.69,525,518t-21.53,30.31q-7.65,8.5-10.77,16.29a55.1,55.1,0,0,0-3.83,13.88,33.24,33.24,0,0,0,0,9.77Q489.53,591.95,489.26,591.95Z"/><path class="cls-3" d="M532.64,538.46q-.56-29.75,6.52-50.43T558,454a77.09,77.09,0,0,1,26.92-20,108,108,0,0,1,31.31-8.5,123,123,0,0,1,31.73.42,153,153,0,0,1,28.19,6.66A80.92,80.92,0,0,1,697,443q8.21,5.95,9.63,11.62A134,134,0,0,0,676,444a149.61,149.61,0,0,0-32.86-3.82,93.37,93.37,0,0,0-28.33,4q-12.47,4-16.72,12.75a8.76,8.76,0,0,1,3.12,2.83,24.15,24.15,0,0,1,2.27,3.82,15.25,15.25,0,0,1,1.13,3.26c.19.95.09,1.42-.28,1.42q-3.68,0-5.95,4.39a31,31,0,0,0-3,10.91,55.59,55.59,0,0,0,.43,14.17,45,45,0,0,0,4.39,14,30.25,30.25,0,0,0,8.64,10.48q5.38,4.11,13.32,3.54,0,14.17,3.26,21.67t8.92,10.91a28.31,28.31,0,0,0,13.17,3.82q7.5.43,16,.43a34.66,34.66,0,0,0,8.36-1.27,73.53,73.53,0,0,1,9.92-1.84,34.4,34.4,0,0,1,9.35.14,9.18,9.18,0,0,1,6.66,4.39,31.41,31.41,0,0,0-9.63.43,46,46,0,0,0-10.77,3.26,26.06,26.06,0,0,0-8.36,5.67,7.62,7.62,0,0,0-2.12,7.65q-2.27,1.7-8.5.71T645,578.83q-7.23-1.84-13.74-3.54a43.06,43.06,0,0,0-9.07-1.7q-9.64,0-15.44,5.95a27.9,27.9,0,0,0-7.51,13,18.09,18.09,0,0,0,1.42,13q3.11,5.95,11.33,6.23-10.77,2.55-16.29.57a13.94,13.94,0,0,1-7.93-6.37,22,22,0,0,1-2.55-10.2q-.15-5.8.14-11.33a61.69,61.69,0,0,0-.14-9.49q-.43-4-3.54-4.82a41.1,41.1,0,0,1-8.5-3.12,20.46,20.46,0,0,1-6.52-5,14.38,14.38,0,0,1-3.26-7.08,18.5,18.5,0,0,1,1.28-9.49q2.55,6.8,7.37,8.78a13,13,0,0,0,9.77.14,19.89,19.89,0,0,0,8.78-6.8,24.29,24.29,0,0,0,4.68-12.32,32.09,32.09,0,0,1-10.34-9.77q-3.82-5.8-5.24-15.72a12.71,12.71,0,0,1-4.53-2.27,20.93,20.93,0,0,1-4.25-4.39,34.41,34.41,0,0,1-4.25-7.79q10.2-8.78,13.17-17t1-12.75q-2-4.53-7.79-4.39t-13,7.93q-7.22,7.8-14.59,24.51T532.64,538.46Z"/><path class="cls-3" d="M699.85,498.18a21.86,21.86,0,0,0,2.22.33c.74.08,1.11,0,1.11-.11q4-2.43,4.65-4.1a17.54,17.54,0,0,1,2-3.54,17.72,17.72,0,0,1,5.09-4.21q3.76-2.33,13.73-6.09a17,17,0,0,0-6.2,5,18.33,18.33,0,0,0-3.1,6.53l-.22,52.27a17.76,17.76,0,0,0,3.88,4.87,23.73,23.73,0,0,0,7.2,3.54q-5.1,0-10.3.11a13.8,13.8,0,0,1-9-2.77,16.62,16.62,0,0,1-3.65-5.32,21.69,21.69,0,0,1-1.55-6.53,72.91,72.91,0,0,1-.22-8.3q.11-4.65.11-10.41H685.9v73.09a105.54,105.54,0,0,0-4.76-17.39A48.59,48.59,0,0,0,675,563.52a25.46,25.46,0,0,0-7-6.64,18.66,18.66,0,0,0-7.64-2.66,29.73,29.73,0,0,0,7.64-8.42,36,36,0,0,0,3.54-8,18.52,18.52,0,0,0,.89-5.65q-.11-2.1-.33-1.66.22-10.63.44-20.15.22-8.19.33-16.39t.11-12.62a9.08,9.08,0,0,0-3.88-3.32,4.52,4.52,0,0,0-3.76.33,17.24,17.24,0,0,0-4,3.1q-2.11,2.11-4.76,5a21.93,21.93,0,0,1,2.88-8,18.52,18.52,0,0,1,4.76-5.09,28.45,28.45,0,0,1,6.09-3.32L677,467.4a52.15,52.15,0,0,0,14-9.08,89.68,89.68,0,0,0,12.18-12.85,25,25,0,0,1-2.77,8.08,50.13,50.13,0,0,1-4.43,6.87,44.68,44.68,0,0,1-4.43,5,11.74,11.74,0,0,1-2.77,2.21,2.45,2.45,0,0,0-1.22,1.66,21.56,21.56,0,0,1-.77,2.33,22.57,22.57,0,0,0-.66,3.1q-.22,6.87-.22,13.51v22.15h19.71l-.22-6.42a8.54,8.54,0,0,1-3.32-.22l-3.43-1a9.7,9.7,0,0,1-3.65-2.1l-2.66-2c-.59-.44-1.07-.81-1.44-1.11a11.25,11.25,0,0,1-1-.89,19.35,19.35,0,0,1-1.33-1.55,25.65,25.65,0,0,0,3.1,1.11q1.55.45,2.66.89a19.44,19.44,0,0,0,2.44.66Z"/><path class="cls-3" d="M778.15,582.89a45.18,45.18,0,0,0-3.4-15,25.49,25.49,0,0,0-7.51-10.06Q762,553.42,752.94,554q7.65-2.26,9.77-6.52a12.94,12.94,0,0,0,1.13-8.78,24.38,24.38,0,0,0-3.54-8.36,25.93,25.93,0,0,0-4.25-5.24,42.28,42.28,0,0,1-7.37,9.35,63.06,63.06,0,0,0-6.23,6.52,21.48,21.48,0,0,0,3.54,3,7.63,7.63,0,0,0,3.68,1.13,15.05,15.05,0,0,0,4.82-.57q2.69-.71,6.66-2.13l-5.24,3.83a46.2,46.2,0,0,0-3.83,3.12q-1.7,1.56-3.54,3.4t-4.39,4.67a110.83,110.83,0,0,1-12.75-9.07q-4.25-3.68-4.68-7.22t2.83-7.79q3.25-4.25,9.49-11,7.08-7.65,8.08-12.61t-1.42-7.51a9.35,9.35,0,0,0-6.8-2.69,14.27,14.27,0,0,0-7.79,1.84q1.7-1.7,4.53-4.39t8.5-3.26a59.29,59.29,0,0,0,14.59-4.53,26.84,26.84,0,0,0,9.49-7.51,38.28,38.28,0,0,0,5.95-11.19q2.26-6.51,4.53-15.3v14q0,8.36-.14,18.42t-.14,21.11v21.53Q778.15,555.12,778.15,582.89ZM764,512.63V496.19a13.18,13.18,0,0,1-2.55,2q-1.42.57-3,1.13a10.25,10.25,0,0,1-3.54.57Z"/><path class="cls-3" d="M793.3,556.16a5.58,5.58,0,0,0,1-2.55,13.44,13.44,0,0,1,1-3.12,6.24,6.24,0,0,0,.14-3.54q-.42-2.13-3.26-4.39a9.42,9.42,0,0,1-2.55-2.27,11.07,11.07,0,0,1-1.7-2.83,15.57,15.57,0,0,1-1.42-3.12v-39.1a4.09,4.09,0,0,1,1.42-3.4,47.27,47.27,0,0,0,3.68-3.4q4.81-5.95,4-7.65t-4-1.13a49.4,49.4,0,0,0-9.63,3.12,32.62,32.62,0,0,0,2.83-3.4A18.07,18.07,0,0,1,790,475a40.2,40.2,0,0,1,9.49-3.82,66.74,66.74,0,0,1,15.87-2q11.33-.28,17.28,2.13t7.65,6.09a10.72,10.72,0,0,1,.14,8.22,26,26,0,0,1-5,8.5,18.89,18.89,0,0,1,5.81,5.38q2.12,3.12,2.13,9.63,0,3.4-2.69,8.5t-5.95,10.62a101.15,101.15,0,0,0-5.67,11q-2.41,5.52-1.56,9.49a12.43,12.43,0,0,0,3.26,6.37,19.55,19.55,0,0,0,6.66,4.11,77.49,77.49,0,0,0,10.91,3.26q6.65,1.56,16,4.11Q850,570,840.48,568.2t-15.3-5.81a28.79,28.79,0,0,1-8.64-8.64,54.42,54.42,0,0,1-4-7.51,14.07,14.07,0,0,1-.85-6.66,47.87,47.87,0,0,1,3.68-15.3,44.49,44.49,0,0,1,2.27-4.67,4.15,4.15,0,0,0,1.27-2.55,7.57,7.57,0,0,0-.14-2.55,9.84,9.84,0,0,0-1.13-2.55,20.2,20.2,0,0,0,6.8,0,7,7,0,0,0,3.26-1.56q1-1-1.84-4.11a10.07,10.07,0,0,0-5.67-3.4,13.27,13.27,0,0,0-6.09.28,23,23,0,0,0-5.38,2.27,40.8,40.8,0,0,0-3.54,2.27q-1.14.57-1.42,3.4a45.27,45.27,0,0,0-.14,6.37q.14,3.55.28,6.94a31.34,31.34,0,0,1-.14,5.38,5.59,5.59,0,0,0,0,2.55,7,7,0,0,0,.85,1.7q.57.85,1.28,2.12a15.16,15.16,0,0,1,1.28,3.83q.56,2.55-1.7,5.38a45.81,45.81,0,0,1-5.1,5.38,42.56,42.56,0,0,1-5.24,4.11Q792.73,556.44,793.3,556.16Zm21-63.75a30.78,30.78,0,0,1,4-.43,14.66,14.66,0,0,0,4.68-1,5.61,5.61,0,0,0,3.12-3.12q1-2.27-1-6.52a6.58,6.58,0,0,0-4.53-3.26A16.84,16.84,0,0,0,814,478q-4,.57-8.78,1.7l-.57,15.58Z"/><path class="cls-3" d="M889,472.25c-.38-.19-.24-.28.43-.28a10.14,10.14,0,0,1,2.55.43,9.74,9.74,0,0,1,3.12,1.56,5.68,5.68,0,0,1,2.12,3.12q.57,2,.85,2.12a.58.58,0,0,1,.28.57,12.81,12.81,0,0,1-.28,1.84,53,53,0,0,0-.57,5.67,9.81,9.81,0,0,1-4,6.8,27.8,27.8,0,0,1-7.37,4,57,57,0,0,1-10.48,2l5.67,50.43a12.2,12.2,0,0,0,4.82.85,47.27,47.27,0,0,0,5.67-.43,27.62,27.62,0,0,0,7.37-2.13q-4.54,3.4-5.67,6.37a8.72,8.72,0,0,0-.57,5.24,9.17,9.17,0,0,0,2.55,4.82,15.86,15.86,0,0,1-5.95.85,58.38,58.38,0,0,1-9.92-1.13q-6.23-1.13-17-4.25t-15-8.64a20.37,20.37,0,0,1-4.53-11.62,23.57,23.57,0,0,1,2.41-11.62,28.54,28.54,0,0,1,6.09-8.64q-1.42,7.37-.42,11.62a20.78,20.78,0,0,0,2.69,6.8,10.24,10.24,0,0,0,4.82,4.25,28.14,28.14,0,0,0,2-4.53,46.83,46.83,0,0,0,1.56-6.66,86.24,86.24,0,0,0,1-10.34,32.51,32.51,0,0,0-.71-9.77,18,18,0,0,0-2.41-5.52,6.08,6.08,0,0,0-3.4-2.83A6.08,6.08,0,0,0,858.1,502a26.45,26.45,0,0,1,4-3.12,54.61,54.61,0,0,1-11.33-9.63,33.8,33.8,0,0,1-7.37-13.88,81,81,0,0,0,17,9.21,35.5,35.5,0,0,0,12.89,2.55,19.44,19.44,0,0,0,9.07-2.12,16.33,16.33,0,0,0,5.38-4.53,10.71,10.71,0,0,0,2.12-5C890,473.91,889.73,472.82,889,472.25Z"/><path class="cls-3" d="M846.86,614.34a111.85,111.85,0,0,0,10.77-7.65,173.46,173.46,0,0,0,13.74-12.61q8.08-8.07,19.41-20.82,9.91-11.33,14.59-20.82a93.79,93.79,0,0,0,6.52-16.29,51.54,51.54,0,0,0,2-10.34q.14-3.54,1.56-3.54c.75,0,1.13.76,1.13,2.27s0,3.17.14,5a28.69,28.69,0,0,0,.85,5.52,6.28,6.28,0,0,0,3.83,4.25,14.71,14.71,0,0,0,9.21,1.42,12.44,12.44,0,0,0,7.08-3.83,11.92,11.92,0,0,0,2.83-7.93q.14-5-3.26-10.91a30.88,30.88,0,0,0-7.93-9.35,63.9,63.9,0,0,0-8.36-5.24q-4.11-2.12-8.08-4.53a25.22,25.22,0,0,1-7.37-7.23A22.33,22.33,0,0,1,901.4,482a23.29,23.29,0,0,1,.28-8.92,20.24,20.24,0,0,1,3.4-7.37,22.94,22.94,0,0,1,5.24-5.24,11.73,11.73,0,0,1,6.37-2.13,46.93,46.93,0,0,1,7.23.28q3.68.43,7.22.57a10,10,0,0,0,6.09-1.56q2.55-1.41,6.8-7.08T952.26,439q4.81-7.08,9.63-15.3-4.82,13.6-8.5,26.92-3.12,11.33-5.81,23.94a150.48,150.48,0,0,0-3.26,22,22.18,22.18,0,0,0-2.41-9.35,29.17,29.17,0,0,0-6.09-8.64,17.18,17.18,0,0,0-7.65-4.53q-4-1-7.37,2.41-4.82,5.1-3.4,9.07a16.15,16.15,0,0,0,5.24,7.08A50.76,50.76,0,0,0,931,498a28.1,28.1,0,0,1,6.23,4.11q1.41,1.7,6.09,3.83a40.54,40.54,0,0,1,9.35,6.09,31.92,31.92,0,0,1,7.79,10.2q3.11,6.24,1.42,15.87a23.9,23.9,0,0,1-6.8,13.46,36.63,36.63,0,0,1-12.18,7.93,60.81,60.81,0,0,1-13.46,3.68,52.66,52.66,0,0,1-10.91.71q-3.12,0-7.93,3.12a84.81,84.81,0,0,0-10.34,8.07q-5.52,5-11.47,10.77t-11.05,10.91a55.82,55.82,0,0,1-10.06,8.07,98.19,98.19,0,0,1-10.06,5.53A61.84,61.84,0,0,1,846.86,614.34Z"/><path class="cls-1" d="M742.53,71.17l-4.23,2.49c-.16.1-16.6,9.75-27.92,13.36l-1.78.57L709.8,89a7.44,7.44,0,1,1-11.49,0l1.19-1.45L697.71,87C686.4,83.42,670,73.76,669.79,73.66l-4.23-2.49,2.49,4.23c.1.16,9.76,16.61,13.36,27.92l.57,1.78,1.45-1.19a7.44,7.44,0,1,1,0,11.49L682,114.21l-.57,1.78c-3.6,11.31-13.26,27.75-13.36,27.92l-2.49,4.23.78-.46-.46.78,4.23-2.49c.16-.1,16.6-9.75,27.92-13.36l1.78-.57-1.19-1.45a7.44,7.44,0,1,1,11.49,0L708.92,132l1.78.57c11.31,3.6,27.75,13.26,27.92,13.36l4.23,2.49-2.49-4.23c-.1-.16-9.76-16.61-13.36-27.92l-.57-1.78L725,115.72a7.44,7.44,0,1,1,0-11.49l1.45,1.19.57-1.78c3.6-11.31,13.26-27.75,13.36-27.92l2.49-4.23-.78.46Z"/><path class="cls-1" d="M859.56,618.66l-4.23,2.49c-.16.1-16.6,9.75-27.92,13.36l-1.78.57,1.19,1.45a7.44,7.44,0,1,1-11.49,0l1.19-1.45-1.78-.57c-11.31-3.6-27.75-13.26-27.92-13.36l-4.23-2.49,2.49,4.23c.1.16,9.76,16.61,13.36,27.92l.57,1.78,1.45-1.19a7.44,7.44,0,1,1,0,11.49L799,661.7l-.57,1.78c-3.6,11.31-13.26,27.75-13.36,27.92l-2.49,4.23.78-.46-.46.78,4.23-2.49c.16-.1,16.6-9.75,27.92-13.36l1.78-.57-1.19-1.45a7.44,7.44,0,1,1,11.49,0L826,679.53l1.78.57c11.31,3.6,27.75,13.26,27.92,13.36l4.23,2.49-2.49-4.23c-.1-.16-9.76-16.61-13.36-27.92l-.57-1.78L842,663.22a7.44,7.44,0,1,1,0-11.49l1.45,1.19.57-1.78c3.6-11.31,13.26-27.75,13.36-27.92l2.49-4.23-.78.46Z"/><path class="cls-1" d="M234.18,346.85,230,349.34c-.16.1-16.6,9.75-27.92,13.36l-1.78.57,1.19,1.45a7.44,7.44,0,1,1-11.49,0l1.19-1.45-1.78-.57c-11.31-3.6-27.75-13.26-27.92-13.36l-4.23-2.49,2.49,4.23c.1.16,9.76,16.61,13.36,27.92l.57,1.78,1.45-1.19a7.44,7.44,0,1,1,0,11.49l-1.45-1.19-.57,1.78c-3.6,11.31-13.26,27.75-13.36,27.92l-2.49,4.23.78-.46-.46.78,4.23-2.49c.16-.1,16.6-9.75,27.92-13.36l1.78-.57-1.19-1.45a7.44,7.44,0,1,1,11.49,0l-1.19,1.45,1.78.57c11.31,3.6,27.75,13.26,27.92,13.36l4.23,2.49L232,419.91c-.1-.16-9.76-16.61-13.36-27.92l-.57-1.78-1.45,1.19a7.44,7.44,0,1,1,0-11.49l1.45,1.19.57-1.78c3.6-11.31,13.26-27.75,13.36-27.92l2.49-4.23-.78.46Z"/><path class="cls-1" d="M589.07,803l-4.23,2.49c-.16.1-16.6,9.75-27.92,13.36l-1.78.57,1.19,1.45a7.44,7.44,0,1,1-11.49,0l1.19-1.45-1.78-.57c-11.31-3.6-27.75-13.26-27.92-13.36L512.1,803l2.49,4.23c.1.16,9.76,16.61,13.36,27.92l.57,1.78,1.45-1.19a7.44,7.44,0,1,1,0,11.49l-1.45-1.19-.57,1.78c-3.6,11.31-13.26,27.75-13.36,27.92L512.1,880l.78-.46-.46.78,4.23-2.49c.16-.1,16.6-9.75,27.92-13.36l1.78-.57-1.19-1.45a7.44,7.44,0,1,1,11.49,0l-1.19,1.45,1.78.57c11.31,3.6,27.75,13.26,27.92,13.36l4.23,2.49-2.49-4.23c-.1-.16-9.76-16.61-13.36-27.92l-.57-1.78-1.45,1.19a7.44,7.44,0,1,1,0-11.49l1.45,1.19.57-1.78c3.6-11.31,13.26-27.75,13.36-27.92l2.49-4.23-.78.46Z"/><path class="cls-1" d="M986.54,150.06l-4.23,2.49c-.16.1-16.6,9.75-27.92,13.36l-1.78.57,1.19,1.45a7.44,7.44,0,1,1-11.49,0l1.19-1.45-1.78-.57c-11.31-3.6-27.75-13.26-27.92-13.36l-4.23-2.49,2.49,4.23c.1.16,9.76,16.61,13.36,27.92L926,184l1.45-1.19a7.44,7.44,0,1,1,0,11.49L926,193.1l-.57,1.78c-3.6,11.31-13.26,27.75-13.36,27.92L909.57,227l.78-.46-.46.78,4.23-2.49c.16-.1,16.6-9.75,27.92-13.36l1.78-.57-1.19-1.45a7.44,7.44,0,1,1,11.49,0l-1.19,1.45,1.78.57c11.31,3.6,27.75,13.26,27.92,13.36l4.23,2.49-2.49-4.23c-.1-.16-9.76-16.61-13.36-27.92l-.57-1.78L969,194.61a7.44,7.44,0,1,1,0-11.49l1.45,1.19.57-1.78c3.6-11.31,13.26-27.75,13.36-27.92l2.49-4.23-.78.46Z"/><path class="cls-1" d="M393.05,620.14l-4.23,2.49c-.16.1-16.6,9.75-27.92,13.36l-1.78.57,1.19,1.45a7.44,7.44,0,1,1-11.49,0l1.19-1.45-1.78-.57c-11.31-3.6-27.75-13.26-27.92-13.36l-4.23-2.49,2.49,4.23c.1.16,9.76,16.61,13.36,27.92l.57,1.78,1.45-1.19a7.44,7.44,0,1,1,0,11.49l-1.45-1.19-.57,1.78c-3.6,11.31-13.26,27.75-13.36,27.92l-2.49,4.23.78-.46-.46.78,4.23-2.49c.16-.1,16.6-9.75,27.92-13.36l1.78-.57-1.19-1.45a7.44,7.44,0,1,1,11.49,0L359.44,681l1.78.57c11.31,3.6,27.75,13.26,27.92,13.36l4.23,2.49-2.49-4.23c-.1-.16-9.76-16.61-13.36-27.92L377,663.5l-1.45,1.19a7.44,7.44,0,1,1,0-11.49l1.45,1.19.57-1.78c3.6-11.31,13.26-27.75,13.36-27.92l2.49-4.23-.78.46Z"/></svg>