<svg id="Layer_1" data-name="Layer 1" xmlns="http://www.w3.org/2000/svg" viewBox="0 0 1000 1000"><defs><style>.cls-1,.cls-10,.cls-2,.cls-6,.cls-8,.cls-9{fill:#fff;}.cls-1,.cls-3,.cls-4,.cls-5{stroke:#231f20;}.cls-1,.cls-10,.cls-3,.cls-4,.cls-5,.cls-6,.cls-7,.cls-8,.cls-9{stroke-miterlimit:10;}.cls-1,.cls-10{stroke-width:8px;}.cls-3{stroke-width:7px;}.cls-4{stroke-width:5.91px;}.cls-5{stroke-width:4.93px;}.cls-6,.cls-7{stroke:#fff;stroke-width:2px;}.cls-7{fill:#010101;}.cls-10,.cls-8,.cls-9{stroke:#000;}.cls-8{stroke-width:6.41px;}.cls-9{stroke-width:6px;}.cls-11{fill:#231f20;}</style></defs><title>land of odds</title><line class="cls-1" x1="985.35" y1="666.56" x2="868.63" y2="728.27"/><path class="cls-1" d="M254.22,578.77c-37.39-8.3-69.74,2.12-104.55,15.29-14,5.28-29,12.93-44.19,13.18-32.15.54-66.89-17.92-96.77-27.66A810.37,810.37,0,0,0,72.84,665c-10.94,23-16.76,48.52-28.52,71,79,9.31,145.84-62.8,226.29-45.2Q262.42,634.75,254.22,578.77Z"/><circle class="cls-2" cx="517.72" cy="483.3" r="425.6"/><path d="M517.72,42.57C274.69,42.57,77,240.28,77,483.3S274.69,924,517.72,924,958.45,726.33,958.45,483.3,760.74,42.57,517.72,42.57ZM792.15,705.84,758.6,677.7l-6.73,8,33.52,28.12a355.9,355.9,0,0,1-85.77,72.47l-22-38.08-9.07,5.24,22,38.07a350.92,350.92,0,0,1-105.47,38.78l-7.69-43.53-10.31,1.82,7.7,43.56a352,352,0,0,1-112.45.3l7.7-43.72-10.31-1.82L452,830.61a351,351,0,0,1-105.75-38.29l22.19-38.47-9.07-5.24-22.19,38.48a356.09,356.09,0,0,1-86.24-72.22l34-28.55-6.73-8-34.08,28.61a353.67,353.67,0,0,1-56.52-97.3l42-15.29L226,584.49l-42,15.3a351.65,351.65,0,0,1-19.67-110.83H209V478.47H164.32a351.65,351.65,0,0,1,19.43-110.89l42,15.26L229.3,373l-42-15.26a353.68,353.68,0,0,1,56.32-97.42l34.08,28.58,6.73-8-34-28.53a356.07,356.07,0,0,1,86.06-72.42l22.21,38.47,9.07-5.24-22.21-38.46a351,351,0,0,1,105.65-38.55l7.71,43.68L469.22,178l-7.71-43.71a352,352,0,0,1,112.43,0l-7.67,43.55,10.31,1.81,7.66-43.52a350.9,350.9,0,0,1,105.56,38.51l-22,38.08,9.07,5.24,22-38.09a356.06,356.06,0,0,1,86,72.26l-33.49,28.12,6.73,8,33.54-28.16a353.53,353.53,0,0,1,56.3,97.14l-41.19,15,3.58,9.84,41.2-15a351.77,351.77,0,0,1,19.58,110.56l-43.79,0v10.47l43.8,0a351.65,351.65,0,0,1-19.32,110.6l-41.2-15L807,593.58l41.22,15A353.56,353.56,0,0,1,792.15,705.84ZM387.36,828.7l-15.49,42.6a414.58,414.58,0,0,1-115.82-66.74l29.12-34.72A369.42,369.42,0,0,0,387.36,828.7Zm9.85,3.54a367.37,367.37,0,0,0,116.16,20.18l0,45.33a412.41,412.41,0,0,1-131.67-22.92Zm126.64,20.14a367.32,367.32,0,0,0,116-20.71l15.52,42.59A412.35,412.35,0,0,1,523.87,897.7ZM649.7,828.05a369.41,369.41,0,0,0,101.82-59.22l29.14,34.7a414.69,414.69,0,0,1-115.45,67.1ZM103.16,483.3a415.19,415.19,0,0,1,5.39-66.41l44.63,7.85a367.11,367.11,0,0,0,.16,118l-44.62,7.88A415.59,415.59,0,0,1,103.16,483.3ZM155,414.44l-44.63-7.86a411.37,411.37,0,0,1,45.73-125.69l39.24,22.64A366.46,366.46,0,0,0,155,414.44Zm.16,138.65a366.33,366.33,0,0,0,40.65,110.79l-39.23,22.66a411.46,411.46,0,0,1-46-125.57ZM648.81,138.2l15.5-42.6a414.76,414.76,0,0,1,115.58,66.85l-29.12,34.72A369.25,369.25,0,0,0,648.81,138.2ZM639,134.63A367.14,367.14,0,0,0,522.91,114.2V68.88A412.38,412.38,0,0,1,654.47,92ZM512.43,114.2a367.4,367.4,0,0,0-116.11,20.47L380.82,92.08a412.44,412.44,0,0,1,131.62-23.2Zm-125.95,24a369.44,369.44,0,0,0-102.05,59.1l-29.14-34.7A414.67,414.67,0,0,1,371,95.66ZM839.8,303.09,879,280.42a411.56,411.56,0,0,1,45.86,125.34l-44.62,7.88A366.49,366.49,0,0,0,839.8,303.09ZM880.43,552l44.63,7.85a411.46,411.46,0,0,1-45.54,125.45l-39.24-22.64A366.19,366.19,0,0,0,880.43,552Zm1.85-10.31A367.26,367.26,0,0,0,882.11,424l44.63-7.89a411.78,411.78,0,0,1,.17,133.49Zm-8.48-270.36L834.58,294a371.84,371.84,0,0,0-75.82-90l29.11-34.71A417.41,417.41,0,0,1,873.81,271.34ZM247.33,169.45l29.13,34.69a371.77,371.77,0,0,0-75.87,90.31l-39.24-22.64A417.47,417.47,0,0,1,247.33,169.45Zm-85.5,526.17L201.06,673a371.82,371.82,0,0,0,76.1,90.11l-29.11,34.71A417.45,417.45,0,0,1,161.83,695.62ZM788.61,796.71,759.47,762a371.83,371.83,0,0,0,75.59-90.25L874.3,694.4A417.52,417.52,0,0,1,788.61,796.71Z"/><path d="M517.72,173.29c-170.94,0-310,139.07-310,310s139.07,310,310,310,310-139.07,310-310S688.66,173.29,517.72,173.29ZM426,726.26l-10.9,30a291.62,291.62,0,0,1-81.47-46.95l20.48-24.42A259.85,259.85,0,0,0,426,726.26Zm6.93,2.49a258.41,258.41,0,0,0,81.71,14.2v31.88a290.09,290.09,0,0,1-92.62-16.12ZM522,742.91a258.37,258.37,0,0,0,81.61-14.56l10.91,30A290,290,0,0,1,522,774.79Zm88.52-17.11a259.84,259.84,0,0,0,71.62-41.65l20.5,24.41a291.69,291.69,0,0,1-81.21,47.2ZM226.12,483.3a292,292,0,0,1,3.79-46.71l31.39,5.52a258.22,258.22,0,0,0,.11,83L230,530.69A292.33,292.33,0,0,1,226.12,483.3Zm36.48-48.44-31.39-5.53a289.36,289.36,0,0,1,32.17-88.41L291,356.85A257.77,257.77,0,0,0,262.6,434.86Zm.12,97.53a257.68,257.68,0,0,0,28.59,77.93l-27.6,15.94a289.42,289.42,0,0,1-32.38-88.33ZM609.93,240.56l10.9-30a291.74,291.74,0,0,1,81.3,47L681.65,282A259.73,259.73,0,0,0,609.93,240.56ZM603,238a258.24,258.24,0,0,0-81.64-14.37V191.8a290.07,290.07,0,0,1,92.54,16.28Zm-89-14.37a258.43,258.43,0,0,0-81.67,14.4l-10.91-30A290.11,290.11,0,0,1,514,191.8Zm-88.59,16.92a259.87,259.87,0,0,0-71.79,41.57l-20.5-24.41a291.68,291.68,0,0,1,81.37-47.12ZM744.27,356.54l27.59-15.94a289.49,289.49,0,0,1,32.26,88.17l-31.39,5.54A257.79,257.79,0,0,0,744.27,356.54Zm28.58,175.1,31.39,5.52a289.42,289.42,0,0,1-32,88.24l-27.6-15.92A257.58,257.58,0,0,0,772.85,531.64Zm1.3-7.26a258.33,258.33,0,0,0-.12-82.83L805.42,436a289.65,289.65,0,0,1,.12,93.9Zm-6-190.17L740.6,350.15a261.56,261.56,0,0,0-53.33-63.34l20.47-24.41A293.61,293.61,0,0,1,768.19,334.21ZM327.53,262.54,348,286.94a261.5,261.5,0,0,0-53.37,63.52l-27.6-15.92A293.65,293.65,0,0,1,327.53,262.54ZM267.39,632.65,295,616.71a261.54,261.54,0,0,0,53.53,63.38L328,704.5A293.64,293.64,0,0,1,267.39,632.65Zm440.87,71.11-20.49-24.4a261.55,261.55,0,0,0,53.17-63.48l27.6,15.92A293.68,293.68,0,0,1,708.26,703.76Z"/><path class="cls-3" d="M463.13,80.27a3.88,3.88,0,1,1-4.54-3.09,3.88,3.88,0,0,1,4.54,3.09Zm0,0"/><path class="cls-3" d="M468.64,109.26a3.88,3.88,0,1,1-4.54-3.08,3.88,3.88,0,0,1,4.54,3.08Zm0,0"/><path class="cls-3" d="M439.52,114.79a3.88,3.88,0,1,1-4.54-3.08,3.88,3.88,0,0,1,4.54,3.08Zm0,0"/><path class="cls-3" d="M434,85.8a3.88,3.88,0,1,1-4.54-3.09A3.88,3.88,0,0,1,434,85.8Zm0,0"/><path class="cls-3" d="M451.33,97.53a3.88,3.88,0,1,1-4.54-3.09,3.88,3.88,0,0,1,4.54,3.09Zm0,0"/><path class="cls-3" d="M733.13,158.23a3.88,3.88,0,1,1-3.88-3.88,3.88,3.88,0,0,1,3.88,3.88Zm0,0"/><path class="cls-3" d="M718.31,143.47a3.88,3.88,0,1,1-3.88-3.88,3.88,3.88,0,0,1,3.88,3.88Zm0,0"/><path class="cls-3" d="M703.49,128.72a3.88,3.88,0,1,1-3.88-3.88,3.88,3.88,0,0,1,3.88,3.88Zm0,0"/><path class="cls-3" d="M585.73,97.53a3.88,3.88,0,1,1-3.88-3.88,3.88,3.88,0,0,1,3.88,3.88Zm0,0"/><path class="cls-3" d="M324.68,145.22a3.88,3.88,0,1,1-3.88-3.88,3.88,3.88,0,0,1,3.88,3.88Zm0,0"/><path class="cls-3" d="M151.26,357.66a3.88,3.88,0,1,1-3.88-3.88,3.88,3.88,0,0,1,3.88,3.88Zm0,0"/><path class="cls-3" d="M914.31,486.28a3.88,3.88,0,1,1-3.88-3.88,3.88,3.88,0,0,1,3.88,3.88Zm0,0"/><path class="cls-3" d="M825.63,733.41a3.88,3.88,0,1,1-3.88-3.88,3.88,3.88,0,0,1,3.88,3.88Zm0,0"/><path class="cls-3" d="M451.86,870.7a3.88,3.88,0,1,1-3.88-3.88,3.88,3.88,0,0,1,3.88,3.88Zm0,0"/><path class="cls-3" d="M220,734.8a3.88,3.88,0,1,1-3.88-3.88A3.88,3.88,0,0,1,220,734.8Zm0,0"/><path class="cls-3" d="M888,377a3.88,3.88,0,1,1,.18-5.48A3.88,3.88,0,0,1,888,377Zm0,0"/><path class="cls-3" d="M888.66,356.12a3.88,3.88,0,1,1,.18-5.48,3.88,3.88,0,0,1-.18,5.48Zm0,0"/><path class="cls-3" d="M889.3,335.22a3.88,3.88,0,1,1,.18-5.49,3.88,3.88,0,0,1-.18,5.49Zm0,0"/><path class="cls-3" d="M870.68,631.26a3.88,3.88,0,1,1,4.14-3.61,3.88,3.88,0,0,1-4.14,3.61Zm0,0"/><path class="cls-3" d="M886.41,617.48a3.88,3.88,0,1,1,4.14-3.61,3.88,3.88,0,0,1-4.14,3.61Zm0,0"/><path class="cls-3" d="M902.14,603.71a3.88,3.88,0,1,1,4.14-3.61,3.88,3.88,0,0,1-4.14,3.61Zm0,0"/><path class="cls-3" d="M565.69,862.31A3.88,3.88,0,1,1,570.9,864a3.88,3.88,0,0,1-5.21-1.71Zm0,0"/><path class="cls-3" d="M585.57,868.79a3.88,3.88,0,1,1,5.21,1.71,3.88,3.88,0,0,1-5.21-1.71Zm0,0"/><path class="cls-3" d="M605.45,875.27a3.88,3.88,0,1,1,5.21,1.71,3.88,3.88,0,0,1-5.21-1.71Zm0,0"/><path class="cls-3" d="M154.27,593.34a3.88,3.88,0,1,1-1.16,5.36,3.88,3.88,0,0,1,1.16-5.36Zm0,0"/><path class="cls-3" d="M149.88,613.79a3.88,3.88,0,1,1-1.16,5.36,3.88,3.88,0,0,1,1.16-5.36Zm0,0"/><path class="cls-3" d="M145.5,634.24a3.88,3.88,0,1,1-1.16,5.36,3.88,3.88,0,0,1,1.16-5.36Zm0,0"/><path class="cls-3" d="M237.35,223.08a3.88,3.88,0,1,1-5.28,1.49,3.88,3.88,0,0,1,5.28-1.49Zm0,0"/><path class="cls-3" d="M217.24,228.82a3.88,3.88,0,1,1-5.28,1.49,3.88,3.88,0,0,1,5.28-1.49Zm0,0"/><path class="cls-3" d="M197.13,234.55a3.88,3.88,0,1,1-5.28,1.49,3.88,3.88,0,0,1,5.28-1.49Zm0,0"/><path class="cls-3" d="M822.44,209.1a3.88,3.88,0,1,1-5.46-.56,3.88,3.88,0,0,1,5.46.56Zm0,0"/><path class="cls-3" d="M841.06,232a3.88,3.88,0,1,1-5.46-.56,3.88,3.88,0,0,1,5.46.56Zm0,0"/><path class="cls-3" d="M818.07,250.7a3.88,3.88,0,1,1-5.46-.56,3.88,3.88,0,0,1,5.46.56Zm0,0"/><path class="cls-3" d="M799.45,227.81a3.88,3.88,0,1,1-5.46-.56,3.88,3.88,0,0,1,5.46.56Zm0,0"/><path class="cls-3" d="M820.25,229.9a3.88,3.88,0,1,1-5.46-.56,3.88,3.88,0,0,1,5.46.56Zm0,0"/><path class="cls-3" d="M144.36,468a3.88,3.88,0,1,1-3.89-3.87,3.88,3.88,0,0,1,3.89,3.87Zm0,0"/><path class="cls-3" d="M144.42,497.5a3.88,3.88,0,1,1-3.89-3.87,3.88,3.88,0,0,1,3.89,3.87Zm0,0"/><path class="cls-3" d="M114.78,497.56a3.88,3.88,0,1,1-3.89-3.87,3.88,3.88,0,0,1,3.89,3.87Zm0,0"/><path class="cls-3" d="M114.72,468.05a3.88,3.88,0,1,1-3.89-3.87,3.88,3.88,0,0,1,3.89,3.87Zm0,0"/><path class="cls-3" d="M129.57,482.77a3.88,3.88,0,1,1-3.89-3.87,3.88,3.88,0,0,1,3.89,3.87Zm0,0"/><path class="cls-3" d="M347.61,819.89a3.88,3.88,0,1,1-1.44-5.3,3.88,3.88,0,0,1,1.44,5.3Zm0,0"/><path class="cls-3" d="M332.94,845.49a3.88,3.88,0,1,1-1.44-5.29,3.88,3.88,0,0,1,1.44,5.29Zm0,0"/><path class="cls-3" d="M307.22,830.76a3.88,3.88,0,1,1-1.44-5.29,3.88,3.88,0,0,1,1.44,5.29Zm0,0"/><path class="cls-3" d="M321.89,805.15a3.88,3.88,0,1,1-1.44-5.3,3.88,3.88,0,0,1,1.44,5.3Zm0,0"/><path class="cls-3" d="M327.41,825.32A3.88,3.88,0,1,1,326,820a3.88,3.88,0,0,1,1.44,5.3Zm0,0"/><path class="cls-3" d="M740.24,827.1a3.88,3.88,0,1,1,1.11-5.37,3.88,3.88,0,0,1-1.11,5.37Zm0,0"/><path class="cls-3" d="M715.58,843.29a3.88,3.88,0,1,1,1.11-5.37,3.88,3.88,0,0,1-1.11,5.37Zm0,0"/><path class="cls-3" d="M699.31,818.51a3.88,3.88,0,1,1,1.11-5.37,3.88,3.88,0,0,1-1.11,5.37Zm0,0"/><path class="cls-3" d="M724,802.32a3.88,3.88,0,1,1,1.11-5.37,3.88,3.88,0,0,1-1.11,5.37Zm0,0"/><path class="cls-3" d="M719.78,822.8a3.88,3.88,0,1,1,1.12-5.37,3.88,3.88,0,0,1-1.12,5.37Zm0,0"/><path class="cls-4" d="M306.47,211a3.28,3.28,0,1,1-4.62-.35,3.28,3.28,0,0,1,4.62.35Zm0,0"/><path class="cls-4" d="M322.71,229.89a3.28,3.28,0,1,1-4.62-.35,3.28,3.28,0,0,1,4.62.35Zm0,0"/><path class="cls-4" d="M303.71,246.2a3.28,3.28,0,1,1-4.62-.35,3.28,3.28,0,0,1,4.62.35Zm0,0"/><path class="cls-4" d="M287.47,227.29a3.28,3.28,0,1,1-4.62-.35,3.28,3.28,0,0,1,4.62.35Zm0,0"/><path class="cls-4" d="M305.09,228.59a3.28,3.28,0,1,1-4.62-.35,3.28,3.28,0,0,1,4.62.35Zm0,0"/><path class="cls-4" d="M537,154.41a3.28,3.28,0,1,1-4.47-1.21,3.28,3.28,0,0,1,4.47,1.21Zm0,0"/><path class="cls-4" d="M519.93,149.84a3.28,3.28,0,1,1-4.47-1.21,3.28,3.28,0,0,1,4.47,1.21Zm0,0"/><path class="cls-4" d="M502.87,145.28a3.28,3.28,0,1,1-4.48-1.21,3.28,3.28,0,0,1,4.48,1.21Zm0,0"/><path class="cls-4" d="M403.5,172A3.28,3.28,0,1,1,399,170.8,3.27,3.27,0,0,1,403.5,172Zm0,0"/><path class="cls-4" d="M232.43,316.82a3.28,3.28,0,1,1-4.47-1.21,3.27,3.27,0,0,1,4.47,1.21Zm0,0"/><path class="cls-4" d="M194.87,545.39a3.28,3.28,0,1,1-4.47-1.21,3.27,3.27,0,0,1,4.47,1.21Zm0,0"/><path class="cls-4" d="M807.76,318.36a3.28,3.28,0,1,1-4.47-1.21,3.27,3.27,0,0,1,4.47,1.21Zm0,0"/><path class="cls-4" d="M846.85,536.65a3.28,3.28,0,1,1-4.47-1.21,3.27,3.27,0,0,1,4.47,1.21Zm0,0"/><path class="cls-4" d="M630.95,794.52a3.28,3.28,0,1,1-4.47-1.21,3.27,3.27,0,0,1,4.47,1.21Zm0,0"/><path class="cls-4" d="M404,792.61a3.28,3.28,0,1,1-4.47-1.21,3.27,3.27,0,0,1,4.47,1.21Zm0,0"/><path class="cls-4" d="M742.52,249.42a3.28,3.28,0,1,1-2.18-4.09,3.28,3.28,0,0,1,2.18,4.09Zm0,0"/><path class="cls-4" d="M734.19,233.85a3.28,3.28,0,1,1-2.18-4.09,3.28,3.28,0,0,1,2.18,4.09Zm0,0"/><path class="cls-4" d="M725.86,218.27a3.28,3.28,0,1,1-2.18-4.09,3.28,3.28,0,0,1,2.18,4.09Zm0,0"/><path class="cls-4" d="M836.84,442.89a3.28,3.28,0,1,1,1.51-4.38,3.28,3.28,0,0,1-1.51,4.38Zm0,0"/><path class="cls-4" d="M842.56,426.18a3.28,3.28,0,1,1,1.51-4.38,3.28,3.28,0,0,1-1.51,4.38Zm0,0"/><path class="cls-4" d="M848.28,409.47a3.28,3.28,0,1,1,1.51-4.38,3.28,3.28,0,0,1-1.51,4.38Zm0,0"/><path class="cls-4" d="M710.77,740.46a3.28,3.28,0,1,1,4.54-.94,3.28,3.28,0,0,1-4.54.94Zm0,0"/><path class="cls-4" d="M728.05,736.84a3.28,3.28,0,1,1,4.54-.94,3.28,3.28,0,0,1-4.54.94Zm0,0"/><path class="cls-4" d="M745.34,733.21a3.28,3.28,0,1,1,4.54-.94,3.28,3.28,0,0,1-4.54.94Zm0,0"/><path class="cls-4" d="M296.28,716.7a3.28,3.28,0,1,1,1.41,4.42,3.28,3.28,0,0,1-1.41-4.42Zm0,0"/><path class="cls-4" d="M301.68,733.52a3.28,3.28,0,1,1,1.41,4.42,3.28,3.28,0,0,1-1.41-4.42Zm0,0"/><path class="cls-4" d="M307.08,750.34a3.28,3.28,0,1,1,1.41,4.42,3.28,3.28,0,0,1-1.41-4.42Zm0,0"/><path class="cls-4" d="M201.26,410.6a3.28,3.28,0,1,1-3.24,3.32,3.28,3.28,0,0,1,3.24-3.32Zm0,0"/><path class="cls-4" d="M188.95,423.27a3.28,3.28,0,1,1-3.24,3.32,3.28,3.28,0,0,1,3.24-3.32Zm0,0"/><path class="cls-4" d="M176.64,435.93a3.28,3.28,0,1,1-3.24,3.32,3.28,3.28,0,0,1,3.24-3.32Zm0,0"/><path class="cls-4" d="M623.81,154.07a3.28,3.28,0,1,1-4.23,1.89,3.28,3.28,0,0,1,4.23-1.89Zm0,0"/><path class="cls-4" d="M647.08,163a3.28,3.28,0,1,1-4.23,1.89,3.28,3.28,0,0,1,4.23-1.89Zm0,0"/><path class="cls-4" d="M638.12,186.37a3.28,3.28,0,1,1-4.23,1.89,3.28,3.28,0,0,1,4.23-1.89Zm0,0"/><path class="cls-4" d="M614.84,177.45a3.28,3.28,0,1,1-4.23,1.89,3.28,3.28,0,0,1,4.23-1.89Zm0,0"/><path class="cls-4" d="M631,170.22a3.28,3.28,0,1,1-4.23,1.89,3.28,3.28,0,0,1,4.23-1.89Zm0,0"/><path class="cls-4" d="M236.26,629.08a3.28,3.28,0,1,1-4.48-1.2,3.28,3.28,0,0,1,4.48,1.2Zm0,0"/><path class="cls-4" d="M248.73,650.66a3.28,3.28,0,1,1-4.48-1.2,3.28,3.28,0,0,1,4.48,1.2Zm0,0"/><path class="cls-4" d="M227,663.18a3.28,3.28,0,1,1-4.48-1.2,3.28,3.28,0,0,1,4.48,1.2Zm0,0"/><path class="cls-4" d="M214.58,641.6a3.28,3.28,0,1,1-4.48-1.2,3.28,3.28,0,0,1,4.48,1.2Zm0,0"/><path class="cls-4" d="M231.65,646.13a3.28,3.28,0,1,1-4.48-1.2,3.28,3.28,0,0,1,4.48,1.2Zm0,0"/><path class="cls-4" d="M533.22,801.2a3.28,3.28,0,1,1-3.28-3.27,3.28,3.28,0,0,1,3.28,3.27Zm0,0"/><path class="cls-4" d="M533.26,826.12a3.28,3.28,0,1,1-3.28-3.27,3.28,3.28,0,0,1,3.28,3.27Zm0,0"/><path class="cls-4" d="M508.22,826.16a3.28,3.28,0,1,1-3.28-3.27,3.28,3.28,0,0,1,3.28,3.27Zm0,0"/><path class="cls-4" d="M508.19,801.24A3.28,3.28,0,1,1,504.9,798a3.28,3.28,0,0,1,3.28,3.27Zm0,0"/><path class="cls-4" d="M520.72,813.68a3.28,3.28,0,1,1-3.28-3.27,3.28,3.28,0,0,1,3.28,3.27Zm0,0"/><path class="cls-4" d="M823.77,641.2a3.28,3.28,0,1,1-1.45-4.4,3.28,3.28,0,0,1,1.45,4.4Zm0,0"/><path class="cls-4" d="M812.52,663.44a3.28,3.28,0,1,1-1.45-4.4,3.28,3.28,0,0,1,1.45,4.4Zm0,0"/><path class="cls-4" d="M790.18,652.14a3.28,3.28,0,1,1-1.45-4.4,3.28,3.28,0,0,1,1.45,4.4Zm0,0"/><path class="cls-4" d="M801.42,629.9a3.28,3.28,0,1,1-1.45-4.4,3.28,3.28,0,0,1,1.45,4.4Zm0,0"/><path class="cls-4" d="M807,646.67a3.28,3.28,0,1,1-1.44-4.4,3.28,3.28,0,0,1,1.44,4.4Zm0,0"/><path class="cls-5" d="M747.46,311a2.73,2.73,0,1,1,.33-3.85,2.73,2.73,0,0,1-.33,3.85Zm0,0"/><path class="cls-5" d="M731.54,324.41a2.73,2.73,0,1,1,.33-3.85,2.73,2.73,0,0,1-.33,3.85Zm0,0"/><path class="cls-5" d="M718.1,308.41a2.73,2.73,0,1,1,.33-3.85,2.73,2.73,0,0,1-.33,3.85Zm0,0"/><path class="cls-5" d="M734,295a2.73,2.73,0,1,1,.33-3.85A2.73,2.73,0,0,1,734,295Zm0,0"/><path class="cls-5" d="M732.78,309.72a2.73,2.73,0,1,1,.33-3.85,2.73,2.73,0,0,1-.33,3.85Zm0,0"/><path class="cls-5" d="M792.61,503.87a2.73,2.73,0,1,1,1-3.72,2.73,2.73,0,0,1-1,3.72Zm0,0"/><path class="cls-5" d="M796.57,489.67a2.73,2.73,0,1,1,1-3.72,2.73,2.73,0,0,1-1,3.72Zm0,0"/><path class="cls-5" d="M800.53,475.48a2.73,2.73,0,1,1,1-3.72,2.73,2.73,0,0,1-1,3.72Zm0,0"/><path class="cls-5" d="M779.11,392.34a2.73,2.73,0,1,1,1-3.72,2.73,2.73,0,0,1-1,3.72Zm0,0"/><path class="cls-5" d="M659.81,248.31a2.73,2.73,0,1,1,1-3.72,2.73,2.73,0,0,1-1,3.72Zm0,0"/><path class="cls-5" d="M469.44,214.94a2.73,2.73,0,1,1,1-3.72,2.73,2.73,0,0,1-1,3.72Zm0,0"/><path class="cls-5" d="M653.41,728.32a2.73,2.73,0,1,1,1-3.72,2.73,2.73,0,0,1-1,3.72Zm0,0"/><path class="cls-5" d="M470.94,759a2.73,2.73,0,1,1,1-3.72,2.73,2.73,0,0,1-1,3.72Zm0,0"/><path class="cls-5" d="M257.7,576.57a2.73,2.73,0,1,1,1-3.72,2.73,2.73,0,0,1-1,3.72Zm0,0"/><path class="cls-5" d="M261.32,387.22a2.73,2.73,0,1,1,1-3.72,2.73,2.73,0,0,1-1,3.72Zm0,0"/><path class="cls-5" d="M711.51,674.5a2.73,2.73,0,1,1,3.43-1.78,2.73,2.73,0,0,1-3.43,1.78Zm0,0"/><path class="cls-5" d="M724.58,667.69a2.73,2.73,0,1,1,3.43-1.78,2.73,2.73,0,0,1-3.43,1.78Zm0,0"/><path class="cls-5" d="M737.65,660.88a2.73,2.73,0,1,1,3.43-1.78,2.73,2.73,0,0,1-3.43,1.78Zm0,0"/><path class="cls-5" d="M549.25,751.48a2.73,2.73,0,1,1,3.64,1.3,2.73,2.73,0,0,1-3.64-1.3Zm0,0"/><path class="cls-5" d="M563.15,756.4a2.73,2.73,0,1,1,3.64,1.3,2.73,2.73,0,0,1-3.64-1.3Zm0,0"/><path class="cls-5" d="M577,761.32a2.73,2.73,0,1,1,3.64,1.3,2.73,2.73,0,0,1-3.64-1.3Zm0,0"/><path class="cls-5" d="M302.1,643.65a2.73,2.73,0,1,1,.74,3.8,2.73,2.73,0,0,1-.74-3.8Zm0,0"/><path class="cls-5" d="M305,658.11a2.73,2.73,0,1,1,.74,3.79,2.73,2.73,0,0,1-.74-3.79Zm0,0"/><path class="cls-5" d="M307.83,672.56a2.73,2.73,0,1,1,.74,3.8,2.73,2.73,0,0,1-.74-3.8Zm0,0"/><path class="cls-5" d="M325.6,298a2.73,2.73,0,1,1-3.7,1.13,2.73,2.73,0,0,1,3.7-1.13Zm0,0"/><path class="cls-5" d="M311.52,302.39a2.73,2.73,0,1,1-3.7,1.13,2.73,2.73,0,0,1,3.7-1.13Zm0,0"/><path class="cls-5" d="M297.44,306.74a2.73,2.73,0,1,1-3.7,1.13,2.73,2.73,0,0,1,3.7-1.13Zm0,0"/><path class="cls-5" d="M581.84,221.47a2.73,2.73,0,1,1-2.74-2.73,2.73,2.73,0,0,1,2.74,2.73Zm0,0"/><path class="cls-5" d="M571.38,211.09a2.73,2.73,0,1,1-2.74-2.73,2.73,2.73,0,0,1,2.74,2.73Zm0,0"/><path class="cls-5" d="M560.93,200.71a2.73,2.73,0,1,1-2.74-2.73,2.73,2.73,0,0,1,2.74,2.73Zm0,0"/><path class="cls-5" d="M792.12,576.3a2.73,2.73,0,1,1-1.54-3.55,2.73,2.73,0,0,1,1.54,3.55Zm0,0"/><path class="cls-5" d="M784.47,595.64a2.73,2.73,0,1,1-1.54-3.55,2.73,2.73,0,0,1,1.54,3.55Zm0,0"/><path class="cls-5" d="M765,588a2.73,2.73,0,1,1-1.54-3.55A2.73,2.73,0,0,1,765,588Zm0,0"/><path class="cls-5" d="M772.7,568.62a2.73,2.73,0,1,1-1.54-3.55,2.73,2.73,0,0,1,1.54,3.55Zm0,0"/><path class="cls-5" d="M778.58,582.13a2.73,2.73,0,1,1-1.54-3.55,2.73,2.73,0,0,1,1.54,3.55Zm0,0"/><path class="cls-5" d="M399.24,248.73a2.73,2.73,0,1,1,1-3.72,2.73,2.73,0,0,1-1,3.72Zm0,0"/><path class="cls-5" d="M381.13,258.94a2.73,2.73,0,1,1,1-3.72,2.73,2.73,0,0,1-1,3.72Zm0,0"/><path class="cls-5" d="M370.87,240.74a2.73,2.73,0,1,1,1-3.72,2.73,2.73,0,0,1-1,3.72Zm0,0"/><path class="cls-5" d="M389,230.53a2.73,2.73,0,1,1,1-3.73,2.73,2.73,0,0,1-1,3.73Zm0,0"/><path class="cls-5" d="M385.06,244.74a2.73,2.73,0,1,1,1-3.73,2.73,2.73,0,0,1-1,3.73Zm0,0"/><path class="cls-5" d="M253,495a2.73,2.73,0,1,1,2.76-2.71A2.73,2.73,0,0,1,253,495Zm0,0"/><path class="cls-5" d="M232.2,494.78a2.73,2.73,0,1,1,2.76-2.71,2.73,2.73,0,0,1-2.76,2.71Zm0,0"/><path class="cls-5" d="M232.39,473.89a2.73,2.73,0,1,1,2.76-2.71,2.73,2.73,0,0,1-2.76,2.71Zm0,0"/><path class="cls-5" d="M253.19,474.09a2.73,2.73,0,1,1,2.76-2.71,2.73,2.73,0,0,1-2.76,2.71Zm0,0"/><path class="cls-5" d="M242.69,484.43a2.73,2.73,0,1,1,2.76-2.71,2.73,2.73,0,0,1-2.76,2.71Zm0,0"/><path class="cls-5" d="M383.91,738.81a2.73,2.73,0,1,1,3.69-1.17,2.73,2.73,0,0,1-3.69,1.17Zm0,0"/><path class="cls-5" d="M365.46,729.23a2.73,2.73,0,1,1,3.68-1.17,2.73,2.73,0,0,1-3.68,1.17Zm0,0"/><path class="cls-5" d="M375.08,710.69a2.73,2.73,0,1,1,3.68-1.17,2.73,2.73,0,0,1-3.68,1.17Zm0,0"/><path class="cls-5" d="M393.54,720.27a2.73,2.73,0,1,1,3.69-1.17,2.73,2.73,0,0,1-3.69,1.17Zm0,0"/><path class="cls-5" d="M379.5,724.75a2.73,2.73,0,1,1,3.69-1.17,2.73,2.73,0,0,1-3.69,1.17Zm0,0"/><path class="cls-6" d="M490.12,426.08l-3,22.8-67.76-70.48c8.16,6.8,70.24,47.59,70.24,47.59Z"/><polygon class="cls-6" points="487.09 448.87 521.73 486.15 262.36 484.48 458.53 453.44 487.09 448.87"/><polygon class="cls-6" points="490.37 545.67 487.09 520.87 521.73 486.15 516.45 743.52 490.37 545.67"/><polygon class="cls-6" points="487.09 520.87 413.08 583.52 462.61 517.04 462.61 516.88 487.09 520.87"/><polygon class="cls-6" points="621.49 586.95 622.29 588.08 551.25 545.52 555.09 523.52 621.49 586.95"/><polygon class="cls-6" points="575.89 519.12 555.09 523.52 522.45 485.51 779.65 475.83 575.89 519.12"/><path class="cls-6" d="M620.29,377.19h.08c-4.4,7.92-40.24,72.4-38.88,72.4v.08l-26-3.44Z"/><polygon class="cls-6" points="551.64 426.63 555.09 446.15 521.73 486.15 516.45 226.15 551.64 426.63"/><polygon class="cls-7" points="555.49 446.23 581.49 449.67 779.65 475.83 522.45 485.51 555.09 446.15 555.49 446.23"/><polygon class="cls-7" points="575.89 519.12 621.49 586.95 555.09 523.52 575.89 519.12"/><path class="cls-7" d="M551.89,426.55l69-50.16s-.16.23-.48.8h-.08l-64.8,69-.4-.08-3.44-19.52Z"/><polygon class="cls-7" points="551.25 545.52 516.45 743.52 521.73 486.15 555.09 523.52 551.25 545.52"/><polygon class="cls-7" points="516.45 226.15 521.73 486.15 487.09 448.87 490.13 426.08 516.45 226.15"/><polygon class="cls-7" points="521.73 486.15 487.09 520.87 462.61 516.88 262.36 484.48 521.73 486.15"/><polygon class="cls-7" points="487.09 520.87 490.37 545.67 413.08 583.52 487.09 520.87"/><path class="cls-7" d="M419.32,378.39l67.76,70.48-28.56,4.56-.08-.56S425.48,389,419.32,378.39Z"/><path class="cls-8" d="M300.43,492.68c10.75-17.35,20-32.34,38.84-32.34s28.09,15,38.84,32.34c11.6,18.72,24.76,39.95,50.74,39.95s39.14-21.23,50.75-40c10.75-17.35,20-32.33,38.84-32.33s28.09,15,38.84,32.34C568.88,511.4,582,532.62,608,532.62s39.14-21.23,50.75-40c10.75-17.35,20-32.33,38.84-32.33,16.64,0,25.83,11.74,35.18,26.47q6.52-6.53,12.67-13.41c-11-17.42-24-35.3-47.85-35.3-26,0-39.14,21.23-50.75,40-10.75,17.35-20,32.33-38.84,32.33s-28.09-15-38.84-32.33c-11.6-18.73-24.76-40-50.75-40s-39.14,21.23-50.75,40c-10.75,17.35-20,32.33-38.84,32.33s-28.09-15-38.84-32.33c-11.6-18.73-24.76-40-50.75-40s-39.14,21.23-50.75,40c-4.63,7.48-9,14.51-14,20.1q6.9,6.26,14.15,12.14C293,504.66,296.79,498.54,300.43,492.68Z"/><path class="cls-9" d="M625.12,242.19l-.51,4.79c-.06.58-6.36,58.9-23.78,117.42-15.36,51.59-42.58,113.09-85,113.09H511v.26c-21.61,2-41.17,15.61-58.22,40.49-14,20.44-26.46,48.73-37,84.08C398,661.62,391.48,722.16,391.42,722.76l-.51,4.79,16.41,1.73.5-4.79c.06-.58,6.31-58.74,23.78-117.42C447,555.48,474.18,494,516.64,494h4.82v-.25c21.61-2,41.17-15.61,58.22-40.5,14-20.44,26.46-48.73,37-84.08C634.45,309.66,641,249.31,641,248.71l.51-4.79Z"/><path class="cls-2" d="M609.93,240.56s47.76,20.63,71.72,41.48l.83-14.56-54.44-26"/><polyline class="cls-2" points="613.75 237.29 650.68 256.24 645.86 239.54"/><path class="cls-10" d="M982.33,661.84c-72.85-47-152.5-63.63-236.17-37.73-68.27,21.13-128.91,61.45-188.46,99.84-58.2,37.52-117.33,76.78-183.72,98.3-85.17,27.61-166.29,11.94-240.91-36.19l-21-143.38c74.63,48.13,155.75,63.8,240.92,36.19,66.38-21.52,125.51-60.78,183.71-98.3,59.55-38.39,120.19-78.7,188.47-99.84,83.68-25.9,163.33-9.26,236.18,37.73Q971.85,590.15,982.33,661.84Z"/><path class="cls-11" d="M205.49,798q-5.81,4.7-12.12,3.64a51.69,51.69,0,0,1-9.54-3.11L152.5,785.87q-3.61-1.46-1.94-5.59,1.2-3,3.57-2.9l4.75.12q2.92-.92,4.75-5.43l3.34-8.25q2-5,4.88-11.68t4.89-11.52q2-4.87,3.4-8.22,5.63-13.92,7.86-20.52a6.54,6.54,0,0,0-2-7.7q-3.37-3.16-2.27-5.87,1.67-4.12,5.28-2.66l24.36,9.86q3.48,1.41,1.81,5.53-1.15,2.84-3.52,2.77l-4.67.06q-3.05.87-7.14,10.61-1.3,3.22-2.3,6.42-1.25,3.09-2.43,6.37l-7.59,17.63q-.31.77-.93,2.1t-1.19,2.75q-.57,1.42-1.19,2.74t-.93,2.1q-8.4,20.75-.41,24,5.54,2.24,12.11-.65a97.3,97.3,0,0,0,10-6.15q5-3.51,7-2.73,3.74,1.51,1,8.22A27.11,27.11,0,0,1,205.49,798Z"/><path class="cls-11" d="M296.18,817.95l-28.43-2q-3.74-.26-3.43-4.7.2-2.91,4.78-4.54t4.82-5.1q.23-3.33-2.29-15.07-.51-2.68-1.48-6.73T268,770.39q-3.85,3.22-7.32,3a12.31,12.31,0,0,1-3.68-1.16,12.48,12.48,0,0,0-3.82-1.17,4,4,0,0,0-4.22,2.49q-9.06,19.85-9.5,26.09-.2,2.91,4.23,5.32T248,810.1q-.31,4.44-4.2,4.17l-13-.92-5.69-.4q-6.68-.19-6.35-4.91a4.69,4.69,0,0,1,4.09-4.59,7.39,7.39,0,0,0,6.06-4.87l28.7-77.15q2.4-6.38,8.64-5.94,6.66.47,8.14,7.12l16.82,78q1.18,5,3.67,7.23a18.62,18.62,0,0,0,1.87,1.11q.94.48,2,1a4.26,4.26,0,0,1,1.54,3.87Q299.93,818.21,296.18,817.95ZM261.87,739l-4.39,10.84q-3,7.59-3.24,10.36-.18,2.5,5,2.86l7.35.52Z"/><path class="cls-11" d="M393.26,791.09l-22,7.1q-3.57,1.15-4.94-3.08-.9-2.78.83-4.21l3.46-2.87q2.31-2.35,0-9.94.43,1.76-.43-.88L367,767.41a69.77,69.77,0,0,0-3.47-9.4,14.82,14.82,0,0,0-7.68-6.14l-25.72-10,2.14,6.62q1.28,4,2.86,9.3l5,15.92q-1.11-3.44-.56-1.5t2.77,9.26a40.89,40.89,0,0,0,3.61,8.91q2.64,4.11,6,4.19,4.53,0,5.6,3.31,1.37,4.24-2.2,5.39l-22.23,7.18q-3.57,1.16-4.94-3.08a3.87,3.87,0,0,1,1-4.26q1.77-1.74,3.59-3.35,1.73-2.31.2-7.08l-2.74-8.47q-1.67-5.16-3.76-12.08l-6.45-20.42q1.37,4.24-2.47-9-1-3.61-2.05-6.35a26.74,26.74,0,0,0-2.24-4.68q-3-5.3-6.55-5.34-4.62.18-5.69-3.13-1.37-4.23,2.2-5.39l22.23-7.18q3.57-1.16,4.94,3.08.94,2.91-2,5.48-2.88,2.39-2.54,3.45.43,1.32,14.27,7.08,8.28,3.46,16.82,6.84l-3.63-11.68-1-3q-.51-1.59-1.2-3.27-1.54-4.32-6.42-4.5-4.66-.39-5.55-3.17-1.37-4.23,2.2-5.39l22.09-7.14q3.57-1.15,4.94,3.08a3.86,3.86,0,0,1-.87,4.3q-1.73,1.65-3.59,3.13-1.87,2.36,1.63,13.65l2.27,7q1.15,3.57,2.4,7l6.49,20.55q-1.37-4.23,2.34,9,1,3.48,2,6.28a26.59,26.59,0,0,0,2.26,4.75q3,5.17,6.5,5.2,4.53,0,5.6,3.31Q396.83,789.93,393.26,791.09Z"/><path class="cls-11" d="M476.67,735.39q-6.11,16.74-24.55,26.47l-34.8,18.36Q414,782,411.91,778a3.87,3.87,0,0,1,.22-4.36q1.45-2,3-3.92,1.31-2.58-1-7l-4.15-7.87q-2.53-4.8-5.78-11.26l-9.87-19q-4.28-8.12-6.9-12.94t-3.59-6.36a6.93,6.93,0,0,0-7.1-3.33q-4.66.41-6-2.17-2.08-3.93,1.24-5.69l23-12.13q23.61-12.45,43.9-9.16,22.47,3.87,34.6,26.86Q483,717.9,476.67,735.39Zm-31.35-42.15a38.37,38.37,0,0,0-19.21-8.7,32.6,32.6,0,0,0-15.13,2,113.75,113.75,0,0,0-14.16,6.53l-1.23.65,30.11,57.08q5.31,10.06,17.24,3.77,13.77-7.26,18.32-18.92,4.65-12.34-2.53-26A51.56,51.56,0,0,0,445.32,693.24Z"/><path class="cls-11" d="M539.92,684.22a24.92,24.92,0,0,1-11.22,15.91,25.46,25.46,0,1,1-27.43-42.89,24.1,24.1,0,0,1,19.16-3.37,25.63,25.63,0,0,1,19.49,30.35ZM518.25,662q-7.4-3.18-14.51,1.39a12.78,12.78,0,0,0-6.28,10.39Q497,679.5,501,685.67q4.62,7.19,10.88,10a14.21,14.21,0,0,0,14.19-1.19,13.63,13.63,0,0,0,6.54-10.34,18.53,18.53,0,0,0-3.15-12Q524.72,664.73,518.25,662Z"/><path class="cls-11" d="M552,632.06a7.71,7.71,0,0,1-.33,2.14,6.35,6.35,0,0,1-1,2,5.78,5.78,0,0,1-1.57,1.47,12.8,12.8,0,0,1-2.67,1.21q-1.06.43-1.73.68l-1,.37,24.08,38.89q3,4.87-.89,11-3,4.75-2.87,7.85a9.62,9.62,0,0,1-.32,2.52.83.83,0,0,0-.27.28l-.32.2q-1.2.74-3.06-2.08,1.31,1.95.79,1t-2.9-4.78q-.59-1,.85-2.73a16.79,16.79,0,0,0,2.56-3.35,5.58,5.58,0,0,0-.68-5.21l-24.08-38.89q-3.37,3.3-3.69,3.5-1,.64-3.07-2.63-1.83-3,.41-4.34.48-.3,1.57-.86t1.57-.86l-3.51-5.67a8,8,0,0,1-.95-6.7,32.85,32.85,0,0,1,2.83-6,13.47,13.47,0,0,0,1.93-6.17q-.26-2.38.86-3.07t3.06,2.08q-1.32-1.95-.76-1t2.93,4.82q.59,1-.85,2.73a24,24,0,0,0-2.56,3.36q-1.1,2.34.64,5.13l3.66,5.91q.88-.54,2.52-1.73t2.52-1.73q4.87-3,5.86-1.42A3.54,3.54,0,0,1,552,632.06Z"/><path class="cls-11" d="M670.6,619.59a51.26,51.26,0,0,1-60.09,40.7,52.62,52.62,0,0,1-41.13-60.71,49.54,49.54,0,0,1,21.72-32.9q17.84-12.09,38.57-7.77a50.51,50.51,0,0,1,32.88,22A49.8,49.8,0,0,1,670.6,619.59Zm-45.43-45.75q-15.82-5.74-29.4,3.46a27.31,27.31,0,0,0-12.63,23q-.4,13,8.25,25.81,9.44,13.93,23.55,19.15,15.82,5.75,29.28-3.38,11.74-8,12.52-22.92.48-13.42-7.86-25.74Q639.36,579.17,625.17,573.83Z"/><path class="cls-11" d="M760.88,584q-8.73,15.54-28.5,22.16l-37.31,12.5q-3.56,1.19-5-3a3.87,3.87,0,0,1,.92-4.27q1.75-1.76,3.56-3.39,1.71-2.33.12-7.08l-2.83-8.44q-1.72-5.14-3.89-12L681.31,560q-2.92-8.7-4.73-13.89t-2.52-6.86a6.93,6.93,0,0,0-6.47-4.43q-4.66-.34-5.59-3.11-1.41-4.22,2.15-5.41l24.65-8.26q25.31-8.48,44.8-2,21.55,7.44,29.82,32.09Q770,567.72,760.88,584ZM736.75,537.3a38.37,38.37,0,0,0-17.55-11.68,32.6,32.6,0,0,0-15.25-.45,113.69,113.69,0,0,0-15,4.16l-1.32.44L708.1,591q3.62,10.79,16.4,6.5,14.76-4.95,21.13-15.71,6.58-11.43,1.69-26A51.55,51.55,0,0,0,736.75,537.3Z"/><path class="cls-11" d="M856,582.5Q842.28,593.9,821.44,593l-39.31-1.63q-3.75-.16-3.57-4.6a3.87,3.87,0,0,1,2.38-3.66q2.27-1,4.53-1.9,2.43-1.57,2.64-6.57l.37-8.89q.22-5.42.66-12.64l1-21.39q.38-9.17.54-14.66t.09-7.3a6.93,6.93,0,0,0-4.46-6.45q-4.23-2-4.11-4.9.18-4.44,3.93-4.29l26,1.07q26.67,1.1,42.55,14.14Q872.16,524,871.09,550,870.24,570.57,856,582.5Zm-5.91-52.19a38.37,38.37,0,0,0-12.23-17.17,32.6,32.6,0,0,0-14.09-5.86,113.84,113.84,0,0,0-15.52-1.47l-1.39-.06-2.67,64.48q-.47,11.37,13,11.93,15.56.64,25.34-7.15,10.22-8.33,10.86-23.72A51.56,51.56,0,0,0,850.06,530.31Z"/><path class="cls-11" d="M906.72,602.48a17.85,17.85,0,0,1-10.78,3.81q-3,.13-6.07.11t-5.94,0q-1.67.24-6.84,3.07-4.18,2.4-5.64,2a3,3,0,0,1-1.87-1.78,3.67,3.67,0,0,1-.32-2.63l4.09-14q.86-2.93,4.84-2.21l5.74,1.67q12.14,3.54,14.37-4.06,1.28-4.4-3.19-27.29t-1.89-31.26A21.4,21.4,0,0,1,900.44,519a24.73,24.73,0,0,1,12.27-5.33q2.16.05,5.08,0l6.51-.2q1.43,0,5.1-2.86,3.07-2.72,5-2.15,2.75.8,1.78,4.14l-3.58,12.28q-1,3.34-4.8,2.8a54.06,54.06,0,0,1-7.16-1.8q-4.6-1.34-7.13-.63-3.62,1-5.17,6.31-1.28,4.4,2,27.1.6,3.8,1.52,9.42t1.95,13.31a26.09,26.09,0,0,1-.7,11.67A18,18,0,0,1,906.72,602.48Z"/></svg>