<svg id="Layer_1" data-name="Layer 1" xmlns="http://www.w3.org/2000/svg" viewBox="0 0 1000 1000"><defs><style>.cls-1,.cls-3,.cls-4,.cls-6,.cls-7{fill:none;}.cls-2,.cls-5{fill:#fff;}.cls-3,.cls-4,.cls-6,.cls-7{stroke:#fff;}.cls-3,.cls-4,.cls-5,.cls-6,.cls-7{stroke-miterlimit:10;}.cls-3{stroke-width:5.24px;}.cls-4{stroke-width:5.24px;}.cls-5{stroke:#020202;stroke-width:3px;}.cls-6{stroke-width:2.03px;}.cls-7{stroke-width:2px;}</style></defs><title>Artboard 1</title><rect class="cls-1" x="799.87" y="296.77" width="1.73" height="3.47"/><path class="cls-1" d="M819.8,320.17l19.93-13,2.6-6.07-13-4.33c-9.53,8.67-17.33,13-22.53,13Q810.7,320.17,819.8,320.17Z"/><path class="cls-1" d="M630,833.23l5.39-3.37c-1.76.93-3.62,1.9-5.57,2.91Z"/><polygon class="cls-1" points="905.77 625.9 905.6 625.23 905 625.08 905.77 625.9"/><path class="cls-1" d="M122.13,255.17c2.6,0,8.67,3.47,18.2,12.13,28.6,11.27,47.67,25.13,55.47,41.6l-1.73,5.2v1.73h1.73c2.6,0,3.47-3.47,4.33-10.4l4.33,3.47,1.73-1.73v-1.73a24.71,24.71,0,0,0-10.4-20.8V282.9h1.73c6.07,3.47,9.53,8.67,9.53,13.87h2.6v-.87c0-4.33-5.2-13-18.2-25.13-15.6-7.8-35.53-22.53-57.2-45.93,0-2.6-4.33-6.93-13-12.13L119.53,204l-13.79,8.43L94.4,191c0,11.27,6.93,29.47,20.8,53.73C119.53,248.23,122.13,251.7,122.13,255.17Z"/><path class="cls-1" d="M119.42,199.7c0,2.66.11,4.33.11,4.33V199.7Z"/><path class="cls-1" d="M839.73,240.43c-25.13,18.2-37.27,30.33-37.27,33.8-11.27,7.8-17.33,16.47-17.33,24.27h4.33v-4.33c0-5.2,3.47-9.53,10.4-13.87V282l-6.07,9.53v9.53h1.73a18.58,18.58,0,0,1,9.53-16.47h1.73v1.73l-5.2,9.53h.87c2.6-3.47,16.47-13.87,40.73-31.2l24.27-17.33c12.13-12.13,19.07-23.4,21.67-32.07l-13.87,13-14.53-10.48C850.5,231.83,843.33,239.71,839.73,240.43Z"/><path class="cls-1" d="M159.4,301.1l-6.93,1.73v8.67l20.8,8.67,6.93.87c6.93-1.73,9.53-4.33,9.53-8.67-13.87-2.6-23.4-6.93-27.73-11.27Z"/><polygon class="cls-1" points="750.47 52.37 751.33 52.37 757.4 54.1 755.67 52.37 755.67 51.5 757.4 45.43 753.07 42.83 751.33 42.83 753.07 43.7 753.07 45.43 750.47 52.37"/><path class="cls-1" d="M841.81,758.82c-3,5.42-5.19,9.79-5.09,11.18l-2.56-8.88a55.34,55.34,0,0,1-5.16,3.26l-.53-23L818.07,750s-15.05-6.72-18.56-14.44a7.83,7.83,0,0,0-.84-1.38l-8.8-7.18a161.66,161.66,0,0,0-19.47-9.93c-1.24,2.65-2.5,5.18-3.79,7.65l3.4,36.82L732.8,785.44l-11.28-5.68A79.17,79.17,0,0,1,708,788.17c13.56-4.48-10.31,33.79-10.31,33.79l-60.76,31.21c35.53-12.13,60.67-24.27,75.4-37.27,4.33,0,26-19.07,65-56.33h4.33A263.7,263.7,0,0,1,822.4,792.5l4.33-1.73v-2.6C834.68,776.56,839.59,766.68,841.81,758.82Z"/><path class="cls-2" d="M748.73,332.3c3.47,0,6.07,4.33,6.07,12.13q3.9,0,5.2,20.8l-2.6,13c10.16,19.25,14.72-2.86,14.72-2.86l-11.94-50.56-9.83-16.15L740.07,321C746.13,322.77,748.73,326.23,748.73,332.3Z"/><path class="cls-2" d="M821.53,505.63c7.8,7.8,16.47,24.27,25.13,49.4,6.2,5.36,9.72-7.63,9.72-7.63l-45.64-64.6-9.13-12.64-3.48,11.2C813.73,492.63,821.53,501.3,821.53,505.63Z"/><path d="M119.42,199.7h.11V204l1.73,8.67c8.67,5.2,13,9.53,13,12.13,21.67,23.4,41.6,38.13,57.2,45.93,13,12.13,18.2,20.8,18.2,25.13v.87h-2.6c0-5.2-3.47-10.4-9.53-13.87H195.8v1.73a24.71,24.71,0,0,1,10.4,20.8v1.73l-1.73,1.73-4.33-3.47c-.87,6.93-1.73,10.4-4.33,10.4h-1.73V314.1l1.73-5.2c-7.8-16.47-26.87-30.33-55.47-41.6-9.53-8.67-15.6-12.13-18.2-12.13,0-3.47-2.6-6.93-6.93-10.4C101.33,220.5,94.4,202.3,94.4,191l.87-7.8-4.33,3.47v14.73c0,5.2,3.47,13.87,10.4,26.87,6.93,20.8,27.73,39.87,62.4,58.07v.87a76,76,0,0,1-21.67,17.33v.87l1.73,1.73c.87,6.07,13.87,13,39.87,20.8,8.67-2.6,18.2-7.8,27.73-16.47,4.33-8.67,7.8-13.87,10.4-14.73h.87c-4.33,56.33-10.4,90.13-15.6,102.27-15.6,66.73-47.67,127.4-96.2,183.73a679.62,679.62,0,0,1-65,59.8v.87c6.93,2.6,26,19.07,58.07,49.4,28.6,31.2,43.33,49.4,45.07,55.47l34.67,59.8,2.6-3.47c-10.4-26.87-18.2-42.47-24.27-45.07,0-6.07-.87-9.53-2.6-9.53-2.6-9.53-6.07-14.73-10.4-14.73-2.6-6.07-5.2-9.53-8.67-9.53q0-7.8-20.8-28.6C110,687.63,99.6,680.7,90.07,674.63c-.87-6.07-4.33-9.53-8.67-9.53-13-12.13-22.53-18.2-28.6-19.93v-4.33c10.4-5.2,30.33-23.4,62.4-55.47,6.07-6.07,25.13-32.07,56.33-78.87l17.33-31.2,13.87-33.8-.87-4.33,9.53-29.47c10.4-36.4,18.2-84.93,22.53-144.73-6.07-1.73-9.53-12.13-9.53-32.07l.87-4.33h-.87V224C214,214.43,208.8,207.5,208.8,204c-21.67-27.73-42.47-40.73-60.67-40.73h-6.07l-6.67,1C121.23,170.27,119.48,190.69,119.42,199.7ZM180.2,321l-6.93-.87-20.8-8.67v-8.67l6.93-1.73H162c4.33,4.33,13.87,8.67,27.73,11.27C189.73,316.7,187.13,319.3,180.2,321Z"/><path d="M781.67,759.57h-4.33c-39,37.27-60.67,56.33-65,56.33-14.73,13-39.87,25.13-75.4,37.27-15.6,9.53-30.33,16.47-43.33,22.53-33.8,21.67-52,37.27-53.73,45.07-5.2,2.6-7.8,4.33-7.8,6.93-7.8,21.67-12.13,34.67-12.13,38.13q0,7.8-31.2,7.8c-.87-8.67-2.6-13-4.33-13,0-13-1.73-19.93-6.07-19.93,0-5.2-.87-8.67-3.47-8.67a131.06,131.06,0,0,0-32.93-36.4h-8.67l10.4,11.27c24.27,18.2,36.4,40.73,36.4,66.73v6.93l1.73.87c1.73-1.73,13.87-3.47,34.67-5.2,6.93,0,10.4-6.07,10.4-17.33,10.4-28.6,22.53-46.8,33.8-53.73q11.7-10.4,78-46.8C674.2,848,697.6,836.7,710.6,826.3Q760,784.7,760,779.5l19.07-11.27h.87c5.2,0,6.93.87,6.93,2.6,13,5.2,23.4,13.87,32.93,26h4.33l2.6-3.47v-2.6l-4.33,1.73A263.7,263.7,0,0,0,781.67,759.57Z"/><path d="M884.8,555.9c-4.33-6.07-8.67-11.27-13-13.87,0-3.47-3.47-8.67-11.27-14.73-3.47-6.07-6.07-9.53-9.53-9.53,0-4.33-.87-6.93-3.47-6.93h-.87l.87,8.67,46.8,54.6c10.4,8.67,15.6,14.73,15.6,19.07,12.13,7.8,19.07,13,19.07,16.47l21.67,15.6,1.73-1.73-45.07-40.73C897.8,568.9,890,560.23,884.8,555.9Z"/><path d="M350.07,851.43,298.93,828c-20.8-16.47-33.8-24.27-36.4-24.27,0-6.07-1.73-8.67-6.07-8.67,0-3.47-.87-6.07-2.6-6.07l-20.8-25.13c-9.53,7.8-16.47,11.27-19.93,11.27l-24.27,21.67V802h.87l35.53-26.87h8.67l1.73,1.73q0,5.2,2.6,5.2l5.2,8.67c31.2,29.47,52.87,45.93,65.87,51.13,72.8,25.13,114.4,42.47,123.07,53.73h.87V891.3C430.67,884.37,402.93,871.37,350.07,851.43Z"/><path d="M889.13,215.3c-2.6,8.67-9.53,19.93-21.67,32.07L843.2,264.7c-24.27,17.33-38.13,27.73-40.73,31.2h-.87l5.2-9.53v-1.73h-1.73a18.58,18.58,0,0,0-9.53,16.47H793.8v-9.53l6.07-9.53V280.3c-6.93,4.33-10.4,8.67-10.4,13.87v4.33h-4.33c0-7.8,6.07-16.47,17.33-24.27,0-3.47,12.13-15.6,37.27-33.8,3.59-.72,10.76-8.6,21-22.62l-.61-.44c24.81-34.64.41-54.08.41-54.08H838c-23.4,6.07-35.53,11.27-35.53,15.6q-27.3,20.8-39,70.2l.87,63.27,2.6,4.33v15.6c0,4.33,1.73,10.4,6.07,17.33l-1.73,8.67c0,3.47,1.73,7.8,6.07,13.87,6.93,31.2,14.73,53.73,22.53,67.6l-2.6,13.87c6.93,2.6,16.47,13.87,29.47,34.67l18.2,20.8h1.73v-.87q-27.3-36.4-28.6-41.6c-5.2-5.2-8.67-10.4-8.67-13.87l-.87-.87L783.4,372.17c-5.2-26-8.67-38.13-10.4-38.13l-2.6-43.33h6.93l4.33,1.73v1.73l-1.73,1.73v2.6l11.27,13.87c0,7.8,10.4,12.13,31.2,12.13a80.25,80.25,0,0,0,26.87-21.67V301.1c-10.4-8.67-18.2-12.13-20.8-12.13v-4.33c6.07-9.53,15.6-17.33,30.33-24.27,26.87-23.4,39.87-44.2,39.87-65,0-18.2-2.6-26.87-7.8-26.87h-1.73v2.6l2.6,4.33v7.8C896.66,200.11,889.13,215.3,889.13,215.3ZM801.6,300.23h-1.73v-3.47h1.73Zm27.73-3.47,13,4.33-2.6,6.07-19.93,13q-9.1,0-13-10.4C812,309.77,819.8,305.43,829.33,296.77Z"/><polygon points="596.2 861.83 596.27 861.47 594.47 861.83 596.2 861.83"/><path d="M952.4,631.3l-7.8,9.53q-45.5,33.8-62.4,62.4l-19.93,25.13h-1.73s-11.73,18-18.73,30.45c-2.22,7.86-7.13,17.74-15.07,29.35v2.6q3.9,0,10.4-15.6h2.6c3.47-7.8,6.07-11.27,7.8-11.27,0,0,1.31-20.46,14.73-28.6,20.8-25.13,31.2-39,31.2-40.73l60.67-62.4v-.87Z"/><path class="cls-2" d="M105.75,212.46,119.53,204s-.13-1.67-.11-4.33c.06-9,1.81-29.43,16-35.45.18-.08.36-.17.54-.24,19-7.37-7.74-11.11-7.74-11.11l-24.27,15.6L94.4,191Z"/><path class="cls-2" d="M828.47,741.37l.53,23a55.34,55.34,0,0,0,5.16-3.26l2.56,8.88c-.11-1.38,2-5.76,5.09-11.18,7-12.46,18.73-30.45,18.73-30.45h1.73l11.67-36.31s-7.83-4.78-11.54-3.94l-1.87,2.12C856.61,696.14,828.47,741.37,828.47,741.37Z"/><path class="cls-2" d="M708,788.17c-3.38,6.23-51.39,26.77-58.06,33.09-1.57,1.49-7.06,4.64-14.55,8.61L630,833.23l-10.25,4.65c-16.29,8.17-35.09,17.19-45.68,22.23l20.39,1.72,1.81-.36,25.58-5.11,2.07-5.89,13,2.69L697.69,822S721.56,783.69,708,788.17Z"/><path class="cls-2" d="M721.52,779.76l11.28,5.68L770,761.57l-3.4-36.82C751.51,753.87,733.55,770.83,721.52,779.76Z"/><path d="M630,833.23l-.19-.46c1.95-1,3.82-2,5.57-2.91,7.49-4,13-7.12,14.55-8.61,6.67-6.32,54.68-26.86,58.06-33.09a79.17,79.17,0,0,0,13.52-8.41c12-8.93,30-25.89,45.1-55,1.28-2.47,2.55-5,3.79-7.65A161.66,161.66,0,0,1,789.87,727l8.8,7.18a7.83,7.83,0,0,1,.84,1.38C803,743.31,818.07,750,818.07,750l10.4-8.67s28.14-45.23,32.07-51.13l1.87-2.12,49.27-55.95c-.87-4.33-1.73-6.93-4.33-6.93H905.6l.17.66-.77-.81.6.15V623.5l-25.13-25.13q-10.4-15.6-15.6-15.6c0-6.07-5.2-12.13-13.87-17.33a16,16,0,0,0-4.33-10.4c-8.67-25.13-17.33-41.6-25.13-49.4,0-4.33-7.8-13-23.4-24.27-10.15-20-19.07-33.8-19.07-33.8-11.27-19.07-18.2-42.47-21.67-69.33l2.6-13q-1.3-20.8-5.2-20.8c0-7.8-2.6-12.13-6.07-12.13,0-6.07-2.6-9.53-8.67-11.27v-33.8c0-37.27,6.07-67.6,17.33-89.27,26-39,50.27-58.93,73.67-58.93h16.47v2.6l4.33-1.73c7.8,3.47,11.27,6.93,11.27,10.4h-.87l-6.93-6.93h-3.47v.87L867.47,159l.06,0,19.87,7.78h3.47l.87-5.2A255.18,255.18,0,0,1,856.2,134.7c-19.93-9.53-51.13-33.8-92.73-71.93h-1.73L764.33,48,737.47,18.57C708,18.57,682,30.7,661.2,55.83c-20.8,26-40.73,42.47-58.07,50.27-14.73,5.2-22.53,8.67-22.53,10.4l-45.07.87H528.6c-5.2,9.53-8.67,13.87-10.4,13.87-7.8,18.2-16.47,28.6-23.4,32.07v-3.47c-11.27-10.4-17.33-18.2-19.93-24.27-5.2-8.67-8.67-13.87-10.4-13.87h-2.6l-2.6,3.47v3.47c22.53,23.4,33.8,37.27,33.8,42.47,9.53-6.07,22.53-21.67,39-47.67l28.6,1.73,22.53-4.33c29.47-13,45.93-23.4,49.4-30.33,7.8,0,11.27-2.6,11.27-8.67q33.8-33.8,33.8-36.4c18.2-12.13,32.07-18.2,39.87-18.2h10.4c7.8,0,13.87,2.6,16.47,8.67h-.87l-7.8-6.07h-.87l-1.73,1.73,13,13.87c-11.27,0-26,4.33-44.2,13.87-41.6,39-65.87,58.93-73.67,61.53-7.8,11.27-38.13,20.8-91.87,27.73-19.07,23.4-29.47,35.53-32.07,35.53l-10.28,4.49-5.32-3.38V185L487,184.1c-19.07-16.47-27.73-25.13-27.73-26.87,0-6.93-13.87-10.4-39.87-10.4-6.07-3.47-11.27-5.2-13.87-5.2-17.33,0-52.87-24.27-106.6-71.93-8.67-9.53-21.67-15.6-40.73-18.2H247.8l-6.07.87-6.07,10.4h-1.73V56.7l-.87-6.93,2.6-2.6h1.73l.87.87h4.33c8.67-7.8,14.73-14.73,17.33-20.8h6.93c9.53,0,13.87.87,13.87,2.6,19.93,6.93,29.47,11.27,29.47,15.6,12.13,6.93,19.07,11.27,19.07,13.87,25.13,23.4,38.13,37.27,38.13,41.6,13,4.33,19.93,7.8,19.93,9.53,21.67,9.53,39,14.73,53.73,14.73,2.6-2.6,8.67-5.2,16.47-6.07v-1.73l-.87-.87-28.6.87H424.6c-26.87-6.07-48.53-17.33-65-32.07-34.67-41.6-65.87-62.4-94.47-62.4H251.27c-13,15.6-21.67,24.27-26.87,24.27l4.33,19.93-2.31,4.62-21,20.36c-29.68,26.09-49.69,39.15-59,39.15-6.93,0-21.67,12.13-45.07,35.53v1.73h2.6l26.87-21.67v3.47h3.47c0-6.93,3.47-10.4,12.13-10.4h11.27c6.07,0,15.6,4.33,30.33,11.27,28.6,19.07,46.8,38.13,53.73,57.2,3.47,0,8.67,22.53,13.87,67.6v6.93l2.6,3.47-4.33,36.4,1.73,9.53c-1.73,18.2-3.47,26.87-6.07,26.87a668.89,668.89,0,0,1-24.27,93.6v.87s-8.84,20-12.33,28.79L198.4,510.83c-4.33,1.73-6.93,4.33-6.93,6.93,0,6.07-10.4,24.27-31.2,53.73-6.93,6.93-11.27,11.27-11.27,13.87-2.6.87-10.4,10.4-22.53,27.73C106.53,630.43,97,640.83,97,645.17c11.27,7.8,18.2,12.13,19.93,15.6,9.53,6.07,13.87,13,13.87,20.8,9.53,0,20.8,10.4,33.8,30.33,19.07,27.73,29.47,41.6,32.93,43.33l39.87-28.6c3.47,0,6.93,5.2,10.4,14.73,7.8,6.07,12.13,12.13,12.13,15.6,13.87,14.73,36.4,33.8,65.87,55.47,18.2,6.93,26.87,12.13,26.87,13.87,11.27,0,41.6,13,91,39.87,22.53,15.6,37.27,30.33,45.07,43.33l25.94,1.67.06.06h.87c11.27-14.73,22.53-27.73,33.8-38.13a100.48,100.48,0,0,0,20.43-11l4.25-2c10.59-5,29.39-14.05,45.68-22.23ZM751.33,42.83h1.73l4.33,2.6-1.73,6.07v.87l1.73,1.73-6.07-1.73h-.87l2.6-6.93V43.7Z"/><path class="cls-2" d="M860.53,163.3s24.4,19.44-.41,54.08l.61.44,14.53,10.48,13.87-13s7.52-15.18,2.6-32.07c-4.76-16.33-23-23.77-24.2-24.24l-.06,0Z"/><path class="cls-2" d="M339,812.33l18.67,9.33s33.67,9.67,46.67,18,54.33,28,61.33,36,24.67,28,24.67,28L513,907s24-29.33,30-36,82.67-42,82.67-42L651,814.33l.67-25.33"/><path d="M813.67,499.14s16.67,24,16.67,26.21v-7.67s-9-18.54-16.67-23"/><path class="cls-2" d="M808,767.21l19.53-24.39,32.3-51.51,30-23.62-31.29-3.8a.94.94,0,0,1-.82-.84L855,635.51h-3.09a.93.93,0,0,1-.93-.79l-6.08-39.24H840a.94.94,0,0,1-.94-.94V572l-1.64-12.32-2.15,7.71a1,1,0,0,1-.94.69.94.94,0,0,1-.89-.76L819,494v11.89a.56.56,0,0,1-1.13,0v-8.31l-10,74.73a.94.94,0,0,1-1.8.22l-1.26-3.18-3.16,11.91a.93.93,0,0,1-.9.7h-2.26a.94.94,0,0,1-.9-.67l-19.59-64-4.9,66.06a.94.94,0,0,1-.9.87,1,1,0,0,1-1-.82l-.88-6.68-1,8.87v46.2a.94.94,0,0,1-.94.94h-5.64a.94.94,0,0,1-.94-.94V606.69l-13-46.1L743,608.93a1,1,0,0,1-.94.83H723.66a.93.93,0,0,1-.81-.47l-4.94-8.55-4,5.27a1,1,0,0,1-.75.37h-5.64a1,1,0,0,1-.94-.88l-2.24-34.07-6.41-16.18-2.4,3.8a.94.94,0,0,1-1.73-.5V528.13l-7.23-22.33-2.58,10a.93.93,0,0,1-.9.7h0a.93.93,0,0,1-.9-.71l-5.26-20.68a.06.06,0,0,1,0,0l-16.56-78.66v5.49a.56.56,0,1,1-1.13,0v-2.55l-11.29,76-1.5,22.27a.94.94,0,0,1-1.77.38l-1.06-2-6.56,16v35.13a1,1,0,0,1-.1.42l-8.64,17.2a.94.94,0,0,1-1.67,0L617,567.11l-8.62,23.45v19a.94.94,0,0,1-.94.94H590.57a.94.94,0,0,1-.94-.94V592.88l-17.42-33.4h-26a.93.93,0,0,1-.94-.94V547.38L543.1,543l-2.47,7V565a.91.91,0,0,1-.14.5L530,582.25a.43.43,0,0,1-.08.11l-11,12.78a.93.93,0,0,1-.94.3.94.94,0,0,1-.69-.71l-2.11-9.48-2.45,10.62a.93.93,0,0,1-.91.73h-4.32a.94.94,0,0,1-.87-.59l-6.51-16.27v10.11a.56.56,0,1,1-1.13,0V579.69l-11.5,26.5a1,1,0,0,1-.86.56H457.66a.93.93,0,0,1-.83-.48l-5.38-9.87v8.5a.56.56,0,0,1-.56.56.57.57,0,0,1-.57-.56v-8.21l-5,10.11a.93.93,0,0,1-.84.52h-6.39a.93.93,0,0,1-.94-.94V593.74l-2.79-8.94-3.79,8.61v12a1,1,0,0,1-.29.68.92.92,0,0,1-.69.25l-8.06-.37a.94.94,0,0,1-.89-.94V594.27l-5.07-3.48a.94.94,0,0,1-.4-.81l5.47-134.06L378.14,306v7.09a.56.56,0,1,1-1.13,0v-7.89l-53.7,152.22v42.33a.94.94,0,0,1-.75.92L272.18,511a.94.94,0,0,1-1.13-.92V488.15l-9.74-30.75v6.87a.56.56,0,1,1-1.13,0v-6.88l-9.8,32.26v24.93a1,1,0,0,1-.78.93l-47.12,8.77a.92.92,0,0,1-.7-.15.94.94,0,0,1-.39-.61l-2.67-14.93-5.52,19.27-8.89,39.54a.94.94,0,0,1-.92.74h-1.69a.94.94,0,0,1-.9-.68l-1.93-6.8-3,6.75v11.17a.94.94,0,0,1-.93.94H171a.94.94,0,0,1-.94-.94V568.12h-.76a.93.93,0,0,1-.92-.76l-1-5.15-1.26,5.19a.94.94,0,0,1-.91.72h-1.88v26.22a.94.94,0,0,1-.94.94h-2.94v11.28a.94.94,0,0,1-.94.94h-3.57v.37h3.57a.94.94,0,0,1,.7.31,1,1,0,0,1,.24.72l-5.51,56.65a1,1,0,0,1-.94.85h-3.32v7.83a1,1,0,0,1-.34.72c-8.36,7-14.28,25.81-15.33,29.3l54.56,66,54.09-27.41,63.46,72.59H677.53l80.61-73.89Z"/><path class="cls-2" d="M677.79,494.9l5.27,20.68,3.38-13.16L694.71,528v30.56l3.38-5.37,7.14,18,2.26,34.22h5.64L718,599l5.63,9.77h18.42l6.4-53,14.28,50.76v25.19h5.64V585.51L770.28,569l1.88,14.29,5.26-71.06L798.48,581h2.26l3.89-14.66,2.32,5.82,10.9-81.7v-4.94a.93.93,0,0,0-.37.61l-11,82.35-1-2.49a.94.94,0,0,0-1.78.1l-3.7,14h-.84l-20.85-68.14a.94.94,0,0,0-1-.66,1,1,0,0,0-.84.87l-4.59,61.93-.68-5.22a.94.94,0,0,0-.93-.82h0a.94.94,0,0,0-.93.83l-1.88,16.54s0,.07,0,.1v45.3H763.7V606.57a.84.84,0,0,0,0-.26l-14.29-50.76a.94.94,0,0,0-1.84.15l-6.29,52.18H724.2l-5.36-9.3a.94.94,0,0,0-1.56-.1l-4.6,6h-4.3l-2.2-33.33a.9.9,0,0,0-.07-.28l-7.14-18a.94.94,0,0,0-1.67-.15l-1.65,2.61V528a.85.85,0,0,0,0-.29l-8.27-25.56a.94.94,0,0,0-.89-.65h0a.94.94,0,0,0-.88.7l-2.47,9.6-4.36-17.1-18-85.7a1,1,0,0,0-.35-.55v3.45Z"/><path class="cls-2" d="M457.66,605.81h28.95L499,577.32v-2.1a.91.91,0,0,0-.25.33L486,604.87H458.22L451.72,593a.92.92,0,0,0-.26-.29v1.77Z"/><path class="cls-2" d="M421.6,455.81,416.11,590l5.48,3.76v11.28l8,.38V593.21l4.89-11.09,3.57,11.47v12.79h6.39l5.82-11.82v-1.9a1,1,0,0,0-.28.33l-6.13,12.45H439V593.59a1.06,1.06,0,0,0,0-.28l-3.58-11.46a.94.94,0,0,0-1.75-.1l-4.89,11.09a.92.92,0,0,0-.08.37v11.24l-6.17-.29V593.78a1,1,0,0,0-.41-.78l-5-3.46,5.46-133.69a.9.9,0,0,0,0-.3l-44-155.08a.93.93,0,0,0-.37-.51v2.64Z"/><path class="cls-2" d="M834.39,567.18l3.38-12.12L840,572v22.55h5.64l6.2,40h3.94L858.63,663l32.21,3.92,1-.82-32.39-3.94-2.75-27.64a.94.94,0,0,0-.93-.84h-3.14l-6.08-39.24a.94.94,0,0,0-.93-.8H841V572a.42.42,0,0,0,0-.13l-2.25-16.92a.94.94,0,0,0-1.84-.13l-2.32,8.31-15.22-77.05a.93.93,0,0,0-.36-.56v3.62Z"/><path class="cls-2" d="M507.48,595.66h4.32L515.19,581l3,13.54,11-12.79L539.68,565v-15l3.26-9.28,3.26,6.52v11.38h26.57l17.8,34.11v16.92h16.92V590.4l9.4-25.57,10.53,19.55,8.65-17.2V531.87l7.39-18.05,2,3.76,1.51-22.3L659.18,413v-4.52a.92.92,0,0,0-.37.6L646,495.14a.31.31,0,0,0,0,.08l-1.28,19-.46-.86a.93.93,0,0,0-.88-.5.94.94,0,0,0-.82.58l-7.4,18a1,1,0,0,0-.07.36V567l-7.74,15.38-9.67-18a.94.94,0,0,0-1.71.12l-9.4,25.57a.94.94,0,0,0-.06.32v18.23h-15v-16a.93.93,0,0,0-.11-.43L573.6,558.11a1,1,0,0,0-.83-.5H547.14V547.16a1,1,0,0,0-.1-.42l-3.26-6.51a1,1,0,0,0-.9-.52.94.94,0,0,0-.82.62l-3.26,9.28a.87.87,0,0,0-.05.31v14.77l-10.35,16.5-9.7,11.31-2.6-11.71a.94.94,0,0,0-.91-.73h0a.94.94,0,0,0-.92.73l-3.22,13.94h-2.94l-7.66-19.15a.94.94,0,0,0-.35-.43v2.08Z"/><path class="cls-2" d="M954.62,673.68l-1.2-.15,2,1A.94.94,0,0,0,954.62,673.68Z"/><path class="cls-2" d="M272,488v22.06l50.37-10.28V457.3L377,302.43V300a.94.94,0,0,0-.29.4L321.49,457a.84.84,0,0,0-.06.31V499l-48.5,9.89V488a.93.93,0,0,0,0-.28l-11.28-35.59a.92.92,0,0,0-.3-.43v2.59Z"/><path class="cls-2" d="M148.67,674.24v-8.77h4.26l5.51-56.65h-4.51v-2.25h4.51V594.34h3.89V567.18h2.82l2.26-9.31,1.88,9.31H171v11.37h3.95V567.18l4.14-9.31,2.63,9.31h1.69l8.9-39.57,6.64-23.19,3.38,18.92,47.12-8.77V489.51l10.75-35.35v-2.52a.92.92,0,0,0-.37.49l-11.28,37.1a.82.82,0,0,0,0,.27v24.28l-45.42,8.46-3.22-18a.94.94,0,0,0-.88-.77,1,1,0,0,0-1,.68l-6.63,23.18,0,.05-8.73,38.84h-.23L180,557.62a.94.94,0,0,0-1.76-.13l-4.13,9.31a.91.91,0,0,0-.08.38v10.43h-2.07V567.18a.94.94,0,0,0-.93-.94h-.92l-1.73-8.55a.94.94,0,0,0-1.84,0l-2.08,8.59h-2.08a.94.94,0,0,0-.94.94V593.4h-2.95a.94.94,0,0,0-.94.94v11.28h-3.57a.94.94,0,0,0-.94.94v2.25a.94.94,0,0,0,.94.94h3.47l-5.33,54.76h-3.41a.94.94,0,0,0-.94.94v8.34c-8,7-13.53,23.26-15.22,28.71l.72.87C134.67,698.7,140.46,681.16,148.67,674.24Z"/><path class="cls-2" d="M456.84,606.26a.93.93,0,0,0,.83.48h28.95a1,1,0,0,0,.86-.56l11.5-26.5v-2.37l-12.36,28.49H457.66l-6.21-11.38v2Z"/><path class="cls-2" d="M149.28,675a1,1,0,0,0,.34-.72v-7.83h3.32a1,1,0,0,0,.94-.85l5.51-56.65a1,1,0,0,0-.24-.72.94.94,0,0,0-.7-.31h-3.57v-.37h3.57a.94.94,0,0,0,.94-.94V595.28h2.94a.94.94,0,0,0,.94-.94V568.12h1.88a.94.94,0,0,0,.91-.72l1.26-5.19,1,5.15a.93.93,0,0,0,.92.76H170v10.43a.94.94,0,0,0,.94.94h3.95a.94.94,0,0,0,.93-.94V567.38l3-6.75,1.93,6.8a.94.94,0,0,0,.9.68h1.69a.94.94,0,0,0,.92-.74l8.89-39.54,5.52-19.27,2.67,14.93a.94.94,0,0,0,.39.61.92.92,0,0,0,.7.15l47.12-8.77a1,1,0,0,0,.78-.93V489.65l9.8-32.26v-3.23l-10.75,35.35v25.07l-47.12,8.77-3.38-18.92-6.64,23.19-8.9,39.57h-1.69l-2.63-9.31-4.14,9.31v11.37H171V567.18h-1.7l-1.88-9.31-2.26,9.31h-2.82v27.16h-3.89v12.22h-4.51v2.25h4.51l-5.51,56.65h-4.26v8.77c-8.22,6.92-14,24.46-15.44,29.15l.72.87C135,700.77,140.92,682,149.28,675Z"/><path class="cls-2" d="M676.87,495.09a.06.06,0,0,0,0,0l5.26,20.68a.93.93,0,0,0,.9.71h0a.93.93,0,0,0,.9-.7l2.58-10,7.23,22.33v30.41a.94.94,0,0,0,1.73.5l2.4-3.8,6.41,16.18,2.24,34.07a1,1,0,0,0,.94.88h5.64a1,1,0,0,0,.75-.37l4-5.27,4.94,8.55a.93.93,0,0,0,.81.47h18.42a1,1,0,0,0,.94-.83l5.83-48.34,13,46.1v25.06a.94.94,0,0,0,.94.94h5.64a.94.94,0,0,0,.94-.94v-46.2l1-8.87.88,6.68a1,1,0,0,0,1,.82.94.94,0,0,0,.9-.87l4.9-66.06,19.59,64a.94.94,0,0,0,.9.67h2.26a.93.93,0,0,0,.9-.7l3.16-11.91,1.26,3.18a.94.94,0,0,0,1.8-.22l10-74.73v-7.1l-10.9,81.7-2.32-5.82L800.74,581h-2.26l-21.06-68.81-5.26,71.06L770.28,569l-1.88,16.54v46.25h-5.64V606.57l-14.28-50.76-6.4,53H723.66L718,599l-4.89,6.39h-5.64l-2.26-34.22-7.14-18-3.38,5.37V528l-8.27-25.57-3.38,13.16-5.27-20.68-17.48-83v4.55Z"/><path class="cls-2" d="M833.47,567.36a.94.94,0,0,0,.89.76,1,1,0,0,0,.94-.69l2.15-7.71L839.09,572v22.49a.94.94,0,0,0,.94.94h4.83l6.08,39.24a.93.93,0,0,0,.93.79H855L857.7,663a.94.94,0,0,0,.82.84l31.29,3.8,1-.82L858.63,663l-2.82-28.39h-3.94l-6.2-40H840V572l-2.26-16.92-3.38,12.12L819,489.13V494Z"/><path class="cls-2" d="M506.6,596a.94.94,0,0,0,.87.59h4.32a.93.93,0,0,0,.91-.73l2.45-10.62,2.11,9.48a.94.94,0,0,0,.69.71.93.93,0,0,0,.94-.3l11-12.78a.43.43,0,0,0,.08-.11l10.53-16.79a.91.91,0,0,0,.14-.5V550.08l2.47-7,2.17,4.33v11.16a.93.93,0,0,0,.94.94h26l17.42,33.4v16.69a.94.94,0,0,0,.94.94h16.92a.94.94,0,0,0,.94-.94v-19L617,567.11l9.53,17.71a.94.94,0,0,0,1.67,0l8.64-17.2a1,1,0,0,0,.1-.42V532.06l6.56-16,1.06,2a.94.94,0,0,0,1.77-.38l1.5-22.27,11.29-76V413L647,495.28l-1.51,22.3-2-3.76-7.39,18.05v35.31l-8.65,17.2-10.53-19.55-9.4,25.57v19.17H590.57V592.65l-17.8-34.11H546.2V547.16l-3.26-6.52-3.26,9.28v15l-10.53,16.79-11,12.79-3-13.54-3.39,14.67h-4.32l-7.38-18.45v2.52Z"/><path class="cls-2" d="M420.65,455.92,415.18,590a.94.94,0,0,0,.4.81l5.07,3.48v10.79a.94.94,0,0,0,.89.94l8.06.37a.92.92,0,0,0,.69-.25,1,1,0,0,0,.29-.68v-12l3.79-8.61,2.79,8.94v12.64a.93.93,0,0,0,.94.94h6.39a.93.93,0,0,0,.84-.52l5-10.11v-2.12l-5.82,11.82h-6.39V593.59l-3.57-11.47-4.89,11.09v12.22l-8-.38V593.78L416.11,590l5.48-134.21L378.14,302.59V306Z"/><path class="cls-2" d="M271,488.15v21.91a.94.94,0,0,0,1.13.92l50.38-10.28a.94.94,0,0,0,.75-.92V457.46L377,305.24v-2.82L322.37,457.3v42.49L272,510.07V488l-10.69-33.72v3.12Z"/><path class="cls-2" d="M260.71,451.47h0v0a.93.93,0,0,1,.56.22V421.92a.56.56,0,1,0-1.13,0v29.73a1,1,0,0,1,.53-.17Z"/><path class="cls-2" d="M260.74,464.84a.57.57,0,0,0,.56-.57V457.4l-.56-1.78v0l-.55,1.81v6.88A.56.56,0,0,0,260.74,464.84Z"/><path class="cls-2" d="M260.74,452.5l.56,1.78V451.7a.93.93,0,0,0-.56-.22Z"/><path class="cls-2" d="M260.71,452.41l0,.09v-1h0a1,1,0,0,0-.53.17v2.52Z"/><polygon class="cls-2" points="260.73 455.58 260.74 455.62 260.74 452.5 260.71 452.41 260.18 454.16 260.18 457.39 260.73 455.58"/><polygon class="cls-2" points="261.31 457.4 261.31 454.29 260.74 452.5 260.74 455.62 261.31 457.4"/><path class="cls-2" d="M450.89,592.47v0a.93.93,0,0,1,.56.19V562.53a.56.56,0,0,0-.56-.56.57.57,0,0,0-.57.56v30.13a.92.92,0,0,1,.55-.2Z"/><path class="cls-2" d="M450.89,605.46a.56.56,0,0,0,.56-.56v-8.5l-.52-1,0,.08v0l-.57,1.15v8.21A.57.57,0,0,0,450.89,605.46Z"/><path class="cls-2" d="M450.89,593.4l.56,1v-1.77a.93.93,0,0,0-.56-.19Z"/><path class="cls-2" d="M450.89,593.4v-.94h0a.92.92,0,0,0-.55.2v1.9Z"/><polygon class="cls-2" points="450.89 595.52 450.89 593.4 450.32 594.56 450.32 596.68 450.89 595.52"/><polygon class="cls-2" points="450.94 595.44 451.45 596.39 451.45 594.43 450.89 593.4 450.89 595.52 450.94 595.44"/><path class="cls-2" d="M499.53,547.49V575h.06a.93.93,0,0,1,.51.16V547.49a.56.56,0,1,0-1.13,0v27.73a.92.92,0,0,1,.56-.23Z"/><path class="cls-2" d="M499.53,590.42a.57.57,0,0,0,.57-.57V579.74l-.55-1.38,0,0v0l-.56,1.29v10.16A.56.56,0,0,0,499.53,590.42Z"/><path class="cls-2" d="M499.53,576v-1a.92.92,0,0,0-.56.23v2.1Z"/><path class="cls-2" d="M499.58,575h0v1l0-.11.52,1.3v-2.08a.93.93,0,0,0-.51-.16Z"/><polygon class="cls-2" points="499.53 578.4 499.53 576.03 498.97 577.32 498.97 579.69 499.53 578.4"/><polygon class="cls-2" points="499.55 578.36 500.1 579.74 500.1 577.22 499.58 575.92 499.53 576.03 499.53 578.4 499.55 578.36"/><path class="cls-2" d="M377.58,270.78v29h.06a.93.93,0,0,1,.5.17V270.78a.56.56,0,0,0-1.13,0V300a.93.93,0,0,1,.56-.22Z"/><path class="cls-2" d="M377.58,313.7a.56.56,0,0,0,.56-.56V306l-.56-2v0l-.07-.24-.5,1.41v7.89A.56.56,0,0,0,377.58,313.7Z"/><path class="cls-2" d="M377.61,299.79h0v1l0-.09.53,1.86V300a.93.93,0,0,0-.5-.17Z"/><path class="cls-2" d="M377.58,300.82v-1a.93.93,0,0,0-.56.22v2.41Z"/><polygon class="cls-2" points="378.14 306.05 378.14 302.59 377.61 300.73 377.58 300.82 377.58 304.07 378.14 306.05"/><polygon class="cls-2" points="377.51 303.83 377.58 304.07 377.58 300.82 377.01 302.43 377.01 305.24 377.51 303.83"/><path class="cls-2" d="M818.4,485.32v0a.94.94,0,0,1,.57.19v-22a.56.56,0,0,0-1.13,0v22a.93.93,0,0,1,.53-.2Z"/><path class="cls-2" d="M818.4,506.43a.57.57,0,0,0,.57-.56V494l-.39-2-.18,1.34v0l-.56,4.2v8.31A.56.56,0,0,0,818.4,506.43Z"/><path class="cls-2" d="M818.4,486.25l.57,2.88v-3.62a.94.94,0,0,0-.57-.19Z"/><path class="cls-2" d="M818.4,486.25v-.93h0a.93.93,0,0,0-.53.2v4.94Z"/><polygon class="cls-2" points="818.58 492.01 818.97 493.98 818.97 489.13 818.4 486.25 818.4 493.35 818.58 492.01"/><polygon class="cls-2" points="818.4 493.35 818.4 486.25 817.84 490.46 817.84 497.56 818.4 493.35"/><path class="cls-2" d="M659.74,408.24v0a.9.9,0,0,1,.57.19V379.56a.56.56,0,0,0-1.13,0v28.88a.93.93,0,0,1,.54-.2Z"/><path class="cls-2" d="M659.74,422.48a.57.57,0,0,0,.57-.57v-5.49l-.41-1.93-.16,1.09v0l-.56,3.78v2.55A.56.56,0,0,0,659.74,422.48Z"/><path class="cls-2" d="M659.74,409.18l.57,2.7v-3.45a.9.9,0,0,0-.57-.19Z"/><path class="cls-2" d="M659.74,409.18v-.94h0a.93.93,0,0,0-.54.2V413Z"/><polygon class="cls-2" points="659.9 414.5 660.31 416.43 660.31 411.88 659.74 409.18 659.74 415.59 659.9 414.5"/><polygon class="cls-2" points="659.74 415.59 659.74 409.18 659.18 412.96 659.18 419.37 659.74 415.59"/><path d="M141.72,682.41s55.51,62.36,55.51,67,37.22-27.57,37.22-27.57,87.51,84,98.61,90.58-12.93.1-12.93.1-30.82-22.42-30.82-25-28.54-28.62-33.7-29.57S235.76,733,235.76,733l-17.63,8.53s-19.2,14.24-23.64,14.67c0,0-56-74.73-59.95-75.06"/><path d="M874,677.1c-3.92.33-59.95,75.06-59.95,75.06-4.44-.43-23.64-14.67-23.64-14.67L772.77,729s-14.69,24-19.85,24.91-33.7,26.94-33.7,29.57-30.82,25-30.82,25-24,6.47-12.93-.1,98.61-90.58,98.61-90.58S811.3,750,811.3,745.37s55.51-67,55.51-67L880,660l6.5-1.5-3,6"/><path d="M651,814.33s24.5-4.83,28-8.33,9.39,2.48,9.39,2.48l-33.39,8"/><rect class="cls-1" x="799.87" y="296.77" width="1.73" height="3.47"/><path class="cls-1" d="M819.8,320.17l19.93-13,2.6-6.07-13-4.33c-9.53,8.67-17.33,13-22.53,13Q810.7,320.17,819.8,320.17Z"/><path class="cls-1" d="M630,833.23l5.39-3.37c-1.76.93-3.62,1.9-5.57,2.91Z"/><polygon class="cls-1" points="905.77 625.9 905.6 625.23 905 625.08 905.77 625.9"/><path class="cls-1" d="M122.13,255.17c2.6,0,8.67,3.47,18.2,12.13,28.6,11.27,47.67,25.13,55.47,41.6l-1.73,5.2v1.73h1.73c2.6,0,3.47-3.47,4.33-10.4l4.33,3.47,1.73-1.73v-1.73a24.71,24.71,0,0,0-10.4-20.8V282.9h1.73c6.07,3.47,9.53,8.67,9.53,13.87h2.6v-.87c0-4.33-5.2-13-18.2-25.13-15.6-7.8-35.53-22.53-57.2-45.93,0-2.6-4.33-6.93-13-12.13L119.53,204l-13.79,8.43L94.4,191c0,11.27,6.93,29.47,20.8,53.73C119.53,248.23,122.13,251.7,122.13,255.17Z"/><path class="cls-1" d="M119.42,199.7c0,2.66.11,4.33.11,4.33V199.7Z"/><path class="cls-1" d="M839.73,240.43c-25.13,18.2-37.27,30.33-37.27,33.8-11.27,7.8-17.33,16.47-17.33,24.27h4.33v-4.33c0-5.2,3.47-9.53,10.4-13.87V282l-6.07,9.53v9.53h1.73a18.58,18.58,0,0,1,9.53-16.47h1.73v1.73l-5.2,9.53h.87c2.6-3.47,16.47-13.87,40.73-31.2l24.27-17.33c12.13-12.13,19.07-23.4,21.67-32.07l-13.87,13-14.53-10.48C850.5,231.83,843.33,239.71,839.73,240.43Z"/><path class="cls-1" d="M159.4,301.1l-6.93,1.73v8.67l20.8,8.67,6.93.87c6.93-1.73,9.53-4.33,9.53-8.67-13.87-2.6-23.4-6.93-27.73-11.27Z"/><polygon class="cls-1" points="750.47 52.37 751.33 52.37 757.4 54.1 755.67 52.37 755.67 51.5 757.4 45.43 753.07 42.83 751.33 42.83 753.07 43.7 753.07 45.43 750.47 52.37"/><path class="cls-1" d="M841.81,758.82c-3,5.42-5.19,9.79-5.09,11.18l-2.56-8.88a55.34,55.34,0,0,1-5.16,3.26l-.53-23L818.07,750s-15.05-6.72-18.56-14.44a7.83,7.83,0,0,0-.84-1.38l-8.8-7.18a161.66,161.66,0,0,0-19.47-9.93c-1.24,2.65-2.5,5.18-3.79,7.65l3.4,36.82L732.8,785.44l-11.28-5.68A79.17,79.17,0,0,1,708,788.17c13.56-4.48-10.31,33.79-10.31,33.79l-60.76,31.21c35.53-12.13,60.67-24.27,75.4-37.27,4.33,0,26-19.07,65-56.33h4.33A263.7,263.7,0,0,1,822.4,792.5l4.33-1.73v-2.6C834.68,776.56,839.59,766.68,841.81,758.82Z"/><path class="cls-2" d="M748.73,332.3c3.47,0,6.07,4.33,6.07,12.13q3.9,0,5.2,20.8l-2.6,13c10.16,19.25,14.72-2.86,14.72-2.86l-11.94-50.56-9.83-16.15L740.07,321C746.13,322.77,748.73,326.23,748.73,332.3Z"/><path class="cls-2" d="M821.53,505.63c7.8,7.8,16.47,24.27,25.13,49.4,6.2,5.36,9.72-7.63,9.72-7.63l-45.64-64.6-9.13-12.64-3.48,11.2C813.73,492.63,821.53,501.3,821.53,505.63Z"/><path d="M119.42,199.7h.11V204l1.73,8.67c8.67,5.2,13,9.53,13,12.13,21.67,23.4,41.6,38.13,57.2,45.93,13,12.13,18.2,20.8,18.2,25.13v.87h-2.6c0-5.2-3.47-10.4-9.53-13.87H195.8v1.73a24.71,24.71,0,0,1,10.4,20.8v1.73l-1.73,1.73-4.33-3.47c-.87,6.93-1.73,10.4-4.33,10.4h-1.73V314.1l1.73-5.2c-7.8-16.47-26.87-30.33-55.47-41.6-9.53-8.67-15.6-12.13-18.2-12.13,0-3.47-2.6-6.93-6.93-10.4C101.33,220.5,94.4,202.3,94.4,191l.87-7.8-4.33,3.47v14.73c0,5.2,3.47,13.87,10.4,26.87,6.93,20.8,27.73,39.87,62.4,58.07v.87a76,76,0,0,1-21.67,17.33v.87l1.73,1.73c.87,6.07,13.87,13,39.87,20.8,8.67-2.6,18.2-7.8,27.73-16.47,4.33-8.67,7.8-13.87,10.4-14.73h.87c-4.33,56.33-10.4,90.13-15.6,102.27-15.6,66.73-47.67,127.4-96.2,183.73a679.62,679.62,0,0,1-65,59.8v.87c6.93,2.6,26,19.07,58.07,49.4,28.6,31.2,43.33,49.4,45.07,55.47l34.67,59.8,2.6-3.47c-10.4-26.87-18.2-42.47-24.27-45.07,0-6.07-.87-9.53-2.6-9.53-2.6-9.53-6.07-14.73-10.4-14.73-2.6-6.07-5.2-9.53-8.67-9.53q0-7.8-20.8-28.6C110,687.63,99.6,680.7,90.07,674.63c-.87-6.07-4.33-9.53-8.67-9.53-13-12.13-22.53-18.2-28.6-19.93v-4.33c10.4-5.2,30.33-23.4,62.4-55.47,6.07-6.07,25.13-32.07,56.33-78.87l17.33-31.2,13.87-33.8-.87-4.33,9.53-29.47c10.4-36.4,18.2-84.93,22.53-144.73-6.07-1.73-9.53-12.13-9.53-32.07l.87-4.33h-.87V224C214,214.43,208.8,207.5,208.8,204c-21.67-27.73-42.47-40.73-60.67-40.73h-6.07l-6.67,1C121.23,170.27,119.48,190.69,119.42,199.7ZM180.2,321l-6.93-.87-20.8-8.67v-8.67l6.93-1.73H162c4.33,4.33,13.87,8.67,27.73,11.27C189.73,316.7,187.13,319.3,180.2,321Z"/><path d="M781.67,759.57h-4.33c-39,37.27-60.67,56.33-65,56.33-14.73,13-39.87,25.13-75.4,37.27-15.6,9.53-30.33,16.47-43.33,22.53-33.8,21.67-52,37.27-53.73,45.07-5.2,2.6-7.8,4.33-7.8,6.93-7.8,21.67-12.13,34.67-12.13,38.13q0,7.8-31.2,7.8c-.87-8.67-2.6-13-4.33-13,0-13-1.73-19.93-6.07-19.93,0-5.2-.87-8.67-3.47-8.67a131.06,131.06,0,0,0-32.93-36.4h-8.67l10.4,11.27c24.27,18.2,36.4,40.73,36.4,66.73v6.93l1.73.87c1.73-1.73,13.87-3.47,34.67-5.2,6.93,0,10.4-6.07,10.4-17.33,10.4-28.6,22.53-46.8,33.8-53.73q11.7-10.4,78-46.8C674.2,848,697.6,836.7,710.6,826.3Q760,784.7,760,779.5l19.07-11.27h.87c5.2,0,6.93.87,6.93,2.6,13,5.2,23.4,13.87,32.93,26h4.33l2.6-3.47v-2.6l-4.33,1.73A263.7,263.7,0,0,0,781.67,759.57Z"/><path d="M884.8,555.9c-4.33-6.07-8.67-11.27-13-13.87,0-3.47-3.47-8.67-11.27-14.73-3.47-6.07-6.07-9.53-9.53-9.53,0-4.33-.87-6.93-3.47-6.93h-.87l.87,8.67,46.8,54.6c10.4,8.67,15.6,14.73,15.6,19.07,12.13,7.8,19.07,13,19.07,16.47l21.67,15.6,1.73-1.73-45.07-40.73C897.8,568.9,890,560.23,884.8,555.9Z"/><path d="M350.07,851.43,298.93,828c-20.8-16.47-33.8-24.27-36.4-24.27,0-6.07-1.73-8.67-6.07-8.67,0-3.47-.87-6.07-2.6-6.07l-20.8-25.13c-9.53,7.8-16.47,11.27-19.93,11.27l-24.27,21.67V802h.87l35.53-26.87h8.67l1.73,1.73q0,5.2,2.6,5.2l5.2,8.67c31.2,29.47,52.87,45.93,65.87,51.13,72.8,25.13,114.4,42.47,123.07,53.73h.87V891.3C430.67,884.37,402.93,871.37,350.07,851.43Z"/><path d="M889.13,215.3c-2.6,8.67-9.53,19.93-21.67,32.07L843.2,264.7c-24.27,17.33-38.13,27.73-40.73,31.2h-.87l5.2-9.53v-1.73h-1.73a18.58,18.58,0,0,0-9.53,16.47H793.8v-9.53l6.07-9.53V280.3c-6.93,4.33-10.4,8.67-10.4,13.87v4.33h-4.33c0-7.8,6.07-16.47,17.33-24.27,0-3.47,12.13-15.6,37.27-33.8,3.59-.72,10.76-8.6,21-22.62l-.61-.44c24.81-34.64.41-54.08.41-54.08H838c-23.4,6.07-35.53,11.27-35.53,15.6q-27.3,20.8-39,70.2l.87,63.27,2.6,4.33v15.6c0,4.33,1.73,10.4,6.07,17.33l-1.73,8.67c0,3.47,1.73,7.8,6.07,13.87,6.93,31.2,14.73,53.73,22.53,67.6l-2.6,13.87c6.93,2.6,16.47,13.87,29.47,34.67l18.2,20.8h1.73v-.87q-27.3-36.4-28.6-41.6c-5.2-5.2-8.67-10.4-8.67-13.87l-.87-.87L783.4,372.17c-5.2-26-8.67-38.13-10.4-38.13l-2.6-43.33h6.93l4.33,1.73v1.73l-1.73,1.73v2.6l11.27,13.87c0,7.8,10.4,12.13,31.2,12.13a80.25,80.25,0,0,0,26.87-21.67V301.1c-10.4-8.67-18.2-12.13-20.8-12.13v-4.33c6.07-9.53,15.6-17.33,30.33-24.27,26.87-23.4,39.87-44.2,39.87-65,0-18.2-2.6-26.87-7.8-26.87h-1.73v2.6l2.6,4.33v7.8C896.66,200.11,889.13,215.3,889.13,215.3ZM801.6,300.23h-1.73v-3.47h1.73Zm27.73-3.47,13,4.33-2.6,6.07-19.93,13q-9.1,0-13-10.4C812,309.77,819.8,305.43,829.33,296.77Z"/><polygon points="596.2 861.83 596.27 861.47 594.47 861.83 596.2 861.83"/><path d="M952.4,631.3l-7.8,9.53q-45.5,33.8-62.4,62.4l-19.93,25.13h-1.73s-11.73,18-18.73,30.45c-2.22,7.86-7.13,17.74-15.07,29.35v2.6q3.9,0,10.4-15.6h2.6c3.47-7.8,6.07-11.27,7.8-11.27,0,0,1.31-20.46,14.73-28.6,20.8-25.13,31.2-39,31.2-40.73l60.67-62.4v-.87Z"/><path class="cls-2" d="M105.75,212.46,119.53,204s-.13-1.67-.11-4.33c.06-9,1.81-29.43,16-35.45.18-.08.36-.17.54-.24,19-7.37-7.74-11.11-7.74-11.11l-24.27,15.6L94.4,191Z"/><path class="cls-2" d="M828.47,741.37l.53,23a55.34,55.34,0,0,0,5.16-3.26l2.56,8.88c-.11-1.38,2-5.76,5.09-11.18,7-12.46,18.73-30.45,18.73-30.45h1.73l11.67-36.31s-7.83-4.78-11.54-3.94l-1.87,2.12C856.61,696.14,828.47,741.37,828.47,741.37Z"/><path class="cls-2" d="M708,788.17c-3.38,6.23-51.39,26.77-58.06,33.09-1.57,1.49-7.06,4.64-14.55,8.61L630,833.23l-10.25,4.65c-16.29,8.17-35.09,17.19-45.68,22.23l20.39,1.72,1.81-.36,25.58-5.11,2.07-5.89,13,2.69L697.69,822S721.56,783.69,708,788.17Z"/><path class="cls-2" d="M721.52,779.76l11.28,5.68L770,761.57l-3.4-36.82C751.51,753.87,733.55,770.83,721.52,779.76Z"/><path class="cls-2" d="M860.53,163.3s24.4,19.44-.41,54.08l.61.44,14.53,10.48,13.87-13s7.52-15.18,2.6-32.07c-4.76-16.33-23-23.77-24.2-24.24l-.06,0Z"/><path d="M206.54,497.09s6.39-16.41,4.93-3.17-54.58,87.78-54.58,87.78l-3.89-4,38.47-59.9,7.25-9.19"/><path d="M813.67,494.67s10.21,3.33,15.08,20.58-1.75-.75-1.75-.75Z"/><ellipse class="cls-3" cx="603.59" cy="425.84" rx="21.75" ry="47.25"/><line class="cls-3" x1="603.59" y1="473.09" x2="603.59" y2="569.09"/><ellipse class="cls-3" cx="504.59" cy="460.34" rx="21.75" ry="47.25"/><line class="cls-3" x1="504.59" y1="507.59" x2="504.59" y2="603.59"/><ellipse class="cls-3" cx="548.09" cy="373.35" rx="21.75" ry="47.25"/><line class="cls-4" x1="548.09" y1="420.59" x2="548.09" y2="545.09"/><path class="cls-2" d="M713.35,188.35l.79-.07C712.46,188.41,713.39,188.35,713.35,188.35Z"/><polygon class="cls-2" points="696.8 190.13 697.09 190.06 694.66 190.44 696.8 190.13"/><path class="cls-2" d="M681.32,191.83c1.5.14,5.6-.67,8.37-.87h.46l1.22-.33C688,191,683.69,191.65,681.32,191.83Z"/><path class="cls-2" d="M673,191.92c.53.1-1.77.3,1.94-.14h-.35Z"/><path class="cls-2" d="M674.53,191.78c1.63-.16-1.09,0,0,0Z"/><path class="cls-2" d="M667,192.59l2.13-.35c-.46-.05-2.39.1-1.68,0C665.25,192.5,665.72,192.57,667,192.59Z"/><path class="cls-2" d="M665,193.16l1.1-.22A2.73,2.73,0,0,0,665,193.16Z"/><path class="cls-2" d="M668.45,192.56l-1.17.18c-.59.09-1.17.2-1.17.2a1.29,1.29,0,0,0,1.08-.17C667,192.92,667.46,192.75,668.45,192.56Z"/><path class="cls-2" d="M669.8,192.49c1.22,0,2.79-.14.65.22C674.55,192.22,673.91,192,669.8,192.49Z"/><path class="cls-2" d="M680.58,192.25l1.62-.1,1.38-.27C682.89,192,680.46,192.16,680.58,192.25Z"/><path class="cls-2" d="M653.6,194.07c-.12.13.77.2.95.32l1.56-.34A11,11,0,0,1,653.6,194.07Z"/><path class="cls-2" d="M654.55,194.39l-2.34.52C654.33,194.64,654.7,194.5,654.55,194.39Z"/><path class="cls-2" d="M664.7,193.72l1.92-.45,1.93-.37s-1.15.19-2.3.43l-2.29.51Z"/><polygon class="cls-2" points="644.54 195.23 645.84 194.77 643.51 195.52 644.54 195.23"/><path class="cls-2" d="M638.54,196.08c1-.39-1.44-.26-.41-.56a28.8,28.8,0,0,0-4.2,1A22.48,22.48,0,0,1,638.54,196.08Z"/><path class="cls-2" d="M631.87,197.15c.65-.16,1.32-.37,2.05-.59A15.88,15.88,0,0,0,631.87,197.15Z"/><path class="cls-2" d="M648.17,195.41a5,5,0,0,0-1.92-.09l1,.22Z"/><path class="cls-2" d="M647.27,195.54h0l-2,.26Z"/><path class="cls-2" d="M648.4,195.38l-.23,0A.26.26,0,0,0,648.4,195.38Z"/><path class="cls-2" d="M658.47,194.35c-1.37.36-4.23,1-1.39.82C658,194.82,656.41,194.91,658.47,194.35Z"/><path class="cls-2" d="M649.63,195.64l2.52-.29c-.06-.08-.54-.14.14-.33Z"/><polygon class="cls-2" points="648.41 195.92 649.63 195.64 648.69 195.74 648.41 195.92"/><path class="cls-2" d="M636.24,196.93a28.4,28.4,0,0,1-3.58.72c1.45-.12,2.95-.3,4.36-.5C637.2,197,637.78,196.7,636.24,196.93Z"/><path class="cls-2" d="M641.61,196.29l-.24.05C641.52,196.35,641.65,196.35,641.61,196.29Z"/><path class="cls-2" d="M619.46,199.61l.23,0a.72.72,0,0,1,0-.09Z"/><path class="cls-2" d="M637.27,197.19a8.46,8.46,0,0,0,2.32-.47c-.8.15-1.65.3-2.57.43C636.94,197.22,636.93,197.26,637.27,197.19Z"/><path class="cls-2" d="M628.21,197.84c.58,0,1.23,0,1.91,0A6.16,6.16,0,0,0,628.21,197.84Z"/><path class="cls-2" d="M641,196.29l.16,0C640.78,196.22,640.83,196.25,641,196.29Z"/><path class="cls-2" d="M641,196.29a14.4,14.4,0,0,0-1.4.43c.65-.12,1.26-.25,1.78-.38A2.44,2.44,0,0,1,641,196.29Z"/><path class="cls-2" d="M616,203.28c.11-.47,2.85-1.4,5.36-1.44,2.33-.78.53-1.79-1.7-2.19,0,.2,0,.36-2.43,1.06.91.08,5.57-.48,3.56.28-3.22.83-2.7.36-4.33.43,1.44.27-4,1.57-3.14,2.24l2.8-.84C616.22,202.93,615.22,203.33,616,203.28Z"/><path class="cls-2" d="M624.42,198.94l1-.2a23.19,23.19,0,0,1-3.63,0c-1.66.49-2,.71-2.07.87l2.51-.41,2.52-.33Z"/><path class="cls-2" d="M630,198.08c-.73.53-3.15,1.07-1.56,1.3,3-.48,2-.66,3.8-1.11-4.82.81,1.35-.43-2.19-.16.94-.21,1.79-.35,2.6-.48-.88.07-1.73.13-2.54.16h.13c.22,0,.29,0,.05,0l-.1,0a.52.52,0,0,1-.19.19c-1.42.11-.24-.08.19-.19,0,0,0,0,0-.07h0l-4.81.92C626.47,198.65,627.75,198.45,630,198.08Z"/><path class="cls-2" d="M654.6,196.25c-.15,0-.15,0-.17,0C654.13,196.29,654,196.34,654.6,196.25Z"/><path class="cls-2" d="M652.59,196.37a6.84,6.84,0,0,1,1.76-.42c1-.06,0,.15.09.25.67-.2,2.37-.6.19-.42l-.34.1a18.45,18.45,0,0,1-4.2.06A8,8,0,0,0,652.59,196.37Z"/><path class="cls-2" d="M641.2,197.44l-4,.8h2.11l-.14-.18C641.48,197.79,640.94,197.63,641.2,197.44Z"/><polygon class="cls-2" points="618.96 199.46 619.41 198.89 617.21 199.98 618.96 199.46"/><polygon class="cls-2" points="613.75 200.44 613.87 199.97 612.53 200.47 613.75 200.44"/><path class="cls-2" d="M335,302.31l-.91.77A7.11,7.11,0,0,0,335,302.31Z"/><path class="cls-2" d="M342.48,298.16v-.43C342.23,298.1,342.17,298.31,342.48,298.16Z"/><path class="cls-2" d="M486.77,229.56c-1.88-.15-4.07-.62-3.62.11l.75.61A8.84,8.84,0,0,1,486.77,229.56Z"/><path class="cls-2" d="M404.37,263.86l.57.05.78-1.21Z"/><path class="cls-2" d="M404.6,267.63l-2.33.34A12.86,12.86,0,0,0,404.6,267.63Z"/><path class="cls-2" d="M300.77,332.14l-.25,1.56C301.88,332.08,301,332.53,300.77,332.14Z"/><path class="cls-2" d="M560.46,210.92a27.89,27.89,0,0,0-3.77.41C558.55,211.32,560.11,211.55,560.46,210.92Z"/><path class="cls-2" d="M333.45,292.83c-.56.51-.75.82-.64,1C333.4,293.29,333.69,292.93,333.45,292.83Z"/><path class="cls-2" d="M552.43,212.26c.28,0,.54,0,.82,0a25.57,25.57,0,0,1,3.44-.91A8.67,8.67,0,0,0,552.43,212.26Z"/><path class="cls-2" d="M238,487.17l-.1.38S238,487.42,238,487.17Z"/><path class="cls-2" d="M230.89,536.6l0-2.05Z"/><path class="cls-2" d="M592.69,203.93c1.1-.23.16-.09,0,0Z"/><path class="cls-2" d="M598.5,205.06c-.22.1-.39.21-.39.34A.74.74,0,0,1,598.5,205.06Z"/><path class="cls-2" d="M542.52,218.84l-.09,0C542.78,218.91,542.72,218.9,542.52,218.84Z"/><path class="cls-2" d="M594.41,203.88c-.43,0-.92,0-1.45.09C593.2,204,593.64,203.95,594.41,203.88Z"/><path class="cls-2" d="M594.13,203.67l1-.12C595.24,203.43,595.1,203.4,594.13,203.67Z"/><path class="cls-2" d="M591.16,204.23c.63-.12,1.23-.2,1.81-.26-.23,0-.32,0-.27,0Z"/><path class="cls-2" d="M259.79,398.51c0,.06-.09.14-.14.2C259.5,399.85,259.64,399.38,259.79,398.51Z"/><path class="cls-2" d="M461.52,246.46l.11-.08-.17,0Z"/><path class="cls-2" d="M457.93,248.34a4.83,4.83,0,0,1,3.54-1.93l-2-1.84Z"/><path class="cls-2" d="M318.68,313.75l.4-.19.9-.38,1.31-.55a17.15,17.15,0,0,1-1.34,1.88c-.4.52-.73.94-.94,1.22-.41.58-.27.66,1,.25-.71-1.14,1.34-2.8,3.36-4.48s4.12-3.15,3.53-4.35l.27-.09.6-.15.86-.22c-.42.24-.4.41-.81.64a2.71,2.71,0,0,0,2.42-2,4.87,4.87,0,0,1,2.86-3c1.5-.63,2.67-.85,1.88,0l2.78-2.35c.93-.47.94.05,0,.53l2.32-1.45,2.36-1.4v.09a27.24,27.24,0,0,1,2.37-2.8c1.41-.33-.48.58,0,.71l2.37-2c1.42,0-.48,1.81-2.37,2.72,3.78,1,1.87-1.84,8-3.27l-1.2.8c-.61.39-1.19.82-1.19.82,2.33.48,4.09-1,7.4-1.61-.9-.1-6.89.79-4.25-1.29a7.42,7.42,0,0,0,3.4-2c.45.85,1.89-.15,3.81-1.18l.44,1.2c1.93-1.39,1.48-1.88,2.46-3,2.41-1,3.35-.36,4.27.12,3.88-1.6-3.31-.19,1.08-2.52,3.37-1.05,5.36-2.57,8.82-5.05,2.4-.65-.06.89.89.85l1.53-1.85c.49-.2.47.15.45.33,1.51-1.1-.39-1.22,2.1-2.7.14-1.6,6.25-.49,8.87-3.39.95,0-.07.89.37,1.23,4.05-2.93,3.53-2.38,6.65-5.3,0,0,.86-.16,1.74-.28l1.75-.26c-2.7.06-.16-2.19,2.1-4.11-1-.09-1.87-.18-2.42-.16l3.93-2.32c.59,0,.33.56-.15,1.33.25-.21.48-.42.65-.59,1.67-.17,1.18.83.38,1.92-.6,0-1.21-.07-1.8-.12-.74,1.13-1.37,2.32-.87,2.92a5,5,0,0,1,1.23-.87c-.19.3-.29.55-.12.61s.52-.37,1.08-.95l1.49.93,0-.62,5.77-1.39c1.68-1.45,3.17-3,5-4.59a35.05,35.05,0,0,1,3.05-2.37,32.29,32.29,0,0,1,4-2.21c-1.19,1.54.27,1.7.62,2.87-1.09-.29-2.25.29-3.56,1.06a19.85,19.85,0,0,1-4.37,2.35c1.72-.55,1.57.14,1.22.51l2.64-1.71c.66-.44,1.33-.83,1.83-1.14l.84-.51c.23,1,1.5.24,3.15.07-1.84-1.42,3.84-2.83,6-4.27.38.56,0,1.41-2.88,2.33,3.68.21,3.29-3.69,6.84-3.67-.7.28-1.11.32-1.27.74,1.44-1.16,5.6-2.21,4.85-1.32l-.69.27c2.37-.74,5.89-2.12,8.89-3.39s5.43-2.57,5.52-3.46a7.45,7.45,0,0,1-.15,2.48l3.31-4,3.34-4c-.3,1.57,3.59,3.75-.06,5.82a12.73,12.73,0,0,0,4.84-1.71c-.82.07-2.54-1.26-1.53-1.73,3.35.49,2.25.11,6.19.15-1.24.11-.63-2.38,1.2-2.92-.18.4.8,2,.21,2.41l3.86-3.53c-1,.75.34,1.75,1.53,2-.6-.25,3.94-1.17,5.09-1.74l-2.07.13c5.22-1.28,4.21-4.34,9.36-5.77-.5.59-.77,3,1.9,2.41.88-1.37,3.83-6.41,8.16-8.5l1,.3,3.3-1.67a89.24,89.24,0,0,1-9.84,9.31c2.05-.14.73.51,3.59-.43,1.17.22-1.33,1.29-2.16,1.59l6.78-1.74c-.63-1.06,4.78-2.74,4.25-3.61l-6.93,3.43c-.64-1.07,3.25-4.56,8.08-5.79,1.35.11-.34,2.28-.12,2.65a12.72,12.72,0,0,1,4.85-1.86l-1.86,1.16c2.78-.32,3.94-2.68,7.44-2.49,1.13-.23,3.69.51,3.7-.19-2.14-.76-3.57-4.58-2.61-5.84a65.56,65.56,0,0,1,7.6-.06c2.08.48-2.13,3.05-.35,3.47,0-.32.9-1,1.29-1.19,1.23-.06-.24,1,2.25.22.14-1.21,5.16-1.31,1-1.25,2.39-1,2.69-.49,5.58-1.33-1.1-.45,2-3.06,4.43-4-.08.31.57.51.88.6,5.14-1.14,8-1.28,12.78-2.4.5.14,2.87-.11,2,.56a8.83,8.83,0,0,1,2.66-1.2c3,.18-3.25.91-.83,1.43,0-.63,3.61-1.71,5.63-2.56-.85-.72-4.89,1-6.9,1.83-.31-1.24,3.05-3.39,7.94-5.06,3.92-1.19,1.9.38,2.55.06,7.52-1.5,5.93-3.45,12.33-4,2.64.24.42,1.4,1.08,1.81-3.18,1-5.07.67-7.26,1.19l2.78-.27a14.29,14.29,0,0,1-4.32,1.22c1.1.1,4.26-.61,7.88-1.42s7.75-1.5,10.7-1.8c1-.43,2.71-1,1.81-1.12l-1.81.45c-1.8-.22,3.3-1.42.92-1.23A33.26,33.26,0,0,1,601,204l.8.61a7.06,7.06,0,0,0-3.29.4c1.39-.59,5.51,0,6.91-1.28l-2.53,0c2.4-.83,5.33-2.12,8.46-2.46-1.53-.43-.7.21-3-.21,2.09.67-7.91,1.35-4.64,1.89-2.44-.56-4,.3-7.09,0,.14.23,1.14.29-1.48.63a3.22,3.22,0,0,1-.52.32h0c-.1.06-.11.07.06,0a4.41,4.41,0,0,1,1.4.14c-1.17.8-5.29,1.55-6.61,2.11-1.56.16.58-.41-.31-.53l-2,.85c-.33-.54-4.29-.23-.74-1.22l-3.27.56a19.26,19.26,0,0,0-6.22,1c-1.56.19-3.71,1.51-2.49.74l-5,1.48-.08-.15c-5,1-10.06,3.33-16.07,3.38A33.36,33.36,0,0,1,547,213.8l-.7-.47a31.39,31.39,0,0,1-4.22.76c-1.49.27-2.81.55-3.19,1-2.74-1.06-10.54,2.26-14.4,2.92l.08.86a67.33,67.33,0,0,0-8.19,2.64l.4.69a18.18,18.18,0,0,1-5.17,1.31,41.44,41.44,0,0,0-6.49,1.27c.21-.37,1.34-.63,2.18-.67-5.72-.22-10.63,4.47-15.73,4.58a5.94,5.94,0,0,1-2.86.83,1.14,1.14,0,0,0,.28-.13l-.49.13c-.56,0-1.14,0-1.76.06a8.12,8.12,0,0,0,1.5,0,31.84,31.84,0,0,0-3.54,1.38l-.84-.68-.31.12c-1.42.07-.94.71,0,1.14a10,10,0,0,0-1.63,1c-1.5-1.06-3.39,1.51-5.32.47-.7.92-6.56,2.71-6.78,4.46-.11-.18-.53-.15.18-.4a10.86,10.86,0,0,0-4.28,1.51l-1-.89L462,240.28c-2.2,0-3.15-.14-1.47-1.64-4.29,2.87-3.68,1.76-7.25,4.4l-.05-.78c-1.43.5-3.39,2.23-4.47,1.93-3.72-.35-15.82,5.55-24.49,7.24,2.41,1.57-4.17.43-3.86,2.22-.67-.32-1.91-.15-.77-1.12-3.93,2.16-6.53,1.69-8.82,4.24-.68-.32.58-1.1,0-1.23-.29.24-1.14,1-1.69.84s.43-.67,1-1.15c-4.19,1.78-4,3.52-3.68,5.11-2.42.16-3.44.69-4.58,2.28-.94-.18-2.39-.18.15-1.41-.75.27-3.08,1-5.16,1.83s-3.9,1.85-3.73,2.47a5,5,0,0,0-2.39,1.11c-3.29,1.36-3.62,1.38-6.78,2.9l1-.2c-.64,2-2.52,1.48-5,2.78v-.18c-6.35,1.66-2.31,1.65-8.62,3.21l.72.72c.34,2.12-5.62,1.32-8.63,3.62l1.44-.08c-.76.75-2.34.72-4,.6a13.4,13.4,0,0,0-4.27.07c-.48,0,.5-.58,1-1-5.3,1.35-.06,1.43-3.47,3.5-1-.27.07-2-2.38-.85-.72.06-2.2,1.43-4,2.85s-3.81,3-5.72,3.28c1,.06,1.9.14.46,1.36-2.39,1.51-7.67,2-9.08,4.69-.38.06-.57,0-.64-.09-.83.73-2.27,1.76-3.58,2.79a11.49,11.49,0,0,0-2.8,2.83c-.86-.41-1.92-.14-3.17.63a22.93,22.93,0,0,0-3.57,3c-1.17,1.09-2.2,2.22-3.08,2.89s-1.6.92-2.05.35l-.81.68L312,308.54l-2.5,2.27-.07-.34c-3.3,2.81-4,4.35-4.52,5.92-.84.56-.51-.14-.56-.31-1.21,1-2.16,1.8-2.9,2.51a19.84,19.84,0,0,0-1.8,2,17.91,17.91,0,0,0-1.39,2.08c-.44.81-.91,1.77-1.51,3l-1-.19c-.57,1.36-7,6.08-9.7,11.75a1,1,0,0,1,.07-.79c-1.62,3.11-4.46,6.17-6.68,9s-3.83,5.47-3.15,7.36c0,0-.44,1.07-.82,2.16l-.79,2.16c3.11-5,.73,1.43,2.37-.4-1,2.06-3.74,4.69-2.49,2.16l.35-.31c-.93-1.72-4,6.11-4.84,5.47-2.62,5.15-5.23,10.22-7.68,15.28s-4.66,10.12-6.58,15.18l1.47-.77-.69,1.75-.67,1.76c-.58.84-1.25,1-.29-1.56-1.06,1.12-1.06,4.42-.85,4.57-2.12,4.83-.51-2.37-1.06-.86l-.63,2.11.28-.43a12.94,12.94,0,0,1-.86,5.17c-.83,1.87-.93.79-1.22,1.54-.07,0-.18.22-.41,1.17l-.75,2.25-.74,2.26,1.32-1.57c-.24,2.13-1.36,4.24.15,2.43-1.14,1.32-2.52,5.52-3.65,9.62s-2,8.11-2.46,9A54,54,0,0,1,243,442.2c.33-.84,1.2-1.17.42,1.81-1.28-1.46-1.9,5.37-3.42,7.6,1.11-2-1.5,8.68.11,5.43-.59,2.51-.55,0-1.23,1.91-.61,6.14-2.63,13.29-3.48,20.85.13.14.54-1.08.53.56l-.64,1.93-.61,1.93c-.12,1.5.62,1.48-.19,4.13.16-.37.4-.92.32.09-1.25,7.33-1.84,14.9-2.42,22.49s-1.09,15.21-1.48,22.74c.14-2,.11-.68.07.88,0-1,.1,0,.17-.17l-.17,3.15-.11,3.15c.06,1.15,0,6.76,0,7.42v-2c0,1.33,0,.4.11-.81a14.06,14.06,0,0,1,.24-2.51c0-1.49.15-3.44.36-5.63s.46-4.61.48-7c.15-1.07,0,.92.13.35a43.8,43.8,0,0,1,.37-5.48v.31c.69-7.73,1.19-11,2.48-19.65l-.36.61a30.25,30.25,0,0,1,.6-3.1c-.16-2.18-.7,5.21-.91,3.22.85-2.41,1.71-13.1,2.78-14.65.45-2.84-.54.78-.09-2.06l.34-.72-.18-.76c.34-1.86.79-2.75,1-2.79-.1.45-.16,1.29-.23,1.78.68-2.37,1.08-6.81,1.33-7.62l-.64,2.7c1.08-7.78,3.34-17.1,4.37-24.62l-.35.52c.81-5.75,1.25-4.48,2.51-10.7v.24A23.06,23.06,0,0,1,246,443c-.1,1.62,1.33-2.78,1.14-.67,1.09-6.18.37-3.1.46-7.35l.69-.81a11.87,11.87,0,0,1,.51-4.74c-.32,2.61,1.25-1.76,1,1.19a30,30,0,0,0,2.26-7.47c.37-2,.72-3.53,2-4.74-.42-3.32-2.48,5.26-2.24,3.55-.85,1.25-.24-2.71.51-4.67s2.81-2.91,4.54-7.95c-.18.5-.09.57-.27,1.06,1-1.76.8-3.86,2.24-5.95-.38-1.59,1.14-3,.19-3.73l-1.43,4.69c.67-2.7.27-5.63,2.54-9.68a11.34,11.34,0,0,1-.26,2.74c.81-1.12.69-2.49,1.56-3.65,1,.79-1.94,5.63-2.11,8.72.94-1.18,1.2-5.53,1.85-3.7-.37-1.28.14-2.49.79-3.84a11.68,11.68,0,0,0,1.52-4.75l.59.49a12,12,0,0,1,.69-2.74l.13,2.1c.4-3,2.87-4.87,3.64-7.56-2.39,5.31-1.38.83-2.88,2.87,2-7,3.46-3,6.63-10.39-.4,1-2.19,3.48-1.78,1.79a17.4,17.4,0,0,1,2.77-3.65c2.25-4.82-1.09.38-.5-1.86,1.66-1.2.87-2.49,1.67-4.72l.72.36c3.36-5.09-.72-2.22,2.48-6.72l-.13,2.57.56-1.32c.28-.66.58-1.31.58-1.31l.52,1a16.48,16.48,0,0,1,3.41-6.2c-.88.3-1.09-1.12.31-3.43,1.41-1.29.11,1.28,2.09-2a3.18,3.18,0,0,1-1.52,3.13c.14.29,0,1,.14,1.28,1.5-1.38,2.79-4.07,3.53-5.22a6.46,6.46,0,0,1-1,1.13l1-2.62,1.08-2.59c.76-.53.58.18.4.88.56-1,.67-1.83,1.56-3.2.32.74,1,1.08-.08,3.15l1.18-2.35,1.24-2.32c.46-.1,2.27-1.64,2.08-.94a17.7,17.7,0,0,0,2.78-4.27,17.79,17.79,0,0,1,3.42-4.67,3.3,3.3,0,0,1,.65-1.29c2.51-2.59,5.31-4.28,7.6-8l2.64-.73c2.18-2.5-3.53,1,.16-3.12,2.62-3,1.85-.15,3.11-.8a20.37,20.37,0,0,1,2.15-3.36,11.38,11.38,0,0,1,1.73-1.75,9.6,9.6,0,0,1,2.33-1.31A27.29,27.29,0,0,1,318.68,313.75Zm34.89-21.95c-.63.55-1.79,1.82-2.58,1.59C351.3,292,352.18,292.15,353.56,291.8Zm57.26-28.57a3.6,3.6,0,0,1-2.49.79A7.44,7.44,0,0,1,410.83,263.24Zm169.83-56.62-.08,0C578.73,206.8,579.39,206.76,580.66,206.62Zm3.8-.4c.36-.16.31-.24.14-.3a5.49,5.49,0,0,1-2,.5A3,3,0,0,0,584.46,206.21Zm-333.1,202,.4-.65C251.43,409.25,251.4,408.75,251.36,408.25Z"/><path class="cls-2" d="M404.59,267.18a.87.87,0,0,1-.52-.35C403.83,267.1,403.9,267.28,404.59,267.18Z"/><path class="cls-2" d="M300.83,331.86l-.09.09a.35.35,0,0,0,0,.2Z"/><path class="cls-2" d="M528.7,225.81a4.61,4.61,0,0,1-1.56,0C527.16,226,527.54,226.07,528.7,225.81Z"/><path class="cls-2" d="M604.11,201.65l-2.37.57a9.31,9.31,0,0,1,2.2-.2C603.86,201.9,603.36,201.79,604.11,201.65Z"/><path class="cls-2" d="M625.51,201.15c.34-.12.74-.13,1.08-.24l-.14-.21C625,200.95,624,201.3,625.51,201.15Z"/><path class="cls-2" d="M606.69,203.11c.28.43,1.75,0,3.41-.41l-.3.06C610.18,202,608.43,202.56,606.69,203.11Z"/><path class="cls-2" d="M610.49,202.61c.51-.12,1-.23,1.55-.3C612.18,202,611.4,202.37,610.49,202.61Z"/><path class="cls-2" d="M589.14,205c.82,0,.36-.75.86-.62C590.75,203.56,584.85,206.13,589.14,205Z"/><polygon class="cls-2" points="608.35 204.38 607.63 203.93 606.79 204.57 608.35 204.38"/><path class="cls-2" d="M595.06,206.53l2.71-.35c-.06-.09.27-.22.67-.35C596.79,206.13,595,206.36,595.06,206.53Z"/><path class="cls-2" d="M598.44,205.83a12.17,12.17,0,0,0,2.13-.52C600.11,205.41,599.11,205.63,598.44,205.83Z"/><polygon class="cls-2" points="604.73 205.28 603.92 205.31 602.02 205.64 604.73 205.28"/><path class="cls-2" d="M566.4,212.48l-2.85.87c-.24.32.59.28,1.64-.06C565.85,213,566.9,212.61,566.4,212.48Z"/><path class="cls-2" d="M575.58,212.35a3,3,0,0,1-1.39-.22l.1.88Z"/><path class="cls-2" d="M567.21,214.56c-.23.31-4,1.71-.38.77C567.06,215,569.9,214.13,567.21,214.56Z"/><polygon class="cls-2" points="523.54 224.25 524.27 224.04 523.72 222.41 523.54 224.25"/><path class="cls-2" d="M487,239.43c3.48-.61.46-1.35,3.65-1.75.66-.66-2.61.33-1.91-.28C486.82,238.46,485.68,238.54,487,239.43Z"/><path class="cls-2" d="M488.71,237.4c.3-.17.62-.36,1-.59A5.22,5.22,0,0,0,488.71,237.4Z"/><polygon class="cls-2" points="230.75 544.9 230.76 547.17 230.77 545.71 230.75 544.9"/><path class="cls-2" d="M230.84,549.25v.53l0,1.36Z"/><path class="cls-2" d="M360.3,291.3v-.35c-.46-.14-.94.07-1.9.5Z"/><polygon class="cls-2" points="333.21 304.78 333.67 304.54 332.26 304.05 333.21 304.78"/><path class="cls-2" d="M314.55,320.5c.78-.63,1.47-1.62,2.26-2.24C315.32,319.84,313.41,319.67,314.55,320.5Z"/><path class="cls-5" d="M634.58,178.54s18.13-4.58,58.27,6.8c0,0,14.56-13.59,23-10.74l-.08-1.11a7.36,7.36,0,0,1,5.2,5.3l1.55-1.22s-6.93-10.43-34.27-15.78A58.32,58.32,0,0,0,634.58,178.54Z"/><path class="cls-5" d="M621.86,192.83s26.91,22.44,51.12,24.43c0,0,13.78-13.35,26.28-16.71l-.68-6.18s-41.54-1.44-48.09,1S621.86,192.83,621.86,192.83Z"/><circle class="cls-5" cx="716" cy="194" r="18.73" transform="translate(-16.67 310.14) rotate(-24.17)"/><path class="cls-2" d="M506.38,234.92l1.53-2.08,2.41-.93a.8.8,0,0,0,.52-.68.84.84,0,0,0-.33-.79l-2.09-1.52-.93-2.41a.83.83,0,0,0-.67-.54.82.82,0,0,0-.78.34l-1.53,2.08-2.41.93a.84.84,0,0,0-.2,1.46l2.09,1.54.92,2.4a.84.84,0,0,0,.68.52.8.8,0,0,0,.79-.33Zm0,0"/><path class="cls-2" d="M555.09,217.64l2.4-1,2.53.41a.84.84,0,0,0,.8-.3A.78.78,0,0,0,561,216l-1-2.25.5-2.42a.75.75,0,0,0-.28-.76.84.84,0,0,0-.84-.1l-2.39,1-2.53-.41a.88.88,0,0,0-.8.29.77.77,0,0,0-.14.81l.94,2.27-.5,2.41a.76.76,0,0,0,.3.75.82.82,0,0,0,.84.11Zm0,0"/><polygon class="cls-6" points="246.6 174.33 299 174.33 747.1 174.33 747.1 674.83 246.6 674.83 246.6 174.33"/><line class="cls-6" x1="246.6" y1="591.42" x2="747.1" y2="591.42"/><line class="cls-7" x1="188.6" y1="508" x2="817.5" y2="508"/><line class="cls-7" x1="228" y1="424.58" x2="778.5" y2="424.58"/><line class="cls-7" x1="246.6" y1="341.17" x2="761.5" y2="341.17"/><line class="cls-6" x1="246.6" y1="257.75" x2="747.1" y2="257.75"/><line class="cls-7" x1="663.69" y1="89.5" x2="663.69" y2="674.83"/><line class="cls-7" x1="580.27" y1="124.33" x2="580.27" y2="674.83"/><line class="cls-6" x1="496.85" y1="174.33" x2="496.85" y2="674.83"/><line class="cls-7" x1="330.02" y1="91" x2="330.02" y2="674.83"/><line class="cls-7" x1="136" y1="592" x2="880" y2="592"/><line class="cls-7" x1="205.67" y1="174.25" x2="779.67" y2="174.25"/><line class="cls-7" x1="124" y1="676.58" x2="203" y2="676.58"/><line class="cls-7" x1="163.27" y1="553" x2="163.27" y2="608"/><line class="cls-7" x1="830.69" y1="498" x2="830.69" y2="578"/><line class="cls-7" x1="211.26" y1="90.75" x2="339" y2="90.75"/><line class="cls-7" x1="664.33" y1="90.75" x2="790" y2="90.75"/><line class="cls-7" x1="246.6" y1="49.33" x2="246.6" y2="231"/><line class="cls-7" x1="162.85" y1="128.33" x2="162.85" y2="144.67"/><line class="cls-7" x1="830.44" y1="121" x2="830.44" y2="143"/><line class="cls-7" x1="747.02" y1="45.61" x2="747.02" y2="191.11"/><path class="cls-2" d="M739,440.65c1,.21.68,0,.83.06C738.07,440.38,739,440.69,739,440.65Z"/><polygon class="cls-2" points="721.74 438.04 722.06 437.98 719.49 437.84 721.74 438.04"/><path class="cls-2" d="M705.65,435.46c1.44.87,5.85.81,8.69,1.48l.46.2,1.35-.21C712.65,436.4,708.08,436,705.65,435.46Z"/><path class="cls-2" d="M697.3,432.51c.49.39-1.88-.08,2,.45l-.35-.14C698.58,432.76,698.1,432.67,697.3,432.51Z"/><path class="cls-2" d="M698.93,432.82c1.69.29-1.07-.44,0,0Z"/><path class="cls-2" d="M691.11,431.6l2.26.12c-.44-.26-2.41-.67-1.65-.67C689.43,430.74,689.87,431,691.11,431.6Z"/><path class="cls-2" d="M688.92,431.77l1.17.11A1.62,1.62,0,0,0,688.92,431.77Z"/><path class="cls-2" d="M692.56,432.08l-1.24-.09c-.62,0-1.24-.11-1.24-.11.3.2.29.48,1.13.13C691,432.22,691.5,432.07,692.56,432.08Z"/><path class="cls-2" d="M693.93,432.44c1.22.39,2.82.76.55.65C698.76,433.69,698.2,433.08,693.93,432.44Z"/><path class="cls-2" d="M704.73,436l1.65.43h1.48C707.12,436.44,704.65,435.79,704.73,436Z"/><path class="cls-2" d="M677.41,428.24c-.17.18.66.7.78,1l1.67.11C679,429,677.47,428.56,677.41,428.24Z"/><path class="cls-2" d="M678.19,429.22l-2.5-.14C677.87,429.56,678.3,429.47,678.19,429.22Z"/><path class="cls-2" d="M688.38,432.63l2.06.07,2.07,0-.77,0c-.46,0-1.08,0-1.69-.08l-2.45-.14Z"/><polygon class="cls-2" points="668.09 426.26 669.56 426.04 666.97 426.3 668.09 426.26"/><path class="cls-2" d="M661.89,425.07c1.1-.23-1.27-1-.14-1.1a18.87,18.87,0,0,0-4.54-.1A14.22,14.22,0,0,1,661.89,425.07Z"/><path class="cls-2" d="M654.95,424c.71,0,1.45,0,2.26-.08A10.76,10.76,0,0,0,654.95,424Z"/><path class="cls-2" d="M671.54,428.15a3.58,3.58,0,0,0-1.82-1l.86.8Z"/><path class="cls-2" d="M670.61,428l0,0-2.07-.45Z"/><path class="cls-2" d="M671.78,428.2l-.24-.05C671.62,428.23,671.67,428.26,671.78,428.2Z"/><path class="cls-2" d="M682,430.92c-1.49,0-4.55-.2-1.71.81C681.41,431.55,679.79,431,682,430.92Z"/><path class="cls-2" d="M672.86,429.18l2.58.63c0-.16-.46-.48.28-.5Z"/><polygon class="cls-2" points="671.55 429.13 672.86 429.18 671.9 428.94 671.55 429.13"/><path class="cls-2" d="M659.28,425.48a18.08,18.08,0,0,1-3.8-.36c1.46.42,3,.79,4.45,1.07C660.17,426,660.88,425.77,659.28,425.48Z"/><path class="cls-2" d="M664.78,426.75h-.26C664.66,426.82,664.78,426.86,664.78,426.75Z"/><path class="cls-2" d="M641.84,422.37l.19.18.07-.12Z"/><path class="cls-2" d="M660.16,426.35a5.39,5.39,0,0,0,2.46.23c-.85-.1-1.74-.23-2.69-.41C659.82,426.26,659.8,426.32,660.16,426.35Z"/><path class="cls-2" d="M651.08,423.53c.55.26,1.19.51,1.87.76C652.42,424,651.32,423.39,651.08,423.53Z"/><path class="cls-2" d="M664.17,426.48h.17C664,426.28,664,426.36,664.17,426.48Z"/><path class="cls-2" d="M664.17,426.48a9.71,9.71,0,0,0-1.55.1c.69.08,1.33.14,1.89.15A1.87,1.87,0,0,1,664.17,426.48Z"/><path class="cls-2" d="M636.8,426.32c.33-.67,3.39-.7,5.79.54,2.59,0,1.36-2.54-.56-4.3-.13.28-.18.56-2.82.4.82.58,5.52,2.11,3.24,2.26-3.46-.36-2.74-.83-4.32-1.55,1.24,1.16-4.57.37-4.08,1.83l3.08.14C637.15,425.86,636,426,636.8,426.32Z"/><path class="cls-2" d="M646.9,423.66l1.07.12a13.64,13.64,0,0,1-3.48-1.65c-1.81-.07-2.22.1-2.38.3l2.58.63c1.29.31,2.59.56,2.59.56Z"/><path class="cls-2" d="M652.72,424.69c-1,.54-3.55.38-2.13,1.43,3.12.51,2.29-.19,4.2-.15-5-.77,1.51-.11-2-1.2,1,.07,1.9.21,2.74.34-.89-.26-1.74-.53-2.53-.82l.11.07h0c.2.13.26.2,0,.1H653a.68.68,0,0,1-.27.22c-1.42-.42-.2-.23.27-.22,0,0,.07-.06.08-.09h0l-5.08-.58A41,41,0,0,0,652.72,424.69Z"/><path class="cls-2" d="M677.43,432.47c-.15-.08-.14-.12-.14-.16C677,432.33,676.82,432.35,677.43,432.47Z"/><path class="cls-2" d="M675.41,431.77a4.3,4.3,0,0,1,1.9.07c1,.35,0,.27,0,.47.74,0,2.58,0,.37-.64h-.37c-2-.55-4.48-1.77-4.11-1.79A6.75,6.75,0,0,0,675.41,431.77Z"/><path class="cls-2" d="M663.86,428.49l-4.25-.43,2,1,0-.36C664,429.2,663.52,428.69,663.86,428.49Z"/><polygon class="cls-2" points="641.44 421.89 642.14 421.23 639.53 421.8 641.44 421.89"/><polygon class="cls-2" points="636.03 420.77 636.37 420.11 634.86 420.21 636.03 420.77"/><path class="cls-2" d="M340.25,324.52l-1.11-.61C339.66,324.21,340,324.39,340.25,324.52Z"/><path class="cls-2" d="M348.05,329.23h.26C347.91,329.07,347.74,329,348.05,329.23Z"/><path class="cls-2" d="M504.74,387.34c-1.51-1.26-3.09-3-3.16-2l.26,1A8.21,8.21,0,0,1,504.74,387.34Z"/><path class="cls-2" d="M415.57,360.57l.42.38,1.38-.09Z"/><path class="cls-2" d="M413.37,362.43l-2.05-1.33A20.27,20.27,0,0,0,413.37,362.43Z"/><path class="cls-2" d="M302.55,291.73l-1.26-.89C302.81,292.59,302.29,291.7,302.55,291.73Z"/><path class="cls-2" d="M580.89,408.28a20.34,20.34,0,0,0-3.66-1.5C578.93,407.77,580.22,408.93,580.89,408.28Z"/><path class="cls-2" d="M344.86,323.79c-.69-.34-1-.46-1-.39C344.55,323.75,345,323.93,344.86,323.79Z"/><path class="cls-2" d="M572.82,405.7c.25.16.5.27.75.42a19.16,19.16,0,0,1,3.65.66A6.53,6.53,0,0,0,572.82,405.7Z"/><path class="cls-2" d="M239.32,124.09c0-.13,0-.29,0-.42S239.28,123.83,239.32,124.09Z"/><path class="cls-2" d="M239.08,71.44l.21,2.14C239.28,73.2,239.21,72.55,239.08,71.44Z"/><path class="cls-2" d="M614.42,415.56c1.15.2.2-.05,0,0Z"/><path class="cls-2" d="M619.3,420.09c-.26,0-.47.12-.54.31A.8.8,0,0,1,619.3,420.09Z"/><path class="cls-2" d="M560,408.78l-.1,0C560.2,409,560.15,409,560,408.78Z"/><path class="cls-2" d="M616.06,416.33a12.55,12.55,0,0,0-1.41-.57A12.64,12.64,0,0,0,616.06,416.33Z"/><path class="cls-2" d="M615.91,415.88l1,.3C617.07,416.07,617,416,615.91,415.88Z"/><path class="cls-2" d="M612.82,415.25a15.17,15.17,0,0,1,1.83.5c-.21-.11-.3-.18-.23-.19Z"/><path class="cls-2" d="M262.71,218c0-.08,0-.17,0-.26C262,216.69,262.19,217.17,262.71,218Z"/><path class="cls-2" d="M472.81,386.55H473l-.15-.09Z"/><path class="cls-2" d="M468.61,385.73a5.26,5.26,0,0,1,4.19.74l-.52-2.78Z"/><path class="cls-2" d="M322.53,311.54l2.11,2.15c-3-2.06-4.93-3.86-3-1.77.48-.21,2.64,1.75,5,3.51s4.65,3.55,5.07,3.33l1.48,1.33c-.45-.35-.55-.36-1-.7a12.28,12.28,0,0,0,1.68,1.35,8.54,8.54,0,0,0,1.27.57,16.12,16.12,0,0,1,3.84,2c1.41,1,2.37,1.7,1.32,1.18l3.39,1.78c.94.58.63.58-.31,0l5,2.93h-.05c.79.29,2.54,1,3.39,1.38,1.22.84-.69-.28-.42,0l2.91,1.39c1,.87-1.42-.25-3.33-1.38,2.16,2.31,2.44,1.1,7.81,4.84l-2.7-1.41a15.84,15.84,0,0,0,2.68,2.06c1.08.68,2.34,1.4,3.76,2.41-.62-.58-5.61-4.13-2.42-2.67a21.29,21.29,0,0,0,3.71,1.9c-.16.34,1.5,1.14,3.54,2.23l-.38.39a16.67,16.67,0,0,0,3.6,1.23c2.42,1.38,2.72,2.05,3.14,2.68,3.91,2.14-2.41-2,2.31.28a63.58,63.58,0,0,0,9.71,4.55c2.21,1.39-.58.16.17.75l2.27.57c.49.27.26.34.14.37,1.81.69.42-.53,3.23.64.54-.18,1.83.73,3.45,1.82a16.28,16.28,0,0,0,5.48,2.7c.74.6-.6.25-.47.65a53.9,53.9,0,0,0,8.39,2.44l3,2.06c-1.07-.86-.76-1.12.19-1.08a33.2,33.2,0,0,1,4.06.55c-.74-.67-1.36-1.23-1.81-1.56l4.57,1.31c.47.36-.1.48-1,.55l.89.12c1.43,1,.4,1.14-.92,1.15L416,361c-1.3.07-2.54.2-2.53.79a7.58,7.58,0,0,1,1.52.39c-.34,0-.57.07-.48.21s.64.16,1.45.25l.58,1.39.4-.28,5.42,3.12c2.24.39,4.41.56,6.85.91,1.22.18,2.51.39,3.91.71s2.91.72,4.61,1.21c-2,.21-.88,1.22-1.36,2.17-1.4-1.69-5.2-1.68-8.47-3.34,1.71.86,1.14,1.14.63,1.1l3.17.85,2.18.57,1,.25c-.45.74,1,1.11,2.5,2.07-.57-2.07,4.93.71,7.59,1.16-.06.62-.87,1-3.82-.36,2.84,2.56,5-.27,7.89,2.06-.74-.27-1.1-.51-1.5-.34,1.91.16,6,2.19,4.78,2.31l-.74-.27a100.08,100.08,0,0,0,9.39,3.53c3.3,1,6.17,1.45,6.81.81a7.23,7.23,0,0,1-1.72,1.84l5.33-1.07,5.33-1.15c-1.25,1.09.62,5.39-3.74,4.71a13.64,13.64,0,0,0,5.13,1.75c-.74-.48-1.32-2.69-.18-2.43,2.49,2.58,1.81,1.54,5.08,4.17-1.1-.72,1-2.44,2.84-1.72-.41.23-.57,2.24-1.34,2.22l5.45-.52c-1.31,0-.82,1.78,0,2.78-.36-.57,4.1,1.41,5.45,1.58l-1.86-1.16c5.29,2.06,6.34-1.48,11.66.28-.8.28-2.51,2.41.13,3.56,1.61-.77,7.28-4,12.29-3.49l.7,1,3.86.3A66.93,66.93,0,0,1,508,398.22c1.86,1.18.32,1,3.37,1.88.88,1-1.95.44-2.85.19l6.93,2.67c.11-1.51,5.82.3,5.9-1l-8.1-1c.11-1.49,5.62-2.6,10.54-.82,1.11,1-1.69,2.25-1.73,2.76a8.74,8.74,0,0,1,2.85.22,6.7,6.7,0,0,1,2.55.73l-2.36.17c2.66,1.33,5.13-.64,8.12,1.67,1.14.41,3,2.84,3.4,2-1.44-2.19-.37-7.42,1.24-8.33.37.22,5.65,3.24,6.76,4.43,1.56,1.83-3.73,2.34-2.4,3.91.18-.38,1.37-.58,1.86-.62,1.13.68-.84,1.1,1.87,1.65.84-1.37,5.38,1.6,1.6-.92,2.71.28,2.68,1.06,5.76,1.82-.72-1.23,3.6-2.53,6.3-2.25-.25.34.21,1,.43,1.29,2.63.83,4.67,1.44,6.63,2.12s3.9,1.3,6.4,1.89c.37.46,2.69,1.46,1.51,1.85a7.17,7.17,0,0,1,3.12-.11c2.69,2-3.5-.61-1.58,1.44.4-.8,4.29-.24,6.61-.26-.37-1.46-5-1.44-7.36-1.42.43-1.82,4.72-2.81,10.12-2.37,4.24.56,1.53,1.58,2.31,1.51,7.72,2.18,7.32-1.45,13.49,1.4,2.32,1.72-.36,2.21,0,3.14-3.48-.39-5-1.94-7.34-2.45l2.7,1.2A10.39,10.39,0,0,1,592,416c1,.76,4.25,1.58,8,2.51s8.08,1.72,11,2.79c1.15-.14,3.09-.13,2.3-.73l-1.95-.24c-1.58-1.22,3.86-.44,1.51-1.34,2.7-.07,5.76-.37,9.27.87l.44,1.31c0-.35-2.22-1.19-3.31-1,1.61-.19,5.23,2.72,7.18,1.56l-2.37-1.33c2.69,0,6.1-.54,9.22.53-1.24-1.43-.76,0-2.77-1.84,1.64,2.06-8.14-1.9-5.33.54-2-2.06-3.9-1.54-6.66-3.56,0,.41.92,1-1.71.2a2.81,2.81,0,0,1-.66.22l-.17-.07.14.08c-.13,0-.14,0,.05,0a3.52,3.52,0,0,1,1.24.9c-1.52.61-5.78-.33-7.32-.16-1.55-.53.76-.32,0-.93l-2.31.25c0-.94-3.9-2.41,0-2.12l-3.36-.78a17.52,17.52,0,0,0-6.28-1.89c-1.53-.6-4.21,0-2.68-.36l-5.38-.74v-.25c-5.14-1.42-11-1.05-16.54-4.24a25.29,25.29,0,0,1-6.53-1.3l-.36-1c-2.33-.2-6.47-2.6-7.65-2-1.8-2.95-10.64-3.45-14.44-4.9l-.45,1.06a56.25,56.25,0,0,0-8.81-1.62l-.07,1A15.26,15.26,0,0,1,529.9,396l-3.12-1.25a28.9,28.9,0,0,0-3.32-1.17c.41-.27,1.53.17,2.28.63-4.77-3.75-11.87-1.86-16.32-4.85a5.47,5.47,0,0,1-3-.89,1.08,1.08,0,0,0,.32,0l-.5-.16c-.49-.32-1-.66-1.55-1a7.7,7.7,0,0,0,1.28.91,30.68,30.68,0,0,0-3.89-.76l-.29-1.14-.33-.07c-1.26-.76-1.25.13-.75,1.07a10.23,10.23,0,0,0-2,0c-.62-1.88-3.85-.58-4.85-2.66-1.19.49-7.18-1.71-8.46-.33,0-.23-.35-.47.4-.23a11.11,11.11,0,0,0-4.52-1.42l-.26-1.38-3.91.42c-1.82-1.39-2.53-2.07-.18-2.27-5.39-.29-4.17-.81-8.82-.9l.46-.65c-1.51-.47-4.24-.32-4.94-1.21-2.84-2.53-16.32-6.25-24.42-10.43.92,2.45-3.64-2.24-4.52-1-.32-.62-1.4-1.31.11-1.15-4.47-1.26-6.22-3.12-9.65-3.16-.33-.59,1.16-.23.82-.63a3.68,3.68,0,0,1-1.87-.58c-.34-.4.77-.09,1.52,0-4.45-1.58-5.38-.58-6.16.38a7.35,7.35,0,0,0-5.06-1.7c-.63-.65-1.78-1.5,1-.56-1.55-.59-9.12-4.33-9.61-3.62a8.39,8.39,0,0,0-2.54-1c-3.39-1.5-3.66-1.69-7-3.06l.88.51c-1.69.24-2.87-1-5.6-2.1l.11,0c-5.85-3.37-2.75-1-8.5-4.38l.12.58c-1,.63-5.08-3-8.73-4.33l1.15.81a11,11,0,0,1-3.36-2.22,24.69,24.69,0,0,0-3.22-2.48c-.38-.27.71.22,1.31.45-4.74-2.87-.88.14-4.62-1.59-.56-.57,1.19-.17-1.27-1.43-.56-.41-2.49-1.07-4.61-2a38.75,38.75,0,0,1-6-3.17c.65.55,1.28,1.11-.46.31-1.3-.69-3-1.75-4.61-2.81a23.41,23.41,0,0,0-4.54-2.5c-.3-.23-.4-.34-.39-.38-2-1-6.34-3.59-7.62-4.08a3.77,3.77,0,0,0-.83-.88c-.38-.36-.87-.76-1.42-1.18-1.1-.86-2.5-1.76-3.78-2.72s-2.53-1.87-3.4-2.59-1.35-1.3-1.18-1.47L323,308.22c-.66-.55-1.26-1.16-1.74-1.6l-.78-.74.2,0c-1.57-1.54-2.65-2.54-3.49-3.31a26.14,26.14,0,0,0-2.11-1.68c-.65-.78-.06-.32,0-.3-2.11-2.42-3.22-3.79-4.35-5s-2.17-2.26-4.13-4.14l0-.7a45.2,45.2,0,0,1-3.49-4.85c-.8-1.23-1.69-2.57-2.63-3.91a48.54,48.54,0,0,0-2.86-3.94c.08,0,.23.07.57.44a57.64,57.64,0,0,1-5.77-9.86c-1.63-3.3-3-6.05-4.65-6.62l-2.72-3.83c2.73,5.41-1.36-.28-.51,2.1-1.33-2-2.24-5.82-.78-3.27l.1.47c1.62.34-3-6.92-2.06-7.22a162.63,162.63,0,0,1-6.75-16.22c-2-5.42-3.73-10.81-5.55-16.05l-.83,1.67-1.24-3.68c0-1.07.55-1.65,1.42,1,.23-1.62-2.13-4.16-2.44-4.14-1.22-5.31,2.19,1.48,1.68-.11l-.82-2.1v.53c-1.12-1.54-1.74-1.51-2.71-4.7-.39-2.09.47-1.29.27-2.09.1,0,0-.3-.35-1.22l-1.35-4.69-.46,2.19c-1.18-1.91-1.29-4.42-1.83-1.89.44-1.87-.73-6.28-1.91-10.53l-1.65-5.88a19.56,19.56,0,0,1-.73-3.5,32.51,32.51,0,0,1-3-9.33c0,.95-1,1.76-1.6-1.41,2.6.62-.31-6,.8-8.85-.61,2.5-2.19-8.86-3-5-.35-2.67.81-.33.92-2.42-2.14-6.09-2.19-13.88-3.84-21.59-.28-.08-.46,1.28-1.13-.33l.6-4.3c-.39-1.52-1.67-1.21-1.26-4.15-.14.42-.36,1.06-.6,0-.58-7.73-1.93-15.52-3-23.4a232.88,232.88,0,0,1-2-23.69c0,2.13-.19.72-.34-.9,0,1.06-.28,0-.41.21l-.06-3.3-.09-3.29c-.41-1.19-.56-7.05-.79-7.74l.15,2.09c-.21-1.38-.28-.41-.41.86s-.31,2.85-.53,2.65a36.05,36.05,0,0,1,0,5.93,29.47,29.47,0,0,0,.26,7.42c-.11,1.14-.26-1-.4-.34a22.15,22.15,0,0,1,.43,5.75l-.1-.32c.44,8.15.27,11.67.58,20.87l.5-.74a17.85,17.85,0,0,1-.13,3.34c1,2.16-.39-5.53.69-3.57-.44,1.36-.18,4.83.12,8.19s.59,6.61-.06,7.59c.31,3,.65-1,1,2l-.32.86.62.69c.15,2-.27,3.06-.62,3.19a17.62,17.62,0,0,0-.34-1.86c-.23,2.64,1,7.22,1,8.13l-.09-2.94c1.43,8.17,2.34,18.31,4.8,26l.27-.67a21.91,21.91,0,0,1,1.15,5.47,27.18,27.18,0,0,0,1,6l-.14-.22a18,18,0,0,1,1.6,4.75c-.82-1.55-.21,3.33-1.19,1.27,2.26,6.3,1.34,3.07,3.83,7l-.42,1.15c1,1.3,1.3,1.34,2.31,4.54-1.28-2.51-.47,2.34-2-.44.32,7.24,4.2,9.7,3,13.42,1.39,1.28,1.21-.26.81-1.92s-1-3.44-.56-2.62c.2-1.63,2.1,2.17,2.56,4.33s-1.3,4.39.48,9.79c-.17-.54-.32-.53-.48-1.07.19,2.18,1.94,3.75,2,6.47,1.59,1,1.08,3.22,2.61,3.12l-1-2.39c-.52-1.2-1-2.4-1-2.4a46.58,46.58,0,0,0,2.55,4,15.69,15.69,0,0,1,2.22,5.56,11.11,11.11,0,0,1-1.83-2.33c.09,1.48,1.23,2.46,1.33,4-1.52.12-2.54-5.81-4.63-8.43-.08,1.65,3,5.29,1,4.33,2.72,1.45,1.74,5.35,4.62,8.38l-.89.07a13.24,13.24,0,0,1,1.61,2.59l-1.8-1.48c2.06,2.54,1.6,5.86,3.32,8.41-2.59-5.73.34-1.67-.16-4.33,2,3.34,2,4.54,1.95,5.91a8.41,8.41,0,0,0,.17,2.42,18,18,0,0,0,1.82,4.26c-.63-1-1.52-4.16-.38-2.66a26.87,26.87,0,0,1,1.37,4.71c2.81,5,.29-1.11,1.84.86.09,2.13,1.6,2.36,3,4.44l-.64.34c2.73,5.95,2.1.87,4.49,6.24l-2.06-1.72,1.74,2.55-1-.19a28.94,28.94,0,0,1,4.14,6.47c0-.87,1.19-.19,2.74,2.24.75,1.85-1.08-.64,1.19,2.77a4.94,4.94,0,0,1-2.25-3c-.27-.05-.82-.58-1.09-.64a33.09,33.09,0,0,0,3.71,5.76,10.9,10.9,0,0,1-.8-1.4l4,4.51c.38.87-.19.35-.75-.16.75.95,1.44,1.49,2.5,2.91-.61-.14-.89.19-2.56-1.73l1.88,2.17,1.28,1.49.59.67c.09.4,1.4,2.58.83,2.08a31.8,31.8,0,0,0,3.67,4.22c.72.75,1.45,1.52,2.15,2.33s1.42,1.59,2.05,2.42a7.69,7.69,0,0,1,1.13,1.06c1.24,1.52,2.43,2.93,3.68,4.41A47.62,47.62,0,0,0,312,301.7s.36.56.75,1.11l.77,1.09c2.68,2.46-2.1-2.93,2.35,1.18,3.19,2.85.88,1.39,1.88,2.51.88.63,2.05,1.51,3.38,2.55a38.59,38.59,0,0,1,4.17,3.67C324.19,313,323.48,312.3,322.53,311.54Zm37.38,24.27a11.11,11.11,0,0,1-2.84-1.5C358.12,334.44,358.67,335,359.91,335.81Zm61.14,28.56a5.18,5.18,0,0,1-2.47-1.22A10.71,10.71,0,0,1,421.05,364.37Zm180.67,49.2-.1,0C599.86,412.74,600.48,413.06,601.72,413.57Zm3.77,1.3c.42-.05.42-.19.29-.36a4,4,0,0,1-2.17-.27C603.83,414.55,604.29,414.83,605.49,414.86ZM264.43,204.13v.8C263.65,203.37,264,203.75,264.43,204.13Z"/><path class="cls-2" d="M413.65,362.23a.66.66,0,0,1-.19-.49C413.1,361.71,413,361.83,413.65,362.23Z"/><path class="cls-2" d="M302.78,291.89l-.09-.11a.32.32,0,0,0-.15-.06Z"/><path class="cls-2" d="M543.58,408.77a4.16,4.16,0,0,1-1.38-1C542.08,408,542.39,408.37,543.58,408.77Z"/><path class="cls-2" d="M626.33,417.79l-2.52-.32a6.44,6.44,0,0,1,2.17.8C626,418,625.55,417.63,626.33,417.79Z"/><path class="cls-2" d="M646.9,427.66c.39,0,.78.12,1.16.08l0-.39C646.47,427.11,645.32,427.23,646.9,427.66Z"/><path class="cls-2" d="M628,421.29c0,.79,1.66.87,3.43,1.1l-.31-.07C631.87,421.39,629.95,421.33,628,421.29Z"/><path class="cls-2" d="M631.87,422.45a12.73,12.73,0,0,1,1.61.32C633.77,422.4,632.85,422.54,631.87,422.45Z"/><path class="cls-2" d="M610.52,415.39c.78.39.74-.92,1.13-.48C612.79,414.08,605.9,414.94,610.52,415.39Z"/><polygon class="cls-2" points="628.96 424.05 628.51 423 627.38 423.55 628.96 424.05"/><path class="cls-2" d="M615.29,420.55l2.74.84c0-.17.37-.19.82-.18C617.13,420.83,615.29,420.25,615.29,420.55Z"/><path class="cls-2" d="M618.85,421.21a8.44,8.44,0,0,0,2.28.3A18.87,18.87,0,0,0,618.85,421.21Z"/><polygon class="cls-2" points="625.08 423.56 624.29 423.2 622.33 422.74 625.08 423.56"/><path class="cls-2" d="M585.45,413.68l-3.1-.42c-.39.29.38.71,1.54.83C584.67,414,585.83,414.14,585.45,413.68Z"/><path class="cls-2" d="M594,418.71c-.77-.41-.78-.65-1.16-1.1l-.39,1.27Z"/><path class="cls-2" d="M585,417c-.39.29-4.66,0-.78.83C584.63,417.5,587.75,417.91,585,417Z"/><polygon class="cls-2" points="539.94 403.79 540.71 403.98 541.21 401.74 539.94 403.79"/><path class="cls-2" d="M498.74,397c3.37,1.63,1.24-1,4.23.64,1-.23-2.45-1.34-1.47-1.49C499.21,396,498.18,395.32,498.74,397Z"/><path class="cls-2" d="M501.5,396.13a11.43,11.43,0,0,0,1.19,0A5.16,5.16,0,0,0,501.5,396.13Z"/><polygon class="cls-2" points="238.58 62.79 238.45 60.43 238.46 61.95 238.58 62.79"/><path class="cls-2" d="M238,58.26l.13-.56L238,57l-.11-.71C237.94,56.81,238,57.85,238,58.26Z"/><path class="cls-2" d="M365.24,339.88l.22,0a7.45,7.45,0,0,0-1.71-1.14Z"/><polygon class="cls-2" points="337.49 323.26 337.96 323.56 337.27 322.69 337.49 323.26"/><path class="cls-2" d="M315.74,306.56c.81.77,1.85,1.59,2.67,2.36C316.55,307.33,315.86,306,315.74,306.56Z"/><polyline class="cls-7" points="375.67 125.67 413.44 138 413.44 674.83"/><path class="cls-1" d="M289,275.08a13.74,13.74,0,0,0-2.78,1.57C287.54,276.1,288.28,275.89,289,275.08Z"/><path class="cls-1" d="M389.69,150.76l.47-.67C390.05,149.54,390,149,389.69,150.76Z"/><path class="cls-2" d="M305.79,265.64l1-.72C306.33,265.25,306,265.47,305.79,265.64Z"/><path class="cls-2" d="M298,270.15l-.13.22C298.17,270.11,298.3,270,298,270.15Z"/><path class="cls-2" d="M341.36,232.44l.57-1.39C340.59,232.86,341.33,232.18,341.36,232.44Z"/><path class="cls-2" d="M304.26,270c.63-.44.89-.66.84-.7C304.44,269.75,304.08,270,304.26,270Z"/><path class="cls-2" d="M380.33,160c0-.06.1-.14.16-.21C380.57,158.6,380.45,159.1,380.33,160Z"/><path class="cls-2" d="M387.71,134c-.29,2.11-.55,3.75-2.09,5,.47,1.8,1.16.44,1.72-1.15s.95-3.41.9-2.49c1-1.27.67,2.94-.16,5-.67,2.13-3.47,2.91-5.11,8.23.18-.52.06-.6.23-1.13-1.11,1.83-.63,4.1-2.19,6.27.64,1.73-1.13,3.12.13,4l.67-2.48c.34-1.24.66-2.48.66-2.48-.56,2.87.22,6-2.23,10.27a11,11,0,0,1,.1-2.92c-.88,1.17-.64,2.64-1.55,3.85-1.23-.9,1.81-6,1.72-9.29-1.06,1.21-.88,5.91-1.88,3.9,1.14,2.8-2,5.08-1.94,9.15l-.71-.54a11.68,11.68,0,0,1-.54,2.94l-.34-2.27a8.77,8.77,0,0,1-1.56,4.16,13.43,13.43,0,0,0-1.85,3.93c2.18-5.7,1.42-.89,2.92-3.08-.84,3.75-1.81,4.53-2.8,5.4s-2,1.75-3.41,5.39c.52-1.22,1.89-3.19,1.57-1.58a20.72,20.72,0,0,1-2.61,4c-2.09,5.19,1-.46.51,1.92-1.6,1.35-.76,2.69-1.58,5l-.66-.31c-3.11,5.58.62,2.22-2.44,7.13l.25-2.62-1.11,2.8-.4-.92c-.91,3.21-1.58,4-3.2,6.75.72-.44.8.94-.6,3.41-1.25,1.51,0-1.24-1.84,2.32a4.76,4.76,0,0,1,1.52-3.34c-.08-.26.1-1,0-1.24-1.35,1.61-2.54,4.54-3.3,5.78a10.34,10.34,0,0,1,.9-1.29l-1.13,2.71-.8,1.86c-.22.51-.38.84-.38.84-.66.67-.4,0-.15-.73-.57,1-.8,1.86-1.69,3.35-.11-.61-.51-.76.59-3L350.61,219l-.87,1.71-.41.76c-.35.21-1.94,2.1-1.66,1.42-.92,1.22-1.79,2.9-2.83,4.63-.51.87-1,1.77-1.61,2.64a30.5,30.5,0,0,1-1.88,2.45,7.35,7.35,0,0,1-.78,1.3c-2.43,3-4.85,5.33-7.59,9,0,0-.52.4-1.06.77l-1.06.76c-2.37,2.65,2.85-2.08-1.11,2.32-2.86,3.07-1.4.81-2.53,1.75-.67.81-1.55,1.95-2.7,3.13a31.7,31.7,0,0,1-4.12,3.55c.92-.89,1.7-1.51,2.57-2.33l-2.36,1.76c2.38-2.65,4.35-4.26,2.08-2.69.13.45-1.93,2.43-4.14,4.21s-4.43,3.53-4.34,4l-1.65,1c.45-.32.49-.42.93-.73a11.48,11.48,0,0,0-1.72,1.18,7.69,7.69,0,0,0-1,.89,13.45,13.45,0,0,1-3.4,2.55c-1.47.85-2.56,1.33-1.62.66l-3.16,2.09c-.81.46-.82.33-.23,0l-4.58,2.73,0,0c-.65.52-2.19,1.6-2.94,2.13-1.36.59.6-.44.21-.36l-2.7,1.73c-1.27.4,1-1.07,2.91-2.09-3.09.6-2.22,1.48-8.18,4l2.61-1.53a15.46,15.46,0,0,0-3.13,1.16c-1.16.51-2.47,1.1-4.1,1.68.83-.15,6.56-2.22,3.57-.45a21,21,0,0,0-3.67,1.93c-.19-.32-1.79.57-3.83,1.6l-.1-.53a16.55,16.55,0,0,0-3.05,2.23c-2.5,1.18-3.21,1-4,1-4.08,1.72,3.1-.62-1.62,1.63a62.79,62.79,0,0,0-9.54,4.75c-2.44.86.24-.55-.69-.34l-1.85,1.42c-.51.22-.42,0-.37-.12-1.66,1,.15.7-2.53,2.1-.21.51-1.76.87-3.64,1.36a21.85,21.85,0,0,0-4.44,1.53l-.07,4.27c2.46-1.1,3-1.33,6-2.77l-1,.32c.93-1.43,2.68-1.44,5.3-2.81l0,.12c6.29-2.5,2.5-1.54,8.73-4l-.53-.26c.12-1.17,5.55-2.1,8.84-4.18l-1.36.41c1.77-1.18,5.77-1.68,7.68-2.62.44-.16-.59.45-1.13.82,5.11-2.24.4-.8,4-2.88.8-.13-.55,1.07,1.92-.22a38.51,38.51,0,0,0,4.29-2.68,39.35,39.35,0,0,1,5.93-3.47c-.82.26-1.63.51,0-.56,1.26-.76,3.1-1.56,4.83-2.48a23.75,23.75,0,0,0,4.41-2.79c.35-.15.49-.19.53-.16a85.64,85.64,0,0,0,7.13-5,3.85,3.85,0,0,0,1.17-.44c.46-.27,1-.63,1.56-1,1.14-.85,2.5-1.88,3.71-3s2.39-2.11,3.29-2.82,1.49-1.16,1.64-1l2.62-2.3c.67-.56,1.28-1.19,1.76-1.63l.79-.75-.06.2c.83-.74,1.52-1.38,2.09-1.94s1-1.06,1.39-1.5a26.54,26.54,0,0,0,1.68-2.15c.78-.67.32-.07.3,0,2.36-2.25,3.6-3.55,4.71-4.78s2-2.52,3.52-4.77l.68-.18c.73-1.29,6.65-6.77,10-12.29,0,.08,0,.24-.24.69,1.91-3.06,4.67-6.39,7-9.39s4.07-5.65,3.72-7.37l1.9-4.37c-3.25,5.2-.47-1.3-2.08.68,1.06-2.15,3.63-5.09,2.35-2.43l-.33.35c.31.79,1.33-.82,2.37-2.56s2-3.63,2.42-3.34c2.83-5.34,5.61-10.63,8.23-15.91s5.09-10.53,7.14-15.82l-1.72.75,1.46-3.67c.66-.86,1.5-.94.44,1.68,1.27-1.12,1-4.66.76-4.83,2.37-5,.79,2.56,1.38,1l.68-2.2-.33.44c.1-1.94-.42-2.29.72-5.48.94-1.95,1.16-.78,1.47-1.56.09,0,.23-.22.43-1.22l1.6-4.72-1.64,1.58c.16-2.26,1.41-4.45-.42-2.62,1.4-1.33,2.88-5.73,4.06-10,.29-1.07.57-2.13.82-3.14L389.14,128A24.7,24.7,0,0,0,387.71,134ZM286.18,276.65a13.74,13.74,0,0,1,2.78-1.57C288.28,275.89,287.54,276.1,286.18,276.65Zm104-126.56-.47.67C390,149,390.05,149.54,390.16,150.09Z"/><path class="cls-2" d="M341.26,232.7l.08-.1a.32.32,0,0,0,0-.15Z"/><path class="cls-2" d="M279.82,278.65l-.1.19a7.33,7.33,0,0,0,1.9-.74Z"/><polygon class="cls-2" points="308.1 263.73 307.63 264.01 308.7 263.79 308.1 263.73"/><path class="cls-2" d="M328.3,246.61c-.78.75-1.63,1.7-2.42,2.45C327.51,247.36,328.86,246.77,328.3,246.61Z"/><path class="cls-2" d="M234.53,300.68a20.42,20.42,0,0,0-2.39.5Z"/><path class="cls-2" d="M232.09,301.52a.69.69,0,0,1,.49.21C232.85,301.5,232.8,301.38,232.09,301.52Z"/><path class="cls-2" d="M410.79,15.27c0,.52,0,1.36,0,2.16C410.81,17,410.82,16.39,410.79,15.27Z"/><polygon class="cls-2" points="410.86 5.71 410.94 6.56 410.91 4.18 410.86 5.71"/><path class="cls-2" d="M410.53,2l.14-.56L410.46,0C410.5.54,410.56,1.58,410.53,2Z"/><path d="M714.5,414.71l.25.06.27.06.33.09.3.08.36.11.32.1.39.13.34.12.43.16.36.14.48.19.36.15.58.26.31.14.95.45A56.48,56.48,0,0,1,738,431.81l.77,1,.16.23.67.92.11.15.56.77.1.14.53.74.14.19.45.63,0,0,.43.61.1.14.36.51.08.12.25.36.08.12.25.36.09.13.14.21.07.1h0l.35-.26.11-.08.34-.27.16-.13.36-.32.16-.14c.18-.16.35-.33.53-.51l.43-.46.13-.14.28-.33.12-.14.29-.35.06-.08.31-.4.08-.11.19-.25.08-.12.14-.2.06-.09v0l0-.11,0-.14-.07-.27,0-.15-.14-.51,0-.11-.16-.5-.08-.24-.16-.46-.11-.29-.19-.49-.13-.32-.23-.55-.14-.32-.33-.71-.11-.23q-.23-.48-.5-1l-.15-.28-.42-.76-.23-.39-.43-.7-.27-.43-.47-.72-.3-.44-.57-.79-.29-.39c-.3-.4-.61-.8-.95-1.21-4.05-5-7.62-7.72-11.94-9.23q-.58-.21-1.24-.38l-.46-.1c-.3-.07-.6-.14-.92-.2l-.62-.1-.9-.14-.74-.08-.87-.09A25.33,25.33,0,0,0,714.5,414.71Z"/><path d="M711.72,425.94l.82.51.21.13c.32.21.65.44,1,.68l.71.54.16.13.65.54.06.05c.33.28.66.59,1,.91l.29.27a1.14,1.14,0,0,1,.34.23,79.33,79.33,0,0,1,10.55,13.88l.31,0h.11l.56-.06h.13l.55-.06.17,0,.73-.09.13,0,.69-.09.22,0,.86-.12h.1l.81-.13.24,0,1-.16.91-.19.26-.06.72-.19.22-.06.9-.28.2-.07.71-.25.25-.09.79-.3,0,0,.79-.32L740,441l.58-.25.13-.06.61-.27h0l-.18-.26,0-.07-.23-.34-.06-.09-.29-.43-.09-.13-.34-.49-.11-.15-.32-.46-.12-.16-.44-.62L739,437l-.5-.69-.12-.17-.5-.69-.15-.21-.64-.88-.16-.22-.75-1A54.73,54.73,0,0,0,719.53,419c-5-2.43-7.47-2.3-7.74-2.28l-.14,0-.07,0-.17,0-.12,0-.22.08-.16.07-.22.09a24.93,24.93,0,0,0-6.07,6.6,11.33,11.33,0,0,1,4.93,1.14h0q.47.21,1,.47t1,.55Z"/><path d="M747.3,450c-.26.23-.54.46-.83.69-4.71,3.68-9.51,6.07-13.88,6.9l-1,.18-.3.05-.73.12-.3,0-.86.12h-.11l-.94.12-.25,0-.67.07-.27,0-.72.07h-.13l-.82.07h-.17l-.6,0h-.2l-.57,0h-.12l-.64,0h-.1l-.46,0H722v.05c0,.18,0,.38,0,.6,0,0,0,.07,0,.1,0,.24,0,.48,0,.74a3,3,0,0,0,0,.34v.08a2,2,0,0,0,0,.2v0a1,1,0,0,0,0,.13h.11l.17,0,.12,0,.2,0,.15,0,.28,0h.12l.45,0h.11l.4,0h.18l.37,0h.21l.41,0h.21l.54,0h1.73l.49,0h.27l.52,0,.24,0,.77-.07a24,24,0,0,0,8.1-2.11l.46-.2.24-.11h0a25.09,25.09,0,0,0,9-9.4l-.43.39Z"/><path d="M700.69,437.22a21.22,21.22,0,0,1,1.5-4,30.35,30.35,0,0,1,4.76-6.88,4.76,4.76,0,0,0-2.11-.35,7.79,7.79,0,0,0-1.48.49A26.35,26.35,0,0,0,700.69,437.22Z"/><path d="M748.79,426.8l-.07-.32A25.26,25.26,0,0,0,737,414.56q-.89-.44-1.82-.81l.19.13.58.41.32.24.62.49.26.21c.29.24.59.49.88.75l0,0,.84.78.27.26.61.6.32.33.58.61.32.34.61.69.28.32.89,1.05c.4.49.78,1,1.13,1.45l.35.48c.23.31.45.62.66.93l.37.56c.18.27.36.54.52.81l.34.56.44.75.3.55.38.7.26.52.32.66.22.49.27.62.18.44.23.58.1.24c.06-.27.1-.55.13-.84,0-.09,0-.18,0-.27s0-.18,0-.27,0-.21,0-.32,0-.17,0-.26,0-.23,0-.35,0-.17,0-.26,0-.24,0-.36,0-.18,0-.26,0-.25,0-.38,0-.18,0-.27,0-.25-.06-.38Z"/><path d="M750.74,439.61q.06-.21.11-.45t.1-.51h0q0-.27.09-.58V438c0-.16,0-.33.06-.5,0,0,0,0,0,0h0s0,0,0,0q0-1.06-.07-2.12h0q-.09-1.09-.26-2.17v0l-.12.41-.05.17-.17.5h0l-.15.4,0,.13-.09.21-.05.12-.07.16-.09.2,0,.07v0l0,.06,0,.05,0,.05,0,0,0,.06A24.68,24.68,0,0,1,747,439.2a16.5,16.5,0,0,1-3.47,2.71h0c-.07,0-.69.35-1.63.77h0l-.38.17-.08,0-.34.15-.17.07-.3.12-.21.08-.28.12-.24.1-.27.11-.28.11-.26.1-.31.11-.25.09-.36.12-.21.07-.59.19a24.21,24.21,0,0,1-2.91.74l-1,.18-.24,0-1,.15h-.07l-.86.12-.22,0-.83.11h-.09l-.7.08-.16,0-.67.07h-.06l-.56.05h-.07l-.49,0-1,1.83-.49.91,0,0-.25.47-.06.12-.21.4-.09.16-.18.34-.11.22-.16.31-.11.22-.17.32-.1.19-.16.31-.1.2-.15.29-.09.19-.22.45c-.16.32-.3.64-.44.94h0c-.13.3-.25.59-.36.87v0q-.16.41-.29.77v0c-.08.24-.16.47-.22.68h.07l.64,0h.25l.67,0h.24l1-.07.22,0,.86-.08.34,0,1-.1.2,0,1.22-.15.33,0,1-.15.38-.06,1.32-.23c4-.77,8.48-3,12.9-6.46C748.95,445.84,749.82,442.81,750.74,439.61Z"/><path d="M716.17,460.43h0a25.12,25.12,0,0,0,3.67,1.22v0l-.05-.16,0-.12,0-.19,0-.13c0-.07,0-.15,0-.23s0-.08,0-.12,0-.25,0-.39a12.73,12.73,0,0,1,.24-2.93v-.06c0-.1.09-.42.22-.89l0-.06.12-.43.06-.18.13-.4.1-.29.13-.37.16-.42.12-.3q.15-.38.33-.79l.25-.55.26-.54.25-.51.08-.16.19-.38.1-.21.19-.36.1-.19.22-.42.08-.16.3-.57.05-.1.27-.51.06-.11.25-.47.07-.13.25-.47,0-.08,1.2-2.22a80.26,80.26,0,0,0-9-12.23l-.12.27,0,.07-.21.46-.28.63-.05.13-.32.74,0,.06c-.37.87-.77,1.82-1.15,2.8l0,.11-.32.82-.08.2-.35.95v0a40,40,0,0,0-2.08,7.52q-.08.48-.13,1c-.05.46-.1.91-.13,1.37s0,.91-.05,1.37q0,.35,0,.7a10,10,0,0,0,2,6.51l.09.13,0,.05.1.12.07.08.14.15.09.1.12.13.06,0c.34.19.69.37,1,.54s.76.36,1.15.53Z"/><path d="M709.34,456.19l0-.11,0-.15-.09-.37,0-.15c0-.16-.07-.33-.1-.5v0c0-.19-.06-.39-.09-.59l0-.17c0-.15,0-.3-.05-.46l0-.22c0-.16,0-.32,0-.48s0-.14,0-.21c0-.24,0-.48,0-.73-.05-4,.68-7.67,2.53-12.73l.26-.7v0c.76-2,1.56-3.92,2.21-5.38.35-.8.68-1.51.95-2.09l0,0c-.38-.36-.77-.7-1.16-1l-.06-.05c-.36-.3-.73-.59-1.1-.86h0l-.82-.57-.47-.3-.29-.18-.67-.39,0,0-.74-.39c-1.5,1.61-5.57,6.42-6.44,12.05a27.21,27.21,0,0,0,.09,8.42A25,25,0,0,0,709.34,456.19Z"/><path class="cls-2" d="M723.19,409.83h0a27.59,27.59,0,0,0-13.75,5.34,27.24,27.24,0,0,0-7.14,7.93l-.06.12a11.58,11.58,0,0,0-.61,1.69,1.13,1.13,0,0,0-.14.2c-3.82,7.78-4.12,15.68-.88,22.84a1.11,1.11,0,0,0,.15.22v.09a1.14,1.14,0,0,0,.09.29,27.26,27.26,0,0,0,11.55,12.61l0,0,.12.06h0l.28.15h0l.07,0c.29.16.58.31.87.46s.77.36,1.15.53h0l0,0h0l.21.09.07,0h0l.93.37.06,0h0a27.31,27.31,0,0,0,6.93,1.61h0a27.73,27.73,0,0,0,16.85-3.79,27.51,27.51,0,0,0,13.34-23.16s0,0,0-.06,0-.06,0-.08h0c0-.16,0-.32,0-.48h0s0-.06,0-.09c0-.31,0-.63,0-.94v0c0-.17,0-.33,0-.5s0,0,0-.08v-.1s0-.06,0-.09,0-.35,0-.52v0l0-.18s0,0,0,0c0-.19,0-.37-.06-.56,0,0,0-.06,0-.09h0a1.13,1.13,0,0,0-.44-.68.9.9,0,0,0,.2-.44,1.13,1.13,0,0,0,0-.36l0-.15c0-.12,0-.25-.07-.37s-.09-.44-.15-.66-.14-.62-.22-.92-.12-.41-.18-.62-.18-.62-.28-.93-.14-.4-.21-.6-.21-.61-.33-.92-.15-.36-.23-.54-.25-.6-.38-.9h0a27.5,27.5,0,0,0-27.66-15.8Zm15.73,49h0l-.24.11-.46.2a24,24,0,0,1-8.1,2.11l-.77.07-.24,0-.52,0h-.27l-.49,0H726.1l-.54,0h-.21l-.41,0h-.21l-.37,0h-.18l-.4,0h-.11l-.45,0h-.12l-.28,0-.15,0-.2,0-.12,0-.17,0H722a1,1,0,0,1,0-.13v0a2,2,0,0,1,0-.2v-.08a3,3,0,0,1,0-.34c0-.26,0-.51,0-.74,0,0,0-.07,0-.1,0-.22,0-.42,0-.6v-.05h.67l.46,0h.1l.64,0h.12l.57,0h.2l.6,0h.17l.82-.07h.13l.72-.07.27,0,.67-.07.25,0,.94-.12h.11l.86-.12.3,0,.73-.12.3-.05,1-.18c4.37-.84,9.17-3.23,13.88-6.9.29-.23.57-.46.83-.69l.24-.22.43-.39A25.09,25.09,0,0,1,738.92,458.78ZM724.18,412.2l.74.08.9.14.62.1c.32.06.62.13.92.2l.46.1q.66.17,1.24.38c4.31,1.52,7.88,4.28,11.94,9.23.33.41.65.81.95,1.21l.29.39.57.79.3.44.47.72.27.43.43.7.23.39.42.76.15.28q.27.51.5,1l.11.23.33.71.14.32.23.55.13.32.19.49.11.29.16.46.08.24.16.5,0,.11.14.51,0,.15.07.27,0,.14,0,.11v0l-.06.09-.14.2-.08.12-.19.25-.08.11-.31.4-.06.08-.29.35-.12.14-.28.33-.13.14-.43.46c-.17.18-.35.35-.53.51l-.16.14-.36.32-.16.13-.34.27-.11.08-.35.26h0l-.07-.1-.14-.21-.09-.13-.25-.36-.08-.12-.25-.36-.08-.12-.36-.51-.1-.14-.43-.61,0,0L741,436l-.14-.19-.53-.74-.1-.14-.56-.77-.11-.15-.67-.92-.16-.23-.77-1a56.48,56.48,0,0,0-17.46-14.88l-.95-.45-.31-.14-.58-.26-.36-.15-.48-.19-.36-.14-.43-.16-.34-.12-.39-.13-.32-.1-.36-.11-.3-.08-.33-.09-.27-.06-.25-.06a25.33,25.33,0,0,1,8.81-2.59Zm-14.61,12.62h0a11.33,11.33,0,0,0-4.93-1.14,24.93,24.93,0,0,1,6.07-6.6l.22-.09.16-.07.22-.08.12,0,.17,0,.07,0,.14,0c.27,0,2.78-.15,7.74,2.28a54.73,54.73,0,0,1,16.63,14.18l.75,1,.16.22.64.88.15.21.5.69.12.17.5.69.15.21.44.62.12.16.32.46.11.15.34.49.09.13.29.43.06.09.23.34,0,.07.18.26h0l-.61.27-.13.06L740,441l-.19.08-.79.32,0,0-.79.3-.25.09-.71.25-.2.07-.9.28-.22.06-.72.19-.26.06-.91.19-1,.16-.24,0-.81.13h-.1l-.86.12-.22,0-.69.09-.13,0-.73.09-.17,0-.55.06h-.13l-.56.06h-.11l-.31,0a79.33,79.33,0,0,0-10.55-13.88,1.14,1.14,0,0,0-.34-.23l-.29-.27c-.34-.32-.67-.63-1-.91l-.06-.05-.65-.54-.16-.13-.71-.54c-.34-.24-.66-.47-1-.68l-.21-.13-.82-.51-.16-.09q-.5-.29-1-.55T709.58,424.82ZM704.84,426a4.76,4.76,0,0,1,2.11.35,30.35,30.35,0,0,0-4.76,6.88,21.22,21.22,0,0,0-1.5,4,26.35,26.35,0,0,1,2.68-10.73A7.79,7.79,0,0,1,704.84,426Zm4.52,1.26.74.39,0,0,.67.39.29.18.47.3.82.57h0c.37.27.73.56,1.1.86l.06.05c.39.32.77.67,1.16,1l0,0c-.27.58-.6,1.29-.95,2.09-.64,1.46-1.44,3.35-2.21,5.38v0l-.26.7c-1.85,5.06-2.58,8.75-2.53,12.73,0,.25,0,.49,0,.73,0,.07,0,.14,0,.21s0,.32,0,.48l0,.22c0,.16,0,.31.05.46l0,.17c0,.2.06.4.09.59v0c0,.17.07.34.1.5l0,.15.09.37,0,.15,0,.11a25,25,0,0,1-6.33-8.47,27.21,27.21,0,0,1-.09-8.42C703.79,433.67,707.86,428.86,709.36,427.25Zm4.4,32-.06,0-.12-.13-.09-.1-.14-.15-.07-.08-.1-.12,0-.05-.09-.13a10,10,0,0,1-2-6.51q0-.35,0-.7c0-.46,0-.92.05-1.37s.07-.91.13-1.37.08-.63.13-1a40,40,0,0,1,2.08-7.52v0l.35-.95.08-.2.32-.82,0-.11c.39-1,.78-1.93,1.15-2.8l0-.06.32-.74.05-.13.28-.63.21-.46,0-.07.12-.27a80.26,80.26,0,0,1,9,12.23l-1.2,2.22,0,.08-.25.47-.07.13-.25.47-.06.11-.27.51-.05.1-.3.57-.08.16-.22.42-.1.19-.19.36-.1.21-.19.38-.08.16-.25.51-.26.54-.25.55q-.18.41-.33.79l-.12.3-.16.42-.13.37-.1.29-.13.4-.06.18-.12.43,0,.06c-.13.47-.2.79-.22.89v.06a12.73,12.73,0,0,0-.24,2.93c0,.13,0,.26,0,.39s0,.08,0,.12,0,.15,0,.23l0,.13,0,.19,0,.12.05.16v0a25.12,25.12,0,0,1-3.67-1.22h0l-.22-.09c-.39-.17-.77-.34-1.15-.53S714.1,459.46,713.76,459.27Zm31.3-10.39c-4.42,3.46-8.88,5.69-12.9,6.46l-1.32.23-.38.06-1,.15-.33,0-1.22.15-.2,0-1,.1-.34,0-.86.08-.22,0-1,.07h-.24l-.67,0h-.25l-.64,0h-.07c.06-.21.14-.43.22-.68v0q.13-.36.29-.77v0c.11-.28.23-.57.36-.87h0c.13-.3.28-.62.44-.94l.22-.45.09-.19.15-.29.1-.2.16-.31.1-.19.17-.32.11-.22.16-.31.11-.22.18-.34.09-.16.21-.4.06-.12.25-.47,0,0,.49-.91,1-1.83.49,0H728l.56-.05h.06l.67-.07.16,0,.7-.08h.09l.83-.11.22,0,.86-.12h.07l1-.15.24,0,1-.18a24.21,24.21,0,0,0,2.91-.74l.59-.19.21-.07.36-.12.25-.09.31-.11.26-.1.28-.11.27-.11.24-.1.28-.12.21-.08.3-.12.17-.07.34-.15.08,0,.38-.17h0c.95-.42,1.56-.73,1.63-.77h0A16.5,16.5,0,0,0,747,439.2a24.68,24.68,0,0,0,2.71-3.39l0-.06,0,0,0-.05,0-.05,0-.06v0l0-.07.09-.2.07-.16.05-.12.09-.21,0-.13.15-.4h0l.17-.5.05-.17.12-.41v0q.18,1.08.26,2.17h0q.08,1.06.07,2.12s0,0,0,0h0s0,0,0,0c0,.18,0,.34-.06.5v.11q0,.3-.09.58h0q0,.27-.1.51t-.11.45C749.82,442.81,748.95,445.84,745.05,448.88Zm3.9-21.13c0,.13,0,.25,0,.38s0,.18,0,.26,0,.24,0,.36,0,.17,0,.26,0,.23,0,.35,0,.17,0,.26,0,.21,0,.32,0,.18,0,.27,0,.18,0,.27c0,.29-.07.57-.13.84l-.1-.24-.23-.58-.18-.44-.27-.62-.22-.49-.32-.66-.26-.52-.38-.7-.3-.55-.44-.75-.34-.56c-.17-.27-.35-.54-.52-.81l-.37-.56c-.21-.3-.43-.62-.66-.93l-.35-.48c-.36-.48-.73-1-1.13-1.45l-.89-1.05-.28-.32-.61-.69-.32-.34-.58-.61-.32-.33-.61-.6-.27-.26-.84-.78,0,0c-.29-.26-.59-.51-.88-.75l-.26-.21-.62-.49-.32-.24-.58-.41-.19-.13q.92.37,1.82.81a25.26,25.26,0,0,1,11.71,11.91l.07.32.06.3c0,.13,0,.25.06.38S748.94,427.66,749,427.75Z"/><path d="M338.51,709.78q-.3,1.36-5.43,9.32l-19.33,30.14a1.93,1.93,0,0,1-2,.13,142.76,142.76,0,0,0-17.65-11.5,298.59,298.59,0,0,0-50.17-22.55q-19.26-6.74-21.67-8.69-4.56-3.83-4.56-16.89l15.25-81.84,17-78.33q3.18-14.64-4.89-16.68,2.22.2,24.61,5.64Q284.26,522,294,521.82q-7.44,5.48-9.32,7.62a23.59,23.59,0,0,0-5.19,10.79q-7.72,35.51-30.83,148.28-.53,2.44,4.19,5.45,1.71,1.22,17,9.08,18.53,9.71,28.25,11.82a13.8,13.8,0,0,0,5.78-.59q3.89-1,3.35-1.12,1,.51,3.61-4.89l8.12-17.82q.19-4.78-4.3-12.86l.24-1.08,20.84,25.54Q339.21,706.53,338.51,709.78Z"/><path d="M438,633.07l-4.75,72.8-6.53,66q-26.74,20.77-48.41,35.76-8.09,5.58-11.39,5.37a2.63,2.63,0,0,1-1.87-1l-11.43-23.54q-3.05-8.26-2.85-11.3.22-3.32,4.53-5.54l26.44-13.29-.07,1.11q-6.17,5.16-7.31,9.81,1.18,7,3.32,20.23.94,6.45,2.05,6.25,1.92-.16,17.16-11.95,6.91-5.39,8.39-11.41l.52-8q-.05.83,3-53.73l-22.47,23.83-25.8-17.88-1.93-63.24,30.93-39.59,22.68,14.54q.24-8,.29-13,4.68,4.2,16.37,10.52Q438.11,630.86,438,633.07ZM409.9,701q1.3-28.79,1.82-58.47l-21-14.11-8.65,81.27,7.83,7.77Z"/><path d="M516.18,727.14a2.67,2.67,0,0,1-1.4.53.44.44,0,0,1-.41-.29.45.45,0,0,0-.41-.29,1.6,1.6,0,0,0-1.12.53l-2.25,1.62a12.62,12.62,0,0,0,1.44-2.47,8,8,0,0,1-2.19-1.43l-15.35-23.06q-.32,2-.29.84-2.82,2.19-6.83,8.69t-6,7.87q-11.83,8.73-14,8.69a2.16,2.16,0,0,1-1.92-.87l-20.83-26q-.82-.85-.16-19.47.45-8.89,1.54-35,.07-3.33.91-10.69t.92-11.25q.13-6.39-10.36-9.11l16.65-.22,24.65,2.17q-7,1.8-7.92,7.61.5,2.51-.9,30.5l-1.82,35.2q-.17,8.6.36,9.72,2.39,5.32,7.41,4,4.58-7.12,12.56-17.5l.47-23.3.28-13.87.11-5.55a3.91,3.91,0,0,1,2.94-3.55l15.13-11.9,0,1.11a3,3,0,0,0-1.43,2.19,5.43,5.43,0,0,0,1.33,2.66,5.49,5.49,0,0,1,1.33,2.66q-1.38,26.89-1.18,58.24Q507.3,700.05,511,709q2.51-.5,16.74-18.25.1-5,2-29.92a259.69,259.69,0,0,0,.6-29.4q-.38-8.88-8.38-11,4.43.09,13.17.54t13.17.55q2.5.05,7.63-.12t7.63-.12q-6.44,2.65-7.28,3.46-2.54,1.89-2.64,6.88l-2.47,53.49Z"/><path d="M570.17,684.79l-6.64-12.18a20.2,20.2,0,0,1-2.6-13,6.26,6.26,0,0,1,2-3.92q3.26-3.16,29.5-13.93,8.1,7.91,17.1,17.34Q622.37,672.76,620,679.7l-10.2,62.42,10.08,2L596.5,763.46q-7.71,3.92-10.77,3.48-2.78-.4-1.48-3.58l1.44-9.88-18.92,8.46q-12.23.47-15.25-51,6-8.65,19.17-12.35L590,693q-10.81,8.8-11.37,14.6a54.51,54.51,0,0,0-1.67,7.61q-2.68,18.39,3.73,30.25,4.31,1.19,6.76-4.06L599.14,661l-4.44,1.6q-1.5.62-8.09,3.59-11.08,4.84-11.79,9.78l1.15,9.42Z"/><path d="M613,654.64q12.66-11.57,28.52-28.36L645,651q12.55-14.36,16.95-15a2.16,2.16,0,0,1,2,.55l16.07,20.72a7.58,7.58,0,0,1,2.89,4.64,3.48,3.48,0,0,1-2.25,4L657.5,684.26l-.15-1.1q5-6.3,5.17-11.09a69.21,69.21,0,0,0-5.27-9.62q-4.65-7.19-6.49-6.37-1.61.51-3.62,4.15,4.63,41.09,12.69,80.57,1.78,8.72,10,9.52l-11.68,1.64-11.67,1.64-7.55,1.06-7.55,1.06q6.72-4,7.82-6.14.94-1.25.33-5.65l-12.85-91.75Z"/><path d="M708,591.88,693.3,597l36.15,112.23a4.91,4.91,0,0,0,.2,2.28q1.63,4.72,17.93,11.12l-24.22-.43q-14.21-.37-17.27-6.65l-37-111.35-22,7.61q18.19-20.38,30-59.1l11,33.48,13.63-4.71Z"/><path d="M790.93,690.52q-2.53,1.15-20.26,9.45-19.93,9.24-25.35,8a1.11,1.11,0,0,1-1-.78L731.1,681q-1.79-8.63-1.13-11.61.72-3.25,5.32-4.79l6.13-2.06,12.52-.08a7.52,7.52,0,0,0-3.36,4.94,35.4,35.4,0,0,0-.38,4.89,16.51,16.51,0,0,1-.7,5.1q.08,3.43,5.41,9.85t8.44,6.26q.66-3,7.18-8.36l-1.14,0A2.94,2.94,0,0,0,771,683q.78-3.53-14.86-32.48T741,619.41a2,2,0,0,1,1.49-1.67l3-2.18q2.5-1.15,20.13-9.52,19.8-9.31,25.17-8.13a1.11,1.11,0,0,1,1,.78L804.83,625q1.75,8.68,1.09,11.67-.72,3.28-5.33,4.83l-20.46.06.24-1.08a7.1,7.1,0,0,0,4-5.09,37.38,37.38,0,0,0,.46-5.3,18.5,18.5,0,0,1,.79-5.51q-.1-3.43-3.67-7.2t-7.09-4.55q-3-.66-6.74,2.21t-4.47,6.12a5.15,5.15,0,0,0,.37,3.49q6,12.69,21.28,38.77,10.74,18.28,9.67,23.15a3.69,3.69,0,0,1-2,2.68l-1.68-.09Z"/><path d="M348.16,647.84q-.23,7.07-18.39,11.65-15.15,3.87-24,2.92L301,660.47Q278.69,633,278.46,626.7q2.42-12.82,17.08-62.09A155.36,155.36,0,0,1,339,553.12l16.08,17.72,1.34,4q4.61,7.06,1.34,26Q356.06,610.38,348.16,647.84Zm-27.45.42q16.48-70.49,14.39-84.66l-9.84,3.11q-5.42,2.44-7.65,5.9L302.34,644a13.37,13.37,0,0,0,5.46,9.54Q316.48,653,320.71,648.26Z"/><polygon points="503.8 751.04 527.53 824.77 503.01 820.78 506.61 881.55 480.93 801.85 503.38 805.15 503.8 751.04"/></svg>