<svg id="Layer_1" data-name="Layer 1" xmlns="http://www.w3.org/2000/svg" viewBox="0 0 1000 1000"><defs><style>.cls-1,.cls-2,.cls-4,.cls-5{fill:#fff;}.cls-2,.cls-5{stroke:#000;}.cls-2,.cls-4,.cls-5{stroke-miterlimit:10;}.cls-2{stroke-width:4px;}.cls-3{fill:#83645d;}.cls-4{stroke:#fff;}.cls-5{stroke-width:6px;}</style></defs><title>mod olympus</title><path d="M502.57,548.32a207.62,207.62,0,0,0-3.25-415.21c-114.31.31-206.8,93-206.94,207.5C292.4,455.41,385.5,549.6,502.57,548.32ZM500,140.14c110.11,0,199.53,88.61,200.57,198.63A200.57,200.57,0,1,1,500,140.14Z"/><path d="M364.86,448.66c1.9-1.54,3.85-3,5.79-4.52l5.64-4.36a156.75,156.75,0,0,0,26.22,25.93l-6,7.86c-6.1-5.69-11.93-11.1-17.71-16.56-2-1.93-4-2.12-6.08-.22-3.69,3.42-7.31,6.9-11,10.35-2.25,2.11-2.51,3.77-.4,6,3.83,4,7.69,8,11.83,11.74,3.54,3.17,7.43,6,11.27,8.77,4.55,3.32,9.2,6.5,13.83,9.71,1.74,1.21,3.5,2.41,5.34,3.46,2.43,1.38,4.66.67,6-1.71,1.25-2.19,2.58-4.33,3.79-6.55,2.07-3.78,4.06-7.6,6.11-11.4,1.34-2.49,2.73-5,4.14-7.5A151.24,151.24,0,0,0,458,493.55l-2.58,9.06c-3.89-1.12-7.57-2-11.11-3.25-4.06-1.45-8-3.29-12-4.88-2.34-.93-3.93-.35-5,1.84q-3.56,7.45-7,15c-.69,1.52-.61,3.14,1,4,3.22,1.68,6.4,3.62,9.83,4.69q15.77,4.91,31.74,9.17c3.76,1,7.74,1.21,11.63,1.66,2.88.33,4.77-.87,5-3,.63-6.22,1.21-12.44,1.83-18.66.35-3.54.73-7.08,1.11-10.74a158.92,158.92,0,0,0,37.07-.27l1.2,9.24c-1,.1-1.68.22-2.4.25l-21.73.9a4,4,0,0,0-4.25,4.26q-.35,7.68-.7,15.36a3.6,3.6,0,0,0,2.75,4,10.29,10.29,0,0,0,2.75.33,167,167,0,0,0,31.61-2.24c6.92-1.18,13.8-2.66,20.65-4.23,3-.7,3.9-2.65,3.06-5.54q-3.81-13.1-7.59-26.2c-.12-.43-.21-.86-.3-1.24,11.71-3.92,23.08-8.27,33.71-14.64l4.86,8.26c-3.76,2-7.34,4-11,5.78s-7.55,3.25-11.28,5c-2.18,1-2.76,2.69-2,4.95q2.55,7.22,5.15,14.43c1,2.81,3.3,3.86,6,2.63q9.68-4.4,19.3-9c1.61-.76,3.1-1.8,4.63-2.72,4.76-2.86,9.6-5.61,14.26-8.62,3.12-2,6-4.38,9-6.61a3.76,3.76,0,0,0,.71-5.31q-2.6-3.38-5.3-6.69c-3.57-4.36-7.18-8.68-10.75-13a14,14,0,0,1-1.84-2.58,1.79,1.79,0,0,1,.31-1.65c2.61-2.45,5.4-4.7,7.94-7.21,4.37-4.32,8.64-8.76,12.87-13.22,1.44-1.52,2.65-3.27,4.05-5l7.51,5.66c-1.47,1.87-2.73,3.67-4.2,5.27-4.08,4.47-8.25,8.84-12.36,13.28-1.74,1.88-1.75,3.44,0,5.27Q621.6,473,627,478.68c2.09,2.16,3.72,2.22,6,.14,2-1.82,3.91-3.76,5.75-5.74,3.56-3.84,7.28-7.55,10.48-11.67,4.34-5.59,8.29-11.49,12.34-17.3,1.59-2.28,3.12-4.63,4.51-7,1.68-2.89,1-5.18-1.89-6.77-6.66-3.71-13.31-7.46-20-11.13-1.6-.88-3.32-1.54-5.1-2.35C645,405.63,650,394.39,653,382.14l9.16,2.63c-1.28,4.22-2.35,8.26-3.73,12.2-1.27,3.63-2.9,7.13-4.32,10.72-1,2.55-.42,4.13,2,5.24,4.69,2.2,9.46,4.22,14.07,6.56,2.65,1.34,4.64.36,5.93-2.36a65,65,0,0,0,3.63-8.63c2.9-9.38,5.8-18.78,8.27-28.28,1.23-4.73,1.61-9.7,2.2-14.58.43-3.55-.91-5-4.38-5.34-5-.42-9.95-.78-14.91-1.26-4.34-.42-8.67-1-12.83-1.43.21-6.2.61-12.11.57-18s-.52-11.9-.82-18l8.89-1.11a18.19,18.19,0,0,1,.3,1.9c.3,6.91.61,13.81.86,20.72.1,2.69,1.4,4.38,3.75,4.5q7.88.39,15.75.7c2.66.1,4.2-1.32,4.46-4,.06-.59,0-1.2.06-1.79.24-14-1.48-27.87-3.93-41.64a74.09,74.09,0,0,0-2.49-9.43c-.76-2.39-2.45-3.49-4.29-3-7.23,2-14.44,4.07-21.65,6.12-2.39.68-4.77,1.39-7,2A163.15,163.15,0,0,0,638,262.75l8.15-4.74c1.48,2.64,3.1,5.16,4.37,7.85,2.13,4.5,4,9.09,6,13.65,1.29,3,2.79,3.66,5.79,2.61l13.89-4.89c2.87-1,3.94-3.11,2.79-5.94-1.84-4.55-3.66-9.12-5.79-13.54a133.4,133.4,0,0,0-7.45-13.82c-4.35-6.81-9.09-13.38-13.72-20a3.49,3.49,0,0,0-5.1-.73q-2.53,1.9-5,3.9c-5,4.09-10.06,8.22-15.12,12.3-1,.78-2.07,1.39-3.18,2.13a157.84,157.84,0,0,0-26.15-25.78l5.63-7.44a47,47,0,0,1,4.24,3.11c4.73,4.37,9.4,8.82,14.07,13.26a3.91,3.91,0,0,0,5.66.14q5.53-5.15,11-10.35c2.53-2.42,2.61-4.08.21-6.61-2.23-2.35-4.59-4.56-6.89-6.84-1.51-1.49-2.9-3.13-4.53-4.46-3.64-3-7.34-5.86-11.13-8.63-4.65-3.4-9.42-6.65-14.15-9.94-1.64-1.14-3.28-2.27-5-3.25-2.68-1.52-4.8-.87-6.28,1.79q-4.15,7.47-8.28,15l-5.68,10.26c-11-5.83-22.2-10.82-34.4-13.84l2.64-9c3.83,1.08,7.46,1.91,10.94,3.15,3.94,1.4,7.74,3.17,11.61,4.77,2.93,1.22,4.44.65,5.79-2.21,2.06-4.38,4.1-8.78,6.14-13.17,1.57-3.38,1-5.08-2.47-6.64a75.94,75.94,0,0,0-8.63-3.63c-9.38-2.9-18.78-5.81-28.27-8.29-4.67-1.22-9.56-1.59-14.38-2.19-2.8-.35-4.7.85-4.92,2.86q-.9,8.23-1.71,16.47c-.42,4.28-.76,8.57-1.15,13.07a160.37,160.37,0,0,0-37.19.26l-1.19-9.19c.7-.1,1.09-.19,1.48-.21,7.37-.33,14.75-.69,22.12-1,3.2-.12,4.66-1.43,4.8-4.55.23-5.12.44-10.24.71-15.35a3.33,3.33,0,0,0-2.31-3.56,10.64,10.64,0,0,0-3.5-.56,169.14,169.14,0,0,0-31.61,2.29c-6.79,1.17-13.55,2.59-20.27,4.11-3.13.71-4,2.66-3.13,5.68q3.76,12.91,7.5,25.82c.16.55.25,1.12.35,1.57-11.73,3.94-23.09,8.32-33.71,14.65l-4.87-8.3c3.84-2,7.5-4,11.26-5.78s7.54-3.3,11.25-5.08c2.09-1,2.57-2.63,1.78-4.86q-2.58-7.21-5.18-14.42c-1-2.71-3.23-3.83-5.81-2.68q-8.81,3.91-17.53,8c-2.27,1.08-4.42,2.43-6.58,3.72-4.72,2.81-9.48,5.55-14.09,8.54-3.17,2.05-6.11,4.45-9.14,6.71a3.79,3.79,0,0,0-.69,5.32c1.44,1.89,2.93,3.75,4.43,5.58q6.23,7.62,12.49,15.22a4.07,4.07,0,0,1,1,1.47,2.05,2.05,0,0,1-.33,1.67c-2.61,2.45-5.4,4.7-7.94,7.21-4.37,4.32-8.63,8.74-12.86,13.2-1.44,1.52-2.64,3.27-4.06,5L367.23,238c1.37-1.78,2.5-3.51,3.88-5,4.13-4.51,8.36-8.93,12.53-13.4,1.89-2,1.92-3.53,0-5.56q-5.28-5.66-10.66-11.24c-2.07-2.14-3.64-2.26-5.85-.27s-4,4-6.05,6c-1.78,1.79-3.69,3.48-5.28,5.42q-4.48,5.43-8.64,11.12c-3.36,4.6-6.58,9.31-9.82,14-1.21,1.74-2.41,3.51-3.45,5.35-1.28,2.27-1,5.08.52,6q4.1,2.46,8.3,4.75c4,2.19,8.06,4.33,12.1,6.47,2,1,4,2,6,3.12C355,275.85,350,287.13,347.08,299.31l-9.1-2.63c1.15-4,2.09-7.85,3.4-11.59s3.07-7.5,4.58-11.25c1.06-2.63.48-4.14-2.09-5.35-4.56-2.16-9.13-4.29-13.73-6.36-3.21-1.44-4.77-.71-6.28,2.5-4.75,10.09-7.86,20.75-10.53,31.52-1.6,6.42-2.43,13-3.42,19.61-.52,3.43,1,5.11,4.32,5.4,6.3.53,12.59,1,18.88,1.63,3,.28,6,.74,9.17,1.13a161.63,161.63,0,0,0,.26,35.95l-9.2,1.11c-.07-.64-.13-1-.14-1.28-.32-7-.67-14.08-.95-21.13-.13-3.21-1.33-4.58-4.56-4.74q-7.38-.37-14.76-.65c-3-.12-4.54,1.27-4.68,4.35a55.47,55.47,0,0,0,0,7.18c.85,9.8,1.6,19.62,2.83,29.37a123.91,123.91,0,0,0,3.47,15.72c.77,2.95,2.59,3.69,5.48,2.88,6.27-1.75,12.54-3.47,18.8-5.25,3-.84,5.9-1.79,8.69-2.64,3.8,11.92,8.29,23.22,14.5,33.91l-8.11,4.76c-1.24-2.16-2.64-4.27-3.71-6.53-2.32-4.92-4.5-9.91-6.69-14.89-1.34-3.05-2.83-3.75-5.93-2.65l-13.71,4.83c-3.08,1.08-4.1,3.22-2.75,6.26,2.69,6.05,5.39,12.11,8.28,18.07A102.93,102.93,0,0,0,335.7,440c3.81,5.82,8,11.42,12,17.09,1.58,2.22,3.62,2.51,5.79.82q4.15-3.24,8.25-6.54C362.81,450.54,363.78,449.53,364.86,448.66Zm-14.64.81a178.25,178.25,0,0,1-21-37.72l9.45-3.95c.83,2.06,1.49,4.08,2.43,6,2,4,4.11,7.9,6.18,11.84.83,1.58,1.61,3.19,2.54,4.71,1.62,2.63,3.56,2.9,6.14,1.22,4-2.59,8.1-5.05,12.15-7.58,2.35-1.47,2.85-3.5,1.47-5.94-1.86-3.3-4-6.47-5.55-9.91-3-6.59-5.68-13.3-8.31-20a81.31,81.31,0,0,1-2.18-8.06c-.83-3-2.44-3.81-5.56-3.05-9.28,2.26-18.58,4.44-27.82,6.63-2.21-4.89-6-35.5-5-42.72H325.3c0,.65.09,1.35.13,2,.44,7.37.8,14.74,1.34,22.1.26,3.55,2.24,4.83,5.71,4.21q6.87-1.21,13.77-2.27c2.72-.42,4-1.93,3.53-4.72a137.43,137.43,0,0,1-1.44-27c.15-4.38.6-8.76,1.07-13.12.35-3.27-.75-4.84-4-5.31q-13.51-2-27-4c-.32,0-.63-.15-.92-.22,0-7.76,6.91-33.44,11.23-41.86l9.35,4c-1.32,3.48-2.79,6.81-3.86,10.27-1.45,4.68-2.69,9.44-3.85,14.21-.53,2.2.51,3.8,2.74,4.36,5.09,1.28,10.2,2.48,15.33,3.55,2.39.5,3.75-.61,4.49-3.15,1.43-4.9,2.57-9.91,4.36-14.67a141.34,141.34,0,0,1,11-23.63c1.72-2.85,1.27-4.33-1.57-6.08-6.09-3.75-12.17-7.53-18.28-11.26-2.09-1.28-4.26-2.43-6.61-3.76a194.12,194.12,0,0,1,26.52-33.91l7.45,6.79c-2.09,2.39-3.94,4.54-5.82,6.67s-3.92,4.32-5.78,6.57c-1.65,2-3.21,4.05-4.72,6.15-1.72,2.41-1.39,4,1,5.74,3.93,2.82,7.83,5.67,11.78,8.46,2.7,1.91,4,1.47,6.11-1.1,3.72-4.57,7.44-9.19,11.58-13.37,5-5.08,10.5-9.72,15.77-14.56.78-.72,1.57-1.43,2.31-2.19a3.2,3.2,0,0,0,.34-4.5c-2.27-3.18-4.53-6.37-6.85-9.52-2.68-3.64-5.44-7.21-8.1-10.86-.85-1.17-1.49-2.48-2.32-3.89a180.84,180.84,0,0,1,37.5-21l3.77,9.38-3,1.5-14.73,7.43c-1.54.78-3.14,1.44-4.6,2.34-2.64,1.63-2.94,3.53-1.29,6.12,2.5,3.91,4.91,7.87,7.39,11.8,1.88,3,3.73,3.34,6.84,1.52a106,106,0,0,1,9.91-5.54c6.53-2.94,13.17-5.63,19.84-8.24,2.52-1,5.26-1.36,7.87-2.13s3.49-2.55,2.84-5.21c-2.3-9.35-4.53-18.71-6.79-28,4.29-2.28,34.3-6,42.6-5.21v10.38c-1.43,0-2.88-.07-4.31,0-6.37.38-12.74.72-19.1,1.25-4.43.37-5.56,2.19-4.69,6.55.84,4.17,1.53,8.37,2.26,12.56.61,3.56,1.77,4.43,5.27,3.91a145,145,0,0,1,40.56-.32c3.3.43,4.82-.71,5.31-4q1.95-13,3.89-26c.1-.64.26-1.27.38-1.87,7.63,0,34.16,7.24,41.79,11.38l-4.06,9.44c-2.29-1-4.38-2-6.58-2.69-5.69-1.79-11.42-3.48-17.16-5.1-2.83-.8-4.5.2-5.21,3.06-1.23,4.9-2.38,9.82-3.5,14.74a3.57,3.57,0,0,0,2.69,4.45c2.4.77,4.8,1.6,7.27,2.12,6.82,1.46,13.07,4.39,19.28,7.4,4.35,2.11,8.63,4.36,12.94,6.54,2.12,1.07,3.71.64,5-1.53q7.15-11.61,14.24-23.25c.38-.61.78-1.21,1.32-2.07,1.71,1.2,3.33,2.31,4.91,3.47,6.08,4.48,12.23,8.88,18.2,13.51,3.08,2.39,5.87,5.15,8.73,7.82,2.17,2,2.08,2.08,0,4.13-1.76,1.71-3.4,3.54-4.94,5.15-4.68-4.13-9.1-8.09-13.6-12-1.86-1.6-3.84-3.05-5.85-4.47-2.32-1.64-3.94-1.34-5.6.94q-4.33,5.95-8.61,11.93c-1.79,2.52-1.43,3.9.92,5.85,4.53,3.78,9.17,7.47,13.35,11.61,5,5,9.6,10.41,14.37,15.64.27.29.49.63.76.93,3.29,3.58,3.75,3.8,7.77,1,6.15-4.27,12.11-8.82,18.17-13.22,1.38-1,2.86-1.88,4.54-3a179.12,179.12,0,0,1,20.94,37.58l-9.46,3.94c-.77-2-1.37-3.85-2.25-5.61-2-4.1-4.22-8.14-6.35-12.2-.83-1.58-1.61-3.19-2.55-4.71-1.63-2.63-3.55-2.89-6.14-1.22-4,2.59-8.11,5-12.16,7.58-2.36,1.47-2.84,3.47-1.47,5.94,2,3.54,4.22,7,5.88,10.64,2.89,6.41,5.51,12.94,8,19.49,1,2.58,1.44,5.38,2.18,8.06s2.49,3.64,5.29,3c9.34-2.28,18.69-4.5,28-6.72,2.11,3.8,6.06,34.67,5.08,42.74H674.57c0-1.57.08-3.09,0-4.59-.4-6.63-.81-13.26-1.31-19.88-.23-3.07-2.34-4.51-5.4-4q-7.17,1.23-14.35,2.4c-2.48.4-3.52,2-3.25,4.78.57,6,1.45,12,1.49,18.07,0,7.22-.53,14.45-1.07,21.66-.27,3.69.63,5.13,4.3,5.66q13.41,1.94,26.82,3.94c.26,0,.51.11.9.21-1.25,14.6-6.34,28.12-11.07,42L662,406.64c1.21-3.23,2.52-6.28,3.5-9.42,1.51-4.81,2.86-9.67,4.14-14.54.67-2.55-.42-4.33-3-5-4.9-1.21-9.82-2.36-14.76-3.4-2.6-.55-4,.45-4.74,3-1.36,4.64-2.52,9.36-4.13,13.91-1.53,4.31-3.42,8.5-5.35,12.65s-4.14,8.29-6.24,12.43c-1.1,2.17-.74,3.76,1.39,5.09,2.81,1.75,5.71,3.36,8.52,5.1,3.39,2.1,6.71,4.3,10.11,6.39,2.19,1.35,4.45,2.58,6.82,3.94a194.63,194.63,0,0,1-26.67,34l-7.1-6.69c5.52-6.72,10.9-13.16,16.15-19.72,1.76-2.2,1.31-3.93-1-5.58-3.93-2.81-7.84-5.66-11.79-8.45-2.72-1.93-4-1.53-6.13,1-4,4.85-8,9.77-12.4,14.25-4.83,4.89-10.14,9.31-15.23,13.95a9.49,9.49,0,0,0-2.33,2.41,4.86,4.86,0,0,0-.42,3.3,15.39,15.39,0,0,0,2.37,4.11c3.53,4.83,7.13,9.6,10.7,14.4l4.73,6.35a179.91,179.91,0,0,1-37.71,21.21l-3.8-9.55c1.83-.72,3.6-1.28,5.23-2.1,4.15-2.1,8.23-4.32,12.34-6.49,1.52-.8,3.09-1.52,4.56-2.4,2.88-1.72,3.22-3.56,1.43-6.37-2.53-4-5-8-7.48-12q-2.29-3.65-6.1-1.52c-3.36,1.89-6.58,4.08-10.08,5.65-6.71,3-13.53,5.8-20.38,8.48-2.51,1-5.26,1.36-7.86,2.14s-3.34,2.49-2.71,5.09c2.2,9,4.35,18.08,6.51,27.12.09.38.12.77.17,1.13-5.56,2.27-36.57,6.15-42.57,4.91V515.41c.74,0,1.45-.07,2.15-.11,7.55-.52,15.12-.92,22.66-1.62,3.09-.29,4.14-2.11,3.59-5.21-.86-4.84-1.76-9.68-2.66-14.51-.47-2.49-1.59-3.34-4.21-3.08-4.1.41-8.19,1-12.3,1.31a146.75,146.75,0,0,1-28.45-.76,8.79,8.79,0,0,0-4.35.65,3.68,3.68,0,0,0-1.49,2.55c-1,6.43-1.86,12.89-2.82,19.33-.45,3.07-1,6.13-1.58,9.46-3.69-.58-7.29-.84-10.71-1.74-6.87-1.8-13.66-3.9-20.46-6-3.11-.94-6.15-2.1-9.23-3.14-1-.33-1.46-.8-1-1.91,1.23-2.71,2.4-5.45,3.65-8.3,1.82.76,3.48,1.62,5.23,2.17q9.3,2.93,18.65,5.66c2.52.73,4.33-.34,5-2.92,1.28-5,2.46-10.07,3.6-15.12.48-2.12-.85-3.76-3.28-4.47-4.78-1.38-9.65-2.51-14.29-4.27-8.19-3.1-16.28-6.48-23.79-11.08-3-1.83-4.44-1.42-6.23,1.5q-7,11.37-13.9,22.74c-.38.62-.79,1.22-1.34,2.07-1.56-1.1-3.08-2.11-4.55-3.2-6.45-4.77-13-9.45-19.28-14.38-3.12-2.44-5.85-5.37-8.79-8-1.14-1-.83-1.76.14-2.75,1.94-2,3.74-4.12,5.57-6.16A149,149,0,0,0,395.67,481c2.38,1.78,4,1.46,5.74-.89,2.84-3.91,5.68-7.82,8.5-11.75,1.91-2.66,1.6-4-.87-6-7.09-5.89-14.27-11.68-20.37-18.64-3.14-3.59-6.21-7.24-9.38-10.8-1.79-2-3.21-2.09-5.4-.53q-8.58,6.13-17.14,12.28C354.61,446.13,352.54,447.74,350.22,449.47Z"/><path d="M500.31,483a142.23,142.23,0,1,0-2.67-284.44C422.61,199.37,354,262,358,348.21,361.32,420,420.54,482.64,500.31,483Zm-7.55-277.21C575,201.86,635.15,267.55,635.23,340c.09,75.86-60.65,136.15-135.75,135.84-74.78-.31-134.32-60.42-134.73-135.29C365.51,264.82,424.83,209,492.76,205.75Z"/><path class="cls-1" d="M500,224.52,364,285.45v1.63H635.8v-3.93ZM417.88,269.8l82-35.62,82,35.62Z"/><polygon class="cls-1" points="435.8 266.07 564.04 266.07 499.92 238.23 435.8 266.07"/><path d="M417.88,269.8H582l-82-35.62Zm17.92-3.72,64.12-27.84L564,266.07Z"/><polygon class="cls-1" points="645.41 283.25 650.59 271.24 499.87 206.16 349.43 273.59 354.78 285.52 499.97 220.45 500.72 220.78 645.41 283.25"/><path d="M655.49,269.29l-155.64-67.2L344.51,271.71l8.4,18.73,7.41-3.32v3.68h28.57v8.45h11.9v6.07a8.11,8.11,0,0,0-3.86-.21,8.6,8.6,0,0,0-6.09,5.94,8.29,8.29,0,0,0,1.77,8.64,8,8,0,0,0,8.17,1.64v11.43h5v88.38h-5v8.45h-3.15v26.09h-6.83V470H360.06v28H637.29V470H600.2v-14.3h-6.83V429.59h-3.15v-8.45h-5V332.76h5V321.29a7.94,7.94,0,0,0,8.26-1.6,8.29,8.29,0,0,0,1.77-8.63,8.6,8.6,0,0,0-6.09-5.94,8.13,8.13,0,0,0-3.94.23v-6.1h16.45V290.8h32.84v-6l7.83,3.38Zm-48.81,17.78H364v-1.63l136-60.93,135.8,58.63v3.93ZM603,295.53H392.62V290.8H603ZM586.5,329h-42v-4.73h42Zm10,140.94H534.56V459.4h61.91Zm37.09,9.81H363.78V473.7H633.57ZM363.78,494.3v-3.44H633.57v3.44Zm0-7.16v-3.62H633.57v3.62Zm33.86-27.73h58.81V470H394.54V459.4Zm3.72-26.09h48.26V438H401.37Zm3.15-8.45h42v4.73h-42Zm162.73-3.72V332.76h2.58v88.38Zm-3.72,0h-2.58V332.76h2.58Zm-6.3,0h-2.58V332.76h2.58Zm-6.3,0h-1.4V332.76h1.4Zm22.63,0V332.76h2.58v88.38ZM542.18,311a5.14,5.14,0,0,0-4.88-.75,3.5,3.5,0,0,0-2.12,2.86c-.11.83.09,2.77,1.41,3.44a2.1,2.1,0,0,0,2.5-.52,1.39,1.39,0,0,0-1.15-2.37,1,1,0,0,1,0-.19.7.7,0,0,1,.44-.65,2.41,2.41,0,0,1,2.13.42,3.05,3.05,0,0,1,1.4,2.47,3.73,3.73,0,0,1-1.76,2.87c-1.31.92-4.27.51-5.47-.76a5.58,5.58,0,0,1-1.16-5.84c.58-1.75,2-3.7,4-4.08,2.68-.53,5.27,1.2,6.65,3.15a10.91,10.91,0,0,1,1.66,4.13v5.45h-3.75a6.37,6.37,0,0,0,2.64-4.88A5.8,5.8,0,0,0,542.18,311Zm3.63-2.35a11.12,11.12,0,0,0-.88-.91h.88Zm35.71,12h-32V307.7h32Zm-40.69-15.26a8.1,8.1,0,0,0-3.85-.2,8.6,8.6,0,0,0-6.09,5.94,8.29,8.29,0,0,0,1.77,8.64,8,8,0,0,0,8.17,1.64v11.43h5v88.38h-5v8.45h-3.15v26.09h-6.83V470H460.18v-14.3h-6.83V429.59H450.2v-8.45h-5V332.76h5V321.29a7.94,7.94,0,0,0,8.26-1.6,8.29,8.29,0,0,0,1.77-8.63,8.6,8.6,0,0,0-6.09-5.94,8.13,8.13,0,0,0-3.94.23v-6.1h90.62ZM449.2,315.67a3,3,0,0,1,1.4-2.47,2.41,2.41,0,0,1,2.13-.42.7.7,0,0,1,.44.65.85.85,0,0,1,0,.16A1.4,1.4,0,0,0,452,316a2.1,2.1,0,0,0,2.5.52c1.32-.67,1.52-2.61,1.41-3.44a3.5,3.5,0,0,0-2.12-2.86,5.13,5.13,0,0,0-4.88.75,5.8,5.8,0,0,0-2.52,4.74,6.37,6.37,0,0,0,2.64,4.88h-3.84v-5A11.31,11.31,0,0,1,447,311c1.37-1.95,4-3.68,6.65-3.15,1.94.38,3.4,2.32,4,4.08a5.58,5.58,0,0,1-1.16,5.84c-1.2,1.27-4.16,1.69-5.47.76A3.73,3.73,0,0,1,449.2,315.67Zm-4-7v-1h1A11.1,11.1,0,0,0,445.21,308.71Zm-3.72-1v12.88h-32V307.7ZM420.93,421.14V332.76h2.58v88.38Zm6.3-88.38h2.58v88.38h-2.58Zm6.3,0h2.58v88.38h-2.58Zm6.3,0h1.66v88.38h-1.66Zm-22.63,0v88.38h-2.58V332.76Zm-12.69-33.51h42V304h-42Zm0,25.06h42V329h-42Zm6.39,8.45v88.38h-1.4V332.76Zm-9.54,109h48.26v13.92H401.37Zm188.28,13.92H541.39V441.76h48.26ZM541.39,438v-4.73h48.26V438Zm45.11-8.45h-42v-4.73h42Zm-6.65-8.45V332.76h1.66v88.38ZM586.5,304h-42v-4.73h42Zm-85.78-83.2-.75-.32L354.78,285.52l-5.35-11.94,150.44-67.43,150.72,65.08-5.18,12ZM405.78,307.7v.91a11.16,11.16,0,0,0-.88-.91Zm-11.13,10.07a5.58,5.58,0,0,1-1.16-5.84c.58-1.75,2-3.7,4-4.08,2.68-.53,5.27,1.2,6.65,3.15a10.91,10.91,0,0,1,1.66,4.13v5.45H402a6.37,6.37,0,0,0,2.64-4.88,5.8,5.8,0,0,0-2.52-4.74,5.14,5.14,0,0,0-4.88-.75,3.5,3.5,0,0,0-2.12,2.86c-.11.83.09,2.77,1.41,3.44a2.1,2.1,0,0,0,2.5-.52,1.37,1.37,0,0,0,0-2,1.39,1.39,0,0,0-1.17-.41,1,1,0,0,1,0-.19.7.7,0,0,1,.44-.65,2.41,2.41,0,0,1,2.13.42,3.05,3.05,0,0,1,1.4,2.47,3.73,3.73,0,0,1-1.76,2.87C398.82,319.46,395.85,319,394.65,317.78Zm199-9.92c1.94.38,3.4,2.32,4,4.08a5.58,5.58,0,0,1-1.16,5.84c-1.2,1.27-4.16,1.69-5.47.76a3.73,3.73,0,0,1-1.76-2.87,3.05,3.05,0,0,1,1.4-2.47,2.41,2.41,0,0,1,2.12-.42.7.7,0,0,1,.44.65.84.84,0,0,1,0,.16A1.4,1.4,0,0,0,592,316a2.09,2.09,0,0,0,2.5.52c1.32-.67,1.52-2.61,1.41-3.44a3.5,3.5,0,0,0-2.12-2.86A5.14,5.14,0,0,0,589,311a5.8,5.8,0,0,0-2.52,4.74,6.37,6.37,0,0,0,2.64,4.88h-3.84v-5A11.31,11.31,0,0,1,587,311C588.36,309.06,590.94,307.33,593.63,307.86Zm-8.39.86v-1h1A11.08,11.08,0,0,0,585.24,308.71Z"/><polygon class="cls-1" points="392.62 295.53 400.8 295.53 450.2 295.53 540.82 295.53 590.22 295.53 602.95 295.53 602.95 290.8 392.62 290.8 392.62 295.53"/><rect class="cls-1" x="409.51" y="332.76" width="1.4" height="88.38"/><rect class="cls-1" x="427.23" y="332.76" width="2.58" height="88.38"/><rect class="cls-1" x="420.93" y="332.76" width="2.58" height="88.38"/><rect class="cls-1" x="433.53" y="332.76" width="2.58" height="88.38"/><rect class="cls-1" x="409.51" y="307.7" width="31.98" height="12.88"/><rect class="cls-1" x="439.83" y="332.76" width="1.66" height="88.38"/><rect class="cls-1" x="414.63" y="332.76" width="2.58" height="88.38"/><rect class="cls-1" x="404.52" y="324.31" width="41.96" height="4.73"/><rect class="cls-1" x="404.52" y="299.25" width="41.96" height="4.73"/><rect class="cls-1" x="404.52" y="424.86" width="41.96" height="4.73"/><rect class="cls-1" x="401.37" y="433.31" width="48.26" height="4.73"/><rect class="cls-1" x="401.37" y="441.76" width="48.26" height="13.92"/><polygon class="cls-1" points="456.45 469.98 456.45 459.4 453.35 459.4 397.64 459.4 394.54 459.4 394.54 469.98 456.45 469.98"/><rect class="cls-1" x="554.65" y="332.76" width="2.58" height="88.38"/><rect class="cls-1" x="549.53" y="332.76" width="1.4" height="88.38"/><rect class="cls-1" x="567.25" y="332.76" width="2.58" height="88.38"/><rect class="cls-1" x="560.95" y="332.76" width="2.58" height="88.38"/><rect class="cls-1" x="579.85" y="332.76" width="1.66" height="88.38"/><rect class="cls-1" x="549.53" y="307.7" width="31.98" height="12.88"/><rect class="cls-1" x="573.55" y="332.76" width="2.58" height="88.38"/><rect class="cls-1" x="544.54" y="324.31" width="41.96" height="4.73"/><rect class="cls-1" x="544.54" y="299.25" width="41.96" height="4.73"/><rect class="cls-1" x="544.54" y="424.86" width="41.96" height="4.73"/><rect class="cls-1" x="541.39" y="433.31" width="48.26" height="4.73"/><rect class="cls-1" x="541.39" y="441.76" width="48.26" height="13.92"/><polygon class="cls-1" points="537.67 459.4 534.56 459.4 534.56 469.98 596.48 469.98 596.48 459.4 593.37 459.4 537.67 459.4"/><rect class="cls-1" x="363.78" y="490.86" width="269.79" height="3.44"/><rect class="cls-1" x="363.78" y="483.52" width="269.79" height="3.62"/><rect class="cls-1" x="363.78" y="473.7" width="269.79" height="6.09"/><path class="cls-2" d="M694.35,478.67H849.3s-11-33.13-35.73-26.64c0,0,1.62-16.24-13.48-15.75,0,0-1.95-13.16-10.72-11.21,0,0-4.39-33.13-38.49-29.23-26.62,3-36.06,37-36.06,37s-43.36-4.39-48.24,45.8Z"/><path d="M132.82,611.84a57.27,57.27,0,0,1,9.3-17c-10.51,4.24-15.61,3.54-21.57,4.8,2.87,9.53,6.17,19,9.9,28.43A57.28,57.28,0,0,1,132.82,611.84Z"/><path d="M176.17,624.33a105.47,105.47,0,0,1-30.87,36.38c4.8,9.29,10,18.49,15.67,27.48a56,56,0,0,1-.25-15.11c3.87-27.17,31.26-49,32.42-49.87l2.67-2.1,1.75,2.91c.69,1.15,16.83,28.41,8.81,53.91a108.28,108.28,0,0,1-23.86,41.24c6.12,8,12.6,15.8,19.37,23.38a54.92,54.92,0,0,1-2.51-13.72c-.89-28,22.74-54.69,23.75-55.82l2.27-2.53,2.23,2.56c.9,1,21.91,25.54,18.39,52.57a110.76,110.76,0,0,1-16.39,45.24c7.13,6.62,14.52,13,22.09,19.15a54.86,54.86,0,0,1-4.62-12.71c-5.87-27.92,13.15-58.95,14-60.25l1.79-2.89,2.64,2.14c1.08.88,26.51,21.77,27.77,49.52a113.06,113.06,0,0,1-8.47,48.36c8.43,5.55,17,10.76,25.69,15.58a58.45,58.45,0,0,1-7.92-13.32c-10.82-27,2.77-61.53,3.35-63l1.26-3.15,3,1.65c1.24.69,30.5,17.16,36.66,44.81a114.91,114.91,0,0,1-.09,50.69c9.16,3.85,18.34,7.23,27.42,10.11a59.83,59.83,0,0,1-10.4-12c-15.64-25.2-8.11-62.27-7.78-63.84l.7-3.33,3.21,1.11c1.37.47,33.65,11.83,44.73,38.5a116.55,116.55,0,0,1,9,48.74,388.07,388.07,0,0,1,55.3,15.17c10.73,3.81,21.2,8,31.13,12.47,9.93-4.47,20.4-8.66,31.14-12.47a387.78,387.78,0,0,1,55.26-15.16,116.57,116.57,0,0,1,9-48.75c11.07-26.67,43.36-38,44.73-38.5l3.21-1.1.7,3.33c.33,1.57,7.88,38.64-7.78,63.84a59.83,59.83,0,0,1-10.42,12.06c9.09-2.88,18.27-6.26,27.44-10.11a114.74,114.74,0,0,1-.08-50.7c6.15-27.65,35.41-44.12,36.66-44.81l3-1.65,1.26,3.16c.58,1.46,14.16,36,3.34,63a58.49,58.49,0,0,1-7.94,13.34c8.67-4.82,17.28-10,25.71-15.59a113,113,0,0,1-8.47-48.37c1.25-27.75,26.68-48.65,27.76-49.52l2.64-2.14,1.79,2.89c.81,1.31,19.83,32.33,14,60.26A54.82,54.82,0,0,1,748.26,790c7.59-6.13,15-12.55,22.13-19.18A110.63,110.63,0,0,1,754,725.62c-3.53-27,17.49-51.53,18.39-52.56l2.23-2.56,2.27,2.53c1,1.12,24.62,27.85,23.73,55.81a55,55,0,0,1-2.52,13.78c6.78-7.6,13.27-15.43,19.41-23.42a108.27,108.27,0,0,1-23.87-41.26c-8-25.51,8.13-52.76,8.82-53.91l1.75-2.91,2.67,2.1c1.16.91,28.53,22.7,32.41,49.87a56,56,0,0,1-.26,15.17c5.64-9,10.89-18.22,15.7-27.53a105.47,105.47,0,0,1-30.89-36.4c-.62-1.18-1.16-2.39-1.66-3.6-7.77-.71-15.26-1.12-21.65-1.34-19.93-75.86-31.58-149.53-50.07-155.54-8.89-2.89-28.55-1.6-52.92,1.93l-.46-1.06s-28.31-8.42-52.71-12.7c-13.28-2.33-27.59,15-37.89,31.31-25.76,5.76-49.69,11.58-66.71,15.84-5.26-4.8-10.55-9.29-16-13.4-20.24-15.18-25.3,2.53-45.54,10.12S430.15,485.77,417.5,463,359.32,435.18,329,446.72s-17.71,21.35-45.53,46.65S228,538.71,177.9,573.81C180.47,582,186.14,605.14,176.17,624.33Z"/><path class="cls-3" d="M177.9,573.81c-.55-1.75-1-2.84-1-3.06l-1.22-3.17-3,1.6c-1,.52-18.43,10-30.53,25.67,7.82-3.16,18.65-9.05,35.07-20.55Z"/><path class="cls-4" d="M371,610.26v-3.12q4.08,0,5.64-1.08a4.2,4.2,0,0,0,1.56-3.72V537.29q0-3.36-1.56-4.32T371,532v-3.12h16.56L419,579.3l31-50.41h18.48V532q-4.08,0-5.64,1t-1.56,4.32v65.05a4.2,4.2,0,0,0,1.56,3.72q1.56,1.08,5.64,1.08v3.12H442v-3.12q4.08,0,5.64-1.08a4.2,4.2,0,0,0,1.56-3.72V540.41L422.11,584.1l-5.52,9.12-32.41-52.81v61.93a4.2,4.2,0,0,0,1.56,3.72q1.56,1.08,5.64,1.08v3.12Z"/><path class="cls-4" d="M516.2,528.89A39.42,39.42,0,0,1,545,540.83q12,11.94,12,28.39T545,598q-12,12.3-28.78,12.3A38.26,38.26,0,0,1,487.34,598a40.38,40.38,0,0,1-11.7-28.75,38.91,38.91,0,0,1,11.7-28.66Q499,528.89,516.2,528.89Zm-2.4,6q-10.8,1.2-19,10.92-7.32,8.7-7.32,22.86,0,1.68.12,3.42a38.36,38.36,0,0,0,9.48,22.56q8.28,9.36,21.48,9.6,13-1,19.92-10.32,6.54-8.76,6.54-24.42,0-1.08-.06-2.22a39.18,39.18,0,0,0-9.84-23.17A26,26,0,0,0,515,534.89Zm-17.28,22.56h3.12a6.31,6.31,0,0,0,1.44,4.44,5.93,5.93,0,0,0,4.56,1.56h21.13q3.36-.24,4.68-1.56t1.32-4.44h3.12v24h-3.12a6.41,6.41,0,0,0-1.44-4.32,5.69,5.69,0,0,0-4.56-1.68H505.64q-3.12,0-4.44,1.56a7.72,7.72,0,0,0-1.56,4.44h-3.12Z"/><path class="cls-4" d="M564.21,610.26v-3.12a13.47,13.47,0,0,0,5.28-.84q1.92-.84,1.92-4V537.29q0-3.6-2.16-4.44a13.88,13.88,0,0,0-5-.84v-3.12H595.9a33.74,33.74,0,0,1,23.17,8.88q10,8.88,10,34.81,0,22.09-6.84,29.89t-16,7.8Zm19.2-6h13A21.27,21.27,0,0,0,611.14,599Q617,593.7,617,572.34q0-19.2-6.24-28.33t-19.92-9.12h-7.44Z"/><path class="cls-4" d="M258.35,713.57v-12h2.4a6.09,6.09,0,0,0,1.56,4.32,5.76,5.76,0,0,0,4.44,1.68H280v-9.12q-7-1-14.28-9.6t-7.32-23.52q0-15.12,9-24.12t24.6-9q14.4,0,24,9t9.6,24.13q0,14.88-7.56,23.88t-14,9.24v9.12h13.2q3.36,0,4.68-1.44t1.32-4.8l2.4.24v12H298V692.44a17.39,17.39,0,0,0,11.16-7.2q4.44-6,4.44-19.92,0-12.24-6.6-19.68t-15-7.44q-8.64,0-15.12,7.44t-6.48,19.68q0,13.92,4.08,19.68A18.56,18.56,0,0,0,286,692.44v21.12Z"/><path class="cls-4" d="M329.17,713.57v-3.12q4.08,0,5.64-1.08a4.2,4.2,0,0,0,1.56-3.72V640.59q0-3.36-1.56-4.32t-5.64-1v-3.12h26.4v3.12q-4.08,0-5.64,1t-1.56,4.32v67h25.44q6.48,0,10.44-3.48a19.28,19.28,0,0,0,5.64-10h3.84l-4.56,19.44Z"/><path class="cls-4" d="M451.59,632.19v5q-2.64,0-3.48,1.2a6.83,6.83,0,0,0-.84,3.84,38.11,38.11,0,0,1-6.72,22.21q-6.72,9.72-17.52,10.2v31a4.2,4.2,0,0,0,1.56,3.72q1.56,1.08,5.64,1.08v3.12h-26.4v-3.12q4.08,0,5.64-1.08a4.2,4.2,0,0,0,1.56-3.72v-31q-12.24-1-18.48-10.56a39.19,39.19,0,0,1-6.24-21.84,7.35,7.35,0,0,0,.06-.9,3.85,3.85,0,0,0-.9-2.82,5.6,5.6,0,0,0-3.48-1.32v-5h7.2a5.51,5.51,0,0,1,4.8,2.4q1.68,2.4,1.92,7.44,0,11.76,3.72,19.44t11.4,7.68V640.59a5.72,5.72,0,0,0-1.2-4q-1.2-1.32-6-1.32v-3.12h26.4v3.12q-4.32,0-5.76,1.32a5.11,5.11,0,0,0-1.44,4v28.57q6.48,0,10.32-8.28a49.25,49.25,0,0,0,4.32-18.6,15.88,15.88,0,0,1,1.44-7.32q1.44-2.76,5.28-2.76Z"/><path class="cls-4" d="M459.23,713.57v-3.12q4.08,0,5.64-1.08a4.2,4.2,0,0,0,1.56-3.72V640.59q0-3.36-1.56-4.32t-5.64-1v-3.12H475.8l31.45,50.41,31-50.41h18.48v3.12q-4.08,0-5.64,1t-1.56,4.32v65.05a4.2,4.2,0,0,0,1.56,3.72q1.56,1.08,5.64,1.08v3.12h-26.4v-3.12q4.08,0,5.64-1.08a4.2,4.2,0,0,0,1.56-3.72V643.71L510.36,687.4l-5.52,9.12-32.41-52.81v61.93a4.2,4.2,0,0,0,1.56,3.72q1.56,1.08,5.64,1.08v3.12Z"/><path class="cls-4" d="M565.09,713.57v-3.12q4.08,0,5.64-1.08a4.2,4.2,0,0,0,1.56-3.72V640.59q0-3.36-1.56-4.32t-5.64-1v-3.12H591.5q12.24,0,20.16,4.2T619.58,654q0,12.24-7.08,17a28.6,28.6,0,0,1-16.44,4.8H584.3v29.77a4.2,4.2,0,0,0,1.56,3.72q1.56,1.08,5.64,1.08v3.12Zm19.2-43.69h10.56q7,0,9.72-3.84t2.76-13.44q0-8.88-3.48-11.64t-11.64-2.76H584.3Z"/><path class="cls-4" d="M690.88,632.19v3.12a7.77,7.77,0,0,0-4.44,1q-1.32,1-2.76,4.32l-27.37,73h-3.6l-24.72-73q-1-3.36-2.52-4.32a9.1,9.1,0,0,0-4.68-1v-3.12h26.41v3.12a15,15,0,0,0-6.12,1,2.42,2.42,0,0,0-1.38,2.4,7.23,7.23,0,0,0,.3,1.92l18,54,19.68-54a6.51,6.51,0,0,0,.42-2.1,2.21,2.21,0,0,0-1.38-2.22,15.93,15.93,0,0,0-6.24-1v-3.12Z"/><path class="cls-4" d="M698.2,713.57,695.08,698h3.12q4.08,5.76,8.52,7.68a29.66,29.66,0,0,0,11.64,1.92,10.06,10.06,0,0,0,8.28-3.72q3-3.72,3-11.16,0-6.48-3.12-9.6t-10.32-5.76a28.53,28.53,0,0,1-13.08-8.76q-5.16-6.12-5.16-16,0-9.12,5.76-14.76a20.07,20.07,0,0,1,14.64-5.64,19.54,19.54,0,0,1,6.12.72,28.74,28.74,0,0,1,5.16,2.64,5,5,0,0,0,2.28.84,1.3,1.3,0,0,0,1-.36,1.72,1.72,0,0,0,.42-1.26,8.26,8.26,0,0,0-.54-2.58h3.6L739,644.67h-3.36q-5.76-4.8-8-5.64t-9.24-.84a8,8,0,0,0-6.72,3.72,14.35,14.35,0,0,0-2.64,8.52,15,15,0,0,0,3.24,9.6q3.24,4.08,10.92,7.2a46.44,46.44,0,0,1,12,7.44q6.48,5.28,6.48,15.6,0,11.28-7.08,17.28a24.35,24.35,0,0,1-16.2,6,40.32,40.32,0,0,1-7-.48,14.91,14.91,0,0,1-5-1.92A5.65,5.65,0,0,0,703.6,710a1.13,1.13,0,0,0-.84.3,2.94,2.94,0,0,0-.78,2.34,7.09,7.09,0,0,0,.06.9Z"/><path d="M456.49,387.6l-.8.49-3.31-8,15.87-9.94q4.2-3,7.2-4.82l.4-.27a13.43,13.43,0,0,0,4.93-5.7,12,12,0,0,0,0-12.55,13.68,13.68,0,0,0-5-5.75,12,12,0,0,0-6.5-2H454l2.08-8.84h13.17q7.43.57,11.07,3.14a23.7,23.7,0,0,1,5.39,4.91,28.4,28.4,0,0,1,2.63,4.11,24,24,0,0,1,2.94,10.74,24.48,24.48,0,0,1-2.89,10.65q-.4.8-.84,1.55a21.45,21.45,0,0,1-7.34,7.47Q475,376,472,378l-2.34.93H489.2l-1.1,8.71Z"/><path d="M517.13,329.92A21,21,0,0,1,528,333.06a21.54,21.54,0,0,1,8.26,9q3,5.88,3,16.75t-2.92,16.66a21.85,21.85,0,0,1-8.18,9,20.38,20.38,0,0,1-22,0,21.85,21.85,0,0,1-8.18-9q-2.92-5.79-2.9-16.66t3-16.75a21.63,21.63,0,0,1,19.12-12.15Zm-6.61,10.85a13.57,13.57,0,0,0-5,5.72q-1.79,3.71-1.79,12.31t1.75,12.26a13.58,13.58,0,0,0,4.93,5.72,11.65,11.65,0,0,0,13.21,0,13.58,13.58,0,0,0,4.93-5.72q1.75-3.67,1.75-12.26t-1.79-12.31a13.52,13.52,0,0,0-5-5.72,11.6,11.6,0,0,0-13.06,0Z"/><path d="M470.54,454.76l0-48.79h-4.33l3.85-9h9.59l-.13,62Z"/><path d="M507.76,410.26a20.53,20.53,0,0,1,2.34-.13,17.12,17.12,0,0,1,10,3.12,22.4,22.4,0,0,1,7.16,8.44,23.1,23.1,0,0,1,2.61,10.92,24.45,24.45,0,0,1-2.63,10.67,22.56,22.56,0,0,1-7,8.31,16.89,16.89,0,0,1-10.19,3.23,20.73,20.73,0,0,1-11-3.23,19,19,0,0,1-7.71-9,26.56,26.56,0,0,1-2.45-10.1,31.91,31.91,0,0,1,2-10.19q1.06-2.12,19.23-33.81l6.89,5.22ZM503.49,421a12,12,0,0,0-4.68,5.72,11.65,11.65,0,0,0,0,11.45A12.39,12.39,0,0,0,510,445.92a9.59,9.59,0,0,0,6-2,13.48,13.48,0,0,0,4.11-5.72,16.76,16.76,0,0,0,1.55-5.81,20.46,20.46,0,0,0-1.33-6,10.38,10.38,0,0,0-4.15-5.7A11.35,11.35,0,0,0,510,419,12,12,0,0,0,503.49,421Z"/><path class="cls-2" d="M676,608.5H879.09s-14.47-43.43-46.83-34.91c0,0,2.13-21.29-17.67-20.65,0,0-2.55-17.24-14.05-14.69,0,0-5.75-43.43-50.45-38.32-34.9,4-47.26,48.54-47.26,48.54s-56.84-5.75-63.23,60Z"/><path class="cls-2" d="M266,358.7H399.6s-9.52-28.56-30.8-23c0,0,1.4-14-11.62-13.58,0,0-1.68-11.34-9.24-9.66,0,0-3.78-28.56-33.18-25.2-22.95,2.62-31.08,31.92-31.08,31.92s-37.38-3.78-41.58,39.48Z"/><path class="cls-2" d="M440.68,854.59H664.31s-15.94-47.82-51.57-38.44c0,0,2.34-23.44-19.46-22.74,0,0-2.81-19-15.47-16.17,0,0-6.33-47.82-55.56-42.19-38.43,4.39-52,53.45-52,53.45s-62.59-6.33-69.62,66.1Z"/><path class="cls-2" d="M531.86,258.72H724.5s-13.73-41.2-44.42-33.12c0,0,2-20.19-16.76-19.59,0,0-2.42-16.36-13.33-13.93,0,0-5.45-41.2-47.86-36.35-33.1,3.78-44.83,46-44.83,46s-53.92-5.45-60,56.95Z"/><path class="cls-2" d="M138.42,549.75H360.6s-15.83-47.51-51.23-38.19c0,0,2.33-23.29-19.33-22.59,0,0-2.79-18.86-15.37-16.07,0,0-6.29-47.51-55.19-41.92-38.18,4.36-51.7,53.1-51.7,53.1s-62.18-6.29-69.17,65.67Z"/><path class="cls-5" d="M942.43,575.89c21.67-11.82,28.45-41.27,28.45-41.27s-33.48-3.4-53.63,12.27c-6.19,4.81-11.9,13.14-16.4,21.06a369.61,369.61,0,0,0,7.43-50.09,98.19,98.19,0,0,0,42.39-19.77c18.9-15.1,20.41-44.67,20.41-44.67s-32.88,2.42-49.66,21c-5,5.59-9.08,14.36-12.05,22.63a398.8,398.8,0,0,0-2.12-51.87,96,96,0,0,0,38.15-26.52c15.67-17.78,12.1-46.58,12.1-46.58s-31.33,7.93-44.36,28.68c-4.32,6.88-6.79,17.27-8.21,26.41a428,428,0,0,0-11.7-53.81,93.66,93.66,0,0,0,33-32.5c12.11-19.82,3.78-47,3.78-47s-28.9,13-37.94,35.23c-3.3,8.12-3.72,20-3.34,29.58A436.61,436.61,0,0,0,867.35,305a91.72,91.72,0,0,0,26.33-37c8.3-21.19-4.39-46-4.39-46s-25.66,17.44-30.61,40.46c-1.77,8.25-.25,19.49,1.7,28.63a401.33,401.33,0,0,0-30.26-49,90.33,90.33,0,0,0,18.68-39.64c4.41-21.87-12-43.67-12-43.67S814.93,179.93,814.09,203c-.28,7.69,2.63,17.41,5.81,25.56a310.59,310.59,0,0,0-37.85-40,88,88,0,0,0,11.75-42.24c.54-21.86-19.07-40.1-19.07-40.1s-17.44,24.18-14.33,46.58c1.22,8.87,7.28,19.73,12.42,27.61a439.07,439.07,0,0,0-46.91-35.63,85.7,85.7,0,0,0,4.5-43.61C727.19,80,705.17,65.73,705.17,65.73s-12.72,26.3-5.91,47.39c3,9.19,12,19.7,18.54,26.47a399.28,399.28,0,0,0-53.45-28.14,83.89,83.89,0,0,0-3-43.24c-6.68-19.91-30.39-29.93-30.39-29.93S623.17,65.83,633.31,85c4.72,8.92,16.35,18.11,23.85,23.42-11.14-4.53-20.73-7.79-28.29-10.12-3.45-4.2-15.24-17.37-29.43-19.8-12.06-2-32.35,5.72-32.35,5.72s9.71,13.25,29.36,20c14.15,4.86,29.92-2.76,32.93-4.33A391.8,391.8,0,0,1,668,115.78c-7.26-1.36-26.84-4.42-38.65-.56-20.61,6.76-34.15,32-34.15,32s24,9.22,42.64-.46C658.64,136,668.58,120.24,670.49,117A415.82,415.82,0,0,1,725.56,149c-8.56-3-24.61-7.84-35.61-6.27-21.93,3.13-40,26.09-40,26.09s22.49,13.52,42.93,7.09a85.41,85.41,0,0,0,37.54-23.51,443.27,443.27,0,0,1,46.18,37.72q1.83,1.62,3.65,3.3c-8.11-4.55-23.25-12.15-34.5-12.51-22.59-.75-44.8,19.14-44.8,19.14s20.21,17.57,41.89,14.73c22.94-3,37.93-13.81,42-17.07a329.07,329.07,0,0,1,41.83,49.46c-7.39-6-21.13-16.2-32.26-18.54C771.84,223.93,746,240,746,240s17.19,21.23,39.47,22.23a89,89,0,0,0,44.91-9.55,405.55,405.55,0,0,1,29.75,52.69c-6.71-7.33-16.67-16.92-25.77-20.57-21.84-8.77-50.64,2.78-50.64,2.78s13.49,24.38,35.71,29.32a91.55,91.55,0,0,0,45.41-1.19,431.46,431.46,0,0,1,19.72,54.59c-5.41-8.24-13.07-18.26-20.89-23.12-20.39-12.68-51.39-6.18-51.39-6.18s9.25,26.89,30.7,35.8a93.77,93.77,0,0,0,45.19,6.93,417.41,417.41,0,0,1,10.29,57.6c-4-9.31-10-21-17.1-27.4-18.23-16.36-50.54-15.32-50.54-15.32s4.52,28.66,24.52,41.41a95.66,95.66,0,0,0,44.35,15,385.45,385.45,0,0,1-.13,57.83c-2.34-10.1-6.31-23.08-12.39-30.81-15.45-19.68-48.08-24.35-48.08-24.35s-.52,29.61,17.3,46a97.66,97.66,0,0,0,41.84,22.89,357.62,357.62,0,0,1-10,52.06c-.72-10.05-2.5-22.1-6.79-30.1-12-22.5-44-33-44-33s-5.77,29.66,9.22,49.24A100,100,0,0,0,884,594.87a357.36,357.36,0,0,1-18.29,50c1.11-10.34,1.53-23.07-1.41-32-8.12-24.74-38.38-40.95-38.38-40.95s-11.07,28.78.54,51.12a102,102,0,0,0,32.08,36.83,386.12,386.12,0,0,1-25.71,43.36c2.6-9.64,4.7-21,3.45-29.63-3.75-26.3-31.29-47.94-31.29-47.94s-16.22,27-8.53,51.47a104.46,104.46,0,0,0,25,41.93A416.85,416.85,0,0,1,789.75,756c4-8.82,7.59-19,7.87-27.3.86-27.09-23-53.72-23-53.72S753.57,699.24,757,725.23a106.65,106.65,0,0,0,17.32,46.1,429.35,429.35,0,0,1-36.62,30.76c5.42-8,10.6-17.28,12.3-25.4,5.69-27.07-13.57-58.06-13.57-58.06S710.94,739.24,709.74,766A109,109,0,0,0,719,815.31a398.91,398.91,0,0,1-42.58,24.81c7.32-7.37,14.91-16.38,18.27-24.78,10.5-26.21-3.34-60.76-3.34-60.76s-29.26,16.19-35.18,42.84a110.89,110.89,0,0,0,.69,51.8,314,314,0,0,1-44.44,15.36c8.24-5.94,16.73-13.24,21.33-20.65,15.2-24.46,7.39-61.64,7.39-61.64s-32.26,11.09-42.94,36.81a113.9,113.9,0,0,0-8.64,50.05,384,384,0,0,0-57.38,15.53c-11.78,4.18-22.47,8.54-32.14,12.93-9.67-4.39-20.36-8.75-32.14-12.93a384.08,384.08,0,0,0-57.41-15.54,113.9,113.9,0,0,0-8.64-50c-10.69-25.73-42.94-36.81-42.94-36.81s-7.8,37.18,7.39,61.64c4.6,7.41,13.08,14.7,21.32,20.64a314,314,0,0,1-44.41-15.36,111.08,111.08,0,0,0,.69-51.8c-5.94-26.65-35.18-42.84-35.18-42.84s-13.85,34.55-3.35,60.76c3.36,8.39,10.93,17.39,18.25,24.76A398.92,398.92,0,0,1,281,815.29,109,109,0,0,0,290.27,766c-1.21-26.72-26.66-47.32-26.66-47.32s-19.27,31-13.58,58.06c1.7,8.11,6.85,17.35,12.27,25.36a429.37,429.37,0,0,1-36.58-30.73A106.78,106.78,0,0,0,243,725.23c3.39-26-17.68-50.21-17.68-50.21s-23.85,26.63-23,53.72c.27,8.33,3.86,18.44,7.85,27.24a416.88,416.88,0,0,1-31.66-37A104.47,104.47,0,0,0,203.51,677c7.71-24.51-8.52-51.47-8.52-51.47s-27.56,21.64-31.3,47.94c-1.24,8.66.83,19.93,3.43,29.56a386.18,386.18,0,0,1-25.67-43.3,102,102,0,0,0,32.06-36.82c11.61-22.34.55-51.12.55-51.12s-30.27,16.2-38.39,40.95c-2.93,9-2.53,21.64-1.42,32A357.45,357.45,0,0,1,116,594.86a100,100,0,0,0,37.32-30.12c15-19.59,9.21-49.24,9.21-49.24s-32,10.48-44,33c-4.28,8-6.07,20-6.79,30a357.69,357.69,0,0,1-9.93-52,97.73,97.73,0,0,0,41.82-22.89c17.82-16.36,17.29-46,17.29-46s-32.63,4.67-48.08,24.35c-6.05,7.71-10,20.65-12.36,30.74a385.52,385.52,0,0,1-.12-57.76,95.64,95.64,0,0,0,44.32-15c20-12.75,24.52-41.41,24.52-41.41s-32.31-1-50.54,15.32c-7.1,6.35-13.08,18-17.06,27.3a417.48,417.48,0,0,1,10.28-57.5A93.79,93.79,0,0,0,157,376.79c21.46-8.91,30.7-35.8,30.7-35.8s-31-6.5-51.38,6.18c-7.8,4.84-15.43,14.81-20.84,23a431.48,431.48,0,0,1,19.69-54.5,91.56,91.56,0,0,0,45.38,1.18c22.22-4.94,35.71-29.32,35.71-29.32s-28.81-11.55-50.64-2.78c-9.07,3.64-19,13.17-25.7,20.5a405.52,405.52,0,0,1,29.71-52.61,89,89,0,0,0,44.89,9.54C236.83,261.21,254,240,254,240s-25.83-16-48.41-11.3c-11.1,2.33-24.79,12.45-32.2,18.49a329,329,0,0,1,41.78-49.39,87.07,87.07,0,0,0,42,17.06c21.69,2.84,41.91-14.73,41.91-14.73S276.83,180.21,254.23,181c-11.21.36-26.3,7.92-34.43,12.47,1.2-1.1,2.4-2.19,3.61-3.26a443.37,443.37,0,0,1,46.17-37.71A85.42,85.42,0,0,0,307.12,176c20.43,6.43,42.93-7.09,42.93-7.09s-18.06-23-40-26.09c-11-1.57-27,3.24-35.55,6.24a415.9,415.9,0,0,1,55-32c1.93,3.31,11.87,19,32.63,29.77,18.63,9.68,42.64.46,42.64.46s-13.54-25.23-34.14-32c-11.79-3.85-31.3-.82-38.61.55A391.86,391.86,0,0,1,370.64,99.9c3,1.59,18.79,9.18,32.91,4.32,19.65-6.74,29.36-20,29.36-20s-20.28-7.76-32.35-5.72c-14.2,2.44-26,15.63-29.44,19.82-7.56,2.33-17.16,5.59-28.3,10.13C350.32,103.16,362,94,366.69,85c10.15-19.2,2.37-46.74,2.37-46.74s-23.69,10-30.38,29.93a83.83,83.83,0,0,0-3,43.25,399.28,399.28,0,0,0-53.49,28.16c6.56-6.77,15.61-17.3,18.57-26.5,6.8-21.08-5.91-47.39-5.91-47.39s-22,14.27-25.22,35.45a85.8,85.8,0,0,0,4.49,43.62,439.12,439.12,0,0,0-46.95,35.67c5.15-7.89,11.23-18.77,12.46-27.66,3.11-22.4-14.33-46.58-14.33-46.58s-19.62,18.24-19.08,40.1A88,88,0,0,0,218,188.59a310.67,310.67,0,0,0-37.89,40c3.19-8.16,6.12-17.91,5.84-25.63-.85-23.05-22.67-44.26-22.67-44.26s-16.45,21.8-12,43.67a90.35,90.35,0,0,0,18.69,39.66,401.34,401.34,0,0,0-30.28,49.07c2-9.14,3.48-20.41,1.7-28.67-4.95-23-30.61-40.46-30.61-40.46S98,246.81,106.32,268a91.72,91.72,0,0,0,26.34,37,436.6,436.6,0,0,0-21.41,53.72c.38-9.63,0-21.51-3.33-29.66-9.06-22.25-38-35.23-38-35.23s-8.33,27.19,3.78,47a93.64,93.64,0,0,0,33,32.51,428,428,0,0,0-11.71,53.88c-1.41-9.16-3.89-19.59-8.22-26.5C73.85,380,42.53,372,42.53,372s-3.58,28.8,12.08,46.58a96,96,0,0,0,38.17,26.53,398.79,398.79,0,0,0-2.12,51.94c-3-8.29-7-17.1-12.08-22.71-16.78-18.55-49.66-21-49.66-21S30.43,483,49.34,498.09a98.09,98.09,0,0,0,42.4,19.77A369.59,369.59,0,0,0,99.18,568c-4.5-7.93-10.22-16.29-16.42-21.12-20.16-15.67-53.62-12.27-53.62-12.27s6.77,29.45,28.42,41.27a100,100,0,0,0,46.5,12.36,361.13,361.13,0,0,0,14.65,46.36C113,627.83,106.16,621,99.47,617.5c-23-12.17-56.05-2.82-56.05-2.82s12,28.4,35.87,36.43a102.26,102.26,0,0,0,48.3,4.29,390.61,390.61,0,0,0,23.84,43.86c-7.17-6.08-15.62-12.09-23.31-14.57-25.29-8.16-56.83,7.1-56.83,7.1S88.4,718.19,113.81,722a104.06,104.06,0,0,0,49.85-4.45A424.67,424.67,0,0,0,195.5,757.3c-8.47-5-18.41-9.85-26.86-11-26.86-3.72-55.85,17.2-55.85,17.2s21.86,23.5,48.09,22.87a106,106,0,0,0,49.48-13.42A442.13,442.13,0,0,0,248,806.54c-9.36-3.52-20.13-6.56-28.78-6.24-27.63,1-53.07,27.17-53.07,27.17s26.13,19.75,52.37,14.47a108.52,108.52,0,0,0,47.13-22.06,420.18,420.18,0,0,0,39.78,25.25c-9.2-1.53-19.13-2.28-26.87-.62C251,850.44,230,881.22,230,881.22s29.77,15.22,55.2,5.25A111,111,0,0,0,328,856.78a343,343,0,0,0,43,17.1c-9.32.14-19.14,1.16-26.44,4.13-26.68,10.85-42.24,45.49-42.24,45.49s32.59,10,56.39-4.5a112.83,112.83,0,0,0,38.23-38.34,360,360,0,0,1,84.89,25.87c-41.55,21.85-58.51,42-58.51,42L438,961.72s19.34-23.53,62-46.26c42.63,22.72,62,46.26,62,46.26l14.75-13.16s-17-20.19-58.51-42a360,360,0,0,1,84.86-25.87A113,113,0,0,0,641.31,919c23.79,14.51,56.4,4.5,56.4,4.5S682.14,888.85,655.46,878c-7.3-3-17.1-4-26.42-4.13a343,343,0,0,0,43-17.09,111,111,0,0,0,42.74,29.69c25.42,10,55.19-5.25,55.19-5.25S749,850.44,721.44,844.51c-7.73-1.66-17.64-.9-26.83.62a420.2,420.2,0,0,0,39.76-25.24,108.45,108.45,0,0,0,47.11,22.05c26.23,5.28,52.37-14.47,52.37-14.47s-25.42-26.15-53.06-27.17C772.15,800,761.4,803,752,806.53a442.13,442.13,0,0,0,37.61-33.6,106.06,106.06,0,0,0,49.47,13.41c26.22.64,48.09-22.87,48.09-22.87s-29-20.92-55.86-17.2c-8.43,1.16-18.35,6-26.81,11a424.67,424.67,0,0,0,31.81-39.68A104.08,104.08,0,0,0,886.19,722c25.41-3.85,42.51-30.25,42.51-30.25s-31.52-15.25-56.83-7.1c-7.67,2.47-16.1,8.46-23.25,14.52a390.6,390.6,0,0,0,23.81-43.81,102.23,102.23,0,0,0,48.28-4.29c23.86-8,35.88-36.43,35.88-36.43s-33-9.35-56.07,2.82c-6.68,3.54-13.48,10.3-19.2,17.07A361.15,361.15,0,0,0,896,588.25,100,100,0,0,0,942.43,575.89Z"/></svg>