<svg xmlns="http://www.w3.org/2000/svg" xmlns:xlink="http://www.w3.org/1999/xlink" viewBox="0 0 1024 1024"><defs><style>.cls-1,.cls-3,.cls-4{fill:none;}.cls-2,.cls-5,.cls-9{fill:#fff;}.cls-2,.cls-3,.cls-4{stroke:#000;}.cls-12,.cls-2,.cls-3,.cls-4,.cls-9{stroke-miterlimit:10;}.cls-2,.cls-9{stroke-width:15px;}.cls-3{stroke-width:4px;}.cls-4{stroke-width:8px;}.cls-6{clip-path:url(#clip-path);}.cls-7{clip-path:url(#clip-path-2);}.cls-8{clip-path:url(#clip-path-3);}.cls-9{stroke:#fff;}.cls-10{fill:#fcfcfc;}.cls-11{clip-path:url(#clip-path-4);}.cls-12{stroke:#fcfcfc;stroke-width:2px;}</style><clipPath id="clip-path"><path class="cls-1" d="M808.71,509.82c0,165-133.74,298.71-298.71,298.71S211.79,674.79,211.29,509.82c-.51-164.7,132.58-298.1,298.71-298.71C675,210.49,808.71,344.84,808.71,509.82Z"/></clipPath><clipPath id="clip-path-2"><rect class="cls-1" x="194.29" y="142.69" width="312.33" height="726.31"/></clipPath><clipPath id="clip-path-3"><rect class="cls-1" x="508.69" y="163.01" width="358.35" height="682.31"/></clipPath><clipPath id="clip-path-4"><path class="cls-1" d="M440.62,454.25l-21-10.5s-10.5-76,4-112,39-63,87-63,67,23.5,83.5,56.5,13,106.5,13,106.5l-40,20.5s11.68-80.62-29.5-86.5c-44.33-6.33-39.79,44.39-39.79,44.39l-9.71.11S495.67,363,455.62,370C419.49,376.32,440.62,454.25,440.62,454.25Z"/></clipPath></defs><title>osgard</title><g id="Shield"><circle class="cls-2" cx="512" cy="510.15" r="443.05"/><g id="Spokes"><line class="cls-3" x1="512" y1="71.13" x2="512" y2="957.23"/><line class="cls-3" x1="955.05" y1="514.18" x2="68.95" y2="514.18"/><line class="cls-4" x1="825.28" y1="200.9" x2="198.72" y2="827.46"/><line class="cls-4" x1="825.28" y1="827.46" x2="198.72" y2="200.9"/><line class="cls-3" x1="335.34" y1="107.88" x2="688.66" y2="920.48"/><line class="cls-3" x1="918.3" y1="337.52" x2="105.7" y2="690.85"/><line class="cls-3" x1="674.38" y1="101.96" x2="349.62" y2="926.4"/><line class="cls-3" x1="924.22" y1="676.56" x2="99.78" y2="351.8"/></g><path class="cls-5" d="M510.41,814.53a304.71,304.71,0,1,1,215.47-89.25A302.72,302.72,0,0,1,510.41,814.53Z"/><path d="M510.41,211.11c165,0,298.71,133.74,298.71,298.71S675.39,808.53,510.41,808.53,211.7,674.79,211.7,509.82,345.44,211.11,510.41,211.11m0-12a309.78,309.78,0,1,0,120.95,24.42,308.78,308.78,0,0,0-120.95-24.42Z"/></g><g id="Inner_Contents" data-name="Inner Contents"><g id="City"><g class="cls-6"><g class="cls-7"><path d="M125.33,275.57s78.79-77.37,176-39l-.85,166.21s-59.81-20.16-95.86-5.85-79.86,46-79.86,46Z"/><path d="M124.08,470.16s43.42-37.58,85.83-46.48,82,4,90.61,7.09l-.85,167.94s-59.47-18.32-94.25-5.18-64.11,27.38-81.63,43.9Z"/><path d="M328.77,441.18s56.46,17.37,87.42,7.73c30.5-9.5,51.06-18,88.06-46.21a4.72,4.72,0,0,0,.74-.81c-.74.81-.78,166.42-.78,166.42s-42.56,37-87.74,47.5-79.18-7.35-88.26-8.24Z"/><path d="M329.61,246,328.4,411.35s46.54,25.24,96.91,7.65,73.59-41.68,79.71-45.89l.5-166.61s-52,41.48-91.85,48S345.09,251.57,329.61,246Z"/></g><g class="cls-8"><path d="M629.08,520.16a20.46,20.46,0,0,1,19.43-36,197.56,197.56,0,0,0,76.19,22.68,353.9,353.9,0,0,1,9.23-64.31H681.11V422.1c0-61.81,42.13-168.66,60.22-211.75H496.62V580.12A41,41,0,0,0,537.51,621H741a272.55,272.55,0,0,1-15.77-73.1,238.83,238.83,0,0,1-96.12-27.76Zm-7.84-198.93a17.58,17.58,0,0,1,35.15,0V346.8a17.58,17.58,0,0,1-35.15,0Zm0,0"/><path d="M926.59,210.35H765.86C759,226,712.54,333.72,703.55,401.62h67.11l-10.34,27.62c-.19.55-11.79,32.75-14.43,76.94a197.34,197.34,0,0,0,73.5-24.12,20.45,20.45,0,0,1,20.22,35.56,238.17,238.17,0,0,1-93.36,29.6,227.17,227.17,0,0,0,14.83,64.72,21.16,21.16,0,0,1,1.29,9.09H926.53a41,41,0,0,0,40.89-40.9V251.24a41,41,0,0,0-40.84-40.89ZM847,347.11a17.58,17.58,0,1,1-35.15,0V321.54a17.58,17.58,0,1,1,35.15,0Zm0,0"/></g><path class="cls-9" d="M718.8,728.87h0v0c-3.92-4.43-5.78-12.63-7.79-21.36s-4.25-18.15-11.41-24.25l0,0a28.88,28.88,0,0,0-8.8-5.31c10-29.55,6.05-59-4-85.56-12.34-32.63-33.89-61.07-50.35-80.52-18.42-23.24-36.44-45.3-36.09-77.88.55-49.73,5.47-142-82-142.08h0q-5.34,0-11.14.45c-97.8,7.88-71.86,111.19-73.31,145.79-1.79,25.3-6.92,45.24-24.32,70-20.44,24.31-49.23,63.66-62.86,104.62-6.43,19.33-9.5,39-6.67,57.68-.89.79-1.73,1.62-2.53,2.48-6,6.41-10.44,14.17-15.38,19.4-4.62,4.61-11.19,6.36-18.42,9s-15.17,6.42-20,15.67h0l0,0c-4.36,8.15-3.07,17.53-1.73,26.23s2.68,16.91.89,22.48c-5.72,15.64-6.45,26.46-2.42,34.31s12.34,11.34,21.72,13.3c18.76,3.92,44.18,2.95,64.2,13.56l1.72-3.25-1.7,3.26C387.73,838,409.46,842,426.8,838c12.57-2.87,22.78-10.36,28-21.88,13.56-.07,28.45-5.81,52.29-7.12,16.17-1.3,36.38,5.74,59.62,4.45a31.56,31.56,0,0,0,2.69,7.25l0,.07c9,18,25.75,26.26,43.59,24.85s36.86-11.94,52.21-30.21l-2.81-2.37,2.84,2.34c14.63-17.74,38.92-25.1,55-34.81,8.05-4.86,14.59-10.94,15.09-19.77S730.72,742.1,718.8,728.87Z"/><g id="layer1"><path id="path154" d="M518.25,291.86q-5.34,0-11.14.45c-97.8,7.88-71.86,111.19-73.31,145.79-1.79,25.3-6.92,45.24-24.32,70-20.44,24.31-49.23,63.66-62.86,104.62-6.43,19.33-9.5,39-6.67,57.68-.89.79-1.73,1.62-2.53,2.48-6,6.41-10.44,14.17-15.38,19.4-4.62,4.61-11.19,6.36-18.42,9s-15.17,6.42-20,15.67h0l0,0h0c-4.36,8.15-3.07,17.53-1.73,26.23s2.68,16.91.89,22.48c-5.72,15.64-6.45,26.46-2.42,34.31s12.34,11.34,21.72,13.3c18.76,3.92,44.18,2.95,64.2,13.56l1.72-3.25-1.7,3.26C387.73,838,409.46,842,426.8,838c12.57-2.87,22.78-10.36,28-21.88,13.56-.07,28.45-5.81,52.29-7.12,16.17-1.3,36.38,5.74,59.62,4.45a31.56,31.56,0,0,0,2.69,7.25l0,.07c9,18,25.75,26.26,43.59,24.85s36.86-11.94,52.21-30.21l-2.81-2.37,2.84,2.34c14.63-17.74,38.92-25.1,55-34.81,8.05-4.86,14.59-10.94,15.09-19.77s-4.68-18.72-16.6-32h0v0c-3.92-4.43-5.78-12.63-7.79-21.36s-4.25-18.15-11.41-24.25h0l0,0h0a28.88,28.88,0,0,0-8.8-5.31c10-29.55,6.05-59-4-85.57-12.34-32.63-33.89-61.07-50.35-80.52-18.42-23.24-36.44-45.3-36.09-77.88.55-49.73,5.47-142-82-142.08Zm11.85,76.62a22,22,0,0,1,13.56,4.62,30.92,30.92,0,0,1,10.18,12.85,41.19,41.19,0,0,1,3.85,17.18,1.62,1.62,0,0,0,0,.48,41.73,41.73,0,0,1-3.55,17.73,34.45,34.45,0,0,1-5,8.29q-1-.47-2.05-.91h0c-4.92-2.11-8.69-3.45-11.84-4.54a19,19,0,0,0,2.92-5,26.69,26.69,0,0,0,2-9.64c0-.14,0-.26,0-.43a26.75,26.75,0,0,0-1.38-9.35,17.25,17.25,0,0,0-4.31-7.28,8.8,8.8,0,0,0-6.16-2.81h-.32a9,9,0,0,0-6,2.38A17.19,17.19,0,0,0,517.3,399a26.6,26.6,0,0,0-2,9.66,2.3,2.3,0,0,0,0,.4,28.61,28.61,0,0,0,.39,5.54,58.65,58.65,0,0,0-12.56-4.66,48.77,48.77,0,0,1-.39-5.29v-.5a41.07,41.07,0,0,1,3.5-17.73,31.38,31.38,0,0,1,9.95-13,21.92,21.92,0,0,1,13.71-4.88h.24Zm-68,5.38a14.41,14.41,0,0,1,9.29,3.54,27,27,0,0,1,7.9,10.78,42,42,0,0,1,3.52,15.13v0a44.75,44.75,0,0,1-.05,6.73q-1,.28-1.92.6a41.74,41.74,0,0,0-9.41,4.69,24.71,24.71,0,0,0,.1-5.93,1.56,1.56,0,0,1,0-.33,25.9,25.9,0,0,0-1.88-7.61,14.7,14.7,0,0,0-3.83-5.62,6.26,6.26,0,0,0-4.25-1.78l-.46,0a6.16,6.16,0,0,0-4.35,2.55,14.75,14.75,0,0,0-2.78,6.19,24.78,24.78,0,0,0-.52,8.14c0,.12,0,.21,0,.33a25.16,25.16,0,0,0,1.88,7.64,14.53,14.53,0,0,0,3.83,5.59q.39.34.78.61c-1.63,1.26-2.41,1.84-3.75,2.82l-3.07,2.26a28,28,0,0,1-6.38-9.5,42.51,42.51,0,0,1-3.55-15.13v0A42.41,42.41,0,0,1,445,390.13a26.56,26.56,0,0,1,6.61-11.59c3-3,6-4.47,9.66-4.66l.85,0Zm30.91,39c7.66,0,16.87,2.48,28,9.65,6.85,4.46,12.18,4.83,24.46,10.09h0c5.91,2.42,9.37,5.58,11.07,8.91a12.87,12.87,0,0,1,.32,10.73c-2.84,7.59-11.89,15.58-24.59,19.54h0c-6.19,2-11.59,6.46-18,10.1s-13.57,6.58-23.36,6h0a28.86,28.86,0,0,1-17.83-6.94c-4.51-3.62-8.43-8.17-14.19-11.55h0c-9.26-5.24-14.32-11.29-15.91-16.54s-.1-9.73,4.5-13.18c5.17-3.87,8.76-6.51,11.15-8.26a49.12,49.12,0,0,0,4.12-3.12h0c3.88-3.68,10.07-10.37,19.4-13.58a33.31,33.31,0,0,1,10.8-1.83Zm53.54,31.67c-3.3.2-6.76,1.9-10.79,4.15s-8.56,5.13-13.47,8c-9.82,5.67-21.13,11.09-32.36,11.09s-20.24-5.2-27-10.54c-3.37-2.67-6.15-5.36-8.38-7.44-1.11-1-2.08-1.93-3-2.62a4.61,4.61,0,0,0-3.14-1.38l-.07,3.16a9.46,9.46,0,0,1-.17,1.05,4.37,4.37,0,0,1,.83.48c.66.51,1.58,1.34,2.67,2.36,2.18,2,5.07,4.85,8.64,7.67,7.13,5.65,17,11.45,29.59,11.45s24.44-5.87,34.45-11.65c5-2.89,9.55-5.77,13.42-7.93s7.12-3.51,9-3.62l-.25-4.18Zm11.16,15c8.34,32.88,27.74,80.38,40.21,103.56,6.63,12.3,19.82,38.43,25.51,69.91a43,43,0,0,1,11.84,1.5c14.9-38.62-12.63-80.22-25.22-91.8-5.08-4.93-5.33-7.14-2.81-7C621,547.71,638.88,572,645.4,599.43c3,12.5,3.61,25.65.42,38.62q2.34,1,4.75,2.11c23.91,11.64,32.75,21.77,28.5,35.59-1.4,0-2.78,0-4.12,0h-.37c3.46-11-4.21-19-24.65-28.28-21.2-9.33-38.1-8.4-41,10.52q-.27,1.49-.44,3a31.37,31.37,0,0,0-4.77,2.13c-10,5.45-15.39,15.33-18.41,27.45s-3.89,26.76-4.72,43.22h0c-.51,8.28-3.91,19.47-7.36,31.33-34.73,24.77-82.93,35.51-123.86,7.58-2.77-4.39-6-8.73-9.23-13-2.09-2.74-4.24-5.46-6.38-8.14a25.75,25.75,0,0,0,10.66-2,13.46,13.46,0,0,0,7.36-7.6c2.5-6.71,0-16.18-8-27s-21.51-23-41.39-35.2h0c-14.6-9.09-22.77-20.22-26.59-32.31s-3.29-25.17-.34-38.08c5.66-24.78,20.19-48.88,29.46-64,2.5-1.84.89,3.41-9.39,22.5-9.21,17.45-26.43,57.72-2.85,89.16.63-22.37,6-45.19,14.94-66.53,13.06-29.61,40.39-81,42.56-121.89,1.12.81,5,3.41,6.68,4.38h0c5,3,8.78,7.27,13.65,11.19A33.73,33.73,0,0,0,490.77,492h0c10.76.62,19-2.71,25.69-6.55s12.07-8.08,17.15-9.74h0c10.73-3.36,19.27-9.3,24.12-16.22Zm68.17,188.26c4.35,0,9.61,1.43,15.38,4,15.51,7.16,20.37,13.3,16.13,22.32-3.57,6.81-18.85,17.63-29.31,14.78-10.68-2.76-15.89-18.16-14.16-29.79.93-7.9,5.4-11.28,12-11.31ZM608.36,669c.88,14.23,7.92,28.74,20.37,31.88,13.62,3.59,33.27-8.1,41.56-17.63,1.65-.07,3.27-.15,4.84-.19,7.28-.18,13.38.24,19.61,5.69l0,0,0,0c4.79,4.06,7.07,11.73,9,20.32s3.55,18,9.48,24.62h0c11.39,12.64,15,21.18,14.74,26.63s-4.26,9.5-11.55,13.9c-14.57,8.79-40.39,16.43-56.88,36.41-14.32,17-31.78,26.4-47.16,27.61s-28.64-5.17-36.47-20.87l0,0,0,0c-4.85-9.23-2.83-23.8,1.26-39.16s10-31.14,10.75-44v0c.83-16.43,1.75-30.78,4.51-41.85s7.11-18.57,14.81-22.78l1.07-.56ZM358.31,670.1a25.13,25.13,0,0,1,3.66.3c8.72,1.32,16.32,7.41,23.64,17.35s14.14,23.49,21.14,38.53v0c5.63,11.75,17.51,24.67,27.57,37.85s17.86,26.41,16.84,36.53v.09c-1.31,17.27-11.05,26.67-26,30.08s-35.21,0-55.46-10.57h0c-22.39-11.86-49-10.68-66.12-14.25-8.55-1.79-14.12-4.47-16.68-9.46s-2.62-13.69,2.82-28.52l0-.07,0-.07c2.69-8.3.7-17.38-.61-25.9s-1.94-16.27,1-21.68v0c3.73-7.18,9.19-9.75,16-12.18s14.82-4.34,21.18-10.71l0,0,0,0c5.87-6.19,10.28-14,15.44-19.47,4.35-4.65,8.71-7.73,15.28-7.78h.23Z"/></g></g></g></g><g id="Helmet"><path class="cls-5" d="M420.41,340.18c-3-6.69-8.07-17.76-13.77-20.35-23.43-10.65-38.48-8.5-41-24.13-1.2-7.45,6.1-1.88,13.13.83,6.54,2.51,17.44,4.2,17.52,2.24.09-2.11-12.38-9.23-20.9-14.09-7.3-4.16-13.29-12.92-11.15-18.69,1.57-4.24,3.09.4,14.1,6.76,9.29,5.36,18.79,8,19.81,6.94s-10.64-11.49-18.95-22.32c-8.13-10.59-7.19-22.19-5.14-25.95,2.19-4,5.89,5.71,14.74,15.77,7.78,8.84,19,17.36,20.21,17,2.55-.71-18.15-36-21-45.54-8.25-27.44-5.52-43.65-.51-43.65s5.88,1.94,10.54,24.77,41.7,52.83,41.37,73.25-8.42,35.3-4.85,37.61"/><path d="M422.59,339.6a97.41,97.41,0,0,0-7.17-13.74c-3.55-5.33-7.47-7.35-13.33-9.64-5.3-2.07-10.73-3.73-16.14-5.48-4.33-1.4-9-2.79-12.65-5.69-3.27-2.62-4.59-6-5.46-9.93-.68-3.1-.56-1.65.55-1.51a14.5,14.5,0,0,1,3.46,1.55,59.63,59.63,0,0,0,9,3.56c2.16.61,17.95,4.78,17.6-.85-.15-2.45-6.78-5.6-8.46-6.64-5.23-3.27-11.26-5.85-16-9.78-3.77-3.11-7.76-7.82-7.92-12.95,0,.48.32-3.64.65-3.41l-2.11.35a7,7,0,0,1,1.19.75c1.37,1.8,4.4,3.38,6.24,4.63a71.33,71.33,0,0,0,17,8.54c2.79.95,6.81,2.5,9.76,1.18,2.1-.94,1.81-1.8.66-3.49-3.11-4.6-7.79-8.46-11.49-12.58-4.78-5.33-9.61-10.83-11.75-17.81a28.8,28.8,0,0,1-1.29-7.87,21.22,21.22,0,0,1,.27-4c.11-.61,1-2.59.86-3.11l-1.59.18a8.58,8.58,0,0,1,1,1,14.07,14.07,0,0,0,1.85,2.42c1.69,2.34,3.28,4.76,5,7.07a97.71,97.71,0,0,0,14.86,15.72c1.74,1.49,11.2,11,14.08,5.88.69-1.22-.37-3.08-.83-4.21-1.38-3.39-3.08-6.65-4.73-9.91-4-7.93-8.26-15.75-12.08-23.77a94.87,94.87,0,0,1-8.08-29.66,53,53,0,0,1-.15-14.43,16.18,16.18,0,0,1,1.08-4.2c.25-.55.59-1,.86-1.56s-1.13-.55,0-.12c5,1.83,5.52,10,6.51,14.5,1.32,6,2.16,12,4.7,17.61A90.18,90.18,0,0,0,406.63,222c7.19,10.45,15.55,20.07,22.45,30.72a57.67,57.67,0,0,1,7,13.79c1.95,6.2,1.09,12.74.12,19.07s-2.66,12.16-4,18.26c-.46,2.11-1.69,6,.33,7.64,1,.86,5-.81,4.07-1.59-2.2-1.83.12-7.59.66-9.81a157.33,157.33,0,0,0,3.7-18.45c.61-5.1,1.14-10.34-.27-15.35A49.82,49.82,0,0,0,435,254.08c-5.7-9.41-12.77-17.92-19.32-26.73-6.2-8.35-12.95-17.36-15.38-27.67-1.37-5.82-2.28-11.73-3.92-17.49-.63-2.21-1.31-5.11-3.07-6.76-2.44-2.27-7.11-1.91-9.46.29-4.78,4.45-3.47,14.84-2.89,20.47a94.81,94.81,0,0,0,8.23,31c3.89,8.18,8.23,16.14,12.31,24.22,1.61,3.19,3.3,6.4,4.61,9.74.23.59.5,2.38.91,2.77.57.54,2.85-.57,2.71-1s-2.47-1.6-2.91-1.92a99.2,99.2,0,0,1-14.35-12.8c-4.58-4.91-8-10.54-12.14-15.81-4.57-5.86-9.16-1.47-9.75,4.52-1.26,12.92,7.26,22.72,15.44,31.59,2.11,2.29,4.27,4.52,6.37,6.82.7.76,2.77,4.18,3.6,4.47l.75-.5q1.38-.54.32-.57c-.18-.25-1.82-.4-2.13-.49-1.31-.35-2.6-.8-3.87-1.27a70.74,70.74,0,0,1-12.28-6c-3.48-2.12-11.65-11.49-16.07-6-2.58,3.22-.44,8.54,1.38,11.49,3,4.89,7.41,7.89,12.29,10.69,5.09,2.92,10.4,5.77,15.07,9.36.68.52,1.29,1.09,1.94,1.64,1.09.91,1.56.77-.28.3-3.1-.79-6.35-.95-9.46-1.87-3.57-1.06-18.73-10.72-20.27-2.33C362,302,370,307.92,376.07,310.39c5,2,10.18,3.4,15.25,5.11,5.94,2,13.4,3.81,17.63,8.7s6.7,10.88,9.29,16.56c.59,1.29,4.82-.12,4.35-1.16Z"/><path class="cls-10" d="M440.62,454.25l-21-10.5s-10.5-76,4-112,39-63,87-63,67,23.5,83.5,56.5,13,106.5,13,106.5l-40,20.5s12.73-83.05-28.5-88.5c-47.29-6.25-40.79,46.39-40.79,46.39l-8.71.11s7.53-43-26.5-41.25C418.34,371.33,440.62,454.25,440.62,454.25Z"/><path d="M443.34,453.23l-13.1-6.55c-2.08-1-5.2-2-7-3.49-1.13-1-.34.23-.84-1-1.2-2.95-.9-7.55-1.21-10.68q-1-10-1.6-20c-1-17.55-1.32-35.31.67-52.81A116.69,116.69,0,0,1,435.87,312c9-15.4,21.9-28.64,38.57-35.62,19.09-8,42.54-8.38,62.37-2.92,16.07,4.43,29.32,14.15,39.32,27.35,9.78,12.91,17.63,27.91,21.56,43.65,7.07,28.32,7.91,59,6.54,88.11l1.2-1.27-40,20.5,4.57,0a183.3,183.3,0,0,0,1.86-24.35c.26-15-.68-31-6.82-44.91-6.37-14.41-18.21-20.94-33.79-20.54-14.41.37-27.28,7.39-32.83,21a57.88,57.88,0,0,0-3.47,27.91l4.12-2.06-8.71.11,1.64.8c1.39-8.12,1.17-17.16-1.39-25-4.5-13.77-17.35-18.86-31.06-16.58-28.68,4.77-29,38.81-26.42,61.51a174.32,174.32,0,0,0,4.6,25.33c.39,1.46,6.19-.07,5.8-1.55-4.51-16.86-7-35.51-5-52.9,1.19-10.36,4.6-23,14.59-28.2,12-6.32,26.59.3,31.2,12.46,3,8,3.41,17.51,2,25.89-.15.86,1.09.81,1.64.8l8.71-.11c.89,0,4.29-.65,4.12-2.06-2.3-19,4.88-44,27.5-44.82,15.48-.55,26.22,7.34,31.84,21.5,5,12.69,6.07,26.89,6,40.41a180.29,180.29,0,0,1-1.82,26.27c-.26,1.7,3.95.34,4.57,0l40-20.5c.53-.27,1.17-.62,1.2-1.27,1.27-27,.35-55.13-5.09-81.68-6.5-31.68-26.66-65.75-58.61-76.77-35.27-12.17-79.63-4.29-104.69,24.3a112.31,112.31,0,0,0-24.07,45.44c-4.4,17.59-4.81,36.23-4.43,54.27a448.92,448.92,0,0,0,3.25,45.34c.45,3.69,1.64,3.46,5.2,5.24l16.32,8.16C439.46,456.05,444.23,453.67,443.34,453.23Z"/><g class="cls-11"><path d="M416,365.09c25.86,10.81,55.17,14,82.91,12.59,30.45-1.5,61.35-6.49,89.86-17.64a106,106,0,0,0,14.31-6.55c1.55-.89,2.17-2.29.74-3.48s-4.81,0-6.16.79a12,12,0,0,1-1.87,1q-3.6,1.74-7.29,3.28a203.46,203.46,0,0,1-29,9.35c-34.67,8.61-72.36,12-107.53,4.78-9.8-2-19.77-4.5-29-8.37a6.93,6.93,0,0,0-6.16.79c-1,.73-2.75,2.64-.74,3.48Z"/><path d="M512.41,268.5c20.93,13,35.9,36.18,43.28,59.2,10.07,31.4,10.73,65.69,7.86,98.29-.67,7.6-1.48,15.24-2.84,22.76-.38,2.12,8.19.71,8.58-1.49C573,427,574,405.91,573.5,385.36c-.91-35.59-7.71-72.46-31.37-100.32-6.18-7.28-13.38-14.46-21.54-19.54-2.13-1.33-9.46,2.2-8.18,3Z"/><path d="M503.28,267.46c-26.34,7.5-47.33,31.58-58,55.77-7,15.78-9.38,33.53-10.73,50.59a416.3,416.3,0,0,0-.48,52.85c.46,9.59,1.09,19.21,2.21,28.75.19,1.58,9-.1,8.69-2.33a440.11,440.11,0,0,1-2.49-68.79c.7-17.58,2.38-35.5,7.58-52.38a105.06,105.06,0,0,1,30.3-47.14,82.87,82.87,0,0,1,17.28-12c1.7-.87,4-1.88,5.17-2.34.79-.3,2.92-.94,1.16-.43.67-.19,4.47-1.24,4-2.46s-4-.34-4.69-.13Z"/></g><path class="cls-5" d="M590,344.5c-6,0-13.19-11.08-14.47-20.5s7.47-9.5,9.38-31.75c1-12.07-5.4-18.7-5.8-40.92s43.92-54.86,49.48-79.7,6.61-27,12.6-27,9.25,17.64-.61,47.49c-3.43,10.37-28.18,48.77-25.13,49.54,1.5.38,14.87-8.88,24.18-18.5,10.58-10.95,15-21.52,17.62-17.16,2.45,4.09,3.58,16.7-6.15,28.23-9.94,11.78-24,23-22.66,24.28s12.59-1.72,23.7-7.55c13.17-6.91,15-12,16.86-7.35,2.56,6.28-4.6,15.8-13.33,20.33-10.2,5.29-25.11,13-25,15.33.1,2.13,13.13-1.7,21-4.43,8.42-2.94,19.62-6.14,15.71,1.1-9,16.69-24.75,16.06-49,26.25C599.6,310.11,596,344.5,590,344.5Z"/><path d="M591.82,343.11c-7.44-.67-12-12.28-13.16-18.45-.82-4.28.41-7.24,2.5-10.87,5.54-9.62,8.18-21.26,5.92-32.26-2.43-11.83-7.73-25.24-4-37.31,3.57-11.66,12.75-21.61,20.39-30.79,8.26-9.92,17.1-19.69,23.45-31,3.27-5.82,4.67-11.69,6.17-18.15,1.22-5.24,2.12-11.31,4.69-16.12,1-1.81,1.23-2.83,3-1.43,2.76,2.19,3,7.66,3.17,10.8.7,13-2.57,28-8.18,39.73-4.68,9.74-10.38,19-15.66,28.41-1.26,2.24-10.13,15-7.07,17.28,2.31,1.73,7.57-2.09,9.3-3.21A119.23,119.23,0,0,0,640,225.45a102,102,0,0,0,8.89-9.88c2.08-2.62,4.92-5.44,6.56-8.35.22-.38,2.32-2.29-.08-.84-2,1.2-.65-.41-.56,1.33a22,22,0,0,0,.83,2.7,24.28,24.28,0,0,1-.37,10.7c-2.15,8.91-8.48,15.48-14.74,21.82-4.49,4.55-10.47,8.81-14.1,14.11-2.06,3,.66,3.35,3.43,3.1,6.57-.59,13.29-3.43,19.21-6.14a93.94,93.94,0,0,0,10.72-5.74c1.27-.8,6.82-3.45,7.3-4.93.3-.92-1.23,0-1.38.32,0,.08.4.65.41.79,0,1.68.64,3,.24,4.84-.88,4-3.83,7.56-6.83,10.21-5.88,5.19-14,8.12-20.78,12-2.22,1.26-10.58,4.85-10.9,8-.54,5.34,24.42-3.5,27-4.34,1.83-.6,8-3.28,9.73-2,2.26,1.66-1.93,6.43-3.12,7.91-4,5.06-9.62,8-15.59,10.22-12,4.5-27.37,6.49-37,15.58-7.93,7.49-11.71,18.29-15.59,28.2-.73,1.86-1.44,3.74-2.32,5.55a20,20,0,0,0-1.24,2.25c-.41,1.29-2.07.59.77.32-2.63.25-5,3.11-.92,2.72,7.74-.75,9.82-12.81,12.13-18.51s4.89-11.4,8.63-16.33c5-6.55,11.52-9,19.08-11.64,11.92-4.18,25.91-6.75,35.16-16,2.06-2.07,8.94-9.3,5.57-12.32s-11.75.38-15.08,1.43-6.61,2.26-10,3.29c-2.66.82-7.88,3.29-10.66,2.69-1.14-.25-.62-.11.61-1.18a27.51,27.51,0,0,1,3.82-2.54c3.37-2.06,6.86-3.93,10.34-5.78,6.58-3.5,13.41-6.51,18.35-12.32,2.78-3.27,7.53-10.81,3.68-15-2.24-2.45-6.09-.53-8.39.92-7.53,4.76-14.59,9.47-23.08,12.54a53.38,53.38,0,0,1-6,1.83c-1.13.26-2.65.16-2.53.82-.22-1.2,3.93-4.47,4.64-5.17,6.28-6.18,13-12.12,18.44-19a32.58,32.58,0,0,0,7.5-20.52c0-3.4-.5-9.34-5-9.33-5.09,0-8.25,5.48-10.93,9a117.15,117.15,0,0,1-20.7,21.09c-2.72,2.14-6.07,3.85-8.63,6.12-.15.13-1.35.67-1.34.74s2.94-.12,2.81,0c.23-.19.27-1.26.44-1.56,2.12-3.7,3.74-7.78,5.81-11.53,5.59-10.12,11.71-20,16.8-30.38,3.54-7.22,19.16-56.93-1.38-53.64-8.42,1.35-9.72,10.31-11.44,17.33s-2.82,14.09-6.17,20.58c-3.23,6.26-7.53,11.95-11.89,17.45-8.84,11.16-18.81,21.57-26.58,33.55-2.89,4.44-5.65,9.23-6.88,14.44-1.58,6.71-.31,14.37.9,21,1.07,5.89,3.09,11.6,4,17.52a45.05,45.05,0,0,1-2.49,21.41c-1.47,4.13-4.16,7.57-5.79,11.58-2.09,5.12-.17,11,2.09,15.7,2.45,5.12,6.48,11.29,12.66,11.85C589.73,346,594.9,343.38,591.82,343.11Z"/><path class="cls-5" d="M489.5,428.5s-3.43-59.55-1-91.83c4.53-61,13.86-69.67,13.86-69.67H516.5s-15.17,17-16.68,63.33c-.93,28.67-.61,98.06-.61,98.06Z"/><path d="M493.85,427.34c-1.28-22.37-2-44.82-1.87-67.22A416.61,416.61,0,0,1,495.5,309c1.46-11.17,3.19-22.55,6.76-33.28a37.83,37.83,0,0,1,2.84-6.88c.34-.58,1.83-2.31.7-1.23l-5.18,1.74h14.17L512.47,267c-3.22,3.66-5.39,8.53-7.27,13-5.75,13.5-8.24,28.31-9.28,42.87-2,27.41-1.11,55.2-1.09,82.66q0,12.06.05,24.12l6.06-3.55-9.71.11c-1.59,0-5.06.58-5.75,2.34s.56,2.44,2.32,2.42l9.71-.11c2,0,6.07-.92,6.06-3.55q-.14-29.32,0-58.64c.17-28.35-1.32-58.25,8.51-85.3,2-5.55,4.46-11.73,8.44-16.24,1.39-1.58-1.21-2.42-2.32-2.42-5.72,0-16.54-2.2-20.5,3.08-3.55,4.72-5,11.62-6.39,17.19-8.64,35.22-8.64,72.4-7.66,108.42.33,12.12.79,24.25,1.49,36.36C485.3,432.31,494,430.57,493.85,427.34Z"/><path class="cls-5" d="M495.32,270.75s3.79,1.75,10.59,1.75c11.59,0,17.59-1.5,17.59-1.5s-.36-7.77-13.77-7.7S495.32,270.75,495.32,270.75Z"/><path d="M493.61,271.86c5.12,2.24,11.08,2.08,16.53,1.88a69.33,69.33,0,0,0,13.69-1.53c.84-.2,1.92-.81,1.85-1.8-.53-7.5-11.33-8.65-16.8-8.41s-14.64,2.31-15.73,9c-.3,1.85,4.1,1.15,4.36-.48,1.43-8.81,23.15-8.3,23.82,1.07l1.85-1.8c-7.68,1.85-18.81,3-26.14-.15C495.62,269,491.69,271,493.61,271.86Z"/><path class="cls-12" d="M449,361.5l29,4.5a303,303,0,0,1,0-40.5c1.62-24,9.62-40,9.62-40S470.5,295,459.5,322C449.46,346.65,449,361.5,449,361.5Z"/><path class="cls-12" d="M512,318.5a366.72,366.72,0,0,0-2,45s17-2.5,27-4.5a179,179,0,0,0,19-5s-1.67-16.5-12.5-39-24-33.5-24-33.5-3.79,12.75-7.5,37"/><path class="cls-12" d="M576.21,370.24,598,360.5s.9,7.66,2.8,33.24c1.57,21.16-.48,33.76-.48,33.76l-25.15,14s1.68-17.3,2-37S576.21,370.24,576.21,370.24Z"/><path d="M423,373.25l7.5,1.75s-.94,11-1,33.25A227.55,227.55,0,0,0,432,444l-7.25-2.47s-3-12.61-3-37.28S423,373.25,423,373.25Z"/></g><g id="Syscall"><path d="M280.74,195.53l38.86,6.82a3.63,3.63,0,0,1,2.39,1.5,3.58,3.58,0,0,1-.88,5,3.55,3.55,0,0,1-2.7.67L286.66,204l23.14,33a3.59,3.59,0,0,1-.88,5,3.67,3.67,0,0,1-5.1-.82L262,181.55a3.67,3.67,0,0,1,1-5.07,3.41,3.41,0,0,1,2.68-.53l40.4,7.09a3.41,3.41,0,0,1,2.34,1.42,3.67,3.67,0,0,1-.82,5.1,3.63,3.63,0,0,1-2.76.59L273,184.56Z"/><path d="M454.31,139.26l-6.83,38.58a3.59,3.59,0,0,1-6.56,1.36L419.27,146.6a3.52,3.52,0,0,1-.58-1.31,3.58,3.58,0,0,1,0-1.43l6.85-38.48a3.66,3.66,0,0,1,6.66-1.38l21.55,32.61a3.51,3.51,0,0,1,.58,1.31A2.77,2.77,0,0,1,454.31,139.26Zm-12.41,28.4,5-28.19-15.77-23.9-5,28.19Z"/><path d="M579.61,141.29l19.29,37.51a4,4,0,0,1,.32,2.41A3.65,3.65,0,0,1,595,184a3.69,3.69,0,0,1-2.56-2l-16.33-32-5.18,25.38a3.65,3.65,0,0,1-7.15-1.46l14.58-71.43a3.61,3.61,0,0,1,6.07-1.72L609,124.74a3.76,3.76,0,0,1,1.07,3.28,3.82,3.82,0,0,1-2.4,2.78Zm4.53-30.71-4.7,23,20.45-7.67Z"/><path d="M719.81,196.44,722.73,240a3.56,3.56,0,0,1-3.41,3.84,3.49,3.49,0,0,1-2.26-.6,3.7,3.7,0,0,1-1.58-2.81L713,204.4l-14.86,21.34a3.59,3.59,0,0,1-5,.9,3.67,3.67,0,0,1-1-5.07l41.6-59.75a3.67,3.67,0,0,1,5.09-.84,3.58,3.58,0,0,1,.9,5l-14.86,21.34L759.6,177.1a3.63,3.63,0,0,1,2.11,7Z"/><path d="M810.69,347.13a3.65,3.65,0,0,1-5-1.16,3.7,3.7,0,0,1-.34-3.2l6.24-17.64-18.57-2.25a3.51,3.51,0,0,1-2.67-1.64,3.67,3.67,0,0,1,1.11-5l61.86-38.38a3.65,3.65,0,0,1,3.85,6.2l-37.56,23.3,12.85,1.56a3.72,3.72,0,0,1,2.58,1.69,3.93,3.93,0,0,1,.42,3.15l-4.37,12.12,37.56-23.3a3.65,3.65,0,0,1,3.85,6.2Zm16.41-31.6-17.39-2-5.52,3.43L817,318.48a3.82,3.82,0,0,1,2.67,1.64,4,4,0,0,1,.34,3.2l-4.37,12.12L821.2,332Z"/><path d="M896.65,472.65a3.41,3.41,0,0,1-2.32,1.45L851,480.35a3.65,3.65,0,0,1-1-7.23l18.41-2.66,18.38-24.58-39.88,5.76a3.59,3.59,0,0,1-4.08-3,3.67,3.67,0,0,1,3-4.18L917.85,434a3.55,3.55,0,0,1,3.59,1.8,3.38,3.38,0,0,1-.23,4Zm.27-28.23L878.54,469l13.26-1.92,18.38-24.58Z"/><path d="M854.29,616.67a4,4,0,0,1-2-1.34l-14-18.49a3.7,3.7,0,0,1-.65-3.15,3.58,3.58,0,0,1,4.37-2.61l60.5,15.27L894.67,596A3.5,3.5,0,0,1,894,593a3.76,3.76,0,0,1,4.49-2.68,4,4,0,0,1,2,1.34l14,18.58a3.55,3.55,0,0,1,.65,3.15,3.72,3.72,0,0,1-4.37,2.61l-60.5-15.27,7.84,10.23a4,4,0,0,1,.65,3.15A3.67,3.67,0,0,1,854.29,616.67Z"/><path d="M847.69,753.89l-23.15,1.34a4,4,0,0,1-2.34-.68,3.67,3.67,0,0,1-.93-5.08,4,4,0,0,1,2.82-1.55l12.87-.68-50.88-36.12a3.58,3.58,0,0,1-.85-5,3.67,3.67,0,0,1,5.08-.93l50.88,36.12-3.55-12.45a3.83,3.83,0,0,1,.48-3.09,3.76,3.76,0,0,1,5.16-.87,4,4,0,0,1,1.41,2L851,749.24a3.51,3.51,0,0,1-.48,3.09A3.7,3.7,0,0,1,847.69,753.89Z"/><path d="M719.88,819.4l-37.1-12.23a3.56,3.56,0,0,1-1.92-1.49,3.63,3.63,0,0,1,4.24-5.39l44.11,14.58a3.39,3.39,0,0,1,2.51,3.85L727.26,865a3.63,3.63,0,0,1-6.65,1.71,3.56,3.56,0,0,1-.58-2.36l3.79-38.87-18.1,11.79a3.6,3.6,0,1,1-3.93-6Z"/><path d="M550.09,848.38a3.63,3.63,0,0,1,6.68-2.45l15.71,25.63,6.37-29.38a3.56,3.56,0,0,1,2.87-2.82,3.67,3.67,0,0,1,4.25,2.93c.35,2.07-7.1,34.07-8,38.28,2.25,3.68,19.84,31.42,20.19,33.5a3.67,3.67,0,0,1-3,4.17,3.55,3.55,0,0,1-3.64-1.72l-15.71-25.63-6.37,29.38a3.63,3.63,0,0,1-7.12-.11c-.35-2.07,7.1-34.07,8-38.28C568,878.2,550.44,850.45,550.09,848.38Z"/><path d="M441.56,876.07l-17.68-34.83a3.56,3.56,0,0,1-.32-2.41,3.63,3.63,0,0,1,6.81-.83l21,41.44a3.39,3.39,0,0,1-.94,4.5l-35.78,29.63a3.63,3.63,0,0,1-5.92-3.48A3.57,3.57,0,0,1,410,908l30.1-24.89-21.14-4.4a3.6,3.6,0,1,1,1.46-7Z"/><path d="M302.67,823,300,779.35a3.57,3.57,0,0,1,.67-2.34,3.63,3.63,0,0,1,6.58,1.94l2.84,46.38a3.39,3.39,0,0,1-2.65,3.76l-44.61,13a3.63,3.63,0,0,1-4.05-5.54,3.57,3.57,0,0,1,2-1.42Z"/><path d="M210.89,729.69l10.82-37.53a3.57,3.57,0,0,1,1.42-2,3.63,3.63,0,0,1,5.55,4l-12.9,44.64a3.39,3.39,0,0,1-3.75,2.66l-46.38-2.72a3.63,3.63,0,0,1-2-6.58,3.57,3.57,0,0,1,2.34-.67l39,2.32-12.47-17.64a3.6,3.6,0,1,1,5.88-4.16Z"/><path d="M175.46,561.15a3.63,3.63,0,0,1,2.71,6.59l-25,16.68,29.6,5.25a3.56,3.56,0,0,1,2.93,2.76,3.67,3.67,0,0,1-2.77,4.36c-2.06.43-34.32-5.8-38.56-6.54-3.59,2.38-30.65,21-32.7,21.45a3.67,3.67,0,0,1-4.28-2.88,3.56,3.56,0,0,1,1.58-3.7l25-16.68-29.6-5.25a3.63,3.63,0,0,1-.16-7.12c2.05-.43,34.32,5.8,38.56,6.54C146.34,580.22,173.4,561.58,175.46,561.15Z"/><path d="M163.8,424.81a4,4,0,0,1,2.11,1.21l15.1,17.6a3.69,3.69,0,0,1,.84,3.11,3.59,3.59,0,0,1-4.21,2.87l-61.32-11.55,8.43,9.83a3.51,3.51,0,0,1,.86,3,3.76,3.76,0,0,1-4.32,3,4,4,0,0,1-2.11-1.21l-15.08-17.7a3.55,3.55,0,0,1-.84-3.11,3.72,3.72,0,0,1,4.2-2.87l61.32,11.55-8.45-9.73a4,4,0,0,1-.84-3.11A3.67,3.67,0,0,1,163.8,424.81Z"/><path d="M161.94,287.46l23-2.77a4,4,0,0,1,2.38.53,3.67,3.67,0,0,1,1.24,5,4,4,0,0,1-2.72,1.73l-12.8,1.47,53,32.92a3.59,3.59,0,0,1,1.16,5,3.67,3.67,0,0,1-5,1.24l-53-32.92,4.31,12.21a3.82,3.82,0,0,1-.29,3.12,3.76,3.76,0,0,1-5.09,1.19,4,4,0,0,1-1.53-1.89l-7.68-22a3.51,3.51,0,0,1,.29-3.12A3.69,3.69,0,0,1,161.94,287.46Z"/></g><g id="Title"><path d="M986.26,750.4c-.36-.53-10.93-15.8-24.7-33.73a65.19,65.19,0,0,1-9.41,4.89,60.64,60.64,0,0,1-23.55,4.76c-15,0-30-5.52-44.51-16.41-11.53,4.89-22.71,7.37-33.3,7.37-.94,0-1.88,0-2.82-.06a65,65,0,0,1-26.52-6.88,75.53,75.53,0,0,1-27.46,6.6c-1.15.05-2.32.08-3.48.08-13.35,0-27.06-3.5-40.8-10.41-13.72,6.35-27.22,9.57-40.16,9.57-2.26,0-4.53-.1-6.75-.29a74.48,74.48,0,0,1-21.52-5.22,64.92,64.92,0,0,1-25.86,6.55q-1.42.06-2.83.06c-10.68,0-22-2.52-33.63-7.51-14.86,11-30.08,16.56-45.29,16.56a61.19,61.19,0,0,1-24.47-5.1,63.38,63.38,0,0,1-7.76-4c-13.73,17.91-24.21,33.09-24.31,33.23l-4.22,6.2-4.11-6.26c-.07-.1-10.72-15.53-24.67-33.7a65.38,65.38,0,0,1-9.41,4.89,60.65,60.65,0,0,1-23.55,4.76c-15,0-30-5.52-44.51-16.41-11.53,4.89-22.71,7.37-33.3,7.37q-1.41,0-2.82-.06A64.93,64.93,0,0,1,344,710.34a75.53,75.53,0,0,1-27.46,6.6c-1.15.05-2.32.08-3.48.08-13.35,0-27.06-3.5-40.8-10.41-13.72,6.35-27.21,9.57-40.16,9.57-2.26,0-4.53-.1-6.75-.29a74.48,74.48,0,0,1-21.52-5.22A64.92,64.92,0,0,1,178,717.22q-1.41.06-2.83.06c-10.68,0-22-2.52-33.63-7.51-14.86,11-30.08,16.56-45.29,16.56a61.19,61.19,0,0,1-24.47-5.1,63.34,63.34,0,0,1-7.76-4c-13.76,17.94-24.21,33.09-24.31,33.23l-9.14,13.45V721l.82-1.25c1.12-1.7,6.43-9.49,13.74-19.39-9.3-11.72-14.56-25.59-14.56-38.6,0-12.83,5.54-27.24,15-39.26C37,611,31.46,602.59,31.4,602.5l-.83-1.25v-43L39.74,572c.08.12,10.73,15.54,24.57,33.59a65.08,65.08,0,0,1,9.13-4.72A60.65,60.65,0,0,1,97,596.11c15.08,0,30.08,5.55,44.64,16.51,11.61-5,22.88-7.47,33.54-7.47.94,0,1.88,0,2.82.06A64.91,64.91,0,0,1,204.34,612a75.51,75.51,0,0,1,27.25-6.51c1.15-.05,2.32-.08,3.48-.08,13.35,0,27.06,3.5,40.81,10.41,13.72-6.35,27.22-9.57,40.16-9.57,2.26,0,4.53.1,6.75.29a74.54,74.54,0,0,1,21.74,5.3,64.9,64.9,0,0,1,26-6.63q1.41-.06,2.82-.06c10.61,0,21.83,2.49,33.38,7.4,14.82-10.92,30-16.46,45.15-16.46a61.16,61.16,0,0,1,24.47,5.1,63.54,63.54,0,0,1,8,4.2c13.75-17.93,24.34-33.26,24.44-33.41l4.17-6.16,4.14,6.17c.08.13,10.78,15.6,24.57,33.59a65.19,65.19,0,0,1,9.13-4.72,60.66,60.66,0,0,1,23.55-4.76c15.08,0,30.08,5.55,44.64,16.51,11.61-5,22.88-7.47,33.54-7.47.94,0,1.88,0,2.82.06A64.9,64.9,0,0,1,681.76,612,75.52,75.52,0,0,1,709,605.48c1.15-.05,2.32-.08,3.48-.08,13.35,0,27.06,3.5,40.81,10.41,13.72-6.35,27.22-9.57,40.16-9.57,2.26,0,4.53.1,6.75.29a74.54,74.54,0,0,1,21.74,5.3,64.9,64.9,0,0,1,26-6.63q1.41-.06,2.82-.06c10.61,0,21.82,2.49,33.38,7.4,14.82-10.92,30-16.46,45.15-16.46a61.16,61.16,0,0,1,24.47,5.1,63.4,63.4,0,0,1,8,4.2c13.75-17.93,24.34-33.26,24.44-33.41l9.14-13.49v42.75l-.83,1.25c-.06.09-5.57,8.37-14,19.76,9.19,11.68,14.4,25.47,14.4,38.39,0,12.69-5.46,27-14.74,39,7.57,10.21,13.13,18.37,14.31,20.14l.83,1.25v43.41Z"/><path d="M990.42,574.77v25c-.68,1-7,10.48-16.15,22.69,9.67,11,15.76,24.93,15.76,38.22,0,12.1-5.75,26.87-16.08,38.82,9.3,12.38,15.8,22,16.48,23v25.12c-.2-.3-12.52-18.12-27.77-37.73a61.29,61.29,0,0,1-12.43,7,55.87,55.87,0,0,1-21.62,4.37c-12.35,0-27.34-4.11-43.8-17.18-11.12,5.07-22.56,8.14-34,8.14q-1.31,0-2.61-.05a59.94,59.94,0,0,1-26.59-7.46,70.67,70.67,0,0,1-27.82,7.18q-1.64.07-3.25.07c-14.93,0-28.79-4.67-40.71-11-12,5.87-25.77,10.14-40.25,10.14q-3.13,0-6.31-.28a69.43,69.43,0,0,1-22.15-5.75,59.86,59.86,0,0,1-25.88,7.07q-1.31.05-2.62.05c-11.54,0-23.09-3.13-34.3-8.28-16.86,13.17-32.09,17.33-44.62,17.33a56.42,56.42,0,0,1-22.48-4.69,60.13,60.13,0,0,1-10.88-6.18c-15,19.39-27.13,36.87-27.33,37.17-.2-.3-12.53-18.12-27.77-37.73a61.28,61.28,0,0,1-12.43,7,55.88,55.88,0,0,1-21.62,4.37c-12.35,0-27.34-4.11-43.8-17.18-11.12,5.07-22.56,8.14-34,8.14q-1.31,0-2.61-.05a59.94,59.94,0,0,1-26.59-7.46,70.67,70.67,0,0,1-27.82,7.18q-1.64.07-3.25.07c-14.93,0-28.79-4.67-40.71-11-12,5.87-25.77,10.14-40.25,10.14q-3.13,0-6.31-.28a69.43,69.43,0,0,1-22.15-5.75,59.86,59.86,0,0,1-25.88,7.07q-1.31.05-2.62.05c-11.54,0-23.09-3.13-34.3-8.28-16.86,13.17-32.09,17.33-44.62,17.33a56.43,56.43,0,0,1-22.48-4.69,60.13,60.13,0,0,1-10.88-6.18c-15,19.39-27.13,36.87-27.33,37.17V722.51c.67-1,6.92-10.29,15.93-22.32-9.77-11-15.93-25.05-15.93-38.42,0-12.2,5.84-27.1,16.32-39.1-9.22-12.32-15.64-21.9-16.32-22.93v-25c.2.3,12.45,18,27.63,37.57a61.19,61.19,0,0,1,12.17-6.86A55.87,55.87,0,0,1,97,601.11c12.38,0,27.42,4.13,43.94,17.29,11.19-5.13,22.72-8.25,34.24-8.25q1.31,0,2.61.05a59.91,59.91,0,0,1,26.41,7.36,70.66,70.66,0,0,1,27.61-7.08q1.63-.07,3.25-.07c14.93,0,28.8,4.67,40.72,11,12-5.87,25.77-10.15,40.25-10.15q3.13,0,6.31.28a69.46,69.46,0,0,1,22.37,5.84,59.87,59.87,0,0,1,26.05-7.16q1.31-.05,2.61-.05c11.45,0,22.92,3.08,34.06,8.16,16.8-13.08,32-17.22,44.48-17.22a56.43,56.43,0,0,1,22.48,4.69,60.19,60.19,0,0,1,11.12,6.36c15.11-19.47,27.28-37.07,27.48-37.37.2.3,12.45,18,27.63,37.57a61.18,61.18,0,0,1,12.17-6.86,55.87,55.87,0,0,1,21.62-4.38c12.38,0,27.42,4.13,43.94,17.29,11.19-5.13,22.72-8.25,34.24-8.25q1.31,0,2.62.05a59.91,59.91,0,0,1,26.41,7.36,70.66,70.66,0,0,1,27.61-7.08q1.63-.07,3.25-.07c14.93,0,28.8,4.67,40.72,11,12-5.87,25.77-10.15,40.25-10.15q3.13,0,6.31.28a69.46,69.46,0,0,1,22.37,5.84,59.87,59.87,0,0,1,26.05-7.16q1.31-.05,2.61-.05c11.45,0,22.92,3.08,34.06,8.16,16.8-13.08,32-17.22,44.47-17.22a56.43,56.43,0,0,1,22.48,4.69,60.2,60.2,0,0,1,11.13,6.36c15.11-19.47,27.28-37.07,27.48-37.37m10-33.43-18.31,27.86c-.52.76-9.62,13.88-21.6,29.67q-2.33-1.24-4.71-2.27a66.15,66.15,0,0,0-26.46-5.51c-15.46,0-30.84,5.3-45.81,15.78a88.9,88.9,0,0,0-32.72-6.72c-1,0-2,0-3,.06a69.75,69.75,0,0,0-26,6.19,79.36,79.36,0,0,0-21.12-4.84c-2.37-.21-4.78-.31-7.19-.31-13,0-26.44,3-40.07,9-13.73-6.56-27.46-9.88-40.9-9.88-1.23,0-2.48,0-3.71.08a80.17,80.17,0,0,0-26.91,6,69.73,69.73,0,0,0-26.24-6.3c-1,0-2-.06-3-.06a89,89,0,0,0-32.85,6.78c-14.73-10.5-30-15.82-45.33-15.82a65.62,65.62,0,0,0-25.48,5.15q-3,1.25-5.89,2.8c-12.13-16-21.32-29.26-21.76-29.89l-8.35-12.53-8.25,12.55c-.5.73-9.61,13.87-21.6,29.67q-2.33-1.24-4.71-2.27a66.16,66.16,0,0,0-26.46-5.51c-15.46,0-30.84,5.3-45.82,15.78a88.9,88.9,0,0,0-32.72-6.72c-1,0-2,0-3,.06a69.75,69.75,0,0,0-26,6.19,79.35,79.35,0,0,0-21.12-4.84c-2.37-.21-4.78-.31-7.19-.31-13,0-26.44,3-40.07,9-13.73-6.56-27.46-9.88-40.9-9.88-1.23,0-2.48,0-3.71.08a80.16,80.16,0,0,0-26.91,6,69.73,69.73,0,0,0-26.24-6.3c-1,0-2-.06-3-.06a89,89,0,0,0-32.85,6.78c-14.73-10.5-30-15.82-45.33-15.82a65.61,65.61,0,0,0-25.48,5.15q-3,1.25-5.89,2.8c-12.14-16-21.31-29.24-21.75-29.88L25.58,541.68v61.07l1.65,2.5c.05.08,4.76,7.16,12.1,17.23-8.7,12.24-13.75,26.46-13.75,39.29,0,13,4.79,26.71,13.33,38.64-7.2,9.86-11.63,16.52-11.68,16.6l-1.65,2.5v61.33l18.3-27.63c.47-.68,9.45-13.65,21.49-29.52q2.2,1.15,4.44,2.13a66.15,66.15,0,0,0,26.46,5.51c15.51,0,30.94-5.34,46-15.88a89,89,0,0,0,33,6.82c1,0,2,0,3-.06A69.77,69.77,0,0,0,204,716.1,79.31,79.31,0,0,0,225,720.86c2.37.21,4.79.31,7.19.31,13,0,26.44-3,40.07-9,13.73,6.56,27.46,9.88,40.89,9.88,1.23,0,2.48,0,3.71-.08a80.17,80.17,0,0,0,27.12-6.1,69.75,69.75,0,0,0,26.42,6.38c1,0,2,.06,3,.06a88.82,88.82,0,0,0,32.6-6.68c14.68,10.44,29.86,15.72,45.2,15.72a65.63,65.63,0,0,0,25.48-5.15q3.14-1.31,6.18-3c12.12,15.95,21.29,29.18,21.84,30l8.25,12.61,8.36-12.59c.47-.69,9.48-13.69,21.49-29.52q2.2,1.16,4.44,2.13a66.15,66.15,0,0,0,26.46,5.51c15.51,0,30.94-5.34,46-15.88a89,89,0,0,0,33,6.82c1,0,2,0,3-.06a69.77,69.77,0,0,0,25.84-6.11,79.31,79.31,0,0,0,20.91,4.76c2.37.21,4.79.31,7.19.31,13,0,26.44-3,40.07-9,13.73,6.56,27.46,9.88,40.89,9.88,1.23,0,2.48,0,3.71-.08a80.17,80.17,0,0,0,27.12-6.1,69.74,69.74,0,0,0,26.42,6.38c1,0,2,.06,3,.06a88.82,88.82,0,0,0,32.6-6.68c14.68,10.44,29.86,15.72,45.2,15.72a65.63,65.63,0,0,0,25.48-5.15q3.14-1.31,6.18-3c12.12,16,21.3,29.19,21.84,30l18.31,28V719.51L998.77,717c-1.07-1.62-5.76-8.5-12.27-17.39,8.56-12.17,13.53-26.27,13.53-39,0-12.9-4.73-26.54-13.18-38.42,7.31-10,11.87-16.9,11.92-17l1.65-2.51v-61.4Z"/><path class="cls-5" d="M989.42,569.77c-.2.3-12.37,17.9-27.48,37.37a60.2,60.2,0,0,0-11.12-6.36c-13.83-6-38-10-67,12.53-12-5.47-24.35-8.62-36.67-8.11a59.87,59.87,0,0,0-26.05,7.16,69.46,69.46,0,0,0-22.37-5.84C782,605,766,609.68,752.21,616.39c-12.78-6.77-27.8-11.65-44-10.91a70.66,70.66,0,0,0-27.61,7.08,59.91,59.91,0,0,0-26.41-7.36c-12.39-.51-24.82,2.68-36.86,8.2-28-22.33-51.82-18.67-65.56-12.91a61.19,61.19,0,0,0-12.17,6.86c-15.18-19.55-27.43-37.27-27.63-37.57-.2.3-12.37,17.9-27.48,37.37a60.2,60.2,0,0,0-11.12-6.36c-13.83-6-38-10-67,12.53-12-5.47-24.35-8.62-36.67-8.11a59.87,59.87,0,0,0-26.05,7.16,69.46,69.46,0,0,0-22.37-5.84c-16.79-1.48-32.79,3.16-46.56,9.87-12.78-6.77-27.8-11.65-44-10.91a70.66,70.66,0,0,0-27.61,7.08,59.91,59.91,0,0,0-26.41-7.36c-12.39-.51-24.82,2.68-36.86,8.2-28-22.33-51.82-18.67-65.56-12.91a61.19,61.19,0,0,0-12.17,6.86C47,587.79,34.77,570.07,34.58,569.77v25c.68,1,7.1,10.6,16.32,22.93-10.48,12-16.32,26.9-16.32,39.1,0,13.37,6.16,27.38,15.93,38.42-9,12-15.26,21.3-15.93,22.32v25.12c.2-.3,12.29-17.78,27.33-37.17a60.13,60.13,0,0,0,10.88,6.18c13.85,6,38.07,10,67.1-12.64,12.06,5.54,24.51,8.74,36.92,8.22a59.86,59.86,0,0,0,25.88-7.07,69.43,69.43,0,0,0,22.15,5.75c16.79,1.48,32.79-3.16,46.56-9.87,12.78,6.77,27.8,11.65,44,10.91a70.67,70.67,0,0,0,27.82-7.18,59.94,59.94,0,0,0,26.59,7.46c12.3.51,24.65-2.63,36.61-8.08,28,22.21,51.71,18.55,65.42,12.8a61.28,61.28,0,0,0,12.43-7c15.25,19.61,27.57,37.43,27.77,37.73.2-.3,12.29-17.78,27.33-37.17a60.13,60.13,0,0,0,10.88,6.18c13.85,6,38.07,10,67.1-12.64,12.06,5.54,24.51,8.74,36.92,8.22a59.86,59.86,0,0,0,25.88-7.07,69.43,69.43,0,0,0,22.15,5.75C719,707.38,735,702.74,748.82,696c12.78,6.77,27.8,11.65,44,10.91a70.67,70.67,0,0,0,27.82-7.18,59.94,59.94,0,0,0,26.59,7.46c12.3.51,24.65-2.63,36.61-8.08,28,22.21,51.71,18.55,65.42,12.8a61.28,61.28,0,0,0,12.43-7c15.25,19.61,27.57,37.43,27.77,37.73V717.51c-.68-1-7.18-10.66-16.48-23,10.33-12,16.08-26.71,16.08-38.82,0-13.28-6.09-27.21-15.76-38.22,9.13-12.21,15.48-21.66,16.15-22.69Z"/><path d="M135.81,667.08a20.73,20.73,0,0,1-7.8,9.38q-9.79,6.81-12.37,8.13-7.64,4-13.94,4A31,31,0,0,1,87,684.84Q71.9,676.71,71.9,659.61q0-17.59,12.45-25.07l11.7-7.05q3.32-2.07,10-2.08a39.32,39.32,0,0,1,9.88,1.41v-.08l-.17.08A31.56,31.56,0,0,1,131.66,637a27.24,27.24,0,0,1,6.06,17.84A33.4,33.4,0,0,1,135.81,667.08Zm-13.74-23.66q-4.94-6.56-15.56-9.3a44.62,44.62,0,0,0-11.37-1.58q-4.81,0-6.39,1.08-3.07,2.08-4.73,9.79-.58,2.91-.87,5.73a55.73,55.73,0,0,0-.29,5.73,32.63,32.63,0,0,0,1.58,10.79v-.08l.08.08q1.25,3.9,9.54,9,10.87,6.64,18.92,6.64,14,0,14-20.09Q127,650,122.08,643.42Z"/><path d="M281.64,637a36.53,36.53,0,0,1-4.32,4.07l-.17-.08-.25-.33a.34.34,0,0,0-.08-.25,2.19,2.19,0,0,1,.33-1.08h.08a2.33,2.33,0,0,0,.33-1.16q0-1.74-8.13-3.15-3.16-.58-5.64-.83t-4.4-.25q-2.16,0-4.32.12t-4.32.46q-1.91,1.49-1.91,5.73a14.76,14.76,0,0,0,.08,2.08q.41,2.16,10,5.64,12.78,4.65,17.85,7.72,9.54,5.81,9.54,13.94a18,18,0,0,1-.42,2.74q-2.41,1.91-5,3.9t-5.31,4.14q-1.08,1.06-3,2.73t-4.73,4a29.4,29.4,0,0,1-9.54,1.22,47.67,47.67,0,0,1-14.94-2.85q-6.89-2.44-6.89-4.39,0-.9,4.32-5.29,4.31-4.56,5-4.57.33,0,.5.5v.33a3.66,3.66,0,0,0-.83,1.66q0,1.08,3.24,2.57a37.46,37.46,0,0,0,15.85,3.73q7.39,0,10.54-1.91a6.66,6.66,0,0,0,.42-2.41q0-5.73-2.82-8.55-2-2-8.05-4.48L245.71,655a26.67,26.67,0,0,1-4-2q-3.49-2-3.49-8.71,0-4.32.83-5.64v-.08h.33a21.74,21.74,0,0,1,4.81-2.41q3.57-1.49,13.11-9.21,2-1,9.79-1,16.6,0,19.5,4.48l.17.5Q286.79,632.14,281.64,637Z"/><path d="M451,636.54,446.31,643q-1.91,2.66-2.57,2.66a.73.73,0,0,1-.33-.08v-.17l.5-2a8.38,8.38,0,0,0,.33-2.08q0-3.9-12.12-5.56-1.66-.33-4.65-.75t-7.3-1.08q-2.16-.33-4.44-.46t-4.77-.12a13.8,13.8,0,0,0-5.23.83q-3.4,1.25-6,8a27.92,27.92,0,0,0-2.32,10.38A16.08,16.08,0,0,0,401,663a28.12,28.12,0,0,0,3.4,3.49q2.07,1.83,5,4,4.23,3.07,6.72,4.81t3.32,2.24A22.94,22.94,0,0,0,431,681.11a26.32,26.32,0,0,0,7.47-1.24l1.16-19.75-4.48-.25a29.16,29.16,0,0,0-3.53.08q-2.86.17-8,.58,1.16-.75,2.86-1.62t4-1.78a56.84,56.84,0,0,1,7.14-2.49,11,11,0,0,1,1.74-.25q1.08-.08,2.66-.17a36.26,36.26,0,0,1,4.9,0q.83.08,1.91.08h2.49l-2.91,30a21.76,21.76,0,0,1-.17,3.32q-1.24,4.15-2.74,5.48l-4.48,4a9.84,9.84,0,0,1-1,1.2q-.62.62-1.37,1.45-4.15,4.23-4.32,4.23h-.08v-.08l-.08-.08q0,.58,2.24-7.3,1.25-4.32,1.24-12.62a9.45,9.45,0,0,0-.08-1.74l-1.37.54q-1,.37-2.37,1-3.24,1.49-6.52,2.82a18.5,18.5,0,0,1-7,1.33q-8.14,0-18-7.64v-.08l-.08.17A70.19,70.19,0,0,1,391,669.9q-5.56-6.8-5.56-13.69a28.14,28.14,0,0,1,2.16-10.29,30.78,30.78,0,0,1,5.48-9.3,7.3,7.3,0,0,1,2.24-.66q9.29-2.16,12.78-4.57l4-2.74a8.07,8.07,0,0,1,4.32-1.83q3.73,0,8.59.42t10.83,1.24q14.86,2.16,16.93,4.57l.08.33v.08Q452.79,634.21,451,636.54Z"/><path d="M631.57,687.25q-1.16.58-6.47.58-1.41,0-3.49-.08t-4.73-.25l-11.12-20.92-30.54-.42q-5.23,8.3-8.26,13.07t-4,6.1a52.67,52.67,0,0,1-7.64,7.84,49.55,49.55,0,0,1-9.21,6H546v.17a54.37,54.37,0,0,0,12.78-15.11q.41-.75,2.95-5.1T569,666.75h-5.23l7.47-3.49,17.1-29.3q-.91,0-2.66-.08T583,633.8q-1.83,0-4.19.12t-5.44.46q6.8-6.8,14.44-6.72l11.29.08q2.32,4.56,9.25,17.93t18.3,35.52h6.81a4.19,4.19,0,0,0,.83.08h.91a24.47,24.47,0,0,0,6.89-1.16Q638.62,683.93,631.57,687.25ZM591.9,639.86l-13.7,21.83,25.23.08Z"/><path d="M802,683q-3,1.66-6.06,3.24a14.68,14.68,0,0,1-6.81,1.58q-3.73,0-8.05-3.49-.58-.66-2.16-2.37t-4.15-4.36l-.08-.08a85.27,85.27,0,0,1-6.14-6.64q-8.05-9.54-8-10.13.41-.91,2.66-1.58l3.24-1a27.59,27.59,0,0,0,9.13-5.48q5.56-4.56,5.56-8.55a1.39,1.39,0,0,0-.08-.42q-1.41-6.06-7.72-9.21a27.6,27.6,0,0,0-12.2-2.66,19.87,19.87,0,0,0-2.08.17q-1.41.17-3.49.5v-.08q-.08,1.08-.08,14v37.85l-10.87,3.49q-.17-7.8-.25-21.66t-.17-33.95l-11.79.08q8.63-6.14,10.79-6.14H745a12,12,0,0,0,1.83.08q3.74,0,11.37-.75t11.45-.75a28.67,28.67,0,0,1,14.69,3.82q8,4.65,8,11.87a10.14,10.14,0,0,1-4.56,8.55,67.66,67.66,0,0,1-14.61,7.89,93.08,93.08,0,0,0,5.89,7.47q3.32,3.82,7.47,8l2.41,2.45q1.49,1.54,3.57,3.61a16.86,16.86,0,0,0,2.91,2.49,7.6,7.6,0,0,0,3.73.91q1.91,0,7.89-2.41l.58,1Z"/><path d="M976.18,664a16.87,16.87,0,0,1-8.47,11.45l-17.6,9.88a19.69,19.69,0,0,1-9.88,2.49,24.08,24.08,0,0,1-10.46-2.41q-19.09-9.13-19.09-29.3,0-6.72,2.08-10.79a22,22,0,0,1,6-6.89l3.24-2.32L928,631.8l-18.92-3.15q-3.4-.66-3.4-1.33,0-1.08,3.4-3.32v-.08l7.22-5.81a7.33,7.33,0,0,1,2.32-1.58H919c.33.28.5.5.5.66q0,.5-1.33,1.83a8.06,8.06,0,0,0-1.25,1.58v.25q.5.58,4.15,1.16l37.27,5.89q19,3,19,21.33Q977.35,659.2,976.18,664Zm-14-21.66q-3.73-4.9-12.86-6.64l-18.84-3.57-2.16,1.66q-3,2.32-4.65,9.21a47,47,0,0,0-.87,5.19,48.05,48.05,0,0,0-.29,5.35,30.68,30.68,0,0,0,2,10.29q2.9,8.3,14.44,13.36a28.33,28.33,0,0,0,11.54,2.66q6.39,0,10.21-3.32,1.83-1.58,3.74-9.38A45.64,45.64,0,0,0,966,656.71Q966,647.16,962.16,642.35Z"/></g></svg>