<svg id="Layer_1" data-name="Layer 1" xmlns="http://www.w3.org/2000/svg" viewBox="0 0 1000 1000"><defs><style>.cls-1{fill:#010101;}.cls-2{fill:#fff;stroke-width:4px;}.cls-2,.cls-3{stroke:#000;stroke-miterlimit:10;}.cls-3{fill:#231f20;stroke-width:3px;}</style></defs><title>phire nation</title><path class="cls-1" d="M812,437.23c-24.15-82-83.75-147.75-114.82-226.8-10.81-25.83-17.34-53.1-22.42-80.49a255.4,255.4,0,0,0-23.26,114c-26-20.73-73.12-59.72-73.12-70.59,0,0-2.15,33.26-7.69,61-9.79-19.58-20.49-38.75-31.39-57.74C515.21,133.7,489.05,90.92,476.9,43c-3.34-11.11-4.18-22.75-7.16-33.91l-5.55-.95c-2.6,46.45-19.79,90.65-42.07,131.31-17.85,33.13-37.79,65.49-55.41,98.86-6.15-28.45-8.5-64.93-8.5-64.93,0,8.61-29.56,34.87-54.78,55.73,5.27-30.14.64-61.59-10.86-90A545.1,545.1,0,0,1,225.71,274c-32.57,49.12-72.14,95-92.22,150.93C120.23,461,114,499.3,112.89,537.55c.71,52,13.68,104.89,43.62,148.47,28.39,41.55,69.93,73.87,116.37,94.45,42,19.56,87.35,31.6,133.39,38Q404.54,875,392,891.59,369,921,318.19,921H289.14v22.19H640.79V921H611.13a112.1,112.1,0,0,1-55.08-14.39q-19.38-10.79-25.42-25.78-6.55-16.46-7.64-62,7.51-.9,15-1.87c71.72-10.49,143.66-35.55,197.46-84.44,51.15-45.27,81-110.66,87.35-177.22C824.81,515.74,824.18,475.34,812,437.23ZM304.8,597.93c-30.94-19.16-52.28-50.25-63.86-83.72-9.64-28-16-57.9-14.34-87.46,8-78.79,73.63-121.23,117.45-141a374.58,374.58,0,0,0-14.93,42.32c-10.68,38.55-18.18,79.31-10.55,119.1,11.23,65.69,45.18,127.28,94.25,173.5C375.65,624.43,336.37,618.14,304.8,597.93ZM694.94,542c-12.87,34.17-42,62.28-78,72.69-22.71,6.05-47.62,10.16-70.33,1.92-24.13-7.44-43.2-27-51.25-50.2-5.34-16-9.31-33.27-4.74-49.87,5.29-26,20.73-51.69,46.36-62.77,26.6-11.77,56.81-7.26,84.25-1,.47-52.51-5.81-105.48-23.73-155.19-.54-1.58-1.1-3.15-1.66-4.73,40.27,26.62,96.34,82.3,109.93,190.28.17,1.34.34,2.59.51,3.89A164,164,0,0,1,694.94,542Z"/><path class="cls-2" d="M423.48,697s2.75,8.62,6.68,9.82c0,0-2.63,5.38.08,9.06,0,0-5.25,11.37.09,9.88,0,0,.24,4.32,2.51,4.1,0,0,2.55,8.63,5,7.37a48.46,48.46,0,0,0,5.32-3.34l.85,2.88-2.87,1.67,2.08,2.25s-14.22-1.42-17.9,1.4a47,47,0,0,0-7.14,7.27s-12.31,5.05-14.18,3.42-8.85.9-8.85.9S391,751.3,390,751.83s-2.63,4.76-2.63,4.76-2.43,4.55-35.3,13.29c0,0-14.41.85-17.44,6.75,0,0-8.51,4.3-11.5,3.6s-3.17,2.81-.39,2.47c0,0-1.29,5.47,15,1.31,0,0,13.05,8.94,20.35-4.09,0,0,32.34-9.86,38.62-10,0,0,1.68,4.21,7.85,3.22,0,0,12.17,2.36,12.11-4.43,0,0,11.86,2.26,19,.86,0,0,0,16.68,8.5,29.17s7,21.15,7,21.15-59.84,21.44-60,37.19-3.12,43,5.67,35c0,0-.68,28.11,2.14,31.9,0,0-23.79,10.82-22.12,13s33.91,4.33,39.54.06a28.66,28.66,0,0,0-5.47-12.51,124.29,124.29,0,0,0,5.09-29.7s13.79-.74,13.51-9.39-4.1-20.56-2.05-22.22,4.79-5.6,17.86-5.72,27.35-4.26,27.34-5v.72s15.72,19.73,18.79,29.18a242.08,242.08,0,0,1,6.41,25.89c1.18,5.86,13.48-12.48,13.48-12.48s27.55,18.18,56.58,17.62c0,0-1.76,9.9.31,11.94,0,0-7.24,7.79-6.5,9.74s10.77,7.42,21.82-.4c0,0,4.29-4.26.48-15.65,0,0,6.83-18.8-4.69-17.87l-5.76.26s-20.57-21-54.66-32.67c0,0,2-4.86-2.4-14.6s-9.88-11.44-13.46-31.59c0,0-5.38-14.88-12.13-20.69,0,0,3.48-1.88,2-4.55s-6.67-9-6-23-1.05-14,1.51-15.87,18.44-10,18.44-10,2.3,4,9.67-1.12,10-3.69,10-7.71c0,0,7.42.35,17.42-8.8s18.67-7.58,18.67-7.58,9.39,2.28,11.06-6.69c0,0-5.05-12.62-15.1-7.69s-14.09,13.61-28.09,13.64l-2.08-2s-6.47,1.81-7.38,3.36-3.11-2.44-6-1-1.48,7.32-14.52,10.84c0,0-17.86-5.4-26.33,3.12,0,0-6.21-3.75-8.68-3.63l0-5.15-5.15,0-2.53-6.57a18.52,18.52,0,0,0,5.07-8.28c1.29-5-1.76-12.65.5-13.6s-9.58-12.58-22.91-6a4.34,4.34,0,0,0-6-1c-3.79,2.2-7.23-2.2-7.23-2.2l.85,3.49a18.51,18.51,0,0,1-4.35-2.64c-1.35-1.33.44,3.7.44,3.7l-4.72,2.31Z"/><path class="cls-2" d="M812.28,626.57c11.31-33.51,14.43-71.69-20.53-87-68.07-29.89-56.69-102.26-56.69-102.26-17.22,67.24-4,74.44,23.59,114.59s3.49,40.46,3.49,40.46-25,7.14-46.8-54.59S732.6,431.93,726,364.12,589.57,260.29,589.57,260.29c86.54,59.62,92.81,110.07,92.81,110.07s4.59,83.2-31.12,3.73-63.68-53.48-109.79-71.66S536.8,257,536.8,257c-24.59-.09-74.21,38.33-1.88,62s39.4,32.18,3.23,23.52S451,267.22,417.52,247.79s-58.38,1.69-110.21,25.85S203,272.82,203,272.82c38.24,40.31,135.95,17.82,165.37,1.07s46.28,40.21,6.61,23.3-59.38,12.36-59.38,12.36c55.51-19.73,39.93,14.35,39.93,14.35-32.16,20.33-54.61-18.47-54.61-18.47-12.53,28.79,15.47,42.22,15.47,42.22-16.08,13.34-19.19,4.64-19.19,4.64-56.57-67.93-131-6.7-131-6.7-30.36,21.9-58.42,14-58.42,14,35.49,11.25,30.14,13.71,78.72-1.75s56.65,10.71,33.05,25.82-33-11.41-33-11.41c-18.73,57.17,33.58,47,33.58,47-32.34,50-75.42,13.4-75.42,13.4,2.34,35.87,44.8,36.92,44.8,36.92-51,11.38-51.18,27.5-67.54,56.12S65.69,571.7,65.69,571.7c53.75-14.11,54-17.51,71-42.78S166.78,510,166.78,510s20.33,6.3,6.61,23.3-20.81-7.12-20.81-7.12c-15.57,47.22,13.92,70.3,13.92,70.3-26.27-6.34-40.75,12-40.75,12,25.13-4.61,43.47,16.66,43.47,16.66-24.35-9.43-37.76,5.86-37.76,5.86-33,33.94-65.12,15.27-65.12,15.27s6.43,27.13,56.59,9.87,58.26,22.47,58.26,22.47c-43.44,3.26-26,56.8-26,56.8,14.88-64.12,68.65-.25,68.65-.25-17.12-9.05-33.71,3-33.71,3,40.23-.51,23.23,24.76,49.57,45.08s81.42.62,81.42.62c.32-27.57-6.67-43.64-35.26-59.58s-19.35-49.6-19.35-49.6c-18.54,40.63,13.9,63.52,10.87,75.58s-32.58.86-28.22-16.81,9.53-55.3-10.1-63.76-30.85-31-30.85-31c-4.27,18.93,13.05,44.08,13.05,44.08-25.88-.43-29.84-28.57-20.61-69S196,555.56,196,555.56c-3.63,41.77-13.58,32.25-12.28,6.74s19.32-54.67,36.27-28.65-10.84,28.68-10.84,28.68c67.9,14.21,50.15-30.4,45.28-72.47S241,419.54,275.25,392.72s53.65,23.2,21.91,24-34.4,18.35-34.4,18.35c10.46-15.09,45.76,12.69,72.7-3.05s18.11-60.1,75.85-84.64,94.87,37.88,94.87,37.88c-49.1-57.4-97.68-2.94-97.68-2.94,35.11-20.52,71.77,21.59,71.77,21.59-7.12,1.31-18.2,19.84-18.2,19.84s43.51-34.63,139,12.12,47.31,88.46,47.31,88.46-18.63,26.22-30.57-26.82S572.49,453,572.49,453c37.42,21.29,28.33,63.85,39.7,101.67S690,629.26,690,629.26c-49.87-10.73-84.17,35.17-84.17,35.17C664.91,635.13,696.08,684,696.08,684s-11.69-10.26-50.57-8.56-67.8,58.68-77.14,77.94-27.56-6.68-27.56-6.68,2.6,52.81,54.35,1.54,100.09-37.9,100.09-37.9-61.22-2.78-69.47,65.57S562.36,869,562.36,869c18.65.05,79.73-18.77,99.91-66.71s85.36-107.72,93.49-61.21-54.28,25.58-54.28,25.58C742,809.39,772,788.78,786,762.86c4.88-9,6.05-21.15,5.51-33.08,18.55,3.3,44.16,4.23,79.52.13C871,729.91,897.38,652.18,812.28,626.57Z"/><path class="cls-2" d="M831.27,430.67a65,65,0,0,1,.24,8.49c-.26,6.63-1.59,15.8-5.28,20.36s-9.93,4.62-14.56,8.13a8.15,8.15,0,0,1-3.43,1.91c-3.62.48-6.76-5.26-10.41-5.08-2.36.11-4.21,2.81-4.81,5.89a25.94,25.94,0,0,0,.42,9.58c-9.79.43-17.34,4.22-23.69,14.31-3.77,6-6.13,13.47-9.75,19.55-3.34,5.58-8.1,3.51-12.47-1.08-3.53-3.75-6.12-8.87-8.55-14a423.45,423.45,0,0,1-20.25-51.18c-5.16-16-11-33.61-13.83-50.34l-.33-1.87v-.06a112.5,112.5,0,0,1,.34-15.59c0-.32.05-.62.09-1a6.68,6.68,0,0,1,.32-.77,96,96,0,0,1,6.13-12.26,36.36,36.36,0,0,1,7.36-9c.54-.49,1.12-1,1.69-1.39,1.37-1,2.78-1.88,4.19-2.79,3.78-2.34,7.58-5.41,11.53-7.17,6-2.68,16-9.71,22.14-3.55a32,32,0,0,1,5,18l6.31,2.56A48.93,48.93,0,0,1,766.47,348c-1.74-24.64,19.14-4.73,23.92-21.55a18.16,18.16,0,0,0-1.29-12.18c3.16-.39,5.46,4.32,8.3,6.57,4.18,3.32,8.32,12,11.14,17.67,4.39,8.79,7.61,18.54,10.5,28.3,1.34,4.51,2.63,9.07,3.79,13.68a294.19,294.19,0,0,1,5.52,30.09C829.29,417.4,830.67,423.94,831.27,430.67Z"/><path class="cls-2" d="M224.69,445.48a110.9,110.9,0,0,0-3.55-15.15v0c-.09-.31-.18-.6-.28-.91v0l-.18-.36a1.94,1.94,0,0,0-.8-.68c-.25,0-.5,0-.73,0-27.88-1.87-37.07,25.11-39.94,44.08-.06.71-.1,1.41-.14,2.14,0,.48-.07,1-.09,1.53-.28,4.74-.55,9.49-.84,14.23l43.19,12.11.9-3.64a142.43,142.43,0,0,0,3-16.4A128.13,128.13,0,0,0,224.69,445.48Z"/><path class="cls-2" d="M704.79,395.28a110.9,110.9,0,0,1,.34-15.56v0c0-.32.05-.63.09-1v0l.1-.39a1.94,1.94,0,0,1,.64-.83c.24-.07.48-.15.71-.19,26.89-7.6,41.46,16.9,48.19,34.86.2.68.39,1.36.58,2.06.12.47.28,1,.4,1.48,1.25,4.58,2.5,9.17,3.77,13.75l-39.75,20.78-1.64-3.37a142.43,142.43,0,0,1-6.35-15.42A128.14,128.14,0,0,1,704.79,395.28Z"/><path class="cls-2" d="M808.63,401.67c-4-6.6-10.74-11-15.3-17.14A35.8,35.8,0,0,1,789.5,378a23.31,23.31,0,0,0,.68,10.51c-2.74-1.2-7.74-3.51-8-4.46a50.11,50.11,0,0,1,.77,5.51c-1.31-1.48-2.69-2.91-4.08-4.31-3.1-3.19-6.37-6.32-8.56-10.23-.55-.89-.9-1.89-1.42-2.8l-.5,0a28.51,28.51,0,0,1-.55,12.46c-.76,3.31-1.73,6.61-2.47,9.94a48.43,48.43,0,0,1-2.27-5.48c.2.75-1.74,3.74-3.43,6.15a15.12,15.12,0,0,0-3.06-7.61A49.54,49.54,0,0,1,754,401.1c-1.66,5.06-4,10-4.43,15.35a32.49,32.49,0,0,0,.87,10.33,24.44,24.44,0,0,0,7.28,12A24.79,24.79,0,0,0,770,444.27a41.68,41.68,0,0,0,12.45.2q1.18,5,.49,6.73-1.3,3.11-5.7,4.29l-2.52.68.52,1.94,30.46-8.22-.52-1.94-2.57.69a10,10,0,0,1-5.11,0,4.85,4.85,0,0,1-2.81-1.66,19,19,0,0,1-2.12-5.24l1.25-.51c6-2.59,11.6-6.47,15.11-12a24.7,24.7,0,0,0,3.38-17.53A30.21,30.21,0,0,0,808.63,401.67Zm-40.14,25.9a14.29,14.29,0,0,1-7.51-5.83,21.12,21.12,0,0,1-3.31-7.31c-1.17-7.07,3.52-12.32,6.85-15.07a34.12,34.12,0,0,0-.3,4c0,3.62.3,7.36,1.9,10.66a28.46,28.46,0,0,0,12.26,13A15.1,15.1,0,0,1,768.5,427.57Zm32.47-14a10.85,10.85,0,0,1-5,8.18,10.51,10.51,0,0,1-6,1.81,7.25,7.25,0,0,1-5.62-3.19,7.86,7.86,0,0,1-1.59-4.25,7.71,7.71,0,0,1,2.53-6.57c2-1.65,4.75-2,7.27-2.05a40.64,40.64,0,0,0-5.72-13l-.26-.37c4.12,1.39,10.29,4.94,14,14.06l.14.33A15,15,0,0,1,801,413.56Z"/><path class="cls-2" d="M774.88,549c-.28,15.7-4.72,24.25-14.57,28-8.86,3.39-16.46,10.13-19.39,22.62-.33,1.38-.71,3-1.73,3.41a2.74,2.74,0,0,1-2.17-.42c-7.26-3.54-15.74-5.15-21.79.47-6.84,6.35-15,5.22-23.36,8.1q-27.76,9.6-55.95,17.21C596.76,639,556.38,647.76,516.52,653q-21.77,2.87-43.58,5.33c-5.64.64-11-1.22-16.66-.74a828.45,828.45,0,0,1-116,1.71Q311.18,657.7,282,654c-10-1.37-17.57-2.29-27.49-.38-3.25.63-6.95,1.09-9.62-1.84-6.2-6.81-6-3.23-12.87-5-3.13-.79-4.87-5-7.51-5.86-6.74-2.31-9.37,3.6-17.2-1.22a36.83,36.83,0,0,1-8.45-7.37,52.48,52.48,0,0,1-11-22,415.52,415.52,0,0,1-10.33-115.61c.35-6.23,1-12.45,1.38-18.71,0-.48.07-1,.09-1.49,0-.68.06-1.35.12-2,0,0,0-.1,0-.14,1.62-10.73,5.26-24,13.16-33.19l-.17.32c-7.39,14.76.39,36.06,13.88,38.71,5,1,10,1.9,14.95,2.78s10.12,1.75,15.17,2.56q11.69,1.87,23.38,3.4c14.7,1.92,28.72,5.22,43.58,5.5,29.46,1.95,59.34,2.18,88.68,1.35q30.87-.87,61.57-4.05c11.29-1.17,24.14,2.62,34.54-3.82A4.63,4.63,0,0,1,490,485c1.59-.08,3,1.69,4.07,3.34,5.55,8.23,13.48,1.63,14-4.47,14.64-1.54,28.56-4.15,43.16-6.79q14.76-2.69,29.4-5.92c13.16-2.89,27.21-6.33,40.41-10q7.57-2.05,15.07-4.26c3.48-1,23.06-10.1,24.75-4.57.33,1.11.09,2.51.73,3.37a1.93,1.93,0,0,0,1,.65c.83.27,1.85.27,2.24-.7a3.51,3.51,0,0,0-.27-2.48c-2.1-4.79.24-5.25,3.22-6.27,3.82-1.28,7.61-2.58,11.42-3.92q11.13-3.93,22.17-8.17,7.16-2.76,14.32-5.64c4.7-1.89,9.38-3.85,14.05-5.82,12.65-5.39,15.86-27.84,5.57-40.75l-.23-.28c9.63,7.35,15.93,19.59,19.74,29.75,0,0,0,.1,0,.14.2.66.37,1.3.56,2,.12.45.26,1,.38,1.44,1.67,6.06,3.6,12,5.22,18A415.52,415.52,0,0,1,774.88,549Z"/><path class="cls-3" d="M219.1,513.32c-1.29,0-2.69,0-4.08,0-.85,0-1.45-.68-1.83-1.65a6.07,6.07,0,0,1-.46-2.62,3.13,3.13,0,0,1,1.38-2,3.79,3.79,0,0,1,2-1,55,55,0,0,1,6.67.82A114.87,114.87,0,0,0,235.81,508c7.69.27,15.61.21,23.44.13a1.37,1.37,0,0,1,1.5,1.59,2.53,2.53,0,0,1-.35,1.05,9.08,9.08,0,0,1-1.3,1.5,6,6,0,0,1-3.3,1.85c-4.91.51-10.5.16-15.5,0-2.88,13.07-3.14,26.75-4,39.91a10.13,10.13,0,0,0,1.68,6.52,10.61,10.61,0,0,0,2.85,2.31,9.64,9.64,0,0,0,4.63,1.21c1.26,0,2.56-.15,3.61-.17a.91.91,0,0,1,1,.78,8.76,8.76,0,0,1,0,1.53,3.33,3.33,0,0,1-1.12,2.44,12.23,12.23,0,0,1-7.26,2.18,13.23,13.23,0,0,1-5.64-1.69,15.83,15.83,0,0,1-4.37-3.25q-3.77-4.24-3.54-8.49a22.43,22.43,0,0,1,.47-2.91c.24-1.18.44-2.78.77-4.54A138,138,0,0,0,231,533.16q.49-9.56.21-19.16C226.39,513.75,224,513.61,219.1,513.32Z"/><path class="cls-3" d="M286.25,565.44q-.19,5.05-5,5c-1.46,0-2.08-1-2-2.75.45-7.37.84-15.91,1.17-24.69.34-9.13.08-17.41.08-24a4.05,4.05,0,0,0-.63-2.3,8.91,8.91,0,0,0-1.53-1.63c-.58-.5-1.07-1.09-1.48-1.47a2,2,0,0,1-.8-1.45c0-.57.71-1.46,1.83-2.67a5.53,5.53,0,0,1,4.09-2A12.34,12.34,0,0,1,287,509c1.92,1,2.95,1.87,3,2.55a7.9,7.9,0,0,1-.82,2.7,14.09,14.09,0,0,0-1,4.56c-.3,5.23-.29,10.94-.59,16.43,11.5.19,17.25.24,28.75.23.14-3.12.28-6.67.2-10.43-.11-5.36-.46-9.34-.71-11.65,0-.6.48-1.1,1.22-1.54a10.14,10.14,0,0,1,2.43-1.07,17.78,17.78,0,0,1,5.32-1c1.43,0,2.35.75,2.21,1.53a47.49,47.49,0,0,0-2.37,6.77c-1.25,5.35-1.09,11.87-1,17.29,1.23-.15,2.44-.2,3.53-.24s1.85.46,1.86,1.62a7.2,7.2,0,0,1-.62,2.48c-.44,1.12-1.1,1.82-2,1.86-.41,0-1.08-.14-1.76-.2s-1.14.43-1.06,1.28c0,8.61-.06,12.91-.1,21.52a8.85,8.85,0,0,1-.9,3.36c-.64,1.46-1.51,2.26-2.52,2.3a2.9,2.9,0,0,1-2.1-.63,3.31,3.31,0,0,1-.76-2.18c-.44-10.16-.66-15.24-1.09-25.41-4.27,0-9.51.17-15.73.47a91.39,91.39,0,0,0-13.26,1.27,15.55,15.55,0,0,0-.6,4Z"/><path class="cls-3" d="M383,534.49c1.3-.05,2.09.42,2.11,1.19,0,.54-.7,1.43-1.85,2.47a9.4,9.4,0,0,1-3,2.09c-6.48.68-12,1.08-16.45,1.21.21,14,7.1,26.17,22.47,25.49a8.55,8.55,0,0,1,3.35.28c.5.23.79.87.84,1.82,0,.64-.47,1.25-1.48,1.82a14.5,14.5,0,0,1-5.88,1.21c-6.06.29-11.12-.68-14.8-2.5a18.94,18.94,0,0,1-8.21-7.15,29.44,29.44,0,0,1-3.57-9.75,61,61,0,0,1-.88-9.55c-.18-9.93.36-22,6.47-30.34,4.18-5.71,9.54-8.63,15.67-8.84,2.88-.1,5-.08,6,.28a2.77,2.77,0,0,1,1.72,2.67q.1,2.37-1.92,2.45l-6.29.26a12,12,0,0,0-4.85,1.14,11.19,11.19,0,0,0-4.23,4.31q-4,5.68-4.57,21.85a7.39,7.39,0,0,1,4.82-1.85C374.26,534.84,377.18,534.73,383,534.49Z"/><path class="cls-3" d="M443.92,541.91c-.88-10-1.52-20.09-3.44-29.93a2.24,2.24,0,0,0-1.3-2c-1-.45-1.69-1-1.75-1.79a3.85,3.85,0,0,1,1.69-3.09,29.43,29.43,0,0,1,4.14-2.82,27.83,27.83,0,0,1,8.68-3,35.11,35.11,0,0,1,13.23,1.53,8.47,8.47,0,0,1,3,1.58,21.82,21.82,0,0,1,2.74,3A13.61,13.61,0,0,1,474,512c.57,4.95.21,8.56-.81,10.54a43,43,0,0,1-8.78,11.34,5,5,0,0,1-2.57,1.51,10.23,10.23,0,0,1-4.56-1.09c-1.79-.76-2.94-1.38-3-1.82a1.14,1.14,0,0,1,.6-1.07,7.79,7.79,0,0,1,1.9-.8,14.8,14.8,0,0,0,7.75-5.29,11.4,11.4,0,0,0,2.33-8,24.74,24.74,0,0,0-.74-4A19.24,19.24,0,0,0,464.3,509a11.37,11.37,0,0,0-2.89-3.47,6.06,6.06,0,0,0-4.28-1c-3,.26-7.39,1.73-8.19,3.32-1.64,3.26,0,13.08.51,20.19l2.36,28.62q1.08,11.71-5.15,12.21c-1.24.1-2.2-.91-2-1.44a71.07,71.07,0,0,0,.5-9.32Z"/><path class="cls-3" d="M510.84,554.14q.49,5-4.32,5.59c-1.45.17-2.19-.69-2.32-2.46-.54-7.37-1.31-15.88-2.17-24.62-.89-9.09-2.26-17.26-3.14-23.76a4.06,4.06,0,0,0-.93-2.19,8.9,8.9,0,0,0-1.73-1.41c-.64-.42-1.21-.94-1.66-1.26a2,2,0,0,1-1-1.33c-.06-.56.51-1.54,1.45-2.89a5.52,5.52,0,0,1,3.78-2.52,12.31,12.31,0,0,1,5.21.84c2,.71,3.17,1.46,3.28,2.13a7.91,7.91,0,0,1-.45,2.79,14.1,14.1,0,0,0-.39,4.65c.41,5.23,1.19,10.88,1.63,16.36,11.4-1.35,17.1-2.08,28.48-3.64-.28-3.11-.62-6.65-1.2-10.36-.83-5.29-1.71-9.2-2.27-11.45-.08-.6.32-1.15,1-1.69a10.12,10.12,0,0,1,2.27-1.39,17.76,17.76,0,0,1,5.13-1.74c1.42-.17,2.42.43,2.39,1.22a47.51,47.51,0,0,0-1.44,7c-.52,5.47.52,11.91,1.35,17.27,1.2-.31,2.39-.52,3.47-.71s1.89.21,2.06,1.35a7.21,7.21,0,0,1-.28,2.54c-.28,1.17-.85,2-1.69,2.1-.4.07-1.08,0-1.77,0s-1.07.58-.88,1.42l2.79,21.34a8.85,8.85,0,0,1-.44,3.45c-.43,1.53-1.19,2.45-2.19,2.62a2.89,2.89,0,0,1-2.16-.35,3.31,3.31,0,0,1-1-2.06c-1.81-10-2.71-15-4.5-25-4.23.58-9.39,1.45-15.5,2.58a91.12,91.12,0,0,0-13,3,15.57,15.57,0,0,0,0,4.09Z"/><path class="cls-3" d="M578.27,515.81c-1.13-6.86-2.25-12-2.74-14.84-.33-1.95-.77-3.43-1.53-4.17-1.54-1.37-2.32-2.6-2.44-3.59a3.93,3.93,0,0,1,.76-2.11,15.8,15.8,0,0,1,1.83-2.61c1.6-1.95,3-3.09,4.06-3.31a4.83,4.83,0,0,1,2.84.39,2.72,2.72,0,0,1,1.6,1.4,7.5,7.5,0,0,1,0,2.64,18.23,18.23,0,0,0-.08,3.35c1.39,15.53,4.24,31,6.8,46.38.7,4.23,1,7.21.65,8.73a3,3,0,0,1-2.32,2.59,2.28,2.28,0,0,1-2-.54,9.13,9.13,0,0,1-1.84-4C581.27,536.42,579.92,525.85,578.27,515.81Z"/><path class="cls-3" d="M617.63,475.31a14,14,0,0,1,4.42-1.45,22.53,22.53,0,0,1,14.13,1.52c4,1.95,6.46,4.77,7.21,8.24a16,16,0,0,1,.21,6.69,14.34,14.34,0,0,1-2.34,5.26,20,20,0,0,1-3.53,3.76,28.73,28.73,0,0,1-3.86,2.67q-3.77,2.16-3.24,2.37.09.47,1,.62a75,75,0,0,1,7.7,2.69c4,1.56,8.67,3.47,13.92,5.56,11.37,4.47,20.36,7.73,26.87,9.9a19.91,19.91,0,0,0,9.36.43c.71-.13,1.32.37,1.58,1.33a2.85,2.85,0,0,1-.56,1.66c-.42.75-1,1.66-1.67,2.62a24.29,24.29,0,0,1-1.93,2.46,5,5,0,0,1-1.83,1.45c-.52.15-1.71-.21-3.34-.83s-3.85-1.39-6.39-2.39c-5.23-2.19-11.37-4.7-18.09-7.69S644,516.37,637.83,514s-11-3.6-14.54-3.61q.84,6.63,2,13A95.35,95.35,0,0,0,628.1,535a37.29,37.29,0,0,1,1.34,4.74,2,2,0,0,1-.24,1.58,3.18,3.18,0,0,1-2.06.92,16.23,16.23,0,0,1-4.73-.19,12.49,12.49,0,0,1-2.26-.72c-.58-.21-1.07-.45-1.14-.87a7.12,7.12,0,0,1,.59-2.76,16,16,0,0,0,.05-5.91c-1.18-10-3.08-20.18-4.86-30.11-.5-2.77-1.22-6.18-2.11-10.16-.41-1.83-.8-3.5-1.23-4.86s-.89-2-1.3-2.09a3.58,3.58,0,0,1-2.86-2.77,1.83,1.83,0,0,1,.46-1.33,3.11,3.11,0,0,1,1.34-1C612.5,477.8,614.22,477,617.63,475.31Zm4,27c.21.87.7,1.24,1.38,1,.34.08,3.39-2.09,9.1-6.55a8.91,8.91,0,0,0,2.86-5.57,22.11,22.11,0,0,0-.39-7.25,6.61,6.61,0,0,0-.93-2.48,8.46,8.46,0,0,0-1.52-1.49,6.5,6.5,0,0,0-2.83-1.12,8.74,8.74,0,0,0-3.06-.15,18.05,18.05,0,0,0-3.78,1.28,11.47,11.47,0,0,0-1.94,1.19,2,2,0,0,0-.93,1.26C619.94,490.73,620.49,497.52,621.64,502.35Z"/><path class="cls-3" d="M715.7,486.12c1.26-.32,2.14,0,2.31.73.12.53-.4,1.54-1.31,2.8a9.43,9.43,0,0,1-2.56,2.67q-9.33,3-15.9,4.55c3.08,13.73,12.33,24.16,27.25,20.35a8.6,8.6,0,0,1,3.35-.41c.54.12,1,.69,1.19,1.61.16.62-.2,1.32-1.08,2.08a14.57,14.57,0,0,1-5.52,2.39c-5.89,1.52-11,1.62-15,.59a19,19,0,0,1-9.52-5.32,29.4,29.4,0,0,1-5.49-8.81,60.87,60.87,0,0,1-2.81-9.17c-2.2-9.68-4.14-21.6.16-31,2.94-6.45,7.59-10.4,13.57-11.86,2.8-.68,4.89-1.1,6-1a2.77,2.77,0,0,1,2.23,2.26q.58,2.3-1.39,2.8L705,462.91a12,12,0,0,0-4.53,2.11,11.2,11.2,0,0,0-3.27,5.08q-2.75,6.38,0,22.33a7.41,7.41,0,0,1,4.35-2.8C707.2,488.25,710,487.55,715.7,486.12Z"/><path class="cls-3" d="M276,613a21.72,21.72,0,0,0-5.7-15.84c-3.47-3.78-5.68-6.67-6.7-8s-1.54-2.3-1.49-2.76a3.44,3.44,0,0,1,1.64-2.24,7.24,7.24,0,0,1,3.5-1,5.14,5.14,0,0,1,2.3,1.18c1.12.85,3.69,3.45,7.7,7.48,18.5,17.74,38.09,33.89,61.72,44.41a121.29,121.29,0,0,0,.74-14.68c-.17-9.1-.77-17.77-1.07-25.33a13.2,13.2,0,0,0-.49-3.72,7.31,7.31,0,0,0-1.23-2.06,4.19,4.19,0,0,1-1.83-2.9,2.2,2.2,0,0,1,1-1.77,6.2,6.2,0,0,1,2.21-1,18,18,0,0,1,4.86-.87,8,8,0,0,1,2.55.33,1.71,1.71,0,0,1,1.17,1.79c0,.57-.35,3.2-.74,7.67-.87,10-.68,20.32-.51,30.46a73.85,73.85,0,0,0,.88,11.3,40.39,40.39,0,0,1,.75,6.95c0,1.77-1.06,3.23-3,4.3a9.67,9.67,0,0,1-4.53,1.61c-.46,0-.88-.46-1.2-1.1s-.7-1.29-1.15-2.16a17.26,17.26,0,0,0-1.66-2.8,8.42,8.42,0,0,0-2.88-2.14c-12.07-6.55-24.21-13-35.7-20.55a100.32,100.32,0,0,1-14.58-11.21c-.36,3.5-.86,8.68-1.4,15.43s-1.23,13.23-2.66,18.54c-.84,3.15-2.66,5-4.59,4.89a8.33,8.33,0,0,1-2.95-1c-1.2-.6-1.82-1.34-1.79-2.22a10.58,10.58,0,0,1,1.15-3.47c.66-1.44,1.33-3.53,2.16-5.89a60.59,60.59,0,0,0,2.38-9A84.72,84.72,0,0,0,276,613Z"/><path class="cls-3" d="M390.9,627.7A15.71,15.71,0,0,0,384.6,629a9.15,9.15,0,0,0-3.75,3.93c-2.13,3.89-3.2,5.84-5.36,9.73-.2.72-.43,1.39-.55,1.94a1.63,1.63,0,0,1-1.76,1.28,15.36,15.36,0,0,1-5.08-.57c-1.35-.43-2.11-1-2.13-1.65a3.22,3.22,0,0,1,1.17-2.22,26.52,26.52,0,0,0,2.43-2.9,205.36,205.36,0,0,0,13.7-21.58q3.41-6,5.47-10.46c1.37-3,2.1-5,2.09-6.11,0-1.41-1.43-3.35-4.08-5.68-3.82-3.46-5.71-5.2-9.49-8.68a20.32,20.32,0,0,0-2.63-2.19c-.79-.51-1.23-1-1.25-1.5s.26-.77.83-1.2a13.48,13.48,0,0,1,2-1.19,11,11,0,0,1,4.05-1.59,9,9,0,0,1,4,.32c.68.32,1.38,1.49,2,3.27.31.41.82,1.14,1.56,2.12s1.59,2,2.46,2.93c9.55,10,19.11,20.07,29.53,29.22q10.77,9.46,22.79,18.13a10.71,10.71,0,0,0,4.14,1.4,1.74,1.74,0,0,1,1.27.49,2.57,2.57,0,0,1,.45,1.46,2.72,2.72,0,0,1-.47,1.16,9.37,9.37,0,0,1-1.38,1.81,6.45,6.45,0,0,1-3.37,2.33l-3.48.25a1.66,1.66,0,0,1-1.29-.74q-.5-.69-1.05-1.33c-2.73-3-8.21-8-16.33-15Q406,627,390.9,627.7Zm5.5-23.59c-2.72,5.12-4.09,7.68-6.86,12.79q-2.31,4.31-2.18,4.68c-.06.5.61.76,1.87.88a88.54,88.54,0,0,0,9.65-.12c10.82-.53,16.21-1.15,16.18-1.72C407.52,614.05,403.79,610.75,396.4,604.11Z"/><path class="cls-3" d="M452.41,586.65c-1.33.18-2.77.4-4.22.55a2.27,2.27,0,0,1-2.13-1.37,5.88,5.88,0,0,1-.85-2.53,3.1,3.1,0,0,1,1.14-2.15,4,4,0,0,1,1.91-1.31,59.54,59.54,0,0,1,7-.14,124.34,124.34,0,0,0,13.63-.77c8-.84,16.14-2,24.22-3.26a1.4,1.4,0,0,1,1.78,1.36,2.46,2.46,0,0,1-.21,1.09,9.16,9.16,0,0,1-1.13,1.67,6.25,6.25,0,0,1-3.14,2.31c-5,1.22-10.81,1.67-16,2.24-1.11,13.34.56,26.94,1.51,40.09a9.86,9.86,0,0,0,2.66,6.21,11,11,0,0,0,3.27,1.88,10.37,10.37,0,0,0,4.94.53c1.3-.16,2.62-.52,3.7-.69a.94.94,0,0,1,1.13.63,8.44,8.44,0,0,1,.27,1.51,3.27,3.27,0,0,1-.81,2.58,13.05,13.05,0,0,1-7.17,3.2,14.19,14.19,0,0,1-6.05-.87,16.51,16.51,0,0,1-5-2.59q-4.49-3.65-4.86-7.9a21.59,21.59,0,0,1,.07-2.94c.08-1.2.06-2.81.14-4.61a132.6,132.6,0,0,0-.68-16.82q-.85-9.54-2.51-19C460,586,457.47,586.23,452.41,586.65Z"/><path class="cls-3" d="M518.22,601.07c-.84-6.9-1.76-12-2.12-14.95-.25-2-.63-3.46-1.39-4.22-1.54-1.42-2.29-2.69-2.37-3.68a3.88,3.88,0,0,1,.9-2.09,16.1,16.1,0,0,1,2-2.54c1.77-1.89,3.26-3,4.39-3.16a5.19,5.19,0,0,1,2.94.49c.91.44,1.5,1,1.59,1.46a7.22,7.22,0,0,1-.11,2.64,17.57,17.57,0,0,0-.24,3.35c.68,15.58,2.88,31.18,4.79,46.63.52,4.25.66,7.25.25,8.75a3.07,3.07,0,0,1-2.54,2.51,2.42,2.42,0,0,1-2-.61,8.86,8.86,0,0,1-1.72-4.07C520.33,621.8,519.44,611.17,518.22,601.07Z"/><path class="cls-3" d="M552.09,600.64a36.39,36.39,0,0,1,3.62-21.71c3.49-7.19,10.23-11.84,20.09-13.5a20.28,20.28,0,0,1,16.45,4.28c4.94,3.88,8.45,10.87,10.09,20.72,1.55,9.33-.21,17.18-4.78,23.1a27,27,0,0,1-17.76,10.63c-5.94.91-11.72-.67-17.22-4.47S553.45,609.51,552.09,600.64Zm7.75-2.88a14.52,14.52,0,0,0,.55,2.24c.29.92.67,2,1.13,3.17a28.48,28.48,0,0,0,3.87,6.92,21.23,21.23,0,0,0,6.83,5.39,14.86,14.86,0,0,0,9.49,1.41A18.62,18.62,0,0,0,587,615a15.69,15.69,0,0,0,5-4.09,17.26,17.26,0,0,0,3.43-7.31,28.61,28.61,0,0,0-.14-10.72c-1.46-8.61-4.24-14.59-8.13-17.66a15.25,15.25,0,0,0-12.4-3.31,16.25,16.25,0,0,0-12.35,8.82A27.49,27.49,0,0,0,559.85,597.77Z"/><path class="cls-3" d="M630,577.41q-.55-4.06-1.29-8c-.46-2.44-1.27-4.18-2.41-5.12a7.78,7.78,0,0,0-3.74-1.63c-1.26-.2-2.51-.53-3.5-.65a1.9,1.9,0,0,1-1.89-1.55q-.13-.73.93-1.85l3.37-3.81a5.41,5.41,0,0,1,2.38-1.69,2.56,2.56,0,0,1,1.35.13,5.25,5.25,0,0,1,1.71,1.19c16.26,12.52,32.63,25.3,50.34,35.75a126.51,126.51,0,0,0-2.74-20.9,68,68,0,0,0-3.62-12.39,32.17,32.17,0,0,1-2.21-5.07,2.65,2.65,0,0,1,.59-1.92,5,5,0,0,1,1.89-1.28,27.62,27.62,0,0,1,4.67-1.51,2.38,2.38,0,0,1,2.36.41,4.6,4.6,0,0,1,.89,2,18.38,18.38,0,0,1,.21,3.49c0,1.7.17,4.06.28,6.85a160.9,160.9,0,0,0,3.8,25.85c.76,3.52,1.82,7.61,2.87,12.06a3.65,3.65,0,0,1-.46,2.33,13.24,13.24,0,0,1-1.85,2.85c-1.67,2-3,3.21-3.7,3.36-.57.11-1.58-1.19-2.81-3.75a19.36,19.36,0,0,0-2.47-3.82,18.94,18.94,0,0,0-4-3.71c-7.46-5.46-14.6-10.46-21.42-14.94s-11.72-7.8-14.65-9.87c1.6,11.26,3.23,22.58,5.43,33.67.68,3.46,1.37,6.33,1.84,8.37a4.7,4.7,0,0,1,.11,1.77,2.85,2.85,0,0,1-1.55,1.62,30,30,0,0,1-6.55,2.61q-2.23.41-2.52-1.15a2.53,2.53,0,0,1,.48-1.87A11.37,11.37,0,0,0,633,613a18.19,18.19,0,0,0,.87-3.56,19.87,19.87,0,0,0-.23-5.29C632.2,593.42,631.47,588.08,630,577.41Z"/></svg>