<svg id="Layer_1" data-name="Layer 1" xmlns="http://www.w3.org/2000/svg" viewBox="0 0 50 212"><defs><style>.cls-1{fill:#f4e1d4;}.cls-2{fill:none;stroke:#d8b49c;stroke-miterlimit:10;}</style></defs><title>body-back-sides</title><polygon class="cls-1" points="49 0 1 0 1 19.29 7 24.9 1 31.13 1 58.23 5 62.59 1 67.58 1 72.25 7 76.3 1 79.11 1 90.64 7 95.62 1 100.29 1 151.08 8 157 1 159.8 1 212 49 212 49 193.86 44 189.54 49 182.91 49 175.61 45 170.3 49 165.32 49 124.52 45 118.88 49 114.9 49 63.8 43 59.16 49 55.51 49 0"/><polyline class="cls-2" points="49 0 49 55.85 43 59.5 49 64.14 49 115.24 45 119.22 49 124.86 49 165.66 45 170.64 49 175.95 49 183.25 44 189.88 49 194.2 49 212"/><polyline class="cls-2" points="1 212 1 160.14 8 157.34 1 151.42 1 100.63 7 95.96 1 90.97 1 79.45 7 76.64 1 72.59 1 67.92 5 62.93 1 58.57 1 31.47 7 25.24 1 19.63 1 0"/></svg>