<svg xmlns="http://www.w3.org/2000/svg" xmlns:xlink="http://www.w3.org/1999/xlink" viewBox="0 0 1136 936"><defs><linearGradient id="a" x1="-93.03" y1="929.56" x2="34.13" y2="802.39" gradientUnits="userSpaceOnUse"><stop offset="0" stop-color="#c52b7a"/><stop offset="1" stop-color="#c01a6f"/></linearGradient><linearGradient id="b" x1="-29.97" y1="827.74" x2="60.01" y2="737.77" gradientUnits="userSpaceOnUse"><stop offset="0" stop-color="#ba0361"/><stop offset="1" stop-color="#b9005f"/></linearGradient><linearGradient id="c" x1="-38.77" y1="769.94" x2="56.26" y2="674.91" gradientUnits="userSpaceOnUse"><stop offset="0" stop-color="#c01a6f"/><stop offset="1" stop-color="#bc0a65"/></linearGradient><linearGradient id="d" x1="-115.36" y1="713.17" x2="180.91" y2="416.9" gradientUnits="userSpaceOnUse"><stop offset="0" stop-color="#b9005f"/><stop offset="1" stop-color="#c83882"/></linearGradient><linearGradient id="e" x1="-283.23" y1="660.23" x2="126.65" y2="250.35" gradientUnits="userSpaceOnUse"><stop offset="0" stop-color="#b2175f"/><stop offset="1" stop-color="#b82b6d"/></linearGradient><linearGradient id="f" x1="-60.36" y1="956.93" x2="80.62" y2="815.96" gradientUnits="userSpaceOnUse"><stop offset="0" stop-color="#c42677"/><stop offset="1" stop-color="#be126a"/></linearGradient><linearGradient id="g" x1="-12.89" y1="885.65" x2="102.29" y2="770.47" gradientUnits="userSpaceOnUse"><stop offset="0" stop-color="#b9005f"/><stop offset="1" stop-color="#ff67c8"/></linearGradient><linearGradient id="h" x1="-147.5" y1="1132.2" x2="117.98" y2="866.72" gradientUnits="userSpaceOnUse"><stop offset="0" stop-color="#c22174"/><stop offset="1" stop-color="#c7337f"/></linearGradient><linearGradient id="i" x1="20.83" y1="1000.14" x2="188.48" y2="832.49" gradientUnits="userSpaceOnUse"><stop offset="0" stop-color="#aa004f"/><stop offset="1" stop-color="#c83882"/></linearGradient><linearGradient id="j" x1="23.42" y1="938.14" x2="260.21" y2="701.35" gradientUnits="userSpaceOnUse"><stop offset="0" stop-color="#c22174"/><stop offset="1" stop-color="#c11c71"/></linearGradient><linearGradient id="k" x1="300.48" y1="127.37" x2="650.49" y2="-222.65" gradientUnits="userSpaceOnUse"><stop offset="0" stop-color="#c01a6f"/><stop offset="1" stop-color="#c42979"/></linearGradient><linearGradient id="l" x1="1059.1" y1="68.02" x2="1187.98" y2="-60.85" gradientUnits="userSpaceOnUse"><stop offset="0" stop-color="#be126a"/><stop offset="1" stop-color="#ba0361"/></linearGradient><linearGradient id="m" x1="391.65" y1="1184.51" x2="792.88" y2="783.27" gradientUnits="userSpaceOnUse"><stop offset="0" stop-color="#c83681"/><stop offset="1" stop-color="#ff62c6"/></linearGradient><linearGradient id="n" x1="442.44" y1="1301.47" x2="976.47" y2="767.44" gradientUnits="userSpaceOnUse"><stop offset="0" stop-color="#b90076"/><stop offset="1" stop-color="#ff5ac3"/></linearGradient><linearGradient id="o" x1="910.7" y1="1032.92" x2="1108.31" y2="835.31" gradientUnits="userSpaceOnUse"><stop offset="0" stop-color="#ff3fbe"/><stop offset="1" stop-color="#ff3dbe"/></linearGradient><linearGradient id="p" x1="945.05" y1="726.15" x2="1186.58" y2="484.62" gradientUnits="userSpaceOnUse"><stop offset="0" stop-color="#ff4dc3"/><stop offset="1" stop-color="#bd0d7d"/></linearGradient><linearGradient id="q" x1="873.01" y1="910.56" x2="1133.87" y2="649.7" gradientUnits="userSpaceOnUse"><stop offset="0" stop-color="#ff3bbd"/><stop offset="1" stop-color="#ff54c6"/></linearGradient><linearGradient id="r" x1="869.79" y1="908.41" x2="1144.78" y2="633.42" gradientUnits="userSpaceOnUse"><stop offset="0" stop-color="#ff54c6"/><stop offset="1" stop-color="#ba0377"/></linearGradient><linearGradient id="s" x1="839.8" y1="620.78" x2="1099.72" y2="360.87" gradientUnits="userSpaceOnUse"><stop offset="0" stop-color="#ff67c8"/><stop offset="1" stop-color="#ff5fc5"/></linearGradient><linearGradient id="t" x1="900.76" y1="466.59" x2="1189.15" y2="178.2" gradientUnits="userSpaceOnUse"><stop offset="0" stop-color="#bd0d7d"/><stop offset="1" stop-color="#ff69c8"/></linearGradient><linearGradient id="u" x1="882.6" y1="471.39" x2="1182.26" y2="171.72" gradientUnits="userSpaceOnUse"><stop offset="0" stop-color="#bb087a"/><stop offset="1" stop-color="#ff5fc5"/></linearGradient><linearGradient id="v" x1="1000.72" y1="250.13" x2="1194.97" y2="55.87" gradientUnits="userSpaceOnUse"><stop offset="0" stop-color="#ff64c7"/><stop offset="1" stop-color="#ff67c8"/></linearGradient><linearGradient id="w" x1="956.29" y1="141.4" x2="1142.27" y2="-44.58" gradientUnits="userSpaceOnUse"><stop offset="0" stop-color="#ba0562"/><stop offset="1" stop-color="#bc0a65"/></linearGradient><linearGradient id="x" x1="870.53" y1="155.04" x2="1042.99" y2="-17.42" gradientUnits="userSpaceOnUse"><stop offset="0" stop-color="#c11f72"/><stop offset="1" stop-color="#bd0f69"/></linearGradient><linearGradient id="y" x1="840.37" y1="175.02" x2="1004.61" y2="10.77" gradientUnits="userSpaceOnUse"><stop offset="0" stop-color="#ba0361"/><stop offset="1" stop-color="#be126a"/></linearGradient><linearGradient id="z" x1="744.62" y1="70.26" x2="868.32" y2="-53.44" gradientUnits="userSpaceOnUse"><stop offset="0" stop-color="#c01a6f"/><stop offset="1" stop-color="#bf176d"/></linearGradient><linearGradient id="aa" x1="752.69" y1="921.67" x2="951.05" y2="723.31" gradientUnits="userSpaceOnUse"><stop offset="0" stop-color="#ff3dbe"/><stop offset="1" stop-color="#b90076"/></linearGradient><linearGradient id="ab" x1="293.42" y1="947.74" x2="477.15" y2="764.01" gradientUnits="userSpaceOnUse"><stop offset="0" stop-color="#ad0854"/><stop offset="1" stop-color="#c6307d"/></linearGradient><linearGradient id="ac" x1="303.61" y1="937.51" x2="529.57" y2="711.54" gradientUnits="userSpaceOnUse"><stop offset="0" stop-color="#c42979"/><stop offset="1" stop-color="#bd0d67"/></linearGradient><linearGradient id="ad" x1="212.44" y1="953.61" x2="357.84" y2="808.21" gradientUnits="userSpaceOnUse"><stop offset="0" stop-color="#b0125b"/><stop offset="1" stop-color="#c93b84"/></linearGradient><linearGradient id="ae" x1="34.78" y1="943.33" x2="273.5" y2="704.61" gradientUnits="userSpaceOnUse"><stop offset="0" stop-color="#aa004f"/><stop offset="1" stop-color="#bd0d67"/></linearGradient><linearGradient id="af" x1="100.36" y1="831.35" x2="331.44" y2="600.26" gradientUnits="userSpaceOnUse"><stop offset="0" stop-color="#bb0864"/><stop offset="1" stop-color="#ff5dc4"/></linearGradient><linearGradient id="ag" x1="-54.94" y1="670.69" x2="222.21" y2="393.54" gradientUnits="userSpaceOnUse"><stop offset="0" stop-color="#ff66c7"/><stop offset="1" stop-color="#c01a6f"/></linearGradient><linearGradient id="ah" x1="-12.1" y1="628.01" x2="255.56" y2="360.36" gradientUnits="userSpaceOnUse"><stop offset="0" stop-color="#c01a6f"/><stop offset="1" stop-color="#b0125b"/></linearGradient><linearGradient id="ai" x1="543.01" y1="105.3" x2="705.01" y2="-56.7" gradientUnits="userSpaceOnUse"><stop offset="0" stop-color="#bf176d"/><stop offset="1" stop-color="#c01a6f"/></linearGradient><linearGradient id="aj" x1="642.57" y1="67.04" x2="744.57" y2="-34.96" gradientUnits="userSpaceOnUse"><stop offset="0" stop-color="#c01a6f"/><stop offset="1" stop-color="#c01a6f"/></linearGradient><linearGradient id="ak" x1="238.66" y1="407.29" x2="451.31" y2="194.64" gradientUnits="userSpaceOnUse"><stop offset="0" stop-color="#b52166"/><stop offset="1" stop-color="#b8296b"/></linearGradient><linearGradient id="al" x1="491.03" y1="321.31" x2="569.04" y2="243.29" gradientUnits="userSpaceOnUse"><stop offset="0" stop-color="#b1145d"/><stop offset="1" stop-color="#b1145d"/></linearGradient><linearGradient id="am" x1="582.05" y1="1027.11" x2="875.41" y2="733.75" gradientUnits="userSpaceOnUse"><stop offset="0" stop-color="#ff58c7"/><stop offset="1" stop-color="#ba0562"/></linearGradient><linearGradient id="an" x1="585.22" y1="1056.41" x2="920.81" y2="720.82" gradientUnits="userSpaceOnUse"><stop offset="0" stop-color="#ff4bc2"/><stop offset="1" stop-color="#bb087a"/></linearGradient><linearGradient id="ao" x1="480.13" y1="916.83" x2="648.4" y2="748.56" gradientUnits="userSpaceOnUse"><stop offset="0" stop-color="#c11f72"/><stop offset="1" stop-color="#ff61c5"/></linearGradient><linearGradient id="ap" x1="523.9" y1="814.87" x2="880.94" y2="457.83" gradientUnits="userSpaceOnUse"><stop offset="0" stop-color="#ff56c6"/><stop offset="1" stop-color="#ff5cc4"/></linearGradient><linearGradient id="aq" x1="539.37" y1="766.98" x2="745.03" y2="561.33" gradientUnits="userSpaceOnUse"><stop offset="0" stop-color="#bd0f7e"/><stop offset="1" stop-color="#ff5dc4"/></linearGradient><linearGradient id="ar" x1="748.57" y1="661.76" x2="944.5" y2="465.83" gradientUnits="userSpaceOnUse"><stop offset="0" stop-color="#be126a"/><stop offset="1" stop-color="#c42979"/></linearGradient><linearGradient id="as" x1="665.57" y1="744.54" x2="908.78" y2="501.34" gradientUnits="userSpaceOnUse"><stop offset="0" stop-color="#bc0a7b"/><stop offset="1" stop-color="#ba0562"/></linearGradient><linearGradient id="at" x1="529.37" y1="809.43" x2="806.65" y2="532.15" gradientUnits="userSpaceOnUse"><stop offset="0" stop-color="#bd0f7e"/><stop offset="1" stop-color="#be126a"/></linearGradient><linearGradient id="au" x1="625.12" y1="547.5" x2="814.1" y2="358.52" gradientUnits="userSpaceOnUse"><stop offset="0" stop-color="#c52b7a"/><stop offset="1" stop-color="#c83681"/></linearGradient><linearGradient id="av" x1="512.82" y1="493.19" x2="726.04" y2="279.97" gradientUnits="userSpaceOnUse"><stop offset="0" stop-color="#c6307d"/><stop offset="1" stop-color="#ac0553"/></linearGradient><linearGradient id="aw" x1="726.42" y1="467.02" x2="877.18" y2="316.26" gradientUnits="userSpaceOnUse"><stop offset="0" stop-color="#c6307d"/><stop offset="1" stop-color="#c32475"/></linearGradient><linearGradient id="ax" x1="771.64" y1="421.89" x2="1004.58" y2="188.96" gradientUnits="userSpaceOnUse"><stop offset="0" stop-color="#bf146c"/><stop offset="1" stop-color="#be126a"/></linearGradient><linearGradient id="ay" x1="582.74" y1="355.49" x2="788.42" y2="149.8" gradientUnits="userSpaceOnUse"><stop offset="0" stop-color="#ae0d58"/><stop offset="1" stop-color="#c93b84"/></linearGradient><linearGradient id="az" x1="727.24" y1="287.97" x2="959.01" y2="56.2" gradientUnits="userSpaceOnUse"><stop offset="0" stop-color="#ff67c8"/><stop offset="1" stop-color="#bd0f69"/></linearGradient><linearGradient id="ba" x1="591.79" y1="346.53" x2="789.94" y2="148.38" gradientUnits="userSpaceOnUse"><stop offset="0" stop-color="#c62e7c"/><stop offset="1" stop-color="#c42979"/></linearGradient><linearGradient id="bb" x1="692.55" y1="277.89" x2="862.25" y2="108.19" gradientUnits="userSpaceOnUse"><stop offset="0" stop-color="#c11c71"/><stop offset="1" stop-color="#bb0864"/></linearGradient><linearGradient id="bc" x1="567.25" y1="241.86" x2="746.57" y2="62.54" gradientUnits="userSpaceOnUse"><stop offset="0" stop-color="#c6307d"/><stop offset="1" stop-color="#bd0f69"/></linearGradient><linearGradient id="bd" x1="713.64" y1="98.59" x2="812.29" y2="-0.06" gradientUnits="userSpaceOnUse"><stop offset="0" stop-color="#bb0864"/><stop offset="1" stop-color="#bd0d67"/></linearGradient><linearGradient id="be" x1="695.35" y1="102.84" x2="776.99" y2="21.19" gradientUnits="userSpaceOnUse"><stop offset="0" stop-color="#bc0a65"/><stop offset="1" stop-color="#bd0f69"/></linearGradient><linearGradient id="bf" x1="489.74" y1="279.21" x2="571.95" y2="197" gradientUnits="userSpaceOnUse"><stop offset="0" stop-color="#b2175f"/><stop offset="1" stop-color="#ad0854"/></linearGradient><linearGradient id="bg" x1="429.85" y1="219.76" x2="616.89" y2="32.72" gradientUnits="userSpaceOnUse"><stop offset="0" stop-color="#ae0d58"/><stop offset="1" stop-color="#c6307d"/></linearGradient><linearGradient id="bh" x1="539.72" y1="229.25" x2="699.8" y2="69.17" gradientUnits="userSpaceOnUse"><stop offset="0" stop-color="#c93b84"/><stop offset="1" stop-color="#c42979"/></linearGradient><linearGradient id="bi" x1="488.6" y1="159.63" x2="658.18" y2="-9.95" gradientUnits="userSpaceOnUse"><stop offset="0" stop-color="#bf146c"/><stop offset="1" stop-color="#c42677"/></linearGradient><linearGradient id="bj" x1="295.16" y1="605.76" x2="561.83" y2="339.09" gradientUnits="userSpaceOnUse"><stop offset="0" stop-color="#b9005f"/><stop offset="1" stop-color="#c42979"/></linearGradient><linearGradient id="bk" x1="418.77" y1="587.43" x2="831.52" y2="174.69" gradientUnits="userSpaceOnUse"><stop offset="0" stop-color="#c6307d"/><stop offset="1" stop-color="#aa004f"/></linearGradient><linearGradient id="bl" x1="324.78" y1="576.25" x2="599.29" y2="301.74" gradientUnits="userSpaceOnUse"><stop offset="0" stop-color="#b31a61"/><stop offset="1" stop-color="#ad0854"/></linearGradient><linearGradient id="bm" x1="346.95" y1="577.51" x2="649.5" y2="274.96" xlink:href="#bl"/><linearGradient id="bn" x1="217.73" y1="738.9" x2="514.58" y2="442.05" gradientUnits="userSpaceOnUse"><stop offset="0" stop-color="#ba0562"/><stop offset="1" stop-color="#ff69c8"/></linearGradient><linearGradient id="bo" x1="360.47" y1="841.8" x2="637.41" y2="564.86" gradientUnits="userSpaceOnUse"><stop offset="0" stop-color="#ba0361"/><stop offset="1" stop-color="#ff66c7"/></linearGradient><linearGradient id="bp" x1="513.17" y1="695.81" x2="649.95" y2="559.03" gradientUnits="userSpaceOnUse"><stop offset="0" stop-color="#ff5ac3"/><stop offset="1" stop-color="#bb0864"/></linearGradient><linearGradient id="bq" x1="307.95" y1="321.84" x2="510.14" y2="119.65" gradientUnits="userSpaceOnUse"><stop offset="0" stop-color="#b41f64"/><stop offset="1" stop-color="#b31c62"/></linearGradient><linearGradient id="br" x1="349.39" y1="280.51" x2="560.53" y2="69.36" gradientUnits="userSpaceOnUse"><stop offset="0" stop-color="#af0f5a"/><stop offset="1" stop-color="#c83681"/></linearGradient><linearGradient id="bs" x1="100.12" y1="252.06" x2="364.29" y2="-12.12" gradientUnits="userSpaceOnUse"><stop offset="0" stop-color="#ad0a56"/><stop offset="1" stop-color="#ad0854"/></linearGradient><linearGradient id="bt" x1="270.46" y1="148.12" x2="469.48" y2="-50.9" gradientUnits="userSpaceOnUse"><stop offset="0" stop-color="#c01a6f"/><stop offset="1" stop-color="#c6307d"/></linearGradient><linearGradient id="bu" x1="150.72" y1="186.36" x2="338.36" y2="-1.28" gradientUnits="userSpaceOnUse"><stop offset="0" stop-color="#c42677"/><stop offset="1" stop-color="#aa004f"/></linearGradient><linearGradient id="bv" x1="19.52" y1="445.32" x2="315.79" y2="149.04" gradientUnits="userSpaceOnUse"><stop offset="0" stop-color="#ae0d58"/><stop offset="1" stop-color="#ad0854"/></linearGradient><linearGradient id="bw" x1="27.67" y1="437.08" x2="318.55" y2="146.2" gradientUnits="userSpaceOnUse"><stop offset="0" stop-color="#b31c62"/><stop offset="1" stop-color="#b1145d"/></linearGradient><linearGradient id="bx" x1="-51.96" y1="367.66" x2="138.01" y2="177.69" xlink:href="#bs"/><linearGradient id="by" x1="-40.76" y1="211.96" x2="77.1" y2="94.11" gradientUnits="userSpaceOnUse"><stop offset="0" stop-color="#b8296b"/><stop offset="1" stop-color="#b62468"/></linearGradient><linearGradient id="bz" x1="106.98" y1="241.61" x2="334.73" y2="13.85" gradientUnits="userSpaceOnUse"><stop offset="0" stop-color="#aa004f"/><stop offset="1" stop-color="#c83681"/></linearGradient><linearGradient id="ca" x1="-16.66" y1="126.94" x2="115.86" y2="-5.59" gradientUnits="userSpaceOnUse"><stop offset="0" stop-color="#c44f86"/><stop offset="1" stop-color="#b8296b"/></linearGradient><linearGradient id="cb" x1="-24.21" y1="139.94" x2="116.75" y2="-1.01" gradientUnits="userSpaceOnUse"><stop offset="0" stop-color="#bf407b"/><stop offset="1" stop-color="#b31a61"/></linearGradient><linearGradient id="cc" x1="51.53" y1="101.14" x2="169.67" y2="-17" gradientUnits="userSpaceOnUse"><stop offset="0" stop-color="#b31a61"/><stop offset="1" stop-color="#b0125b"/></linearGradient><linearGradient id="cd" x1="-0.35" y1="467.97" x2="1136.35" y2="467.97" xlink:href="#ap"/><radialGradient id="ce" cx="571.63" cy="754.01" r="30.7" gradientUnits="userSpaceOnUse"><stop offset="0" stop-color="#fff"/><stop offset="0" stop-color="#fffdfe"/><stop offset="0.07" stop-color="#ffd6f1"/><stop offset="0.14" stop-color="#ffb4e6"/><stop offset="0.22" stop-color="#ff97dc"/><stop offset="0.31" stop-color="#ff7fd4"/><stop offset="0.4" stop-color="#ff6dce"/><stop offset="0.52" stop-color="#ff60c9"/><stop offset="0.67" stop-color="#ff58c7"/><stop offset="1" stop-color="#ff56c6"/></radialGradient><radialGradient id="cf" cx="977.6" cy="162.81" r="30.7" xlink:href="#ce"/><radialGradient id="cg" cx="727.56" cy="802.8" r="30.7" xlink:href="#ce"/><radialGradient id="ch" cx="483.32" cy="274.62" r="30.7" xlink:href="#ce"/><radialGradient id="ci" cx="899.88" cy="415.81" r="30.7" xlink:href="#ce"/><radialGradient id="cj" cx="90.59" cy="129.78" r="30.7" xlink:href="#ce"/><radialGradient id="ck" cx="255.01" cy="565.31" r="30.7" xlink:href="#ce"/><radialGradient id="cl" cx="609.54" cy="532.96" r="12.33" xlink:href="#ce"/><radialGradient id="cm" cx="512.36" cy="30.93" r="12.33" xlink:href="#ce"/><radialGradient id="cn" cx="309.47" cy="224.38" r="12.33" xlink:href="#ce"/><radialGradient id="co" cx="297.17" cy="782.87" r="12.33" xlink:href="#ce"/><radialGradient id="cp" cx="52.8" cy="735.63" r="12.33" xlink:href="#ce"/><radialGradient id="cq" cx="758.85" cy="320.66" r="12.33" xlink:href="#ce"/><radialGradient id="cr" cx="747.34" cy="113.81" r="12.33" xlink:href="#ce"/><radialGradient id="cs" cx="1082.88" cy="565.18" r="5.89" xlink:href="#ce"/><radialGradient id="ct" cx="1008.29" cy="160.5" r="5.89" xlink:href="#ce"/><radialGradient id="cu" cx="1008.29" cy="117.27" r="5.89" xlink:href="#ce"/><radialGradient id="cv" cx="885.26" cy="193.52" r="5.89" xlink:href="#ce"/><radialGradient id="cw" cx="874" cy="377" r="5.89" xlink:href="#ce"/><radialGradient id="cx" cx="605.47" cy="709.94" r="5.89" xlink:href="#ce"/><radialGradient id="cy" cx="806.49" cy="767.45" r="5.89" xlink:href="#ce"/><radialGradient id="cz" cx="435.21" cy="289.2" r="5.89" xlink:href="#ce"/><radialGradient id="da" cx="276.55" cy="526.42" r="5.89" xlink:href="#ce"/><radialGradient id="db" cx="199.17" cy="590.23" r="5.89" xlink:href="#ce"/><radialGradient id="dc" cx="74.29" cy="794.57" r="5.89" xlink:href="#ce"/><radialGradient id="dd" cx="285.7" cy="833.51" r="5.89" xlink:href="#ce"/><radialGradient id="de" cx="48.59" cy="101.48" r="5.89" xlink:href="#ce"/><radialGradient id="df" cx="101.29" cy="199.32" r="5.89" xlink:href="#ce"/><radialGradient id="dg" cx="193.19" cy="99.07" r="5.89" xlink:href="#ce"/><radialGradient id="dh" cx="276.55" cy="249.71" r="5.89" xlink:href="#ce"/><radialGradient id="di" cx="544.73" cy="43.27" r="5.89" xlink:href="#ce"/><radialGradient id="dj" cx="534.83" cy="545.29" r="5.89" xlink:href="#ce"/><radialGradient id="dk" cx="609.27" cy="365.4" r="5.89" xlink:href="#ce"/><radialGradient id="dl" cx="80.27" cy="391.61" r="5.89" xlink:href="#ce"/><radialGradient id="dm" cx="59.91" cy="551.09" r="5.89" xlink:href="#ce"/><radialGradient id="dn" cx="990.19" cy="827.71" r="5.89" xlink:href="#ce"/><radialGradient id="do" cx="1002.31" cy="311.97" r="5.89" xlink:href="#ce"/></defs><title>pink-back</title><polygon points="-0.1 36.91 -0.1 -0.1 5.99 -0.1 0.1 36.93 -0.1 36.91" fill="none"/><polygon points="-0.1 856.77 -0.1 816.26 6.98 825.43 0.1 856.8 -0.1 856.77" fill="url(#a)"/><polygon points="-0.08 816.62 -0.1 763.05 53.27 730.98 6.92 825.68 -0.08 816.62" fill="url(#b)"/><polygon points="-0.1 677.99 53.2 731.26 -0.1 763.23 -0.1 677.99" fill="url(#c)"/><polygon points="-0.07 678.3 -0.1 471.25 11.2 399.73 11.39 399.73 53.17 731.52 -0.07 678.3" fill="url(#d)"/><polygon points="-0.1 471.25 -0.1 282.74 0.1 282.73 11.4 399.74 0.1 471.26 -0.1 471.25" fill="url(#e)"/><polygon points="-0.1 936.1 -0.1 856.77 6.86 825.24 57.56 903.51 23.19 936.1 -0.1 936.1" fill="url(#f)"/><polygon points="6.82 825.55 52.94 731.2 53.13 731.24 57.54 903.84 6.82 825.55" fill="url(#g)"/><polygon points="22.9 936.1 57.45 903.33 74.29 936.1 22.9 936.1" fill="url(#h)"/><polygon points="74.06 936.1 57.22 903.31 145.35 935.91 145.32 936.1 74.06 936.1" fill="url(#i)"/><polygon points="145.32 936.1 57.33 903.56 52.93 730.93 203.16 936.1 145.32 936.1" fill="url(#j)"/><polygon points="294.66 0.1 294.67 -0.1 561.22 -0.1 516.56 26.1 294.66 0.1" fill="url(#k)"/><polygon points="1106.97 0.1 1107 -0.1 1136.1 -0.1 1136.1 11.24 1106.97 0.1" fill="url(#l)"/><polygon points="401.17 936.1 401.15 935.9 483.56 919.64 892.17 922.89 892.17 923.09 637.2 936.1 401.17 936.1" fill="url(#m)"/><polygon points="637.2 936.1 637.19 935.9 892.16 922.89 978.64 935.9 978.62 936.1 637.2 936.1" fill="url(#n)"/><polygon points="978.62 936.1 892.15 923.09 892.15 922.89 1136.1 879.34 1136.1 936.1 978.62 936.1" fill="url(#o)"/><polygon points="1136.1 474.72 1136.1 654.67 885.26 666.36 1136.1 474.72" fill="url(#p)"/><polygon points="885.47 666.03 1136.06 868.54 1136.1 879.54 892.07 923.11 885.47 666.03" fill="url(#q)"/><polygon points="885.31 666.16 1136.1 654.47 1136.1 868.83 885.31 666.16" fill="url(#r)"/><polygon points="894.27 415.88 1136.1 458.33 1136.1 474.92 885.47 666.45 894.27 415.88" fill="url(#s)"/><polygon points="894.23 416.07 977.81 162.26 1136.09 431.55 1136.1 458.53 894.23 416.07" fill="url(#t)"/><polygon points="977.61 162.3 1136.1 225.21 1136.1 431.96 977.61 162.3" fill="url(#u)"/><polygon points="977.64 162.53 1136.1 36.73 1136.1 225.43 977.64 162.53" fill="url(#v)"/><polygon points="1022.44 -0.1 1107 -0.1 1136.1 11.03 1136.1 36.94 977.66 162.77 1022.44 -0.1" fill="url(#w)"/><polygon points="910.57 -0.1 1022.65 -0.1 977.86 162.81 910.57 -0.1" fill="url(#x)"/><polygon points="821.71 68.27 891.92 -0.07 910.78 -0.1 978.05 162.74 821.71 68.27" fill="url(#y)"/><polygon points="737.72 -0.1 892.24 -0.1 821.88 68.38 737.72 -0.1" fill="url(#z)"/><polygon points="727.25 806 885.67 666.03 892.27 923.19 727.25 806" fill="url(#aa)"/><polygon points="316.88 936.1 298.94 779.77 483.82 919.8 401.18 936.1 316.88 936.1" fill="url(#ab)"/><polygon points="298.8 779.92 571.63 753.88 483.62 919.89 298.8 779.92" fill="url(#ac)"/><polygon points="236.02 936.1 298.97 779.96 299.16 779.98 317.08 936.1 236.02 936.1" fill="url(#ad)"/><polygon points="202.96 936.1 52.8 731.1 299.2 779.92 236.23 936.1 202.96 936.1" fill="url(#ae)"/><polygon points="52.81 731.3 255.19 565.31 299.19 780.12 52.81 731.3" fill="url(#af)"/><polygon points="11.17 399.54 255.3 565.49 52.96 731.43 11.17 399.54" fill="url(#ag)"/><polygon points="11.24 399.83 11.31 399.65 270.62 438.66 255.21 565.67 11.24 399.83" fill="url(#ah)"/><polygon points="516.26 26.05 560.8 -0.09 665.33 -0.1 692.44 61.89 516.26 26.05" fill="url(#ai)"/><polygon points="665.11 -0.1 732.1 -0.1 692.25 61.96 665.11 -0.1" fill="url(#aj)"/><polygon points="307.77 227.38 483.81 272.95 270.36 438.99 307.77 227.38" fill="url(#ak)"/><polygon points="483.36 272.99 562.78 237.09 556.16 312.16 483.36 272.99" fill="url(#al)"/><polygon points="483.24 919.84 652.68 815.66 892.21 922.9 892.17 923.09 483.24 919.84" fill="url(#am)"/><polygon points="652.37 815.69 727.4 805.89 892.23 922.91 892.13 923.08 652.37 815.69" fill="url(#an)"/><polygon points="571.42 753.84 652.91 815.75 483.32 920.02 571.42 753.84" fill="url(#ao)"/><polygon points="610.89 533.01 611.08 532.96 727.56 806.08 652.64 815.86 610.89 533.01" fill="url(#ap)"/><polygon points="571.34 754.04 610.89 532.98 611.09 532.98 652.86 815.97 571.34 754.04" fill="url(#aq)"/><polygon points="771.21 497.22 894.47 415.81 885.67 666.55 771.21 497.22" fill="url(#ar)"/><polygon points="771.29 496.98 885.71 666.26 727.28 806.25 771.29 496.98" fill="url(#as)"/><polygon points="610.85 532.92 771.47 497.12 727.47 806.36 610.85 532.92" fill="url(#at)"/><polygon points="758.25 318.21 771.46 497.32 610.77 533.15 758.25 318.21" fill="url(#au)"/><polygon points="555.95 311.89 758.36 318.4 610.95 533.24 555.95 311.89" fill="url(#av)"/><polygon points="758.05 318.29 894.54 416 771.26 497.42 758.05 318.29" fill="url(#aw)"/><polygon points="758 318.5 978.03 162.24 894.42 416.16 758 318.5" fill="url(#ax)"/><polygon points="555.97 312.1 562.58 237.1 758.21 318.41 758.17 318.6 555.97 312.1" fill="url(#ay)"/><polygon points="821.81 68.09 978.02 162.49 758.01 318.74 821.81 68.09" fill="url(#az)"/><polygon points="562.45 237.27 747.28 116.82 758.28 318.65 562.45 237.27" fill="url(#ba)"/><polygon points="758.07 318.5 747.09 117 822.03 68.03 758.27 318.52 758.07 318.5" fill="url(#bb)"/><polygon points="562.58 237.19 692.26 61.6 747.34 117.02 562.72 237.33 562.58 237.19" fill="url(#bc)"/><polygon points="734.25 -0.1 738 -0.1 822.04 68.26 747.1 117.17 734.25 -0.1" fill="url(#bd)"/><polygon points="692.14 61.77 731.84 -0.05 734.45 -0.1 747.32 117.27 692.14 61.77" fill="url(#be)"/><polygon points="483.5 272.94 549.53 188.28 562.78 237.31 483.63 273.09 483.5 272.94" fill="url(#bf)"/><polygon points="516.43 25.99 516.63 25.98 549.58 188.48 483.44 273.35 516.43 25.99" fill="url(#bg)"/><polygon points="549.37 188.47 692.2 61.68 692.35 61.81 562.62 237.47 549.37 188.47" fill="url(#bh)"/><polygon points="516.41 25.87 692.49 61.69 549.42 188.69 516.41 25.87" fill="url(#bi)"/><polygon points="270.42 438.63 582.46 510.15 582.45 510.35 255.01 565.62 270.42 438.63" fill="url(#bj)"/><polygon points="582.37 510.32 555.98 312.01 556.17 311.97 611.16 533.26 582.37 510.32" fill="url(#bk)"/><polygon points="270.28 438.8 483.63 272.84 582.6 510.39 270.28 438.8" fill="url(#bl)"/><polygon points="483.38 272.78 556.12 311.91 582.53 510.23 582.34 510.28 483.38 272.78" fill="url(#bm)"/><polygon points="255.01 565.41 582.74 510.09 299 780.19 255.01 565.41" fill="url(#bn)"/><polygon points="582.55 510 571.55 754.09 298.78 780.12 582.55 510" fill="url(#bo)"/><polygon points="571.35 753.99 582.35 510.05 611.1 532.95 571.55 754.01 571.35 753.99" fill="url(#bp)"/><polygon points="307.72 227.57 327.57 175.35 483.64 272.91 483.56 273.1 307.72 227.57" fill="url(#bq)"/><polygon points="327.45 175.51 516.67 25.77 483.66 273.17 327.45 175.51" fill="url(#br)"/><polygon points="168.85 -0.1 170.87 -0.1 327.74 175.48 307.87 227.72 168.85 -0.1" fill="url(#bs)"/><polygon points="294.55 -0.11 516.78 25.93 327.55 175.68 294.55 -0.11" fill="url(#bt)"/><polygon points="170.65 -0.1 294.75 -0.1 327.78 175.83 170.65 -0.1" fill="url(#bu)"/><polygon points="11.17 399.83 90.35 129.75 270.7 438.88 11.17 399.83" fill="url(#bv)"/><polygon points="90.13 129.78 307.96 227.44 270.56 439.03 90.13 129.78" fill="url(#bw)"/><polygon points="11.2 399.76 -0.1 282.75 -0.1 235.73 90.3 129.94 90.47 130.03 11.39 399.77 11.2 399.76" fill="url(#bx)"/><polygon points="-0.1 106.62 90.56 129.94 -0.1 236 -0.1 106.62" fill="url(#by)"/><polygon points="90.24 130.05 161.45 -0.1 169.03 -0.1 308.1 227.72 90.24 130.05" fill="url(#bz)"/><polygon points="-0.1 106.82 -0.1 -0.1 10.88 -0.1 90.59 130.16 -0.1 106.82" fill="url(#ca)"/><polygon points="10.7 -0.1 84.98 -0.1 90.49 130.38 10.7 -0.1" fill="url(#cb)"/><polygon points="84.78 -0.1 161.68 -0.1 90.29 130.36 84.78 -0.1" fill="url(#cc)"/><path d="M1136.35,879.75V879h0l0-9.72,0,0V458.12h0V-0.35H1106.8v0L1023-.35H910.19l-17.37,0,0,0H734l-1.43,0,0,0H294.69L294.24-.4v0.05H-0.35v237h0v45.83h0v189h0l0,205.93,0,0v86.29h0l0,51.88,0,0V936.35H145.52v0l57.31,0h933.51v-56.6h0ZM821.31,69L758.4,316.2,747.59,117.9l0.06,0.06-0.09-.78,0.09-.06ZM308.12,228l0.62,0.28-0.14-.23,174.21,45.1L271,437.91ZM885,666.24l-0.54.41h0.13L727.9,805.1l43.67-306.91L884.94,665.92h-0.3ZM571.88,753.6L611,535.17l41.3,279.78-80.36-61,0.17-.31ZM555.71,312.2v0.14h0.07l26,195.42-97.49-234Zm27.1,197.63,0-.44-0.13.13L557.16,317.83,610.4,532.08,583,510.22l0.54-.51Zm-27-198.39L484.37,273l77.89-35.21Zm55.37,220.72L556.53,312.36l201,6.46Zm0.33,1.09L770.93,497.7l-43.69,307Zm0.31-.79L757.89,319.52,771,497Zm-55.33-220.8,6.52-73.9,193.3,80.33Zm-73-38,98.36,236.07L271.3,438.57,483.12,273.8l-0.06.43ZM270.81,439.17l309.83,71L255.53,565.07Zm339.71,93.89-0.32.46,0.35-.08L572,748.72l10.71-237.77ZM726.91,805.71L653,815.35,611.73,535.63ZM562.25,237.05l-77.52,35,64.59-82.87Zm196.33,82.16L893.75,416,771.66,496.63ZM549.88,188.62L690,64.23,562.81,236.46Zm-0.78-.19-65,83.34,32.5-243.65,32.5,160.26h0v0ZM270.1,439l-0.1.54,0.05,0L254.85,564.88,12.76,400.32Zm311.27,71.74L299.28,779.3,255.54,565.78ZM727,806.4l-0.07.48,0.35-.31,0.3,0.71,0.1-.67L889.07,921.22,653.92,815.94ZM757.78,318L563.41,237.18,746.87,117.62l10.91,200.17h0V318ZM483.31,272.41L328.23,175.47,516.07,26.81ZM582,511.1L571.12,753.67,300,779.55Zm69.79,304.41-0.38,0,0.53,0.24-167.49,103,87.07-164.25ZM728,806L885.25,667l6.55,255.3Zm43.88-308.64L894,416.66l-8.73,248.49ZM758.77,318.5l218.4-155.1-83,252Zm0-.84L822.1,68.79,977.2,162.52ZM564.1,235.9L692.19,62.45l0,0,0.12-.18,54.31,54.63Zm-14.39-48.06L517,26.45,691.51,62Zm-222-11.67,0.45,0.51-0.08-.45,153.36,95.87L308.32,227.26Zm-20.29,51.59-37.12,210-179.1-307L307.4,227.68l0,0.06ZM269.84,438.29L11.75,399.46,90.48,130.88ZM254.54,565.52L53.3,730.57,11.74,400.47Zm0.36,0.61,43.71,213.41L53.83,731ZM570.84,754.4L483.47,919.21,300,780.26Zm81.87,61.76,0.49,0.37,0-.22L890.5,922.63l-405.71-3.22ZM515.65,26.25L327.86,174.87,295.1,0.4ZM52.72,732.68L57,902.26,7.3,825.47Zm833.8-66.13,249.33-11.62V868ZM821.85,67.78L738.71,0.15H891.34ZM692.33,61L665.71,0.15h65.7ZM517,25.34l0-.15-0.55.44-0.36-.07v0L299,0.15H559.9ZM52.47,731.17L0.15,762.61V678.87Zm1083.38,148L892.51,922.58,885.95,667l249.87,201.92ZM886.68,665.84l249.17-190.41v178.8Zm-0.73-.32,8.75-249.11,241.15,42.33V474.6ZM1135.85,458l-241-42.31,83.05-252.22,0,0.07,0.05-.19L1135.84,432v26Zm0-27.38L978.66,163.2l157.19,62.39V430.65ZM978.53,162.4L1135.85,37.46V224.84ZM1135.85,10.67L1108.36,0.15h27.49V10.67Zm0,0.75v25.2L978.46,161.56,1022.84,0.15h83.87l0,0.1Zm-158.08,150L911.16,0.15h111Zm-0.67.23L822.44,68.19l69.87-68,18.09,0ZM737.63,0.15l83.65,68.07-73.78,48.21v-0.06l0,0L734.73,0.15h2.9ZM746.73,116l-54-54.28,0.25-.22-0.19,0L732.21,0.19l1.81,0ZM664.95,0.15l26.73,61.12L517.5,25.84,561.26,0.17H664.95ZM327,174.33L171.43,0.15H294.34ZM170.54,0.15l156.58,175.3-0.1.08,0.18,0.11-19.41,51.06L169.48,0.15h1.06Zm-1.82,0L307,226.72l-216-96.85L91,129.8l-0.11,0L161.83,0.15h6.89Zm-78,128.58L85.24,0.15H161ZM84.54,0.15L90,128.67,11.32,0.15H84.54Zm-84.39,0H5.69L0.15,35V0.15Zm0.16,37,5.89-37h4.36L89.63,129.45l-89.48-23V37.18H0.31ZM0.15,107.15l89.6,23.05L0.15,235V107.15Zm0,128.94L89.58,131.47,11.47,397.91,0.32,282.47H0.15V236.09Zm0,51.85L10.88,399l0,0,0.09,0.7-0.09.31h0l-10.75,68V287.94Zm0,183.58H0.31l10.95-69.3,41.3,328L0.18,677.91Zm0,291.85L52.2,732.15,6.89,824.83l-0.15-.23,0,0.09L0.17,816.2Zm0,54,6.38,8.26L0.15,854.51V817.32Zm0,118.53v-78.8l0.15,0L7,826.35,57,903.44,22.8,935.85H0.15Zm57.18-31.78,16.33,31.78H23.82Zm17.11,31.78L58.15,904.13l85.77,31.72H74.44Zm-16.67-32.6L53.41,732.35l149.06,203.5H145.61l0-.11Zm145.52,32.6L53.85,731.76l244.49,48.44-0.24.23,0.44,0L235.85,935.85H203.29ZM298.87,781.4L316.6,935.85h-80ZM317.3,935.85L299.5,780.77,482.75,919.55,400.88,935.7v0.15H317.3Zm86.43,0,79.19-15.62-0.26.49,0.89-.55,0.14,0.1,0.09-.17,396.5,3.15-243.12,12.4h-0.24v0.19H403.74Zm243.27,0,244.82-12.49v0l0.26,0,0,0,0.41,0.29V923.4l82.77,12.45H647Zm331.89,0v-0.16L894.3,923l241.55-43.13v56h-157Z" fill="url(#cd)"/><path d="M602.06,758.9c-10.2-1.64-16.92-2.8-20.58-4.57,3.77-1.52,10.55-2.24,20.84-3.21-11.07,1-18.09,1.61-21.93.53,2.77-2.86,9.13-5.91,19.22-10.58-8.51,3.94-14.43,6.6-18.46,7.49,2.8-3,8.1-6.78,15.8-12.14-8.7,6-14.42,9.91-18.29,11.08,1.45-3.77,5.74-9.18,12.43-17.4-6.52,8-10.89,13.25-14.25,15.54,0.57-4,3.33-10.26,7.64-19.65-4.63,10.1-7.66,16.47-10.51,19.25-1.09-3.83-.55-10.86.45-21.93-0.85,9.34-1.5,15.8-2.74,19.73-1.22-3.94-1.83-10.4-2.61-19.75,0.88,10.56,1.37,17.44.45,21.38-2.54-3.14-5.08-9.56-8.85-19.46,3.68,9.65,6,16.05,6.33,20.11-3.2-2.5-7.22-8-13.2-16.44,6.43,9.06,10.44,14.87,11.42,18.73-3.87-1-9.68-5-18.77-11.35,7.67,5.4,12.93,9.2,15.72,12.24-4-.92-9.92-3.62-18.41-7.62,9.58,4.51,15.79,7.53,18.74,10.3-4,.63-10.82-0.38-21.28-2.07,10.2,1.64,16.92,2.8,20.58,4.57-3.77,1.52-10.55,2.24-20.84,3.21,11.07-1,18.09-1.61,21.93-.53-2.77,2.86-9.13,5.91-19.22,10.58,8.52-3.94,14.43-6.6,18.46-7.49-2.81,3-8.1,6.78-15.8,12.14,8.7-6,14.42-9.91,18.29-11.07-1.45,3.77-5.74,9.18-12.43,17.4,6.52-8,10.89-13.25,14.25-15.54-0.57,4-3.33,10.26-7.64,19.65,4.63-10.1,7.66-16.47,10.51-19.25,1.1,3.83.55,10.86-.45,21.93,0.85-9.34,1.5-15.8,2.74-19.73,1.22,3.94,1.83,10.4,2.61,19.75-0.88-10.56-1.37-17.44-.45-21.38,2.54,3.14,5.08,9.56,8.85,19.46-3.68-9.65-6-16.05-6.33-20.11,3.2,2.5,7.22,8,13.2,16.44-6.44-9.06-10.44-14.87-11.42-18.73,3.87,1,9.68,5,18.77,11.35-7.67-5.4-12.93-9.2-15.72-12.24,4,0.92,9.92,3.62,18.41,7.62-9.58-4.51-15.79-7.53-18.73-10.3C584.77,756.21,591.6,757.22,602.06,758.9Z" fill="url(#ce)"/><path d="M1008,167.7c-10.2-1.64-16.92-2.8-20.58-4.57,3.77-1.52,10.55-2.24,20.84-3.21-11.07,1-18.09,1.61-21.93.53,2.77-2.86,9.13-5.91,19.22-10.58-8.51,3.94-14.43,6.6-18.46,7.49,2.8-3,8.1-6.78,15.8-12.14-8.7,6-14.42,9.91-18.29,11.08,1.45-3.77,5.74-9.18,12.43-17.4-6.52,8-10.89,13.25-14.25,15.54,0.57-4,3.33-10.26,7.64-19.65-4.63,10.1-7.66,16.47-10.51,19.25-1.09-3.83-.55-10.86.45-21.93-0.85,9.34-1.5,15.8-2.74,19.73-1.22-3.94-1.83-10.4-2.61-19.75,0.88,10.56,1.37,17.44.45,21.38-2.54-3.14-5.08-9.56-8.85-19.46,3.68,9.65,6,16.05,6.33,20.11-3.2-2.5-7.22-8-13.2-16.44,6.43,9.06,10.44,14.87,11.42,18.73-3.87-1-9.68-5-18.77-11.35,7.67,5.4,12.93,9.2,15.72,12.24-4-.92-9.92-3.62-18.41-7.62,9.58,4.51,15.79,7.53,18.74,10.3-4,.63-10.82-0.38-21.28-2.07,10.2,1.64,16.92,2.8,20.58,4.57-3.77,1.52-10.55,2.24-20.84,3.21,11.07-1,18.09-1.61,21.93-.53-2.77,2.86-9.13,5.91-19.22,10.58,8.52-3.94,14.43-6.6,18.46-7.49-2.81,3-8.1,6.78-15.8,12.14,8.7-6,14.42-9.91,18.29-11.07-1.45,3.77-5.74,9.18-12.43,17.4,6.52-8,10.89-13.25,14.25-15.54-0.57,4-3.33,10.26-7.64,19.65,4.63-10.1,7.66-16.47,10.51-19.25,1.1,3.83.55,10.86-.45,21.93,0.85-9.34,1.5-15.8,2.74-19.73,1.22,3.94,1.83,10.4,2.61,19.75-0.88-10.56-1.37-17.44-.45-21.38,2.54,3.14,5.08,9.56,8.85,19.46-3.68-9.65-6-16.05-6.33-20.11,3.2,2.5,7.22,8,13.2,16.44C989,178.88,985,173.07,984,169.21c3.87,1,9.68,5,18.77,11.35-7.67-5.4-12.93-9.2-15.72-12.24,4,0.92,9.92,3.62,18.41,7.62-9.59-4.51-15.79-7.53-18.73-10.3C990.75,165,997.57,166,1008,167.7Z" fill="url(#cf)"/><path d="M758,807.69c-10.2-1.64-16.92-2.8-20.58-4.57,3.77-1.52,10.55-2.24,20.84-3.21-11.07,1-18.09,1.61-21.93.53,2.77-2.86,9.13-5.91,19.22-10.58-8.51,3.94-14.43,6.6-18.46,7.49,2.8-3,8.1-6.78,15.8-12.14-8.7,6-14.42,9.91-18.29,11.08,1.45-3.77,5.74-9.18,12.43-17.4-6.52,8-10.89,13.25-14.25,15.54,0.57-4,3.33-10.26,7.64-19.65-4.63,10.1-7.66,16.47-10.51,19.25-1.09-3.83-.55-10.86.45-21.93-0.85,9.34-1.5,15.8-2.74,19.73-1.22-3.94-1.83-10.4-2.61-19.75,0.88,10.56,1.37,17.44.45,21.38-2.54-3.14-5.08-9.56-8.85-19.46,3.68,9.65,6,16.05,6.33,20.11-3.2-2.5-7.22-8-13.2-16.44,6.43,9.06,10.44,14.87,11.42,18.73-3.87-1-9.68-5-18.77-11.35,7.67,5.4,12.93,9.2,15.72,12.24-4-.92-9.92-3.62-18.41-7.62,9.58,4.51,15.79,7.53,18.74,10.3-4,.63-10.82-0.38-21.28-2.07,10.2,1.64,16.92,2.8,20.58,4.57-3.77,1.52-10.55,2.24-20.84,3.21,11.07-1,18.09-1.61,21.93-.53-2.77,2.86-9.13,5.91-19.22,10.58,8.52-3.94,14.43-6.6,18.46-7.49-2.81,3-8.1,6.78-15.8,12.14,8.7-6,14.42-9.91,18.29-11.07-1.45,3.77-5.74,9.18-12.43,17.4,6.52-8,10.89-13.25,14.25-15.54-0.57,4-3.33,10.26-7.64,19.65,4.63-10.1,7.66-16.47,10.51-19.25,1.1,3.83.55,10.86-.45,21.93,0.85-9.34,1.5-15.8,2.74-19.73,1.22,3.94,1.83,10.4,2.61,19.75-0.88-10.56-1.37-17.44-.45-21.38,2.54,3.14,5.08,9.56,8.85,19.46-3.68-9.65-6-16.05-6.33-20.11,3.2,2.5,7.22,8,13.2,16.44C739,818.87,735,813.06,734,809.2c3.87,1,9.68,5,18.77,11.35-7.67-5.4-12.93-9.2-15.72-12.24,4,0.92,9.92,3.62,18.41,7.62-9.58-4.51-15.79-7.53-18.73-10.3C740.7,805,747.53,806,758,807.69Z" fill="url(#cg)"/><path d="M513.75,279.52c-10.2-1.64-16.92-2.8-20.58-4.57,3.77-1.52,10.55-2.24,20.84-3.21-11.07,1-18.09,1.61-21.93.53,2.77-2.86,9.13-5.91,19.22-10.58-8.51,3.94-14.43,6.6-18.46,7.49,2.8-3,8.1-6.78,15.8-12.14-8.7,6-14.42,9.91-18.29,11.08,1.45-3.77,5.74-9.18,12.43-17.4-6.52,8-10.89,13.25-14.25,15.54,0.57-4,3.33-10.26,7.64-19.65-4.63,10.1-7.66,16.47-10.51,19.25-1.09-3.83-.55-10.86.45-21.93-0.85,9.34-1.5,15.8-2.74,19.73-1.22-3.94-1.83-10.4-2.61-19.75,0.88,10.56,1.37,17.44.45,21.38-2.54-3.14-5.08-9.56-8.85-19.46,3.68,9.65,6,16.05,6.33,20.11-3.2-2.5-7.22-8-13.2-16.44,6.43,9.06,10.44,14.87,11.42,18.73-3.87-1-9.68-5-18.77-11.35,7.67,5.4,12.93,9.2,15.72,12.24-4-.92-9.92-3.62-18.41-7.62,9.58,4.51,15.79,7.53,18.74,10.3-4,.63-10.82-0.38-21.28-2.07,10.2,1.64,16.92,2.8,20.58,4.57-3.77,1.52-10.55,2.24-20.84,3.21,11.07-1,18.09-1.61,21.93-.53-2.77,2.86-9.13,5.91-19.22,10.58,8.52-3.94,14.43-6.6,18.46-7.49-2.81,3-8.1,6.78-15.8,12.14,8.7-6,14.42-9.91,18.29-11.07-1.45,3.77-5.74,9.18-12.43,17.4,6.52-8,10.89-13.25,14.25-15.54-0.57,4-3.33,10.26-7.64,19.65,4.63-10.1,7.66-16.47,10.51-19.25,1.1,3.83.55,10.86-.45,21.93,0.85-9.34,1.5-15.8,2.74-19.73,1.22,3.94,1.83,10.4,2.61,19.75-0.88-10.56-1.37-17.44-.45-21.38,2.54,3.14,5.08,9.56,8.85,19.46-3.68-9.65-6-16.05-6.33-20.11,3.2,2.5,7.22,8,13.2,16.44-6.44-9.06-10.44-14.87-11.42-18.73,3.87,1,9.68,5,18.77,11.35-7.67-5.4-12.93-9.2-15.72-12.24,4,0.92,9.92,3.62,18.41,7.62-9.59-4.51-15.79-7.53-18.73-10.3C496.46,276.82,503.29,277.83,513.75,279.52Z" fill="url(#ch)"/><path d="M930.31,420.7c-10.2-1.64-16.92-2.8-20.58-4.57,3.77-1.52,10.55-2.24,20.84-3.21-11.07,1-18.09,1.61-21.93.53,2.77-2.86,9.13-5.91,19.22-10.58-8.51,3.94-14.43,6.6-18.46,7.49,2.8-3,8.1-6.78,15.8-12.14-8.7,6-14.42,9.91-18.29,11.08,1.45-3.77,5.74-9.18,12.43-17.4-6.52,8-10.89,13.25-14.25,15.54,0.57-4,3.33-10.26,7.64-19.65-4.63,10.1-7.66,16.47-10.51,19.25-1.09-3.83-.55-10.86.45-21.93-0.85,9.34-1.5,15.8-2.74,19.73-1.22-3.94-1.83-10.4-2.61-19.75,0.88,10.56,1.37,17.44.45,21.38-2.54-3.14-5.08-9.56-8.85-19.46,3.68,9.65,6,16.05,6.33,20.11-3.2-2.5-7.22-8-13.2-16.44,6.43,9.06,10.44,14.87,11.42,18.73-3.87-1-9.68-5-18.77-11.35,7.67,5.4,12.93,9.2,15.72,12.24-4-.92-9.92-3.62-18.41-7.62,9.58,4.51,15.79,7.53,18.74,10.3-4,.63-10.82-0.38-21.28-2.07,10.2,1.64,16.92,2.8,20.58,4.57-3.77,1.52-10.55,2.24-20.84,3.21,11.07-1,18.09-1.61,21.93-.53-2.77,2.86-9.13,5.91-19.22,10.58,8.52-3.94,14.43-6.6,18.46-7.49-2.81,3-8.1,6.78-15.8,12.14,8.7-6,14.42-9.91,18.29-11.07-1.45,3.77-5.74,9.18-12.43,17.4,6.52-8,10.89-13.25,14.25-15.54-0.57,4-3.33,10.26-7.64,19.65,4.63-10.1,7.66-16.47,10.51-19.25,1.1,3.83.55,10.86-.45,21.93,0.85-9.34,1.5-15.8,2.74-19.73,1.22,3.94,1.83,10.4,2.61,19.75-0.88-10.56-1.37-17.44-.45-21.38,2.54,3.14,5.08,9.56,8.85,19.46-3.68-9.65-6-16.05-6.33-20.11,3.2,2.5,7.22,8,13.2,16.44-6.44-9.06-10.44-14.87-11.42-18.73,3.87,1,9.68,5,18.77,11.35-7.67-5.4-12.93-9.2-15.72-12.24,4,0.92,9.92,3.62,18.41,7.62-9.58-4.51-15.79-7.53-18.73-10.3C913,418,919.85,419,930.31,420.7Z" fill="url(#ci)"/><path d="M121,134.67c-10.2-1.64-16.92-2.8-20.58-4.57,3.77-1.52,10.55-2.24,20.84-3.21-11.07,1-18.09,1.61-21.93.53,2.77-2.86,9.13-5.91,19.22-10.58-8.51,3.94-14.43,6.6-18.46,7.49,2.8-3,8.1-6.78,15.8-12.14-8.7,6-14.42,9.91-18.29,11.08,1.45-3.77,5.74-9.18,12.43-17.4-6.52,8-10.89,13.25-14.25,15.54,0.57-4,3.33-10.26,7.64-19.65-4.63,10.1-7.66,16.47-10.51,19.25-1.09-3.83-.55-10.86.45-21.93-0.85,9.34-1.5,15.8-2.74,19.73-1.22-3.94-1.83-10.4-2.61-19.75,0.88,10.56,1.37,17.44.45,21.38-2.54-3.14-5.08-9.56-8.85-19.46,3.68,9.65,6,16.05,6.33,20.11-3.2-2.5-7.22-8-13.2-16.44,6.43,9.06,10.44,14.87,11.42,18.73-3.87-1-9.68-5-18.77-11.35,7.67,5.4,12.93,9.2,15.72,12.24-4-.92-9.92-3.62-18.41-7.62,9.59,4.51,15.79,7.53,18.74,10.3-4,.63-10.82-0.38-21.28-2.07,10.2,1.64,16.92,2.8,20.58,4.57C77,131,70.19,131.7,59.91,132.67c11.07-1,18.09-1.61,21.93-.53-2.77,2.86-9.13,5.91-19.22,10.58,8.52-3.94,14.43-6.6,18.46-7.49-2.81,3-8.1,6.78-15.8,12.14,8.7-6,14.42-9.91,18.29-11.07-1.45,3.77-5.74,9.18-12.43,17.4,6.52-8,10.89-13.25,14.25-15.54-0.57,4-3.34,10.26-7.64,19.65,4.63-10.1,7.66-16.47,10.51-19.25,1.1,3.83.55,10.86-.45,21.93,0.85-9.34,1.5-15.8,2.74-19.73,1.22,3.94,1.83,10.4,2.61,19.75-0.88-10.56-1.37-17.44-.45-21.38,2.54,3.14,5.08,9.56,8.85,19.46-3.68-9.65-6-16.05-6.33-20.11,3.2,2.5,7.22,8,13.2,16.44C102,145.85,98,140,97,136.18c3.87,1,9.68,5,18.77,11.35-7.67-5.4-12.93-9.2-15.72-12.24,4,0.92,9.92,3.62,18.41,7.62-9.58-4.51-15.79-7.53-18.73-10.3C103.73,132,110.56,133,121,134.67Z" fill="url(#cj)"/><path d="M285.44,570.21c-10.2-1.64-16.92-2.8-20.58-4.57,3.77-1.52,10.55-2.24,20.84-3.21-11.07,1-18.09,1.61-21.93.53,2.77-2.86,9.13-5.91,19.22-10.58-8.51,3.94-14.43,6.6-18.46,7.49,2.8-3,8.1-6.78,15.8-12.14-8.7,6-14.42,9.91-18.29,11.08,1.45-3.77,5.74-9.18,12.43-17.4-6.52,8-10.89,13.25-14.25,15.54,0.57-4,3.33-10.26,7.64-19.65-4.63,10.1-7.66,16.47-10.51,19.25-1.09-3.83-.55-10.86.45-21.93-0.85,9.34-1.5,15.8-2.74,19.73-1.22-3.94-1.83-10.4-2.61-19.75,0.88,10.56,1.37,17.44.45,21.38-2.54-3.14-5.08-9.56-8.85-19.46,3.68,9.65,6,16.05,6.33,20.11-3.2-2.5-7.22-8-13.2-16.44,6.43,9.06,10.44,14.87,11.42,18.73-3.87-1-9.68-5-18.77-11.35,7.67,5.4,12.93,9.2,15.72,12.24-4-.92-9.92-3.62-18.41-7.62,9.58,4.51,15.79,7.53,18.74,10.3-4,.63-10.82-0.38-21.28-2.07,10.2,1.64,16.92,2.8,20.58,4.57-3.77,1.52-10.55,2.24-20.84,3.21,11.07-1,18.09-1.61,21.93-.53-2.77,2.86-9.13,5.91-19.22,10.58,8.52-3.94,14.43-6.6,18.46-7.49-2.81,3-8.1,6.78-15.8,12.14,8.7-6,14.42-9.91,18.29-11.07-1.45,3.77-5.74,9.18-12.43,17.4,6.52-8,10.89-13.25,14.25-15.54-0.57,4-3.33,10.26-7.64,19.65,4.63-10.1,7.66-16.47,10.51-19.25,1.1,3.83.55,10.86-.45,21.93,0.85-9.34,1.5-15.8,2.74-19.73,1.22,3.94,1.83,10.4,2.61,19.75-0.88-10.56-1.37-17.44-.45-21.38,2.54,3.14,5.08,9.56,8.85,19.46-3.68-9.65-6-16.05-6.33-20.11,3.2,2.5,7.22,8,13.2,16.44-6.44-9.06-10.44-14.87-11.42-18.73,3.87,1,9.68,5,18.77,11.35-7.67-5.4-12.93-9.2-15.72-12.24,4,0.92,9.92,3.62,18.41,7.62-9.58-4.51-15.79-7.53-18.73-10.3C268.15,567.51,275,568.52,285.44,570.21Z" fill="url(#ck)"/><path d="M621.76,534.92c-4.09-.66-6.79-1.12-8.26-1.83,1.51-.61,4.24-0.9,8.37-1.29-4.44.42-7.27,0.65-8.81,0.21,1.11-1.15,3.67-2.37,7.72-4.25a44.91,44.91,0,0,1-7.41,3,44.88,44.88,0,0,1,6.35-4.87c-3.49,2.43-5.79,4-7.34,4.45,0.58-1.51,2.31-3.69,5-7-2.62,3.22-4.37,5.32-5.72,6.24,0.23-1.62,1.34-4.12,3.07-7.89-1.86,4.06-3.07,6.62-4.22,7.73-0.44-1.54-.22-4.36.18-8.81a44.75,44.75,0,0,1-1.1,7.92,45,45,0,0,1-1-7.93c0.35,4.24.55,7,.18,8.58-1-1.26-2-3.84-3.55-7.81,1.48,3.88,2.42,6.45,2.54,8.07-1.29-1-2.9-3.22-5.3-6.6,2.58,3.64,4.19,6,4.58,7.52-1.55-.39-3.89-2-7.54-4.56a44.84,44.84,0,0,1,6.31,4.92,44.92,44.92,0,0,1-7.39-3.06c3.85,1.81,6.34,3,7.52,4.14-1.6.25-4.34-.15-8.54-0.83,4.09,0.66,6.79,1.13,8.26,1.84-1.51.61-4.24,0.9-8.37,1.29,4.44-.42,7.26-0.65,8.81-0.21-1.11,1.15-3.67,2.37-7.72,4.25a44.86,44.86,0,0,1,7.41-3,44.88,44.88,0,0,1-6.35,4.87c3.49-2.43,5.79-4,7.34-4.45-0.58,1.51-2.31,3.69-5,7,2.62-3.22,4.37-5.32,5.72-6.24-0.23,1.62-1.34,4.12-3.07,7.89,1.86-4.06,3.07-6.62,4.22-7.73,0.44,1.54.22,4.36-.18,8.81a44.86,44.86,0,0,1,1.1-7.92,44.86,44.86,0,0,1,1,7.93c-0.36-4.24-.55-7-0.18-8.58,1,1.26,2,3.84,3.55,7.81-1.48-3.87-2.42-6.45-2.54-8.07,1.29,1,2.9,3.22,5.3,6.6-2.58-3.64-4.19-6-4.59-7.52,1.55,0.39,3.89,2,7.54,4.56a44.84,44.84,0,0,1-6.31-4.92,45,45,0,0,1,7.39,3.06c-3.85-1.81-6.34-3-7.52-4.14C614.82,533.84,617.56,534.24,621.76,534.92Z" fill="url(#cl)"/><path d="M524.58,32.9c-4.09-.66-6.79-1.13-8.26-1.84,1.51-.61,4.24-0.9,8.37-1.29-4.44.42-7.27,0.65-8.81,0.21,1.11-1.15,3.67-2.37,7.72-4.25a44.91,44.91,0,0,1-7.41,3,44.9,44.9,0,0,1,6.35-4.87c-3.49,2.43-5.79,4-7.34,4.45,0.58-1.51,2.31-3.69,5-7-2.62,3.22-4.37,5.32-5.72,6.24,0.23-1.62,1.34-4.12,3.07-7.89-1.86,4.06-3.07,6.62-4.22,7.73-0.44-1.54-.22-4.36.18-8.81a44.76,44.76,0,0,1-1.1,7.92,45,45,0,0,1-1-7.93c0.35,4.24.55,7,.18,8.58-1-1.26-2-3.84-3.55-7.81,1.48,3.88,2.42,6.45,2.54,8.07-1.29-1-2.9-3.22-5.3-6.6,2.58,3.64,4.19,6,4.58,7.52-1.55-.39-3.89-2-7.54-4.56a44.83,44.83,0,0,1,6.31,4.92,44.93,44.93,0,0,1-7.39-3.06c3.85,1.81,6.34,3,7.52,4.14-1.6.25-4.34-.15-8.54-0.83,4.09,0.66,6.79,1.13,8.26,1.84-1.51.61-4.24,0.9-8.37,1.29,4.44-.42,7.26-0.65,8.81-0.21-1.11,1.15-3.67,2.37-7.72,4.25a44.89,44.89,0,0,1,7.41-3A44.87,44.87,0,0,1,502.2,38c3.49-2.43,5.79-4,7.34-4.45-0.58,1.51-2.31,3.69-5,7,2.62-3.22,4.37-5.32,5.72-6.24-0.23,1.62-1.34,4.12-3.07,7.89,1.86-4.06,3.07-6.62,4.22-7.73,0.44,1.54.22,4.36-.18,8.81a44.87,44.87,0,0,1,1.1-7.92,44.86,44.86,0,0,1,1,7.93c-0.36-4.24-.55-7-0.18-8.58,1,1.26,2,3.84,3.55,7.81-1.48-3.87-2.42-6.45-2.54-8.07,1.29,1,2.9,3.22,5.3,6.6-2.58-3.64-4.19-6-4.59-7.52,1.55,0.39,3.89,2,7.54,4.56a44.82,44.82,0,0,1-6.31-4.92,45,45,0,0,1,7.39,3.06c-3.85-1.81-6.34-3-7.52-4.14C517.64,31.82,520.38,32.22,524.58,32.9Z" fill="url(#cm)"/><path d="M321.69,226.34c-4.09-.66-6.79-1.12-8.26-1.83,1.51-.61,4.24-0.9,8.37-1.29-4.44.42-7.27,0.65-8.81,0.21,1.11-1.15,3.67-2.37,7.72-4.25a44.91,44.91,0,0,1-7.41,3,44.91,44.91,0,0,1,6.35-4.87c-3.49,2.43-5.79,4-7.34,4.45,0.58-1.51,2.31-3.69,5-7-2.62,3.22-4.37,5.32-5.72,6.24,0.23-1.62,1.34-4.12,3.07-7.89-1.86,4.06-3.07,6.62-4.22,7.73-0.44-1.54-.22-4.36.18-8.81a44.75,44.75,0,0,1-1.1,7.92,45,45,0,0,1-1-7.93c0.35,4.24.55,7,.18,8.58-1-1.26-2-3.84-3.55-7.81,1.48,3.88,2.42,6.45,2.54,8.07-1.29-1-2.9-3.22-5.3-6.6,2.58,3.64,4.19,6,4.58,7.52-1.55-.39-3.89-2-7.54-4.56a44.84,44.84,0,0,1,6.31,4.92,44.91,44.91,0,0,1-7.39-3.06c3.85,1.81,6.34,3,7.52,4.14-1.6.25-4.34-.15-8.54-0.83,4.09,0.66,6.79,1.13,8.26,1.83-1.51.61-4.24,0.9-8.37,1.29,4.44-.42,7.26-0.65,8.81-0.21-1.11,1.15-3.67,2.37-7.72,4.25a44.88,44.88,0,0,1,7.41-3,44.86,44.86,0,0,1-6.35,4.87c3.49-2.43,5.79-4,7.34-4.45-0.58,1.51-2.31,3.69-5,7,2.62-3.22,4.37-5.32,5.72-6.24-0.23,1.62-1.34,4.12-3.07,7.89,1.86-4.06,3.07-6.62,4.22-7.73,0.44,1.54.22,4.36-.18,8.81a44.86,44.86,0,0,1,1.1-7.92,44.86,44.86,0,0,1,1,7.93c-0.36-4.24-.55-7-0.18-8.58,1,1.26,2,3.84,3.55,7.81-1.48-3.87-2.42-6.45-2.54-8.07,1.29,1,2.9,3.22,5.3,6.6-2.58-3.64-4.19-6-4.59-7.52,1.55,0.39,3.89,2,7.54,4.56a44.82,44.82,0,0,1-6.31-4.92,45,45,0,0,1,7.39,3.06c-3.85-1.81-6.34-3-7.52-4.14C314.75,225.26,317.49,225.67,321.69,226.34Z" fill="url(#cn)"/><path d="M309.39,784.84c-4.09-.66-6.79-1.12-8.26-1.84,1.51-.61,4.24-0.9,8.37-1.29-4.44.42-7.27,0.65-8.81,0.21,1.11-1.15,3.67-2.37,7.72-4.25a44.9,44.9,0,0,1-7.41,3,44.9,44.9,0,0,1,6.35-4.87c-3.49,2.43-5.79,4-7.34,4.45,0.58-1.51,2.31-3.69,5-7-2.62,3.22-4.37,5.32-5.72,6.24,0.23-1.62,1.34-4.12,3.07-7.89-1.86,4.06-3.07,6.62-4.22,7.73-0.44-1.54-.22-4.36.18-8.81a44.76,44.76,0,0,1-1.1,7.92,45,45,0,0,1-1-7.93c0.35,4.24.55,7,.18,8.58-1-1.26-2-3.84-3.55-7.81,1.48,3.88,2.42,6.45,2.54,8.07-1.29-1-2.9-3.22-5.3-6.6,2.58,3.64,4.19,6,4.58,7.52-1.55-.39-3.89-2-7.54-4.56a44.84,44.84,0,0,1,6.31,4.92A44.92,44.92,0,0,1,286,777.6c3.85,1.81,6.34,3,7.52,4.14-1.6.25-4.34-.15-8.54-0.83,4.09,0.66,6.79,1.13,8.26,1.83-1.51.61-4.24,0.9-8.37,1.29,4.44-.42,7.26-0.65,8.81-0.21-1.11,1.15-3.67,2.37-7.72,4.25a44.88,44.88,0,0,1,7.41-3,44.86,44.86,0,0,1-6.35,4.87c3.49-2.43,5.79-4,7.34-4.45-0.58,1.51-2.31,3.69-5,7,2.62-3.22,4.37-5.32,5.72-6.24-0.23,1.62-1.34,4.12-3.07,7.89,1.86-4.06,3.07-6.62,4.22-7.73,0.44,1.54.22,4.36-.18,8.81a44.86,44.86,0,0,1,1.1-7.92,44.86,44.86,0,0,1,1,7.93c-0.36-4.24-.55-7-0.18-8.58,1,1.26,2,3.84,3.55,7.81-1.48-3.87-2.42-6.45-2.54-8.07,1.29,1,2.9,3.22,5.3,6.6-2.58-3.64-4.19-6-4.59-7.52,1.55,0.39,3.89,2,7.54,4.56a44.82,44.82,0,0,1-6.31-4.92,45,45,0,0,1,7.39,3.06c-3.85-1.81-6.34-3-7.52-4.14C302.44,783.75,305.19,784.16,309.39,784.84Z" fill="url(#co)"/><path d="M65,737.6c-4.09-.66-6.79-1.12-8.26-1.83,1.51-.61,4.24-0.9,8.37-1.29-4.44.42-7.27,0.65-8.81,0.21,1.11-1.15,3.67-2.37,7.72-4.25a44.92,44.92,0,0,1-7.41,3A44.9,44.9,0,0,1,63,728.57c-3.49,2.43-5.79,4-7.34,4.45,0.58-1.51,2.31-3.69,5-7-2.62,3.22-4.37,5.32-5.72,6.24,0.23-1.62,1.34-4.12,3.07-7.89-1.86,4.06-3.07,6.62-4.22,7.73-0.44-1.54-.22-4.36.18-8.81a44.76,44.76,0,0,1-1.1,7.92,45,45,0,0,1-1-7.93c0.35,4.24.55,7,.18,8.58-1-1.26-2-3.84-3.55-7.81,1.48,3.88,2.42,6.45,2.54,8.07-1.29-1-2.9-3.22-5.3-6.6,2.58,3.64,4.19,6,4.59,7.52-1.55-.39-3.89-2-7.54-4.56A44.83,44.83,0,0,1,49,733.42a44.92,44.92,0,0,1-7.39-3.06c3.85,1.81,6.34,3,7.52,4.14-1.6.25-4.34-.15-8.55-0.83,4.09,0.66,6.79,1.13,8.26,1.83-1.51.61-4.24,0.9-8.37,1.29,4.44-.42,7.26-0.65,8.81-0.21-1.11,1.15-3.67,2.37-7.72,4.25a44.87,44.87,0,0,1,7.41-3,44.86,44.86,0,0,1-6.35,4.87c3.49-2.43,5.79-4,7.34-4.45-0.58,1.51-2.31,3.69-5,7,2.62-3.22,4.37-5.32,5.72-6.24-0.23,1.62-1.34,4.12-3.07,7.89,1.86-4.06,3.07-6.62,4.22-7.73,0.44,1.54.22,4.36-.18,8.81a44.86,44.86,0,0,1,1.1-7.92,44.86,44.86,0,0,1,1,7.93c-0.36-4.24-.55-7-0.18-8.58,1,1.26,2,3.84,3.55,7.81-1.48-3.87-2.42-6.45-2.54-8.07,1.29,1,2.9,3.22,5.3,6.6-2.58-3.64-4.19-6-4.59-7.52,1.55,0.39,3.89,2,7.54,4.56a44.82,44.82,0,0,1-6.31-4.92A45,45,0,0,1,64,740.9c-3.85-1.81-6.34-3-7.52-4.14C58.08,736.51,60.82,736.92,65,737.6Z" fill="url(#cp)"/><path d="M771.07,322.62c-4.09-.66-6.79-1.12-8.26-1.83,1.51-.61,4.24-0.9,8.37-1.29-4.44.42-7.27,0.65-8.81,0.21,1.11-1.15,3.67-2.37,7.72-4.25a44.9,44.9,0,0,1-7.41,3A44.9,44.9,0,0,1,769,313.6c-3.49,2.43-5.79,4-7.34,4.45,0.58-1.51,2.31-3.69,5-7-2.62,3.22-4.37,5.32-5.72,6.24,0.23-1.62,1.34-4.12,3.07-7.89-1.86,4.06-3.07,6.62-4.22,7.73-0.44-1.54-.22-4.36.18-8.81a44.75,44.75,0,0,1-1.1,7.92,45,45,0,0,1-1-7.93c0.35,4.24.55,7,.18,8.58-1-1.26-2-3.84-3.55-7.81,1.48,3.88,2.42,6.45,2.54,8.07-1.29-1-2.9-3.22-5.3-6.6,2.58,3.64,4.19,6,4.58,7.52-1.55-.39-3.89-2-7.54-4.56a44.84,44.84,0,0,1,6.31,4.92,44.92,44.92,0,0,1-7.39-3.06c3.85,1.81,6.34,3,7.52,4.14-1.6.25-4.34-.15-8.54-0.83,4.09,0.66,6.79,1.13,8.26,1.84-1.51.61-4.24,0.9-8.37,1.29,4.44-.42,7.26-0.65,8.81-0.21-1.11,1.15-3.67,2.37-7.72,4.25a44.89,44.89,0,0,1,7.41-3,44.87,44.87,0,0,1-6.35,4.87c3.49-2.43,5.79-4,7.34-4.45-0.58,1.51-2.31,3.69-5,7,2.62-3.22,4.37-5.32,5.72-6.24-0.23,1.62-1.34,4.12-3.07,7.89,1.86-4.06,3.07-6.62,4.22-7.73,0.44,1.54.22,4.36-.18,8.81a44.87,44.87,0,0,1,1.1-7.92,44.86,44.86,0,0,1,1,7.93c-0.36-4.24-.55-7-0.18-8.58,1,1.26,2,3.84,3.55,7.81-1.48-3.87-2.42-6.45-2.54-8.07,1.29,1,2.9,3.22,5.3,6.6-2.58-3.64-4.19-6-4.59-7.52,1.55,0.39,3.89,2,7.54,4.56a44.82,44.82,0,0,1-6.31-4.92,45,45,0,0,1,7.39,3.06c-3.85-1.81-6.34-3-7.52-4.14C764.13,321.54,766.87,321.95,771.07,322.62Z" fill="url(#cq)"/><path d="M759.56,115.78c-4.09-.66-6.79-1.12-8.26-1.83,1.51-.61,4.24-0.9,8.37-1.29-4.44.42-7.27,0.65-8.81,0.21,1.11-1.15,3.67-2.37,7.72-4.25a44.9,44.9,0,0,1-7.41,3,44.9,44.9,0,0,1,6.35-4.87c-3.49,2.43-5.79,4-7.34,4.45,0.58-1.51,2.31-3.69,5-7-2.62,3.22-4.37,5.32-5.72,6.24,0.23-1.62,1.34-4.12,3.07-7.89-1.86,4.06-3.07,6.62-4.22,7.73-0.44-1.54-.22-4.36.18-8.81a44.76,44.76,0,0,1-1.1,7.92,45,45,0,0,1-1-7.93c0.35,4.24.55,7,.18,8.58-1-1.26-2-3.84-3.55-7.81,1.48,3.88,2.42,6.45,2.54,8.07-1.29-1-2.9-3.22-5.3-6.6,2.58,3.64,4.19,6,4.58,7.52-1.55-.39-3.89-2-7.54-4.56a44.84,44.84,0,0,1,6.31,4.92,44.92,44.92,0,0,1-7.39-3.06c3.85,1.81,6.34,3,7.52,4.14-1.6.25-4.34-.15-8.54-0.83,4.09,0.66,6.79,1.13,8.26,1.83-1.51.61-4.24,0.9-8.37,1.29,4.44-.42,7.26-0.65,8.81-0.21-1.11,1.15-3.67,2.37-7.72,4.25a44.88,44.88,0,0,1,7.41-3,44.88,44.88,0,0,1-6.35,4.87c3.49-2.43,5.79-4,7.34-4.45-0.58,1.51-2.31,3.69-5,7,2.62-3.22,4.37-5.32,5.72-6.24-0.23,1.62-1.34,4.12-3.07,7.89,1.86-4.06,3.07-6.62,4.22-7.73,0.44,1.54.22,4.36-.18,8.81a44.87,44.87,0,0,1,1.1-7.92,44.86,44.86,0,0,1,1,7.93c-0.36-4.24-.55-7-0.18-8.58,1,1.26,2,3.84,3.55,7.81-1.48-3.87-2.42-6.45-2.54-8.07,1.29,1,2.9,3.22,5.3,6.6-2.58-3.64-4.19-6-4.59-7.52,1.55,0.39,3.89,2,7.54,4.56a44.82,44.82,0,0,1-6.31-4.92,45,45,0,0,1,7.39,3.06c-3.85-1.81-6.34-3-7.52-4.14C752.62,114.7,755.36,115.1,759.56,115.78Z" fill="url(#cr)"/><polygon points="1087 570.54 1083.19 568.82 1079.6 570.98 1080.07 566.82 1076.9 564.08 1081 563.23 1082.63 559.38 1084.7 563.02 1088.87 563.37 1086.05 566.47 1087 570.54" fill="url(#cs)"/><polygon points="1012.4 165.86 1008.59 164.13 1005.01 166.29 1005.47 162.13 1002.31 159.4 1006.4 158.55 1008.03 154.69 1010.1 158.33 1014.27 158.69 1011.45 161.78 1012.4 165.86" fill="url(#ct)"/><polygon points="1012.4 122.63 1008.59 120.91 1005.01 123.07 1005.47 118.91 1002.31 116.17 1006.4 115.33 1008.03 111.47 1010.1 115.11 1014.27 115.47 1011.45 118.56 1012.4 122.63" fill="url(#cu)"/><polygon points="889.38 198.88 885.56 197.16 881.98 199.32 882.44 195.16 879.28 192.42 883.38 191.58 885 187.72 887.08 191.36 891.25 191.71 888.43 194.81 889.38 198.88" fill="url(#cv)"/><polygon points="878.11 382.36 874.3 380.64 870.72 382.8 871.18 378.64 868.01 375.9 872.11 375.06 873.74 371.2 875.81 374.84 879.98 375.19 877.16 378.29 878.11 382.36" fill="url(#cw)"/><polygon points="609.58 715.31 605.77 713.58 602.19 715.75 602.65 711.59 599.49 708.85 603.58 708 605.21 704.14 607.28 707.78 611.45 708.14 608.63 711.23 609.58 715.31" fill="url(#cx)"/><polygon points="810.61 772.81 806.8 771.08 803.21 773.25 803.68 769.09 800.51 766.35 804.61 765.5 806.24 761.65 808.31 765.28 812.48 765.64 809.66 768.73 810.61 772.81" fill="url(#cy)"/><polygon points="439.33 294.56 435.51 292.84 431.93 295 432.39 290.84 429.23 288.1 433.33 287.25 434.95 283.4 437.03 287.04 441.2 287.39 438.38 290.49 439.33 294.56" fill="url(#cz)"/><polygon points="280.66 531.78 276.85 530.06 273.27 532.22 273.73 528.06 270.56 525.32 274.66 524.48 276.29 520.62 278.36 524.26 282.53 524.61 279.71 527.71 280.66 531.78" fill="url(#da)"/><polygon points="203.28 595.59 199.47 593.86 195.89 596.03 196.35 591.87 193.19 589.13 197.28 588.28 198.91 584.43 200.98 588.06 205.15 588.42 202.33 591.51 203.28 595.59" fill="url(#db)"/><polygon points="78.41 799.93 74.59 798.21 71.01 800.37 71.47 796.21 68.31 793.47 72.41 792.63 74.03 788.77 76.1 792.41 80.27 792.76 77.45 795.86 78.41 799.93" fill="url(#dc)"/><polygon points="289.81 838.87 286 837.15 282.42 839.31 282.88 835.15 279.71 832.41 283.81 831.57 285.44 827.71 287.51 831.35 291.68 831.71 288.86 834.8 289.81 838.87" fill="url(#dd)"/><polygon points="52.71 106.84 48.9 105.11 45.31 107.28 45.78 103.12 42.61 100.38 46.71 99.53 48.34 95.68 50.41 99.31 54.58 99.67 51.76 102.76 52.71 106.84" fill="url(#de)"/><polygon points="105.4 204.68 101.59 202.96 98 205.12 98.47 200.96 95.3 198.22 99.4 197.38 101.03 193.52 103.1 197.16 107.27 197.51 104.45 200.61 105.4 204.68" fill="url(#df)"/><polygon points="197.3 104.43 193.49 102.7 189.91 104.87 190.37 100.71 187.2 97.97 191.3 97.12 192.93 93.27 195 96.9 199.17 97.26 196.35 100.35 197.3 104.43" fill="url(#dg)"/><polygon points="280.66 255.07 276.85 253.35 273.27 255.51 273.73 251.35 270.56 248.61 274.66 247.76 276.29 243.91 278.36 247.55 282.53 247.9 279.71 251 280.66 255.07" fill="url(#dh)"/><polygon points="548.84 48.63 545.03 46.9 541.45 49.07 541.91 44.91 538.74 42.17 542.84 41.32 544.47 37.47 546.54 41.1 550.71 41.46 547.89 44.55 548.84 48.63" fill="url(#di)"/><polygon points="538.95 550.65 535.13 548.93 531.55 551.09 532.01 546.93 528.85 544.19 532.95 543.35 534.57 539.49 536.64 543.13 540.81 543.48 538 546.58 538.95 550.65" fill="url(#dj)"/><polygon points="613.39 370.76 609.57 369.04 605.99 371.2 606.45 367.04 603.29 364.3 607.39 363.45 609.01 359.6 611.08 363.24 615.25 363.59 612.43 366.69 613.39 370.76" fill="url(#dk)"/><polygon points="84.39 396.97 80.58 395.25 76.99 397.41 77.45 393.25 74.29 390.51 78.39 389.67 80.02 385.81 82.09 389.45 86.26 389.81 83.44 392.9 84.39 396.97" fill="url(#dl)"/><polygon points="64.02 556.45 60.21 554.73 56.63 556.89 57.09 552.73 53.92 549.99 58.02 549.14 59.65 545.29 61.72 548.93 65.89 549.28 63.07 552.38 64.02 556.45" fill="url(#dm)"/><polygon points="994.3 833.07 990.49 831.35 986.91 833.51 987.37 829.35 984.2 826.61 988.3 825.77 989.93 821.91 992 825.55 996.17 825.9 993.35 829 994.3 833.07" fill="url(#dn)"/><polygon points="1006.42 317.33 1002.61 315.61 999.03 317.77 999.49 313.61 996.32 310.88 1000.42 310.03 1002.05 306.17 1004.12 309.81 1008.29 310.17 1005.47 313.26 1006.42 317.33" fill="url(#do)"/></svg>